# Blender 3.3.0
# www.blender.org
o wheel_rim
v 0.015221 -0.002650 0.020950
v 0.011984 -0.001691 0.023063
v -0.011869 -0.002051 0.023106
v -0.015218 -0.002650 0.020938
v -0.018307 -0.001900 0.018255
v -0.025493 -0.001954 -0.004214
v -0.024616 -0.002649 -0.007994
v -0.023228 -0.002069 -0.011517
v -0.003811 -0.002163 -0.025559
v 0.000004 -0.002649 -0.025882
v 0.003810 -0.001784 -0.025675
v 0.023189 -0.002111 -0.011532
v 0.024592 -0.002650 -0.007990
v 0.025599 -0.002079 -0.004078
v 0.018296 -0.001984 0.018284
v -0.005424 0.003403 -0.000341
v -0.004724 0.001957 0.001199
v -0.002902 0.001840 -0.003846
v -0.002168 0.003377 -0.004843
v 0.001845 0.001978 -0.004495
v 0.004728 0.003401 -0.002248
v 0.004690 0.001960 -0.000912
v 0.004604 0.003339 0.002746
v -0.003631 0.003381 0.003669
v -0.001438 0.002015 0.004601
v 0.003343 0.001960 0.003629
v -0.000118 0.003484 0.005342
v -0.002366 0.001800 0.000432
v 0.000672 0.001800 -0.002128
v 0.001817 0.001800 0.001487
v -0.007048 0.003655 -0.000396
v 0.001437 0.003583 0.006978
v 0.002324 0.003518 -0.004763
v 0.005751 0.003654 0.003854
v 0.007055 0.003550 -0.001495
v -0.004604 0.003644 -0.005236
v 0.003564 0.003587 -0.005955
v -0.004743 0.003355 0.005502
v -0.000149 0.003193 -0.007183
v -0.006711 0.000898 0.003215
v -0.004644 0.000883 -0.006494
v 0.005798 0.000894 -0.004865
v 0.006891 0.000900 0.002508
v 0.000747 0.000893 0.007648
v -0.005799 -0.001511 -0.019555
v -0.002266 0.001835 -0.014213
v 0.005491 -0.000976 -0.019355
v 0.012539 -0.000917 -0.015681
v 0.011929 0.001832 -0.007231
v 0.018462 -0.000896 -0.007425
v 0.020340 -0.001416 -0.000855
v 0.011003 0.001851 0.009566
v 0.019307 -0.001044 0.005990
v 0.015822 -0.001237 0.012764
v 0.006858 -0.001255 0.019094
v -0.000607 -0.001016 0.020023
v -0.005522 0.001831 0.012823
v -0.006791 -0.001363 0.019037
v -0.011738 -0.001123 0.016350
v -0.016067 -0.001325 0.012415
v -0.014431 0.001835 -0.000543
v -0.020146 -0.001019 0.001279
v -0.018954 -0.001145 -0.006952
v -0.012883 -0.000997 -0.015443
v 0.016620 -0.002294 -0.011948
v -0.000024 -0.001638 -0.020280
v -0.016690 -0.002496 -0.011670
v -0.015925 -0.002650 0.012839
v -0.020472 -0.002754 -0.000460
v 0.006794 -0.002754 0.018727
v 0.000663 -0.002650 0.020294
v -0.006701 -0.002651 0.019000
v 0.005565 -0.002654 -0.019483
v 0.001354 -0.004407 -0.008716
v -0.000876 -0.003378 -0.008384
v 0.000875 -0.007125 -0.018689
v -0.000875 -0.007322 -0.018882
v 0.000000 -0.014302 -0.025881
v 0.001179 -0.001070 -0.008879
v 0.000875 -0.000331 -0.013432
v 0.000894 -0.002643 -0.019139
v -0.000879 -0.001986 -0.017250
v 0.008154 -0.000329 -0.011223
v 0.008541 -0.000548 -0.003691
v 0.018172 -0.002645 -0.006828
v -0.010686 -0.002644 0.016202
v 0.007334 -0.000505 0.011582
v -0.004765 -0.000633 0.008067
v 0.000000 -0.000329 0.013873
v 0.004355 -0.001060 0.007742
v -0.004926 -0.001068 -0.007351
v -0.003745 -0.004550 -0.007790
v 0.008423 -0.004159 -0.002534
v 0.008522 -0.004550 0.001043
v 0.009064 -0.001070 -0.001047
v 0.005114 -0.004143 0.007318
v 0.006126 -0.000371 0.006952
v 0.002303 -0.004550 0.008504
v -0.005319 -0.004312 0.006909
v -0.006000 -0.001053 0.006583
v -0.008904 -0.004184 -0.001837
v -0.008825 -0.001075 -0.001774
v -0.008000 -0.004112 -0.003516
v -0.009261 -0.000517 -0.003913
v -0.003464 -0.000000 0.006000
v 0.005669 -0.000000 0.004364
v 0.020458 -0.002776 -0.000745
v 0.016031 -0.002666 0.012663
v 0.003464 0.000000 -0.006000
v -0.005669 0.000000 -0.004364
v 0.014719 -0.005726 -0.005702
v 0.016746 -0.006477 -0.004521
v 0.024646 -0.013994 -0.008100
v 0.013487 -0.000654 -0.003463
v -0.017882 -0.002642 -0.006744
v 0.012109 -0.002645 0.015170
v -0.008154 -0.000329 -0.011223
v -0.008603 -0.000331 0.010352
v -0.013194 -0.000329 0.004287
v -0.014945 -0.001424 -0.003937
v -0.011972 -0.002642 0.014956
v 0.010384 -0.005995 0.012804
v 0.010277 -0.007125 0.015634
v 0.015437 -0.014166 0.020822
v -0.010193 -0.006893 0.015518
v -0.012089 -0.007472 0.015151
v -0.015199 -0.014342 0.020919
v 0.013194 -0.000329 0.004287
v -0.001952 0.000000 -0.001082
v -0.000044 -0.000000 0.002405
v 0.001817 0.000000 -0.001487
v -0.018698 -0.007955 -0.006995
v -0.019953 -0.008659 -0.005563
v -0.024592 -0.014342 -0.007990
vn 0.4757 0.8765 0.0736
vn 0.6889 0.6911 -0.2186
vn 0.4831 0.6934 0.5346
vn 0.1489 0.6716 0.7258
vn -0.2478 0.7106 0.6585
vn -0.4584 0.8478 0.2665
vn -0.7206 0.6864 0.0982
vn -0.4889 0.8376 -0.2436
vn 0.6552 -0.3359 -0.6767
vn 0.2344 0.7081 -0.6661
vn -0.4620 0.6468 -0.6068
vn -0.0319 0.8877 -0.4593
vn 0.3552 0.9291 -0.1029
vn -0.1091 0.9012 0.4194
vn -0.2852 0.9312 -0.2270
vn -0.7918 0.6035 -0.0937
vn 0.1882 0.6960 0.6929
vn -0.2120 0.8551 0.4731
vn 0.5556 0.6975 0.4525
vn 0.7767 0.6124 -0.1473
vn -0.4516 0.7784 -0.4361
vn 0.3391 0.6696 -0.6608
vn -0.5154 0.5213 0.6801
vn 0.0515 0.3734 -0.9262
vn -0.3897 0.9079 0.1545
vn -0.1715 0.9497 -0.2620
vn 0.3122 0.9111 -0.2692
vn 0.4142 0.8914 0.1839
vn 0.0275 0.9264 0.3755
vn -0.3526 -0.1394 -0.9253
vn -0.0396 0.9727 -0.2288
vn 0.4079 0.7403 -0.5344
vn 0.5443 0.3814 -0.7472
vn 0.1692 0.9809 -0.0956
vn 0.8464 0.4504 -0.2843
vn 0.6233 0.7451 0.2372
vn 0.1685 0.9736 0.1542
vn 0.8999 0.3515 0.2582
vn 0.6547 0.7319 0.1891
vn -0.0602 0.6384 0.7674
vn -0.0399 0.5941 0.8034
vn -0.0787 0.9798 0.1839
vn 0.0444 0.6644 0.7460
vn -0.1819 0.9575 0.2237
vn -0.7418 0.6504 0.1633
vn -0.2172 0.9761 -0.0055
vn -0.8028 0.5172 0.2965
vn -0.2315 0.9591 -0.1629
vn -0.5719 0.3134 -0.7581
vn 0.7113 -0.3660 -0.6001
vn -0.0433 0.9676 -0.2487
vn -0.5503 -0.5727 -0.6076
vn -0.5568 -0.8299 -0.0359
vn -0.2263 -0.9360 0.2696
vn -0.0849 -0.9472 0.3092
vn 0.0375 -0.5843 0.8106
vn 0.1983 -0.8652 0.4606
vn 0.4873 -0.8299 -0.2717
vn 0.4702 -0.8602 0.1973
vn -0.5112 -0.5762 -0.6377
vn 0.7889 -0.5551 0.2637
vn -0.7754 -0.5528 0.3053
vn 0.0007 -0.8682 -0.4961
vn 0.7253 -0.5487 -0.4157
vn 0.6546 -0.7495 0.0982
vn 0.7280 -0.6825 0.0655
vn -0.0203 -0.9857 -0.1671
vn -0.7236 -0.6902 -0.0076
vn -0.1543 -0.9755 0.1567
vn 0.0514 -0.7276 -0.6840
vn -0.1897 -0.7251 -0.6620
vn 0.6732 0.0668 -0.7364
vn 0.0640 -0.1285 -0.9896
vn 0.1084 -0.9924 -0.0582
vn -0.1415 -0.9735 0.1796
vn 0.5972 -0.6964 0.3978
vn 0.0833 -0.9811 0.1745
vn -0.1759 0.0850 0.9807
vn -0.5621 -0.7780 0.2806
vn 0.1303 -0.0424 0.9906
vn 0.3420 -0.7232 0.6000
vn 0.0151 -0.9842 -0.1765
vn -0.2142 -0.6040 0.7677
vn -0.4939 -0.7411 -0.4548
vn -0.2090 -0.9211 -0.3286
vn 0.4695 -0.8475 -0.2476
vn 0.4002 -0.7945 0.4567
vn 0.6107 -0.6935 0.3821
vn 0.4410 -0.7707 0.4600
vn 0.6642 -0.7310 -0.1565
vn 0.0522 -0.8271 0.5596
vn -0.1165 -0.9880 -0.1013
vn -0.7652 -0.6431 -0.0303
vn 0.0849 -0.7554 0.6497
vn -0.5657 -0.5959 0.5700
vn -0.2016 -0.7954 -0.5716
vn -0.0152 -0.6970 -0.7170
vn 0.2664 -0.7192 -0.6417
vn -0.5485 -0.7165 -0.4310
vn -0.9632 -0.2468 -0.1066
vn 0.3811 -0.8696 0.3141
vn 0.5656 -0.8221 -0.0647
vn -0.4441 -0.6949 0.5655
vn 0.5089 -0.7657 0.3935
vn -0.4328 -0.5808 -0.6894
vn -0.0202 -0.4853 0.8741
vn 0.5149 -0.8383 -0.1792
vn 0.1180 -0.7662 0.6316
vn 0.2523 -0.6675 -0.7006
vn -0.2345 -0.1223 -0.9644
vn -0.1717 -0.9821 -0.0773
vn 0.9147 -0.0099 0.4040
vn 0.5492 -0.7201 -0.4239
vn 0.9922 -0.0151 0.1239
vn 0.0533 -0.9820 0.1813
vn -0.4047 -0.7832 -0.4720
vn 0.1907 -0.9796 -0.0628
vn -0.1253 -0.7093 0.6937
vn -0.5460 -0.6922 -0.4720
vn -0.9439 0.0110 0.3300
vn -0.9885 0.0206 0.1497
vn 0.5441 -0.5570 -0.6274
vn -0.8572 -0.4325 0.2796
vn 0.3294 -0.8537 0.4033
vn 0.7802 -0.5450 0.3071
vn -0.4617 -0.5183 -0.7199
vn -0.2822 -0.8749 0.3935
vn -0.1618 -0.9851 -0.0589
vn 0.3221 -0.9221 0.2143
vn 0.0149 -0.9504 -0.3106
vn -0.2932 -0.9337 0.2053
vn 0.4641 -0.5198 -0.7172
vn 0.0719 -0.5177 0.8525
vn -0.4457 -0.8826 -0.1497
vt 1.000000 0.000000
vt 1.000000 1.000000
vt 0.000000 0.000000
vt 1.000000 1.000000
vt 1.000000 0.000000
vt 1.000000 1.000000
vt 0.000000 0.000000
vt 1.000000 0.000000
vt 1.000000 0.000000
vt 1.000000 1.000000
vt 0.000000 0.000000
vt 1.000000 1.000000
vt 1.000000 1.000000
vt 0.000000 0.000000
vt 1.000000 0.000000
vt 1.000000 0.000000
vt 1.000000 1.000000
vt 0.000000 0.000000
vt 1.000000 1.000000
vt 0.000000 0.000000
vt 1.000000 1.000000
vt 1.000000 0.000000
vt 0.000000 0.000000
vt 1.000000 1.000000
vt 0.000000 0.000000
vt 1.000000 0.000000
vt 1.000000 0.000000
vt 1.000000 1.000000
vt 1.000000 1.000000
vt 0.000000 0.000000
vt 1.000000 0.000000
vt 1.000000 0.000000
vt 1.000000 1.000000
vt 0.000000 0.000000
vt 1.000000 0.000000
vt 0.000000 0.000000
vt 1.000000 1.000000
vt 0.000000 0.000000
vt 1.000000 1.000000
vt 0.000000 0.000000
vt 1.000000 0.000000
vt 1.000000 1.000000
vt 1.000000 0.000000
vt 0.000000 0.000000
vt 1.000000 1.000000
vt 1.000000 0.000000
vt 0.000000 0.000000
vt 1.000000 1.000000
vt 1.000000 0.000000
vt 1.000000 0.000000
vt 1.000000 1.000000
vt 0.000000 0.000000
vt 1.000000 0.000000
vt 0.000000 0.000000
vt 1.000000 1.000000
vt 1.000000 0.000000
vt 1.000000 1.000000
vt 1.000000 0.000000
vt 1.000000 1.000000
vt 0.000000 0.000000
vt 1.000000 1.000000
vt 1.000000 0.000000
vt 0.000000 0.000000
vt 1.000000 0.000000
vt 1.000000 1.000000
vt 0.000000 0.000000
vt 1.000000 0.000000
vt 1.000000 1.000000
vt 0.000000 0.000000
vt 1.000000 0.000000
vt 1.000000 1.000000
vt 0.000000 0.000000
vt 0.000000 0.000000
vt 1.000000 0.000000
vt 1.000000 1.000000
vt 0.000000 0.000000
vt 1.000000 1.000000
vt 1.000000 0.000000
vt 0.000000 0.000000
vt 1.000000 1.000000
vt 1.000000 0.000000
vt 1.000000 1.000000
vt 1.000000 0.000000
vt 0.000000 0.000000
vt 1.000000 0.000000
vt 1.000000 1.000000
vt 0.000000 0.000000
vt 1.000000 1.000000
vt 0.000000 0.000000
vt 1.000000 0.000000
vt 1.000000 0.000000
vt 1.000000 1.000000
vt 0.000000 0.000000
vt 1.000000 0.000000
vt 1.000000 1.000000
vt 0.000000 0.000000
vt 1.000000 1.000000
vt 1.000000 0.000000
vt 0.000000 0.000000
vt 1.000000 1.000000
vt 1.000000 0.000000
vt 1.000000 0.000000
vt 1.000000 1.000000
vt 0.000000 0.000000
vt 1.000000 1.000000
vt 1.000000 0.000000
vt 0.000000 0.000000
vt 1.000000 1.000000
vt 1.000000 0.000000
vt 1.000000 1.000000
vt 0.000000 0.000000
vt 1.000000 0.000000
vt 0.000000 0.000000
vt 1.000000 1.000000
vt 1.000000 0.000000
vt 1.000000 1.000000
vt 1.000000 0.000000
vt 1.000000 1.000000
vt 1.000000 0.000000
vt 1.000000 1.000000
vt 0.000000 0.000000
vt 1.000000 0.000000
vt 1.000000 1.000000
vt 0.000000 0.000000
vt 1.000000 1.000000
vt 1.000000 0.000000
vt 0.000000 0.000000
vt 0.000000 0.000000
vt 1.000000 1.000000
vt 1.000000 0.000000
vt 1.000000 0.000000
vt 1.000000 1.000000
vt 0.000000 0.000000
vt 1.000000 1.000000
vt 1.000000 0.000000
vt 0.000000 0.000000
vt 1.000000 1.000000
vt 0.000000 0.000000
vt 1.000000 0.000000
vt 1.000000 1.000000
vt 0.000000 0.000000
vt 1.000000 1.000000
vt 0.000000 0.000000
vt 1.000000 0.000000
vt 1.000000 1.000000
vt 0.000000 0.000000
vt 1.000000 1.000000
vt 1.000000 0.000000
vt 0.000000 0.000000
vt 0.000000 0.000000
vt 1.000000 1.000000
vt 1.000000 0.000000
vt 1.000000 0.000000
vt 1.000000 1.000000
vt 0.000000 0.000000
vt 1.000000 0.000000
vt 1.000000 1.000000
vt 0.000000 0.000000
vt 1.000000 1.000000
vt 0.000000 0.000000
vt 1.000000 1.000000
vt 0.000000 0.000000
vt 1.000000 0.000000
vt 1.000000 0.000000
vt 0.000000 0.000000
vt 1.000000 1.000000
vt 0.000000 0.000000
vt 1.000000 1.000000
vt 1.000000 1.000000
vt 0.000000 0.000000
vt 1.000000 0.000000
vt 1.000000 1.000000
vt 0.000000 0.000000
vt 1.000000 0.000000
vt 0.000000 0.000000
vt 1.000000 0.000000
vt 1.000000 1.000000
vt 1.000000 0.000000
vt 0.000000 0.000000
vt 0.000000 0.000000
vt 1.000000 1.000000
vt 0.000000 0.000000
vt 1.000000 0.000000
vt 0.000000 0.000000
vt 1.000000 1.000000
vt 1.000000 0.000000
vt 1.000000 1.000000
vt 0.000000 0.000000
vt 1.000000 0.000000
vt 1.000000 1.000000
vt 0.000000 0.000000
vt 1.000000 0.000000
vt 0.000000 0.000000
vt 1.000000 1.000000
vt 1.000000 1.000000
vt 0.000000 0.000000
vt 1.000000 0.000000
vt 1.000000 0.000000
vt 0.000000 0.000000
vt 1.000000 1.000000
vt 1.000000 1.000000
vt 1.000000 0.000000
vt 0.000000 0.000000
vt 1.000000 1.000000
vt 1.000000 0.000000
vt 1.000000 1.000000
vt 1.000000 0.000000
vt 1.000000 1.000000
vt 1.000000 0.000000
vt 1.000000 1.000000
vt 0.000000 0.000000
vt 1.000000 0.000000
vt 1.000000 1.000000
vt 0.000000 0.000000
vt 0.000000 0.000000
vt 1.000000 0.000000
vt 1.000000 1.000000
vt 1.000000 1.000000
vt 1.000000 0.000000
vt 0.000000 0.000000
vt 1.000000 0.000000
vt 1.000000 1.000000
vt 0.000000 0.000000
vt 1.000000 0.000000
vt 1.000000 1.000000
vt 0.000000 0.000000
vt 1.000000 0.000000
vt 1.000000 1.000000
vt 0.000000 0.000000
vt 1.000000 0.000000
vt 1.000000 1.000000
vt 0.000000 0.000000
vt 1.000000 0.000000
vt 1.000000 1.000000
vt 0.000000 0.000000
vt 1.000000 0.000000
vt 1.000000 1.000000
vt 0.000000 0.000000
vt 1.000000 1.000000
vt 1.000000 0.000000
vt 0.000000 0.000000
vt 1.000000 1.000000
vt 1.000000 0.000000
vt 0.000000 0.000000
vt 0.000000 0.000000
vt 1.000000 1.000000
vt 1.000000 0.000000
vt 0.000000 0.000000
vt 1.000000 1.000000
vt 1.000000 0.000000
vt 0.000000 0.000000
vt 1.000000 0.000000
vt 1.000000 1.000000
vt 0.000000 0.000000
vt 1.000000 1.000000
vt 1.000000 0.000000
vt 1.000000 1.000000
vt 0.000000 0.000000
vt 0.000000 0.000000
vt 1.000000 0.000000
vt 1.000000 1.000000
vt 0.000000 0.000000
vt 1.000000 1.000000
vt 1.000000 1.000000
vt 0.000000 0.000000
vt 0.000000 0.000000
vt 1.000000 0.000000
vt 1.000000 1.000000
vt 1.000000 0.000000
vt 0.000000 0.000000
vt 1.000000 1.000000
vt 1.000000 0.000000
vt 0.000000 0.000000
vt 0.000000 0.000000
vt 1.000000 1.000000
vt 1.000000 1.000000
vt 0.000000 0.000000
vt 1.000000 0.000000
vt 1.000000 1.000000
vt 0.000000 0.000000
vt 1.000000 1.000000
vt 0.000000 0.000000
vt 1.000000 0.000000
vt 1.000000 1.000000
vt 0.000000 0.000000
vt 0.000000 0.000000
vt 1.000000 1.000000
vt 1.000000 0.000000
vt 0.000000 0.000000
vt 1.000000 1.000000
vt 1.000000 0.000000
vt 1.000000 0.000000
vt 1.000000 1.000000
vt 0.000000 0.000000
vt 1.000000 0.000000
vt 0.000000 0.000000
vt 1.000000 1.000000
vt 1.000000 1.000000
vt 1.000000 0.000000
vt 0.000000 0.000000
vt 1.000000 1.000000
vt 1.000000 0.000000
vt 1.000000 1.000000
vt 1.000000 0.000000
vt 1.000000 1.000000
vt 0.000000 0.000000
vt 1.000000 0.000000
vt 1.000000 1.000000
vt 0.000000 0.000000
vt 0.000000 0.000000
vt 1.000000 1.000000
vt 1.000000 0.000000
vt 1.000000 0.000000
vt 1.000000 1.000000
vt 0.000000 0.000000
vt 1.000000 0.000000
vt 1.000000 1.000000
vt 0.000000 0.000000
vt 1.000000 0.000000
vt 1.000000 1.000000
vt 0.000000 0.000000
vt 1.000000 1.000000
vt 0.000000 0.000000
vt 1.000000 0.000000
vt 1.000000 1.000000
vt 0.000000 0.000000
vt 1.000000 1.000000
vt 1.000000 0.000000
vt 0.000000 0.000000
vt 1.000000 1.000000
vt 1.000000 0.000000
vt 1.000000 1.000000
vt 1.000000 0.000000
vt 1.000000 1.000000
vt 1.000000 0.000000
vt 0.000000 0.000000
vt 1.000000 1.000000
vt 1.000000 0.000000
vt 1.000000 1.000000
vt 1.000000 0.000000
vt 1.000000 1.000000
vt 0.000000 0.000000
vt 1.000000 0.000000
vt 1.000000 0.000000
vt 1.000000 1.000000
vt 0.000000 0.000000
vt 1.000000 0.000000
vt 1.000000 1.000000
vt 0.000000 0.000000
vt 1.000000 0.000000
vt 1.000000 1.000000
vt 0.000000 0.000000
vt 0.000000 0.000000
vt 1.000000 1.000000
vt 1.000000 0.000000
vt 1.000000 1.000000
vt 1.000000 0.000000
vt 0.000000 0.000000
vt 1.000000 1.000000
vt 1.000000 0.000000
s 1
f 16/40/1 17/43/2 18/45/3
f 19/47/4 18/46/3 20/51/5
f 21/54/6 20/50/5 22/57/7
f 21/54/6 22/56/7 23/59/8
f 17/44/2 24/62/9 25/65/10
f 26/69/11 27/70/12 23/59/8
f 28/73/13 18/46/3 17/42/2
f 29/76/14 18/46/3 28/75/13
f 29/76/14 20/50/5 18/45/3
f 29/76/14 22/56/7 20/51/5
f 30/79/15 22/56/7 29/77/14
f 30/79/15 26/67/11 22/57/7
f 28/73/13 25/64/10 30/80/15
f 30/79/15 25/64/10 26/68/11
f 28/73/13 17/43/2 25/65/10
f 31/84/16 32/85/17 24/61/9
f 25/66/10 27/70/12 26/68/11
f 26/69/11 23/58/8 22/57/7
f 20/52/5 21/53/6 33/88/18
f 20/52/5 33/90/18 19/48/4
f 24/63/9 32/85/17 27/71/12
f 27/72/12 34/91/19 23/59/8
f 34/93/19 35/94/20 21/55/6
f 21/54/6 35/94/20 33/88/18
f 33/89/18 36/98/21 19/48/4
f 17/44/2 16/41/1 24/61/9
f 25/66/10 24/62/9 27/71/12
f 16/40/1 18/46/3 19/48/4
f 23/60/8 34/91/19 21/55/6
f 31/84/16 16/41/1 19/48/4
f 31/84/16 19/49/4 36/97/21
f 24/63/9 16/41/1 31/82/16
f 27/72/12 32/85/17 34/92/19
f 33/89/18 37/101/22 36/97/21
f 31/84/16 38/102/23 32/86/17
f 36/96/21 37/101/22 39/105/24
f 37/99/22 33/90/18 35/95/20
f 40/107/25 31/83/16 41/110/26
f 41/111/26 31/83/16 36/97/21
f 41/111/26 36/98/21 39/105/24
f 41/111/26 39/106/24 42/114/27
f 42/113/27 39/106/24 37/100/22
f 42/113/27 37/101/22 35/95/20
f 42/113/27 35/94/20 43/116/28
f 31/84/16 40/109/25 38/103/23
f 38/104/23 40/109/25 44/118/29
f 38/104/23 44/119/29 32/86/17
f 32/87/17 44/119/29 34/92/19
f 34/93/19 44/119/29 43/116/28
f 34/93/19 43/117/28 35/95/20
f 45/121/30 46/122/31 47/125/32
f 47/127/32 46/122/31 48/129/33
f 48/128/33 46/122/31 49/132/34
f 48/128/33 49/131/34 50/134/35
f 50/136/35 49/131/34 51/137/36
f 51/138/36 49/131/34 52/140/37
f 51/138/36 52/139/37 53/142/38
f 53/143/38 52/139/37 54/145/39
f 54/146/39 52/139/37 55/147/40
f 55/149/40 52/139/37 56/151/41
f 56/150/41 52/139/37 57/154/42
f 56/150/41 57/153/42 58/157/43
f 58/158/43 57/153/42 59/159/44
f 59/160/44 57/153/42 60/161/45
f 60/162/45 57/153/42 61/166/46
f 60/162/45 61/164/46 62/168/47
f 62/167/47 61/164/46 63/169/48
f 63/170/48 61/164/46 64/172/49
f 64/173/49 61/164/46 46/123/31
f 64/173/49 46/122/31 45/120/30
f 41/111/26 61/164/46 40/108/25
f 61/165/46 41/112/26 46/123/31
f 46/124/31 41/112/26 42/114/27
f 46/124/31 42/115/27 49/132/34
f 49/133/34 42/115/27 43/116/28
f 49/133/34 43/117/28 52/140/37
f 52/141/37 43/117/28 44/118/29
f 52/141/37 44/119/29 57/154/42
f 57/155/42 44/119/29 40/108/25
f 57/155/42 40/109/25 61/166/46
f 65/175/50 50/135/35 51/137/36
f 50/136/35 65/176/50 48/129/33
f 47/127/32 66/178/51 45/120/30
f 63/170/48 64/174/49 67/181/52
f 68/182/53 60/163/45 69/185/54
f 69/184/54 60/163/45 62/168/47
f 67/180/52 64/174/49 45/120/30
f 70/188/55 55/148/40 71/190/56
f 71/191/56 55/148/40 56/151/41
f 71/191/56 56/152/41 58/157/43
f 71/191/56 58/156/43 72/194/57
f 73/196/58 47/126/32 48/129/33
f 73/196/58 48/130/33 65/177/50
f 74/199/59 75/202/60 76/204/61
f 76/203/61 75/202/60 77/206/62
f 76/203/61 77/207/62 78/208/63
f 79/211/64 74/198/59 80/213/65
f 80/214/65 74/198/59 76/204/61
f 80/214/65 76/205/61 81/217/66
f 81/215/66 76/205/61 10/24/67
f 10/25/67 76/205/61 78/208/63
f 10/25/67 78/209/63 77/206/62
f 10/25/67 77/207/62 82/218/68
f 82/220/68 77/207/62 75/201/60
f 80/214/65 83/221/69 79/210/64
f 79/211/64 83/221/69 84/225/70
f 80/214/65 81/216/66 83/222/69
f 83/223/69 81/216/66 73/195/58
f 83/223/69 73/197/58 85/228/71
f 83/223/69 85/227/71 84/225/70
f 10/25/67 73/197/58 81/217/66
f 73/196/58 10/26/67 11/28/72
f 73/196/58 65/176/50 85/228/71
f 85/229/71 65/176/50 12/29/73
f 12/30/73 13/32/74 85/228/71
f 4/11/75 86/230/76 72/194/57
f 71/191/56 72/192/57 70/187/55
f 70/188/55 1/1/77 2/4/78
f 70/188/55 87/233/79 1/2/77
f 4/11/75 72/192/57 3/6/80
f 86/232/76 88/236/81 89/239/82
f 86/232/76 89/240/82 72/194/57
f 72/193/57 89/240/82 70/187/55
f 70/188/55 89/240/82 87/234/79
f 89/241/82 88/236/81 90/242/83
f 89/241/82 90/243/83 87/234/79
f 91/245/84 75/202/60 92/249/85
f 92/248/85 75/202/60 74/200/59
f 74/199/59 79/212/64 84/225/70
f 74/199/59 84/224/70 93/253/86
f 94/254/87 93/252/86 95/257/88
f 94/254/87 95/256/88 96/261/89
f 96/259/89 95/256/88 97/263/90
f 98/265/91 96/260/89 90/242/83
f 98/265/91 90/243/83 88/237/81
f 98/265/91 88/236/81 99/268/92
f 99/266/92 100/269/93 101/271/94
f 101/273/94 100/269/93 102/275/95
f 91/245/84 92/250/85 103/276/96
f 91/245/84 103/278/96 104/279/97
f 94/254/87 96/260/89 98/264/91
f 74/199/59 93/252/86 94/255/87
f 101/273/94 103/278/96 92/249/85
f 105/282/98 106/283/99 99/268/92
f 99/266/92 106/283/99 98/264/91
f 66/179/51 47/126/32 11/28/72
f 66/179/51 11/27/72 9/21/100
f 66/179/51 9/22/100 45/120/30
f 51/138/36 53/144/38 107/287/101
f 107/286/101 53/144/38 108/290/102
f 108/289/102 53/144/38 54/145/39
f 109/294/103 110/295/104 74/200/59
f 74/199/59 110/295/104 92/249/85
f 93/251/86 111/299/105 112/301/106
f 112/300/106 111/299/105 113/303/107
f 95/258/88 93/252/86 114/305/108
f 114/306/108 93/252/86 112/301/106
f 114/306/108 112/302/106 13/33/74
f 13/34/74 112/302/106 113/303/107
f 13/34/74 113/304/107 111/298/105
f 13/34/74 111/299/105 85/228/71
f 85/229/71 111/299/105 84/225/70
f 84/226/70 111/299/105 93/253/86
f 9/23/100 10/26/67 82/218/68
f 9/23/100 82/219/68 45/120/30
f 45/121/30 82/219/68 67/181/52
f 67/180/52 115/307/109 8/19/110
f 115/309/109 7/16/111 8/19/110
f 13/34/74 107/288/101 114/305/108
f 13/34/74 14/35/112 107/287/101
f 116/310/113 108/291/102 1/2/77
f 1/3/77 108/291/102 15/39/114
f 82/220/68 117/313/115 67/181/52
f 67/180/52 117/313/115 115/308/109
f 115/309/109 117/313/115 104/279/97
f 82/220/68 75/202/60 91/246/84
f 82/220/68 91/247/84 117/314/115
f 117/315/115 91/247/84 104/279/97
f 99/266/92 101/272/94 105/281/98
f 105/282/98 101/272/94 110/297/104
f 100/270/93 118/316/116 119/320/117
f 100/270/93 119/319/117 102/275/95
f 102/274/95 119/319/117 120/322/118
f 118/318/116 121/324/119 119/320/117
f 119/321/117 121/324/119 69/185/54
f 119/321/117 69/186/54 120/322/118
f 121/326/119 68/183/53 69/185/54
f 120/323/118 69/186/54 7/17/111
f 7/18/111 69/186/54 6/13/120
f 68/182/53 121/324/119 4/10/75
f 68/182/53 4/9/75 5/12/121
f 106/285/99 109/292/103 94/255/87
f 94/254/87 109/292/103 74/200/59
f 96/259/89 122/328/122 123/330/123
f 123/329/123 122/328/122 124/332/124
f 90/244/83 96/260/89 87/234/79
f 87/235/79 96/260/89 123/330/123
f 87/235/79 123/331/123 1/2/77
f 1/3/77 123/331/123 124/332/124
f 1/3/77 124/333/124 122/327/122
f 1/3/77 122/328/122 116/311/113
f 116/310/113 122/328/122 97/263/90
f 97/262/90 122/328/122 96/261/89
f 98/265/91 106/283/99 94/255/87
f 99/266/92 125/335/125 126/337/126
f 126/336/126 125/335/125 127/339/127
f 100/270/93 99/267/92 118/317/116
f 118/318/116 99/267/92 126/337/126
f 118/318/116 126/338/126 121/325/119
f 121/326/119 126/338/126 4/10/75
f 4/11/75 126/338/126 127/339/127
f 4/11/75 127/340/127 125/334/125
f 4/11/75 125/335/125 86/231/76
f 86/232/76 125/335/125 88/237/81
f 88/238/81 125/335/125 99/268/92
f 114/306/108 107/288/101 128/341/128
f 128/342/128 107/288/101 108/290/102
f 128/342/128 108/291/102 116/311/113
f 128/342/128 116/312/113 97/263/90
f 114/306/108 128/343/128 95/257/88
f 95/258/88 128/343/128 97/263/90
f 110/296/104 129/344/129 130/348/130
f 110/296/104 130/347/130 105/281/98
f 105/282/98 130/347/130 106/284/99
f 106/285/99 130/347/130 131/351/131
f 106/285/99 131/350/131 109/293/103
f 109/294/103 131/350/131 110/297/104
f 110/296/104 131/350/131 129/345/129
f 129/346/129 28/74/13 130/348/130
f 130/349/130 28/74/13 30/80/15
f 130/349/130 30/81/15 131/351/131
f 131/352/131 30/81/15 29/77/14
f 131/352/131 29/78/14 129/345/129
f 129/346/129 29/78/14 28/75/13
f 6/14/120 69/186/54 62/168/47
f 60/162/45 68/183/53 5/12/121
f 59/160/44 60/163/45 3/6/80
f 3/7/80 60/163/45 5/12/121
f 59/160/44 3/8/80 58/157/43
f 8/20/110 6/15/120 63/169/48
f 63/170/48 6/15/120 62/168/47
f 8/20/110 63/171/48 67/181/52
f 14/36/112 12/31/73 51/137/36
f 51/138/36 12/31/73 65/177/50
f 47/127/32 73/197/58 11/28/72
f 15/38/114 108/291/102 54/145/39
f 51/138/36 107/288/101 14/37/112
f 103/277/96 101/272/94 132/354/132
f 132/353/132 101/272/94 133/356/133
f 132/353/132 133/357/133 134/359/134
f 104/280/97 103/278/96 115/308/109
f 115/309/109 103/278/96 132/354/132
f 115/309/109 132/355/132 7/17/111
f 7/18/111 132/355/132 134/359/134
f 7/18/111 134/360/134 133/356/133
f 7/18/111 133/357/133 120/322/118
f 133/358/133 101/272/94 120/322/118
f 120/323/118 101/272/94 102/275/95
f 58/158/43 3/8/80 72/194/57
f 55/149/40 70/189/55 2/4/78
f 55/149/40 2/5/78 54/145/39
f 54/146/39 2/5/78 15/39/114
f 101/273/94 92/250/85 110/297/104
