o cover_motor
v -0.198901 1.621367 -0.846824
v -0.198901 1.664185 -0.87909
v -0.198709 1.618439 -0.845259
v -0.198709 1.666497 -0.881473
v -0.198231 1.61544 -0.844694
v -0.198231 1.667866 -0.884198
v -0.197546 1.612799 -0.845203
v -0.197546 1.668105 -0.88688
v -0.197023 1.617562 -0.851814
v -0.197022 1.660437 -0.884123
v -0.196727 1.610841 -0.84668
v -0.196727 1.667225 -0.889168
v -0.195996 1.621954 -0.846045
v -0.195995 1.664772 -0.878311
v -0.195838 1.61902 -0.844489
v -0.195838 1.667077 -0.880703
v -0.195406 1.616013 -0.843936
v -0.195405 1.668437 -0.883441
v -0.195333 1.615782 -0.854177
v -0.195333 1.658657 -0.886485
v -0.195068 1.609064 -0.848874
v -0.195068 1.665606 -0.891481
v -0.194732 1.668679 -0.886142
v -0.194731 1.613347 -0.844448
v -0.193981 1.611551 -0.84565
v -0.193981 1.668019 -0.888202
v -0.193596 1.61847 -0.850609
v -0.193596 1.661345 -0.882918
v -0.192688 1.610138 -0.84736
v -0.192688 1.666765 -0.890032
v -0.192612 1.614202 -0.856273
v -0.192612 1.657077 -0.888581
v -0.192422 1.607528 -0.850913
v -0.192422 1.664069 -0.893519
v -0.192375 1.617148 -0.852364
v -0.192375 1.660022 -0.884672
v -0.190652 1.608955 -0.848933
v -0.190652 1.665578 -0.891602
v -0.190437 1.616018 -0.853863
v -0.190437 1.658893 -0.886171
v -0.189266 1.61315 -0.857669
v -0.189266 1.656025 -0.889978
v -0.189178 1.606505 -0.852269
v -0.189177 1.663047 -0.894876
v -0.188146 1.60817 -0.84997
v -0.188146 1.664798 -0.892643
v -0.188083 1.615143 -0.855025
v -0.188083 1.658017 -0.887333
v -0.185917 1.612846 -0.858073
v -0.185917 1.655721 -0.890381
v -0.185902 1.606227 -0.852727
v -0.185902 1.662684 -0.895271
v -0.185594 1.607885 -0.850269
v -0.185594 1.664589 -0.893002
v -0.185575 1.615063 -0.855131
v -0.185575 1.657937 -0.887439
v -0.144782 1.606259 -0.85294
v -0.144782 1.662466 -0.895299
v -0.144781 1.607992 -0.850644
v -0.144781 1.664199 -0.893004
v -0.144749 1.612657 -0.858324
v -0.144749 1.655531 -0.890632
v -0.144748 1.614926 -0.855312
v -0.144748 1.657801 -0.88762
v -0.141353 1.606696 -0.85333
v -0.141353 1.661975 -0.894985
v -0.141352 1.608482 -0.85096
v -0.141352 1.66376 -0.892616
v -0.138476 1.608153 -0.854419
v -0.138476 1.60993 -0.852062
v -0.138476 1.660526 -0.893885
v -0.138476 1.662303 -0.891527
v -0.136546 1.610342 -0.856068
v -0.136546 1.658338 -0.892236
v -0.136545 1.612117 -0.853712
v -0.136545 1.660114 -0.88988
v -0.135821 1.655712 -0.89031
v -0.13582 1.614743 -0.855638
v -0.135819 1.612918 -0.85806
v -0.135819 1.657537 -0.887888
vt 0.0003 0.0633
vt 0.0003 0.4556
vt 0.0003 0.8858
vt 0.0007 0.8616
vt 0.0056 0.0394
vt 0.0056 0.4794
vt 0.0084 0.9114
vt 0.0196 0.0194
vt 0.0196 0.4995
vt 0.022 0.8821
vt 0.0224 0.8633
vt 0.0234 0.9337
vt 0.0282 0.9018
vt 0.0398 0.919
vt 0.0405 0.0061
vt 0.0405 0.5128
vt 0.0416 0.9493
vt 0.0525 0.5656
vt 0.0541 0.9312
vt 0.0567 0.5407
vt 0.0577 0.9579
vt 0.0609 0.5191
vt 0.0649 0.0629
vt 0.0649 0.4559
vt 0.0655 0.0018
vt 0.0655 0.5171
vt 0.068 0.9389
vt 0.0717 0.9646
vt 0.0732 0.5694
vt 0.0781 0.5445
vt 0.0822 0.523
vt 0.0822 0.9455
vt 0.0827 0.5979
vt 0.0831 0.6222
vt 0.0908 0.5724
vt 0.1045 0.6016
vt 0.1048 0.6205
vt 0.1058 0.55
vt 0.1107 0.5819
vt 0.1222 0.5647
vt 0.124 0.5345
vt 0.1349 0.9181
vt 0.1366 0.5526
vt 0.1391 0.9431
vt 0.1402 0.5258
vt 0.1433 0.9646
vt 0.1505 0.5448
vt 0.1542 0.5191
vt 0.1556 0.9144
vt 0.1605 0.9392
vt 0.1646 0.5382
vt 0.1646 0.9608
vt 0.1652 0.563
vt 0.1652 0.9553
vt 0.1671 0.5392
vt 0.1671 0.9792
vt 0.1715 0.5191
vt 0.1715 0.9992
vt 0.1863 0.563
vt 0.1863 0.9553
vt 0.1877 0.5392
vt 0.1877 0.9792
vt 0.1921 0.5191
vt 0.1921 0.9992
vt 0.1926 0.5632
vt 0.1926 0.9557
vt 0.1943 0.5392
vt 0.1943 0.9797
vt 0.1984 0.5191
vt 0.1984 0.9997
vt 0.2134 0.5632
vt 0.2134 0.9557
vt 0.2148 0.5392
vt 0.2148 0.9797
vt 0.2186 0.5192
vt 0.2186 0.9997
vt 0.3644 0.0629
vt 0.3644 0.4559
vt 0.3645 0.0007
vt 0.3645 0.5182
vt 0.3889 0.0003
vt 0.3889 0.5186
vt 0.3892 0.0629
vt 0.3892 0.4559
vt 0.414 0.0003
vt 0.414 0.5186
vt 0.4151 0.0629
vt 0.4151 0.4559
vt 0.4157 0.064
vt 0.4157 0.4563
vt 0.421 0.0402
vt 0.421 0.4802
vt 0.4351 0.0201
vt 0.4351 0.5002
vt 0.4561 0.0068
vt 0.4561 0.5136
vt 0.4812 0.0025
vt 0.4812 0.0637
vt 0.4812 0.4567
vt 0.4812 0.5178
vt 0.7798 0.0003
vt 0.7798 0.5201
vt 0.7799 0.0637
vt 0.7799 0.4567
vt 0.7983 0.0637
vt 0.7983 0.4567
vt 0.7986 0.0006
vt 0.7986 0.5197
vt 0.8161 0.0637
vt 0.8161 0.4567
vt 0.8176 0.0007
vt 0.8176 0.5197
vt 0.8181 0.0629
vt 0.8181 0.4559
vt 0.8191 0.0003
vt 0.8191 0.5186
vt 0.8445 0.0629
vt 0.8445 0.4559
vt 0.8448 0.0003
vt 0.8448 0.5186
vt 0.8688 0.001
vt 0.8688 0.5179
vt 0.8695 0.0629
vt 0.8695 0.456
vt 0.8868 0.5129
vt 0.8869 0.0059
vt 0.9021 0.0191
vt 0.9021 0.4997
vt 0.9125 0.0392
vt 0.9125 0.4797
vt 0.9164 0.0632
vt 0.9164 0.4557
vt 0.917 0.0636
vt 0.917 0.4561
vt 0.921 0.0396
vt 0.921 0.4801
vt 0.9315 0.0195
vt 0.9315 0.5001
vt 0.9471 0.0062
vt 0.9471 0.5134
vt 0.9625 0.0633
vt 0.9625 0.4563
vt 0.963 0.001
vt 0.963 0.5186
vt 0.9805 0.0633
vt 0.9805 0.4563
vt 0.9814 0.0003
vt 0.9814 0.5194
vt 0.998 0.0633
vt 0.998 0.4563
vt 0.9997 0.0003
vt 0.9997 0.5194
vn -0.958 -0.1756 -0.2267
vn -0.958 -0.1681 -0.2325
vn -0.957 -0.1877 -0.221
vn -0.957 -0.1608 -0.2415
vn -0.9547 -0.1991 -0.2213
vn -0.9547 -0.1579 -0.2523
vn -0.9502 -0.2122 -0.2281
vn -0.9502 -0.1608 -0.2668
vn -0.9377 -0.1957 -0.2872
vn -0.9274 -0.2382 -0.2885
vn -0.8963 -0.2946 -0.3315
vn -0.8963 -0.2375 -0.3745
vn -0.805 -0.3745 -0.4602
vn -0.8006 -0.3479 -0.4879
vn -0.7561 -0.4236 -0.4989
vn -0.7561 -0.3628 -0.5447
vn -0.5846 -0.5181 -0.6244
vn -0.5846 -0.5033 -0.6363
vn -0.5846 -0.4678 -0.6629
vn -0.5846 -0.4574 -0.6701
vn -0.3664 -0.5291 -0.7654
vn -0.3662 -0.5899 -0.7197
vn -0.3178 0.5258 0.789
vn -0.3172 0.6344 0.705
vn -0.3171 0.6344 0.705
vn -0.3164 0.4793 0.8186
vn -0.3018 0.2864 0.9093
vn -0.3018 0.2865 0.9093
vn -0.3017 0.7952 0.526
vn -0.2891 -0.5635 -0.7739
vn -0.2805 -0.5951 -0.7531
vn -0.2494 -0.0518 0.967
vn -0.2492 0.9439 0.2167
vn -0.2489 -0.0522 0.9671
vn -0.2487 0.9441 0.2165
vn -0.1758 -0.3575 0.9172
vn -0.1756 0.9803 -0.0906
vn -0.1644 -0.4306 0.8874
vn -0.1642 0.9718 -0.1692
vn -0.1589 -0.4169 0.895
vn -0.1586 0.9753 -0.1538
vn -0.1137 -0.6067 0.7867
vn -0.1135 0.9236 -0.3661
vn -0.1045 -0.6262 -0.7727
vn -0.1045 -0.5702 -0.8148
vn -0.0869 -0.67 0.7373
vn -0.0867 0.8935 -0.4406
vn -0.0779 -0.616 -0.7839
vn -0.0637 -0.7383 0.6715
vn -0.0637 0.849 -0.5245
vn -0.0542 -0.5848 -0.8094
vn -0.0232 -0.7978 0.6025
vn -0.0232 0.799 -0.6009
vn -0.0223 -0.7961 0.6048
vn -0.0222 0.8008 -0.5986
vn -0.0107 -0.8068 0.5908
vn -0.0105 0.7902 -0.6127
vn -0.0097 -0.8073 0.5901
vn -0.0096 0.7897 -0.6134
vn -0.0083 0.7804 -0.6253
vn -0.0078 -0.8161 0.5779
vn -0.0054 -0.6387 -0.7694
vn -0.0054 0.7773 -0.6291
vn -0.0052 -0.8185 0.5744
vn -0.0051 -0.5638 -0.8259
vn -0.0039 0.7726 -0.6349
vn -0.0035 -0.8232 0.5678
vn -0.0019 0.7876 -0.6162
vn -0.0017 -0.8094 0.5872
vn 0.0025 0.6431 0.7658
vn 0.0028 0.5592 0.829
vn 0.0113 -0.6384 -0.7696
vn 0.0117 -0.5639 -0.8257
vn 0.0118 0.6385 0.7695
vn 0.0123 0.5641 0.8256
vn 0.018 -0.619 -0.7852
vn 0.0185 -0.5791 -0.815
vn 0.0205 0.582 0.8129
vn 0.0249 0.621 0.7834
vn 0.0332 -0.5743 -0.8179
vn 0.0333 -0.6279 -0.7776
vn 0.0337 0.6279 0.7776
vn 0.0338 0.5744 0.8178
vn 0.04 -0.5814 -0.8126
vn 0.0402 -0.6207 -0.783
vn 0.0406 0.5814 0.8126
vn 0.0407 0.6206 0.783
vn 0.0411 -0.5954 -0.8024
vn 0.0412 -0.6099 -0.7914
vn 0.0416 0.5954 0.8024
vn 0.0418 0.6099 0.7914
vn 0.0425 0.6185 0.7846
vn 0.0469 0.5779 0.8148
vn 0.0529 0.5959 0.8013
vn 0.0529 0.6085 0.7918
vn 0.0596 0.786 -0.6153
vn 0.0821 0.5588 0.8253
vn 0.0825 0.6395 0.7644
vn 0.0869 -0.8033 0.5892
vn 0.0877 -0.7951 0.6001
vn 0.1054 0.5705 0.8145
vn 0.1058 0.6258 0.7728
vn 0.1145 0.793 -0.5984
vn 0.2274 0.5617 0.7954
vn 0.2277 0.6099 0.7591
vn 0.2949 0.7629 -0.5754
vn 0.3131 0.5429 0.7793
vn 0.3135 0.5995 0.7364
vn 0.358 -0.7456 0.5621
vn 0.3581 -0.7457 0.5618
vn 0.4195 0.7249 -0.5463
vn 0.5043 0.5366 0.6766
vn 0.5097 0.5049 0.6966
vn 0.5988 0.451 0.6618
vn 0.5988 0.5119 0.6159
vn 0.6141 0.4572 0.6433
vn 0.6142 0.4866 0.6213
vn 0.6398 -0.6137 0.4625
vn 0.6398 0.6138 -0.4626
vn 0.7357 0.5408 -0.4077
vn 0.7358 -0.5409 0.4076
vn 0.778 0.3567 0.5172
vn 0.7855 0.336 0.5198
vn 0.7855 0.407 0.4662
vn 0.8039 0.3787 0.4587
vn 0.8855 -0.3711 0.2794
vn 0.8911 0.2325 0.3897
vn 0.8911 0.3106 0.331
vn 0.9106 0.2296 0.3436
vn 0.9136 0.2682 0.3058
vn 0.9144 0.323 -0.2439
vn 0.9145 0.3229 -0.2438
vn 0.9226 0.2253 0.3132
vn 0.9227 0.2367 0.3045
vn 0.9248 0.2055 0.3203
vn 0.9248 0.2513 0.2858
vn 0.9295 0.1837 0.3198
vn 0.9296 0.2566 0.2647
vn 0.9318 0.1756 0.3177
vn 0.9318 0.257 0.2562
vn 0.9393 -0.274 0.2063
vn 0.9893 -0.1164 0.0879
vn 0.9893 0.1161 -0.0882
vn 0.9973 -0.0582 0.0438
vn 0.9973 0.058 -0.0441
f 25/19/46 7/21/42 11/17/49
f 19/117/13 11/121/11 9/123/10
f 12/122/12 20/118/14 10/124/9
f 44/82/21 32/88/19 34/86/20
f 52/80/45 42/84/30 44/82/21
f 50/78/51 58/26/65 62/24/77
f 57/25/62 49/77/48 61/23/76
f 62/24/77 74/6/84 77/2/88
f 7/126/7 9/123/10 11/121/11
f 56/103/92 47/106/94 55/104/93
f 61/23/76 73/5/85 69/8/81
f 61/23/76 65/15/72 57/25/62
f 10/124/9 8/125/8 12/122/12
f 62/24/77 66/16/73 71/9/80
f 54/37/63 58/42/96 52/34/66
f 41/83/31 51/79/44 43/81/22
f 31/87/18 43/81/22 33/85/17
f 31/113/18 21/119/15 19/117/13
f 3/129/3 9/123/10 5/127/5
f 22/120/16 32/114/19 20/118/14
f 17/75/32 3/67/27 5/69/34
f 10/124/9 4/130/4 6/128/6
f 42/84/30 49/77/48 41/83/31
f 43/3/69 37/13/58 33/7/56
f 7/21/36 17/32/32 5/28/34
f 14/72/24 1/65/23 13/71/26
f 4/68/29 18/76/33 6/70/35
f 8/45/43 26/43/47 12/41/50
f 60/49/103 66/44/106 58/42/96
f 72/63/120 74/55/132 71/57/119
f 79/54/142 75/62/141 73/56/126
f 74/55/132 80/59/143 77/53/145
f 69/22/118 67/30/109 65/20/110
f 29/14/54 11/17/49 21/12/52
f 40/109/117 47/106/113 48/105/112
f 27/141/129 36/146/125 28/142/130
f 56/103/92 63/99/78 64/98/79
f 45/108/101 55/104/93 47/106/94
f 67/30/109 57/18/99 65/20/110
f 14/134/134 27/141/129 28/142/130
f 14/72/24 4/68/29 2/66/25
f 46/36/60 52/34/66 44/33/68
f 37/112/114 47/106/113 39/110/116
f 38/39/59 44/33/68 34/35/57
f 28/142/130 23/140/140 18/138/138
f 18/51/33 8/45/37 6/48/35
f 64/98/79 68/95/74 60/97/70
f 51/4/67 45/10/61 43/3/69
f 35/145/122 37/151/114 39/149/116
f 38/111/115 48/105/112 46/107/108
f 77/53/145 78/60/144 79/54/142
f 46/107/105 56/103/92 54/101/98
f 60/97/70 56/103/92 64/98/79
f 57/18/99 53/11/64 51/4/67
f 16/136/136 28/142/130 18/138/138
f 68/50/111 71/46/119 66/44/106
f 27/141/129 15/135/135 17/137/137
f 12/41/50 30/40/55 22/38/53
f 36/146/125 38/152/115 30/148/124
f 33/7/56 29/14/54 21/12/52
f 63/99/78 75/92/86 78/90/90
f 3/67/27 13/71/26 1/65/23
f 76/91/87 64/98/79 80/89/91
f 73/56/126 70/64/121 69/58/118
f 59/100/71 55/104/93 53/102/97
f 64/98/79 78/90/90 80/89/91
f 27/141/129 24/139/139 25/143/127
f 35/145/122 40/150/117 36/146/125
f 67/96/75 63/99/78 59/100/71
f 50/78/51 61/23/76 49/77/48
f 1/131/1 10/124/9 9/123/10
f 9/123/10 20/118/14 19/117/13
f 31/113/18 20/118/14 32/114/19
f 31/87/18 42/84/30 41/83/31
f 61/23/76 77/2/88 79/1/89
f 25/143/127 35/145/122 27/141/129
f 26/144/128 36/146/125 30/148/124
f 30/40/55 34/35/57 22/38/53
f 25/19/46 24/27/40 7/21/38
f 19/117/13 21/119/15 11/121/11
f 12/122/12 22/120/16 20/118/14
f 44/82/21 42/84/30 32/88/19
f 52/80/45 50/78/51 42/84/30
f 50/78/51 52/80/45 58/26/65
f 57/25/62 51/79/44 49/77/48
f 62/24/77 71/9/80 74/6/84
f 7/126/7 5/127/5 9/123/10
f 56/103/92 48/105/95 47/106/94
f 61/23/76 79/1/89 73/5/85
f 61/23/76 69/8/81 65/15/72
f 10/124/9 6/128/6 8/125/8
f 62/24/77 58/26/65 66/16/73
f 54/37/63 60/49/103 58/42/96
f 41/83/31 49/77/48 51/79/44
f 31/87/18 41/83/31 43/81/22
f 31/113/18 33/115/17 21/119/15
f 3/129/3 1/131/1 9/123/10
f 22/120/16 34/116/20 32/114/19
f 17/75/32 15/73/28 3/67/27
f 10/124/9 2/132/2 4/130/4
f 42/84/30 50/78/51 49/77/48
f 43/3/69 45/10/61 37/13/58
f 7/21/36 24/27/40 17/32/32
f 14/72/24 2/66/25 1/65/23
f 4/68/29 16/74/29 18/76/33
f 8/45/39 23/47/41 26/43/47
f 60/49/103 68/50/111 66/44/106
f 72/63/120 76/61/131 74/55/132
f 79/54/142 78/60/144 75/62/141
f 74/55/132 76/61/131 80/59/143
f 69/22/118 70/31/121 67/30/109
f 29/14/54 25/19/46 11/17/49
f 40/109/117 39/110/116 47/106/113
f 27/141/129 35/145/122 36/146/125
f 56/103/92 55/104/93 63/99/78
f 45/108/104 53/102/97 55/104/93
f 67/30/109 59/29/100 57/18/99
f 14/134/134 13/133/133 27/141/129
f 14/72/24 16/74/29 4/68/29
f 46/36/60 54/37/63 52/34/66
f 37/112/114 45/108/107 47/106/113
f 38/39/59 46/36/60 44/33/68
f 28/142/130 26/144/128 23/140/140
f 18/51/33 23/47/41 8/45/37
f 64/98/79 72/93/82 68/95/74
f 51/4/67 53/11/64 45/10/61
f 35/145/122 29/147/123 37/151/114
f 38/111/115 40/109/117 48/105/112
f 77/53/145 80/59/143 78/60/144
f 46/107/102 48/105/95 56/103/92
f 60/97/70 54/101/98 56/103/92
f 57/18/99 59/29/100 53/11/64
f 16/136/136 14/134/134 28/142/130
f 68/50/111 72/52/120 71/46/119
f 27/141/129 13/133/133 15/135/135
f 12/41/50 26/43/47 30/40/55
f 36/146/125 40/150/117 38/152/115
f 33/7/56 37/13/58 29/14/54
f 63/99/78 70/94/83 75/92/86
f 3/67/27 15/73/28 13/71/26
f 76/91/87 72/93/82 64/98/79
f 73/56/126 75/62/141 70/64/121
f 59/100/71 63/99/78 55/104/93
f 64/98/79 63/99/78 78/90/90
f 27/141/129 17/137/137 24/139/139
f 35/145/122 39/149/116 40/150/117
f 67/96/75 70/94/83 63/99/78
f 50/78/51 62/24/77 61/23/76
f 1/131/1 2/132/2 10/124/9
f 9/123/10 10/124/9 20/118/14
f 31/113/18 19/117/13 20/118/14
f 31/87/18 32/88/19 42/84/30
f 61/23/76 62/24/77 77/2/88
f 25/143/127 29/147/123 35/145/122
f 26/144/128 28/142/130 36/146/125
f 30/40/55 38/39/59 34/35/57
