o motor_ring
v -0.113791 1.632192 -0.852891
v -0.113791 1.632192 -0.793726
v -0.113791 1.64576 -0.861957
v -0.113791 1.64576 -0.78466
v -0.113791 1.661768 -0.86514
v -0.113791 1.661768 -0.781476
v -0.113791 1.677777 -0.861957
v -0.113791 1.677777 -0.78466
v -0.113791 1.691345 -0.852891
v -0.113791 1.691345 -0.793726
v -0.113786 1.630072 -0.855544
v -0.113786 1.630072 -0.791072
v -0.113786 1.661768 -0.868241
v -0.113786 1.661768 -0.778375
v -0.113786 1.693464 -0.855544
v -0.113786 1.693464 -0.791072
v -0.113785 1.6445 -0.864925
v -0.113785 1.6445 -0.781691
v -0.113785 1.679037 -0.864925
v -0.113785 1.679037 -0.781691
v -0.113782 1.627982 -0.858432
v -0.113782 1.627982 -0.788185
v -0.113782 1.64313 -0.867987
v -0.113782 1.64313 -0.77863
v -0.113782 1.661768 -0.87145
v -0.113782 1.661768 -0.775167
v -0.113782 1.680407 -0.867987
v -0.113782 1.680407 -0.77863
v -0.113782 1.695554 -0.858432
v -0.113782 1.695554 -0.788185
v -0.10813 1.619945 -0.823308
v -0.10813 1.623129 -0.839313
v -0.10813 1.623129 -0.807303
v -0.10813 1.632194 -0.852882
v -0.10813 1.632194 -0.793735
v -0.10813 1.645763 -0.861948
v -0.10813 1.645763 -0.784669
v -0.10813 1.661768 -0.865131
v -0.10813 1.661768 -0.781485
v -0.10813 1.677773 -0.861948
v -0.10813 1.677773 -0.784669
v -0.10813 1.691342 -0.852882
v -0.10813 1.691342 -0.793735
v -0.10813 1.700408 -0.839313
v -0.10813 1.700408 -0.807303
v -0.10813 1.703591 -0.823308
v -0.108127 1.618397 -0.823308
v -0.108127 1.621059 -0.83858
v -0.108127 1.621059 -0.808037
v -0.108127 1.702477 -0.83858
v -0.108127 1.702477 -0.808037
v -0.108127 1.70514 -0.823308
v -0.108126 1.62219 -0.842981
v -0.108126 1.62219 -0.803636
v -0.108126 1.701347 -0.842981
v -0.108126 1.701347 -0.803636
v -0.108125 1.630075 -0.855535
v -0.108125 1.630075 -0.791082
v -0.108125 1.693462 -0.855535
v -0.108125 1.693462 -0.791082
v -0.108122 1.627971 -0.858435
v -0.108122 1.627971 -0.788182
v -0.108122 1.643133 -0.867978
v -0.108122 1.643133 -0.778639
v -0.108122 1.661768 -0.871441
v -0.108122 1.661768 -0.775176
v -0.108122 1.680403 -0.867978
v -0.108122 1.680403 -0.778639
v -0.108122 1.695566 -0.858435
v -0.108122 1.695566 -0.788182
v -0.10812 1.617846 -0.842464
v -0.10812 1.617846 -0.804152
v -0.10812 1.705691 -0.842464
v -0.10812 1.705691 -0.804152
v -0.108116 1.614094 -0.823308
v -0.108116 1.709442 -0.823308
v -0.108113 1.612125 -0.823308
v -0.108113 1.612925 -0.841991
v -0.108113 1.612925 -0.804625
v -0.108113 1.615423 -0.862545
v -0.108113 1.615423 -0.784072
v -0.108113 1.617825 -0.867203
v -0.108113 1.617825 -0.779414
v -0.108113 1.622508 -0.869677
v -0.108113 1.622508 -0.776939
v -0.108113 1.637459 -0.871912
v -0.108113 1.637459 -0.774704
v -0.108113 1.661768 -0.872952
v -0.108113 1.661768 -0.773665
v -0.108113 1.686077 -0.871912
v -0.108113 1.686077 -0.774704
v -0.108113 1.701029 -0.869677
v -0.108113 1.701029 -0.776939
v -0.108113 1.705711 -0.867203
v -0.108113 1.705711 -0.779414
v -0.108113 1.708113 -0.862545
v -0.108113 1.708113 -0.784072
v -0.108113 1.710612 -0.841991
v -0.108113 1.710612 -0.804625
v -0.108113 1.711411 -0.823308
v -0.104357 1.619945 -0.823308
v -0.104357 1.623129 -0.839313
v -0.104357 1.623129 -0.807303
v -0.104357 1.632194 -0.852882
v -0.104357 1.632194 -0.793735
v -0.104357 1.645763 -0.861948
v -0.104357 1.645763 -0.784669
v -0.104357 1.661768 -0.865131
v -0.104357 1.661768 -0.781485
v -0.104357 1.677773 -0.861948
v -0.104357 1.677773 -0.784669
v -0.104357 1.691342 -0.852882
v -0.104357 1.691342 -0.793735
v -0.104357 1.700408 -0.839313
v -0.104357 1.700408 -0.807303
v -0.104357 1.703591 -0.823308
v -0.101887 1.611957 -0.823308
v -0.101887 1.613183 -0.847601
v -0.101887 1.613183 -0.799016
v -0.101887 1.615412 -0.862575
v -0.101887 1.615412 -0.784042
v -0.101887 1.617849 -0.867227
v -0.101887 1.617849 -0.779389
v -0.101887 1.622471 -0.869675
v -0.101887 1.622471 -0.776941
v -0.101887 1.637476 -0.871893
v -0.101887 1.637476 -0.774724
v -0.101887 1.661768 -0.87312
v -0.101887 1.661768 -0.773497
v -0.101887 1.686061 -0.871893
v -0.101887 1.686061 -0.774724
v -0.101887 1.701065 -0.869675
v -0.101887 1.701065 -0.776941
v -0.101887 1.705687 -0.867227
v -0.101887 1.705687 -0.779389
v -0.101887 1.708124 -0.862575
v -0.101887 1.708124 -0.784042
v -0.101887 1.710353 -0.847601
v -0.101887 1.710353 -0.799016
v -0.101887 1.71158 -0.823308
vt 0.0002 0.1407
vt 0.0002 0.263
vt 0.0002 0.7397
vt 0.0002 0.8621
vt 0.0099 0.0649
vt 0.0101 0.74
vt 0.0107 0.9377
vt 0.0138 0.6178
vt 0.0162 0.3847
vt 0.0242 0.0409
vt 0.0255 0.9617
vt 0.0275 0.8344
vt 0.0326 0.5432
vt 0.0357 0.4594
vt 0.0379 0.6471
vt 0.05 0.5202
vt 0.0531 0.4821
vt 0.0536 0.0275
vt 0.0552 0.9748
vt 0.0811 0.5091
vt 0.0841 0.4932
vt 0.0855 0.9126
vt 0.1044 0.573
vt 0.105 0.9027
vt 0.1227 0.5842
vt 0.123 0.8926
vt 0.1395 0.5954
vt 0.1507 0.0125
vt 0.1827 0.5006
vt 0.1848 0.945
vt 0.1869 0.967
vt 0.1886 0.9918
vt 0.2068 0.5473
vt 0.209 0.9411
vt 0.2114 0.5256
vt 0.2132 0.9516
vt 0.2159 0.5009
vt 0.2305 0.5528
vt 0.2359 0.5426
vt 0.3087 0.0002
vt 0.3103 0.9998
vt 0.3109 0.9899
vt 0.3121 0.9683
vt 0.3125 0.9605
vt 0.3358 0.5402
vt 0.3363 0.5325
vt 0.3375 0.5108
vt 0.338 0.5009
vt 0.3416 0.5006
vt 0.4125 0.9582
vt 0.4178 0.948
vt 0.4325 0.9998
vt 0.4352 0.5491
vt 0.4369 0.9752
vt 0.4394 0.5597
vt 0.4415 0.9535
vt 0.4597 0.509
vt 0.4614 0.5338
vt 0.4636 0.5557
vt 0.4676 0.0002
vt 0.4996 0.4882
vt 0.5089 0.9053
vt 0.5254 0.6081
vt 0.5256 0.9165
vt 0.5433 0.5981
vt 0.5439 0.9277
vt 0.5628 0.5881
vt 0.5662 0.0075
vt 0.5673 0.9917
vt 0.5931 0.5259
vt 0.5967 0.4733
vt 0.5972 0.0186
vt 0.5983 0.9806
vt 0.6104 0.8536
vt 0.6146 0.0414
vt 0.6158 0.9576
vt 0.6208 0.6663
vt 0.6228 0.539
vt 0.6261 0.4598
vt 0.634 0.116
vt 0.6345 0.883
vt 0.6377 0.5631
vt 0.6382 0.7607
vt 0.6404 0.4358
vt 0.6481 0.6387
vt 0.6481 0.761
vt 0.65 0.2377
vt 0.65 0.3601
vt 0.6505 0.1701
vt 0.6505 0.5103
vt 0.6715 0.1701
vt 0.6715 0.5103
vt 0.6732 0.0764
vt 0.6732 0.2638
vt 0.6732 0.4166
vt 0.6732 0.604
vt 0.6917 0.1701
vt 0.6917 0.5103
vt 0.6932 0.0833
vt 0.6932 0.2569
vt 0.6932 0.4235
vt 0.6932 0.5972
vt 0.7125 0.0896
vt 0.7125 0.2506
vt 0.7125 0.4298
vt 0.7125 0.5908
vt 0.7356 0.0002
vt 0.7356 0.34
vt 0.7356 0.3404
vt 0.7356 0.6802
vt 0.7544 0.0107
vt 0.7544 0.3295
vt 0.7544 0.3509
vt 0.7544 0.6697
vt 0.7717 0.0214
vt 0.7717 0.3188
vt 0.7717 0.3616
vt 0.7717 0.6591
vt 0.7722 0.1568
vt 0.7722 0.3364
vt 0.7722 0.4776
vt 0.7722 0.6346
vt 0.7723 0.0747
vt 0.7723 0.2338
vt 0.7723 0.3073
vt 0.7723 0.3224
vt 0.7723 0.4006
vt 0.7723 0.5596
vt 0.7723 0.6486
vt 0.7723 0.6637
vt 0.7724 0.0002
vt 0.7724 0.294
vt 0.7724 0.3066
vt 0.7724 0.3404
vt 0.7724 0.6342
vt 0.8092 0.0748
vt 0.8092 0.1568
vt 0.8092 0.2337
vt 0.8092 0.307
vt 0.8092 0.3222
vt 0.8092 0.3362
vt 0.8092 0.4006
vt 0.8092 0.4776
vt 0.8092 0.5596
vt 0.8092 0.6348
vt 0.8092 0.6488
vt 0.8092 0.664
vt 0.8094 0.0002
vt 0.8094 0.294
vt 0.8094 0.3066
vt 0.8094 0.3404
vt 0.8094 0.6342
vt 0.8097 0.3356
vt 0.8097 0.6346
vt 0.8098 0.3071
vt 0.8098 0.663
vt 0.8277 0.307
vt 0.8277 0.3354
vt 0.8277 0.6347
vt 0.8277 0.6632
vt 0.8339 0.0748
vt 0.8339 0.1568
vt 0.8339 0.2337
vt 0.8339 0.4006
vt 0.8339 0.4776
vt 0.8339 0.5596
vt 0.834 0.0002
vt 0.834 0.294
vt 0.834 0.3404
vt 0.834 0.6342
vt 0.8345 0.2187
vt 0.8346 0.0972
vt 0.8346 0.341
vt 0.8348 0.0227
vt 0.8348 0.4169
vt 0.835 0.0002
vt 0.835 0.441
vt 0.8441 0.6349
vt 0.8441 0.6633
vt 0.8655 0.5858
vt 0.8657 0.5065
vt 0.8657 0.6672
vt 0.8665 0.4414
vt 0.8665 0.7382
vt 0.8752 0.1252
vt 0.8752 0.2187
vt 0.8752 0.3127
vt 0.8754 0.0229
vt 0.8754 0.4167
vt 0.8756 0.0003
vt 0.8756 0.4408
vt 0.8761 0.2225
vt 0.8762 0.1002
vt 0.8762 0.344
vt 0.8764 0.0243
vt 0.8764 0.4185
vt 0.8766 0.0002
vt 0.8766 0.441
vt 0.8901 0.5858
vt 0.8904 0.5065
vt 0.8904 0.6672
vt 0.8911 0.4414
vt 0.8911 0.7382
vt 0.8916 0.5938
vt 0.8919 0.5124
vt 0.8919 0.6731
vt 0.8927 0.4414
vt 0.8927 0.7382
vt 0.9163 0.5938
vt 0.9165 0.5125
vt 0.9165 0.6731
vt 0.9168 0.2225
vt 0.9169 0.1285
vt 0.9169 0.316
vt 0.9171 0.0245
vt 0.9171 0.4183
vt 0.9173 0.0003
vt 0.9173 0.4409
vt 0.9173 0.4414
vt 0.9173 0.7382
vt 0.9178 0.0213
vt 0.9178 0.0941
vt 0.9178 0.2138
vt 0.9178 0.3354
vt 0.9178 0.4117
vt 0.9178 0.5048
vt 0.9178 0.5946
vt 0.9178 0.6899
vt 0.9179 0.0003
vt 0.9179 0.4365
vt 0.9179 0.4371
vt 0.9179 0.7728
vt 0.9548 0.5048
vt 0.9548 0.5946
vt 0.9548 0.6899
vt 0.9549 0.4371
vt 0.9549 0.7727
vt 0.9554 0.5199
vt 0.9554 0.6152
vt 0.9554 0.705
vt 0.9556 0.4371
vt 0.9556 0.7728
vt 0.9585 0.0002
vt 0.9585 0.0215
vt 0.9585 0.094
vt 0.9585 0.2139
vt 0.9585 0.3354
vt 0.9585 0.4115
vt 0.9585 0.4367
vt 0.959 0.1015
vt 0.959 0.2231
vt 0.959 0.3428
vt 0.9591 0.0003
vt 0.9591 0.0252
vt 0.9591 0.4155
vt 0.9591 0.4366
vt 0.9924 0.5199
vt 0.9924 0.6152
vt 0.9924 0.705
vt 0.9925 0.4371
vt 0.9925 0.7727
vt 0.9997 0.0254
vt 0.9997 0.1014
vt 0.9997 0.223
vt 0.9997 0.3429
vt 0.9997 0.4154
vt 0.9998 0.0002
vt 0.9998 0.4367
vn -1.0 -0.0022 0.0
vn -1.0 -0.0019 -0.0004
vn -1.0 -0.0019 0.0
vn -1.0 -0.0019 0.0004
vn -1.0 -0.0014 -0.0004
vn -1.0 -0.0014 0.0004
vn -1.0 -0.0013 -0.0007
vn -1.0 -0.0013 0.0007
vn -1.0 -0.0005 -0.0012
vn -1.0 -0.0005 0.0012
vn -1.0 -0.0 -0.0016
vn -1.0 -0.0 0.0016
vn -1.0 0.0005 -0.0012
vn -1.0 0.0005 0.0012
vn -1.0 0.0013 -0.0007
vn -1.0 0.0013 0.0007
vn -1.0 0.0014 -0.0004
vn -1.0 0.0014 0.0004
vn -1.0 0.0019 -0.0004
vn -1.0 0.0019 0.0
vn -1.0 0.0019 0.0004
vn -1.0 0.0022 0.0
vn -0.9899 -0.1151 -0.0824
vn -0.9899 -0.1151 0.0824
vn -0.9899 0.1151 -0.0824
vn -0.9899 0.1151 0.0824
vn -0.9898 -0.076 -0.1203
vn -0.9898 -0.076 0.1203
vn -0.9898 0.076 -0.1203
vn -0.9898 0.076 0.1203
vn -0.9813 -0.1887 -0.0369
vn -0.9813 -0.1887 0.0369
vn -0.9813 0.1887 -0.0369
vn -0.9813 0.1887 0.0369
vn -0.93 -0.0 0.3674
vn -0.8986 -0.1679 -0.4054
vn -0.8986 -0.1679 0.4054
vn -0.8985 -0.439 0.0
vn -0.8985 0.439 0.0
vn -0.8971 -0.0 -0.4419
vn -0.8323 -0.442 -0.3346
vn -0.8323 -0.442 0.3347
vn -0.8323 0.442 -0.3346
vn -0.8323 0.442 0.3346
vn -0.8313 -0.0532 -0.5533
vn -0.8313 -0.0532 0.5533
vn -0.8313 0.0532 -0.5533
vn -0.8313 0.0532 0.5533
vn -0.8059 0.1898 -0.5608
vn -0.8059 0.1898 0.5608
vn -0.785 -0.6195 0.0
vn -0.7201 -0.6726 -0.1703
vn -0.7201 -0.6726 0.1703
vn -0.7201 0.6727 -0.1703
vn -0.7201 0.6727 0.1703
vn -0.7184 -0.6938 -0.0496
vn -0.7184 -0.6938 0.0496
vn -0.7184 0.6938 -0.0496
vn -0.7184 0.6938 0.0496
vn -0.7164 -0.6977 0.0
vn -0.7164 0.6977 0.0
vn -0.7162 0.694 0.0741
vn -0.7137 -0.6634 -0.2246
vn -0.7137 -0.6634 0.2246
vn -0.7137 0.6634 -0.2246
vn -0.7137 0.6634 0.2246
vn -0.713 0.7012 0.0
vn -0.7126 -0.2558 -0.6533
vn -0.7126 -0.2558 0.6533
vn -0.7125 0.2558 -0.6533
vn -0.7125 0.2558 0.6533
vn -0.7121 -0.0 -0.702
vn -0.7121 -0.0 0.702
vn -0.712 -0.6549 -0.2534
vn -0.712 -0.6549 0.2534
vn -0.712 0.6549 -0.2534
vn -0.712 0.6549 0.2534
vn -0.7104 -0.0 -0.7038
vn -0.7104 -0.0 0.7038
vn -0.7103 -0.0 -0.7039
vn -0.7103 -0.0 0.7039
vn -0.7094 -0.0683 -0.7015
vn -0.7094 -0.0683 0.7015
vn -0.7094 0.0683 -0.7015
vn -0.7075 -0.5727 -0.4142
vn -0.7075 0.5726 -0.4141
vn -0.7075 0.5727 0.4141
vn -0.7074 -0.5727 0.4141
vn -0.7067 -0.3771 -0.5986
vn -0.7067 -0.3771 0.5986
vn -0.7067 0.3771 -0.5986
vn -0.7067 0.3771 0.5986
vn -0.6552 0.1071 -0.7478
vn -0.6552 0.1071 0.7478
vn -0.6551 -0.1071 -0.7479
vn -0.6551 -0.1071 0.7479
vn -0.6056 -0.2897 -0.7412
vn -0.6056 -0.2897 0.7412
vn -0.6056 0.2897 -0.7412
vn -0.6056 0.2897 0.7412
vn -0.6032 0.0773 0.7939
vn -0.5904 -0.7924 -0.1535
vn -0.5904 -0.7924 0.1534
vn -0.5904 0.7924 -0.1535
vn -0.5904 0.7924 0.1534
vn -0.5693 -0.8175 -0.0873
vn -0.5693 -0.8175 0.0873
vn -0.5692 0.8175 -0.0873
vn -0.5627 -0.0548 -0.8249
vn -0.5627 -0.0547 0.8249
vn -0.5606 -0.3024 0.7709
vn -0.5606 0.3024 0.7709
vn -0.5605 -0.3024 -0.771
vn -0.5605 0.3024 -0.771
vn -0.5593 -0.2131 0.8011
vn -0.5593 -0.213 -0.8011
vn -0.5593 0.2131 -0.8011
vn -0.5593 0.2131 0.8011
vn -0.465 -0.6283 -0.6237
vn -0.465 -0.6283 0.6237
vn -0.465 0.6283 -0.6237
vn -0.465 0.6283 0.6237
vn -0.4638 -0.6279 -0.625
vn -0.4638 -0.6279 0.625
vn -0.4638 0.6279 -0.625
vn -0.4638 0.6279 0.625
vn -0.4547 -0.6297 -0.6299
vn -0.4547 -0.6297 0.6299
vn -0.4547 0.6297 -0.6299
vn -0.4547 0.6297 0.6298
vn -0.4533 -0.4506 -0.769
vn -0.4533 -0.4506 0.769
vn -0.4533 0.4506 -0.769
vn -0.4533 0.4507 0.769
vn -0.4479 0.7118 -0.5411
vn -0.4478 -0.7118 -0.5411
vn -0.4478 -0.7118 0.5411
vn -0.4478 0.7118 0.5411
vn -0.3229 0.1453 0.9352
vn -0.3229 0.1454 -0.9352
vn -0.3228 -0.1454 -0.9352
vn -0.3228 -0.1454 0.9352
vn -0.001 -0.4088 -0.9126
vn -0.001 -0.4087 0.9126
vn -0.0008 0.4429 0.8965
vn -0.0008 0.443 -0.8965
vn -0.0007 0.0284 -0.9996
vn -0.0007 0.0284 0.9996
vn 0.0 -1.0 0.0
vn 0.0 -0.8966 0.4429
vn 0.0 -0.8965 -0.443
vn 0.0 -0.6588 -0.7524
vn 0.0 -0.6588 0.7523
vn 0.0 -0.3207 -0.9472
vn 0.0 -0.3207 0.9472
vn 0.0 0.0 -1.0
vn 0.0 0.0 1.0
vn 0.0 0.3207 -0.9472
vn 0.0 0.3207 0.9472
vn 0.0 0.6588 -0.7523
vn 0.0 0.6588 0.7523
vn 0.0 0.8965 -0.4429
vn 0.0 0.8966 0.4429
vn 0.0 1.0 0.0
f 140/171/67 98/185/58 100/186/61
f 138/172/108 96/188/54 98/185/58
f 136/174/76 94/190/121 96/188/54
f 130/252/84 88/264/80 90/265/47
f 92/266/117 130/252/84 90/265/47
f 94/268/121 132/255/114 92/266/117
f 67/12/99 88/3/80 65/6/78
f 50/36/19 76/42/20 73/31/17
f 40/144/144 5/121/110 38/143/148
f 50/36/19 46/44/38 52/43/22
f 76/42/20 98/32/58 73/31/17
f 67/240/99 25/258/72 27/259/70
f 38/143/148 110/166/155 40/144/144
f 42/207/128 114/210/150 44/205/64
f 40/144/144 112/170/153 42/152/132
f 44/205/64 116/209/149 46/204/38
f 59/146/138 29/130/87 15/129/44
f 55/30/15 69/22/33 59/24/138
f 15/114/44 7/106/37 9/118/139
f 40/144/144 9/135/139 7/128/37
f 67/240/99 29/261/91 69/242/29
f 19/102/13 25/90/72 13/92/11
f 7/106/37 13/92/11 5/98/110
f 29/110/104 19/102/13 15/114/44
f 55/30/15 50/36/19 73/31/17
f 42/26/132 55/30/15 59/24/138
f 59/146/138 9/122/139 42/145/96
f 69/22/33 90/4/47 67/12/99
f 69/22/33 94/11/121 92/7/117
f 96/19/54 73/31/17 98/32/58
f 140/171/67 99/187/59 139/173/62
f 97/189/55 139/173/62 99/187/59
f 137/175/77 95/191/122 135/177/126
f 131/222/101 89/246/81 129/223/35
f 93/244/118 131/222/101 133/221/112
f 95/243/122 133/221/112 135/229/126
f 89/86/81 68/74/100 66/83/79
f 76/42/20 51/50/21 74/54/18
f 6/119/109 41/136/143 39/137/147
f 46/44/38 51/50/21 52/43/22
f 99/52/59 76/42/20 74/54/18
f 68/226/100 26/234/73 66/227/79
f 111/161/154 39/137/147 41/136/143
f 115/211/151 43/208/127 45/206/63
f 113/167/152 41/136/143 43/148/131
f 116/209/149 45/206/63 46/204/38
f 60/159/135 30/156/86 70/154/25
f 70/66/34 56/56/16 60/64/135
f 16/111/43 8/103/36 20/99/14
f 41/136/143 10/131/140 43/148/131
f 30/236/92 68/226/100 70/231/30
f 26/89/73 20/99/14 14/91/12
f 14/91/12 8/103/36 6/97/109
f 30/107/105 20/99/14 28/93/71
f 51/50/21 56/56/16 74/54/18
f 43/62/131 56/56/16 45/51/63
f 10/179/140 60/159/135 43/178/95
f 70/66/34 91/81/48 93/76/118
f 70/66/34 95/73/122 97/69/55
f 97/69/55 74/54/18 70/66/34
f 117/192/51 78/214/56 118/194/106
f 80/216/52 118/194/106 78/214/56
f 120/196/74 82/218/119 122/198/123
f 126/250/82 88/264/80 128/251/40
f 84/262/116 126/250/82 124/254/113
f 82/267/119 124/254/113 122/253/123
f 88/3/80 63/15/97 65/6/78
f 75/47/3 48/39/2 71/35/5
f 38/143/148 3/127/50 36/142/145
f 31/45/39 48/39/2 47/46/1
f 78/37/56 75/47/3 71/35/5
f 63/238/97 25/258/72 65/239/78
f 106/164/159 38/143/148 36/142/145
f 102/201/163 34/184/130 32/182/66
f 104/169/161 36/142/145 34/151/134
f 101/199/164 32/182/66 31/180/39
f 57/140/137 21/125/88 61/139/24
f 61/23/31 53/33/7 57/25/137
f 11/113/42 3/105/50 17/101/9
f 36/142/145 1/134/142 34/151/134
f 21/260/89 63/238/97 61/241/27
f 25/90/72 17/101/9 13/92/11
f 13/92/11 3/105/50 5/98/110
f 21/109/102 17/101/9 23/95/68
f 48/39/2 53/33/7 71/35/5
f 34/27/134 53/33/7 32/38/66
f 1/120/142 57/140/137 34/141/94
f 61/23/31 86/8/45 84/13/116
f 61/23/31 82/16/119 80/20/52
f 80/20/52 71/35/5 61/23/31
f 117/192/51 79/213/57 77/212/60
f 119/193/107 81/215/53 79/213/57
f 121/195/75 83/217/120 81/215/53
f 127/224/83 89/246/81 87/247/46
f 85/248/115 127/224/83 87/247/46
f 83/249/120 125/225/111 85/248/115
f 64/77/98 89/86/81 66/83/79
f 49/53/4 75/47/3 72/58/6
f 39/137/147 4/124/49 6/119/109
f 49/53/4 31/45/39 47/46/1
f 75/47/3 79/57/57 72/58/6
f 64/228/98 26/234/73 24/235/69
f 39/137/147 107/163/158 37/138/146
f 35/183/129 103/200/162 33/181/65
f 37/138/146 105/168/160 35/149/133
f 33/181/65 101/199/164 31/180/39
f 58/158/136 22/155/85 12/157/41
f 54/59/8 62/67/32 58/65/136
f 12/112/41 4/104/49 2/116/141
f 37/138/146 2/132/141 4/124/49
f 64/228/98 22/237/90 62/232/28
f 18/100/10 26/89/73 14/91/12
f 4/104/49 14/91/12 6/97/109
f 22/108/103 18/100/10 12/112/41
f 54/59/8 49/53/4 72/58/6
f 35/63/133 54/59/8 58/65/136
f 58/150/136 2/132/141 35/149/93
f 62/67/32 87/85/46 64/77/98
f 62/67/32 83/78/120 85/82/115
f 81/70/53 72/58/6 79/57/57
f 117/2/51 126/29/82 118/9/106
f 126/29/82 117/2/51 128/49/40
f 130/61/84 136/84/76 132/71/114
f 134/79/125 132/71/114 136/84/76
f 138/88/108 130/61/84 140/87/67
f 139/80/62 131/60/101 137/75/77
f 135/72/126 137/75/77 133/68/112
f 131/60/101 139/80/62 129/40/35
f 127/28/83 121/5/75 125/18/111
f 123/10/124 125/18/111 121/5/75
f 119/1/107 127/28/83 117/2/51
f 118/9/106 126/29/82 120/14/74
f 122/17/123 120/14/74 124/21/113
f 128/49/40 129/40/35 140/87/67
f 136/84/76 130/61/84 138/88/108
f 137/75/77 131/60/101 133/68/112
f 129/40/35 139/80/62 140/87/67
f 121/5/75 127/28/83 119/1/107
f 120/14/74 126/29/82 124/21/113
f 130/61/84 128/49/40 140/87/67
f 129/40/35 128/49/40 117/2/51
f 117/2/51 127/28/83 129/40/35
f 140/171/67 138/172/108 98/185/58
f 138/172/108 136/174/76 96/188/54
f 136/174/76 134/176/125 94/190/121
f 130/252/84 128/251/40 88/264/80
f 92/266/117 132/255/114 130/252/84
f 94/268/121 134/256/125 132/255/114
f 67/12/99 90/4/47 88/3/80
f 50/36/19 52/43/22 76/42/20
f 40/144/144 7/128/37 5/121/110
f 50/36/19 44/34/64 46/44/38
f 76/42/20 100/41/61 98/32/58
f 67/240/99 65/239/78 25/258/72
f 38/143/148 108/165/157 110/166/155
f 42/207/128 112/219/153 114/210/150
f 40/144/144 110/166/155 112/170/153
f 44/205/64 114/210/150 116/209/149
f 59/146/138 69/147/26 29/130/87
f 55/30/15 73/31/17 69/22/33
f 15/114/44 19/102/13 7/106/37
f 40/144/144 42/152/132 9/135/139
f 67/240/99 27/259/70 29/261/91
f 19/102/13 27/96/70 25/90/72
f 7/106/37 19/102/13 13/92/11
f 29/110/104 27/96/70 19/102/13
f 55/30/15 44/34/64 50/36/19
f 42/26/132 44/34/64 55/30/15
f 59/146/138 15/129/44 9/122/139
f 69/22/33 92/7/117 90/4/47
f 69/22/33 96/19/54 94/11/121
f 96/19/54 69/22/33 73/31/17
f 140/171/67 100/186/61 99/187/59
f 97/189/55 137/175/77 139/173/62
f 137/175/77 97/189/55 95/191/122
f 131/222/101 91/245/48 89/246/81
f 93/244/118 91/245/48 131/222/101
f 95/243/122 93/244/118 133/221/112
f 89/86/81 91/81/48 68/74/100
f 76/42/20 52/43/22 51/50/21
f 6/119/109 8/123/36 41/136/143
f 46/44/38 45/51/63 51/50/21
f 99/52/59 100/41/61 76/42/20
f 68/226/100 28/233/71 26/234/73
f 111/161/154 109/162/156 39/137/147
f 115/211/151 113/220/152 43/208/127
f 113/167/152 111/161/154 41/136/143
f 116/209/149 115/211/151 45/206/63
f 60/159/135 16/160/43 30/156/86
f 70/66/34 74/54/18 56/56/16
f 16/111/43 10/115/140 8/103/36
f 41/136/143 8/123/36 10/131/140
f 30/236/92 28/233/71 68/226/100
f 26/89/73 28/93/71 20/99/14
f 14/91/12 20/99/14 8/103/36
f 30/107/105 16/111/43 20/99/14
f 51/50/21 45/51/63 56/56/16
f 43/62/131 60/64/135 56/56/16
f 10/179/140 16/160/43 60/159/135
f 70/66/34 68/74/100 91/81/48
f 70/66/34 93/76/118 95/73/122
f 97/69/55 99/52/59 74/54/18
f 117/192/51 77/212/60 78/214/56
f 80/216/52 120/196/74 118/194/106
f 120/196/74 80/216/52 82/218/119
f 126/250/82 86/263/45 88/264/80
f 84/262/116 86/263/45 126/250/82
f 82/267/119 84/262/116 124/254/113
f 88/3/80 86/8/45 63/15/97
f 75/47/3 47/46/1 48/39/2
f 38/143/148 5/121/110 3/127/50
f 31/45/39 32/38/66 48/39/2
f 78/37/56 77/48/60 75/47/3
f 63/238/97 23/257/68 25/258/72
f 106/164/159 108/165/157 38/143/148
f 102/201/163 104/203/161 34/184/130
f 104/169/161 106/164/159 36/142/145
f 101/199/164 102/201/163 32/182/66
f 57/140/137 11/126/42 21/125/88
f 61/23/31 71/35/5 53/33/7
f 11/113/42 1/117/142 3/105/50
f 36/142/145 3/127/50 1/134/142
f 21/260/89 23/257/68 63/238/97
f 25/90/72 23/95/68 17/101/9
f 13/92/11 17/101/9 3/105/50
f 21/109/102 11/113/42 17/101/9
f 48/39/2 32/38/66 53/33/7
f 34/27/134 57/25/137 53/33/7
f 1/120/142 11/126/42 57/140/137
f 61/23/31 63/15/97 86/8/45
f 61/23/31 84/13/116 82/16/119
f 80/20/52 78/37/56 71/35/5
f 117/192/51 119/193/107 79/213/57
f 119/193/107 121/195/75 81/215/53
f 121/195/75 123/197/124 83/217/120
f 127/224/83 129/223/35 89/246/81
f 85/248/115 125/225/111 127/224/83
f 83/249/120 123/230/124 125/225/111
f 64/77/98 87/85/46 89/86/81
f 49/53/4 47/46/1 75/47/3
f 39/137/147 37/138/146 4/124/49
f 49/53/4 33/55/65 31/45/39
f 75/47/3 77/48/60 79/57/57
f 64/228/98 66/227/79 26/234/73
f 39/137/147 109/162/156 107/163/158
f 35/183/129 105/202/160 103/200/162
f 37/138/146 107/163/158 105/168/160
f 33/181/65 103/200/162 101/199/164
f 58/158/136 62/153/23 22/155/85
f 54/59/8 72/58/6 62/67/32
f 12/112/41 18/100/10 4/104/49
f 37/138/146 35/149/133 2/132/141
f 64/228/98 24/235/69 22/237/90
f 18/100/10 24/94/69 26/89/73
f 4/104/49 18/100/10 14/91/12
f 22/108/103 24/94/69 18/100/10
f 54/59/8 33/55/65 49/53/4
f 35/63/133 33/55/65 54/59/8
f 58/150/136 12/133/41 2/132/141
f 62/67/32 85/82/115 87/85/46
f 62/67/32 81/70/53 83/78/120
f 81/70/53 62/67/32 72/58/6
