o rear_0
v -0.095112 1.591768 -0.666649
v -0.095112 1.591768 -0.607063
v -0.095112 1.611083 -0.666649
v -0.095112 1.611083 -0.607063
v -0.068728 1.573347 -0.666649
v -0.068728 1.573347 -0.607063
v -0.068728 1.611083 -0.666649
v -0.068728 1.611083 -0.607063
v 0.0 1.573347 -0.666649
v 0.0 1.611083 -0.666649
v 0.0 1.611083 -0.607063
v 0.068728 1.573347 -0.666649
v 0.068728 1.573347 -0.607063
v 0.068728 1.611083 -0.666649
v 0.068728 1.611083 -0.607063
v 0.095112 1.591768 -0.666649
v 0.095112 1.591768 -0.607063
v 0.095112 1.611083 -0.666649
v 0.095112 1.611083 -0.607063
vt 0.0003 0.0002
vt 0.0003 0.1388
vt 0.0003 0.5
vt 0.0003 0.8612
vt 0.0003 0.9998
vt 0.416 0.0002
vt 0.416 0.1388
vt 0.416 0.5
vt 0.416 0.8612
vt 0.416 0.9998
vt 0.4165 0.0002
vt 0.4165 0.1388
vt 0.4165 0.5
vt 0.4165 0.8612
vt 0.4165 0.9998
vt 0.5513 0.0002
vt 0.5513 0.9998
vt 0.6798 0.1388
vt 0.6798 0.5
vt 0.6798 0.8612
vt 0.6804 0.0002
vt 0.6804 0.3133
vt 0.6804 0.3137
vt 0.6804 0.6268
vt 0.8644 0.0002
vt 0.8644 0.3133
vt 0.8644 0.3137
vt 0.8644 0.6268
vt 0.865 0.0002
vt 0.865 0.3133
vt 0.865 0.3137
vt 0.865 0.6268
vt 0.9997 0.0002
vt 0.9997 0.3133
vt 0.9997 0.3137
vt 0.9997 0.6268
vn -1.0 0.0 0.0
vn -0.5725 -0.8199 0.0
vn 0.0 -1.0 0.0
vn 0.0 0.0 1.0
vn 0.5725 -0.8199 0.0
vn 1.0 0.0 0.0
f 10/3/3 8/9/3 7/4/3
f 5/18/4 10/13/4 7/12/4
f 7/4/3 4/10/3 3/5/3
f 1/16/4 7/12/4 3/11/4
f 1/28/2 6/23/2 2/27/2
f 3/29/1 2/34/1 4/30/1
f 15/7/3 10/3/3 14/2/3
f 10/13/4 12/20/4 14/14/4
f 19/6/3 14/2/3 18/1/3
f 14/14/4 16/17/4 18/15/4
f 13/25/5 16/22/5 17/21/5
f 18/32/6 17/35/6 16/36/6
f 10/3/3 11/8/3 8/9/3
f 5/18/4 9/19/4 10/13/4
f 7/4/3 8/9/3 4/10/3
f 1/16/4 5/18/4 7/12/4
f 1/28/2 5/24/2 6/23/2
f 3/29/1 1/33/1 2/34/1
f 15/7/3 11/8/3 10/3/3
f 10/13/4 9/19/4 12/20/4
f 19/6/3 15/7/3 14/2/3
f 14/14/4 12/20/4 16/17/4
f 13/25/5 12/26/5 16/22/5
f 18/32/6 19/31/6 17/35/6
