o rear_3
v -0.048314 1.579 -0.338834
v -0.048314 1.579009 -0.096955
v -0.048314 1.582028 -0.338825
v -0.048314 1.582028 -0.096955
v -0.048038 1.582694 -0.33877
v -0.048038 1.582694 -0.09701
v -0.047742 1.577644 -0.338892
v -0.047739 1.577645 -0.096879
v -0.047371 1.582971 -0.338637
v -0.047371 1.582971 -0.097143
v -0.047209 1.579009 -0.341493
v -0.047209 1.579009 -0.094287
v -0.047209 1.582028 -0.341493
v -0.047209 1.582028 -0.094287
v -0.046997 1.582694 -0.341281
v -0.046997 1.582694 -0.094498
v -0.046804 1.577641 -0.341088
v -0.046804 1.577641 -0.094692
v -0.046487 1.582971 -0.340771
v -0.046487 1.582971 -0.095009
v -0.046357 1.577122 -0.33883
v -0.046355 1.577122 -0.096944
v -0.045564 1.577117 -0.340399
v -0.045563 1.577117 -0.095381
v -0.044623 1.577645 -0.342023
v -0.044623 1.577645 -0.093756
v -0.044541 1.579009 -0.342598
v -0.044541 1.579009 -0.093182
v -0.044541 1.582027 -0.093182
v -0.044541 1.582028 -0.342598
v -0.044485 1.582694 -0.342321
v -0.044485 1.582694 -0.093458
v -0.044353 1.582971 -0.341655
v -0.044353 1.582971 -0.094125
v 1.3e-05 1.577122 -0.340643
v 1.3e-05 1.577122 -0.095137
v 1.3e-05 1.577642 -0.342028
v 1.3e-05 1.577642 -0.093752
v 1.3e-05 1.579008 -0.342598
v 1.3e-05 1.579008 -0.093182
v 1.3e-05 1.582555 -0.34245
v 1.3e-05 1.582599 -0.093343
v 1.3e-05 1.582971 -0.341655
v 1.3e-05 1.582971 -0.094125
v 0.044373 1.582971 -0.341655
v 0.044373 1.582971 -0.094125
v 0.044506 1.582694 -0.342321
v 0.044506 1.582694 -0.093458
v 0.044561 1.579009 -0.342598
v 0.044561 1.579009 -0.093182
v 0.044561 1.582027 -0.093182
v 0.044561 1.582028 -0.342598
v 0.044643 1.577645 -0.342023
v 0.044643 1.577645 -0.093756
v 0.045583 1.577117 -0.095381
v 0.045584 1.577117 -0.340399
v 0.046375 1.577122 -0.096944
v 0.046377 1.577122 -0.33883
v 0.046507 1.582971 -0.340771
v 0.046507 1.582971 -0.095009
v 0.046824 1.577641 -0.341088
v 0.046824 1.577641 -0.094692
v 0.047018 1.582694 -0.341281
v 0.047018 1.582694 -0.094498
v 0.047229 1.579009 -0.341493
v 0.047229 1.579009 -0.094287
v 0.047229 1.582028 -0.341493
v 0.047229 1.582028 -0.094287
v 0.047391 1.582971 -0.338637
v 0.047391 1.582971 -0.097143
v 0.047759 1.577645 -0.096879
v 0.047762 1.577644 -0.338892
v 0.048058 1.582694 -0.33877
v 0.048058 1.582694 -0.09701
v 0.048334 1.579 -0.338834
v 0.048334 1.579009 -0.096955
v 0.048334 1.582028 -0.338825
v 0.048334 1.582028 -0.096955
vt 0.0002 0.0149
vt 0.0002 0.9851
vt 0.0034 0.0155
vt 0.0034 0.9846
vt 0.0052 0.0048
vt 0.0052 0.9952
vt 0.0077 0.0069
vt 0.0077 0.9932
vt 0.0173 0.0007
vt 0.0173 0.9994
vt 0.018 0.0033
vt 0.018 0.9967
vt 0.2321 0.0002
vt 0.2321 0.0033
vt 0.2321 0.9967
vt 0.2321 0.9998
vt 0.4462 0.0033
vt 0.4462 0.9967
vt 0.4469 0.0007
vt 0.4469 0.9994
vt 0.4565 0.0069
vt 0.4565 0.9932
vt 0.459 0.0048
vt 0.459 0.9952
vt 0.4608 0.0155
vt 0.4608 0.9846
vt 0.464 0.0149
vt 0.464 0.9851
vt 0.4644 0.0127
vt 0.4644 0.984
vt 0.4689 0.0039
vt 0.4689 0.9927
vt 0.4711 0.013
vt 0.4711 0.9837
vt 0.4749 0.0067
vt 0.4749 0.99
vt 0.4794 0.0002
vt 0.4795 0.9965
vt 0.6949 0.0002
vt 0.6949 0.0057
vt 0.6949 0.991
vt 0.6949 0.9965
vt 0.9103 0.0002
vt 0.9103 0.9965
vt 0.9149 0.0067
vt 0.9149 0.99
vt 0.9187 0.013
vt 0.9187 0.9837
vt 0.9208 0.0039
vt 0.9209 0.9927
vt 0.9254 0.0127
vt 0.9254 0.984
vt 0.9257 0.0106
vt 0.9257 0.9818
vt 0.9258 0.0018
vt 0.9258 0.9906
vt 0.9323 0.0002
vt 0.9323 0.0108
vt 0.9323 0.9815
vt 0.9323 0.9922
vt 0.9469 0.0002
vt 0.9469 0.0109
vt 0.9469 0.9815
vt 0.9469 0.9922
vt 0.9501 0.001
vt 0.9501 0.0111
vt 0.9501 0.9813
vt 0.9501 0.9914
vt 0.9505 0.0018
vt 0.9505 0.0106
vt 0.9505 0.9818
vt 0.9505 0.9906
vt 0.957 0.9815
vt 0.9571 0.0002
vt 0.9571 0.0109
vt 0.9571 0.9922
vt 0.9716 0.0109
vt 0.9716 0.9815
vt 0.9717 0.0002
vt 0.9717 0.9922
vt 0.9749 0.001
vt 0.9749 0.0111
vt 0.9749 0.9813
vt 0.9749 0.9914
vt 0.9753 0.0111
vt 0.9753 0.3682
vt 0.9753 0.3811
vt 0.9753 0.7568
vt 0.9754 0.001
vt 0.9754 0.3783
vt 0.9754 0.3898
vt 0.9754 0.5689
vt 0.9754 0.7481
vt 0.9759 0.1896
vt 0.9784 0.0109
vt 0.9784 0.3684
vt 0.9786 0.0002
vt 0.9786 0.3791
vt 0.9819 0.3794
vt 0.9819 0.7584
vt 0.9821 0.3902
vt 0.9821 0.5689
vt 0.9821 0.7477
vt 0.993 0.0109
vt 0.993 0.1896
vt 0.993 0.3684
vt 0.9932 0.0002
vt 0.9932 0.3791
vt 0.9965 0.3794
vt 0.9965 0.7584
vt 0.9966 0.3902
vt 0.9966 0.7477
vt 0.9994 0.5689
vt 0.9997 0.0105
vt 0.9997 0.1896
vt 0.9997 0.3688
vt 0.9997 0.3803
vt 0.9997 0.7576
vt 0.9998 0.0018
vt 0.9998 0.3775
vt 0.9998 0.3904
vt 0.9998 0.7475
vn -0.9725 -0.1943 -0.1285
vn -0.9617 0.199 0.1887
vn -0.9605 -0.1521 0.2329
vn -0.949 0.2274 -0.2184
vn -0.7538 0.1681 0.6352
vn -0.7303 -0.2211 -0.6464
vn -0.6906 0.7135 0.1179
vn -0.6802 -0.7191 0.142
vn -0.6719 -0.716 -0.1894
vn -0.6463 -0.2206 0.7305
vn -0.6351 0.1685 -0.7538
vn -0.5853 0.8024 -0.1165
vn -0.5468 0.634 0.5469
vn -0.5466 0.6343 -0.5467
vn -0.4824 -0.724 -0.4932
vn -0.4824 -0.724 0.493
vn -0.233 -0.1518 -0.9606
vn -0.2179 0.1768 0.9598
vn -0.2045 0.9572 -0.2046
vn -0.2044 0.9573 0.2044
vn -0.1924 -0.1896 0.9628
vn -0.1881 0.2065 -0.9602
vn -0.1777 -0.9837 -0.0282
vn -0.177 -0.9833 0.0425
vn -0.1694 -0.964 0.2048
vn -0.1693 -0.964 -0.2048
vn -0.1634 0.9863 0.0214
vn -0.1504 0.9882 -0.0299
vn -0.1407 -0.6721 0.727
vn -0.1406 -0.6722 -0.7269
vn -0.1405 0.7689 -0.6237
vn -0.1163 0.7971 0.5925
vn -0.0375 0.9814 0.1883
vn -0.0297 0.9688 -0.2462
vn 0.0 -0.9911 0.1335
vn 0.0 -0.986 -0.167
vn 0.0 -0.7198 -0.6942
vn 0.0 -0.7198 0.6942
vn -0.0 -0.1871 -0.9823
vn -0.0 -0.1861 0.9825
vn -0.0 0.2163 -0.9763
vn -0.0 0.2169 0.9762
vn -0.0 0.4922 0.8705
vn -0.0 0.6279 -0.7783
vn 0.0 0.6886 0.7251
vn -0.0 0.778 -0.6283
vn -0.0 0.9782 0.2079
vn 0.0 0.993 -0.1185
vn 0.0297 0.9688 -0.2462
vn 0.0374 0.9814 0.1882
vn 0.1163 0.7971 0.5925
vn 0.1405 0.7689 -0.6237
vn 0.1406 -0.6722 -0.7269
vn 0.1407 -0.6721 0.727
vn 0.1504 0.9882 -0.0299
vn 0.1634 0.9863 0.0214
vn 0.1693 -0.964 -0.2048
vn 0.1694 -0.964 0.2048
vn 0.177 -0.9833 0.0425
vn 0.1777 -0.9837 -0.0282
vn 0.1881 0.2064 -0.9602
vn 0.1924 -0.1896 0.9628
vn 0.2043 0.9574 0.2043
vn 0.2044 0.9573 -0.2045
vn 0.2179 0.1766 0.9599
vn 0.233 -0.1518 -0.9606
vn 0.4824 -0.724 -0.4932
vn 0.4824 -0.724 0.493
vn 0.5467 0.6341 -0.5467
vn 0.5469 0.6338 0.547
vn 0.5853 0.8024 -0.1164
vn 0.6352 0.1681 -0.7539
vn 0.6463 -0.2206 0.7305
vn 0.6719 -0.716 -0.1894
vn 0.6802 -0.7191 0.142
vn 0.6906 0.7136 0.1177
vn 0.7303 -0.2211 -0.6464
vn 0.7539 0.1678 0.6352
vn 0.949 0.2272 -0.2184
vn 0.9605 -0.1521 0.2329
vn 0.9617 0.1988 0.1886
vn 0.9725 -0.1943 -0.1285
f 21/33/23 23/35/26 35/40/36
f 30/96/22 39/105/39 27/106/17
f 1/73/1 4/77/2 3/78/4
f 40/102/40 29/112/18 28/103/21
f 2/75/3 14/79/5 4/77/2
f 12/100/10 29/112/18 14/110/5
f 7/29/9 23/35/26 21/33/23
f 25/37/30 23/35/26 17/31/15
f 8/70/8 12/74/10 2/75/3
f 26/93/29 12/100/10 18/88/16
f 8/70/8 2/75/3 1/73/1
f 24/36/25 26/38/29 18/32/16
f 24/36/25 8/30/8 22/34/24
f 11/108/6 25/116/30 17/120/15
f 11/76/6 7/71/9 1/73/1
f 13/98/11 27/106/17 11/108/6
f 3/78/4 11/76/6 1/73/1
f 24/36/25 22/34/24 36/41/35
f 19/21/19 5/27/12 9/25/28
f 15/84/14 3/78/4 5/83/12
f 19/21/19 31/19/31 15/23/14
f 15/90/14 30/96/22 13/98/11
f 41/94/44 30/96/22 31/86/31
f 4/77/2 16/81/13 6/82/7
f 6/28/7 20/22/20 10/26/27
f 29/112/18 16/118/13 14/110/5
f 32/20/32 20/22/20 16/24/13
f 42/113/43 32/122/32 29/112/18
f 40/102/40 42/113/42 29/112/18
f 1/73/1 2/75/3 4/77/2
f 2/75/3 12/74/10 14/79/5
f 12/100/10 28/103/21 29/112/18
f 8/30/8 7/29/9 21/33/23
f 21/33/23 22/34/24 8/30/8
f 7/29/9 17/31/15 23/35/26
f 8/70/8 18/69/16 12/74/10
f 26/93/29 28/103/21 12/100/10
f 24/36/25 18/32/16 8/30/8
f 11/108/6 27/106/17 25/116/30
f 11/76/6 17/72/15 7/71/9
f 39/105/39 37/115/37 25/116/30
f 25/116/30 27/106/17 39/105/39
f 7/71/9 8/70/8 1/73/1
f 13/98/11 30/96/22 27/106/17
f 36/41/35 38/42/38 26/38/29
f 26/38/29 24/36/25 36/41/35
f 40/102/40 28/103/21 26/93/29
f 26/93/29 38/92/38 40/102/40
f 35/40/36 23/35/26 25/37/30
f 25/37/30 37/39/37 35/40/36
f 3/78/4 13/80/11 11/76/6
f 41/13/46 31/19/31 33/17/34
f 33/17/34 43/14/48 41/13/46
f 30/96/22 41/94/41 39/105/39
f 19/21/19 15/23/14 5/27/12
f 15/84/14 13/80/11 3/78/4
f 19/21/19 33/17/34 31/19/31
f 15/90/14 31/86/31 30/96/22
f 44/15/47 34/18/33 32/20/32
f 32/20/32 42/16/45 44/15/47
f 4/77/2 14/79/5 16/81/13
f 6/28/7 16/24/13 20/22/20
f 29/112/18 32/122/32 16/118/13
f 32/20/32 34/18/33 20/22/20
f 6/82/7 5/83/12 3/78/4
f 3/78/4 4/77/2 6/82/7
f 10/26/27 9/25/28 5/27/12
f 5/27/12 6/28/7 10/26/27
f 36/41/35 22/34/24 21/33/23
f 21/33/23 35/40/36 36/41/35
f 58/47/60 35/40/36 56/45/57
f 52/95/61 49/104/66 39/105/39
f 75/58/82 77/62/79 78/63/81
f 40/102/40 50/101/62 51/111/65
f 76/59/80 78/63/81 68/64/78
f 66/99/73 68/109/78 51/111/65
f 72/51/74 58/47/60 56/45/57
f 53/43/53 61/49/67 56/45/57
f 71/54/75 76/59/80 66/60/73
f 54/91/54 62/87/68 66/99/73
f 71/54/75 75/58/82 76/59/80
f 55/46/58 62/50/68 54/44/54
f 55/46/58 57/48/59 71/52/75
f 65/107/77 61/119/67 53/114/53
f 65/57/77 75/58/82 72/53/74
f 67/97/72 65/107/77 49/104/66
f 77/62/79 75/58/82 65/57/77
f 55/46/58 36/41/35 57/48/59
f 59/7/64 69/3/55 73/1/71
f 63/65/69 73/66/71 77/62/79
f 59/7/64 63/5/69 47/9/52
f 63/89/69 67/97/72 52/95/61
f 41/94/44 47/85/52 52/95/61
f 78/63/81 74/67/76 64/68/70
f 74/2/76 70/4/56 60/8/63
f 51/111/65 68/109/78 64/117/70
f 48/10/51 64/6/70 60/8/63
f 42/113/43 51/111/65 48/121/51
f 40/102/40 51/111/65 42/113/42
f 75/58/82 78/63/81 76/59/80
f 76/59/80 68/64/78 66/60/73
f 66/99/73 51/111/65 50/101/62
f 71/52/75 58/47/60 72/51/74
f 58/47/60 71/52/75 57/48/59
f 72/51/74 56/45/57 61/49/67
f 71/54/75 66/60/73 62/56/68
f 54/91/54 66/99/73 50/101/62
f 55/46/58 71/52/75 62/50/68
f 65/107/77 53/114/53 49/104/66
f 65/57/77 72/53/74 61/55/67
f 39/105/39 53/114/53 37/115/37
f 53/114/53 39/105/39 49/104/66
f 72/53/74 75/58/82 71/54/75
f 67/97/72 49/104/66 52/95/61
f 36/41/35 54/44/54 38/42/38
f 54/44/54 36/41/35 55/46/58
f 40/102/40 54/91/54 50/101/62
f 54/91/54 40/102/40 38/92/38
f 35/40/36 53/43/53 56/45/57
f 53/43/53 35/40/36 37/39/37
f 77/62/79 65/57/77 67/61/72
f 41/13/46 45/11/49 47/9/52
f 45/11/49 41/13/46 43/14/48
f 52/95/61 39/105/39 41/94/41
f 59/7/64 73/1/71 63/5/69
f 63/65/69 77/62/79 67/61/72
f 59/7/64 47/9/52 45/11/49
f 63/89/69 52/95/61 47/85/52
f 44/15/47 48/10/51 46/12/50
f 48/10/51 44/15/47 42/16/45
f 78/63/81 64/68/70 68/64/78
f 74/2/76 60/8/63 64/6/70
f 51/111/65 64/117/70 48/121/51
f 48/10/51 60/8/63 46/12/50
f 74/67/76 77/62/79 73/66/71
f 77/62/79 74/67/76 78/63/81
f 70/4/56 73/1/71 69/3/55
f 73/1/71 70/4/56 74/2/76
f 36/41/35 58/47/60 57/48/59
f 58/47/60 36/41/35 35/40/36
f 70/4/56 69/3/55 43/14/48
f 19/21/19 9/25/28 33/17/34
f 10/26/27 20/22/20 34/18/33
f 44/15/47 46/12/50 70/4/56
f 10/26/27 34/18/33 44/15/47
f 33/17/34 9/25/28 43/14/48
f 59/7/64 45/11/49 69/3/55
f 43/14/48 9/25/28 10/26/27
f 10/26/27 44/15/47 43/14/48
f 60/8/63 70/4/56 46/12/50
f 69/3/55 45/11/49 43/14/48
f 43/14/48 44/15/47 70/4/56
