o rear_1
v -0.06339 1.579826 -0.676443
v -0.06339 1.579826 -0.668895
v -0.06339 1.585487 -0.676443
v -0.06339 1.585487 -0.668895
v -0.062217 1.579826 -0.663721
v -0.062217 1.585487 -0.663721
v -0.059387 1.579826 -0.659232
v -0.059387 1.585487 -0.659232
v -0.055842 1.579826 -0.676443
v -0.055842 1.579826 -0.668895
v -0.055842 1.585487 -0.676443
v -0.055842 1.585487 -0.668895
v -0.055452 1.579826 -0.66717
v -0.055452 1.585487 -0.66717
v -0.054508 1.579826 -0.665674
v -0.054508 1.585487 -0.665674
v -0.049629 1.579826 -0.649475
v -0.049629 1.585487 -0.649475
v -0.048686 1.579825 -0.647979
v -0.048686 1.585487 -0.647979
v -0.048295 1.579782 -0.627632
v -0.048295 1.579782 -0.60499
v -0.048295 1.579823 -0.646254
v -0.048295 1.585487 -0.646254
v -0.048295 1.585487 -0.627632
v -0.048295 1.585487 -0.60499
v -0.047727 1.576884 -0.627632
v -0.047727 1.576884 -0.60499
v -0.046111 1.574464 -0.627632
v -0.046111 1.574464 -0.60499
v -0.044751 1.579826 -0.655917
v -0.044751 1.585487 -0.655917
v -0.043691 1.572847 -0.627632
v -0.043691 1.572847 -0.60499
v -0.04192 1.579826 -0.651429
v -0.04192 1.585487 -0.651429
v -0.040792 1.572279 -0.627632
v -0.040792 1.572279 -0.60499
v -0.040748 1.579826 -0.646254
v -0.040748 1.579826 -0.627632
v -0.040748 1.579826 -0.60499
v -0.040748 1.585487 -0.646254
v -0.040748 1.585487 -0.627632
v -0.040748 1.585487 -0.60499
v -0.033716 1.572279 -0.627632
v -0.033716 1.572279 -0.60499
v -0.033672 1.579826 -0.627632
v -0.033672 1.579826 -0.60499
v 0.0 1.572279 -0.627632
v 0.0 1.572279 -0.60499
v 0.0 1.579826 -0.627632
v 0.0 1.579826 -0.60499
v 0.033672 1.579826 -0.627632
v 0.033672 1.579826 -0.60499
v 0.033716 1.572279 -0.627632
v 0.033716 1.572279 -0.60499
v 0.040748 1.579826 -0.646254
v 0.040748 1.579826 -0.627632
v 0.040748 1.579826 -0.60499
v 0.040748 1.585487 -0.646254
v 0.040748 1.585487 -0.627632
v 0.040748 1.585487 -0.60499
v 0.040792 1.572279 -0.627632
v 0.040792 1.572279 -0.60499
v 0.041921 1.579826 -0.651429
v 0.041921 1.585487 -0.651429
v 0.043691 1.572847 -0.627632
v 0.043691 1.572847 -0.60499
v 0.044751 1.579826 -0.655917
v 0.044751 1.585487 -0.655917
v 0.046111 1.574464 -0.627632
v 0.046111 1.574464 -0.60499
v 0.047728 1.576884 -0.627632
v 0.047728 1.576884 -0.60499
v 0.048295 1.579782 -0.627632
v 0.048295 1.579782 -0.60499
v 0.048295 1.579823 -0.646254
v 0.048295 1.585487 -0.646254
v 0.048295 1.585487 -0.627632
v 0.048295 1.585487 -0.60499
v 0.048686 1.579825 -0.647979
v 0.048686 1.585487 -0.647979
v 0.04963 1.579826 -0.649475
v 0.04963 1.585487 -0.649475
v 0.054508 1.579826 -0.665674
v 0.054508 1.585487 -0.665674
v 0.055452 1.579826 -0.66717
v 0.055452 1.585487 -0.66717
v 0.055843 1.579826 -0.676443
v 0.055843 1.579826 -0.668895
v 0.055843 1.585487 -0.676443
v 0.055843 1.585487 -0.668895
v 0.059387 1.579826 -0.659232
v 0.059387 1.585487 -0.659232
v 0.062217 1.579826 -0.663721
v 0.062217 1.585487 -0.663721
v 0.06339 1.579826 -0.676443
v 0.06339 1.579826 -0.668895
v 0.06339 1.585487 -0.676443
v 0.06339 1.585487 -0.668895
vt 0.0003 0.0003
vt 0.0003 0.0191
vt 0.0003 0.0417
vt 0.0003 0.0967
vt 0.0003 0.3589
vt 0.0003 0.6211
vt 0.0003 0.6761
vt 0.0003 0.6987
vt 0.0003 0.7175
vt 0.1851 0.0003
vt 0.1851 0.0191
vt 0.1851 0.0417
vt 0.1851 0.0967
vt 0.1851 0.3589
vt 0.1851 0.6211
vt 0.1851 0.6761
vt 0.1851 0.6987
vt 0.1851 0.7175
vt 0.1857 0.0003
vt 0.1857 0.0553
vt 0.1857 0.3172
vt 0.1857 0.579
vt 0.1857 0.6341
vt 0.1857 0.6347
vt 0.1857 0.6445
vt 0.1857 0.657
vt 0.1857 0.7144
vt 0.2319 0.6347
vt 0.2319 0.6445
vt 0.2319 0.657
vt 0.2319 0.7144
vt 0.2326 0.6347
vt 0.2326 0.6921
vt 0.2326 0.7045
vt 0.2326 0.7144
vt 0.2788 0.6347
vt 0.2788 0.6921
vt 0.2788 0.7045
vt 0.2788 0.7144
vt 0.2794 0.6347
vt 0.2794 0.7105
vt 0.2794 0.7111
vt 0.2794 0.7698
vt 0.3256 0.6347
vt 0.3256 0.7105
vt 0.3256 0.7111
vt 0.3256 0.7698
vt 0.3705 0.0003
vt 0.3705 0.0553
vt 0.3705 0.3172
vt 0.3705 0.579
vt 0.3705 0.6341
vt 0.3712 0.0003
vt 0.3712 0.059
vt 0.3712 0.6928
vt 0.3712 0.7515
vt 0.4174 0.059
vt 0.4174 0.114
vt 0.4174 0.3759
vt 0.4174 0.6377
vt 0.4174 0.6928
vt 0.4177 0.0003
vt 0.4177 0.7515
vt 0.4414 0.0047
vt 0.4414 0.747
vt 0.4611 0.0173
vt 0.4611 0.7345
vt 0.4743 0.0361
vt 0.4743 0.7157
vt 0.479 0.0586
vt 0.479 0.1137
vt 0.479 0.3759
vt 0.479 0.6381
vt 0.479 0.6931
vt 0.4796 0.3538
vt 0.48 0.3125
vt 0.4936 0.3928
vt 0.4992 0.7581
vt 0.5054 0.7173
vt 0.5075 0.7986
vt 0.5151 0.1716
vt 0.5317 0.9786
vt 0.5398 0.3398
vt 0.5399 0.3261
vt 0.543 0.5681
vt 0.5445 0.3528
vt 0.5527 0.4842
vt 0.5532 0.8967
vt 0.5539 0.9238
vt 0.556 0.9102
vt 0.5573 0.5109
vt 0.5574 0.4972
vt 0.5577 0.0003
vt 0.5602 0.5822
vt 0.5608 0.752
vt 0.5629 0.7384
vt 0.5636 0.7655
vt 0.575 0.1852
vt 0.5892 0.9997
vt 0.603 0.5816
vt 0.6036 0.4442
vt 0.6093 0.8636
vt 0.6114 0.9449
vt 0.6172 0.5245
vt 0.6176 0.0138
vt 0.6176 0.4832
vt 0.6176 0.6033
vt 0.6176 0.9041
vt 0.6182 0.2281
vt 0.6182 0.8238
vt 0.6187 0.2693
vt 0.6245 0.8646
vt 0.6266 0.7833
vt 0.6323 0.189
vt 0.6508 0.6033
vt 0.6537 0.4103
vt 0.6723 0.6852
vt 0.673 0.6581
vt 0.675 0.6717
vt 0.6785 0.2421
vt 0.6786 0.2558
vt 0.6792 0.9997
vt 0.6799 0.8299
vt 0.6817 0.0138
vt 0.682 0.8435
vt 0.6827 0.8164
vt 0.6831 0.229
vt 0.6914 0.0977
vt 0.6959 0.0709
vt 0.6961 0.0847
vt 0.6964 0.5816
vt 0.7083 0.5822
vt 0.7137 0.3967
vt 0.7283 0.7183
vt 0.7304 0.6369
vt 0.7367 0.6778
vt 0.7367 0.9786
vt 0.7373 0.5822
vt 0.7373 0.6581
vt 0.7373 0.6587
vt 0.7373 0.7173
vt 0.7417 0.0003
vt 0.7423 0.1377
vt 0.7559 0.0574
vt 0.7563 0.0987
vt 0.7563 0.5681
vt 0.7569 0.0039
vt 0.7569 0.176
vt 0.7569 0.3176
vt 0.7569 0.3314
vt 0.7569 0.3443
vt 0.7569 0.4344
vt 0.7569 0.4731
vt 0.7569 0.5144
vt 0.7569 0.5718
vt 0.7835 0.5822
vt 0.7835 0.6581
vt 0.7835 0.6587
vt 0.7835 0.7173
vt 0.8007 0.5724
vt 0.8007 0.7445
vt 0.8007 0.8862
vt 0.8007 0.9236
vt 0.8007 0.9531
vt 0.8031 0.3176
vt 0.8031 0.3314
vt 0.8031 0.3443
vt 0.8031 0.4344
vt 0.8031 0.4731
vt 0.8031 0.5144
vt 0.8031 0.5718
vt 0.8035 0.0039
vt 0.8035 0.176
vt 0.8271 0.0029
vt 0.8271 0.1751
vt 0.8469 0.0003
vt 0.8469 0.1725
vt 0.8469 0.5724
vt 0.8469 0.7445
vt 0.8469 0.8862
vt 0.8469 0.9236
vt 0.8469 0.9531
vt 0.8475 0.0003
vt 0.8475 0.1725
vt 0.8673 0.0029
vt 0.8673 0.1751
vt 0.8909 0.0039
vt 0.8909 0.176
vt 0.8912 0.3176
vt 0.8913 0.3314
vt 0.8913 0.3443
vt 0.8913 0.4344
vt 0.8913 0.4731
vt 0.8913 0.5144
vt 0.8913 0.5718
vt 0.8913 0.5724
vt 0.8913 0.7445
vt 0.8913 0.8862
vt 0.8913 0.9236
vt 0.8913 0.9531
vt 0.9375 0.0039
vt 0.9375 0.176
vt 0.9375 0.3176
vt 0.9375 0.3314
vt 0.9375 0.3443
vt 0.9375 0.4344
vt 0.9375 0.4731
vt 0.9375 0.5144
vt 0.9375 0.5718
vt 0.9375 0.5724
vt 0.9375 0.7445
vt 0.9375 0.8862
vt 0.9375 0.9236
vt 0.9375 0.9531
vt 0.9381 0.059
vt 0.9381 0.114
vt 0.9381 0.3759
vt 0.9381 0.6377
vt 0.9381 0.6928
vt 0.9385 0.0003
vt 0.9385 0.7515
vt 0.9621 0.0047
vt 0.9621 0.747
vt 0.9819 0.0173
vt 0.9819 0.7345
vt 0.9951 0.0361
vt 0.9951 0.7157
vt 0.9997 0.0586
vt 0.9997 0.1137
vt 0.9997 0.3759
vt 0.9997 0.6381
vt 0.9997 0.6931
vn -1.0 0.0 0.0
vn -0.9979 -0.0644 0.0
vn -0.9973 0.0 -0.0741
vn -0.9973 0.0 0.0741
vn -0.9953 -0.0966 0.0
vn -0.9938 0.0 -0.1112
vn -0.9938 0.0 0.1112
vn -0.989 0.0 -0.1482
vn -0.989 0.0 0.1482
vn -0.9442 0.0 0.3293
vn -0.9245 -0.3813 0.0
vn -0.9239 0.0 -0.3827
vn -0.9239 0.0 0.3827
vn -0.9238 0.0 -0.3829
vn -0.9006 0.0 0.4347
vn -0.804 0.0 -0.5946
vn -0.7814 0.0 0.6241
vn -0.7813 0.0 0.6241
vn -0.7812 0.0 -0.6242
vn -0.7575 0.0 -0.6528
vn -0.7525 -0.6586 0.0
vn -0.6588 -0.7523 0.0
vn -0.4421 -0.897 0.0
vn -0.3189 -0.9478 0.0
vn -0.0966 -0.9953 0.0
vn -0.0058 -1.0 -0.0022
vn -0.0031 -1.0 -0.0011
vn -0.0022 -1.0 -0.0012
vn -0.0003 -1.0 -0.0004
vn -0.0001 -1.0 -0.0006
vn 0.0 -1.0 -0.0002
vn 0.0 -1.0 0.0
vn 0.0 0.0 -1.0
vn 0.0 0.0 1.0
vn 0.0 1.0 0.0
vn 0.0001 -1.0 -0.0006
vn 0.0003 -1.0 -0.0004
vn 0.0022 -1.0 -0.0012
vn 0.0031 -1.0 -0.0011
vn 0.0058 -1.0 -0.0022
vn 0.0966 -0.9953 0.0
vn 0.3189 -0.9478 0.0
vn 0.4421 -0.897 0.0
vn 0.6588 -0.7523 0.0
vn 0.7523 -0.6588 0.0
vn 0.7575 0.0 -0.6528
vn 0.7575 0.0 0.6529
vn 0.7576 0.0 0.6528
vn 0.7812 0.0 -0.6242
vn 0.8039 0.0 0.5947
vn 0.804 0.0 -0.5947
vn 0.8041 0.0 0.5945
vn 0.9004 0.0 0.435
vn 0.9239 0.0 -0.3827
vn 0.9239 0.0 -0.3826
vn 0.9239 0.0 0.3827
vn 0.9245 -0.3812 0.0
vn 0.9442 0.0 0.3295
vn 0.989 0.0 -0.1478
vn 0.989 0.0 0.1482
vn 0.9938 0.0 -0.1111
vn 0.9938 0.0 0.1112
vn 0.9953 -0.0965 0.0
vn 0.9973 0.0 -0.0739
vn 0.9973 0.0 0.0741
vn 0.9979 -0.0643 0.0
vn 1.0 0.0 0.0
f 23/96/38 40/94/39 21/107/40
f 41/57/34 28/64/34 30/66/34
f 47/218/33 49/230/33 45/231/33
f 41/57/34 46/71/34 48/58/34
f 33/227/33 40/219/33 37/232/33
f 49/5/32 46/15/32 45/6/32
f 24/121/35 43/116/35 42/111/35
f 17/191/17 8/206/18 7/192/18
f 10/30/64 11/27/67 12/26/59
f 2/103/32 9/82/32 10/89/32
f 31/80/32 7/102/32 15/88/32
f 27/186/11 22/187/5 21/188/2
f 26/53/34 41/57/34 44/54/34
f 38/16/25 45/6/32 46/15/32
f 25/202/1 23/189/4 21/188/2
f 40/219/33 27/223/33 21/221/33
f 34/68/34 41/57/34 30/66/34
f 48/58/34 50/72/34 52/59/34
f 40/219/33 45/231/33 37/232/33
f 12/129/35 3/142/35 4/144/35
f 31/44/46 16/41/49 32/40/51
f 4/144/35 14/130/35 12/129/35
f 4/208/7 1/195/1 2/194/7
f 32/114/35 8/143/35 18/127/35
f 42/111/35 20/120/35 24/121/35
f 24/203/9 19/190/10 23/189/4
f 32/164/51 35/181/54 31/182/46
f 5/193/13 4/208/7 2/194/7
f 15/88/32 5/108/32 13/90/32
f 13/29/55 16/24/49 15/28/49
f 40/179/67 42/162/61 43/161/67
f 17/97/31 35/78/31 19/95/36
f 8/206/18 5/193/13 7/192/18
f 20/204/15 17/191/17 19/190/10
f 39/79/37 19/95/36 35/78/31
f 2/103/32 13/90/32 5/108/32
f 12/26/59 13/29/55 10/30/64
f 18/127/35 36/109/35 32/114/35
f 35/181/54 42/162/61 39/180/61
f 6/145/35 16/128/35 14/130/35
f 51/50/35 48/22/35 52/21/35
f 27/186/11 30/183/21 28/185/11
f 29/9/22 34/17/23 30/18/21
f 33/8/24 38/16/25 34/17/23
f 26/146/35 43/116/35 25/133/35
f 43/161/67 41/178/67 40/179/67
f 47/51/35 41/23/35 48/22/35
f 22/187/5 25/202/1 21/188/2
f 58/122/27 77/125/28 75/137/26
f 59/61/34 74/65/34 76/63/34
f 53/216/33 49/230/33 51/217/33
f 56/73/34 59/61/34 54/60/34
f 58/215/33 67/226/33 63/228/33
f 49/5/32 56/13/32 50/14/32
f 61/81/35 78/84/35 60/76/35
f 93/168/48 84/151/47 83/167/50
f 91/32/1 90/37/3 92/33/8
f 89/115/32 98/135/32 90/118/32
f 69/113/32 93/134/32 83/126/31
f 76/172/63 73/175/57 75/173/66
f 59/61/34 80/56/34 62/55/34
f 55/4/32 64/12/41 56/13/32
f 77/165/65 79/148/67 75/173/66
f 58/215/33 73/222/33 71/224/33
f 59/61/34 68/69/34 72/67/34
f 50/72/34 54/60/34 52/59/34
f 58/215/33 55/229/33 53/216/33
f 99/100/35 92/91/35 100/104/35
f 86/157/19 69/138/20 70/156/16
f 100/104/35 88/92/35 96/106/35
f 97/171/67 100/154/62 98/170/62
f 94/101/35 70/77/35 84/86/35
f 60/76/35 82/83/35 66/75/35
f 81/166/58 78/149/60 77/165/65
f 65/199/12 70/214/16 69/200/20
f 100/154/62 95/169/56 98/170/62
f 85/117/32 95/136/32 93/134/32
f 86/35/19 87/38/14 85/39/19
f 60/212/6 58/197/1 61/211/1
f 83/126/31 65/110/31 69/113/32
f 95/169/56 94/152/52 93/168/48
f 83/167/50 82/150/53 81/166/58
f 57/112/29 81/123/30 77/125/28
f 98/135/32 87/119/32 90/118/32
f 87/38/14 92/33/8 90/37/3
f 66/75/35 84/86/35 70/77/35
f 60/212/6 65/199/12 57/198/6
f 86/87/35 96/106/35 88/92/35
f 54/20/35 51/50/35 52/21/35
f 72/176/45 73/175/57 74/174/57
f 68/11/43 71/1/44 72/10/45
f 64/12/41 67/2/42 68/11/43
f 61/81/35 80/105/35 79/98/35
f 59/196/1 61/211/1 58/197/1
f 59/19/35 53/49/35 54/20/35
f 79/148/67 76/172/63 75/173/66
f 1/140/33 11/159/33 9/141/33
f 1/140/33 3/158/33 11/159/33
f 99/47/33 89/42/33 91/46/33
f 99/47/33 97/43/33 89/42/33
f 23/96/38 39/79/37 40/94/39
f 41/57/34 22/62/34 28/64/34
f 47/218/33 51/217/33 49/230/33
f 41/57/34 38/70/34 46/71/34
f 33/227/33 29/225/33 40/219/33
f 49/5/32 50/14/32 46/15/32
f 24/121/35 25/133/35 43/116/35
f 17/191/17 18/205/17 8/206/18
f 10/30/64 9/31/67 11/27/67
f 2/103/32 1/99/32 9/82/32
f 31/80/32 17/97/31 7/102/32
f 27/186/11 28/185/11 22/187/5
f 26/53/34 22/62/34 41/57/34
f 38/16/25 37/7/25 45/6/32
f 25/202/1 24/203/9 23/189/4
f 40/219/33 29/225/33 27/223/33
f 34/68/34 38/70/34 41/57/34
f 48/58/34 46/71/34 50/72/34
f 40/219/33 47/218/33 45/231/33
f 12/129/35 11/124/35 3/142/35
f 31/44/46 15/45/49 16/41/49
f 4/144/35 6/145/35 14/130/35
f 4/208/7 3/209/1 1/195/1
f 32/114/35 16/128/35 8/143/35
f 42/111/35 36/109/35 20/120/35
f 24/203/9 20/204/15 19/190/10
f 32/164/51 36/163/54 35/181/54
f 5/193/13 6/207/13 4/208/7
f 15/88/32 7/102/32 5/108/32
f 13/29/55 14/25/55 16/24/49
f 40/179/67 39/180/61 42/162/61
f 17/97/31 31/80/32 35/78/31
f 8/206/18 6/207/13 5/193/13
f 20/204/15 18/205/17 17/191/17
f 39/79/37 23/96/38 19/95/36
f 2/103/32 10/89/32 13/90/32
f 12/26/59 14/25/55 13/29/55
f 18/127/35 20/120/35 36/109/35
f 35/181/54 36/163/54 42/162/61
f 6/145/35 8/143/35 16/128/35
f 51/50/35 47/51/35 48/22/35
f 27/186/11 29/184/22 30/183/21
f 29/9/22 33/8/24 34/17/23
f 33/8/24 37/7/25 38/16/25
f 26/146/35 44/131/35 43/116/35
f 43/161/67 44/160/67 41/178/67
f 47/51/35 40/52/35 41/23/35
f 22/187/5 26/201/1 25/202/1
f 58/122/27 57/112/29 77/125/28
f 59/61/34 72/67/34 74/65/34
f 53/216/33 55/229/33 49/230/33
f 56/73/34 64/74/34 59/61/34
f 58/215/33 71/224/33 67/226/33
f 49/5/32 55/4/32 56/13/32
f 61/81/35 79/98/35 78/84/35
f 93/168/48 94/152/52 84/151/47
f 91/32/1 89/36/1 90/37/3
f 89/115/32 97/132/32 98/135/32
f 69/113/32 85/117/32 93/134/32
f 76/172/63 74/174/57 73/175/57
f 59/61/34 76/63/34 80/56/34
f 55/4/32 63/3/41 64/12/41
f 77/165/65 78/149/60 79/148/67
f 58/215/33 75/220/33 73/222/33
f 59/61/34 64/74/34 68/69/34
f 50/72/34 56/73/34 54/60/34
f 58/215/33 63/228/33 55/229/33
f 99/100/35 91/85/35 92/91/35
f 86/157/19 85/139/19 69/138/20
f 100/104/35 92/91/35 88/92/35
f 97/171/67 99/155/67 100/154/62
f 94/101/35 86/87/35 70/77/35
f 60/76/35 78/84/35 82/83/35
f 81/166/58 82/150/53 78/149/60
f 65/199/12 66/213/12 70/214/16
f 100/154/62 96/153/56 95/169/56
f 85/117/32 87/119/32 95/136/32
f 86/35/19 88/34/14 87/38/14
f 60/212/6 57/198/6 58/197/1
f 83/126/31 81/123/30 65/110/31
f 95/169/56 96/153/56 94/152/52
f 83/167/50 84/151/47 82/150/53
f 57/112/29 65/110/31 81/123/30
f 98/135/32 95/136/32 87/119/32
f 87/38/14 88/34/14 92/33/8
f 66/75/35 82/83/35 84/86/35
f 60/212/6 66/213/12 65/199/12
f 86/87/35 94/101/35 96/106/35
f 54/20/35 53/49/35 51/50/35
f 72/176/45 71/177/44 73/175/57
f 68/11/43 67/2/42 71/1/44
f 64/12/41 63/3/41 67/2/42
f 61/81/35 62/93/35 80/105/35
f 59/196/1 62/210/1 61/211/1
f 59/19/35 58/48/35 53/49/35
f 79/148/67 80/147/67 76/172/63
