o rear_buttons_blue_1
v -0.073521 1.619207 -0.023878
v -0.072767 1.615797 -0.025544
v -0.072766 1.622626 -0.022228
v -0.07232 1.619207 -0.023879
v -0.071657 1.616213 -0.025343
v -0.071656 1.622211 -0.02243
v -0.070599 1.625526 -0.02083
v -0.070595 1.612903 -0.026957
v -0.069751 1.624761 -0.021201
v -0.069748 1.613668 -0.026586
v -0.067374 1.627463 -0.019893
v -0.067373 1.610966 -0.027897
v -0.066915 1.626464 -0.020377
v -0.066913 1.611964 -0.027412
v -0.063575 1.627062 -0.020087
v -0.063575 1.628143 -0.019563
v -0.063574 1.610284 -0.028227
v -0.063574 1.611364 -0.027703
v -0.060237 1.611961 -0.027412
v -0.060237 1.626464 -0.020377
v -0.059777 1.610963 -0.027897
v -0.059777 1.627463 -0.019892
v -0.057407 1.613665 -0.026586
v -0.057407 1.624763 -0.021202
v -0.056557 1.612901 -0.026957
v -0.056557 1.625528 -0.020831
v -0.055516 1.616211 -0.025351
v -0.055516 1.622217 -0.022437
v -0.054852 1.619214 -0.023894
v -0.054406 1.615798 -0.025551
v -0.054406 1.622631 -0.022236
v -0.05365 1.619214 -0.023894
vt 0.0019 0.5987
vt 0.002 0.4006
vt 0.0622 0.4126
vt 0.0622 0.5869
vt 0.0773 0.7825
vt 0.0777 0.2176
vt 0.1285 0.7485
vt 0.1288 0.2517
vt 0.2173 0.9224
vt 0.2178 0.0776
vt 0.2514 0.8713
vt 0.2519 0.1287
vt 0.4003 0.9981
vt 0.4009 0.002
vt 0.4122 0.9378
vt 0.4129 0.0622
vt 0.5868 0.9372
vt 0.5871 0.0622
vt 0.5989 0.9974
vt 0.5991 0.0019
vt 0.748 0.1287
vt 0.748 0.8704
vt 0.7821 0.0777
vt 0.7821 0.9214
vt 0.8711 0.2517
vt 0.8711 0.7473
vt 0.9222 0.2176
vt 0.9222 0.7814
vt 0.9378 0.4125
vt 0.9378 0.5865
vt 0.9981 0.4005
vt 0.9981 0.5985
vn -0.0002 -0.4368 0.8995
vn -0.0002 -0.4368 0.8996
vn -0.0002 -0.4367 0.8996
vn -0.0002 -0.4365 0.8997
vn -0.0001 -0.4366 0.8997
vn -0.0001 -0.4365 0.8997
vn -0.0001 -0.4363 0.8998
vn -0.0 -0.4365 0.8997
vn 0.0 -0.4364 0.8997
vn -0.0 -0.4361 0.8999
vn 0.0001 -0.4368 0.8996
vn 0.0001 -0.436 0.8999
vn 0.0002 -0.437 0.8995
vn 0.0002 -0.4366 0.8996
vn 0.0002 -0.436 0.9
vn 0.0003 -0.4366 0.8997
vn 0.0007 -0.4373 0.8993
vn 0.0007 -0.4369 0.8995
vn 0.0008 -0.4371 0.8994
vn 0.0008 -0.4355 0.9002
vn 0.0009 -0.4355 0.9002
vn 0.0011 -0.4368 0.8995
vn 0.0012 -0.4349 0.9005
vn 0.0013 -0.4349 0.9005
vn 0.0014 -0.4384 0.8988
vn 0.0015 -0.4383 0.8988
f 16/28/7 20/30/6 22/32/5
f 24/29/8 22/32/5 20/30/6
f 28/25/8 26/31/9 24/29/8
f 28/25/8 32/23/8 31/27/6
f 29/21/6 30/20/4 32/23/8
f 27/18/6 25/14/14 30/20/4
f 19/12/11 25/14/14 23/16/16
f 19/12/11 17/6/3 21/10/13
f 18/8/3 12/2/1 17/6/3
f 14/3/2 8/1/17 12/2/1
f 5/7/25 8/1/17 10/4/19
f 5/7/25 1/9/22 2/5/26
f 6/15/23 1/9/22 4/11/18
f 13/22/15 7/19/20 9/17/21
f 6/15/23 7/19/20 3/13/24
f 15/26/10 11/24/12 13/22/15
f 16/28/7 15/26/10 20/30/6
f 24/29/8 26/31/9 22/32/5
f 28/25/8 31/27/6 26/31/9
f 28/25/8 29/21/6 32/23/8
f 29/21/6 27/18/6 30/20/4
f 27/18/6 23/16/16 25/14/14
f 19/12/11 21/10/13 25/14/14
f 19/12/11 18/8/3 17/6/3
f 18/8/3 14/3/2 12/2/1
f 14/3/2 10/4/19 8/1/17
f 5/7/25 2/5/26 8/1/17
f 5/7/25 4/11/18 1/9/22
f 6/15/23 3/13/24 1/9/22
f 13/22/15 11/24/12 7/19/20
f 6/15/23 9/17/21 7/19/20
f 15/26/10 16/28/7 11/24/12
