o rear_buttons
v -0.077615 1.619975 -0.025322
v -0.077615 1.622564 -0.030872
v -0.077307 1.622701 -0.031156
v -0.077304 1.619956 -0.0255
v -0.076549 1.61516 -0.027675
v -0.076549 1.617749 -0.033224
v -0.076548 1.624802 -0.022992
v -0.076548 1.627392 -0.028542
v -0.076265 1.617994 -0.033456
v -0.076263 1.62742 -0.028879
v -0.076262 1.61525 -0.0278
v -0.076261 1.624676 -0.023223
v -0.073521 1.619207 -0.023878
v -0.07349 1.628896 -0.021018
v -0.07349 1.631485 -0.026568
v -0.073485 1.611074 -0.029669
v -0.073485 1.613664 -0.035219
v -0.073273 1.631424 -0.026949
v -0.07327 1.628679 -0.021292
v -0.073268 1.613999 -0.035407
v -0.073265 1.611254 -0.029751
v -0.072767 1.615797 -0.025544
v -0.072766 1.622626 -0.022228
v -0.070599 1.625526 -0.02083
v -0.070595 1.612903 -0.026957
v -0.068939 1.631629 -0.019697
v -0.068939 1.634218 -0.025246
v -0.068938 1.608343 -0.030995
v -0.068938 1.610932 -0.036545
v -0.068821 1.634098 -0.025655
v -0.06882 1.611326 -0.036704
v -0.068818 1.631353 -0.019999
v -0.068817 1.608581 -0.031048
v -0.067374 1.627463 -0.019893
v -0.067373 1.610966 -0.027897
v -0.063583 1.622573 -0.030892
v -0.063577 1.632589 -0.019231
v -0.063577 1.635036 -0.0252
v -0.063577 1.635178 -0.024781
v -0.063576 1.607379 -0.031461
v -0.063576 1.609969 -0.037011
v -0.063576 1.610384 -0.03716
v -0.063575 1.628143 -0.019563
v -0.063575 1.632291 -0.019544
v -0.063574 1.610284 -0.028227
v -0.063573 1.607639 -0.031504
v -0.059777 1.610963 -0.027897
v -0.059777 1.627463 -0.019892
v -0.058335 1.634097 -0.025655
v -0.058334 1.611321 -0.036704
v -0.058332 1.631353 -0.019999
v -0.058331 1.608577 -0.031048
v -0.058216 1.631629 -0.019696
v -0.058216 1.634218 -0.025246
v -0.058215 1.608338 -0.030995
v -0.058215 1.610928 -0.036545
v -0.056557 1.612901 -0.026957
v -0.056557 1.625528 -0.020831
v -0.054406 1.615798 -0.025551
v -0.054406 1.622631 -0.022236
v -0.05389 1.613997 -0.035407
v -0.05389 1.631426 -0.026951
v -0.053887 1.611252 -0.02975
v -0.053887 1.628681 -0.021295
v -0.053671 1.611074 -0.029668
v -0.053671 1.613663 -0.035218
v -0.053671 1.628897 -0.021021
v -0.053671 1.631486 -0.026571
v -0.05365 1.619214 -0.023894
v -0.05092 1.617995 -0.033467
v -0.05092 1.627427 -0.02889
v -0.050918 1.61525 -0.02781
v -0.050918 1.624683 -0.023234
v -0.050634 1.615162 -0.027684
v -0.050634 1.617752 -0.033234
v -0.050634 1.624808 -0.023005
v -0.050634 1.627397 -0.028554
v -0.049877 1.622711 -0.031178
v -0.049875 1.619967 -0.025522
v -0.049568 1.619985 -0.025344
v -0.049568 1.622574 -0.030894
v -0.045135 1.619985 -0.025344
v -0.045135 1.622574 -0.030894
v -0.044825 1.619967 -0.025522
v -0.044825 1.622711 -0.031178
v -0.044068 1.615162 -0.027684
v -0.044068 1.617751 -0.033234
v -0.044068 1.624808 -0.023004
v -0.044068 1.627397 -0.028554
v -0.043782 1.615251 -0.02781
v -0.043782 1.617995 -0.033466
v -0.043782 1.624684 -0.023234
v -0.043782 1.627427 -0.02889
v -0.04105 1.619215 -0.023894
v -0.041031 1.611073 -0.029667
v -0.041031 1.613663 -0.035217
v -0.041031 1.628897 -0.021021
v -0.041031 1.631486 -0.02657
v -0.040813 1.611252 -0.02975
v -0.040813 1.628682 -0.021294
v -0.040812 1.613996 -0.035406
v -0.040812 1.631426 -0.02695
v -0.040295 1.615799 -0.025551
v -0.040295 1.622632 -0.022236
v -0.038143 1.612902 -0.026957
v -0.038143 1.625529 -0.020831
v -0.036488 1.63163 -0.019695
v -0.036488 1.634219 -0.025245
v -0.036486 1.608337 -0.030992
v -0.036486 1.610927 -0.036542
v -0.03637 1.631355 -0.019997
v -0.03637 1.634098 -0.025654
v -0.036368 1.608577 -0.031045
v -0.036368 1.61132 -0.036702
v -0.034925 1.627465 -0.019891
v -0.034923 1.610963 -0.027895
v -0.031126 1.628143 -0.019562
v -0.031126 1.632292 -0.019543
v -0.031125 1.607377 -0.031456
v -0.031125 1.607638 -0.031499
v -0.031125 1.609967 -0.037006
v -0.031125 1.610283 -0.028224
v -0.031125 1.610382 -0.037156
v -0.031125 1.622573 -0.030894
v -0.031125 1.632588 -0.01923
v -0.031125 1.635035 -0.025199
v -0.031125 1.635177 -0.02478
v -0.027328 1.610963 -0.027895
v -0.027327 1.627464 -0.019892
v -0.025883 1.608577 -0.031045
v -0.025883 1.61132 -0.036702
v -0.025883 1.631353 -0.019998
v -0.025882 1.634097 -0.025654
v -0.025764 1.608337 -0.030992
v -0.025764 1.610927 -0.036542
v -0.025764 1.631629 -0.019695
v -0.025764 1.634218 -0.025245
v -0.024108 1.612902 -0.026956
v -0.024107 1.625528 -0.020831
v -0.021956 1.615798 -0.025551
v -0.021956 1.622632 -0.022236
v -0.021438 1.611252 -0.029749
v -0.021438 1.613996 -0.035406
v -0.021438 1.628682 -0.021294
v -0.021438 1.631425 -0.02695
v -0.021219 1.611073 -0.029667
v -0.021219 1.613662 -0.035217
v -0.021219 1.628897 -0.02102
v -0.021219 1.631486 -0.02657
v -0.021201 1.619215 -0.023893
v -0.018468 1.615251 -0.027809
v -0.018468 1.617995 -0.033466
v -0.018468 1.624683 -0.023233
v -0.018468 1.627427 -0.02889
v -0.018182 1.615162 -0.027683
v -0.018182 1.617751 -0.033233
v -0.018182 1.624808 -0.023004
v -0.018182 1.627397 -0.028554
v -0.017425 1.619967 -0.025521
v -0.017425 1.622711 -0.031178
v -0.017116 1.619985 -0.025344
v -0.017116 1.622574 -0.030894
vt 0.0005 0.1493
vt 0.0005 0.2231
vt 0.0087 0.5178
vt 0.0087 0.5899
vt 0.0087 0.7883
vt 0.0087 0.8564
vt 0.0087 0.9302
vt 0.0088 0.7361
vt 0.0088 0.9983
vt 0.0288 0.0812
vt 0.0288 0.2912
vt 0.0364 0.4511
vt 0.0364 0.6565
vt 0.059 0.5273
vt 0.059 0.5796
vt 0.079 0.6279
vt 0.0791 0.4791
vt 0.081 0.3433
vt 0.0811 0.029
vt 0.0875 0.4002
vt 0.0875 0.7075
vt 0.0915 0.7895
vt 0.0915 0.8576
vt 0.0915 0.9314
vt 0.0916 0.7373
vt 0.0916 0.9995
vt 0.0926 0.8564
vt 0.0927 0.7361
vt 0.0927 0.7883
vt 0.0927 0.9302
vt 0.0927 0.9983
vt 0.1161 0.4421
vt 0.1161 0.6648
vt 0.1493 0.3716
vt 0.1494 0.0007
vt 0.1542 0.7351
vt 0.1543 0.3726
vt 0.1644 0.6848
vt 0.1645 0.4222
vt 0.1754 0.8576
vt 0.1755 0.7373
vt 0.1755 0.7895
vt 0.1755 0.9314
vt 0.1755 0.9995
vt 0.1765 0.8539
vt 0.1766 0.7872
vt 0.1766 0.926
vt 0.1767 0.7362
vt 0.1767 0.9926
vt 0.1863 0.1861
vt 0.2168 0.4222
vt 0.2168 0.6848
vt 0.2232 0.3716
vt 0.2235 0.0005
vt 0.2265 0.3726
vt 0.2265 0.7351
vt 0.2616 0.7872
vt 0.2616 0.8538
vt 0.2616 0.9259
vt 0.2617 0.7361
vt 0.2617 0.9925
vt 0.2627 0.8028
vt 0.2627 0.8749
vt 0.2627 0.9415
vt 0.2628 0.7361
vt 0.2628 0.9925
vt 0.2652 0.4422
vt 0.2652 0.6648
vt 0.2916 0.3434
vt 0.2918 0.0287
vt 0.2933 0.4002
vt 0.2933 0.7075
vt 0.3022 0.6279
vt 0.3023 0.4791
vt 0.3223 0.5274
vt 0.3223 0.5796
vt 0.3438 0.2912
vt 0.344 0.0808
vt 0.3444 0.6565
vt 0.3445 0.4512
vt 0.3477 0.8028
vt 0.3477 0.8749
vt 0.3477 0.9415
vt 0.3478 0.7362
vt 0.3478 0.9925
vt 0.3721 0.1493
vt 0.3721 0.2231
vt 0.3721 0.5178
vt 0.3721 0.5899
vt 0.3731 0.149
vt 0.3731 0.2228
vt 0.3731 0.5178
vt 0.3731 0.5899
vt 0.3731 0.8794
vt 0.3732 0.8057
vt 0.3733 0.7375
vt 0.3733 0.9475
vt 0.4008 0.4512
vt 0.4008 0.6565
vt 0.4014 0.0809
vt 0.4014 0.2909
vt 0.4228 0.5275
vt 0.4228 0.5797
vt 0.4429 0.4792
vt 0.4429 0.628
vt 0.4519 0.4002
vt 0.4519 0.7075
vt 0.4537 0.0288
vt 0.4537 0.343
vt 0.4559 0.8781
vt 0.456 0.8044
vt 0.4561 0.7362
vt 0.4561 0.9462
vt 0.4799 0.4423
vt 0.4799 0.6649
vt 0.5186 0.7351
vt 0.5188 0.3725
vt 0.522 0.0005
vt 0.522 0.3713
vt 0.5283 0.4222
vt 0.5283 0.6849
vt 0.5589 0.1859
vt 0.5652 0.8027
vt 0.5653 0.8748
vt 0.5654 0.7362
vt 0.5654 0.9415
vt 0.5806 0.6849
vt 0.5808 0.4221
vt 0.5909 0.7351
vt 0.5912 0.3723
vt 0.5959 0.0005
vt 0.5959 0.3713
vt 0.629 0.665
vt 0.6292 0.442
vt 0.6502 0.8028
vt 0.6503 0.8749
vt 0.6504 0.7362
vt 0.6504 0.9416
vt 0.6514 0.8028
vt 0.6514 0.8749
vt 0.6514 0.9415
vt 0.6515 0.7362
vt 0.6515 0.9925
vt 0.6577 0.7076
vt 0.6579 0.3999
vt 0.6642 0.0287
vt 0.6642 0.343
vt 0.666 0.628
vt 0.6662 0.479
vt 0.6861 0.5275
vt 0.6861 0.5797
vt 0.7088 0.6566
vt 0.709 0.4508
vt 0.7164 0.0809
vt 0.7164 0.2909
vt 0.7364 0.8028
vt 0.7364 0.8749
vt 0.7364 0.9415
vt 0.7365 0.5178
vt 0.7365 0.5899
vt 0.7365 0.7362
vt 0.7365 0.9925
vt 0.7375 0.4899
vt 0.7375 0.562
vt 0.7375 0.8013
vt 0.7376 0.7332
vt 0.7376 0.8751
vt 0.7377 0.4233
vt 0.7377 0.6287
vt 0.7379 0.6811
vt 0.7379 0.9432
vt 0.7381 0.3723
vt 0.7381 0.6797
vt 0.7447 0.1491
vt 0.7447 0.2228
vt 0.7457 0.1208
vt 0.7457 0.1946
vt 0.7459 0.0527
vt 0.7459 0.2627
vt 0.7463 0.0005
vt 0.7463 0.3148
vt 0.8203 0.801
vt 0.8204 0.7329
vt 0.8204 0.8747
vt 0.8207 0.6807
vt 0.8207 0.9429
vt 0.8225 0.4899
vt 0.8225 0.562
vt 0.8227 0.4233
vt 0.8227 0.6286
vt 0.8231 0.3723
vt 0.8231 0.6797
vt 0.8241 0.511
vt 0.8241 0.7689
vt 0.8242 0.4389
vt 0.8242 0.5778
vt 0.8242 0.6968
vt 0.8242 0.8355
vt 0.8244 0.3723
vt 0.8244 0.629
vt 0.8245 0.6301
vt 0.8245 0.8865
vt 0.8285 0.1211
vt 0.8285 0.1948
vt 0.8287 0.0529
vt 0.8287 0.2629
vt 0.8291 0.0008
vt 0.8291 0.3151
vt 0.8302 0.0516
vt 0.8302 0.1183
vt 0.8303 0.1904
vt 0.8305 0.0006
vt 0.8305 0.257
vt 0.9091 0.5111
vt 0.9091 0.769
vt 0.9092 0.439
vt 0.9092 0.5779
vt 0.9092 0.6969
vt 0.9092 0.8356
vt 0.9094 0.3724
vt 0.9094 0.6291
vt 0.9095 0.6303
vt 0.9095 0.8866
vt 0.9105 0.4872
vt 0.9105 0.561
vt 0.9106 0.419
vt 0.9106 0.772
vt 0.9107 0.6983
vt 0.9107 0.8402
vt 0.9108 0.3666
vt 0.9108 0.6291
vt 0.911 0.6301
vt 0.911 0.8923
vt 0.9152 0.0515
vt 0.9152 0.1181
vt 0.9153 0.1903
vt 0.9156 0.0005
vt 0.9156 0.2569
vt 0.9166 0.0698
vt 0.9166 0.1436
vt 0.9166 0.2117
vt 0.9167 0.0017
vt 0.9167 0.2639
vt 0.9933 0.4869
vt 0.9933 0.5607
vt 0.9934 0.4187
vt 0.9934 0.7724
vt 0.9935 0.6986
vt 0.9935 0.8405
vt 0.9936 0.3663
vt 0.9936 0.6288
vt 0.9938 0.6305
vt 0.9938 0.8927
vt 0.9994 0.0686
vt 0.9994 0.1424
vt 0.9994 0.2105
vt 0.9995 0.0005
vt 0.9995 0.2627
vn -0.9808 -0.1768 -0.0825
vn -0.9808 -0.1757 -0.0848
vn -0.9808 -0.1757 -0.0847
vn -0.9808 -0.1756 -0.0852
vn -0.9808 0.1754 0.0856
vn -0.9808 0.1756 0.0851
vn -0.9808 0.1756 0.0852
vn -0.9808 0.1768 0.0825
vn -0.9807 0.1755 0.0856
vn -0.9807 0.1757 0.0856
vn -0.8315 -0.4998 -0.2426
vn -0.8315 -0.4998 -0.2425
vn -0.8315 -0.4997 -0.2425
vn -0.8315 0.4999 0.2424
vn -0.8314 -0.5036 -0.2349
vn -0.8314 -0.5035 -0.2349
vn -0.8314 0.5035 0.2349
vn -0.8314 0.5036 0.235
vn -0.8297 0.502 0.244
vn -0.8297 0.5021 0.244
vn -0.8296 0.5022 0.2439
vn -0.8292 -0.503 -0.2437
vn -0.8292 -0.503 -0.2436
vn -0.5561 -0.7477 -0.3629
vn -0.5561 0.7532 0.3514
vn -0.556 0.7532 0.3515
vn -0.5559 -0.7479 -0.3628
vn -0.5559 0.748 0.3627
vn -0.5559 0.7533 0.3514
vn -0.5559 0.7533 0.3515
vn -0.5558 -0.748 -0.3627
vn -0.5558 0.748 0.3627
vn -0.5558 0.748 0.3628
vn -0.5558 0.7533 0.3515
vn -0.5555 -0.7536 -0.3515
vn -0.5554 -0.7482 -0.3628
vn -0.555 0.7482 0.3634
vn -0.555 0.7483 0.3634
vn -0.4291 -0.3683 0.8247
vn -0.4287 -0.4196 0.8001
vn -0.4271 -0.3684 0.8257
vn -0.4266 -0.4208 0.8006
vn -0.4081 -0.2695 0.8722
vn -0.4062 -0.518 0.7528
vn -0.406 -0.2682 0.8737
vn -0.404 -0.5204 0.7523
vn -0.3866 -0.2219 0.8952
vn -0.3843 -0.2203 0.8965
vn -0.3841 -0.5651 0.7302
vn -0.3819 -0.5676 0.7294
vn -0.3249 -0.1377 0.9357
vn -0.3229 -0.1362 0.9366
vn -0.322 -0.6478 0.6904
vn -0.3203 -0.6497 0.6894
vn -0.2848 -0.1011 0.9533
vn -0.2832 -0.1001 0.9538
vn -0.2819 -0.6836 0.6732
vn -0.2808 -0.6847 0.6725
vn -0.1957 -0.8823 -0.4281
vn -0.1951 -0.8888 -0.4146
vn -0.1951 -0.8824 -0.428
vn -0.1951 0.8888 0.4148
vn -0.195 -0.8889 -0.4146
vn -0.195 -0.8825 -0.428
vn -0.195 0.8823 0.4283
vn -0.195 0.8888 0.4148
vn -0.1949 -0.8825 -0.4279
vn -0.1948 0.8825 0.428
vn -0.1948 0.8826 0.428
vn -0.1947 0.8826 0.4279
vn -0.1917 -0.0445 0.9804
vn -0.1911 -0.0442 0.9806
vn -0.1896 -0.7388 0.6467
vn -0.1894 -0.7392 0.6463
vn -0.1388 -0.0246 0.99
vn -0.1385 -0.0244 0.9901
vn -0.1372 -0.7585 0.637
vn -0.1372 -0.7583 0.6373
vn -0.0003 -0.7782 0.6281
vn -0.0003 -0.4363 0.8998
vn -0.0002 -0.4368 0.8996
vn -0.0002 -0.4367 0.8996
vn -0.0002 -0.4364 0.8998
vn -0.0001 -0.0046 1.0
vn 0.0 -0.778 0.6283
vn 0.0 -0.4367 0.8996
vn -0.0 -0.4365 0.8997
vn -0.0 -0.4364 0.8997
vn -0.0 -0.4363 0.8998
vn -0.0 -0.4362 0.8998
vn -0.0 -0.0046 1.0
vn 0.0001 -0.4366 0.8996
vn 0.0001 -0.4364 0.8998
vn 0.0001 -0.4363 0.8998
vn 0.0001 -0.0046 1.0
vn 0.0002 -0.4366 0.8996
vn 0.0002 -0.4365 0.8997
vn 0.0002 -0.4363 0.8998
vn 0.0003 -0.4362 0.8999
vn 0.0004 -0.4365 0.8997
vn 0.0006 -0.4374 0.8993
vn 0.0009 -0.4357 0.9001
vn 0.0014 -0.4383 0.8988
vn 0.0015 -0.4351 0.9004
vn 0.0016 -0.4368 0.8996
vn 0.1369 -0.7585 0.6372
vn 0.1372 -0.7583 0.6373
vn 0.1388 -0.0245 0.99
vn 0.1388 -0.0244 0.99
vn 0.1893 -0.7391 0.6465
vn 0.1895 -0.7388 0.6467
vn 0.1916 -0.0444 0.9805
vn 0.1917 -0.0443 0.9805
vn 0.1947 -0.8889 -0.4147
vn 0.195 -0.8825 -0.4279
vn 0.195 -0.8823 -0.4283
vn 0.195 0.8824 0.4281
vn 0.195 0.8825 0.428
vn 0.1951 -0.8888 -0.4147
vn 0.1951 -0.8825 -0.428
vn 0.1951 -0.8824 -0.4283
vn 0.1951 -0.8824 -0.4282
vn 0.1951 -0.8824 -0.428
vn 0.1951 0.8824 0.4281
vn 0.1951 0.8888 0.4148
vn 0.1952 -0.8888 -0.4146
vn 0.1952 0.8824 0.4282
vn 0.1952 0.8825 0.428
vn 0.1956 0.8887 0.4147
vn 0.1957 0.8887 0.4146
vn 0.1958 0.8887 0.4146
vn 0.2818 -0.6838 0.6731
vn 0.2818 -0.6836 0.6732
vn 0.2847 -0.1009 0.9533
vn 0.2847 -0.1008 0.9533
vn 0.3219 -0.648 0.6903
vn 0.3219 -0.6479 0.6904
vn 0.3248 -0.1376 0.9357
vn 0.3249 -0.1375 0.9357
vn 0.384 -0.5651 0.7302
vn 0.3841 -0.5651 0.7302
vn 0.3864 -0.2218 0.8952
vn 0.3866 -0.2218 0.8952
vn 0.4061 -0.518 0.7528
vn 0.4062 -0.518 0.7528
vn 0.4079 -0.2695 0.8724
vn 0.4081 -0.2694 0.8723
vn 0.4286 -0.4197 0.8001
vn 0.4287 -0.4196 0.8001
vn 0.4289 -0.3684 0.8248
vn 0.4291 -0.3684 0.8247
vn 0.5549 -0.7539 -0.3518
vn 0.5549 -0.7539 -0.3517
vn 0.5552 0.7537 0.3517
vn 0.5553 0.7537 0.3516
vn 0.5554 0.7481 0.3631
vn 0.5554 0.7483 0.3627
vn 0.5555 0.7481 0.3629
vn 0.5555 0.7482 0.3628
vn 0.5556 0.7481 0.3628
vn 0.5557 -0.7534 -0.3515
vn 0.5558 -0.7534 -0.3515
vn 0.5558 -0.7534 -0.3514
vn 0.5559 -0.748 -0.3627
vn 0.5559 -0.7479 -0.3627
vn 0.5559 0.7533 0.3515
vn 0.556 -0.7479 -0.3628
vn 0.5561 -0.7476 -0.3631
vn 0.5561 -0.7476 -0.363
vn 0.8292 0.5065 0.2363
vn 0.8292 0.5065 0.2364
vn 0.8296 -0.506 -0.2361
vn 0.8296 -0.5059 -0.2361
vn 0.8297 -0.5059 -0.236
vn 0.8313 0.5036 0.235
vn 0.8314 -0.5036 -0.2349
vn 0.8314 -0.5035 -0.2349
vn 0.8314 -0.4997 -0.2429
vn 0.8314 -0.4997 -0.2428
vn 0.8314 0.4999 0.2425
vn 0.8314 0.5 0.2422
vn 0.8314 0.5 0.2425
vn 0.8314 0.5036 0.2349
vn 0.8314 0.5036 0.235
vn 0.8315 -0.4999 -0.2425
vn 0.8315 -0.4997 -0.2428
vn 0.8315 0.5 0.2423
vn 0.9808 -0.1769 -0.0826
vn 0.9808 -0.1769 -0.0825
vn 0.9808 -0.1756 -0.0852
vn 0.9808 -0.1754 -0.0855
vn 0.9808 0.1756 0.0852
vn 0.9808 0.1757 0.0849
vn 0.9808 0.1768 0.0825
vn 0.9808 0.1769 0.0825
f 119/248/62 135/227/62 121/228/62
f 16/96/170 6/111/170 5/95/170
f 119/248/125 110/232/125 109/252/125
f 5/95/194 2/110/194 1/94/194
f 109/258/166 96/241/166 95/256/166
f 1/94/188 8/113/188 7/97/188
f 95/256/184 87/240/184 86/255/183
f 53/231/60 39/245/60 54/251/60
f 86/255/195 83/239/195 82/254/195
f 14/226/153 27/244/153 26/224/152
f 67/5/35 54/25/35 68/22/35
f 82/254/189 89/242/189 88/257/189
f 26/224/119 39/245/119 37/225/126
f 76/6/15 68/22/15 77/23/15
f 88/170/176 98/183/176 97/166/176
f 136/171/63 127/184/63 137/186/63
f 80/7/1 77/23/1 81/24/1
f 97/166/162 108/182/162 107/165/163
f 148/29/35 137/41/35 149/42/35
f 74/9/8 81/24/8 75/26/8
f 107/165/114 127/184/114 125/167/114
f 157/27/16 149/42/16 158/40/16
f 65/206/18 75/181/18 66/179/17
f 161/30/1 158/40/1 162/43/1
f 55/204/25 66/179/25 56/177/26
f 155/31/8 162/43/8 156/44/8
f 40/203/66 56/177/66 41/176/66
f 146/249/17 156/233/17 147/229/17
f 7/230/173 15/246/173 14/226/174
f 40/203/130 29/178/130 28/205/131
f 134/247/30 147/229/30 135/227/34
f 28/205/155 17/180/155 16/207/154
f 27/19/99 36/50/100 39/10/90
f 89/90/87 124/122/88 98/91/87
f 137/119/88 124/122/88 149/132/87
f 77/11/93 36/50/100 81/18/97
f 108/101/88 124/122/88 127/109/88
f 158/147/87 124/122/88 162/155/88
f 75/34/96 36/50/100 66/53/92
f 8/54/104 36/50/100 15/35/102
f 156/175/88 124/122/88 147/174/93
f 56/69/86 36/50/100 41/77/82
f 135/154/98 124/122/88 121/146/89
f 29/87/81 36/50/100 17/86/101
f 110/131/80 124/122/88 96/118/83
f 6/78/103 36/50/100 2/70/105
f 54/1/89 36/50/100 68/2/94
f 87/108/87 124/122/88 83/100/87
f 12/130/45 13/134/41 23/128/48
f 90/72/49 105/52/53 103/68/44
f 4/145/42 22/149/46 13/134/41
f 99/56/57 116/38/73 105/52/53
f 11/153/50 25/150/54 22/149/46
f 113/36/78 122/33/85 116/38/73
f 21/159/58 35/151/74 25/150/54
f 130/13/107 122/33/85 120/21/85
f 33/160/77 45/148/79 35/151/74
f 142/4/133 128/16/111 130/13/107
f 52/144/106 45/148/79 46/152/79
f 151/3/140 138/15/137 142/4/133
f 63/129/132 47/133/110 52/144/106
f 159/12/148 140/14/144 151/3/140
f 72/116/141 57/127/136 63/129/132
f 153/20/146 150/17/150 159/12/148
f 85/47/4 90/58/4 84/59/4
f 18/217/38 32/193/38 30/214/37
f 49/220/124 44/195/124 51/199/118
f 93/49/7 84/59/7 92/61/6
f 38/216/65 32/193/65 44/195/65
f 62/83/159 51/66/159 64/64/159
f 102/219/14 92/202/14 100/198/14
f 126/218/124 132/201/124 133/222/117
f 71/82/187 64/64/187 73/63/187
f 112/215/32 100/198/32 111/194/28
f 133/162/158 144/141/158 145/158/160
f 78/81/193 73/63/193 79/62/193
f 112/215/69 118/197/69 126/218/68
f 145/158/180 153/140/180 154/157/182
f 78/81/191 72/65/191 70/84/191
f 10/221/20 19/196/20 18/217/19
f 154/157/192 159/139/192 160/156/192
f 70/172/179 63/189/179 61/168/178
f 160/156/190 151/142/190 152/161/190
f 61/168/169 52/187/169 50/163/169
f 152/212/185 142/234/185 143/209/185
f 50/163/121 46/188/121 42/164/116
f 131/210/165 142/234/165 130/235/164
f 42/164/59 33/190/59 31/169/59
f 123/211/120 130/235/120 120/236/123
f 31/169/36 21/192/36 20/173/36
f 123/211/64 113/238/64 114/213/67
f 9/136/23 21/126/23 11/124/23
f 114/48/27 99/57/27 101/46/24
f 3/135/3 11/124/3 4/123/2
f 91/45/12 99/57/12 90/58/13
f 3/135/9 12/125/9 10/137/10
f 84/79/40 103/68/44 94/73/39
f 32/106/72 24/120/56 34/114/76
f 44/98/91 48/102/109 51/92/113
f 92/89/43 94/73/39 104/76/47
f 44/98/91 34/114/76 43/104/84
f 51/92/113 58/103/135 64/93/139
f 100/88/51 104/76/47 106/75/55
f 118/71/95 129/51/108 132/55/112
f 64/93/139 60/105/143 73/99/147
f 111/80/71 106/75/55 115/74/75
f 132/55/112 139/39/134 144/37/138
f 73/99/147 69/115/151 79/107/149
f 118/71/95 115/74/75 117/67/95
f 144/37/138 141/32/142 153/20/146
f 79/107/149 59/121/145 72/116/141
f 19/117/52 23/128/48 24/120/56
f 119/248/62 134/247/62 135/227/62
f 16/96/170 17/112/171 6/111/170
f 119/248/125 121/228/125 110/232/125
f 5/95/194 6/111/194 2/110/194
f 109/258/166 110/243/166 96/241/166
f 1/94/188 2/110/189 8/113/188
f 95/256/184 96/241/175 87/240/184
f 53/231/60 37/225/60 39/245/60
f 86/255/195 87/240/195 83/239/195
f 14/226/153 15/246/153 27/244/153
f 67/5/35 53/8/35 54/25/35
f 82/254/189 83/239/189 89/242/189
f 26/224/119 27/244/119 39/245/119
f 76/6/15 67/5/16 68/22/15
f 88/170/176 89/185/177 98/183/176
f 136/171/63 125/167/63 127/184/63
f 80/7/1 76/6/1 77/23/1
f 97/166/162 98/183/161 108/182/162
f 148/29/35 136/28/35 137/41/35
f 74/9/8 80/7/8 81/24/8
f 107/165/114 108/182/114 127/184/114
f 157/27/16 148/29/16 149/42/16
f 65/206/18 74/208/18 75/181/18
f 161/30/1 157/27/1 158/40/1
f 55/204/25 65/206/25 66/179/25
f 155/31/8 161/30/8 162/43/8
f 40/203/66 55/204/66 56/177/66
f 146/249/17 155/253/17 156/233/17
f 7/230/173 8/250/172 15/246/173
f 40/203/130 41/176/129 29/178/130
f 134/247/30 146/249/29 147/229/30
f 28/205/155 29/178/155 17/180/155
f 27/19/99 15/35/102 36/50/100
f 89/90/87 83/100/87 124/122/88
f 137/119/88 127/109/88 124/122/88
f 77/11/93 68/2/94 36/50/100
f 108/101/88 98/91/87 124/122/88
f 158/147/87 149/132/87 124/122/88
f 75/34/96 81/18/97 36/50/100
f 8/54/104 2/70/105 36/50/100
f 156/175/88 162/155/88 124/122/88
f 56/69/86 66/53/92 36/50/100
f 135/154/98 147/174/93 124/122/88
f 29/87/81 41/77/82 36/50/100
f 110/131/80 121/146/89 124/122/88
f 6/78/103 17/86/101 36/50/100
f 54/1/89 39/10/90 36/50/100
f 87/108/87 96/118/83 124/122/88
f 12/130/45 4/145/42 13/134/41
f 90/72/49 99/56/57 105/52/53
f 4/145/42 11/153/50 22/149/46
f 99/56/57 113/36/78 116/38/73
f 11/153/50 21/159/58 25/150/54
f 113/36/78 120/21/85 122/33/85
f 21/159/58 33/160/77 35/151/74
f 130/13/107 128/16/111 122/33/85
f 33/160/77 46/152/79 45/148/79
f 142/4/133 138/15/137 128/16/111
f 52/144/106 47/133/110 45/148/79
f 151/3/140 140/14/144 138/15/137
f 63/129/132 57/127/136 47/133/110
f 159/12/148 150/17/150 140/14/144
f 72/116/141 59/121/145 57/127/136
f 153/20/146 141/32/142 150/17/150
f 85/47/4 91/45/4 90/58/4
f 18/217/38 19/196/38 32/193/38
f 49/220/124 38/216/127 44/195/124
f 93/49/7 85/47/7 84/59/7
f 38/216/65 30/214/65 32/193/65
f 62/83/159 49/85/157 51/66/159
f 102/219/14 93/223/14 92/202/14
f 126/218/124 118/197/128 132/201/124
f 71/82/187 62/83/181 64/64/187
f 112/215/32 102/219/33 100/198/32
f 133/162/158 132/143/156 144/141/158
f 78/81/193 71/82/193 73/63/193
f 112/215/69 111/194/70 118/197/69
f 145/158/180 144/141/180 153/140/180
f 78/81/191 79/62/191 72/65/191
f 10/221/20 12/200/21 19/196/20
f 154/157/192 153/140/192 159/139/192
f 70/172/179 72/191/186 63/189/179
f 160/156/190 159/139/190 151/142/190
f 61/168/169 63/189/168 52/187/169
f 152/212/185 151/237/185 142/234/185
f 50/163/121 52/187/122 46/188/121
f 131/210/165 143/209/167 142/234/165
f 42/164/59 46/188/59 33/190/59
f 123/211/120 131/210/115 130/235/120
f 31/169/36 33/190/36 21/192/36
f 123/211/64 120/236/61 113/238/64
f 9/136/23 20/138/22 21/126/23
f 114/48/27 113/60/31 99/57/27
f 3/135/3 9/136/3 11/124/3
f 91/45/12 101/46/11 99/57/12
f 3/135/9 4/123/5 12/125/9
f 84/79/40 90/72/49 103/68/44
f 32/106/72 19/117/52 24/120/56
f 44/98/91 43/104/84 48/102/109
f 92/89/43 84/79/40 94/73/39
f 44/98/91 32/106/72 34/114/76
f 51/92/113 48/102/109 58/103/135
f 100/88/51 92/89/43 104/76/47
f 118/71/95 117/67/95 129/51/108
f 64/93/139 58/103/135 60/105/143
f 111/80/71 100/88/51 106/75/55
f 132/55/112 129/51/108 139/39/134
f 73/99/147 60/105/143 69/115/151
f 118/71/95 111/80/71 115/74/75
f 144/37/138 139/39/134 141/32/142
f 79/107/149 69/115/151 59/121/145
f 19/117/52 12/130/45 23/128/48
