o tendon
v -0.180823 1.379474 -0.615909
v -0.180822 1.367272 -0.615915
v -0.180822 1.368196 -0.611255
v -0.180822 1.368201 -0.620575
v -0.180822 1.370834 -0.607303
v -0.180822 1.370843 -0.624524
v -0.180822 1.371802 -0.615913
v -0.180822 1.372385 -0.612977
v -0.180822 1.372388 -0.618848
v -0.180822 1.374046 -0.610487
v -0.180822 1.374052 -0.621336
v -0.180822 1.374783 -0.604661
v -0.180822 1.374795 -0.627162
v -0.180822 1.376534 -0.608822
v -0.180822 1.376542 -0.622998
v -0.180822 1.379443 -0.603731
v -0.180822 1.379456 -0.628086
v -0.180822 1.37947 -0.608237
v -0.180822 1.379478 -0.623581
v -0.180822 1.382406 -0.608819
v -0.180822 1.382414 -0.622995
v -0.180822 1.384103 -0.604656
v -0.180822 1.384115 -0.627157
v -0.180822 1.384896 -0.610481
v -0.180822 1.384902 -0.621331
v -0.180822 1.385485 -0.607739
v -0.180822 1.385692 -0.623938
v -0.180822 1.38656 -0.612969
v -0.180822 1.386564 -0.618841
v -0.180822 1.386682 -0.606377
v -0.180822 1.386692 -0.625433
v -0.180822 1.386746 -0.623314
v -0.180822 1.386752 -0.608487
v -0.180822 1.387146 -0.615905
v -0.180822 1.3876 -0.622555
v -0.180822 1.387777 -0.609397
v -0.180822 1.388137 -0.607025
v -0.180822 1.388146 -0.624784
v -0.180822 1.389706 -0.607293
v -0.180822 1.389716 -0.624514
v -0.180822 1.392874 -0.607291
v -0.180822 1.392879 -0.615902
v -0.180822 1.392883 -0.624512
v -0.180822 1.39687 -0.607289
v -0.180822 1.396874 -0.615899
v -0.180822 1.396879 -0.62451
v -0.180822 1.506923 -0.60723
v -0.180822 1.506928 -0.615841
v -0.180822 1.506932 -0.624452
v -0.176671 1.367272 -0.615915
v -0.176671 1.368196 -0.611255
v -0.176671 1.368201 -0.620575
v -0.176671 1.370834 -0.607303
v -0.176671 1.370843 -0.624524
v -0.176671 1.374783 -0.604661
v -0.176671 1.374795 -0.627162
v -0.176671 1.379443 -0.603731
v -0.176671 1.379456 -0.628086
v -0.176671 1.379474 -0.615909
v -0.176671 1.384103 -0.604656
v -0.176671 1.384115 -0.627157
v -0.176671 1.386682 -0.606377
v -0.176671 1.386692 -0.625433
v -0.176671 1.387297 -0.615905
v -0.176671 1.388137 -0.607025
v -0.176671 1.388146 -0.624784
v -0.176671 1.389706 -0.607293
v -0.176671 1.389711 -0.615903
v -0.176671 1.389716 -0.624514
v -0.176671 1.392874 -0.607291
v -0.176671 1.392883 -0.624512
v -0.176671 1.39687 -0.607289
v -0.176671 1.396874 -0.615899
v -0.176671 1.396879 -0.62451
v -0.176671 1.506923 -0.60723
v -0.176671 1.506928 -0.615841
v -0.176671 1.506932 -0.624452
v -0.17667 1.392875 -0.61592
v -0.155404 1.367272 -0.615915
v -0.155404 1.368196 -0.611255
v -0.155404 1.368201 -0.620575
v -0.155404 1.370834 -0.607303
v -0.155404 1.370843 -0.624524
v -0.155404 1.374783 -0.604661
v -0.155404 1.374795 -0.627162
v -0.155404 1.379443 -0.603731
v -0.155404 1.379456 -0.628086
v -0.155404 1.379474 -0.615909
v -0.155404 1.384103 -0.604656
v -0.155404 1.384115 -0.627157
v -0.155404 1.386682 -0.606377
v -0.155404 1.386692 -0.625433
v -0.155404 1.387297 -0.615905
v -0.155404 1.388137 -0.607025
v -0.155404 1.388146 -0.624784
v -0.155404 1.389706 -0.607293
v -0.155404 1.389711 -0.615903
v -0.155404 1.389716 -0.624514
v -0.155404 1.392874 -0.607291
v -0.155404 1.392879 -0.615902
v -0.155404 1.392883 -0.624512
v -0.155404 1.39687 -0.607289
v -0.155404 1.396874 -0.615899
v -0.155404 1.396879 -0.62451
v -0.155404 1.506923 -0.60723
v -0.155404 1.506928 -0.615841
v -0.155404 1.506932 -0.624452
v -0.151253 1.367272 -0.615915
v -0.151253 1.368196 -0.611255
v -0.151253 1.368201 -0.620575
v -0.151253 1.370834 -0.607303
v -0.151253 1.370843 -0.624524
v -0.151253 1.371802 -0.615913
v -0.151253 1.372385 -0.612977
v -0.151253 1.372388 -0.618848
v -0.151253 1.374046 -0.610487
v -0.151253 1.374052 -0.621336
v -0.151253 1.374783 -0.604661
v -0.151253 1.374795 -0.627162
v -0.151253 1.376534 -0.608822
v -0.151253 1.376542 -0.622998
v -0.151253 1.379443 -0.603731
v -0.151253 1.379456 -0.628086
v -0.151253 1.37947 -0.608237
v -0.151253 1.379478 -0.623581
v -0.151253 1.382406 -0.608819
v -0.151253 1.382414 -0.622995
v -0.151253 1.384103 -0.604656
v -0.151253 1.384115 -0.627157
v -0.151253 1.384896 -0.610481
v -0.151253 1.384902 -0.621331
v -0.151253 1.385485 -0.607739
v -0.151253 1.385692 -0.623938
v -0.151253 1.38656 -0.612969
v -0.151253 1.386564 -0.618841
v -0.151253 1.386682 -0.606377
v -0.151253 1.386692 -0.625433
v -0.151253 1.386746 -0.623314
v -0.151253 1.386752 -0.608487
v -0.151253 1.387146 -0.615905
v -0.151253 1.3876 -0.622555
v -0.151253 1.387777 -0.609397
v -0.151253 1.388137 -0.607025
v -0.151253 1.388146 -0.624784
v -0.151253 1.389706 -0.607293
v -0.151253 1.389716 -0.624514
v -0.151253 1.392874 -0.607291
v -0.151253 1.392879 -0.615902
v -0.151253 1.392883 -0.624512
v -0.151253 1.39687 -0.607289
v -0.151253 1.396874 -0.615899
v -0.151253 1.396879 -0.62451
v -0.151253 1.506923 -0.60723
v -0.151253 1.506928 -0.615841
v -0.151253 1.506932 -0.624452
v -0.151252 1.379474 -0.615909
vt 0.0003 0.0874
vt 0.0081 0.0541
vt 0.0081 0.1208
vt 0.0226 0.1392
vt 0.0281 0.1496
vt 0.0303 0.0258
vt 0.0303 0.1609
vt 0.0303 0.1835
vt 0.0303 0.2121
vt 0.0303 0.9997
vt 0.0636 0.0069
vt 0.1028 0.0003
vt 0.1028 0.0876
vt 0.1028 0.1436
vt 0.1028 0.1609
vt 0.1028 0.1835
vt 0.1028 0.2121
vt 0.1028 0.9997
vt 0.142 0.0069
vt 0.1752 0.0258
vt 0.1752 0.1609
vt 0.1752 0.1835
vt 0.1752 0.2121
vt 0.1752 0.9997
vt 0.1775 0.1496
vt 0.1829 0.1392
vt 0.1974 0.0541
vt 0.1974 0.1208
vt 0.2052 0.0874
vt 0.2059 0.0874
vt 0.2137 0.0541
vt 0.2137 0.1208
vt 0.2282 0.1392
vt 0.2336 0.1496
vt 0.2359 0.0258
vt 0.2359 0.1609
vt 0.2359 0.1835
vt 0.2359 0.2121
vt 0.2359 0.9997
vt 0.2407 0.1321
vt 0.2438 0.0876
vt 0.246 0.1396
vt 0.2487 0.0666
vt 0.2487 0.1086
vt 0.2524 0.1457
vt 0.2627 0.0488
vt 0.2627 0.1264
vt 0.2691 0.0069
vt 0.2836 0.0369
vt 0.2836 0.1383
vt 0.3083 0.0003
vt 0.3083 0.0327
vt 0.3083 0.0876
vt 0.3083 0.1425
vt 0.3083 0.1835
vt 0.3083 0.2121
vt 0.3083 0.9997
vt 0.333 0.0369
vt 0.333 0.1383
vt 0.3475 0.0069
vt 0.354 0.0488
vt 0.354 0.1264
vt 0.3631 0.147
vt 0.368 0.0666
vt 0.368 0.1086
vt 0.3707 0.1397
vt 0.3729 0.0876
vt 0.377 0.1306
vt 0.3808 0.0258
vt 0.3808 0.1609
vt 0.3808 0.1835
vt 0.3808 0.2121
vt 0.3808 0.9997
vt 0.383 0.1496
vt 0.3885 0.1392
vt 0.403 0.0541
vt 0.403 0.1208
vt 0.4108 0.0874
vt 0.4114 0.0874
vt 0.4192 0.0541
vt 0.4192 0.1208
vt 0.4337 0.1392
vt 0.4392 0.1496
vt 0.4414 0.0258
vt 0.4414 0.1609
vt 0.4414 0.1835
vt 0.4414 0.2121
vt 0.4414 0.9997
vt 0.4452 0.1306
vt 0.4493 0.0876
vt 0.4515 0.1397
vt 0.4542 0.0666
vt 0.4542 0.1086
vt 0.4591 0.147
vt 0.4682 0.0488
vt 0.4682 0.1264
vt 0.4747 0.0069
vt 0.4892 0.0369
vt 0.4892 0.1383
vt 0.5139 0.0003
vt 0.5139 0.0327
vt 0.5139 0.0876
vt 0.5139 0.1425
vt 0.5139 0.1835
vt 0.5139 0.2121
vt 0.5139 0.9997
vt 0.5386 0.0369
vt 0.5386 0.1383
vt 0.5531 0.0069
vt 0.5595 0.0488
vt 0.5595 0.1264
vt 0.5698 0.1457
vt 0.5735 0.0666
vt 0.5735 0.1086
vt 0.5762 0.1396
vt 0.5784 0.0876
vt 0.5815 0.1321
vt 0.5863 0.0258
vt 0.5863 0.1609
vt 0.5863 0.1835
vt 0.5863 0.2121
vt 0.5863 0.9997
vt 0.5886 0.1496
vt 0.594 0.1392
vt 0.6085 0.0541
vt 0.6085 0.1208
vt 0.6163 0.0874
vt 0.617 0.0874
vt 0.6248 0.0541
vt 0.6248 0.1208
vt 0.6393 0.1392
vt 0.6447 0.1496
vt 0.647 0.0258
vt 0.647 0.1609
vt 0.647 0.1835
vt 0.647 0.2121
vt 0.647 0.9997
vt 0.6802 0.0069
vt 0.7194 0.0003
vt 0.7194 0.0876
vt 0.7194 0.1436
vt 0.7194 0.1609
vt 0.7194 0.2121
vt 0.7194 0.9997
vt 0.7196 0.1835
vt 0.7586 0.0069
vt 0.7919 0.0258
vt 0.7919 0.1609
vt 0.7919 0.1835
vt 0.7919 0.2121
vt 0.7919 0.9997
vt 0.7941 0.1496
vt 0.7996 0.1392
vt 0.8141 0.0541
vt 0.8141 0.1208
vt 0.8219 0.0874
vt 0.8225 0.0003
vt 0.8225 0.7419
vt 0.8225 0.7688
vt 0.8225 0.7902
vt 0.8225 0.8014
vt 0.8225 0.8128
vt 0.8225 0.8343
vt 0.8225 0.8679
vt 0.8225 0.8971
vt 0.8225 0.9174
vt 0.8574 0.0003
vt 0.8574 0.7419
vt 0.8574 0.7688
vt 0.8574 0.7902
vt 0.8574 0.8014
vt 0.8574 0.8128
vt 0.8574 0.8343
vt 0.8574 0.8679
vt 0.8574 0.8971
vt 0.8574 0.9174
vt 0.8581 0.0003
vt 0.8581 0.7419
vt 0.8581 0.7688
vt 0.8581 0.7902
vt 0.8581 0.8014
vt 0.8581 0.8128
vt 0.8581 0.8343
vt 0.8581 0.8679
vt 0.8581 0.8971
vt 0.8581 0.9174
vt 0.893 0.0003
vt 0.893 0.7419
vt 0.893 0.7688
vt 0.893 0.7902
vt 0.893 0.8014
vt 0.893 0.8128
vt 0.893 0.8343
vt 0.893 0.8679
vt 0.893 0.8971
vt 0.893 0.9174
vt 0.8936 0.0003
vt 0.8936 0.7419
vt 0.8936 0.7688
vt 0.8936 0.7902
vt 0.8936 0.8014
vt 0.8936 0.8128
vt 0.8936 0.8343
vt 0.8936 0.8679
vt 0.8936 0.8971
vt 0.9286 0.0003
vt 0.9286 0.7419
vt 0.9286 0.7688
vt 0.9286 0.7902
vt 0.9286 0.8014
vt 0.9286 0.8128
vt 0.9286 0.8343
vt 0.9286 0.8679
vt 0.9286 0.8971
vt 0.9292 0.0003
vt 0.9292 0.7419
vt 0.9292 0.7688
vt 0.9292 0.7902
vt 0.9292 0.8014
vt 0.9292 0.8128
vt 0.9292 0.8343
vt 0.9292 0.8679
vt 0.9292 0.8971
vt 0.9641 0.0003
vt 0.9641 0.7419
vt 0.9641 0.7688
vt 0.9641 0.7902
vt 0.9641 0.8014
vt 0.9641 0.8128
vt 0.9641 0.8343
vt 0.9641 0.8679
vt 0.9641 0.8971
vt 0.9648 0.0003
vt 0.9648 0.0243
vt 0.9648 0.0557
vt 0.9648 0.0897
vt 0.9648 0.1211
vt 0.9648 0.1452
vt 0.9648 0.1457
vt 0.9648 0.1698
vt 0.9648 0.2012
vt 0.9648 0.2352
vt 0.9648 0.2666
vt 0.9648 0.2907
vt 0.9648 0.2912
vt 0.9648 0.3528
vt 0.9648 0.4144
vt 0.9648 0.415
vt 0.9648 0.4766
vt 0.9648 0.5382
vt 0.9997 0.0003
vt 0.9997 0.0243
vt 0.9997 0.0557
vt 0.9997 0.0897
vt 0.9997 0.1211
vt 0.9997 0.1452
vt 0.9997 0.1457
vt 0.9997 0.1698
vt 0.9997 0.2012
vt 0.9997 0.2352
vt 0.9997 0.2666
vt 0.9997 0.2907
vt 0.9997 0.2912
vt 0.9997 0.3528
vt 0.9997 0.4144
vt 0.9997 0.415
vt 0.9997 0.4766
vt 0.9997 0.5382
vn -1.0 0.0 -0.0001
vn -1.0 0.0 0.0
vn -1.0 -0.0 0.0001
vn -1.0 0.0001 0.0
vn 0.0 -0.9978 -0.0666
vn 0.0 -0.9978 0.0656
vn 0.0 -0.9474 0.3202
vn 0.0 -0.947 -0.3212
vn 0.0 -0.8968 0.4425
vn 0.0 -0.8963 -0.4434
vn 0.0 -0.7527 0.6584
vn 0.0 -0.752 -0.6592
vn 0.0 -0.6592 0.752
vn 0.0 -0.6584 -0.7527
vn 0.0 -0.4435 0.8963
vn 0.0 -0.4425 -0.8968
vn 0.0 -0.3213 0.947
vn 0.0 -0.3202 -0.9474
vn 0.0 -0.0667 0.9978
vn 0.0 -0.0656 -0.9978
vn 0.0 -0.0006 1.0
vn 0.0 -0.0005 1.0
vn 0.0 0.0005 -1.0
vn 0.0 0.0006 -1.0
vn 0.0 0.0559 0.9984
vn 0.0 0.0571 -0.9984
vn 0.0 0.0657 0.9978
vn 0.0 0.0667 -0.9978
vn 0.0 0.1124 0.9937
vn 0.0 0.1136 -0.9935
vn 0.0 0.2496 0.9684
vn 0.0 0.2506 -0.9681
vn 0.0 0.3203 0.9473
vn 0.0 0.3212 -0.947
vn 0.0 0.3296 0.9441
vn 0.0 0.3305 -0.9438
vn 0.0 0.4425 0.8968
vn 0.0 0.4434 -0.8963
vn 0.0 0.4577 0.8891
vn 0.0 0.4585 -0.8887
vn 0.0 0.5073 0.8618
vn 0.0 0.5082 -0.8612
vn -0.0 1.0 0.0005
vn 0.0 1.0 0.0006
vn 1.0 -0.0001 0.0
vn 1.0 0.0 -0.0001
vn 1.0 0.0 0.0
vn 1.0 -0.0 0.0001
vn 1.0 0.0001 0.0
f 23/183/38 63/192/42 61/193/34
f 41/226/21 67/218/25 70/217/22
f 56/154/47 59/140/47 54/147/47
f 40/180/26 71/189/24 69/190/30
f 55/129/47 59/140/47 57/128/47
f 52/146/47 59/140/47 50/139/47
f 61/155/47 59/140/47 58/156/47
f 73/143/49 70/135/48 78/145/47
f 74/150/49 78/145/47 71/149/46
f 51/138/47 59/140/47 53/133/47
f 17/30/2 15/43/2 19/41/1
f 23/32/2 19/41/1 21/44/2
f 1/53/2 28/59/2 34/54/4
f 43/37/2 35/45/2 29/50/2
f 36/63/2 24/62/2 33/66/2
f 45/56/2 41/71/2 44/72/2
f 46/38/2 42/55/2 45/56/2
f 1/53/2 14/64/2 18/67/3
f 2/254/5 52/237/8 50/236/6
f 44/225/22 70/217/22 72/216/22
f 46/178/23 77/187/23 74/188/23
f 70/135/48 68/142/45 78/145/47
f 3/253/7 50/236/6 51/235/9
f 78/145/47 69/148/45 71/149/46
f 5/252/11 51/235/9 53/234/13
f 17/184/28 61/193/34 58/194/20
f 12/251/15 53/234/13 55/233/17
f 22/77/2 26/68/2 20/65/2
f 13/185/18 58/194/20 56/195/16
f 16/231/19 55/223/17 57/222/27
f 6/186/14 56/195/16 54/196/12
f 22/230/33 57/222/27 60/221/37
f 4/255/10 54/238/12 52/237/8
f 59/140/47 60/130/47 57/128/47
f 1/53/2 29/50/2 25/47/2
f 13/31/2 11/46/2 15/43/2
f 6/35/2 9/49/2 11/46/2
f 4/48/2 7/52/2 9/49/2
f 3/60/2 7/52/2 2/51/2
f 5/69/2 8/58/2 3/60/2
f 12/76/2 10/61/2 5/69/2
f 16/78/2 14/64/2 12/76/2
f 22/77/2 18/67/3 16/78/2
f 42/55/2 29/50/2 34/54/4
f 42/55/2 28/59/2 41/71/2
f 27/40/2 25/47/2 32/42/2
f 1/53/2 15/43/2 11/46/2
f 1/53/2 9/49/2 7/52/2
f 1/53/2 8/58/2 10/61/2
f 1/53/2 21/44/2 19/41/1
f 1/53/2 20/65/2 24/62/2
f 69/148/45 64/141/47 66/152/47
f 37/74/2 36/63/2 33/66/2
f 26/68/2 24/62/2 20/65/2
f 35/45/2 38/34/2 32/42/2
f 35/45/2 25/47/2 29/50/2
f 39/227/29 65/219/31 67/218/25
f 37/228/35 62/220/39 65/219/31
f 31/182/40 66/191/36 63/192/42
f 38/181/32 69/190/30 66/191/36
f 30/229/41 60/221/37 62/220/39
f 27/40/2 23/32/2 21/44/2
f 31/33/2 32/42/2 38/34/2
f 36/63/2 41/71/2 28/59/2
f 30/75/2 33/66/2 26/68/2
f 62/131/47 64/141/47 65/132/47
f 67/134/47 64/141/47 68/142/45
f 63/153/47 64/141/47 59/140/47
f 43/179/23 74/188/23 71/189/24
f 47/224/22 72/216/22 75/215/22
f 46/38/2 48/57/2 49/39/2
f 48/57/2 44/72/2 47/73/2
f 76/144/47 74/150/49 77/151/47
f 75/137/47 73/143/49 76/144/47
f 92/162/42 129/173/38 90/163/34
f 96/209/25 147/199/21 99/208/22
f 88/13/2 85/2/2 83/6/2
f 101/159/24 146/170/26 98/160/30
f 88/13/2 84/27/2 86/29/2
f 88/13/2 81/11/2 79/12/2
f 88/13/2 90/3/2 87/1/2
f 103/17/2 99/22/2 102/23/2
f 104/9/2 100/16/2 103/17/2
f 88/13/2 80/19/2 82/20/2
f 123/127/47 121/113/47 119/125/47
f 129/126/47 125/116/46 123/127/47
f 156/102/47 134/99/47 130/96/47
f 149/120/47 141/112/47 146/119/47
f 130/96/47 142/94/47 139/91/47
f 151/105/47 147/86/47 148/104/47
f 152/121/47 148/104/47 149/120/47
f 156/102/47 120/92/47 116/95/47
f 81/261/8 108/242/5 79/260/6
f 99/208/22 150/198/22 102/207/22
f 107/157/23 152/168/23 104/158/23
f 97/15/2 99/22/2 100/16/2
f 79/260/6 109/241/7 80/259/9
f 98/7/2 100/16/2 101/8/2
f 80/259/9 111/240/11 82/258/13
f 90/163/34 123/174/28 87/164/20
f 82/258/13 118/239/15 84/257/17
f 128/81/47 132/89/47 136/82/47
f 87/164/20 119/175/18 85/165/16
f 84/214/17 122/204/19 86/213/27
f 85/165/16 112/176/14 83/166/12
f 86/213/27 128/203/33 89/212/37
f 83/262/12 110/243/10 81/261/8
f 88/13/2 89/28/2 91/26/2
f 156/102/47 135/108/47 140/103/49
f 119/125/47 117/110/47 112/118/47
f 112/118/47 115/107/47 110/109/47
f 110/109/47 113/101/47 108/100/47
f 113/101/47 109/97/47 108/100/47
f 114/98/47 111/84/47 109/97/47
f 116/95/47 118/80/47 111/84/47
f 120/92/47 122/79/47 118/80/47
f 124/90/48 128/81/47 122/79/47
f 148/104/47 135/108/47 149/120/47
f 134/99/47 148/104/47 147/86/47
f 131/111/47 133/117/47 138/115/47
f 156/102/47 121/113/47 125/116/46
f 156/102/47 115/107/47 117/110/47
f 156/102/47 114/98/47 113/101/47
f 156/102/47 127/114/47 131/111/47
f 156/102/47 126/93/47 124/90/48
f 93/14/2 98/7/2 95/5/2
f 143/83/47 142/94/47 145/85/47
f 130/96/47 132/89/47 126/93/47
f 141/112/47 144/123/47 146/119/47
f 131/111/47 141/112/47 135/108/47
f 94/210/31 145/200/29 96/209/25
f 91/211/39 143/201/35 94/210/31
f 95/161/36 137/172/40 92/162/42
f 98/160/30 144/171/32 95/161/36
f 89/212/37 136/202/41 91/211/39
f 129/126/47 133/117/47 127/114/47
f 138/115/47 137/124/47 144/123/47
f 147/86/47 142/94/47 134/99/47
f 139/91/47 136/82/47 132/89/47
f 91/26/2 93/14/2 88/13/2
f 96/21/2 93/14/2 94/25/2
f 92/4/2 93/14/2 95/5/2
f 104/158/23 149/169/23 101/159/24
f 102/207/22 153/197/22 105/206/22
f 154/106/47 152/121/47 155/122/47
f 153/88/47 151/105/47 154/106/47
f 104/9/2 106/18/2 107/10/2
f 106/18/2 102/23/2 105/24/2
f 106/267/43 153/250/44 154/249/43
f 106/267/43 105/268/44 153/250/44
f 106/267/43 155/248/43 107/266/43
f 106/267/43 154/249/43 155/248/43
f 75/247/44 48/264/43 47/265/44
f 75/247/44 76/246/43 48/264/43
f 49/263/43 76/246/43 77/245/43
f 49/263/43 48/264/43 76/246/43
f 23/183/38 31/182/40 63/192/42
f 41/226/21 39/227/29 67/218/25
f 56/154/47 58/156/47 59/140/47
f 40/180/26 43/179/23 71/189/24
f 55/129/47 53/133/47 59/140/47
f 52/146/47 54/147/47 59/140/47
f 61/155/47 63/153/47 59/140/47
f 73/143/49 72/136/47 70/135/48
f 74/150/49 73/143/49 78/145/47
f 51/138/47 50/139/47 59/140/47
f 17/30/2 13/31/2 15/43/2
f 23/32/2 17/30/2 19/41/1
f 1/53/2 24/62/2 28/59/2
f 43/37/2 40/36/2 35/45/2
f 36/63/2 28/59/2 24/62/2
f 45/56/2 42/55/2 41/71/2
f 46/38/2 43/37/2 42/55/2
f 1/53/2 10/61/2 14/64/2
f 2/254/5 4/255/10 52/237/8
f 44/225/22 41/226/21 70/217/22
f 46/178/23 49/177/23 77/187/23
f 70/135/48 67/134/47 68/142/45
f 3/253/7 2/254/5 50/236/6
f 78/145/47 68/142/45 69/148/45
f 5/252/11 3/253/7 51/235/9
f 17/184/28 23/183/38 61/193/34
f 12/251/15 5/252/11 53/234/13
f 22/77/2 30/75/2 26/68/2
f 13/185/18 17/184/28 58/194/20
f 16/231/19 12/232/15 55/223/17
f 6/186/14 13/185/18 56/195/16
f 22/230/33 16/231/19 57/222/27
f 4/255/10 6/256/14 54/238/12
f 59/140/47 62/131/47 60/130/47
f 1/53/2 34/54/4 29/50/2
f 13/31/2 6/35/2 11/46/2
f 6/35/2 4/48/2 9/49/2
f 4/48/2 2/51/2 7/52/2
f 3/60/2 8/58/2 7/52/2
f 5/69/2 10/61/2 8/58/2
f 12/76/2 14/64/2 10/61/2
f 16/78/2 18/67/3 14/64/2
f 22/77/2 20/65/2 18/67/3
f 42/55/2 43/37/2 29/50/2
f 42/55/2 34/54/4 28/59/2
f 27/40/2 21/44/2 25/47/2
f 1/53/2 19/41/1 15/43/2
f 1/53/2 11/46/2 9/49/2
f 1/53/2 7/52/2 8/58/2
f 1/53/2 25/47/2 21/44/2
f 1/53/2 18/67/3 20/65/2
f 69/148/45 68/142/45 64/141/47
f 37/74/2 39/70/2 36/63/2
f 26/68/2 33/66/2 24/62/2
f 35/45/2 40/36/2 38/34/2
f 35/45/2 32/42/2 25/47/2
f 39/227/29 37/228/35 65/219/31
f 37/228/35 30/229/41 62/220/39
f 31/182/40 38/181/32 66/191/36
f 38/181/32 40/180/26 69/190/30
f 30/229/41 22/230/33 60/221/37
f 27/40/2 31/33/2 23/32/2
f 31/33/2 27/40/2 32/42/2
f 36/63/2 39/70/2 41/71/2
f 30/75/2 37/74/2 33/66/2
f 62/131/47 59/140/47 64/141/47
f 67/134/47 65/132/47 64/141/47
f 63/153/47 66/152/47 64/141/47
f 43/179/23 46/178/23 74/188/23
f 47/224/22 44/225/22 72/216/22
f 46/38/2 45/56/2 48/57/2
f 48/57/2 45/56/2 44/72/2
f 76/144/47 73/143/49 74/150/49
f 75/137/47 72/136/47 73/143/49
f 92/162/42 137/172/40 129/173/38
f 96/209/25 145/200/29 147/199/21
f 88/13/2 87/1/2 85/2/2
f 101/159/24 149/169/23 146/170/26
f 88/13/2 82/20/2 84/27/2
f 88/13/2 83/6/2 81/11/2
f 88/13/2 92/4/2 90/3/2
f 103/17/2 100/16/2 99/22/2
f 104/9/2 101/8/2 100/16/2
f 88/13/2 79/12/2 80/19/2
f 123/127/47 125/116/46 121/113/47
f 129/126/47 127/114/47 125/116/46
f 156/102/47 140/103/49 134/99/47
f 149/120/47 135/108/47 141/112/47
f 130/96/47 134/99/47 142/94/47
f 151/105/47 150/87/47 147/86/47
f 152/121/47 151/105/47 148/104/47
f 156/102/47 124/90/48 120/92/47
f 81/261/8 110/243/10 108/242/5
f 99/208/22 147/199/21 150/198/22
f 107/157/23 155/167/23 152/168/23
f 97/15/2 96/21/2 99/22/2
f 79/260/6 108/242/5 109/241/7
f 98/7/2 97/15/2 100/16/2
f 80/259/9 109/241/7 111/240/11
f 90/163/34 129/173/38 123/174/28
f 82/258/13 111/240/11 118/239/15
f 128/81/47 126/93/47 132/89/47
f 87/164/20 123/174/28 119/175/18
f 84/214/17 118/205/15 122/204/19
f 85/165/16 119/175/18 112/176/14
f 86/213/27 122/204/19 128/203/33
f 83/262/12 112/244/14 110/243/10
f 88/13/2 86/29/2 89/28/2
f 156/102/47 131/111/47 135/108/47
f 119/125/47 121/113/47 117/110/47
f 112/118/47 117/110/47 115/107/47
f 110/109/47 115/107/47 113/101/47
f 113/101/47 114/98/47 109/97/47
f 114/98/47 116/95/47 111/84/47
f 116/95/47 120/92/47 118/80/47
f 120/92/47 124/90/48 122/79/47
f 124/90/48 126/93/47 128/81/47
f 148/104/47 140/103/49 135/108/47
f 134/99/47 140/103/49 148/104/47
f 131/111/47 127/114/47 133/117/47
f 156/102/47 117/110/47 121/113/47
f 156/102/47 113/101/47 115/107/47
f 156/102/47 116/95/47 114/98/47
f 156/102/47 125/116/46 127/114/47
f 156/102/47 130/96/47 126/93/47
f 93/14/2 97/15/2 98/7/2
f 143/83/47 139/91/47 142/94/47
f 130/96/47 139/91/47 132/89/47
f 141/112/47 138/115/47 144/123/47
f 131/111/47 138/115/47 141/112/47
f 94/210/31 143/201/35 145/200/29
f 91/211/39 136/202/41 143/201/35
f 95/161/36 144/171/32 137/172/40
f 98/160/30 146/170/26 144/171/32
f 89/212/37 128/203/33 136/202/41
f 129/126/47 137/124/47 133/117/47
f 138/115/47 133/117/47 137/124/47
f 147/86/47 145/85/47 142/94/47
f 139/91/47 143/83/47 136/82/47
f 91/26/2 94/25/2 93/14/2
f 96/21/2 97/15/2 93/14/2
f 92/4/2 88/13/2 93/14/2
f 104/158/23 152/168/23 149/169/23
f 102/207/22 150/198/22 153/197/22
f 154/106/47 151/105/47 152/121/47
f 153/88/47 150/87/47 151/105/47
f 104/9/2 103/17/2 106/18/2
f 106/18/2 103/17/2 102/23/2
