o upperarm_inside
v -0.188308 1.634022 -0.805492
v -0.188308 1.697428 -0.853287
v -0.188308 1.701822 -0.856601
v -0.18755 1.630542 -0.810096
v -0.18755 1.693948 -0.857891
v -0.18755 1.698342 -0.861204
v -0.187547 1.637496 -0.800882
v -0.187547 1.700901 -0.848677
v -0.187547 1.705296 -0.85199
v -0.185327 1.627306 -0.81438
v -0.185327 1.690712 -0.862175
v -0.185327 1.695107 -0.865489
v -0.185321 1.640725 -0.796596
v -0.185321 1.704131 -0.844391
v -0.185321 1.708525 -0.847704
v -0.184502 1.705588 -0.859441
v -0.183874 1.702701 -0.863257
v -0.18387 1.708469 -0.855617
v -0.182031 1.700019 -0.866808
v -0.182025 1.711145 -0.852065
v -0.181787 1.624535 -0.818068
v -0.181787 1.687941 -0.865863
v -0.181787 1.692335 -0.869176
v -0.181777 1.643501 -0.792912
v -0.181777 1.706907 -0.840707
v -0.181777 1.711301 -0.84402
v -0.179096 1.697722 -0.869866
v -0.179087 1.713447 -0.84901
v -0.177175 1.62241 -0.820897
v -0.177175 1.685816 -0.868692
v -0.177175 1.69021 -0.872005
v -0.177165 1.645628 -0.790089
v -0.177165 1.709034 -0.837884
v -0.177165 1.713428 -0.841197
v -0.175272 1.695961 -0.872212
v -0.175263 1.71521 -0.846669
v -0.171801 1.621072 -0.822675
v -0.171801 1.684478 -0.87047
v -0.171801 1.688873 -0.873784
v -0.171788 1.646967 -0.788313
v -0.171788 1.710372 -0.836108
v -0.171788 1.714767 -0.839421
v -0.170816 1.694852 -0.873687
v -0.170804 1.716321 -0.845196
v -0.166037 1.620608 -0.823276
v -0.166037 1.634016 -0.805494
v -0.166037 1.647422 -0.787708
v -0.166037 1.684014 -0.871071
v -0.166037 1.688409 -0.874384
v -0.166037 1.694467 -0.874184
v -0.166037 1.705585 -0.859439
v -0.166037 1.710828 -0.835503
v -0.166037 1.715223 -0.838816
v -0.166037 1.716698 -0.844694
v -0.161271 1.716321 -0.845196
v -0.161259 1.694852 -0.873687
v -0.160287 1.646967 -0.788313
v -0.160287 1.710372 -0.836108
v -0.160287 1.714767 -0.839421
v -0.160274 1.621072 -0.822675
v -0.160274 1.684478 -0.87047
v -0.160274 1.688872 -0.873784
v -0.156812 1.71521 -0.846669
v -0.156803 1.695961 -0.872212
v -0.15491 1.645628 -0.790089
v -0.15491 1.709034 -0.837884
v -0.15491 1.713428 -0.841197
v -0.1549 1.62241 -0.820897
v -0.1549 1.685816 -0.868692
v -0.1549 1.69021 -0.872005
v -0.152988 1.713447 -0.84901
v -0.152979 1.697722 -0.869866
v -0.150298 1.643501 -0.792912
v -0.150298 1.706907 -0.840707
v -0.150298 1.711301 -0.84402
v -0.150288 1.624535 -0.818068
v -0.150288 1.687941 -0.865863
v -0.150288 1.692335 -0.869176
v -0.150049 1.711145 -0.852065
v -0.150044 1.700019 -0.866808
v -0.148204 1.708469 -0.855617
v -0.148201 1.702701 -0.863257
v -0.147573 1.705588 -0.859441
v -0.146754 1.640725 -0.796596
v -0.146754 1.704131 -0.844391
v -0.146754 1.708525 -0.847704
v -0.146748 1.627306 -0.81438
v -0.146748 1.690712 -0.862175
v -0.146748 1.695107 -0.865489
v -0.144528 1.637496 -0.800882
v -0.144528 1.700901 -0.848677
v -0.144528 1.705296 -0.85199
v -0.144525 1.630542 -0.810096
v -0.144525 1.693948 -0.857891
v -0.144525 1.698342 -0.861204
v -0.143767 1.634022 -0.805492
v -0.143767 1.697428 -0.853287
v -0.143767 1.701822 -0.856601
vt 0.0003 0.0003
vt 0.0003 0.6147
vt 0.0003 0.6573
vt 0.0003 0.8063
vt 0.0003 0.8512
vt 0.0118 0.763
vt 0.0119 0.8947
vt 0.0319 0.0004
vt 0.0319 0.6148
vt 0.0319 0.6574
vt 0.0342 0.724
vt 0.0342 0.9337
vt 0.0658 0.6922
vt 0.0658 0.9655
vt 0.0707 0.0004
vt 0.0707 0.6148
vt 0.0707 0.6574
vt 0.1045 0.6697
vt 0.1045 0.988
vt 0.1138 0.0003
vt 0.1138 0.6147
vt 0.1138 0.6573
vt 0.1477 0.658
vt 0.1477 0.9997
vt 0.1586 0.0004
vt 0.1586 0.6148
vt 0.1586 0.6574
vt 0.1701 0.8288
vt 0.1925 0.658
vt 0.1925 0.9997
vt 0.2018 0.0004
vt 0.2018 0.6148
vt 0.2018 0.6574
vt 0.2357 0.6696
vt 0.2357 0.9881
vt 0.2405 0.0003
vt 0.2405 0.6147
vt 0.2405 0.6573
vt 0.2721 0.0003
vt 0.2721 0.6147
vt 0.2721 0.6573
vt 0.2727 0.0003
vt 0.2727 0.0429
vt 0.2727 0.6573
vt 0.2744 0.6921
vt 0.2744 0.9656
vt 0.3044 0.0003
vt 0.3044 0.0429
vt 0.3044 0.6573
vt 0.306 0.7239
vt 0.306 0.9338
vt 0.3284 0.7629
vt 0.3284 0.8948
vt 0.34 0.8064
vt 0.34 0.8513
vt 0.3406 0.7811
vt 0.3406 0.8183
vt 0.3431 0.0003
vt 0.3431 0.0429
vt 0.3431 0.6573
vt 0.3454 0.6948
vt 0.3454 0.9045
vt 0.3501 0.745
vt 0.3501 0.8542
vt 0.3687 0.7127
vt 0.3687 0.8866
vt 0.377 0.663
vt 0.377 0.9363
vt 0.3863 0.0003
vt 0.3863 0.0429
vt 0.3863 0.6573
vt 0.3949 0.6863
vt 0.3949 0.913
vt 0.4269 0.6677
vt 0.427 0.9316
vt 0.4309 0.0003
vt 0.4309 0.0429
vt 0.4309 0.6573
vt 0.4628 0.658
vt 0.4628 0.9413
vt 0.474 0.0003
vt 0.474 0.0429
vt 0.474 0.6573
vt 0.4814 0.7997
vt 0.4999 0.658
vt 0.4999 0.9413
vt 0.5128 0.0003
vt 0.5128 0.0429
vt 0.5128 0.6573
vt 0.5357 0.6676
vt 0.5358 0.9317
vt 0.5444 0.0003
vt 0.5444 0.0429
vt 0.5444 0.6573
vt 0.545 0.0003
vt 0.545 0.0429
vt 0.545 0.6573
vt 0.5678 0.6863
vt 0.5678 0.913
vt 0.5837 0.0003
vt 0.5837 0.0429
vt 0.5837 0.6573
vt 0.5857 0.6629
vt 0.5857 0.9364
vt 0.594 0.7127
vt 0.5941 0.8866
vt 0.6126 0.745
vt 0.6126 0.8543
vt 0.6173 0.6947
vt 0.6173 0.9046
vt 0.6222 0.781
vt 0.6222 0.8183
vt 0.6269 0.0003
vt 0.6269 0.0429
vt 0.6269 0.6573
vt 0.6434 0.658
vt 0.6434 0.7854
vt 0.6435 0.6969
vt 0.6435 0.7404
vt 0.6435 0.8288
vt 0.6435 0.8678
vt 0.6717 0.0003
vt 0.6717 0.0429
vt 0.6717 0.6573
vt 0.6797 0.6759
vt 0.6797 0.7815
vt 0.6798 0.7082
vt 0.6798 0.7442
vt 0.6798 0.8176
vt 0.6798 0.8499
vt 0.6804 0.658
vt 0.6804 0.6969
vt 0.6804 0.7404
vt 0.6804 0.7854
vt 0.6804 0.8289
vt 0.6804 0.8678
vt 0.7149 0.0004
vt 0.7149 0.0429
vt 0.7149 0.6573
vt 0.7166 0.7082
vt 0.7167 0.6759
vt 0.7167 0.7442
vt 0.7167 0.7816
vt 0.7167 0.8176
vt 0.7167 0.8499
vt 0.7173 0.7082
vt 0.7173 0.7443
vt 0.7173 0.7816
vt 0.7173 0.8176
vt 0.7173 0.8499
vt 0.7174 0.6759
vt 0.7536 0.0004
vt 0.7536 0.043
vt 0.7536 0.6574
vt 0.7536 0.658
vt 0.7536 0.6969
vt 0.7536 0.7404
vt 0.7536 0.7855
vt 0.7536 0.8289
vt 0.7536 0.8679
vt 0.7542 0.0004
vt 0.7542 0.6148
vt 0.7542 0.6574
vt 0.7929 0.0004
vt 0.7929 0.6148
vt 0.7929 0.6574
vt 0.8362 0.0004
vt 0.8362 0.6148
vt 0.8362 0.6574
vt 0.8809 0.0003
vt 0.8809 0.6147
vt 0.8809 0.6573
vt 0.9241 0.0003
vt 0.9241 0.6147
vt 0.9241 0.6573
vt 0.9628 0.0003
vt 0.9628 0.6147
vt 0.9628 0.6573
vt 0.9634 0.0003
vt 0.9634 0.0392
vt 0.9634 0.0827
vt 0.9634 0.1276
vt 0.9634 0.171
vt 0.9634 0.21
vt 0.9997 0.0182
vt 0.9997 0.0505
vt 0.9997 0.0866
vt 0.9997 0.1238
vt 0.9997 0.1597
vt 0.9997 0.1921
vn -1.0 0.0001 0.0002
vn -0.966 -0.1557 -0.2065
vn -0.9658 0.156 0.2069
vn -0.9537 -0.181 -0.2402
vn -0.9535 0.1814 0.2406
vn -0.9119 0.1224 -0.3918
vn -0.9118 0.4105 -0.0096
vn -0.8973 0.3525 -0.2658
vn -0.866 -0.301 -0.3992
vn -0.866 -0.3009 -0.3992
vn -0.8658 0.3013 0.3996
vn -0.8447 -0.117 -0.5224
vn -0.843 0.3238 0.4296
vn -0.8187 0.5478 0.1725
vn -0.7374 -0.4066 -0.5394
vn -0.7071 -0.4257 -0.5647
vn -0.7067 0.4259 0.565
vn -0.675 0.4441 0.5892
vn -0.6698 0.6657 0.329
vn -0.6632 -0.137 -0.7358
vn -0.5374 -0.5076 -0.6734
vn -0.5023 0.6171 -0.6058
vn -0.5022 0.7519 -0.427
vn -0.4999 -0.5214 -0.6916
vn -0.4995 0.5215 0.6918
vn -0.4913 0.4871 -0.7221
vn -0.4753 0.7564 0.4493
vn -0.4671 -0.2266 -0.8547
vn -0.4611 0.5341 0.7086
vn -0.4562 0.8279 -0.3262
vn -0.4301 0.7206 -0.5438
vn -0.3791 0.8941 -0.2384
vn -0.3483 0.4567 -0.8186
vn -0.2763 0.946 -0.1695
vn -0.2588 -0.5815 -0.7713
vn -0.2588 -0.5814 -0.7713
vn -0.2586 0.5815 0.7714
vn -0.2487 0.8137 0.5254
vn -0.238 0.4102 -0.8804
vn -0.2319 -0.1693 -0.9579
vn -0.2161 0.5877 0.7797
vn -0.1547 0.9801 -0.1242
vn -0.1107 0.4709 -0.8752
vn -0.0009 -0.799 0.6013
vn -0.0006 -0.7986 0.6019
vn -0.0005 -0.7988 0.6016
vn -0.0004 -0.7985 0.602
vn -0.0002 -0.7986 0.6018
vn -0.0002 -0.7982 0.6024
vn -0.0001 -0.7986 0.6018
vn -0.0001 -0.7986 0.6019
vn -0.0001 -0.7979 0.6028
vn 0.0 -0.7986 0.6019
vn 0.0 -0.7985 0.6019
vn 0.0 -0.7985 0.6021
vn 0.0 -0.6019 -0.7985
vn -0.0 -0.4107 -0.9118
vn 0.0 0.3164 -0.9486
vn 0.0 0.6019 0.7985
vn 0.0 0.7635 0.6458
vn -0.0 0.7985 -0.6019
vn 0.0 0.9991 -0.043
vn 0.0001 -0.7986 0.6018
vn 0.0001 -0.7986 0.6019
vn 0.0001 -0.7979 0.6028
vn 0.0002 -0.7986 0.6018
vn 0.0002 -0.7982 0.6024
vn 0.0004 -0.7985 0.602
vn 0.0005 -0.7988 0.6016
vn 0.0006 -0.7986 0.6019
vn 0.0009 -0.799 0.6013
vn 0.1107 0.4709 -0.8752
vn 0.1547 0.9801 -0.1242
vn 0.2161 0.5877 0.7797
vn 0.2319 -0.1693 -0.9579
vn 0.238 0.4102 -0.8804
vn 0.2487 0.8137 0.5254
vn 0.2586 0.5815 0.7714
vn 0.2588 -0.5815 -0.7713
vn 0.2588 -0.5814 -0.7713
vn 0.2763 0.946 -0.1695
vn 0.3483 0.4567 -0.8186
vn 0.3791 0.8941 -0.2383
vn 0.4301 0.7206 -0.5439
vn 0.4562 0.8279 -0.3262
vn 0.4611 0.5341 0.7086
vn 0.4672 -0.2266 -0.8546
vn 0.4753 0.7564 0.4493
vn 0.4913 0.4871 -0.7221
vn 0.4995 0.5215 0.6918
vn 0.4999 -0.5214 -0.6916
vn 0.5023 0.6171 -0.6058
vn 0.5023 0.7519 -0.427
vn 0.5374 -0.5076 -0.6734
vn 0.6632 -0.137 -0.7358
vn 0.6698 0.6657 0.329
vn 0.675 0.4441 0.5892
vn 0.7067 0.4259 0.565
vn 0.7071 -0.4257 -0.5647
vn 0.7374 -0.4066 -0.5394
vn 0.8187 0.5477 0.1725
vn 0.843 0.3238 0.4296
vn 0.8447 -0.117 -0.5224
vn 0.8658 0.3013 0.3996
vn 0.866 -0.301 -0.3992
vn 0.866 -0.3009 -0.3992
vn 0.8973 0.3524 -0.2658
vn 0.9118 0.4105 -0.0095
vn 0.9119 0.1224 -0.3918
vn 0.9535 0.1814 0.2406
vn 0.9537 -0.181 -0.2402
vn 0.9658 0.156 0.2069
vn 0.966 -0.1557 -0.2065
vn 1.0 0.0001 0.0002
f 93/170/111 88/174/105 94/171/113
f 51/84/61 80/90/89 72/98/82
f 64/130/76 62/120/75 56/129/72
f 15/159/14 28/150/32 20/149/30
f 9/158/7 20/149/30 18/148/23
f 80/140/89 78/131/95 72/141/82
f 17/146/22 3/157/8 16/147/31
f 42/183/38 54/188/62 44/189/42
f 55/187/73 67/180/88 63/186/81
f 3/157/8 18/148/23 16/147/31
f 19/151/26 6/156/6 17/146/22
f 71/65/83 86/67/101 79/72/85
f 54/188/62 59/181/77 55/187/73
f 50/126/58 39/119/40 43/128/43
f 98/134/107 82/142/92 83/143/84
f 62/120/75 50/126/58 56/129/72
f 72/98/82 70/109/87 64/105/76
f 39/119/40 35/127/39 43/128/43
f 81/144/93 98/134/107 83/143/84
f 79/145/85 92/135/108 81/144/93
f 23/110/20 19/99/26 27/106/33
f 26/68/19 36/66/34 28/73/32
f 95/133/109 80/140/89 82/142/92
f 34/184/27 44/189/42 36/190/34
f 31/118/28 27/125/33 35/127/39
f 24/94/18 33/88/25 25/93/17
f 21/36/15 11/40/9 22/37/16
f 37/25/36 30/32/24 38/26/35
f 96/167/114 94/171/113 97/168/114
f 66/59/90 73/49/97 74/48/98
f 52/77/59 57/71/74 58/70/78
f 74/48/98 84/44/102 85/43/104
f 11/153/9 4/139/4 5/138/2
f 1/124/1 8/114/3 2/123/1
f 58/70/78 65/60/86 66/59/90
f 5/138/2 1/124/1 2/123/1
f 7/115/5 14/101/11 8/114/3
f 13/102/13 25/96/17 14/101/11
f 29/31/21 22/37/16 30/32/24
f 32/89/29 41/82/37 33/88/25
f 63/186/81 75/179/96 71/185/83
f 35/108/39 51/84/61 43/112/43
f 64/105/76 51/84/61 72/98/82
f 20/75/30 51/84/61 18/80/23
f 51/84/61 16/86/31 18/80/23
f 51/84/61 54/57/62 55/56/73
f 51/84/61 63/63/81 71/65/83
f 19/99/26 51/84/61 27/106/33
f 51/84/61 79/72/85 81/74/93
f 50/111/58 51/84/61 56/107/72
f 83/79/84 51/84/61 81/74/93
f 51/84/61 36/66/34 44/64/42
f 33/88/25 42/81/38 34/87/27
f 30/32/24 23/38/20 31/33/28
f 70/10/87 61/16/79 62/17/75
f 14/101/11 26/95/19 15/100/14
f 8/114/3 15/100/14 9/113/7
f 89/175/103 77/177/99 78/178/95
f 6/137/6 2/123/1 3/122/8
f 59/69/77 66/59/90 67/58/88
f 2/123/1 9/113/7 3/122/8
f 12/152/12 5/138/2 6/137/6
f 75/47/96 85/43/104 86/42/101
f 53/76/60 58/70/78 59/69/77
f 67/58/88 74/48/98 75/47/96
f 49/22/57 38/26/35 39/27/40
f 97/168/114 95/172/109 98/169/107
f 61/16/79 49/22/57 62/17/75
f 78/3/95 69/9/91 70/10/87
f 38/26/35 31/33/28 39/27/40
f 92/166/108 97/168/114 98/169/107
f 86/163/101 91/165/112 92/166/108
f 22/37/16 12/41/12 23/38/20
f 25/93/17 34/87/27 26/92/19
f 94/171/113 89/175/103 95/172/109
f 85/162/104 90/164/110 91/165/112
f 91/165/112 96/167/114 97/168/114
f 77/2/99 68/8/94 69/9/91
f 60/15/80 48/21/56 61/16/79
f 48/21/56 37/25/36 38/26/35
f 40/83/41 52/77/59 41/82/37
f 88/174/105 76/176/100 77/177/99
f 69/9/91 60/15/80 61/16/79
f 41/82/37 53/76/60 42/81/38
f 93/30/65 96/24/67 46/28/54
f 96/24/67 90/19/66 46/28/54
f 90/19/66 84/14/63 46/28/54
f 84/14/63 73/12/64 46/28/54
f 73/12/64 65/7/53 46/28/54
f 65/7/53 57/5/64 46/28/54
f 57/5/64 47/4/53 46/28/54
f 47/4/53 40/6/51 46/28/54
f 40/6/51 32/11/53 46/28/54
f 32/11/53 24/13/51 46/28/54
f 24/13/51 13/18/50 46/28/54
f 13/18/50 7/23/48 46/28/54
f 7/23/48 1/29/49 46/28/54
f 1/29/49 4/34/52 46/28/54
f 4/34/52 10/45/68 46/28/54
f 10/45/68 21/50/71 46/28/54
f 21/50/71 29/52/69 46/28/54
f 29/52/69 37/54/45 46/28/54
f 37/54/45 45/55/55 46/28/54
f 45/55/55 60/53/70 46/28/54
f 60/53/70 68/51/46 46/28/54
f 68/51/46 76/46/44 46/28/54
f 76/46/44 87/35/47 46/28/54
f 87/35/47 93/30/65 46/28/54
f 93/170/111 87/173/106 88/174/105
f 51/84/61 82/85/92 80/90/89
f 64/130/76 70/121/87 62/120/75
f 15/159/14 26/160/19 28/150/32
f 9/158/7 15/159/14 20/149/30
f 80/140/89 89/132/103 78/131/95
f 17/146/22 6/156/6 3/157/8
f 42/183/38 53/182/60 54/188/62
f 55/187/73 59/181/77 67/180/88
f 3/157/8 9/158/7 18/148/23
f 19/151/26 12/155/12 6/156/6
f 71/65/83 75/61/96 86/67/101
f 54/188/62 53/182/60 59/181/77
f 50/126/58 49/117/57 39/119/40
f 98/134/107 95/133/109 82/142/92
f 62/120/75 49/117/57 50/126/58
f 72/98/82 78/103/95 70/109/87
f 39/119/40 31/118/28 35/127/39
f 81/144/93 92/135/108 98/134/107
f 79/145/85 86/136/101 92/135/108
f 23/110/20 12/104/12 19/99/26
f 26/68/19 34/62/27 36/66/34
f 95/133/109 89/132/103 80/140/89
f 34/184/27 42/183/38 44/189/42
f 31/118/28 23/116/20 27/125/33
f 24/94/18 32/89/29 33/88/25
f 21/36/15 10/39/10 11/40/9
f 37/25/36 29/31/21 30/32/24
f 96/167/114 93/170/111 94/171/113
f 66/59/90 65/60/86 73/49/97
f 52/77/59 47/78/59 57/71/74
f 74/48/98 73/49/97 84/44/102
f 11/153/9 10/154/10 4/139/4
f 1/124/1 7/115/5 8/114/3
f 58/70/78 57/71/74 65/60/86
f 5/138/2 4/139/4 1/124/1
f 7/115/5 13/102/13 14/101/11
f 13/102/13 24/97/18 25/96/17
f 29/31/21 21/36/15 22/37/16
f 32/89/29 40/83/41 41/82/37
f 63/186/81 67/180/88 75/179/96
f 35/108/39 27/106/33 51/84/61
f 64/105/76 56/107/72 51/84/61
f 20/75/30 28/73/32 51/84/61
f 51/84/61 17/91/22 16/86/31
f 51/84/61 44/64/42 54/57/62
f 51/84/61 55/56/73 63/63/81
f 19/99/26 17/91/22 51/84/61
f 51/84/61 71/65/83 79/72/85
f 50/111/58 43/112/43 51/84/61
f 83/79/84 82/85/92 51/84/61
f 51/84/61 28/73/32 36/66/34
f 33/88/25 41/82/37 42/81/38
f 30/32/24 22/37/16 23/38/20
f 70/10/87 69/9/91 61/16/79
f 14/101/11 25/96/17 26/95/19
f 8/114/3 14/101/11 15/100/14
f 89/175/103 88/174/105 77/177/99
f 6/137/6 5/138/2 2/123/1
f 59/69/77 58/70/78 66/59/90
f 2/123/1 8/114/3 9/113/7
f 12/152/12 11/153/9 5/138/2
f 75/47/96 74/48/98 85/43/104
f 53/76/60 52/77/59 58/70/78
f 67/58/88 66/59/90 74/48/98
f 49/22/57 48/21/56 38/26/35
f 97/168/114 94/171/113 95/172/109
f 61/16/79 48/21/56 49/22/57
f 78/3/95 77/2/99 69/9/91
f 38/26/35 30/32/24 31/33/28
f 92/166/108 91/165/112 97/168/114
f 86/163/101 85/162/104 91/165/112
f 22/37/16 11/40/9 12/41/12
f 25/93/17 33/88/25 34/87/27
f 94/171/113 88/174/105 89/175/103
f 85/162/104 84/161/102 90/164/110
f 91/165/112 90/164/110 96/167/114
f 77/2/99 76/1/100 68/8/94
f 60/15/80 45/20/56 48/21/56
f 48/21/56 45/20/56 37/25/36
f 40/83/41 47/78/59 52/77/59
f 88/174/105 87/173/106 76/176/100
f 69/9/91 68/8/94 60/15/80
f 41/82/37 52/77/59 53/76/60
