mtllib Olli_Bus.mtl
o Olli_Chasses
v  -23.1338 5.9423 27.4355
v  -0.0049 5.9404 48.2979
v  -0.0048 5.9413 38.0835
v  23.1241 5.9413 38.0835
v  23.1241 5.9404 48.2979
v  -0.0048 5.9493 -48.4726
v  -0.0048 5.9483 -38.2582
v  -23.1338 5.9483 -38.2583
v  -23.1338 5.9493 -48.4726
v  -30.1030 6.1130 -0.0874
v  -30.1030 8.9649 -0.0873
v  -30.1030 8.9675 -27.6102
v  -30.1030 6.1156 -27.6103
v  29.3142 6.1130 -0.0873
v  29.3142 8.9650 -0.0872
v  29.3142 8.9624 27.4357
v  29.3142 6.1105 27.4356
v  -0.0049 6.1086 48.4534
v  -0.0048 8.9605 48.4536
v  -23.1338 8.9605 48.4535
v  -23.1338 6.1086 48.4534
v  -23.3675 6.1095 38.0835
v  -23.3675 8.9614 38.0836
v  -23.3675 8.9624 27.8692
v  -23.3675 6.1105 27.8691
v  23.3578 6.1095 38.0835
v  23.3578 8.9614 38.0836
v  23.3578 8.9605 48.2980
v  23.3578 6.1086 48.2979
v  -0.0048 6.1175 -48.6282
v  -0.0048 8.9694 -48.6281
v  23.1242 8.9694 -48.6280
v  23.1242 6.1175 -48.6282
v  23.3578 6.1165 -38.2582
v  23.3578 8.9685 -38.2581
v  23.3578 8.9675 -28.0437
v  23.3578 6.1156 -28.0438
v  -23.3675 6.1165 -38.2583
v  -23.3675 8.9684 -38.2582
v  -23.3675 8.9694 -48.4725
v  -23.3675 6.1175 -48.4726
v  -23.3675 5.9474 -27.6103
v  -23.3675 5.9448 -0.0874
v  -30.1030 5.9448 -0.0874
v  -30.1030 5.9474 -27.6103
v  -23.3675 6.1105 27.7136
v  -23.3675 8.9624 27.7137
v  -30.1030 8.9624 27.7137
v  -30.1030 6.1105 27.7136
v  -23.3675 8.9675 -27.8882
v  -23.3675 6.1156 -27.8883
v  -30.1030 6.1156 -27.8883
v  -30.1030 8.9675 -27.8882
v  23.4620 5.9448 -0.0873
v  26.3360 5.9448 -0.0874
v  26.3360 5.9423 27.4356
v  23.4620 5.9423 27.4356
v  26.3360 8.9675 -27.8882
v  26.3360 6.1156 -27.8883
v  23.4620 6.1156 -27.8883
v  23.4620 8.9675 -27.8882
v  26.3360 6.1105 27.7136
v  26.3360 8.9624 27.7137
v  23.4620 8.9624 27.7137
v  23.4620 6.1105 27.7136
v  -23.1338 5.9474 -27.8883
v  -0.0048 5.9474 -27.8883
v  -0.0048 5.9474 -27.6103
v  -23.1338 5.9474 -27.6103
v  23.1241 5.9423 27.7136
v  -0.0048 5.9423 27.7136
v  23.1241 5.9423 27.4356
v  -30.1030 8.9624 27.4357
v  -30.1030 6.1105 27.4356
v  29.3142 6.1156 -27.8883
v  29.3142 8.9675 -27.8882
v  29.3142 8.9675 -27.6102
v  29.3142 6.1156 -27.6103
v  29.3142 8.9624 27.7137
v  29.3142 6.1105 27.7136
v  -23.3675 5.9423 27.4355
v  -23.3675 5.9423 27.7136
v  -30.1030 5.9423 27.7136
v  -30.1030 5.9423 27.4356
v  -30.1030 5.9474 -27.8883
v  -23.3675 5.9474 -27.8883
v  23.4620 5.9474 -27.8883
v  26.3360 5.9474 -27.8883
v  26.3360 5.9474 -27.6103
v  23.4620 5.9474 -27.6103
v  29.2100 5.9423 27.7136
v  26.3360 5.9423 27.7136
v  29.2100 5.9423 27.4356
v  23.1242 5.9448 -0.0873
v  23.3578 5.9448 -0.0873
v  23.3578 5.9423 27.4356
v  -23.3675 5.9404 48.2979
v  -23.3675 5.9413 38.0835
v  -23.1338 5.9413 38.0835
v  -23.1338 5.9404 48.2979
v  23.3578 5.9423 27.8691
v  23.3578 5.9413 38.0835
v  23.1241 5.9423 27.8691
v  23.3578 5.9493 -48.4726
v  23.3578 5.9483 -38.2582
v  23.1242 5.9483 -38.2582
v  23.1242 5.9493 -48.4726
v  -23.3675 5.9474 -28.0439
v  -23.3675 5.9483 -38.2583
v  -23.1338 5.9474 -28.0439
v  23.3578 6.1086 48.4535
v  23.3578 8.9605 48.4536
v  23.1241 8.9605 48.4536
v  23.1241 6.1086 48.4535
v  -23.3675 8.9605 48.4535
v  -23.3675 6.1086 48.4534
v  -23.3675 6.1175 -48.6282
v  -23.3675 8.9694 -48.6281
v  -23.1338 8.9694 -48.6281
v  -23.1338 6.1175 -48.6282
v  23.3578 8.9694 -48.6280
v  23.3578 6.1175 -48.6282
v  23.1242 5.9474 -27.8883
v  23.3578 5.9474 -27.8883
v  23.3578 5.9474 -27.6103
v  23.1242 5.9474 -27.6103
v  -23.1338 5.9423 27.7136
v  23.3578 5.9423 27.7136
v  -0.0048 5.9423 27.8691
v  23.1241 5.9404 48.4535
v  -0.0049 5.9404 48.4534
v  -23.3675 8.9605 48.2980
v  -23.3675 6.1086 48.2979
v  23.3578 6.1105 27.7136
v  23.3578 8.9624 27.7137
v  23.3578 8.9624 27.8693
v  23.3578 6.1105 27.8691
v  -23.3675 5.9423 27.8691
v  -23.1338 5.9423 27.8691
v  -23.1338 5.9404 48.4534
v  -23.3675 5.9404 48.4534
v  23.3578 5.9404 48.2979
v  23.3578 5.9404 48.4535
v  -0.0048 5.9474 -28.0439
v  -23.1338 5.9493 -48.6282
v  -0.0048 5.9493 -48.6282
v  23.3578 8.9694 -48.4725
v  23.3578 6.1175 -48.4726
v  23.3578 8.9675 -27.8882
v  23.3578 6.1156 -27.8883
v  -23.3675 8.9675 -28.0438
v  -23.3675 6.1156 -28.0439
v  23.3578 5.9474 -28.0438
v  23.1242 5.9474 -28.0438
v  23.1242 5.9493 -48.6282
v  23.3578 5.9493 -48.6282
v  -23.3675 5.9493 -48.4726
v  -23.3675 5.9493 -48.6282
v  29.2100 5.9448 -0.0874
v  29.3142 5.9448 -0.0874
v  29.3142 5.9423 27.4356
v  29.2100 6.1156 -27.8883
v  29.2100 8.9675 -27.8882
v  29.2100 8.9624 27.7137
v  29.2100 6.1105 27.7136
v  29.2100 5.9474 -27.8883
v  29.3142 5.9474 -27.8883
v  29.3142 5.9474 -27.6103
v  29.2100 5.9474 -27.6103
v  23.4620 5.9423 27.7136
v  29.3142 5.9423 27.7136
v  -30.1030 9.1331 -0.0873
v  -30.1030 9.1357 -27.6102
v  29.3142 9.1332 -0.0872
v  29.3142 9.1306 27.4357
v  -0.0048 9.1287 48.4536
v  -23.1338 9.1287 48.4536
v  -23.3675 9.1297 38.0836
v  -23.3675 9.1306 27.8692
v  23.3578 9.1297 38.0836
v  23.3578 9.1287 48.2980
v  -0.0048 9.1376 -48.6281
v  23.1242 9.1376 -48.6280
v  23.3578 9.1367 -38.2581
v  23.3578 9.1357 -28.0437
v  -23.3675 9.1367 -38.2581
v  -23.3675 9.1376 -48.4725
v  -23.3675 9.1306 27.7137
v  -30.1030 9.1306 27.7137
v  -30.1030 9.1357 -27.8882
v  -23.3675 9.1357 -27.8882
v  23.4620 9.1357 -27.8882
v  26.3360 9.1357 -27.8882
v  26.3360 9.1306 27.7137
v  23.4620 9.1306 27.7137
v  -30.1030 9.1306 27.4357
v  29.3142 9.1357 -27.8882
v  29.3142 9.1357 -27.6102
v  29.3142 9.1306 27.7137
v  23.3578 9.1287 48.4536
v  23.1241 9.1287 48.4536
v  -23.3675 9.1287 48.4536
v  -23.3675 9.1376 -48.6281
v  -23.1338 9.1376 -48.6281
v  23.3578 9.1376 -48.6280
v  -23.3675 9.1287 48.2980
v  23.3578 9.1306 27.7137
v  23.3578 9.1306 27.8693
v  23.3578 9.1376 -48.4725
v  23.3578 9.1357 -27.8882
v  -23.3675 9.1357 -28.0438
v  29.2100 9.1357 -27.8882
v  29.2100 9.1306 27.7137
v  -23.1338 5.9448 -0.0874
v  -0.0048 5.9448 -0.0874
v  -0.0048 5.9423 27.4356
vn 0.0000 -0.0003 1.0000
vn 0.0000 0.0000 1.0000
vn -0.0000 -0.0006 1.0000
vn -0.0000 0.0000 1.0000
vn 0.0000 -0.0006 1.0000
vn 0.0000 -1.0000 -0.0001
vn 0.0000 -1.0000 -0.0000
vn -1.0000 0.0000 -0.0000
vn 1.0000 0.0000 -0.0000
vn -0.0000 -0.0000 1.0000
vn -0.0000 -0.0003 1.0000
vn 0.0000 -0.0000 1.0000
vn 0.0000 0.0000 -1.0000
vn -0.0000 -1.0000 -0.0001
usemtl Olli_Body_Mat
s off
f 214/27435/6 215/27436/6 216/27437/7 1/27438/7
f 2/27439/7 3/27440/6 4/27441/6 5/27442/7
f 6/27443/7 7/27444/6 8/27445/6 9/27446/7
f 10/27447/8 11/27448/8 12/27449/8 13/27450/8
f 14/27451/9 15/27452/9 16/27453/9 17/27454/9
f 18/27455/10 19/27456/10 20/27457/11 21/27458/12
f 22/27459/8 23/27460/8 24/27461/8 25/27462/8
f 26/27463/9 27/27464/9 28/27465/9 29/27466/9
f 30/27467/13 31/27468/13 32/27469/13 33/27470/13
f 34/27471/9 35/27472/9 36/27473/9 37/27474/9
f 38/27475/8 39/27476/8 40/27477/8 41/27478/8
f 42/27479/6 43/27480/6 44/27481/6 45/27482/6
f 46/27483/12 47/27484/12 48/27485/12 49/27486/12
f 50/27487/13 51/27488/13 52/27489/13 53/27490/13
f 54/27491/14 55/27492/14 56/27493/14 57/27494/14
f 58/27495/13 59/27496/13 60/27497/13 61/27498/13
f 62/27499/12 63/27500/12 64/27501/12 65/27502/12
f 66/27503/7 67/27504/7 68/27505/7 69/27506/7
f 69/27506/7 68/27505/7 215/27436/6 214/27435/6
f 70/27507/7 71/27508/7 216/27437/7 72/27509/7
f 49/27510/8 48/27511/8 73/27512/8 74/27513/8
f 74/27513/8 73/27512/8 11/27448/8 10/27447/8
f 53/27514/8 52/27515/8 13/27450/8 12/27449/8
f 75/27516/9 76/27517/9 77/27518/9 78/27519/9
f 78/27519/9 77/27518/9 15/27452/9 14/27451/9
f 79/27520/9 80/27521/9 17/27454/9 16/27453/9
f 81/27522/7 82/27523/7 83/27524/7 84/27525/7
f 43/27480/14 81/27522/14 84/27525/14 44/27481/14
f 45/27482/7 85/27526/7 86/27527/7 42/27479/7
f 87/27528/7 88/27529/7 89/27530/7 90/27531/7
f 90/27531/14 89/27530/14 55/27492/14 54/27491/14
f 91/27532/7 92/27533/7 56/27493/7 93/27534/7
f 94/27535/6 95/27536/6 96/27537/7 72/27509/7
f 215/27436/6 94/27535/6 72/27509/7 216/27437/7
f 1/27438/7 81/27522/7 43/27480/6 214/27435/6
f 97/27538/7 98/27539/6 99/27540/6 100/27541/7
f 100/27541/7 99/27540/6 3/27440/6 2/27439/7
f 101/27542/7 102/27543/6 4/27441/6 103/27544/7
f 104/27545/7 105/27546/6 106/27547/6 107/27548/7
f 107/27548/7 106/27547/6 7/27444/6 6/27443/7
f 108/27549/7 109/27550/6 8/27445/6 110/27551/7
f 111/27552/12 112/27553/12 113/27554/12 114/27555/10
f 114/27555/10 113/27554/12 19/27456/10 18/27455/10
f 115/27556/1 116/27557/12 21/27458/12 20/27457/11
f 117/27558/13 118/27559/13 119/27560/13 120/27561/13
f 120/27561/13 119/27560/13 31/27468/13 30/27467/13
f 121/27562/13 122/27563/13 33/27470/13 32/27469/13
f 123/27564/7 124/27565/7 125/27566/7 126/27567/7
f 67/27504/7 123/27564/7 126/27567/7 68/27505/7
f 69/27506/7 42/27479/7 86/27527/7 66/27503/7
f 126/27567/7 125/27566/7 95/27536/6 94/27535/6
f 68/27505/7 126/27567/7 94/27535/6 215/27436/6
f 214/27435/6 43/27480/6 42/27479/7 69/27506/7
f 127/27568/7 82/27523/7 81/27522/7 1/27438/7
f 71/27508/7 127/27568/7 1/27438/7 216/27437/7
f 72/27509/7 96/27537/7 128/27569/7 70/27507/7
f 129/27570/7 71/27508/7 70/27507/7 103/27544/7
f 3/27440/6 129/27570/7 103/27544/7 4/27441/6
f 5/27442/7 130/27571/7 131/27572/7 2/27439/7
f 116/27573/8 115/27574/8 132/27575/8 133/27576/8
f 133/27576/8 132/27575/8 23/27460/8 22/27459/8
f 47/27577/8 46/27578/8 25/27462/8 24/27461/8
f 134/27579/9 135/27580/9 136/27581/9 137/27582/9
f 137/27582/9 136/27581/9 27/27464/9 26/27463/9
f 112/27583/9 111/27584/9 29/27466/9 28/27465/9
f 138/27585/7 82/27523/7 127/27568/7 139/27586/7
f 98/27539/6 138/27585/7 139/27586/7 99/27540/6
f 100/27541/7 140/27587/7 141/27588/7 97/27538/7
f 139/27586/7 127/27568/7 71/27508/7 129/27570/7
f 99/27540/6 139/27586/7 129/27570/7 3/27440/6
f 2/27439/7 131/27572/7 140/27587/7 100/27541/7
f 142/27589/7 143/27590/7 130/27571/7 5/27442/7
f 102/27543/6 142/27589/7 5/27442/7 4/27441/6
f 103/27544/7 70/27507/7 128/27569/7 101/27542/7
f 144/27591/7 67/27504/7 66/27503/7 110/27551/7
f 7/27444/6 144/27591/7 110/27551/7 8/27445/6
f 9/27446/7 145/27592/7 146/27593/7 6/27443/7
f 122/27594/9 121/27595/9 147/27596/9 148/27597/9
f 148/27597/9 147/27596/9 35/27472/9 34/27471/9
f 149/27598/9 150/27599/9 37/27474/9 36/27473/9
f 51/27600/8 50/27601/8 151/27602/8 152/27603/8
f 152/27603/8 151/27602/8 39/27476/8 38/27475/8
f 118/27604/8 117/27605/8 41/27478/8 40/27477/8
f 153/27606/7 124/27565/7 123/27564/7 154/27607/7
f 105/27546/6 153/27606/7 154/27607/7 106/27547/6
f 107/27548/7 155/27608/7 156/27609/7 104/27545/7
f 154/27607/7 123/27564/7 67/27504/7 144/27591/7
f 106/27547/6 154/27607/7 144/27591/7 7/27444/6
f 6/27443/7 146/27593/7 155/27608/7 107/27548/7
f 157/27610/7 158/27611/7 145/27592/7 9/27446/7
f 109/27550/6 157/27610/7 9/27446/7 8/27445/6
f 110/27551/7 66/27503/7 86/27527/7 108/27549/7
f 159/27612/6 160/27613/6 161/27614/6 93/27534/6
f 55/27492/6 159/27612/6 93/27534/6 56/27493/6
f 57/27494/6 96/27537/6 95/27536/6 54/27491/6
f 76/27615/13 75/27616/13 162/27617/13 163/27618/13
f 163/27618/13 162/27617/13 59/27496/13 58/27495/13
f 150/27619/13 149/27620/13 61/27498/13 60/27497/13
f 80/27621/12 79/27622/12 164/27623/12 165/27624/12
f 165/27624/12 164/27623/12 63/27500/12 62/27499/12
f 135/27625/12 134/27626/12 65/27502/12 64/27501/12
f 166/27627/7 167/27628/7 168/27629/7 169/27630/7
f 88/27529/7 166/27627/7 169/27630/7 89/27530/7
f 90/27531/7 125/27566/7 124/27565/7 87/27528/7
f 169/27630/6 168/27629/6 160/27613/6 159/27612/6
f 89/27530/6 169/27630/6 159/27612/6 55/27492/6
f 54/27491/6 95/27536/6 125/27566/6 90/27531/6
f 170/27631/7 128/27569/7 96/27537/7 57/27494/7
f 92/27533/7 170/27631/7 57/27494/7 56/27493/7
f 93/27534/7 161/27614/7 171/27632/7 91/27532/7
f 11/27448/8 172/27633/8 173/27634/8 12/27449/8
f 13/27450/8 45/27635/8 44/27636/8 10/27447/8
f 15/27452/9 174/27637/9 175/27638/9 16/27453/9
f 17/27454/9 161/27639/9 160/27640/9 14/27451/9
f 19/27456/10 176/27641/2 177/27642/3 20/27457/11
f 21/27458/12 140/27643/2 131/27644/4 18/27455/10
f 23/27460/8 178/27645/8 179/27646/8 24/27461/8
f 25/27462/8 138/27647/8 98/27648/8 22/27459/8
f 27/27464/9 180/27649/9 181/27650/9 28/27465/9
f 29/27466/9 142/27651/9 102/27652/9 26/27463/9
f 31/27468/13 182/27653/13 183/27654/13 32/27469/13
f 33/27470/13 155/27655/13 146/27656/13 30/27467/13
f 35/27472/9 184/27657/9 185/27658/9 36/27473/9
f 37/27474/9 153/27659/9 105/27660/9 34/27471/9
f 39/27476/8 186/27661/8 187/27662/8 40/27477/8
f 41/27478/8 157/27663/8 109/27664/8 38/27475/8
f 47/27484/2 188/27665/2 189/27666/2 48/27485/2
f 49/27486/2 83/27667/2 82/27668/2 46/27483/2
f 51/27488/13 86/27669/13 85/27670/13 52/27489/13
f 53/27490/13 190/27671/13 191/27672/13 50/27487/13
f 59/27496/13 88/27673/13 87/27674/13 60/27497/13
f 61/27498/13 192/27675/13 193/27676/13 58/27495/13
f 63/27500/2 194/27677/2 195/27678/2 64/27501/2
f 65/27502/2 170/27679/2 92/27680/2 62/27499/2
f 48/27511/8 189/27681/8 196/27682/8 73/27512/8
f 74/27513/8 84/27683/8 83/27684/8 49/27510/8
f 73/27512/8 196/27682/8 172/27633/8 11/27448/8
f 10/27447/8 44/27636/8 84/27683/8 74/27513/8
f 52/27515/8 85/27685/8 45/27635/8 13/27450/8
f 12/27449/8 173/27634/8 190/27686/8 53/27514/8
f 76/27517/9 197/27687/9 198/27688/9 77/27518/9
f 78/27519/9 168/27689/9 167/27690/9 75/27516/9
f 77/27518/9 198/27688/9 174/27637/9 15/27452/9
f 14/27451/9 160/27640/9 168/27689/9 78/27519/9
f 80/27521/9 171/27691/9 161/27639/9 17/27454/9
f 16/27453/9 175/27638/9 199/27692/9 79/27520/9
f 112/27553/12 200/27693/2 201/27694/2 113/27554/12
f 114/27555/10 130/27695/4 143/27696/2 111/27552/12
f 113/27554/12 201/27694/2 176/27641/2 19/27456/10
f 18/27455/10 131/27644/4 130/27695/4 114/27555/10
f 116/27557/12 141/27697/2 140/27643/2 21/27458/12
f 20/27457/11 177/27642/3 202/27698/5 115/27556/1
f 118/27559/13 203/27699/13 204/27700/13 119/27560/13
f 120/27561/13 145/27701/13 158/27702/13 117/27558/13
f 119/27560/13 204/27700/13 182/27653/13 31/27468/13
f 30/27467/13 146/27656/13 145/27701/13 120/27561/13
f 122/27563/13 156/27703/13 155/27655/13 33/27470/13
f 32/27469/13 183/27654/13 205/27704/13 121/27562/13
f 115/27574/8 202/27705/8 206/27706/8 132/27575/8
f 133/27576/8 97/27707/8 141/27708/8 116/27573/8
f 132/27575/8 206/27706/8 178/27645/8 23/27460/8
f 22/27459/8 98/27648/8 97/27707/8 133/27576/8
f 46/27578/8 82/27709/8 138/27647/8 25/27462/8
f 24/27461/8 179/27646/8 188/27710/8 47/27577/8
f 135/27580/9 207/27711/9 208/27712/9 136/27581/9
f 137/27582/9 101/27713/9 128/27714/9 134/27579/9
f 136/27581/9 208/27712/9 180/27649/9 27/27464/9
f 26/27463/9 102/27652/9 101/27713/9 137/27582/9
f 111/27584/9 143/27715/9 142/27651/9 29/27466/9
f 28/27465/9 181/27650/9 200/27716/9 112/27583/9
f 121/27595/9 205/27717/9 209/27718/9 147/27596/9
f 148/27597/9 104/27719/9 156/27720/9 122/27594/9
f 147/27596/9 209/27718/9 184/27657/9 35/27472/9
f 34/27471/9 105/27660/9 104/27719/9 148/27597/9
f 150/27599/9 124/27721/9 153/27659/9 37/27474/9
f 36/27473/9 185/27658/9 210/27722/9 149/27598/9
f 50/27601/8 191/27723/8 211/27724/8 151/27602/8
f 152/27603/8 108/27725/8 86/27726/8 51/27600/8
f 151/27602/8 211/27724/8 186/27661/8 39/27476/8
f 38/27475/8 109/27664/8 108/27725/8 152/27603/8
f 117/27605/8 158/27727/8 157/27663/8 41/27478/8
f 40/27477/8 187/27662/8 203/27728/8 118/27604/8
f 75/27616/13 167/27729/13 166/27730/13 162/27617/13
f 163/27618/13 212/27731/13 197/27732/13 76/27615/13
f 162/27617/13 166/27730/13 88/27673/13 59/27496/13
f 58/27495/13 193/27676/13 212/27731/13 163/27618/13
f 149/27620/13 210/27733/13 192/27675/13 61/27498/13
f 60/27497/13 87/27674/13 124/27734/13 150/27619/13
f 79/27622/2 199/27735/2 213/27736/2 164/27623/2
f 165/27624/2 91/27737/2 171/27738/2 80/27621/2
f 164/27623/2 213/27736/2 194/27677/2 63/27500/2
f 62/27499/2 92/27680/2 91/27737/2 165/27624/2
f 134/27626/2 128/27739/2 170/27679/2 65/27502/2
f 64/27501/2 195/27678/2 207/27740/2 135/27625/2
