# Blender v3.2.1 OBJ File: ''
# www.blender.org
o Object_4_Object_0
v -4.500000 2.920200 0.000000
v -4.500000 3.630837 0.000000
v 4.500000 3.630837 0.000000
v 4.500000 2.920200 0.000000
v -4.500000 3.630837 0.000000
v -4.500000 3.630837 5.572686
v 4.500000 3.630837 5.572686
v 4.500000 3.630837 0.000000
v -4.500000 2.920200 0.000000
v -4.500000 2.920200 6.038442
v -4.500000 3.630837 5.572686
v -4.500000 3.630837 0.000000
v 4.500000 0.905574 0.000000
v 4.500000 0.905574 8.128317
v 4.500000 -0.000000 8.565759
v 4.500000 0.000000 0.000000
v 4.500000 3.630837 0.000000
v 4.500000 3.630837 5.572686
v 4.500000 2.920200 6.038442
v 4.500000 2.920200 0.000000
v 4.500000 2.920200 0.000000
v 4.500000 2.920200 6.038442
v 4.500000 0.905574 8.128317
v 4.500000 0.905574 0.000000
v -4.500000 0.000000 0.000000
v -4.500000 -0.000000 8.565759
v -4.500000 0.905574 8.128317
v -4.500000 0.905574 0.000000
v -4.500000 0.905574 0.000000
v -4.500000 0.905574 8.128317
v -4.500000 2.920200 6.038442
v -4.500000 2.920200 0.000000
v -4.500000 0.000000 0.000000
v -4.500000 0.905574 0.000000
v 4.500000 0.905574 0.000000
v 4.500000 0.000000 0.000000
v -4.500000 0.905574 0.000000
v -4.500000 2.920200 0.000000
v 4.500000 2.920200 0.000000
v 4.500000 0.905574 0.000000
v -4.918569 2.920200 6.038442
v -4.918569 0.905574 8.128317
v -4.918569 1.112907 8.424250
v -4.918569 3.127533 6.334377
v 4.918569 0.905574 8.128317
v 4.918569 2.920200 6.038442
v 4.918569 3.127533 6.334377
v 4.918569 1.112907 8.424250
v -4.918569 0.905574 8.128317
v -4.918569 -0.000000 8.565759
v -4.918569 -0.000000 9.015390
v -4.918569 1.112907 8.424250
v -4.918569 1.112907 8.424250
v -4.918569 -0.000000 9.015390
v 4.918569 -0.000000 9.015390
v 4.918569 1.112907 8.424250
v -4.918569 4.257761 5.639751
v -4.918569 3.127533 6.334377
v 4.918569 3.127533 6.334377
v 4.918569 4.257761 5.639751
v -4.918569 3.127533 6.334377
v -4.918569 1.112907 8.424250
v 4.918569 1.112907 8.424250
v 4.918569 3.127533 6.334377
v -4.918569 4.050426 5.343816
v -4.918569 2.920200 6.038442
v -4.918569 3.127533 6.334377
v -4.918569 4.257761 5.639751
v 4.918569 4.050426 5.343816
v -4.918569 4.050426 5.343816
v -4.918569 4.257761 5.639751
v 4.918569 4.257761 5.639751
v 4.918569 2.920200 6.038442
v 4.918569 4.050426 5.343816
v 4.918569 4.257761 5.639751
v 4.918569 3.127533 6.334377
v 4.918569 -0.000000 8.565759
v 4.918569 0.905574 8.128317
v 4.918569 1.112907 8.424250
v 4.918569 -0.000000 9.015390
v -4.500000 -2.920200 -0.000000
v 4.500000 -2.920200 -0.000000
v 4.500000 -3.630837 -0.000000
v -4.500000 -3.630837 -0.000000
v -4.500000 -3.630837 -0.000000
v 4.500000 -3.630837 -0.000000
v 4.500000 -3.630837 5.572686
v -4.500000 -3.630837 5.572686
v -4.500000 -2.920200 -0.000000
v -4.500000 -3.630837 -0.000000
v -4.500000 -3.630837 5.572686
v -4.500000 -2.920200 6.038442
v 4.500000 -0.905574 -0.000000
v 4.500000 0.000000 0.000000
v 4.500000 -0.000000 8.565759
v 4.500000 -0.905574 8.128317
v 4.500000 -3.630837 -0.000000
v 4.500000 -2.920200 -0.000000
v 4.500000 -2.920200 6.038442
v 4.500000 -3.630837 5.572686
v 4.500000 -2.920200 -0.000000
v 4.500000 -0.905574 -0.000000
v 4.500000 -0.905574 8.128317
v 4.500000 -2.920200 6.038442
v -4.500000 0.000000 0.000000
v -4.500000 -0.905574 -0.000000
v -4.500000 -0.905574 8.128317
v -4.500000 -0.000000 8.565759
v -4.500000 -0.905574 -0.000000
v -4.500000 -2.920200 -0.000000
v -4.500000 -2.920200 6.038442
v -4.500000 -0.905574 8.128317
v -4.500000 0.000000 0.000000
v 4.500000 0.000000 0.000000
v 4.500000 -0.905574 -0.000000
v -4.500000 -0.905574 -0.000000
v -4.500000 -0.905574 -0.000000
v 4.500000 -0.905574 -0.000000
v 4.500000 -2.920200 -0.000000
v -4.500000 -2.920200 -0.000000
v -4.918569 -2.920200 6.038442
v -4.918569 -3.127533 6.334377
v -4.918569 -1.112907 8.424250
v -4.918569 -0.905574 8.128317
v 4.918569 -0.905574 8.128317
v 4.918569 -1.112907 8.424250
v 4.918569 -3.127533 6.334377
v 4.918569 -2.920200 6.038442
v -4.918569 -0.905574 8.128317
v -4.918569 -1.112907 8.424250
v -4.918569 -0.000000 9.015390
v -4.918569 -0.000000 8.565759
v -4.918569 -1.112907 8.424250
v 4.918569 -1.112907 8.424250
v 4.918569 -0.000000 9.015390
v -4.918569 -0.000000 9.015390
v -4.918569 -4.257762 5.639751
v 4.918569 -4.257762 5.639751
v 4.918569 -3.127533 6.334377
v -4.918569 -3.127533 6.334377
v -4.918569 -3.127533 6.334377
v 4.918569 -3.127533 6.334377
v 4.918569 -1.112907 8.424250
v -4.918569 -1.112907 8.424250
v -4.918569 -4.050426 5.343816
v -4.918569 -4.257762 5.639751
v -4.918569 -3.127533 6.334377
v -4.918569 -2.920200 6.038442
v 4.918569 -4.050426 5.343816
v 4.918569 -4.257762 5.639751
v -4.918569 -4.257762 5.639751
v -4.918569 -4.050426 5.343816
v 4.918569 -2.920200 6.038442
v 4.918569 -3.127533 6.334377
v 4.918569 -4.257762 5.639751
v 4.918569 -4.050426 5.343816
v 4.918569 -0.000000 8.565759
v 4.918569 -0.000000 9.015390
v 4.918569 -1.112907 8.424250
v 4.918569 -0.905574 8.128317
v 4.918569 -4.050426 5.343816
v -4.918569 -4.050426 5.343816
v -4.918569 -2.920200 6.038442
v 4.918569 -2.920200 6.038442
v -4.918569 -0.905574 8.128317
v 4.918569 -0.905574 8.128317
v 4.918569 -2.920200 6.038442
v -4.918569 -2.920200 6.038442
v 4.918569 -0.905574 8.128317
v -4.918569 -0.905574 8.128317
v -4.918569 -0.000000 8.565759
v 4.918569 -0.000000 8.565759
v 4.918569 0.905574 8.128317
v 4.918569 -0.000000 8.565759
v -4.918569 -0.000000 8.565759
v -4.918569 0.905574 8.128317
v -4.918569 0.905574 8.128317
v -4.918569 2.920200 6.038442
v 4.918569 2.920200 6.038442
v 4.918569 0.905574 8.128317
v 4.918569 4.050426 5.343816
v 4.918569 2.920200 6.038442
v -4.918569 2.920200 6.038442
v -4.918569 4.050426 5.343816
vt 0.937500 0.984375
vt 0.987500 0.984375
vt 0.987500 0.934375
vt 0.937500 0.934375
vt 0.618580 0.383017
vt 0.618580 0.000000
vt 0.000000 0.000000
vt 0.000000 0.383017
vt 0.435515 0.518966
vt 0.435515 0.167641
vt 0.482652 0.198536
vt 0.482652 0.518966
vt 0.301881 0.998242
vt 0.301881 0.459077
vt 0.241813 0.430060
vt 0.241813 0.998242
vt 0.482652 0.998242
vt 0.482652 0.628596
vt 0.435515 0.597702
vt 0.435515 0.998242
vt 0.435515 0.998242
vt 0.435515 0.597702
vt 0.301881 0.459077
vt 0.301881 0.998242
vt 0.241813 0.518966
vt 0.241813 0.000000
vt 0.301881 0.029017
vt 0.301881 0.518966
vt 0.301881 0.518966
vt 0.301881 0.029017
vt 0.435515 0.167641
vt 0.435515 0.518966
vt 0.937500 0.984375
vt 0.987500 0.984375
vt 0.987500 0.934375
vt 0.937500 0.934375
vt 0.937500 0.984375
vt 0.987500 0.984375
vt 0.987500 0.934375
vt 0.937500 0.934375
vt 0.715017 0.636829
vt 0.792758 0.636829
vt 0.792758 0.619372
vt 0.715017 0.619372
vt 0.878647 0.636829
vt 0.956387 0.636829
vt 0.956387 0.619372
vt 0.878647 0.619372
vt 0.792758 0.636829
vt 0.835702 0.636829
vt 0.835702 0.619372
vt 0.792758 0.619372
vt 0.978976 0.000000
vt 0.868552 0.000000
vt 0.868552 0.589303
vt 0.978976 0.589303
vt 1.000000 0.000000
vt 0.912041 0.000000
vt 0.912041 0.589303
vt 1.000000 0.589303
vt 1.000000 0.000000
vt 0.803622 0.000000
vt 0.803622 0.589303
vt 1.000000 0.589303
vt 0.671404 0.636829
vt 0.715017 0.636829
vt 0.715017 0.619372
vt 0.671404 0.619372
vt 0.671404 0.636830
vt 1.000000 0.636830
vt 1.000000 0.619372
vt 0.671404 0.619372
vt 0.956387 0.636829
vt 1.000000 0.636829
vt 1.000000 0.619372
vt 0.956387 0.619372
vt 0.835702 0.636829
vt 0.878647 0.636829
vt 0.878647 0.619372
vt 0.835702 0.619372
vt 0.937500 0.984375
vt 0.987500 0.984375
vt 0.987500 0.934375
vt 0.937500 0.934375
vt 0.618580 0.383017
vt 0.000000 0.383017
vt 0.000000 0.000000
vt 0.618580 0.000000
vt 0.048111 0.518966
vt 0.000000 0.520724
vt 0.000973 0.198536
vt 0.048111 0.167641
vt 0.181744 0.998242
vt 0.241813 0.998242
vt 0.241813 0.430060
vt 0.181744 0.459077
vt 0.000973 0.998242
vt 0.048111 0.998242
vt 0.048111 0.597702
vt 0.000973 0.628596
vt 0.048111 0.998242
vt 0.181744 0.998242
vt 0.181744 0.459077
vt 0.048111 0.597702
vt 0.241813 0.518966
vt 0.181744 0.518966
vt 0.181744 0.029017
vt 0.241813 0.000000
vt 0.181744 0.518966
vt 0.048111 0.518966
vt 0.048111 0.167641
vt 0.181744 0.029017
vt 0.937500 0.984375
vt 0.987500 0.984375
vt 0.987500 0.934375
vt 0.937500 0.934375
vt 0.937500 0.984375
vt 0.987500 0.984375
vt 0.987500 0.934375
vt 0.937500 0.934375
vt 0.956387 0.636829
vt 0.956387 0.619372
vt 0.878647 0.619372
vt 0.878647 0.636829
vt 0.792758 0.636829
vt 0.792758 0.619372
vt 0.715017 0.619372
vt 0.715017 0.636829
vt 0.878647 0.636829
vt 0.878647 0.619372
vt 0.835702 0.619372
vt 0.835702 0.636829
vt 0.692771 0.000000
vt 0.692771 0.589303
vt 0.803195 0.589303
vt 0.803195 0.000000
vt 0.892022 0.000000
vt 0.892022 0.589303
vt 0.979980 0.589303
vt 0.979980 0.000000
vt 0.760165 0.000000
vt 0.760165 0.589303
vt 0.956543 0.589303
vt 0.956543 0.000000
vt 1.000000 0.636829
vt 1.000000 0.619372
vt 0.956387 0.619372
vt 0.956387 0.636829
vt 1.000000 0.636830
vt 1.000000 0.619372
vt 0.671404 0.619372
vt 0.671404 0.636830
vt 0.715017 0.636829
vt 0.715017 0.619372
vt 0.671404 0.619372
vt 0.671404 0.636829
vt 0.835702 0.636829
vt 0.835702 0.619372
vt 0.792758 0.619372
vt 0.792758 0.636829
vt 0.931475 0.714480
vt 0.981475 0.714480
vt 0.981475 0.664480
vt 0.931475 0.664480
vt 0.931475 0.714480
vt 0.981475 0.714480
vt 0.981475 0.664480
vt 0.931475 0.664480
vt 0.931475 0.714480
vt 0.981475 0.714480
vt 0.981475 0.664480
vt 0.931475 0.664480
vt 0.931475 0.714480
vt 0.981475 0.714480
vt 0.981475 0.664480
vt 0.931475 0.664480
vt 0.931475 0.714480
vt 0.981475 0.714480
vt 0.981475 0.664480
vt 0.931475 0.664480
vt 0.931475 0.714480
vt 0.981475 0.714480
vt 0.981475 0.664480
vt 0.931475 0.664480
vn 0.0000 0.0000 -1.0000
vn 0.0000 1.0000 0.0000
vn -1.0000 -0.0000 0.0000
vn 1.0000 -0.0000 0.0000
vn 0.0000 0.4691 0.8831
vn 0.0000 0.5236 0.8520
vn 0.0000 0.7199 0.6940
vn 0.0000 0.8190 -0.5738
vn 0.0000 -1.0000 -0.0000
vn 0.0000 -0.4691 0.8831
vn 0.0000 -0.5236 0.8520
vn 0.0000 -0.7199 0.6940
vn 0.0000 -0.8190 -0.5738
vn 0.0000 0.5236 -0.8520
vn 0.0000 0.7199 -0.6940
vn 0.0000 0.4350 -0.9004
vn 0.0000 -0.4350 -0.9004
vn 0.0000 -0.7199 -0.6940
vn 0.0000 -0.5236 -0.8520
usemtl Material.001
s 1
f 1/1/1 2/2/1 3/3/1
f 1/1/1 3/3/1 4/4/1
f 5/5/2 6/6/2 7/7/2
f 5/5/2 7/7/2 8/8/2
f 9/9/3 10/10/3 11/11/3
f 9/9/3 11/11/3 12/12/3
f 13/13/4 14/14/4 15/15/4
f 13/13/4 15/15/4 16/16/4
f 17/17/4 18/18/4 19/19/4
f 17/17/4 19/19/4 20/20/4
f 21/21/4 22/22/4 23/23/4
f 21/21/4 23/23/4 24/24/4
f 25/25/3 26/26/3 27/27/3
f 25/25/3 27/27/3 28/28/3
f 29/29/3 30/30/3 31/31/3
f 29/29/3 31/31/3 32/32/3
f 33/33/1 34/34/1 35/35/1
f 33/33/1 35/35/1 36/36/1
f 37/37/1 38/38/1 39/39/1
f 37/37/1 39/39/1 40/40/1
f 41/41/3 42/42/3 43/43/3
f 41/41/3 43/43/3 44/44/3
f 45/45/4 46/46/4 47/47/4
f 45/45/4 47/47/4 48/48/4
f 49/49/3 50/50/3 51/51/3
f 49/49/3 51/51/3 52/52/3
f 53/53/5 54/54/5 55/55/5
f 53/53/5 55/55/5 56/56/5
f 57/57/6 58/58/6 59/59/6
f 57/57/6 59/59/6 60/60/6
f 61/61/7 62/62/7 63/63/7
f 61/61/7 63/63/7 64/64/7
f 65/65/3 66/66/3 67/67/3
f 65/65/3 67/67/3 68/68/3
f 69/69/8 70/70/8 71/71/8
f 69/69/8 71/71/8 72/72/8
f 73/73/4 74/74/4 75/75/4
f 73/73/4 75/75/4 76/76/4
f 77/77/4 78/78/4 79/79/4
f 77/77/4 79/79/4 80/80/4
f 81/81/1 82/82/1 83/83/1
f 81/81/1 83/83/1 84/84/1
f 85/85/9 86/86/9 87/87/9
f 85/85/9 87/87/9 88/88/9
f 89/89/3 90/90/3 91/91/3
f 89/89/3 91/91/3 92/92/3
f 93/93/4 94/94/4 95/95/4
f 93/93/4 95/95/4 96/96/4
f 97/97/4 98/98/4 99/99/4
f 97/97/4 99/99/4 100/100/4
f 101/101/4 102/102/4 103/103/4
f 101/101/4 103/103/4 104/104/4
f 105/105/3 106/106/3 107/107/3
f 105/105/3 107/107/3 108/108/3
f 109/109/3 110/110/3 111/111/3
f 109/109/3 111/111/3 112/112/3
f 113/113/1 114/114/1 115/115/1
f 113/113/1 115/115/1 116/116/1
f 117/117/1 118/118/1 119/119/1
f 117/117/1 119/119/1 120/120/1
f 121/121/3 122/122/3 123/123/3
f 121/121/3 123/123/3 124/124/3
f 125/125/4 126/126/4 127/127/4
f 125/125/4 127/127/4 128/128/4
f 129/129/3 130/130/3 131/131/3
f 129/129/3 131/131/3 132/132/3
f 133/133/10 134/134/10 135/135/10
f 133/133/10 135/135/10 136/136/10
f 137/137/11 138/138/11 139/139/11
f 137/137/11 139/139/11 140/140/11
f 141/141/12 142/142/12 143/143/12
f 141/141/12 143/143/12 144/144/12
f 145/145/3 146/146/3 147/147/3
f 145/145/3 147/147/3 148/148/3
f 149/149/13 150/150/13 151/151/13
f 149/149/13 151/151/13 152/152/13
f 153/153/4 154/154/4 155/155/4
f 153/153/4 155/155/4 156/156/4
f 157/157/4 158/158/4 159/159/4
f 157/157/4 159/159/4 160/160/4
f 161/161/14 162/162/14 163/163/14
f 161/161/14 163/163/14 164/164/14
f 165/165/15 166/166/15 167/167/15
f 165/165/15 167/167/15 168/168/15
f 169/169/16 170/170/16 171/171/16
f 169/169/16 171/171/16 172/172/16
f 173/173/17 174/174/17 175/175/17
f 173/173/17 175/175/17 176/176/17
f 177/177/18 178/178/18 179/179/18
f 177/177/18 179/179/18 180/180/18
f 181/181/19 182/182/19 183/183/19
f 181/181/19 183/183/19 184/184/19
