o Mesh5
v 0.118870005012 -0.0721780657768 6.85205714495e-17
v 0.118870005012 -0.0687406435609 -0.0226295422763
v 0.118870005012 -0.0687406435609 0.0226295422763
v 0.118870005012 -0.0578849576414 -0.0430602319539
v 0.118870005012 -0.0568593367934 0.0445507913828
v 0.118870005012 -0.0445507913828 -0.0568593367934
v 0.118870005012 -0.0430602319539 0.0578849576414
v 0.118870005012 -0.0226295422763 -0.0687406435609
v 0.118870005012 -0.0226295422763 0.0687406435609
v 0.118870005012 -7.56827743403e-18 0.0721780657768
v 0.118870005012 5.52760863535e-17 -0.0721780657768
v 0.118870005012 0.0226295422763 -0.0687406435609
v 0.118870005012 0.0226295422763 0.0687406435609
v 0.118870005012 0.0430602319539 -0.0578849576414
v 0.118870005012 0.0445507913828 0.0568593367934
v 0.118870005012 0.0568593367934 -0.0445507913828
v 0.118870005012 0.0578849576414 0.0430602319539
v 0.118870005012 0.0687406435609 -0.0226295422763
v 0.118870005012 0.0687406435609 0.0226295422763
v 0.118870005012 0.0721780657768 0.0
v 0.121370002627 -0.0721780657768 -6.66285049861e-17
v 0.121370002627 -0.0687406435609 -0.0226295422763
v 0.121370002627 -0.0687406435609 0.0226295422763
v 0.121370002627 -0.0578849576414 0.0430602319539
v 0.121370002627 -0.0568593367934 -0.0445507913828
v 0.121370002627 -0.0445507913828 0.0568593367934
v 0.121370002627 -0.0430602319539 -0.0578849576414
v 0.121370002627 -0.030071593821 -0.0670063123107
v 0.121370002627 -0.030071593821 -0.0529936887324
v 0.121370002627 -0.030071593821 0.0529936887324
v 0.121370002627 -0.030071593821 0.0670063123107
v 0.121370002627 -0.0226295422763 -0.0687406435609
v 0.121370002627 -0.0226295422763 0.0687406435609
v 0.121370002627 5.71681594343e-17 0.0721780657768
v 0.121370002627 1.92317229252e-16 -0.0721780657768
v 0.121370002627 0.0226295422763 -0.0687406435609
v 0.121370002627 0.0226295422763 0.0687406435609
v 0.121370002627 0.030071593821 -0.0670063123107
v 0.121370002627 0.030071593821 -0.0529936887324
v 0.121370002627 0.030071593821 0.0529936887324
v 0.121370002627 0.030071593821 0.0670063123107
v 0.121370002627 0.0430602319539 -0.0578849576414
v 0.121370002627 0.0430602319539 0.0578849576414
v 0.121370002627 0.0568593367934 -0.0445507913828
v 0.121370002627 0.0568593367934 0.0445507913828
v 0.121370002627 0.0687406435609 -0.0226295422763
v 0.121370002627 0.0687406435609 0.0226295422763
v 0.121370002627 0.0721780657768 6.66285049861e-17
v 0.140369996428 -0.030071593821 -0.0670063123107
v 0.140369996428 -0.030071593821 -0.0529936887324
v 0.140369996428 -0.030071593821 0.0529936887324
v 0.140369996428 -0.030071593821 0.0670063123107
v 0.140369996428 0.030071593821 -0.0670063123107
v 0.140369996428 0.030071593821 -0.0529936887324
v 0.140369996428 0.030071593821 0.0529936887324
v 0.140369996428 0.030071593821 0.0670063123107
vn -1.0 0.0 0.0
vn -0.0278 -0.9287 0.3698
vn -0.0278 -0.3698 -0.9287
vn -0.0209 -0.8028 0.5959
vn -0.0209 -0.5959 -0.8028
vn -0.0209 0.3159 0.9486
vn -0.0209 0.5959 0.8028
vn -0.0184 -0.5875 0.809
vn -0.0184 0.809 0.5875
vn -0.0142 -0.8343 -0.5512
vn 0.0 -1.0 0.0
vn 0.0 -0.9987 -0.0506
vn 0.0 -0.9987 0.0506
vn 0.0 -0.965 0.2624
vn 0.0 -0.9494 -0.3142
vn 0.0 -0.3181 0.9481
vn 0.0 -0.2624 -0.965
vn -0.0 -0.0506 -0.9987
vn -0.0 -0.0506 0.9987
vn 0.0 0.0 -1.0
vn 0.0 0.0 1.0
vn -0.0 0.0506 -0.9987
vn -0.0 0.0506 0.9987
vn -0.0 0.2598 -0.9657
vn 0.0 0.3181 0.9481
vn 0.0 0.3675 -0.93
vn 0.0 0.5878 -0.809
vn 0.0 0.7642 -0.6449
vn 0.0 0.8263 -0.5632
vn 0.0 0.9481 -0.3181
vn -0.0 0.965 0.2624
vn 0.0 0.9987 -0.0506
vn 0.0 0.9987 0.0506
vn 0.0 1.0 0.0
vn 0.0184 -0.809 0.5875
vn 0.0184 -0.5875 -0.809
vn 0.0184 0.5875 0.809
vn 0.0194 -0.9486 -0.3159
vn 0.0209 -0.5959 0.8028
vn 0.0209 -0.3159 0.9486
vn 0.0209 0.8028 0.5959
vn 0.0258 -0.7715 -0.6357
vn 0.0278 0.9287 0.3698
vn 1.0 0.0 0.0
f 31//1 41//1 40//1
f 40//1 30//1 31//1
f 31//11 30//11 51//11
f 31//11 51//11 52//11
f 55//34 40//34 41//34
f 55//34 41//34 56//34
f 56//21 31//21 52//21
f 31//21 56//21 41//21
f 30//20 40//20 55//20
f 51//20 30//20 55//20
f 51//44 55//44 52//44
f 56//44 52//44 55//44
f 28//1 29//1 39//1
f 28//1 39//1 38//1
f 38//34 54//34 53//34
f 38//34 39//34 54//34
f 53//20 28//20 38//20
f 49//20 28//20 53//20
f 54//21 29//21 50//21
f 39//21 29//21 54//21
f 50//11 29//11 49//11
f 49//11 29//11 28//11
f 49//44 53//44 54//44
f 54//44 50//44 49//44
f 45//41 19//43 17//9
f 45//41 17//9 15//7
f 13//25 37//6 15//7
f 1//12 21//13 3//14
f 9//40 34//19 10//23
f 10//23 37//6 13//25
f 20//33 19//43 47//31
f 19//43 45//41 47//31
f 33//16 9//40 26//39
f 26//39 9//40 7//8
f 7//8 5//4 26//39
f 3//14 23//2 5//4
f 3//14 21//13 23//2
f 23//2 24//35 5//4
f 5//4 24//35 26//39
f 34//19 9//40 33//16
f 37//6 10//23 34//19
f 15//7 37//6 43//37
f 45//41 15//7 43//37
f 48//32 20//33 47//31
f 3//1 6//1 1//1
f 15//1 6//1 13//1
f 6//1 5//1 13//1
f 5//1 7//1 13//1
f 7//1 9//1 13//1
f 13//1 9//1 10//1
f 17//1 19//1 15//1
f 3//1 5//1 6//1
f 19//1 20//1 15//1
f 25//44 44//44 45//44
f 25//44 45//44 33//44
f 23//44 21//44 25//44
f 33//44 37//44 34//44
f 33//44 45//44 37//44
f 43//44 37//44 45//44
f 44//44 47//44 45//44
f 48//44 47//44 44//44
f 33//44 26//44 25//44
f 26//44 24//44 25//44
f 24//44 23//44 25//44
f 6//1 15//1 16//1
f 6//1 2//1 1//1
f 6//1 11//1 8//1
f 14//1 12//1 16//1
f 11//1 6//1 12//1
f 16//1 12//1 6//1
f 18//1 15//1 20//1
f 15//1 18//1 16//1
f 2//1 6//1 4//1
f 22//38 4//10 25//42
f 25//42 6//5 27//36
f 27//36 6//5 32//3
f 36//24 12//26 42//27
f 46//30 18//30 48//32
f 18//30 46//30 44//29
f 14//27 16//28 42//27
f 11//22 36//24 35//18
f 8//17 35//18 32//3
f 6//5 8//17 32//3
f 4//10 6//5 25//42
f 2//15 4//10 22//38
f 21//13 1//12 22//38
f 1//12 2//15 22//38
f 8//17 11//22 35//18
f 11//22 12//26 36//24
f 12//26 14//27 42//27
f 42//27 16//28 44//29
f 16//28 18//30 44//29
f 18//30 20//33 48//32
f 27//44 32//44 25//44
f 25//44 32//44 35//44
f 25//44 36//44 44//44
f 25//44 35//44 36//44
f 36//44 42//44 44//44
f 22//44 25//44 21//44
f 46//44 48//44 44//44
