{
  "accessors": [
    {
      "bufferView": 2,
      "componentType": 5126,
      "count": 17433,
      "max": [
        1.5207070112228394,
        8.418364524841309,
        6.3370208740234375
      ],
      "min": [
        -1.5214099884033203,
        -0.02516511082649231,
        -8.378142356872559
      ],
      "type": "VEC3"
    },
    {
      "bufferView": 2,
      "byteOffset": 209196,
      "componentType": 5126,
      "count": 17433,
      "max": [
        0.9999095797538757,
        0.9999240040779114,
        0.9998233318328857
      ],
      "min": [
        -0.9999823570251465,
        -1.0,
        -0.9999678730964661
      ],
      "type": "VEC3"
    },
    {
      "bufferView": 3,
      "componentType": 5126,
      "count": 17433,
      "max": [
        1.0,
        0.9999518990516663,
        0.9999703764915466,
        1.0
      ],
      "min": [
        -0.9999998807907104,
        -0.9993326663970947,
        -0.9998109340667725,
        -1.0
      ],
      "type": "VEC4"
    },
    {
      "bufferView": 1,
      "componentType": 5126,
      "count": 17433,
      "max": [
        0.9971200227737427,
        1.0
      ],
      "min": [
        -0.0,
        0.006680011749267578
      ],
      "type": "VEC2"
    },
    {
      "bufferView": 1,
      "byteOffset": 139464,
      "componentType": 5126,
      "count": 17433,
      "max": [
        0.9971200227737427,
        1.0
      ],
      "min": [
        -0.0,
        0.006680011749267578
      ],
      "type": "VEC2"
    },
    {
      "bufferView": 1,
      "byteOffset": 278928,
      "componentType": 5126,
      "count": 17433,
      "max": [
        0.9971200227737427,
        1.0
      ],
      "min": [
        -0.0,
        0.006680011749267578
      ],
      "type": "VEC2"
    },
    {
      "bufferView": 1,
      "byteOffset": 418392,
      "componentType": 5126,
      "count": 17433,
      "max": [
        0.9971200227737427,
        1.0
      ],
      "min": [
        -0.0,
        0.006680011749267578
      ],
      "type": "VEC2"
    },
    {
      "bufferView": 1,
      "byteOffset": 557856,
      "componentType": 5126,
      "count": 17433,
      "max": [
        0.9971200227737427,
        1.0
      ],
      "min": [
        -0.0,
        0.006680011749267578
      ],
      "type": "VEC2"
    },
    {
      "bufferView": 0,
      "componentType": 5125,
      "count": 93447,
      "type": "SCALAR"
    }
  ],
  "asset": {
    "extras": {
      "author": "AIUM2 (https://sketchfab.com/alfredonicolas)",
      "license": "CC-BY-4.0 (http://creativecommons.org/licenses/by/4.0/)",
      "source": "https://sketchfab.com/3d-models/fox-215b317cabfa42c48fad08d8b9a8fb8d",
      "title": "Fox"
    },
    "generator": "Sketchfab-13.4.0",
    "version": "2.0"
  },
  "bufferViews": [
    {
      "buffer": 0,
      "byteLength": 373788,
      "name": "floatBufferViews",
      "target": 34963
    },
    {
      "buffer": 0,
      "byteLength": 697320,
      "byteOffset": 373788,
      "byteStride": 8,
      "name": "floatBufferViews",
      "target": 34962
    },
    {
      "buffer": 0,
      "byteLength": 418392,
      "byteOffset": 1071108,
      "byteStride": 12,
      "name": "floatBufferViews",
      "target": 34962
    },
    {
      "buffer": 0,
      "byteLength": 278928,
      "byteOffset": 1489500,
      "byteStride": 16,
      "name": "floatBufferViews",
      "target": 34962
    }
  ],
  "buffers": [
    {
      "byteLength": 1768428,
      "uri": "scene.bin"
    }
  ],
  "extensionsRequired": [
    "KHR_materials_pbrSpecularGlossiness"
  ],
  "extensionsUsed": [
    "KHR_materials_pbrSpecularGlossiness"
  ],
  "images": [
    {
      "uri": "textures/material_0_diffuse.png"
    },
    {
      "uri": "textures/material_0_specularGlossiness.png"
    },
    {
      "uri": "textures/material_0_normal.png"
    },
    {
      "uri": "textures/material_0_occlusion.png"
    }
  ],
  "materials": [
    {
      "doubleSided": true,
      "extensions": {
        "KHR_materials_pbrSpecularGlossiness": {
          "diffuseFactor": [
            1.0,
            1.0,
            1.0,
            1.0
          ],
          "diffuseTexture": {
            "index": 0
          },
          "glossinessFactor": 1.0,
          "specularFactor": [
            1.0,
            1.0,
            1.0
          ],
          "specularGlossinessTexture": {
            "index": 1
          }
        }
      },
      "name": "material_0",
      "normalTexture": {
        "index": 2
      },
      "occlusionTexture": {
        "index": 3
      }
    }
  ],
  "meshes": [
    {
      "name": "Object_0",
      "primitives": [
        {
          "attributes": {
            "NORMAL": 1,
            "POSITION": 0,
            "TANGENT": 2,
            "TEXCOORD_0": 3,
            "TEXCOORD_1": 4,
            "TEXCOORD_2": 5,
            "TEXCOORD_3": 6,
            "TEXCOORD_4": 7
          },
          "indices": 8,
          "material": 0,
          "mode": 4
        }
      ]
    }
  ],
  "nodes": [
    {
      "children": [
        1
      ],
      "matrix": [
        1.0,
        0.0,
        0.0,
        0.0,
        0.0,
        2.220446049250313e-16,
        -1.0,
        0.0,
        0.0,
        1.0,
        2.220446049250313e-16,
        0.0,
        0.0,
        0.0,
        0.0,
        1.0
      ],
      "name": "Sketchfab_model"
    },
    {
      "children": [
        2
      ],
      "name": "root"
    },
    {
      "children": [
        3
      ],
      "matrix": [
        1.0,
        0.0,
        0.0,
        0.0,
        0.0,
        2.220446049250313e-16,
        1.0,
        0.0,
        0.0,
        -1.0,
        2.220446049250313e-16,
        0.0,
        0.0,
        0.0,
        0.0,
        1.0
      ],
      "name": "GLTF_SceneRootNode"
    },
    {
      "children": [
        4
      ],
      "matrix": [
        0.009999999776482582,
        0.0,
        0.0,
        0.0,
        0.0,
        0.009999999776482582,
        0.0,
        0.0,
        0.0,
        0.0,
        0.009999999776482582,
        0.0,
        0.0,
        0.0,
        0.0,
        1.0
      ],
      "name": "RootNode.0_0"
    },
    {
      "children": [
        5
      ],
      "name": "fox.1_1"
    },
    {
      "mesh": 0,
      "name": "Object_5"
    }
  ],
  "samplers": [
    {
      "magFilter": 9729,
      "minFilter": 9987,
      "wrapS": 10497,
      "wrapT": 10497
    }
  ],
  "scene": 0,
  "scenes": [
    {
      "name": "Sketchfab_Scene",
      "nodes": [
        0
      ]
    }
  ],
  "textures": [
    {
      "sampler": 0,
      "source": 0
    },
    {
      "sampler": 0,
      "source": 1
    },
    {
      "sampler": 0,
      "source": 2
    },
    {
      "sampler": 0,
      "source": 3
    }
  ]
}
