# license: Copyright Cyberbotics Ltd. Licensed for use only with Webots, see https://cyberbotics.com/webots_assets_license
o ankle_left
v 0.0180435 -0.0121964 0.0214744
v 0.0180442 -0.0122006 -0.0191612
v -0.0175735 -0.0121994 -0.0191612
v -0.0175742 -0.0121951 0.0214745
v 0.0180458 0.0384658 -0.0141346
v -0.0175718 0.0384671 -0.0141346
v -0.017572 0.0268712 -0.0268364
v -0.0175714 0.0268675 -0.0618517
v 0.0180463 0.0268663 -0.0618511
v 0.0180457 0.0268699 -0.0268358
v -0.0175731 -0.0063734 -0.0268329
v -0.0175725 -0.0063771 -0.0618482
v 0.0180451 -0.0063783 -0.0618476
v 0.0180445 -0.0063747 -0.0268323
v 0.0180443 0.0122078 0.0214719
v -0.0175733 0.012209 0.0214719
v -0.0175733 0.0122086 0.0173243
v 0.0180444 0.0122073 0.0173243
v 0.0155883 0.0384659 -0.0141344
v -0.0151072 0.038467 -0.0141347
v -0.0151073 0.0122085 0.0173242
v 0.0155882 0.0122074 0.0173245
v -0.0151072 0.0122079 0.0113894
v 0.0155883 0.0122068 0.01139
v 0.015589 0.0324513 0.0113879
v -0.0151065 0.0324524 0.0113873
v -0.0151059 0.0324492 -0.0190551
v 0.0155895 0.0324481 -0.0190548
v 0.0180457 0.032448 -0.0190548
v -0.0175719 0.0324493 -0.0190552
v 0.0155889 0.0324519 0.0173224
v 0.0180451 0.0324518 0.0173222
v -0.0175726 0.0324531 0.0173222
v -0.0151066 0.032453 0.017322
v 0.0180454 0.0384685 0.0113873
v 0.015589 0.0384686 0.0113872
v -0.0151065 0.0384696 0.0113867
v -0.0175722 0.0384697 0.0113866
v -0.0175719 0.0268709 -0.0296622
v -0.0175714 0.0268678 -0.0590251
v 0.0180462 0.0268666 -0.0590245
v 0.0180457 0.0268697 -0.0296616
v -0.0175731 -0.0063737 -0.0296588
v -0.0175726 -0.0063768 -0.0590216
v 0.0180451 -0.006378 -0.059021
v 0.0180445 -0.006375 -0.0296581
v -0.0125418 0.0326944 -0.0590256
v -0.0125423 0.0326975 -0.0296628
v 0.012852 0.0326966 -0.0296623
v 0.0128525 0.0326935 -0.0590252
v -0.0125434 -0.0122037 -0.0590209
v -0.0125439 -0.0122006 -0.0296581
v 0.0128504 -0.0122015 -0.0296576
v 0.0128509 -0.0122046 -0.0590205
v 0.012851 -0.0122049 -0.0618471
v 0.0128504 -0.0122012 -0.0268318
v 0.0128525 0.0326932 -0.0618518
v 0.0128519 0.0326969 -0.0268365
v -0.0125433 -0.012204 -0.0618475
v -0.0125417 0.0326941 -0.0618522
v -0.0125424 0.0326978 -0.026837
v -0.0125439 -0.0122003 -0.0268323
v -0.0097551 0.0087803 -0.0157662
v -0.0097549 0.0087788 -0.0307525
v -0.0097547 0.0147396 -0.0307532
v -0.0097549 0.0147411 -0.0157668
v 0.0100627 0.0087796 -0.0157659
v 0.010063 0.008778 -0.0307522
v 0.0100632 0.0147388 -0.0307528
v 0.0100629 0.0147404 -0.0157665
v 0.0100635 0.0318247 -0.0157683
v 0.0100637 0.0318232 -0.0307546
v 0.0100635 0.0258624 -0.030754
v 0.0100633 0.0258639 -0.0157676
v -0.0097544 0.0318255 -0.0157686
v -0.0097541 0.0318239 -0.030755
v -0.0097543 0.0258631 -0.0307543
v -0.0097546 0.0258647 -0.015768
vn 1.0 -0.0 0.0
vn -1.0 0.0 -0.0
vn 0.0 1.0 -0.0001
vn -1.0 -0.0001 0.0
vn 0.0 0.633 -0.7742
vn 0.0 0.0024 -1.0
vn 0.0001 0.633 -0.7741
vn -1.0 -0.0002 0.0
vn -0.0 -1.0 0.0001
vn 0.0 -0.0001 -1.0
vn -0.757 0.6534 -0.0001
vn 0.0 0.0001 1.0
vn -0.757 -0.6534 0.0001
vn -0.757 -0.6534 0.0
vn 0.7465 0.6654 -0.0
vn 0.7465 -0.6654 0.0001
vn 0.7465 0.6654 -0.0001
vn 0.0 0.7023 0.7119
vn 0.0001 0.7023 0.7119
vn 1.0 0.0002 0.0
vn 1.0 0.0001 -0.0
vn 0.0001 0.0001 1.0
f 1//1 2//1 15//1
f 16//2 3//2 4//2
f 2//1 18//1 15//1
f 3//2 16//2 17//2
f 17//3 16//3 21//3
f 22//3 15//3 18//3
f 23//1 26//1 34//1
f 28//4 25//2 36//4
f 6//5 20//5 27//5
f 5//5 28//5 19//5
f 5//5 29//5 28//5
f 2//6 28//6 29//6
f 2//1 29//1 18//1
f 6//5 27//5 30//7
f 3//6 30//6 27//6
f 3//2 17//2 30//2
f 34//1 26//1 37//1
f 36//4 25//2 31//2
f 34//1 21//1 23//1
f 36//4 19//8 28//4
f 32//1 18//1 29//1
f 38//2 6//2 30//2
f 76//2 78//2 75//2
f 76//2 77//2 78//2
f 74//1 72//1 71//1
f 74//1 73//1 72//1
f 78//9 73//9 74//9
f 78//9 77//9 73//9
f 76//3 71//3 72//3
f 76//3 75//3 71//3
f 65//3 70//3 69//3
f 65//3 66//3 70//3
f 63//9 68//9 67//9
f 63//9 64//9 68//9
f 67//1 69//1 70//1
f 67//1 68//1 69//1
f 65//2 63//2 66//2
f 65//2 64//2 63//2
f 47//2 52//2 48//2
f 47//2 51//2 52//2
f 57//3 60//3 47//3
f 57//3 47//3 50//3
f 47//3 48//3 49//3
f 47//3 49//3 50//3
f 48//3 58//3 49//3
f 48//3 61//3 58//3
f 56//9 62//9 52//9
f 56//9 52//9 53//9
f 55//9 51//9 59//9
f 55//9 54//9 51//9
f 51//9 54//9 53//9
f 51//9 53//9 52//9
f 39//10 52//10 43//10
f 39//10 48//10 52//10
f 7//11 48//11 39//11
f 7//11 61//11 48//11
f 7//12 62//12 61//12
f 7//12 11//12 62//12
f 11//13 52//13 62//13
f 11//13 43//13 52//13
f 12//14 51//14 44//14
f 12//14 59//14 51//14
f 40//12 51//12 47//12
f 40//12 44//12 51//12
f 8//10 59//10 12//10
f 8//10 60//10 59//10
f 8//11 47//11 60//11
f 8//11 40//11 47//11
f 10//15 49//15 58//15
f 10//15 42//15 49//15
f 10//12 56//12 14//12
f 10//12 58//12 56//12
f 14//16 53//16 46//16
f 14//16 56//16 53//16
f 9//17 50//17 41//15
f 9//17 57//17 50//17
f 13//16 54//16 55//16
f 13//16 45//16 54//16
f 9//10 13//10 55//10
f 9//10 55//10 57//10
f 41//12 54//12 45//12
f 41//12 50//12 54//12
f 56//12 58//12 61//12
f 56//12 61//12 62//12
f 57//10 55//10 59//10
f 57//10 59//10 60//10
f 49//1 53//1 54//1
f 49//1 54//1 50//1
f 41//1 13//1 9//1
f 41//1 45//1 13//1
f 10//1 46//1 42//1
f 10//1 14//1 46//1
f 39//2 11//2 7//2
f 39//2 43//2 11//2
f 8//2 44//2 40//2
f 8//2 12//2 44//2
f 37//18 33//18 34//19
f 37//18 38//18 33//18
f 31//18 35//18 36//18
f 31//18 32//19 35//18
f 30//2 17//2 38//2
f 38//2 17//2 33//2
f 29//1 35//1 32//1
f 29//1 5//1 35//1
f 2//6 27//6 28//6
f 2//6 3//6 27//6
f 27//20 20//21 26//1
f 26//1 20//21 37//1
f 25//3 27//3 26//3
f 25//3 28//3 27//3
f 24//2 31//2 25//2
f 24//2 22//2 31//2
f 24//12 26//12 23//12
f 24//12 25//12 26//12
f 15//3 21//3 16//3
f 15//3 22//3 21//3
f 21//3 24//3 23//3
f 21//3 22//3 24//3
f 37//3 6//3 38//3
f 37//3 20//3 6//3
f 35//3 19//3 36//3
f 35//3 5//3 19//3
f 33//22 21//22 34//22
f 33//22 17//12 21//22
f 31//22 18//22 32//22
f 31//22 22//22 18//22
f 4//12 1//12 15//12
f 15//12 16//12 4//12
f 1//9 3//9 2//9
f 1//9 4//9 3//9
f 42//10 46//10 53//10 49//10
