# license: Copyright Cyberbotics Ltd. Licensed for use only with Webots, see https://cyberbotics.com/webots_assets_license
o arm_lower_right
v -0.0213191 -0.0889727 -0.0159976
v -0.0211907 -0.0894324 -0.0247745
v -0.0211913 -0.0894318 -0.0072208
v -0.0201442 -0.0931769 -0.031888
v -0.0201453 -0.0931758 -0.0001069
v -0.0178828 -0.101269 -0.0354476
v -0.0178842 -0.101267 0.0034534
v -0.0133858 -0.11736 -0.0357452
v -0.0133871 -0.117359 0.0037524
v -0.01128 -0.124895 -0.0340932
v -0.0112813 -0.124893 0.0021011
v -0.0102127 -0.128713 -0.0294718
v -0.0102137 -0.128712 -0.0025199
v -0.0101165 -0.129057 -0.0159958
v -0.0247639 -0.0160598 -0.0160003
v -0.0246355 -0.0165196 -0.0288777
v -0.0246364 -0.0165187 -0.0031229
v -0.0235891 -0.0222592 -0.0318905
v -0.0235902 -0.0222581 -0.0001096
v -0.0213276 -0.0232773 -0.0354503
v -0.021329 -0.0232759 0.0034504
v -0.0084512 -0.095859 -0.0414497
v -0.008453 -0.0958572 0.0094558
v -0.018995 -0.0243814 -0.0379737
v -0.0189965 -0.0243799 0.0059741
v -0.0084516 -0.114722 -0.0386015
v -0.0084531 -0.114721 0.0066089
v -0.0033967 -0.0243817 -0.0379737
v -0.0033982 -0.0243802 0.0059752
v -0.003397 -0.0444906 -0.0389514
v -0.0033986 -0.044489 0.0069543
v 0.0014999 -0.0548169 -0.0394535
v 0.0014983 -0.0548152 0.0074574
v 0.0060342 -0.0578967 -0.0396032
v 0.0060326 -0.057895 0.0076077
v 0.0058524 -0.0828969 -0.0408187
v 0.0058507 -0.0828952 0.0088249
v 0.0004111 -0.084165 -0.0408804
v 0.0004094 -0.0841632 0.0088863
v -0.0035792 -0.0870635 -0.0410213
v -0.0035809 -0.0870617 0.0090271
v -0.0052413 -0.0958591 -0.0414497
v -0.0052431 -0.0958573 0.009456
v -0.0052416 -0.114722 -0.0386015
v -0.0052432 -0.114721 0.0066091
v -0.0052418 -0.124895 -0.0340932
v -0.005243 -0.124893 0.0021015
v -0.0052418 -0.128713 -0.0294718
v -0.0052428 -0.128713 -0.0025195
v -0.0052419 -0.129057 -0.0159957
v -0.0052416 -0.114722 -0.0159962
v -0.0052413 -0.0958582 -0.0159968
v -0.003397 -0.0444898 -0.0159986
v -0.0033967 -0.0243809 -0.0159993
v -0.0052413 -0.0959551 -0.0394757
v -0.0052429 -0.0959534 0.007482
v -0.0035792 -0.0871594 -0.0390472
v -0.0035808 -0.0871578 0.0070531
v 0.0004111 -0.0842609 -0.0389063
v 0.0004095 -0.0842594 0.0069122
v 0.0058524 -0.0829929 -0.0388446
v 0.0058508 -0.0829913 0.0068509
v 0.0060342 -0.0579927 -0.0376292
v 0.0060327 -0.0579912 0.0056336
v 0.0014999 -0.0549128 -0.0374794
v 0.0014984 -0.0549114 0.0054834
v -0.003397 -0.0445866 -0.0369774
v -0.0033985 -0.0445851 0.0049802
vn -0.9631 -0.2692 -0.0
vn -0.9631 -0.2692 -0.0001
vn -0.9631 -0.2692 -0.0002
vn -0.5061 -0.0713 -0.8595
vn -0.4851 -0.0923 -0.8696
vn -0.4628 -0.1265 -0.8774
vn -0.4629 -0.1265 0.8773
vn -0.4852 -0.0922 0.8695
vn -0.5062 -0.0712 0.8595
vn -0.4292 -0.1832 -0.8844
vn -0.4007 -0.2149 -0.8907
vn -0.4008 -0.2148 0.8906
vn -0.4293 -0.1831 0.8844
vn -0.3562 -0.294 -0.8869
vn -0.3563 -0.294 0.8869
vn -0.0 -0.0506 -0.9987
vn 0.0 0.0486 -0.9988
vn 0.0001 0.0486 -0.9988
vn 0.0001 0.0486 0.9988
vn -0.0001 0.0486 0.9988
vn -0.0001 -0.0505 0.9987
vn 0.0002 -0.0009 -1.0
vn 0.0001 -0.0008 1.0
vn 0.3629 0.9318 -0.0
vn 0.2999 0.9505 -0.081
vn 0.3627 0.9314 -0.0296
vn 0.3627 0.9314 0.0296
vn 0.2999 0.9505 0.0809
vn 0.5787 0.4593 -0.674
vn 0.5786 0.4593 0.674
vn 0.2128 0.9668 -0.1413
vn 0.2778 0.9534 -0.1177
vn 0.2337 0.9589 -0.161
vn 0.2337 0.9589 0.161
vn 0.2778 0.9534 0.1176
vn 0.2128 0.9668 0.1413
vn 0.2544 0.9501 -0.1806
vn 0.2544 0.9501 0.1805
vn 0.0 1.0 -0.0
vn 1.0 -0.0 -0.0
vn 1.0 -0.0011 0.0
vn 1.0 -0.0011 0.0001
vn 1.0 -0.0 0.0001
vn 0.9957 -0.093 -0.0045
vn 0.9937 -0.1117 -0.0035
vn 0.9937 -0.1117 0.0035
vn 0.9957 -0.093 0.0046
vn 0.9985 -0.0556 0.0
vn 0.9946 -0.1032 0.0126
vn 0.9946 -0.1032 -0.0125
vn 0.9999 -0.0134 0.0
vn 0.0001 -0.0486 -0.9988
vn -0.0 -0.0486 0.9988
vn 0.9037 0.4276 -0.0208
vn 0.9037 0.4276 0.0208
vn 0.5623 0.8259 -0.0402
vn 0.5623 0.8259 0.0401
vn 0.5623 0.8259 0.0402
vn 1.0 -0.0073 0.0004
vn 1.0 -0.0073 -0.0004
vn 0.2272 -0.9727 0.0474
vn 0.2272 -0.9727 -0.0473
vn 0.5881 -0.8078 0.0394
vn 0.5882 -0.8078 0.0394
vn 0.5882 -0.8078 -0.0392
vn 0.9826 -0.1853 0.0091
vn 0.9826 -0.1853 -0.009
vn 0.0002 0.0486 0.9988
vn 0.0002 0.0486 -0.9988
vn -0.0001 -0.1492 0.9888
vn -0.0 -0.1493 -0.9888
vn -0.0001 -0.4051 0.9143
vn 0.0 -0.4052 -0.9142
vn 0.0 -1.0 -0.0
vn -0.0001 -0.9997 0.0256
vn -0.0001 -1.0 0.0
vn -0.0002 -0.9997 0.0256
vn 0.0 -0.9997 -0.0255
vn -0.0002 -0.7707 0.6371
vn -0.0001 -0.7708 0.6371
vn -0.0 -0.7708 0.637
vn 0.0 -0.7709 -0.6369
vn -0.749 -0.0784 0.6579
vn -0.8017 -0.06 0.5947
vn -0.5272 -0.0233 0.8494
vn -0.5272 -0.0233 -0.8494
vn -0.7489 -0.0785 -0.658
vn -0.8016 -0.0601 -0.5948
vn -0.8654 -0.0401 0.4995
vn -0.8812 -0.0389 0.4712
vn -0.8303 -0.0531 0.5548
vn -0.8487 -0.0412 0.5273
vn -0.8653 -0.0401 -0.4996
vn -0.8811 -0.0389 -0.4713
vn -0.8487 -0.0412 -0.5273
vn -0.8302 -0.0531 -0.5549
vn -0.9834 -0.0535 0.1734
vn -0.9914 -0.0518 0.1199
vn -0.9916 -0.0482 0.1204
vn -0.9724 -0.0586 0.2259
vn -0.9914 -0.0518 -0.12
vn -0.9834 -0.0535 -0.1735
vn -0.9915 -0.0482 -0.1205
vn -0.9724 -0.0587 -0.226
vn -0.9989 -0.0475 -0.0
vn -0.9988 -0.0475 0.0101
vn -0.9989 -0.0472 -0.0
vn -0.9966 -0.0481 0.0663
vn -0.9988 -0.0475 -0.0102
vn -0.9966 -0.0481 -0.0664
f 14//1 1//1 2//1
f 3//2 1//1 14//1
f 12//1 14//1 2//1
f 3//2 14//1 13//2
f 12//1 2//1 4//1
f 5//2 3//2 13//2
f 10//1 12//1 4//1
f 5//2 13//2 11//2
f 10//1 4//1 6//1
f 7//2 5//2 11//2
f 8//1 10//1 6//1
f 7//2 11//2 9//3
f 6//4 22//5 8//6
f 9//7 23//8 7//9
f 8//10 22//5 26//11
f 27//12 23//8 9//13
f 8//11 26//11 10//14
f 11//15 27//12 9//12
f 22//16 24//17 28//18
f 29//19 25//20 23//21
f 42//22 22//16 28//18
f 29//19 23//21 43//23
f 15//24 54//25 16//26
f 17//27 54//28 15//24
f 16//29 54//29 18//29
f 19//30 54//30 17//30
f 18//31 54//32 20//33
f 21//34 54//35 19//36
f 20//33 54//32 24//37
f 25//38 54//35 21//34
f 24//39 54//39 28//39
f 29//39 54//39 25//39
f 28//40 67//41 30//40
f 68//42 29//43 31//43
f 42//44 55//45 44//40
f 56//46 43//47 45//43
f 52//48 55//45 57//49
f 56//46 52//48 58//50
f 52//48 45//43 51//40
f 52//48 56//46 45//43
f 44//40 52//48 51//40
f 44//40 55//45 52//48
f 68//42 58//50 53//51
f 58//50 52//48 53//51
f 52//48 57//49 53//51
f 57//49 67//41 53//51
f 53//51 54//40 68//42
f 68//42 54//40 29//43
f 28//40 54//40 67//41
f 67//41 54//40 53//51
f 60//52 58//52 66//52
f 58//52 68//52 66//52
f 67//53 57//53 65//53
f 57//53 59//53 65//53
f 62//52 60//52 64//52
f 60//52 66//52 64//52
f 65//53 59//53 63//53
f 63//53 59//53 61//53
f 68//54 33//54 66//54
f 68//54 31//54 33//54
f 32//55 30//55 67//55
f 32//55 67//55 65//55
f 66//56 35//56 64//56
f 66//56 33//56 35//56
f 34//57 65//57 63//58
f 34//57 32//57 65//57
f 64//59 37//59 62//59
f 64//59 35//59 37//59
f 36//60 63//60 61//60
f 36//60 34//60 63//60
f 62//61 39//61 60//61
f 62//61 37//61 39//61
f 38//62 61//62 59//62
f 38//62 36//62 61//62
f 60//63 41//63 58//63
f 60//63 39//64 41//63
f 40//65 59//65 57//65
f 40//65 38//65 59//65
f 56//46 41//66 43//47
f 56//46 58//50 41//66
f 40//67 55//45 42//44
f 40//67 57//49 55//45
f 41//68 31//19 43//23
f 43//23 31//19 29//19
f 28//18 30//69 42//22
f 42//22 30//69 40//69
f 50//40 51//40 47//43
f 47//43 51//40 45//43
f 44//40 51//40 46//40
f 46//40 51//40 50//40
f 45//70 23//21 27//70
f 45//70 43//23 23//21
f 22//16 44//71 26//71
f 22//16 42//22 44//71
f 45//72 27//72 47//72
f 47//72 27//72 11//72
f 10//73 26//73 46//73
f 46//73 26//73 44//73
f 50//74 49//75 14//76
f 14//76 49//75 13//77
f 12//78 48//78 14//76
f 14//76 48//78 50//74
f 49//79 47//80 13//80
f 13//80 47//80 11//81
f 10//82 46//82 12//82
f 12//82 46//82 48//82
f 25//83 21//84 23//83
f 23//8 21//85 7//9
f 6//4 20//86 22//5
f 22//87 20//88 24//87
f 21//89 5//89 7//90
f 21//91 19//92 5//89
f 4//93 20//93 6//94
f 4//93 18//95 20//96
f 19//97 3//98 5//99
f 19//97 17//100 3//97
f 2//101 18//102 4//103
f 2//102 16//104 18//102
f 1//105 17//106 15//107
f 1//105 3//108 17//106
f 1//105 16//109 2//110
f 1//105 15//107 16//109
f 46//40 50//40 48//40
f 47//43 49//43 50//40
f 38//17 40//69 30//69
f 38//17 30//69 32//17
f 36//17 38//17 32//17
f 36//17 32//17 34//17
f 39//20 31//19 41//68
f 39//20 33//20 31//19
f 37//20 33//20 39//20
f 37//20 35//20 33//20
