# license: Copyright Cyberbotics Ltd. Licensed for use only with Webots, see https://cyberbotics.com/webots_assets_license
o arm_upper_motor_left
v 0.015025 -0.0472413 -0.0225059
v 0.0150258 -0.0472414 0.0278522
v 0.0150241 -0.0726356 -0.0225059
v 0.0150249 -0.0726357 0.0278522
v 0.0106211 -0.0726355 0.0278523
v 0.010622 -0.0472412 0.0278522
v 0.0106203 -0.0726354 -0.0225058
v 0.0106212 -0.0472412 -0.0225058
v 0.0106208 -0.0778295 0.0219381
v 0.0106221 -0.0422118 0.0219381
v 0.0106202 -0.0778294 -0.0165917
v 0.0106215 -0.0422117 -0.0165917
v 0.0150246 -0.0778296 0.0219381
v 0.0150258 -0.042212 0.021938
v 0.015024 -0.0778295 -0.0165917
v 0.0150252 -0.0422119 -0.0165917
v -0.0102096 -0.0422114 -0.0165917
v -0.0102108 -0.0778291 -0.0165917
v -0.010209 -0.0422115 0.0219381
v -0.0102102 -0.0778292 0.0219381
v -0.0146133 -0.0422113 -0.0165917
v -0.0146146 -0.0778289 -0.0165917
v -0.0146128 -0.0422114 0.0219381
v -0.014614 -0.077829 0.0219381
v -0.0146136 -0.0472407 -0.0225058
v -0.0146145 -0.072635 -0.0225058
v -0.0146128 -0.0472408 0.0278522
v -0.0146137 -0.0726351 0.0278523
v -0.0102099 -0.0726352 0.0278522
v -0.0102107 -0.0726351 -0.0225059
v -0.0102091 -0.0472409 0.0278522
v -0.0102098 -0.0472408 -0.0225059
v 0.0183641 -0.0726358 0.0278522
v 0.0183633 -0.0726357 -0.0225059
v 0.018365 -0.0472415 0.0278521
v 0.0183642 -0.0472414 -0.0225059
v -0.0176104 -0.072635 0.0278523
v -0.0176095 -0.0472407 0.0278523
v -0.0176112 -0.0726349 -0.0225057
v -0.0176103 -0.0472406 -0.0225058
v -0.0124886 0.0116459 -0.018096
v 0.0129057 0.011645 -0.0180965
v -0.0124903 -0.0387122 -0.0180961
v 0.012904 -0.038713 -0.0180966
v -0.0124884 0.0116454 0.0178784
v -0.0124901 -0.0387126 0.0178783
v 0.0129058 0.0116445 0.0178779
v 0.0129042 -0.0387135 0.0178778
v -0.0124885 0.0116459 -0.0106956
v -0.0124902 -0.0387122 -0.0106957
v 0.0129058 0.011645 -0.0106961
v 0.0129041 -0.0387131 -0.0106962
v 0.0129041 -0.0387131 -0.0150999
v -0.0124902 -0.0387122 -0.0150995
v 0.0129057 0.011645 -0.0150998
v -0.0124885 0.0116459 -0.0150994
v 0.0180982 -0.0327991 -0.0151
v -0.0175194 -0.0327978 -0.0150994
v 0.0180995 0.0057307 -0.0150999
v -0.0175182 0.0057319 -0.0150993
v 0.0180983 -0.0327991 -0.0106963
v -0.0175194 -0.0327979 -0.0106956
v 0.0180995 0.0057306 -0.0106962
v -0.0175181 0.0057319 -0.0106955
v -0.0175181 0.0057314 0.0145393
v 0.0180995 0.0057302 0.0145386
v -0.0175194 -0.0327983 0.0145392
v 0.0180983 -0.0327996 0.0145385
v -0.0175182 0.0057315 0.0101355
v 0.0180995 0.0057302 0.0101349
v -0.0175194 -0.0327983 0.0101354
v 0.0180982 -0.0327995 0.0101348
v -0.0124885 0.0116454 0.0101354
v 0.0129057 0.0116446 0.010135
v -0.0124902 -0.0387126 0.0101353
v 0.0129041 -0.0387135 0.0101349
v 0.0129041 -0.0387135 0.0145386
v 0.0129058 0.0116445 0.0145387
v -0.0124902 -0.0387126 0.0145391
v -0.0124885 0.0116454 0.0145392
vn -1.0 0.0 0.0
vn 1.0 -0.0 -0.0
vn -0.0 0.0 -1.0
vn 0.0 -0.0 1.0
vn 0.7514 -0.6599 -0.0
vn 0.7513 -0.6599 -0.0
vn 0.7514 0.6598 -0.0
vn -0.7618 0.6479 0.0
vn -0.7618 -0.6478 0.0
vn 0.7514 0.6599 -0.0
vn -0.0 -1.0 -0.0
vn 0.0 1.0 0.0
vn -0.0 -0.7514 0.6599
vn -0.0 -0.7514 -0.6599
vn -0.0 -0.7618 0.6478
vn -0.0 -0.7618 -0.6478
f 69//1 71//1 67//1
f 69//1 67//1 65//1
f 66//2 68//2 72//2
f 66//2 72//2 70//2
f 72//3 76//3 74//3
f 72//3 74//3 70//3
f 68//4 78//4 77//4
f 68//4 66//4 78//4
f 77//5 76//5 72//5
f 77//5 72//5 68//6
f 70//7 74//7 78//7
f 70//7 78//7 66//7
f 80//8 73//8 69//8
f 80//8 69//8 65//8
f 67//4 79//4 80//4
f 67//4 80//4 65//4
f 73//3 75//3 71//3
f 73//3 71//3 69//3
f 71//9 75//9 79//9
f 71//9 79//9 67//9
f 58//9 54//9 50//9
f 58//9 50//9 62//9
f 56//3 54//3 58//3
f 56//3 58//3 60//3
f 62//4 50//4 49//4
f 62//4 49//4 64//4
f 49//8 56//8 60//8
f 49//8 60//8 64//8
f 59//7 55//10 51//7
f 59//7 51//7 63//7
f 52//5 53//5 57//5
f 52//5 57//5 61//5
f 61//4 51//4 52//4
f 61//4 63//4 51//4
f 57//3 53//3 55//3
f 57//3 55//3 59//3
f 63//2 61//2 57//2
f 63//2 57//2 59//2
f 60//1 58//1 62//1
f 60//1 62//1 64//1
f 48//4 45//4 46//4
f 48//4 47//4 45//4
f 42//3 44//3 43//3
f 42//3 43//3 41//3
f 48//11 43//11 44//11
f 48//11 46//11 43//11
f 47//12 42//12 41//12
f 47//12 41//12 45//12
f 45//1 43//1 46//1
f 45//1 41//1 43//1
f 48//2 44//2 47//2
f 47//2 44//2 42//2
f 33//11 37//11 34//11
f 34//11 37//11 39//11
f 36//12 38//12 35//12
f 36//12 40//12 38//12
f 34//3 39//3 40//3
f 34//3 40//3 36//3
f 33//4 38//4 37//4
f 33//4 35//4 38//4
f 39//1 37//1 38//1
f 39//1 38//1 40//1
f 33//2 36//2 35//2
f 33//2 34//2 36//2
f 21//11 19//11 23//11
f 21//11 17//11 19//11
f 18//11 20//11 24//11
f 18//11 24//11 22//11
f 24//1 28//1 26//1
f 24//1 26//1 22//1
f 20//2 30//2 29//2
f 20//2 18//2 30//2
f 29//13 28//13 24//13
f 29//13 24//13 20//13
f 22//14 26//14 30//14
f 22//14 30//14 18//14
f 32//15 21//15 25//15
f 32//15 17//15 21//15
f 19//1 32//1 31//1
f 19//1 17//1 32//1
f 25//2 23//2 27//2
f 25//2 21//2 23//2
f 23//16 31//16 27//16
f 23//16 19//16 31//16
f 10//16 2//16 6//16
f 10//16 14//16 2//16
f 8//2 10//2 6//2
f 8//2 12//2 10//2
f 1//1 14//1 16//1
f 1//1 2//1 14//1
f 1//15 12//15 8//15
f 1//15 16//15 12//15
f 11//14 7//14 3//14
f 11//14 3//14 15//14
f 4//13 5//13 9//13
f 4//13 9//13 13//13
f 13//2 3//2 4//2
f 13//2 15//2 3//2
f 9//1 5//1 7//1
f 9//1 7//1 11//1
f 15//11 13//11 9//11
f 15//11 9//11 11//11
f 12//11 14//11 10//11
f 12//11 16//11 14//11
