# license: Copyright Cyberbotics Ltd. Licensed for use only with Webots, see https://cyberbotics.com/webots_assets_license
o arm_upper_motor_right
v -0.0150266 -0.0472415 0.0225037
v -0.0150274 -0.0472399 -0.0278544
v -0.0150266 -0.0726358 0.0225028
v -0.0150274 -0.0726342 -0.0278553
v -0.0106236 -0.0726342 -0.0278553
v -0.0106236 -0.0472399 -0.0278545
v -0.0106228 -0.0726359 0.0225027
v -0.0106229 -0.0472416 0.0225036
v -0.0106235 -0.0778283 -0.0219414
v -0.0106235 -0.0422107 -0.0219401
v -0.0106229 -0.0778296 0.0165884
v -0.0106229 -0.0422119 0.0165896
v -0.0150273 -0.0778283 -0.0219413
v -0.0150273 -0.0422107 -0.0219401
v -0.0150267 -0.0778296 0.0165884
v -0.0150267 -0.0422119 0.0165897
v 0.0102081 -0.0422124 0.0165897
v 0.0102081 -0.07783 0.0165884
v 0.0102075 -0.0422111 -0.0219401
v 0.0102075 -0.0778288 -0.0219413
v 0.0146119 -0.0422124 0.0165896
v 0.0146119 -0.07783 0.0165884
v 0.0146113 -0.0422111 -0.0219401
v 0.0146113 -0.0778288 -0.0219414
v 0.014612 -0.047242 0.0225036
v 0.014612 -0.0726363 0.0225027
v 0.0146112 -0.0472403 -0.0278545
v 0.0146112 -0.0726346 -0.0278553
v 0.0102074 -0.0726346 -0.0278553
v 0.0102082 -0.0726363 0.0225028
v 0.0102074 -0.0472403 -0.0278544
v 0.0102082 -0.047242 0.0225037
v -0.0183666 -0.0726342 -0.0278553
v -0.0183658 -0.0726358 0.0225028
v -0.0183666 -0.0472399 -0.0278544
v -0.0183658 -0.0472415 0.0225037
v 0.0176078 -0.0726346 -0.0278554
v 0.0176078 -0.0472403 -0.0278545
v 0.0176086 -0.0726363 0.0225027
v 0.0176086 -0.047242 0.0225035
v 0.012489 0.0116448 0.0180959
v -0.0129053 0.0116448 0.0180963
v 0.0124889 -0.0387132 0.0180942
v -0.0129054 -0.0387132 0.0180947
v 0.0124888 0.0116456 -0.0178785
v 0.0124888 -0.0387125 -0.0178802
v -0.0129054 0.0116456 -0.0178781
v -0.0129055 -0.0387125 -0.0178798
v 0.0124889 0.0116451 0.0106955
v 0.0124888 -0.038713 0.0106938
v -0.0129054 0.011645 0.0106959
v -0.0129055 -0.038713 0.0106943
v -0.0129054 -0.0387131 0.015098
v 0.0124889 -0.0387131 0.0150976
v -0.0129053 0.0116449 0.0150997
v 0.012489 0.0116449 0.0150992
v -0.0180994 -0.032799 0.0150983
v 0.0175183 -0.032799 0.0150977
v -0.0180993 0.0057308 0.0150996
v 0.0175184 0.0057308 0.015099
v -0.0180994 -0.0327989 0.0106946
v 0.0175182 -0.0327988 0.0106939
v -0.0180993 0.0057309 0.0106958
v 0.0175183 0.0057309 0.0106952
v 0.0175183 0.0057313 -0.0145396
v -0.0180993 0.0057313 -0.014539
v 0.0175182 -0.0327984 -0.0145409
v -0.0180994 -0.0327984 -0.0145402
v 0.0175184 0.0057312 -0.0101359
v -0.0180993 0.0057312 -0.0101352
v 0.0175183 -0.0327985 -0.0101371
v -0.0180994 -0.0327985 -0.0101365
v 0.012489 0.0116454 -0.0101356
v -0.0129053 0.0116454 -0.0101351
v 0.0124889 -0.0387127 -0.0101372
v -0.0129054 -0.0387127 -0.0101368
v -0.0129055 -0.0387126 -0.0145406
v -0.0129054 0.0116455 -0.0145389
v 0.0124888 -0.0387126 -0.014541
v 0.0124889 0.0116455 -0.0145393
vn 1.0 -0.0 -0.0
vn -1.0 0.0 0.0
vn 0.0 -0.0 1.0
vn -0.0 0.0 -1.0
vn -0.7514 -0.6599 -0.0
vn -0.7514 0.6599 0.0
vn 0.7618 0.6478 -0.0
vn 0.7618 -0.6478 -0.0
vn -0.0 -1.0 -0.0
vn 0.0 1.0 0.0
vn -0.0 -0.7513 -0.6599
vn -0.0 -0.7514 -0.6599
vn 0.0 -0.7514 0.6598
vn -0.0 -0.7618 -0.6479
vn 0.0 -0.7618 0.6478
f 69//1 71//1 67//1
f 69//1 67//1 65//1
f 66//2 68//2 72//2
f 66//2 72//2 70//2
f 72//3 76//3 74//3
f 72//3 74//3 70//3
f 68//4 78//4 77//4
f 68//4 66//4 78//4
f 77//5 76//5 72//5
f 77//5 72//5 68//5
f 70//6 74//6 78//6
f 70//6 78//6 66//6
f 80//7 73//7 69//7
f 80//7 69//7 65//7
f 67//4 79//4 80//4
f 67//4 80//4 65//4
f 73//3 75//3 71//3
f 73//3 71//3 69//3
f 71//8 75//8 79//8
f 71//8 79//8 67//8
f 58//8 54//8 50//8
f 58//8 50//8 62//8
f 56//3 54//3 58//3
f 56//3 58//3 60//3
f 62//4 50//4 49//4
f 62//4 49//4 64//4
f 49//7 56//7 60//7
f 49//7 60//7 64//7
f 59//6 55//6 51//6
f 59//6 51//6 63//6
f 52//5 53//5 57//5
f 52//5 57//5 61//5
f 61//4 51//4 52//4
f 61//4 63//4 51//4
f 57//3 53//3 55//3
f 57//3 55//3 59//3
f 63//2 61//2 57//2
f 63//2 57//2 59//2
f 60//1 58//1 62//1
f 60//1 62//1 64//1
f 48//4 45//4 46//4
f 48//4 47//4 45//4
f 42//3 44//3 43//3
f 42//3 43//3 41//3
f 48//9 43//9 44//9
f 48//9 46//9 43//9
f 47//10 42//10 41//10
f 47//10 41//10 45//10
f 45//1 43//1 46//1
f 45//1 41//1 43//1
f 48//2 44//2 47//2
f 47//2 44//2 42//2
f 33//9 37//9 34//9
f 34//9 37//9 39//9
f 36//10 38//10 35//10
f 36//10 40//10 38//10
f 34//3 39//3 40//3
f 34//3 40//3 36//3
f 33//4 38//4 37//4
f 33//4 35//4 38//4
f 39//1 37//1 38//1
f 39//1 38//1 40//1
f 33//2 36//2 35//2
f 33//2 34//2 36//2
f 21//9 19//9 23//9
f 21//9 17//9 19//9
f 18//9 20//9 24//9
f 18//9 24//9 22//9
f 24//1 28//1 26//1
f 24//1 26//1 22//1
f 20//2 30//2 29//2
f 20//2 18//2 30//2
f 29//11 28//11 24//11
f 29//11 24//11 20//12
f 22//13 26//13 30//13
f 22//13 30//13 18//13
f 32//14 21//14 25//14
f 32//14 17//14 21//14
f 19//1 32//1 31//1
f 19//1 17//1 32//1
f 25//2 23//2 27//2
f 25//2 21//2 23//2
f 23//15 31//15 27//15
f 23//15 19//15 31//15
f 10//15 2//15 6//15
f 10//15 14//15 2//15
f 8//2 10//2 6//2
f 8//2 12//2 10//2
f 1//1 14//1 16//1
f 1//1 2//1 14//1
f 1//14 12//14 8//14
f 1//14 16//14 12//14
f 11//13 7//13 3//13
f 11//13 3//13 15//13
f 4//12 5//12 9//12
f 4//12 9//12 13//12
f 13//2 3//2 4//2
f 13//2 15//2 3//2
f 9//1 5//1 7//1
f 9//1 7//1 11//1
f 15//9 13//9 9//9
f 15//9 9//9 11//9
f 12//9 14//9 10//9
f 12//9 16//9 14//9
