# license: Copyright Cyberbotics Ltd. Licensed for use only with Webots, see https://cyberbotics.com/webots_assets_license
o body
v 0.0189393 -0.0980656 0.0268584
v -0.0189393 -0.0980656 0.0268584
v 0.0329651 -0.0785909 0.032466
v -0.0329651 -0.0785909 0.032466
v 0.0 -0.0980656 0.0268584
v 0.0 -0.0785909 0.032466
v 0.0 -0.0684064 0.034421
v 0.0 -0.0628994 0.0351729
v 0.0 -0.048721 0.0357745
v 0.0 -0.0344986 0.0356692
v 0.0 -0.0215196 0.0332293
v 0.0 0.0056817 0.0204932
v 0.0 -0.0980656 0.0228699
v 0.0191471 -0.0980656 0.0228699
v -0.0191471 -0.0980656 0.0228699
v 0.0472058 -0.0628994 0.0351729
v -0.0472058 -0.0628994 0.0351729
v 0.0481432 -0.0508762 0.0356895
v -0.0481432 -0.0508762 0.0356895
v 0.048433 -0.0344986 0.0356692
v -0.048433 -0.0344986 0.0356692
v 0.048433 -0.0215196 0.0332293
v -0.048433 -0.0215196 0.0332293
v 0.048433 -0.0079189 0.0277709
v -0.048433 -0.0079189 0.0277709
v 0.048433 0.0056817 0.0204932
v -0.048433 0.0056817 0.0204932
v 0.048433 0.0192564 0.0114116
v -0.048433 0.0192564 0.0114116
v 0.0461024 -0.0684064 0.034421
v -0.0461024 -0.0684064 0.034421
v 0.0254606 -0.0905876 0.0293183
v -0.0254606 -0.0905876 0.0293183
v 0.0 -0.0905876 0.0293183
v 0.0254606 -0.0905876 0.0228699
v -0.0254606 -0.0905876 0.0228699
v 0.0329651 -0.0785909 0.0228699
v -0.0329651 -0.0785909 0.0228699
v 0.0 -0.0905876 0.0228699
v 0.0565076 -0.0905876 -0.0267561
v -0.0565076 -0.0905876 -0.0267561
v 0.0565076 -0.0514098 -0.0764782
v -0.0565076 -0.0514098 -0.0764782
v 0.0565076 -0.0212185 -0.0764782
v -0.0565076 -0.0212185 -0.0764782
v 0.0565076 -0.0063517 -0.0764782
v -0.0565076 -0.0063517 -0.0764782
v 0.0565076 0.0256694 -0.0620687
v -0.0565076 0.0256694 -0.0620687
v 0.0565076 0.0273448 -0.0374196
v -0.0565076 0.0273448 -0.0374196
v 0.0485225 0.02405 -0.0331857
v -0.0485225 0.02405 -0.0331857
v 0.0 0.0256694 -0.0620687
v 0.0 0.0273448 -0.0374196
v 0.0 0.02405 -0.0331857
v 0.0504399 -0.0876542 -0.0306215
v -0.0504399 -0.0876542 -0.0306215
v 0.0504399 -0.0559821 -0.0707385
v -0.0504399 -0.0559821 -0.0707385
v 0.0504399 -0.0875412 -0.0707385
v -0.0504399 -0.0875412 -0.0707385
v 0.0 -0.0875412 -0.0707385
v 0.0 -0.0559821 -0.0707385
v 0.0 -0.0876542 -0.0306215
v 0.0 -0.0514098 -0.0764782
v 0.0 -0.0905876 -0.0266996
v 0.0565076 -0.0628994 -0.0331857
v -0.0565076 -0.0628994 -0.0331857
v 0.0565076 0.0262925 -0.0529012
v -0.0565076 0.0262925 -0.0529012
v 0.0565076 -0.0063517 -0.0591835
v -0.0565076 -0.0063517 -0.0591835
v 0.0565076 -0.0027423 -0.0545215
v -0.0565076 -0.0027423 -0.0545215
v 0.0565076 0.0019197 -0.0530176
v -0.0565076 0.0019197 -0.0530176
v 0.0 -0.0063517 -0.0764782
v 0.0626992 -0.0212185 -0.0764782
v -0.0626992 -0.0212185 -0.0764782
v 0.0626992 -0.0628994 -0.0331857
v -0.0626992 -0.0628994 -0.0331857
v 0.0626992 0.0273448 -0.0374196
v -0.0626992 0.0273448 -0.0374196
v 0.0626992 0.0262925 -0.0529012
v -0.0626992 0.0262925 -0.0529012
v 0.0626992 -0.0063517 -0.0764782
v -0.0626992 -0.0063517 -0.0764782
v 0.0626992 -0.0063517 -0.0591835
v -0.0626992 -0.0063517 -0.0591835
v 0.0626992 -0.0027423 -0.0545215
v -0.0626992 -0.0027423 -0.0545215
v 0.0626992 0.0019197 -0.0530176
v -0.0626992 0.0019197 -0.0530176
v 0.0565076 -0.0628994 0.0295758
v -0.0565076 -0.0628994 0.0295758
v 0.0565076 -0.0296561 0.0295758
v -0.0565076 -0.0296561 0.0295758
v 0.0565076 -0.0215196 0.0270637
v -0.0565076 -0.0215196 0.0270637
v 0.0565076 -0.0079189 0.0216054
v -0.0565076 -0.0079189 0.0216054
v 0.0565076 0.0056817 0.0143276
v -0.0565076 0.0056817 0.0143276
v 0.0565076 0.0152688 0.0052461
v -0.0565076 0.0152688 0.0052461
v 0.0565076 0.0200374 -0.0331857
v -0.0565076 0.0200374 -0.0331857
v 0.0626992 0.02405 -0.0331857
v -0.0626992 0.02405 -0.0331857
v 0.0565076 -0.0296561 -0.0070197
v -0.0565076 -0.0296561 -0.0070197
v 0.0565076 -0.0254794 -0.0151742
v -0.0565076 -0.0254794 -0.0151742
v 0.0565076 -0.0181205 -0.0241241
v -0.0565076 -0.0181205 -0.0241241
v 0.0565076 -0.0183194 -0.0331857
v -0.0565076 -0.0183194 -0.0331857
v 0.0601226 -0.0296561 -0.0070197
v -0.0601226 -0.0296561 -0.0070197
v 0.0609281 -0.0254794 -0.0151742
v -0.0609281 -0.0254794 -0.0151742
v 0.0618122 -0.0181205 -0.0241241
v -0.0618122 -0.0181205 -0.0241241
v 0.0626992 -0.0183194 -0.0331857
v -0.0626992 -0.0183194 -0.0331857
v 0.0565076 0.02405 -0.0331857
v -0.0565076 0.02405 -0.0331857
v 0.0524385 -0.0905876 0.0160386
v -0.0524385 -0.0905876 0.0160386
v 0.0565076 -0.0905876 -0.0045579
v -0.0565076 -0.0905876 -0.0045579
v 0.0329651 -0.0905876 0.0228699
v -0.0329651 -0.0905876 0.0228699
v 0.0550535 -0.0905876 0.009958
v -0.0550535 -0.0905876 0.009958
v 0.0464127 -0.0905876 0.0202971
v -0.0464127 -0.0905876 0.0202971
v 0.0565076 -0.0628994 -0.0045579
v -0.0565076 -0.0628994 -0.0045579
v 0.0550535 -0.0628994 0.009958
v -0.0550535 -0.0628994 0.009958
v 0.0524385 -0.0628994 0.0160386
v -0.0524385 -0.0628994 0.0160386
v 0.0464127 -0.0628994 0.0202971
v -0.0464127 -0.0628994 0.0202971
v 0.0162656 -0.0079189 0.0277709
v -0.0162656 -0.0079189 0.0277709
v 0.0200508 0.0056817 0.0204932
v -0.0200508 0.0056817 0.0204932
v 0.0131798 -0.01695 0.0314025
v -0.0131798 -0.01695 0.0314025
v 0.0131798 -0.0171972 0.0298751
v -0.0131798 -0.0171972 0.0298751
v 0.0162656 -0.0080763 0.0264755
v -0.0162656 -0.0080763 0.0264755
v 0.0 -0.0080763 0.0264755
v 0.0 -0.0215519 0.0315845
v 0.0344736 -0.0344986 0.0356692
v -0.0344736 -0.0344986 0.0356692
v 0.0326947 -0.0439508 0.0357404
v -0.0326947 -0.0439508 0.0357404
v 0.048433 -0.026173 0.0341371
v -0.048433 -0.026173 0.0341371
v 0.0524828 -0.0320698 0.032613
v -0.0524828 -0.0320698 0.032613
v 0.0523586 -0.023864 0.0309799
v -0.0523586 -0.023864 0.0309799
v 0.0520988 -0.023936 0.0292534
v -0.0520988 -0.023936 0.0292534
v 0.0521645 -0.0322226 0.0307246
v -0.0521645 -0.0322226 0.0307246
v 0.0481146 -0.0263258 0.0322488
v -0.0481146 -0.0263258 0.0322488
v 0.0323763 -0.0441037 0.0338521
v -0.0323763 -0.0441037 0.0338521
v 0.0341552 -0.0346514 0.0337809
v -0.0341552 -0.0346514 0.0337809
v 0.0481146 -0.0346514 0.0337809
v -0.0481146 -0.0346514 0.0337809
v 0.0389696 -0.048721 0.0357745
v -0.0389696 -0.048721 0.0357745
v 0.0342575 -0.0594493 0.0353214
v -0.0342575 -0.0594493 0.0353214
v 0.0482032 -0.0445659 0.0357406
v -0.0482032 -0.0445659 0.0357406
v 0.0524493 -0.041828 0.0325327
v -0.0524493 -0.041828 0.0325327
v 0.0529358 -0.0478391 0.0321861
v -0.0529358 -0.0478391 0.0321861
v 0.0482032 -0.0445659 0.0341924
v -0.0482032 -0.0445659 0.0341924
v 0.0524493 -0.041828 0.0309845
v -0.0524493 -0.041828 0.0309845
v 0.0481432 -0.0508762 0.0341413
v -0.0481432 -0.0508762 0.0341413
v 0.0342575 -0.0594493 0.0337732
v -0.0342575 -0.0594493 0.0337732
v 0.0389696 -0.048721 0.0342264
v -0.0389696 -0.048721 0.0342264
v 0.0529358 -0.0478391 0.030638
v -0.0529358 -0.0478391 0.030638
v 0.0 0.012601 0.015873
v 0.0114012 0.012601 0.015873
v -0.0114012 0.012601 0.015873
v 0.0216046 0.0142981 0.0147398
v -0.0216046 0.0142981 0.0147398
v 0.0290115 0.0174409 0.0126413
v -0.0290115 0.0174409 0.0126413
v 0.0312412 0.0192564 0.0114116
v -0.0312412 0.0192564 0.0114116
v 0.0 0.0192564 0.015873
v 0.0114012 0.0192564 0.015873
v -0.0114012 0.0192564 0.015873
v 0.0216046 0.0192564 0.0147398
v -0.0216046 0.0192564 0.0147398
v 0.0290115 0.0192564 0.0126413
v -0.0290115 0.0192564 0.0126413
v 0.0 0.0192564 0.0114116
vn 0.0 -0.0892 0.996
vn 0.0 -0.0736 0.9973
vn 0.0 -0.1531 0.9882
vn 0.0 -0.1708 0.9853
vn 0.0 -0.2213 0.9752
vn 1.0 0.0 0.0
vn -1.0 0.0 0.0
vn 0.0 0.9977 -0.0678
vn 0.0 0.0 -1.0
vn 0.51 -0.1463 0.8476
vn 0.5521 -0.0733 0.8305
vn 0.5531 -0.0384 0.8323
vn -0.5531 -0.0384 0.8323
vn -0.5521 -0.0733 0.8305
vn -0.51 -0.1463 0.8476
vn 0.5035 -0.2151 0.8368
vn -0.5035 -0.2151 0.8368
vn 0.4721 0.8756 0.102
vn 0.4463 0.8881 0.1102
vn -0.4463 0.8881 0.1102
vn -0.4721 0.8756 0.102
vn 0.4974 0.8624 0.0937
vn -0.4974 0.8624 0.0937
vn 0.0 1.0 0.0
vn 0.9998 0.0 0.0195
vn 0.9969 -0.0001 0.0785
vn -0.9969 -0.0001 0.0785
vn -0.9998 0.0 0.0195
vn 0.9952 -0.0002 0.0982
vn 0.9952 -0.0001 0.0982
vn -0.9952 -0.0001 0.0982
vn -0.9952 -0.0002 0.0982
vn 0.9952 -0.0001 0.0978
vn -0.9952 -0.0001 0.0978
vn 0.9988 0.0 0.0492
vn -0.9988 0.0 0.0492
vn 0.0 0.0 1.0
vn 0.0 0.9998 -0.0219
vn -0.0 0.7724 0.6351
vn -0.0 0.89 0.4559
vn 0.0 0.7892 0.6141
vn 0.0 0.0048 -1.0
vn 0.0 0.307 -0.9517
vn 0.0 0.7907 -0.6122
vn 0.0 -0.7204 -0.6936
vn 0.0 0.4104 -0.9119
vn 0.0049 -0.7943 -0.6075
vn 0.007 -0.7891 -0.6142
vn -0.0 -0.7989 -0.6014
vn -0.007 -0.7891 -0.6142
vn -0.0049 -0.7943 -0.6075
vn -0.0 -0.8008 -0.599
vn 0.0054 -0.7837 -0.6212
vn 0.0 -0.7822 -0.6231
vn 0.0032 -0.7838 -0.621
vn -0.0032 -0.7838 -0.621
vn -0.0054 -0.7837 -0.6212
vn 0.0 -1.0 -0.0028
vn 0.8478 -0.5303 0.0
vn 0.8187 -0.5742 0.0
vn -0.8478 -0.5303 0.0
vn -0.8187 -0.5742 0.0
vn 0.7905 -0.6124 0.0133
vn -0.7905 -0.6124 0.0133
vn 0.7588 -0.6511 0.0199
vn -0.7588 -0.6511 0.0199
vn 0.7635 -0.6446 0.0398
vn -0.7635 -0.6446 0.0398
vn 0.0 -0.293 0.9561
vn 0.0 -0.3125 0.9499
vn 0.0 -0.2735 0.9619
vn 0.0 -1.0 0.0
vn 0.0944 0.0 0.9955
vn 0.1258 0.0 0.9921
vn -0.1258 0.0 0.9921
vn -0.0944 0.0 0.9955
vn 0.5542 -0.5738 -0.603
vn -0.5542 -0.5738 -0.603
vn 0.5675 -0.8197 0.0773
vn 0.5173 -0.8419 0.154
vn -0.5173 -0.8419 0.154
vn -0.5675 -0.8197 0.0773
vn 0.6127 -0.7903 0.0
vn -0.6127 -0.7903 0.0
vn 0.0 0.1261 0.992
vn -0.0016 0.2342 0.9722
vn -0.0 0.309 0.9511
vn 0.0016 0.2342 0.9722
vn 0.0005 0.3963 0.9181
vn -0.0005 0.3963 0.9181
vn 0.0 0.9994 0.0357
vn 0.0 0.9943 0.1069
vn 0.0 0.5004 0.8658
vn 0.0 0.4395 0.8983
vn 0.0 0.556 0.8312
vn 0.0 0.5091 0.8607
vn 0.0011 0.3695 0.9292
vn -0.0011 0.3695 0.9292
vn 0.0 0.3824 0.924
vn 0.0 0.3676 0.93
vn 0.0021 0.3519 0.936
vn -0.0021 0.3519 0.936
vn 0.0 0.3545 0.9351
vn -0.9566 0.2886 -0.0392
vn -0.9671 0.2527 -0.0307
vn -0.9593 0.2803 -0.0341
vn 0.9593 0.2803 -0.0341
vn 0.9671 0.2527 -0.0307
vn 0.9566 0.2886 -0.0392
vn -0.0016 0.0982 0.9952
vn 0.0016 0.0982 0.9952
vn 0.0 -0.0125 0.9999
vn 0.0001 0.0073 1.0
vn -0.0001 0.0073 1.0
vn -0.0065 0.1915 0.9815
vn 0.0065 0.1915 0.9815
vn 0.5673 0.2043 0.7978
vn 0.5594 0.2061 0.8029
vn 0.5845 0.273 0.7641
vn -0.5845 0.273 0.7641
vn -0.5594 0.2061 0.8029
vn -0.5673 0.2043 0.7978
vn 0.5769 0.2366 0.7818
vn -0.5769 0.2366 0.7818
vn 0.5605 0.1586 0.8129
vn -0.5605 0.1586 0.8129
vn 0.5771 0.1037 0.81
vn 0.5247 0.1738 0.8334
vn -0.5247 0.1738 0.8334
vn -0.5771 0.1037 0.81
vn 0.5347 0.1524 0.8312
vn 0.5341 0.1519 0.8316
vn -0.5347 0.1524 0.8312
vn -0.5341 0.1519 0.8316
vn 0.0 0.0946 0.9955
vn 0.0 0.181 0.9835
vn 0.5352 0.1529 0.8307
vn -0.5352 0.1529 0.8307
vn 0.0 0.0075 1.0
vn 0.0001 -0.0092 1.0
vn -0.0001 -0.0092 1.0
vn -0.0 -0.0426 0.9991
vn 0.0003 0.0071 1.0
vn 0.0003 0.0073 1.0
vn -0.0003 0.0073 1.0
vn -0.0003 0.0071 1.0
vn 0.6059 -0.0084 0.7955
vn 0.6058 -0.0085 0.7956
vn 0.6055 -0.0082 0.7958
vn -0.6055 -0.0082 0.7958
vn -0.6058 -0.0085 0.7956
vn -0.6059 -0.0084 0.7955
vn 0.5943 -0.0026 0.8042
vn 0.5998 -0.0055 0.8002
vn -0.5998 -0.0055 0.8002
vn -0.5943 -0.0026 0.8042
vn 0.5891 0.0003 0.808
vn 0.5656 -0.0256 0.8243
vn -0.5656 -0.0256 0.8243
vn -0.5891 0.0003 0.808
vn 0.5789 0.0417 0.8143
vn -0.5789 0.0417 0.8143
vn 0.0 -0.0429 0.9991
vn 0.5984 -0.0048 0.8012
vn 0.5951 -0.0122 0.8036
vn -0.5951 -0.0122 0.8036
vn -0.5984 -0.0048 0.8012
vn 0.6017 0.0027 0.7987
vn -0.6017 0.0027 0.7987
vn 0.0034 -0.0251 0.9997
vn -0.0006 -0.0419 0.9991
vn 0.0006 -0.0419 0.9991
vn -0.0034 -0.0251 0.9997
vn 0.0074 -0.0082 0.9999
vn -0.0074 -0.0082 0.9999
vn 0.4829 -0.0 0.8757
vn -0.4829 0.0 0.8757
vn 0.0 0.4528 0.8916
vn 0.165 0.0 0.9863
vn 0.2726 -0.0 0.9621
vn 0.2192 -0.0 0.9757
vn -0.2192 0.0 0.9757
vn -0.2726 0.0 0.9621
vn -0.165 0.0 0.9863
vn 0.0737 0.0 0.9973
vn 0.0368 0.0 0.9993
vn -0.0368 0.0 0.9993
vn -0.0737 0.0 0.9973
vn 0.9156 -0.4021 0.0
vn -0.9156 -0.4021 0.0
vn -0.9967 -0.0807 0.0
vn 0.9967 -0.0807 0.0
vn -0.5303 0.8478 0.0
vn -0.5353 0.8447 0.0
vn 0.5303 0.8478 0.0
vn 0.5353 0.8447 0.0
vn 0.4553 -0.8903 0.0
vn 0.4104 -0.9119 0.0
vn -0.4104 -0.9119 0.0
vn -0.4553 -0.8903 0.0
vn 0.4993 -0.8664 0.0
vn -0.4993 -0.8664 0.0
vn -0.5253 0.8509 0.0
vn 0.5253 0.8509 -0.0
vn 0.5419 -0.8404 0.0
vn -0.5419 -0.8404 0.0
vn -0.5147 0.8572 0.0174
vn -0.5102 0.8599 0.0164
vn 0.5102 0.8599 0.0164
vn 0.5147 0.8572 0.0174
vn 0.9716 -0.184 -0.1489
vn -0.9716 -0.184 -0.1489
vn 0.5047 -0.8631 -0.0153
vn 0.5108 -0.8595 -0.0166
vn 0.5033 -0.8638 -0.0213
vn -0.5033 -0.8638 -0.0213
vn -0.5108 -0.8595 -0.0166
vn -0.5047 -0.8631 -0.0153
vn -0.5057 0.8626 0.0154
vn 0.5057 0.8626 0.0154
vn 0.4958 -0.8681 -0.0259
vn -0.4958 -0.8681 -0.0259
vn 0.4929 -0.8693 -0.0379
vn -0.4929 -0.8693 -0.0379
vn -0.9862 0.0179 0.1648
vn -0.9875 0.0182 0.1564
vn 0.9875 0.0182 0.1564
vn 0.9862 0.0179 0.1648
vn -0.9888 0.0184 0.148
vn 0.9888 0.0184 0.148
vn -0.9509 0.3064 -0.0434
vn -0.951 0.3051 -0.0494
vn 0.951 0.3051 -0.0494
vn 0.9509 0.3064 -0.0434
vn -0.3295 0.9403 -0.0849
vn -0.3298 0.9439 -0.0185
vn 0.3298 0.9439 -0.0185
vn 0.3295 0.9403 -0.0849
vn -0.3277 0.9326 -0.1509
vn 0.3277 0.9326 -0.1509
vn 0.5722 0.3334 0.7493
vn -0.5722 0.3334 0.7493
vn 0.5656 0.3626 0.7407
vn -0.5656 0.3626 0.7407
vn 0.5514 0.4178 0.7221
vn -0.5514 0.4178 0.7221
vn 0.5477 0.4308 0.7172
vn -0.5477 0.4308 0.7172
vn 0.5358 0.4695 0.7018
vn -0.5358 0.4695 0.7018
vn 0.6665 0.5127 0.5412
vn -0.6665 0.5127 0.5412
vn 0.9988 0.0 0.0499
vn -0.9988 0.0 0.0499
vn 0.5771 0.0 0.8166
vn -0.5771 0.0 0.8166
vn 0.1879 0.0 0.9822
vn -0.1879 0.0 0.9822
vn 0.9187 0.0 0.3951
vn -0.9187 0.0 0.3951
vn 0.995 0.0 0.0997
vn -0.995 0.0 0.0997
f 16//1 8//2 7//3
f 7//3 8//2 17//1
f 30//4 6//5 3//5
f 4//5 6//5 31//4
f 30//4 7//3 6//5
f 6//5 7//3 31//4
f 7//3 30//4 16//1
f 17//1 31//4 7//3
f 57//6 61//6 59//6
f 60//7 62//7 58//7
f 42//6 44//6 68//6
f 69//7 45//7 43//7
f 70//8 54//8 55//8
f 55//8 54//8 71//8
f 48//8 54//8 70//8
f 71//8 54//8 49//8
f 70//8 55//8 50//8
f 51//8 55//8 71//8
f 40//6 42//6 68//6
f 69//7 43//7 41//7
f 46//9 44//9 78//9
f 78//9 45//9 47//9
f 16//10 95//11 18//12
f 19//13 96//14 17//15
f 16//10 30//16 95//10
f 96//15 31//17 17//15
f 52//18 105//18 107//19
f 108//20 106//21 53//21
f 87//6 89//6 79//6
f 80//7 90//7 88//7
f 93//6 109//6 91//6
f 92//7 110//7 94//7
f 83//6 109//6 93//6
f 94//7 110//7 84//7
f 83//6 93//6 85//6
f 86//7 94//7 84//7
f 28//22 105//18 52//18
f 53//21 106//21 29//23
f 72//6 46//6 76//6
f 77//7 47//7 73//7
f 72//6 76//6 74//6
f 75//7 77//7 73//7
f 48//6 70//6 76//6
f 77//7 71//7 49//7
f 48//6 76//6 46//6
f 47//7 77//7 49//7
f 97//24 119//24 111//24
f 112//24 120//24 98//24
f 125//25 81//26 79//6
f 80//7 82//27 126//28
f 109//6 125//25 91//6
f 92//7 126//28 110//7
f 79//6 89//6 125//25
f 126//28 90//7 80//7
f 89//6 91//6 125//25
f 126//28 92//7 90//7
f 121//29 119//30 81//26
f 82//27 120//31 122//32
f 123//33 121//29 81//26
f 82//27 122//32 124//34
f 125//25 123//33 81//26
f 82//27 124//34 126//28
f 111//6 113//6 115//6
f 116//7 114//7 112//7
f 115//6 101//6 99//6
f 100//7 102//7 116//7
f 99//6 97//35 111//6
f 112//7 98//36 100//7
f 99//6 111//6 115//6
f 116//7 112//7 100//7
f 115//6 117//6 107//6
f 108//7 118//7 116//7
f 115//6 107//6 105//6
f 106//7 108//7 116//7
f 103//6 101//6 115//6
f 116//7 102//7 104//7
f 103//6 115//6 105//6
f 106//7 116//7 104//7
f 125//37 109//37 107//37
f 108//37 110//37 126//37
f 125//37 107//37 117//37
f 118//37 108//37 126//37
f 95//30 81//26 119//30
f 120//31 82//27 96//31
f 95//30 119//30 97//35
f 98//36 120//31 96//31
f 115//38 123//38 117//38
f 118//38 124//38 116//38
f 123//38 125//38 117//38
f 118//38 126//38 124//38
f 113//39 121//39 115//39
f 116//39 122//39 114//39
f 121//39 123//39 115//39
f 116//39 124//39 122//39
f 111//40 119//40 113//40
f 114//40 120//40 112//40
f 119//40 121//40 113//40
f 114//40 122//40 120//40
f 50//41 109//41 83//41
f 84//41 110//41 51//41
f 44//9 46//9 87//9
f 88//9 47//9 45//9
f 44//9 87//9 79//9
f 80//9 88//9 45//9
f 76//42 70//42 85//42
f 86//42 71//42 77//42
f 76//42 85//42 93//42
f 94//42 86//42 77//42
f 74//43 76//43 93//43
f 94//43 77//43 75//43
f 74//43 93//43 91//43
f 92//43 94//43 75//43
f 72//44 74//44 91//44
f 92//44 75//44 73//44
f 72//44 91//44 89//44
f 90//44 92//44 73//44
f 46//24 72//24 89//24
f 90//24 73//24 47//24
f 46//24 89//24 87//24
f 88//24 90//24 47//24
f 50//8 85//8 70//8
f 71//8 86//8 51//8
f 50//8 83//8 85//8
f 86//8 84//8 51//8
f 68//45 44//45 79//45
f 80//45 45//45 69//45
f 68//45 79//45 81//45
f 82//45 80//45 69//45
f 46//46 78//46 54//46
f 54//46 78//46 47//46
f 46//46 54//46 48//46
f 49//46 54//46 47//46
f 42//9 66//9 44//9
f 45//9 66//9 43//9
f 66//9 78//9 44//9
f 45//9 78//9 66//9
f 57//47 40//48 67//49
f 67//49 41//50 58//51
f 57//47 67//49 65//52
f 65//52 67//49 58//51
f 59//53 66//54 42//55
f 43//56 66//54 60//57
f 59//53 64//54 66//54
f 66//54 64//54 60//57
f 57//58 63//58 61//58
f 62//58 63//58 58//58
f 57//58 65//58 63//58
f 63//58 65//58 58//58
f 61//9 64//9 59//9
f 60//9 64//9 62//9
f 61//9 63//9 64//9
f 64//9 63//9 62//9
f 57//47 59//53 40//48
f 41//50 60//57 58//51
f 59//53 42//55 40//48
f 41//50 43//56 60//57
f 52//41 50//41 55//41
f 55//41 51//41 53//41
f 52//41 55//41 56//41
f 56//41 55//41 53//41
f 13//9 39//9 14//9
f 15//9 39//9 13//9
f 14//9 39//9 35//9
f 36//9 39//9 15//9
f 3//59 32//60 37//59
f 38//61 33//62 4//61
f 37//59 32//60 35//63
f 36//64 33//62 38//61
f 1//65 35//63 32//60
f 33//62 36//64 2//66
f 1//65 14//67 35//63
f 36//64 15//68 2//66
f 34//69 1//70 32//71
f 33//71 2//70 34//69
f 1//70 34//69 5//70
f 5//70 34//69 2//70
f 3//5 6//5 32//71
f 33//71 6//5 4//5
f 32//71 6//5 34//69
f 34//69 6//5 33//71
f 14//72 1//72 5//72
f 5//72 2//72 15//72
f 5//72 13//72 14//72
f 15//72 13//72 5//72
f 107//37 127//37 52//37
f 53//37 128//37 108//37
f 127//41 50//41 52//41
f 53//41 51//41 128//41
f 107//37 109//37 127//37
f 128//37 110//37 108//37
f 127//41 109//41 50//41
f 51//41 110//41 128//41
f 35//37 133//73 37//74
f 38//75 134//76 36//37
f 68//72 81//72 139//72
f 140//72 82//72 69//72
f 81//72 141//72 139//72
f 140//72 142//72 82//72
f 95//72 141//72 81//72
f 82//72 142//72 96//72
f 95//72 143//72 141//72
f 142//72 144//72 96//72
f 95//72 145//72 143//72
f 144//72 146//72 96//72
f 95//77 37//77 145//77
f 146//78 38//78 96//78
f 30//79 37//79 95//80
f 96//81 38//82 31//82
f 3//83 37//79 30//79
f 31//82 38//82 4//84
f 35//72 39//72 67//72
f 67//72 39//72 36//72
f 133//72 35//72 67//72
f 67//72 36//72 134//72
f 137//72 133//72 67//72
f 67//72 134//72 138//72
f 129//72 137//72 67//72
f 67//72 138//72 130//72
f 135//72 129//72 67//72
f 67//72 130//72 136//72
f 131//72 135//72 67//72
f 67//72 136//72 132//72
f 40//72 131//72 67//72
f 67//72 132//72 41//72
f 10//85 22//86 11//87
f 11//87 23//88 10//85
f 11//87 22//86 24//89
f 25//90 23//88 11//87
f 219//91 52//92 56//92
f 56//92 53//92 219//91
f 24//89 26//93 147//94
f 148//94 27//93 25//90
f 26//93 28//95 149//96
f 150//96 29//95 27//93
f 151//97 11//87 24//89
f 25//90 11//87 152//98
f 151//97 24//89 147//94
f 148//94 25//90 152//98
f 149//96 147//94 26//93
f 27//93 148//94 150//96
f 155//99 157//100 153//101
f 154//102 157//100 156//99
f 153//101 157//100 158//103
f 158//103 157//100 154//102
f 147//104 149//105 155//106
f 156//107 150//108 148//109
f 159//110 22//86 10//85
f 10//85 23//88 160//111
f 10//85 9//112 159//110
f 160//111 9//112 10//85
f 161//113 159//110 9//112
f 9//112 160//111 162//114
f 22//86 159//110 163//115
f 164//116 160//111 23//88
f 167//117 97//118 99//119
f 100//120 98//121 168//122
f 99//119 22//123 167//117
f 168//122 23//124 100//120
f 167//117 22//123 163//125
f 164//126 23//124 168//122
f 97//127 167//117 165//128
f 166//129 168//122 98//130
f 171//131 169//132 173//131
f 174//133 170//134 172//133
f 179//135 173//136 177//135
f 178//135 174//136 180//135
f 171//131 173//131 179//137
f 180//138 174//133 172//133
f 179//135 177//135 175//139
f 176//139 178//135 180//135
f 181//140 161//113 9//112
f 9//112 162//114 182//141
f 9//112 8//2 183//142
f 184//142 8//2 9//112
f 183//142 8//2 16//1
f 17//1 8//2 184//142
f 183//142 181//140 9//112
f 9//112 182//141 184//142
f 20//143 161//113 185//144
f 186//145 162//114 21//146
f 185//147 165//148 20//149
f 21//150 166//151 186//152
f 97//153 165//148 187//154
f 188//155 166//151 98//156
f 189//157 18//12 95//158
f 96//159 19//13 190//160
f 95//158 97//161 189//157
f 190//160 98//162 96//159
f 189//157 97//161 187//154
f 188//155 98//162 190//160
f 161//113 181//140 185//144
f 186//145 182//141 162//114
f 16//1 18//163 183//142
f 184//142 19//163 17//1
f 187//154 165//148 185//147
f 186//152 166//151 188//155
f 201//164 191//164 195//165
f 196//166 192//167 202//167
f 201//164 193//168 191//164
f 192//167 194//169 202//167
f 195//170 199//170 197//171
f 198//172 200//173 196//173
f 195//170 191//174 199//170
f 200//173 192//175 196//173
f 208//176 210//176 217//176
f 218//177 211//177 209//177
f 219//91 28//92 52//92
f 53//92 29//92 219//91
f 213//24 219//91 212//24
f 212//24 219//91 214//24
f 215//24 219//91 213//24
f 214//24 219//91 216//24
f 217//24 219//91 215//24
f 216//24 219//91 218//24
f 210//24 219//91 217//24
f 218//24 219//91 211//24
f 12//178 149//96 219//95
f 219//95 150//96 12//178
f 219//95 149//96 28//95
f 29//95 150//96 219//95
f 206//179 208//180 215//181
f 216//182 209//183 207//184
f 208//180 217//180 215//181
f 216//182 218//183 209//183
f 206//179 213//185 204//186
f 205//187 214//188 207//184
f 206//179 215//181 213//185
f 214//188 216//182 207//184
f 204//186 212//37 203//37
f 203//37 212//37 205//187
f 204//186 213//185 212//37
f 212//37 214//188 205//187
f 181//189 183//189 199//189
f 200//190 184//190 182//190
f 183//189 197//189 199//189
f 200//190 198//190 184//190
f 189//191 187//191 193//191
f 194//192 188//192 190//192
f 189//191 193//191 201//191
f 202//192 194//192 190//192
f 18//193 189//194 195//193
f 196//195 190//196 19//195
f 189//194 201//194 195//193
f 196//195 202//196 190//196
f 185//197 181//198 199//198
f 200//199 182//199 186//200
f 185//197 199//198 191//201
f 192//202 200//199 186//200
f 183//203 18//193 195//193
f 196//195 19//195 184//204
f 183//203 195//193 197//203
f 198//204 196//195 184//204
f 187//205 185//197 191//201
f 192//202 186//200 188//206
f 187//205 191//201 193//205
f 194//206 192//202 188//206
f 161//207 20//208 179//208
f 180//209 21//209 162//210
f 161//207 179//208 175//207
f 176//210 180//209 162//210
f 159//211 161//211 177//211
f 178//212 162//212 160//212
f 161//211 175//211 177//211
f 178//212 176//212 162//212
f 163//213 159//214 173//215
f 174//216 160//217 164//218
f 159//214 177//214 173//215
f 174//216 178//217 160//217
f 20//208 165//219 179//208
f 180//209 166//220 21//209
f 165//219 171//219 179//208
f 180//209 172//220 166//220
f 167//221 163//213 173//215
f 174//216 164//218 168//222
f 167//221 173//215 169//223
f 170//224 174//216 168//222
f 165//225 167//226 171//226
f 172//227 168//227 166//228
f 167//226 169//229 171//226
f 172//227 170//230 168//227
f 12//178 155//99 149//96
f 150//96 156//99 12//178
f 12//178 157//100 155//99
f 156//99 157//100 12//178
f 147//104 153//231 151//232
f 152//233 154//234 148//109
f 147//104 155//106 153//231
f 154//234 156//107 148//109
f 151//235 158//235 11//236
f 11//237 158//238 152//238
f 151//235 153//239 158//235
f 158//238 154//240 152//238
f 22//123 99//119 24//241
f 25//242 100//120 23//124
f 24//241 99//119 101//243
f 102//244 100//120 25//242
f 24//241 101//243 26//245
f 27//246 102//244 25//242
f 26//245 101//243 103//247
f 104//248 102//244 27//246
f 26//245 103//247 28//249
f 29//250 104//248 27//246
f 28//251 103//251 105//251
f 106//252 104//252 29//252
f 40//6 68//6 139//253
f 140//254 69//7 41//7
f 40//6 139//253 131//253
f 132//254 140//254 41//7
f 129//255 145//255 137//255
f 138//256 146//256 130//256
f 129//255 143//255 145//255
f 146//256 144//256 130//256
f 137//257 37//74 133//73
f 134//76 38//75 138//258
f 137//257 145//257 37//74
f 38//75 146//258 138//258
f 129//259 135//259 141//259
f 142//260 136//260 130//260
f 129//259 141//259 143//259
f 144//260 142//260 130//260
f 135//261 131//253 139//253
f 140//254 132//254 136//262
f 135//261 139//253 141//261
f 142//262 140//254 136//262
