# license: Copyright Cyberbotics Ltd. Licensed for use only with Webots, see https://cyberbotics.com/webots_assets_license
o camera
v 0.0012902 0.0006454 -0.0016242
v 0.0012902 -0.0018532 -0.0009796
v -0.0012902 -0.0018532 -0.0009796
v -0.0012902 0.0006454 -0.0016242
v 0.0030927 0.0010956 0.0001212
v 0.0030927 -0.001403 0.0007657
v 0.0012902 -0.0031483 0.001216
v -0.0012901 -0.0031484 0.001216
v -0.0030927 -0.001403 0.0007657
v -0.0030927 0.0010956 0.0001212
v 0.0012902 0.002841 -0.0003291
v -0.0012902 0.002841 -0.0003291
vn 0.5774 0.4148 -0.7033
vn 0.5773 -0.7033 -0.4148
vn -0.5773 -0.7033 -0.4148
vn -0.5774 0.4148 -0.7033
vn -0.7071 -0.1766 -0.6847
vn 0.0 0.5081 -0.8613
vn 0.0 -0.8613 -0.5081
vn 0.7071 -0.1766 -0.6847
vn 0.0 -0.2498 -0.9683
f 1//1 11//1 5//1
f 2//2 6//2 7//2
f 3//3 8//3 9//3
f 4//4 10//4 12//4
f 10//5 4//5 3//5
f 10//5 3//5 9//5
f 11//6 1//6 4//6
f 11//6 4//6 12//6
f 8//7 3//7 2//7
f 8//7 2//7 7//7
f 1//8 5//8 6//8
f 1//8 6//8 2//8
f 1//9 2//9 3//9
f 1//9 3//9 4//9
