# license: Copyright Cyberbotics Ltd. Licensed for use only with Webots, see https://cyberbotics.com/webots_assets_license
o eye_led
v 0.0116412 0.0265999 0.0366955
v -0.0116412 0.0265999 0.0366955
v 0.0152554 0.0218632 0.0363648
v -0.0152554 0.0218632 0.0363648
v 0.0201309 0.0187384 0.0349243
v -0.0201309 0.0187384 0.0349243
v 0.0255253 0.0177015 0.0325931
v -0.0255253 0.0177015 0.0325931
v 0.0306174 0.0189101 0.0297263
v -0.0306174 0.0189101 0.0297263
v 0.034632 0.0221804 0.0267603
v -0.034632 0.0221804 0.0267603
v 0.0369579 0.0270145 0.0241466
v -0.0369579 0.0270145 0.0241466
v 0.037241 0.0326763 0.0222832
v -0.037241 0.0326763 0.0222832
v 0.0354382 0.038304 0.0214537
v -0.0354382 0.038304 0.0214537
v 0.0318239 0.0430408 0.0217844
v -0.0318239 0.0430408 0.0217844
v 0.0269485 0.0461655 0.023225
v -0.0269485 0.0461655 0.023225
v 0.0215541 0.0472024 0.0255561
v -0.0215541 0.0472024 0.0255561
v 0.016462 0.0459938 0.0284229
v -0.016462 0.0459938 0.0284229
v 0.0124474 0.0427235 0.0313889
v -0.0124474 0.0427235 0.0313889
v 0.0101215 0.0378894 0.0340026
v -0.0101215 0.0378894 0.0340026
v 0.0098384 0.0322276 0.035866
v -0.0098384 0.0322276 0.035866
v 0.0174415 0.0294527 0.0329804
v -0.0174415 0.0294527 0.0329804
v 0.0192939 0.0270251 0.032811
v -0.0192939 0.0270251 0.032811
v 0.0217926 0.0254236 0.0320726
v -0.0217926 0.0254236 0.0320726
v 0.0245573 0.0248921 0.0308779
v -0.0245573 0.0248921 0.0308779
v 0.0271671 0.0255116 0.0294086
v -0.0271671 0.0255116 0.0294086
v 0.0292247 0.0271877 0.0278885
v -0.0292247 0.0271877 0.0278885
v 0.0304167 0.0296652 0.026549
v -0.0304167 0.0296652 0.026549
v 0.0305618 0.0325669 0.0255939
v -0.0305618 0.0325669 0.0255939
v 0.0296378 0.0354512 0.0251688
v -0.0296378 0.0354512 0.0251688
v 0.0277855 0.0378789 0.0253383
v -0.0277855 0.0378789 0.0253383
v 0.0252868 0.0394803 0.0260766
v -0.0252868 0.0394803 0.0260766
v 0.022522 0.0400118 0.0272713
v -0.022522 0.0400118 0.0272713
v 0.0199123 0.0393923 0.0287406
v -0.0199123 0.0393923 0.0287406
v 0.0178547 0.0377163 0.0302607
v -0.0178547 0.0377163 0.0302607
v 0.0166627 0.0352387 0.0316003
v -0.0166627 0.0352387 0.0316003
v 0.0165176 0.032337 0.0325553
v -0.0165176 0.032337 0.0325553
vn 0.4249 0.2638 0.866
vn -0.4249 0.2638 0.866
f 1//1 33//1 63//1
f 64//2 34//2 2//2
f 1//1 63//1 31//1
f 32//2 64//2 2//2
f 1//1 3//1 35//1
f 36//2 4//2 2//2
f 1//1 35//1 33//1
f 34//2 36//2 2//2
f 3//1 5//1 37//1
f 38//2 6//2 4//2
f 3//1 37//1 35//1
f 36//2 38//2 4//2
f 7//1 9//1 41//1
f 42//2 10//2 8//2
f 7//1 41//1 39//1
f 40//2 42//2 8//2
f 9//1 11//1 43//1
f 44//2 12//2 10//2
f 9//1 43//1 41//1
f 42//2 44//2 10//2
f 11//1 13//1 45//1
f 46//2 14//2 12//2
f 11//1 45//1 43//1
f 44//2 46//2 12//2
f 15//1 17//1 49//1
f 50//2 18//2 16//2
f 15//1 49//1 47//1
f 48//2 50//2 16//2
f 17//1 19//1 51//1
f 52//2 20//2 18//2
f 17//1 51//1 49//1
f 50//2 52//2 18//2
f 19//1 21//1 53//1
f 54//2 22//2 20//2
f 19//1 53//1 51//1
f 52//2 54//2 20//2
f 23//1 25//1 57//1
f 58//2 26//2 24//2
f 23//1 57//1 55//1
f 56//2 58//2 24//2
f 25//1 27//1 59//1
f 60//2 28//2 26//2
f 25//1 59//1 57//1
f 58//2 60//2 26//2
f 27//1 29//1 61//1
f 62//2 30//2 28//2
f 27//1 61//1 59//1
f 60//2 62//2 28//2
f 29//1 31//1 63//1
f 64//2 32//2 30//2
f 29//1 63//1 61//1
f 62//2 64//2 30//2
f 5//1 7//1 39//1
f 40//2 8//2 6//2
f 5//1 39//1 37//1
f 38//2 40//2 6//2
f 13//1 15//1 47//1
f 48//2 16//2 14//2
f 13//1 47//1 45//1
f 46//2 48//2 14//2
f 21//1 23//1 55//1
f 56//2 24//2 22//2
f 21//1 55//1 53//1
f 54//2 56//2 22//2
