# license: Copyright Cyberbotics Ltd. Licensed for use only with Webots, see https://cyberbotics.com/webots_assets_license
o foot_left
v -0.0221594 -0.0182954 -0.0532328
v 0.0440031 -0.0182966 -0.0532305
v 0.0440028 -0.0335107 -0.0532297
v -0.0221597 -0.0335494 -0.053232
v -0.0145455 -0.0335441 0.0507272
v 0.0376511 -0.0335051 0.0503662
v 0.0376513 -0.0238991 0.0503657
v -0.0145454 -0.0238982 0.0507267
v -0.022162 -0.0182915 0.0211815
v 0.0440005 -0.0182927 0.0211838
v -0.0075757 -0.0335441 0.0521784
v 0.0298263 -0.0335448 0.0521797
v 0.0298265 -0.0238989 0.0521792
v -0.0075755 -0.0238982 0.0521779
v -0.0221629 -0.0226602 0.0447686
v 0.0439996 -0.0226613 0.0447709
v -0.0221631 -0.0335044 0.0447691
v 0.0439994 -0.0335055 0.0447714
vn -0.7839 -0.6105 -0.1131
vn 0.8353 -0.5407 -0.1001
vn -0.003 0.9927 0.1205
vn -0.0329 0.9733 0.2274
vn -0.0164 0.9791 0.2028
vn -0.0566 0.9606 0.272
vn 0.0665 0.9556 0.2869
vn 0.038 0.9713 0.2349
vn 0.0253 0.9761 0.2161
vn 0.0019 0.9941 0.108
vn 0.0069 -0.9999 0.0079
vn 0.0032 -1.0 0.0025
vn 0.0049 -1.0 0.004
vn 0.0011 -1.0 -0.0001
vn 1.0 -0.0 0.0
vn -1.0 0.0 -0.0
vn -0.0012 -1.0 0.0002
vn -0.0001 -1.0 -0.0022
vn -0.0005 -1.0 -0.0043
vn 0.0019 -1.0 -0.0091
vn -0.6161 0.0 0.7877
vn 0.6612 0.0 0.7502
vn -0.2038 0.0001 0.979
vn -0.0 0.0001 1.0
vn 0.2258 0.0 0.9742
vn 0.0 1.0 -0.0001
vn 0.0 -0.0001 -1.0
f 15//1 9//1 5//1
f 10//2 16//2 6//2
f 9//3 15//4 14//5
f 15//4 8//6 14//5
f 7//7 16//8 13//9
f 16//8 10//10 13//9
f 6//11 12//12 18//13
f 3//14 18//13 12//12
f 3//15 16//15 18//15
f 2//15 16//15 3//15
f 2//15 10//15 16//15
f 1//16 15//16 9//16
f 4//17 11//18 17//19
f 5//20 17//19 11//18
f 1//16 4//16 15//16
f 4//16 17//16 15//16
f 5//21 8//21 17//21
f 8//21 15//21 17//21
f 6//22 18//22 7//22
f 18//22 16//22 7//22
f 14//5 13//9 10//10
f 14//5 10//10 9//3
f 14//23 8//23 5//23
f 14//23 5//23 11//23
f 13//24 14//24 11//24
f 13//24 11//24 12//24
f 7//25 13//25 6//25
f 13//25 12//25 6//25
f 12//12 11//18 3//14
f 11//18 4//17 3//14
f 1//26 9//3 10//10
f 1//26 10//10 2//26
f 1//27 2//27 3//27
f 1//27 3//27 4//27
