# license: Copyright Cyberbotics Ltd. Licensed for use only with Webots, see https://cyberbotics.com/webots_assets_license
o foot_motor_left
v -0.0087402 0.0067738 0.0246943
v -0.0087402 -0.0101185 0.0246961
v -0.0002941 -0.0136169 0.024697
v 0.008152 -0.0101184 0.0246972
v 0.0116505 -0.0016379 0.0246966
v 0.008152 0.0067738 0.0246955
v -0.0002941 0.0102723 0.0246945
v -0.0087401 0.0067735 0.0225305
v -0.0122386 -0.0016381 0.0225311
v -0.0087401 -0.0101187 0.0225322
v -0.000294 -0.0136172 0.0225332
v 0.0081521 -0.0101187 0.0225334
v 0.0116506 -0.0016381 0.0225328
v 0.0081521 0.0067735 0.0225316
v -0.000294 0.010272 0.0225307
v -0.0002906 0.010267 -0.0258945
v 0.0081555 0.0067685 -0.0258936
v 0.011654 -0.0016432 -0.0258925
v 0.0081555 -0.0101237 -0.0258918
v -0.0002906 -0.0136222 -0.025892
v -0.0087367 -0.0101237 -0.025893
v -0.0122352 -0.0016432 -0.0258941
v -0.0087367 0.0067685 -0.0258948
v -0.0002907 0.0102672 -0.0238477
v 0.0081554 0.0067687 -0.0238467
v 0.0116539 -0.001643 -0.0238456
v 0.0081554 -0.0101235 -0.0238449
v -0.0002907 -0.013622 -0.0238452
v -0.0087369 -0.0101235 -0.0238461
v -0.0087369 0.0067687 -0.0238479
v 0.0105403 -0.0309114 0.0262598
v 0.0105438 -0.0309167 -0.0238425
v -0.0112658 -0.0309114 0.0262583
v -0.0112623 -0.0309167 -0.023844
v -0.0112624 -0.0295248 -0.0223178
v -0.0112657 -0.0295198 0.024698
v 0.0105404 -0.0295198 0.0246995
v 0.0105437 -0.0295248 -0.0223163
v 0.0105436 -0.0016428 -0.0223194
v 0.0105404 -0.0016379 0.0246965
v -0.0112658 -0.0016379 0.024695
v -0.0112625 -0.0016428 -0.0223209
v -0.0112624 -0.001643 -0.0238472
v -0.0112659 -0.0016377 0.0262551
v 0.0105403 -0.0016377 0.0262567
v 0.0105437 -0.001643 -0.0238457
v -0.003267 0.0013025 -0.0264138
v -0.0044998 -0.0016546 -0.0264136
v -0.003267 -0.0046503 -0.0264132
v -0.0002906 -0.0058831 -0.0264128
v 0.0026858 -0.0046503 -0.0264128
v 0.0039187 -0.0016546 -0.026413
v 0.0026858 0.0013025 -0.0264134
v -0.0002906 0.0025354 -0.0264137
v -0.0002943 0.0025409 0.0266983
v 0.0026821 0.0013081 0.0266986
v 0.003915 -0.0016491 0.026699
v 0.0026821 -0.0046447 0.0266992
v -0.0002943 -0.0058776 0.0266991
v -0.0032707 -0.0046447 0.0266988
v -0.0045035 -0.0016491 0.0266984
v -0.0032707 0.0013081 0.0266982
vn -0.0001 0.0001 1.0
vn 0.0001 -0.0001 -1.0
vn 0.0001 -0.0002 -1.0
vn -0.923 0.3848 -0.0001
vn -0.9248 -0.3806 -0.0
vn -0.3827 -0.9239 0.0001
vn 0.3827 -0.9239 0.0001
vn 0.9247 -0.3806 0.0001
vn 0.923 0.3848 0.0
vn 0.3827 0.9239 -0.0001
vn -0.3827 0.9239 -0.0001
vn 0.0 1.0 -0.0001
vn -1.0 -0.0 -0.0001
vn 1.0 0.0 0.0001
vn -0.9233 0.384 -0.0001
vn -0.8717 0.2618 0.4143
vn -0.8464 -0.3491 0.4023
vn -0.9584 -0.2854 -0.0001
vn 0.9244 -0.3814 0.0001
vn 0.9233 0.384 0.0
vn -0.8537 -0.3521 0.3838
vn -0.9584 -0.2854 -0.0
vn -0.8797 0.2642 0.3954
f 2//1 3//1 4//1
f 41//1 2//1 4//1
f 41//1 4//1 5//1
f 1//1 41//1 5//1
f 1//1 5//1 6//1
f 1//1 6//1 7//1
f 10//2 12//2 11//2
f 10//2 13//2 12//2
f 9//2 13//2 10//2
f 8//2 13//2 9//2
f 8//2 14//2 13//2
f 15//2 14//2 8//2
f 29//1 28//1 27//1
f 43//1 29//1 27//1
f 43//1 27//1 26//1
f 30//1 43//1 26//1
f 30//1 26//1 25//1
f 30//1 25//1 24//1
f 21//2 19//2 20//2
f 21//2 18//2 19//2
f 22//2 18//2 21//2
f 23//2 18//2 22//2
f 23//2 17//2 18//2
f 16//2 17//2 23//2
f 54//2 53//2 47//2
f 47//2 53//2 52//2
f 47//2 52//2 48//2
f 48//2 52//2 49//2
f 49//2 52//2 51//2
f 49//2 51//2 50//3
f 56//1 55//1 62//1
f 56//1 62//1 57//1
f 57//1 62//1 61//1
f 57//1 61//1 60//1
f 57//1 60//1 58//1
f 58//1 60//1 59//1
f 48//4 62//4 47//4
f 48//4 61//4 62//4
f 49//5 61//5 48//5
f 49//5 60//5 61//5
f 50//6 60//6 49//6
f 50//6 59//6 60//6
f 51//7 59//7 50//7
f 51//7 58//7 59//7
f 52//8 58//8 51//8
f 52//8 57//8 58//8
f 53//9 57//9 52//9
f 53//9 56//9 57//9
f 54//10 56//10 53//10
f 54//10 55//10 56//10
f 47//11 55//11 54//11
f 47//11 62//11 55//11
f 39//1 35//1 38//1
f 39//1 42//1 35//1
f 37//2 41//2 40//2
f 37//2 36//2 41//2
f 43//12 39//12 46//12
f 43//12 42//12 39//12
f 45//12 41//12 44//12
f 45//12 40//12 41//12
f 34//2 46//2 32//2
f 34//2 43//2 46//2
f 31//1 44//1 33//1
f 31//1 45//1 44//1
f 35//13 43//13 34//13
f 35//13 42//13 43//13
f 33//13 44//13 36//13
f 36//13 44//13 41//13
f 37//14 45//14 31//14
f 37//14 40//14 45//14
f 32//14 46//14 38//14
f 38//14 46//14 39//14
f 30//15 23//15 22//15
f 30//16 22//16 43//16
f 43//17 22//17 21//17
f 43//18 21//18 29//18
f 29//6 21//6 20//6
f 29//6 20//6 28//6
f 28//7 20//7 19//7
f 28//7 19//7 27//7
f 27//19 19//19 18//19
f 27//19 18//19 26//19
f 26//20 18//20 17//20
f 26//20 17//20 25//20
f 25//10 17//10 16//10
f 25//10 16//10 24//10
f 24//11 16//11 23//11
f 24//11 23//11 30//11
f 8//11 1//11 7//11
f 8//11 7//11 15//11
f 6//10 14//10 15//10
f 6//10 15//10 7//10
f 5//20 13//20 14//20
f 5//20 14//20 6//20
f 4//19 12//19 13//19
f 4//19 13//19 5//19
f 3//7 11//7 12//7
f 3//7 12//7 4//7
f 2//6 10//6 11//6
f 2//6 11//6 3//6
f 41//21 9//21 10//21
f 41//22 10//22 2//22
f 1//15 8//15 9//15
f 1//23 9//23 41//23
