# license: Copyright Cyberbotics Ltd. Licensed for use only with Webots, see https://cyberbotics.com/webots_assets_license
o head
v 0.0392305 0.0221018 -0.0570645
v -0.0392305 0.0221018 -0.0570645
v 0.0405922 0.0152099 -0.0401748
v -0.0405922 0.0152099 -0.0401748
v 0.0411355 0.0081425 -0.0334363
v -0.0411355 0.0081425 -0.0334363
v 0.0416294 -0.0007687 -0.0273103
v -0.0416294 -0.0007687 -0.0273103
v 0.0424073 -0.0072215 -0.0176621
v -0.0424073 -0.0072215 -0.0176621
v 0.0433401 -0.0086732 -0.0060919
v -0.0433401 -0.0086732 -0.0060919
v 0.044197 -0.0061456 0.0045363
v -0.044197 -0.0061456 0.0045363
v 0.0449545 0.0006532 0.0139317
v -0.0449545 0.0006532 0.0139317
v 0.0452514 0.0108622 0.0176143
v -0.0452514 0.0108622 0.0176143
v 0.0452514 0.0212564 0.0176141
v -0.0452514 0.0212564 0.0176141
v 0.0449057 0.0300627 0.0137528
v -0.0449057 0.0300627 0.0137528
v 0.0442507 0.0353979 0.0052024
v -0.0442507 0.0353979 0.0052024
v 0.0433849 0.0381032 -0.0055372
v -0.0433849 0.0381032 -0.0055372
v 0.038476 0.0363362 -0.0664233
v -0.038476 0.0363362 -0.0664233
v 0.0116412 0.0265999 0.0366955
v -0.0116412 0.0265999 0.0366955
v 0.0152554 0.0218632 0.0363648
v -0.0152554 0.0218632 0.0363648
v 0.0201309 0.0187384 0.0349243
v -0.0201309 0.0187384 0.0349243
v 0.0255253 0.0177015 0.0325931
v -0.0255253 0.0177015 0.0325931
v 0.0306174 0.0189101 0.0297263
v -0.0306174 0.0189101 0.0297263
v 0.034632 0.0221804 0.0267603
v -0.034632 0.0221804 0.0267603
v 0.0369579 0.0270145 0.0241466
v -0.0369579 0.0270145 0.0241466
v 0.037241 0.0326763 0.0222832
v -0.037241 0.0326763 0.0222832
v 0.0354382 0.038304 0.0214537
v -0.0354382 0.038304 0.0214537
v 0.0318239 0.0430408 0.0217844
v -0.0318239 0.0430408 0.0217844
v 0.0269485 0.0461655 0.023225
v -0.0269485 0.0461655 0.023225
v 0.0215541 0.0472024 0.0255561
v -0.0215541 0.0472024 0.0255561
v 0.016462 0.0459938 0.0284229
v -0.016462 0.0459938 0.0284229
v 0.0124474 0.0427235 0.0313889
v -0.0124474 0.0427235 0.0313889
v 0.0101215 0.0378894 0.0340026
v -0.0101215 0.0378894 0.0340026
v 0.0098384 0.0322276 0.035866
v -0.0098384 0.0322276 0.035866
v 0.0195178 0.0464315 -0.0795508
v -0.0195178 0.0464315 -0.0795508
v 0.0225675 0.0325759 -0.07354
v -0.0225675 0.0325759 -0.07354
v 0.0195174 0.016289 -0.0574006
v -0.0195174 0.016289 -0.0574006
v 0.0186086 0.0055227 -0.0552789
v -0.0186086 0.0055227 -0.0552789
v 0.0184255 -0.0009917 -0.051584
v -0.0184255 -0.0009917 -0.051584
v 0.0186973 -0.0121609 -0.0394498
v -0.0186973 -0.0121609 -0.0394498
v 0.0207908 -0.0194756 -0.0266185
v -0.0207908 -0.0194756 -0.0266185
v 0.0185759 -0.0211818 -0.014516
v -0.0185759 -0.0211818 -0.014516
v 0.0186379 -0.0196935 -0.001655
v -0.0186379 -0.0196935 -0.001655
v 0.0187539 -0.0135358 0.0128219
v -0.0187539 -0.0135358 0.0128219
v 0.018584 -0.0050813 0.024037
v -0.018584 -0.0050813 0.024037
v 0.0164893 0.0066883 0.0349741
v -0.0164893 0.0066883 0.0349741
v 0.0165623 0.0155422 0.0362219
v -0.0165623 0.0155422 0.0362219
v 0.0170276 0.0499737 0.0249869
v -0.0170276 0.0499737 0.0249869
v 0.01726 0.0553882 0.0150497
v -0.01726 0.0553882 0.0150497
v 0.0120454 0.0605195 0.0046781
v -0.0120454 0.0605195 0.0046781
v 0.0181589 0.0602533 -0.0062721
v -0.0181589 0.0602533 -0.0062721
v 0.0195168 0.060201 -0.0189165
v -0.0195168 0.060201 -0.0189165
v 0.0195174 0.0540533 -0.0540891
v -0.0195174 0.0540533 -0.0540891
v 0.0 -0.0138808 -0.0402319
v 0.0 -0.0213466 -0.0278119
v 0.0 -0.0227678 -0.0144287
v 0.0 -0.022019 -1.81e-05
v 0.0 -0.0156556 0.0154359
v 0.0 -0.0061624 0.0265574
v 0.0 0.0074755 0.0378864
v 0.0 0.0175306 0.0379284
v 0.0 0.032467 0.0361502
v 0.0 0.0381629 0.0344413
v 0.0 0.045242 0.0309423
v 0.0 0.0488546 0.0285779
v 0.0 0.057406 0.0180599
v 0.0 0.0609716 0.0107532
v 0.0 0.060921 -0.0062633
v 0.0 0.0608675 -0.0189168
v 0.0 0.051912 -0.0393596
v 0.0 0.0386829 -0.0524273
v 0.0195171 0.0508041 -0.0384949
v -0.0195171 0.0508041 -0.0384949
v 0.0195173 0.0380376 -0.0514338
v -0.0195173 0.0380376 -0.0514338
v 0.0 0.0161334 -0.0593111
v 0.0 0.004431 -0.0571641
v 0.0 -0.0022158 -0.0534247
v 0.0291343 0.0417313 -0.0729934
v -0.0291343 0.0417313 -0.0729934
v 0.0304317 0.0350942 -0.0702807
v -0.0304317 0.0350942 -0.0702807
v 0.0297588 0.0190742 -0.0580713
v -0.0297588 0.0190742 -0.0580713
v 0.031687 0.0160369 -0.0526305
v -0.031687 0.0160369 -0.0526305
v 0.0309837 0.0092284 -0.0486846
v -0.0309837 0.0092284 -0.0486846
v 0.030947 0.0028528 -0.0442747
v -0.030947 0.0028528 -0.0442747
v 0.0313671 -0.0070052 -0.0342981
v -0.0313671 -0.0070052 -0.0342981
v 0.0327293 -0.0142829 -0.0243646
v -0.0327293 -0.0142829 -0.0243646
v 0.0320906 -0.0174994 -0.0152496
v -0.0320906 -0.0174994 -0.0152496
v 0.0334606 -0.0171215 -0.0025047
v -0.0334606 -0.0171215 -0.0025047
v 0.0348758 -0.0119176 0.010511
v -0.0348758 -0.0119176 0.010511
v 0.0352073 -0.0039472 0.0212155
v -0.0352073 -0.0039472 0.0212155
v 0.0303691 0.0014046 0.0276174
v -0.0303691 0.0014046 0.0276174
v 0.0331355 0.0159014 0.0280857
v -0.0331355 0.0159014 0.0280857
v 0.033055 0.0441668 0.018925
v -0.033055 0.0441668 0.018925
v 0.0272452 0.0520301 0.0117203
v -0.0272452 0.0520301 0.0117203
v 0.0274988 0.054967 0.0026082
v -0.0274988 0.054967 0.0026082
v 0.0273044 0.0556295 -0.0065691
v -0.0273044 0.0556295 -0.0065691
v 0.0276693 0.0543365 -0.0244786
v -0.0276693 0.0543365 -0.0244786
v 0.0323266 0.0444186 -0.0491837
v -0.0323266 0.0444186 -0.0491837
v 0.0417486 0.0375142 -0.0258325
v -0.0417486 0.0375142 -0.0258325
v 0.0401123 0.0369252 -0.0461279
v -0.0401123 0.0369252 -0.0461279
v 0.0070464 0.0573781 0.01728
v -0.0070464 0.0573781 0.01728
v 0.0083894 0.0559858 0.019199
v -0.0083894 0.0559858 0.019199
v 0.008978 0.0540208 0.0218855
v -0.008978 0.0540208 0.0218855
v 0.0049843 0.051013 0.0258813
v -0.0049843 0.051013 0.0258813
v 0.0381348 0.039614 0.0149968
v -0.0381348 0.039614 0.0149968
v 0.0374798 0.0437726 0.0079673
v -0.0374798 0.0437726 0.0079673
v 0.0368872 0.0477009 -0.0022339
v -0.0368872 0.0477009 -0.0022339
v 0.0349777 0.0463099 -0.0278206
v -0.0349777 0.0463099 -0.0278206
v 0.0 0.0572104 -0.0285718
v 0.0 0.0462024 -0.0462686
v 0.0195172 0.0456088 -0.0455197
v -0.0195172 0.0456088 -0.0455197
v 0.0195174 0.0280225 -0.056562
v -0.0195174 0.0280225 -0.056562
v 0.0 0.0286387 -0.0571265
v 0.0195169 0.0566908 -0.0283183
v -0.0195169 0.0566908 -0.0283183
vn 0.9965 0.0006 -0.0835
vn 0.9968 -0.0 -0.0804
vn 0.9966 0.0008 -0.0827
vn -0.9966 0.0008 -0.0827
vn -0.9968 -0.0 -0.0804
vn -0.9965 0.0006 -0.0835
vn 0.9967 0.0007 -0.0814
vn -0.9967 0.0007 -0.0814
vn 0.9968 0.0003 -0.0796
vn -0.9968 0.0003 -0.0796
vn 0.9969 -0.0 -0.0784
vn -0.9969 -0.0 -0.0784
vn 0.5071 0.8032 0.3128
vn 0.458 0.756 0.4677
vn 0.6717 0.6262 0.3958
vn -0.6717 0.6262 0.3958
vn -0.458 0.756 0.4677
vn -0.5071 0.8032 0.3128
vn 0.3073 0.8648 0.3971
vn -0.3073 0.8648 0.3971
vn 0.2343 0.9553 0.1804
vn -0.2343 0.9553 0.1804
vn 0.5291 0.8297 0.1779
vn -0.5291 0.8297 0.1779
vn 0.3327 0.9422 0.04
vn -0.3327 0.9422 0.04
vn 0.5902 0.8071 -0.0165
vn -0.5902 0.8071 -0.0165
vn 0.6128 0.7857 -0.0853
vn -0.6128 0.7857 -0.0853
vn 0.5638 0.8248 -0.0433
vn 0.4704 0.8804 0.0597
vn -0.4704 0.8804 0.0597
vn -0.5638 0.8248 -0.0433
vn 0.584 0.7903 -0.1853
vn -0.584 0.7903 -0.1853
vn 0.6632 0.7334 -0.1496
vn -0.6632 0.7334 -0.1496
vn 0.1276 -0.6525 0.747
vn 0.0 -0.639 0.7692
vn 0.0 -0.6908 0.7231
vn -0.1276 -0.6525 0.747
vn 0.4385 -0.1027 0.8929
vn 0.2466 -0.0491 0.9679
vn 0.33 -0.1408 0.9334
vn -0.33 -0.1408 0.9334
vn -0.2466 -0.0491 0.9679
vn -0.4385 -0.1027 0.8929
vn 0.1509 -0.7258 0.6712
vn -0.1509 -0.7258 0.6712
vn 0.1531 -0.676 0.7208
vn -0.1531 -0.676 0.7208
vn 0.5458 -0.1711 0.8203
vn -0.5458 -0.1711 0.8203
vn 0.583 -0.0463 0.8112
vn -0.583 -0.0463 0.8112
vn 0.1621 -0.7594 0.6301
vn -0.1621 -0.7594 0.6301
vn 0.647 -0.1716 0.7429
vn 0.6603 -0.3987 0.6364
vn -0.6603 -0.3987 0.6364
vn -0.647 -0.1716 0.7429
vn 0.0 -0.8353 0.5498
vn 0.1579 -0.8566 0.4912
vn -0.1579 -0.8566 0.4912
vn 0.1645 -0.8811 0.4433
vn -0.1645 -0.8811 0.4433
vn 0.6634 -0.5254 0.5329
vn 0.6386 -0.677 0.3659
vn -0.6386 -0.677 0.3659
vn -0.6634 -0.5254 0.5329
vn 0.0 -0.9607 0.2777
vn 0.1455 -0.9609 0.2358
vn -0.1455 -0.9609 0.2358
vn 0.6526 -0.7131 0.2561
vn -0.6526 -0.7131 0.2561
vn 0.3179 -0.9311 0.179
vn 0.2851 -0.8707 0.4008
vn -0.2851 -0.8707 0.4008
vn -0.3179 -0.9311 0.179
vn 0.5372 -0.7575 0.371
vn 0.4413 -0.8874 0.1334
vn -0.4413 -0.8874 0.1334
vn -0.5372 -0.7575 0.371
vn 0.6678 -0.7439 -0.0237
vn 0.5607 -0.8243 0.079
vn -0.5607 -0.8243 0.079
vn -0.6678 -0.7439 -0.0237
vn 0.0 -0.9998 0.0203
vn 0.1615 -0.9868 -0.0149
vn -0.1615 -0.9868 -0.0149
vn 0.4656 -0.8777 -0.1136
vn -0.4656 -0.8777 -0.1136
vn 0.5024 -0.8548 -0.1301
vn -0.5024 -0.8548 -0.1301
vn 0.6921 -0.6719 -0.2637
vn -0.6921 -0.6719 -0.2637
vn 0.0 -0.9475 -0.3199
vn 0.2271 -0.9402 -0.2537
vn -0.2271 -0.9402 -0.2537
vn 0.592 -0.6961 -0.4063
vn 0.3104 -0.8816 -0.3556
vn -0.3104 -0.8816 -0.3556
vn -0.592 -0.6961 -0.4063
vn 0.5461 -0.8232 -0.1554
vn -0.5461 -0.8232 -0.1554
vn 0.6871 -0.5052 -0.5221
vn -0.6871 -0.5052 -0.5221
vn 0.5923 -0.5816 -0.5576
vn 0.3675 -0.8022 -0.4706
vn -0.3675 -0.8022 -0.4706
vn -0.5923 -0.5816 -0.5576
vn 0.3124 -0.7519 -0.5805
vn -0.3124 -0.7519 -0.5805
vn 0.7263 -0.4256 -0.5398
vn -0.7263 -0.4256 -0.5398
vn -0.0 -0.7836 -0.6213
vn 0.6435 -0.501 -0.5786
vn -0.6435 -0.501 -0.5786
vn 0.2004 -0.6318 -0.7488
vn -0.2004 -0.6318 -0.7488
vn 0.3737 -0.6206 -0.6894
vn -0.3737 -0.6206 -0.6894
vn 0.2624 -0.612 -0.746
vn 0.0 -0.6285 -0.7778
vn -0.2624 -0.612 -0.746
vn 0.5712 -0.4094 -0.7114
vn 0.3359 -0.5607 -0.7568
vn -0.3359 -0.5607 -0.7568
vn -0.5712 -0.4094 -0.7114
vn 0.3924 -0.3878 -0.834
vn 0.3776 -0.5165 -0.7685
vn -0.3776 -0.5165 -0.7685
vn -0.3924 -0.3878 -0.834
vn 0.171 0.016 0.9851
vn -0.0 0.0301 0.9995
vn -0.171 0.016 0.9851
vn 0.348 -0.0079 0.9375
vn -0.348 -0.0079 0.9375
vn 0.0 -0.0724 0.9974
vn 0.5383 -0.009 0.8427
vn -0.5383 -0.009 0.8427
vn 0.6285 0.0437 0.7766
vn -0.6285 0.0437 0.7766
vn 0.6744 0.1012 0.7314
vn -0.6744 0.1012 0.7314
vn 0.7125 0.1898 0.6755
vn -0.7125 0.1898 0.6755
vn 0.7751 0.4444 0.4491
vn 0.6391 0.581 0.504
vn -0.6391 0.581 0.504
vn -0.7751 0.4444 0.4491
vn 0.0486 0.0939 0.9944
vn -0.0486 0.0939 0.9944
vn 0.0 0.1877 0.9822
vn 0.0389 0.2516 0.967
vn -0.0389 0.2516 0.967
vn -0.0 0.3479 0.9375
vn 0.0534 0.4027 0.9138
vn -0.0534 0.4027 0.9138
vn -0.0 0.482 0.8762
vn 0.0836 0.5308 0.8433
vn -0.0836 0.5308 0.8433
vn -0.0 0.6144 0.789
vn 0.1689 0.6136 0.7713
vn -0.1689 0.6136 0.7713
vn 0.2381 0.7326 0.6377
vn -0.2381 0.7326 0.6377
vn 0.3321 0.6773 0.6565
vn -0.3321 0.6773 0.6565
vn 0.2206 0.8013 0.5562
vn -0.2206 0.8013 0.5562
vn 0.2807 0.8309 0.4804
vn -0.2807 0.8309 0.4804
vn 0.1863 0.9054 0.3815
vn -0.1863 0.9054 0.3815
vn -0.0 1.0 -0.0028
vn 0.0 0.9636 0.2674
vn 0.2718 0.9617 0.0349
vn -0.2718 0.9617 0.0349
vn 0.0336 0.9831 -0.1799
vn -0.0336 0.9831 -0.1799
vn -0.0 0.9833 -0.1821
vn 0.0 0.8987 0.4386
vn 0.2131 -0.2771 -0.9369
vn 0.0 -0.0348 -0.9994
vn 0.2623 -0.218 -0.94
vn -0.2623 -0.218 -0.94
vn -0.2131 -0.2771 -0.9369
vn 0.0 -0.3937 -0.9192
vn 0.2609 -0.5795 -0.7721
vn 0.2797 -0.3128 -0.9077
vn -0.2797 -0.3128 -0.9077
vn -0.2609 -0.5795 -0.7721
vn 0.5385 -0.4635 -0.7037
vn 0.7414 -0.4022 -0.5371
vn -0.7414 -0.4022 -0.5371
vn -0.5385 -0.4635 -0.7037
vn 0.3764 -0.8043 -0.4598
vn 0.4407 -0.8182 -0.3694
vn 0.3155 -0.8155 -0.4852
vn -0.3155 -0.8155 -0.4852
vn -0.4407 -0.8182 -0.3694
vn -0.3764 -0.8043 -0.4598
vn 0.7422 0.6622 -0.103
vn 0.6456 0.7537 -0.1231
vn -0.6456 0.7537 -0.1231
vn -0.7422 0.6622 -0.103
vn 0.5891 0.7848 -0.1925
vn -0.5891 0.7848 -0.1925
vn 0.3041 -0.6707 -0.6765
vn 0.3195 -0.7509 -0.578
vn 0.219 -0.6918 -0.6881
vn -0.219 -0.6918 -0.6881
vn -0.3195 -0.7509 -0.578
vn -0.3041 -0.6707 -0.6765
vn 0.3438 -0.7279 -0.5933
vn -0.3438 -0.7279 -0.5933
vn 0.553 0.7982 -0.2389
vn -0.553 0.7982 -0.2389
vn 0.3109 -0.6397 -0.7029
vn -0.3109 -0.6397 -0.7029
vn 0.3824 -0.4541 -0.8047
vn 0.2855 -0.6631 -0.6919
vn -0.2855 -0.6631 -0.6919
vn -0.3824 -0.4541 -0.8047
vn 0.4515 -0.4143 -0.7903
vn 0.3869 -0.4627 -0.7976
vn -0.3869 -0.4627 -0.7976
vn -0.4515 -0.4143 -0.7903
vn 0.4462 -0.2655 -0.8546
vn -0.4462 -0.2655 -0.8546
vn 0.4563 -0.3658 -0.8112
vn -0.4563 -0.3658 -0.8112
vn 0.4485 -0.2708 -0.8518
vn -0.4485 -0.2708 -0.8518
vn -0.7406 -0.3979 -0.5415
vn 0.7406 -0.3979 -0.5415
vn 0.1128 0.7011 0.704
vn -0.1128 0.7011 0.704
vn 0.7875 0.4973 0.364
vn -0.7875 0.4973 0.364
vn 0.7334 0.678 0.0499
vn -0.7334 0.678 0.0499
vn 0.7476 0.6571 -0.0971
vn -0.7476 0.6571 -0.0971
vn -1.0 0.0 -0.0
vn 1.0 0.0 -0.0
vn 0.0577 0.2363 -0.97
vn 0.0977 -0.0653 -0.9931
vn -0.0977 -0.0653 -0.9931
vn -0.0577 0.2363 -0.97
vn -0.0 0.3537 -0.9354
vn 0.0526 0.5347 -0.8434
vn -0.0526 0.5347 -0.8434
vn 0.0 0.5328 -0.8462
vn 0.0566 0.734 -0.6768
vn 0.0 0.6766 -0.7364
vn -0.0566 0.734 -0.6768
vn 0.0574 0.8567 -0.5126
vn 0.0 0.8283 -0.5603
vn -0.0574 0.8567 -0.5126
vn 0.0296 0.904 -0.4265
vn -0.0 0.911 -0.4124
vn -0.0296 0.904 -0.4265
vn 0.7986 0.5963 -0.0817
vn -0.7986 0.5963 -0.0817
vn 0.7431 0.6334 0.2157
vn -0.7431 0.6334 0.2157
vn 0.7662 0.3722 0.5239
vn 0.7862 0.3206 0.5283
vn -0.7862 0.3206 0.5283
vn -0.7662 0.3722 0.5239
vn 0.8149 0.5793 0.0168
vn -0.8149 0.5793 0.0168
vn 0.797 0.5678 0.206
vn -0.797 0.5678 0.206
vn 0.2648 -0.5182 -0.8132
vn 0.4033 -0.6561 -0.6379
vn -0.4033 -0.6561 -0.6379
vn -0.2648 -0.5182 -0.8132
vn 0.3123 -0.3113 -0.8976
vn -0.3123 -0.3113 -0.8976
f 19//1 17//2 15//3
f 16//4 18//5 20//6
f 21//7 19//1 15//3
f 16//4 20//6 22//8
f 21//7 15//3 13//9
f 14//10 16//4 22//8
f 23//11 21//7 13//9
f 14//10 22//8 24//12
f 25//2 23//11 13//9
f 14//10 24//12 26//5
f 25//2 13//9 11//2
f 12//5 14//10 26//5
f 164//2 25//2 11//2
f 12//5 26//5 165//5
f 164//2 11//2 9//2
f 10//5 12//5 165//5
f 164//2 9//2 7//2
f 8//5 10//5 165//5
f 166//2 164//2 7//2
f 8//5 165//5 167//5
f 166//2 7//2 5//2
f 6//5 8//5 167//5
f 166//2 5//2 3//2
f 4//5 6//5 167//5
f 154//13 49//14 152//15
f 153//16 50//17 155//18
f 89//19 49//14 154//13
f 155//18 50//17 90//20
f 91//21 89//19 154//13
f 155//18 90//20 92//22
f 91//21 154//13 156//23
f 157//24 155//18 92//22
f 93//25 91//21 156//23
f 157//24 92//22 94//26
f 93//25 156//23 158//27
f 159//28 157//24 94//26
f 93//25 158//27 160//29
f 161//30 159//28 94//26
f 95//31 93//32 160//29
f 161//30 94//33 96//34
f 97//35 95//31 160//29
f 161//30 96//34 98//36
f 97//35 160//29 162//37
f 163//38 161//30 98//36
f 83//39 105//40 104//41
f 104//41 105//40 84//42
f 35//43 85//44 83//45
f 84//46 86//47 36//48
f 81//49 83//39 104//41
f 104//41 84//42 82//50
f 148//51 83//39 81//49
f 82//50 84//42 149//52
f 35//43 83//45 148//53
f 149//54 84//46 36//48
f 150//55 35//43 148//53
f 149//54 36//48 151//56
f 146//57 148//51 81//49
f 82//50 149//52 147//58
f 17//59 148//53 146//60
f 147//61 149//54 18//62
f 81//49 104//41 103//63
f 103//63 104//41 82//50
f 79//64 81//49 103//63
f 103//63 82//50 80//65
f 146//57 81//49 79//64
f 80//65 82//50 147//58
f 144//66 146//57 79//64
f 80//65 147//58 145//67
f 15//68 146//60 144//69
f 145//70 147//61 16//71
f 17//59 146//60 15//68
f 16//71 147//61 18//62
f 79//64 103//63 102//72
f 102//72 103//63 80//65
f 77//73 79//64 102//72
f 102//72 80//65 78//74
f 144//66 79//64 77//73
f 78//74 80//65 145//67
f 13//75 15//68 144//69
f 145//70 16//71 14//76
f 142//77 144//78 77//73
f 78//74 145//79 143//80
f 13//75 144//81 142//82
f 143//83 145//84 14//76
f 11//85 13//75 142//86
f 143//87 14//76 12//88
f 77//73 102//72 101//89
f 101//89 102//72 78//74
f 75//90 77//73 101//89
f 101//89 78//74 76//91
f 142//77 77//73 75//90
f 76//91 78//74 143//80
f 140//92 142//82 75//90
f 76//91 143//83 141//93
f 11//85 142//86 140//94
f 141//95 143//87 12//88
f 9//96 11//85 140//94
f 141//95 12//88 10//97
f 75//90 101//89 100//98
f 100//98 101//89 76//91
f 73//99 75//90 100//98
f 100//98 76//91 74//100
f 140//94 75//90 73//99
f 74//100 76//91 141//95
f 138//101 140//94 73//102
f 74//103 141//95 139//104
f 9//96 140//105 138//101
f 139//104 141//106 10//97
f 7//107 9//96 138//101
f 139//104 10//97 8//108
f 136//109 138//101 73//110
f 74//111 139//104 137//112
f 7//107 138//101 136//109
f 137//112 139//104 8//108
f 71//113 73//102 100//98
f 100//98 74//103 72//114
f 136//109 73//110 71//113
f 72//114 74//111 137//112
f 5//115 7//107 136//109
f 137//112 8//108 6//116
f 71//113 100//98 99//117
f 99//117 100//98 72//114
f 134//118 5//115 136//109
f 137//112 6//116 135//119
f 134//118 136//109 71//113
f 72//114 137//112 135//119
f 69//120 71//113 99//117
f 99//117 72//114 70//121
f 134//118 71//113 69//122
f 70//123 72//114 135//119
f 69//124 99//117 123//125
f 123//125 99//117 70//126
f 132//127 134//118 69//128
f 70//129 135//119 133//130
f 67//131 132//127 69//132
f 70//133 133//130 68//134
f 85//44 31//135 106//136
f 106//136 32//137 86//47
f 33//138 31//135 85//44
f 86//47 32//137 34//139
f 85//44 106//136 105//140
f 105//140 106//136 86//47
f 83//45 85//44 105//140
f 105//140 86//47 84//46
f 33//138 85//44 35//43
f 36//48 86//47 34//139
f 35//43 150//55 37//141
f 38//142 151//56 36//48
f 37//141 150//55 39//143
f 40//144 151//56 38//142
f 19//145 39//143 150//55
f 151//56 40//144 20//146
f 19//145 41//147 39//143
f 40//144 42//148 20//146
f 45//149 152//15 47//150
f 48//151 153//16 46//152
f 47//150 152//15 49//14
f 50//17 153//16 48//151
f 29//153 106//136 31//135
f 32//137 106//136 30//154
f 107//155 106//136 29//153
f 30//154 106//136 107//155
f 107//155 29//153 59//156
f 60//157 30//154 107//155
f 108//158 107//155 59//156
f 60//157 107//155 108//158
f 108//158 59//156 57//159
f 58//160 60//157 108//158
f 109//161 108//158 57//159
f 58//160 108//158 109//161
f 109//161 57//159 55//162
f 56//163 58//160 109//161
f 110//164 55//162 53//165
f 54//166 56//163 110//164
f 109//161 55//162 110//164
f 110//164 56//163 109//161
f 53//165 87//167 110//164
f 110//164 88//168 54//166
f 51//169 87//167 53//165
f 54//166 88//168 52//170
f 49//14 89//19 87//167
f 88//168 90//20 50//17
f 51//169 49//14 87//167
f 88//168 50//17 52//170
f 89//19 172//171 87//167
f 88//168 173//172 90//20
f 89//19 170//173 172//171
f 173//172 171//174 90//20
f 89//19 168//175 170//173
f 171//174 169//176 90//20
f 91//21 113//177 112//178
f 112//178 113//177 92//22
f 93//179 113//177 91//21
f 92//22 113//177 94//180
f 95//181 113//177 93//179
f 94//180 113//177 96//182
f 95//181 114//183 113//177
f 113//177 114//183 96//182
f 168//175 112//178 111//184
f 111//184 112//178 169//176
f 89//19 112//178 168//175
f 169//176 112//178 90//20
f 91//21 112//178 89//19
f 90//20 112//178 92//22
f 67//185 121//186 65//187
f 66//188 121//186 68//189
f 67//185 122//190 121//186
f 121//186 122//190 68//189
f 69//191 122//190 67//192
f 68//193 122//190 70//194
f 69//191 123//125 122//190
f 122//190 123//125 70//194
f 130//195 3//196 132//127
f 133//130 4//197 131//198
f 1//199 3//200 130//201
f 131//202 4//203 2//204
f 162//37 166//205 27//206
f 28//207 167//208 163//38
f 124//209 162//37 27//206
f 28//207 163//38 125//210
f 97//35 162//37 124//209
f 125//210 163//38 98//36
f 128//211 130//212 65//213
f 66//214 131//215 129//216
f 1//217 130//212 128//211
f 129//216 131//215 2//218
f 61//219 97//35 124//209
f 125//210 98//36 62//220
f 128//211 65//213 63//221
f 64//222 66//214 129//216
f 27//223 1//224 128//211
f 129//216 2//225 28//226
f 126//227 128//211 63//228
f 64//229 129//216 127//230
f 27//223 128//211 126//227
f 127//230 129//216 28//226
f 124//231 27//223 126//227
f 127//230 28//226 125//232
f 124//231 126//227 63//233
f 64//234 127//230 125//232
f 61//235 124//231 63//233
f 64//234 125//232 62//236
f 3//196 5//115 134//118
f 135//119 6//116 4//197
f 132//127 3//196 134//118
f 135//119 4//197 133//130
f 61//237 63//237 65//237
f 66//238 64//238 62//238
f 1//2 27//2 166//2
f 167//5 28//5 2//5
f 1//2 166//2 3//2
f 4//5 167//5 2//5
f 87//167 172//171 174//239
f 175//240 173//172 88//168
f 87//167 174//239 110//164
f 110//164 175//240 88//168
f 17//59 19//145 150//55
f 151//56 20//146 18//62
f 17//59 150//55 148//53
f 149//54 151//56 18//62
f 45//149 176//241 152//15
f 153//16 177//242 46//152
f 156//23 180//243 158//27
f 159//28 181//244 157//24
f 160//29 182//245 162//37
f 163//38 183//246 161//30
f 97//247 191//247 95//247
f 96//248 192//248 98//248
f 97//247 117//247 191//247
f 192//248 118//248 98//248
f 97//247 186//247 117//247
f 118//248 187//248 98//248
f 97//247 119//247 186//247
f 187//248 120//248 98//248
f 61//247 65//247 188//247
f 189//248 66//248 62//248
f 119//247 61//247 188//247
f 189//248 62//248 120//248
f 119//247 97//247 61//247
f 62//248 98//248 120//248
f 188//249 65//250 121//186
f 121//186 66//251 189//252
f 188//249 121//186 190//253
f 190//253 121//186 189//252
f 119//254 188//249 190//253
f 190//253 189//252 120//255
f 119//254 190//253 116//256
f 116//256 190//253 120//255
f 186//257 119//254 185//258
f 185//258 120//255 187//259
f 119//254 116//256 185//258
f 185//258 116//256 120//255
f 117//260 186//257 115//261
f 115//261 187//259 118//262
f 186//257 185//258 115//261
f 115//261 185//258 187//259
f 191//263 117//260 184//264
f 184//264 118//262 192//265
f 117//260 115//261 184//264
f 184//264 115//261 118//262
f 95//181 191//263 184//264
f 184//264 192//265 96//182
f 95//181 184//264 114//183
f 114//183 184//264 96//182
f 164//266 166//205 182//245
f 183//246 167//208 165//267
f 166//205 162//37 182//245
f 183//246 163//38 167//208
f 158//27 180//243 182//245
f 183//246 181//244 159//28
f 158//27 182//245 160//29
f 161//30 183//246 159//28
f 154//13 178//268 156//23
f 157//24 179//269 155//18
f 178//268 180//243 156//23
f 157//24 181//244 179//269
f 152//15 176//241 178//268
f 179//269 177//242 153//16
f 152//15 178//268 154//13
f 155//18 179//269 153//16
f 21//270 176//241 43//271
f 44//272 177//242 22//273
f 176//241 45//149 43//271
f 44//272 46//152 177//242
f 19//145 21//270 41//147
f 42//148 22//273 20//146
f 21//270 43//271 41//147
f 42//148 44//272 22//273
f 25//274 164//266 182//245
f 183//246 165//267 26//275
f 25//274 182//245 180//243
f 181//244 183//246 26//275
f 23//276 25//274 178//268
f 179//269 26//275 24//277
f 25//274 180//243 178//268
f 179//269 181//244 26//275
f 21//270 23//276 176//241
f 177//242 24//277 22//273
f 23//276 178//268 176//241
f 177//242 179//269 24//277
f 65//278 130//279 132//127
f 133//130 131//280 66//281
f 65//282 132//127 67//192
f 68//193 133//130 66//283
