# license: Copyright Cyberbotics Ltd. Licensed for use only with Webots, see https://cyberbotics.com/webots_assets_license
o leg_lower_right
v -0.0321993 -0.0784274 -0.0367567
v 0.0321848 -0.0784297 -0.036759
v -0.0311065 -0.039214 -0.0368244
v 0.0310947 -0.0392162 -0.0368265
v -0.0307739 -0.0273103 -0.0213664
v 0.030764 -0.0273124 -0.0213685
v -0.0303676 -0.0127541 -0.0089623
v 0.0303596 -0.0127562 -0.0089644
v -0.0299627 0.0017605 -0.0015366
v 0.0299562 0.0017584 -0.0015386
v -0.0295524 0.0164661 0.0041364
v 0.0295473 0.0164641 0.0041343
v -0.0295519 0.0164723 0.0132633
v 0.0295475 0.0164702 0.0132613
v -0.0308119 -0.0287301 0.009323
v 0.030804 -0.0287322 0.0093209
v -0.0317947 -0.0639797 0.0020636
v 0.0317838 -0.0639819 0.0020614
v -0.0321936 -0.0782869 -0.0018773
v 0.0321815 -0.0782892 -0.0018795
v -0.0245284 -0.104272 0.0042731
v 0.0245149 -0.104274 0.0042714
v -0.0275971 -0.0999259 0.0088055
v 0.0275843 -0.0999278 0.0088036
v -0.0313345 -0.0910052 0.0009336
v 0.0313218 -0.0910074 0.0009314
v -0.0320669 -0.0852867 -0.001929
v 0.0320543 -0.085289 -0.0019313
v -0.0245289 -0.104272 -0.0063462
v 0.0245147 -0.104274 -0.0063479
v -0.0275982 -0.0999262 -0.0114828
v 0.0275839 -0.0999282 -0.0114847
v -0.0313357 -0.0910056 -0.021763
v 0.0313214 -0.0910077 -0.0217652
v -0.0320683 -0.0852872 -0.0283899
v 0.0320539 -0.0852894 -0.0283921
v -4.3e-06 -0.0583238 0.0271951
v -2.7e-06 -0.0147893 0.0307726
v -1.6e-06 0.0164661 0.0312491
v -0.0199881 -0.0583235 0.0271962
v 0.0199794 -0.0583249 0.0271948
v -0.0199871 -0.0147889 0.0307736
v 0.0199818 -0.0147903 0.0307722
v -0.0199866 0.0164664 0.0312502
v 0.0199834 0.016465 0.0312488
v -0.0218916 -0.0583235 0.0245723
v 0.0218828 -0.058325 0.0245708
v -0.0218923 -0.0862333 0.0205175
v 0.0218812 -0.0862348 0.020516
v -0.0266784 0.0164694 0.0225978
v 0.0266747 0.0164675 0.0225959
v -0.026354 -0.0217595 0.0218212
v 0.0263475 -0.0217613 0.0218193
v -0.0265701 -0.0611515 0.0190455
v 0.0265607 -0.0611533 0.0190437
v -0.0265918 -0.0822601 0.0142797
v 0.0265806 -0.0822619 0.0142779
v -0.0288887 -0.0784275 -0.0367569
v 0.0288741 -0.0784295 -0.0367589
v -0.0277958 -0.039214 -0.0368245
v 0.027784 -0.039216 -0.0368265
v -0.0274632 -0.0273103 -0.0213665
v 0.0274534 -0.0273123 -0.0213684
v -0.0270569 -0.0127542 -0.0089625
v 0.0270489 -0.012756 -0.0089644
v -0.026652 0.0017605 -0.0015367
v 0.0266455 0.0017586 -0.0015386
v -0.0262417 0.0164661 0.0041362
v 0.0262367 0.0164642 0.0041344
v -0.0262412 0.0164722 0.0132632
v 0.0262368 0.0164704 0.0132613
v -0.0212177 -0.104272 0.0042729
v 0.0212042 -0.104274 0.0042714
v -0.0242864 -0.0999259 0.0088053
v 0.0242736 -0.0999276 0.0088036
v -0.0212182 -0.104272 -0.0063464
v 0.021204 -0.104274 -0.0063479
v -0.0242875 -0.0999263 -0.011483
v 0.0242732 -0.099928 -0.0114847
v -0.0280251 -0.0910056 -0.0217631
v 0.0280107 -0.0910076 -0.0217651
v -0.0287576 -0.0852873 -0.0283901
v 0.0287432 -0.0852893 -0.0283921
v -0.0176031 -0.0583235 0.0248109
v 0.0175943 -0.0583248 0.0248097
v -0.0176016 0.0164664 0.0288649
v 0.0175982 0.0164651 0.0288637
v -0.0195066 -0.0583235 0.022187
v 0.0194976 -0.0583249 0.0221857
v -0.0195073 -0.0862334 0.0181323
v 0.019496 -0.0862347 0.0181309
v -0.0242934 0.0164693 0.0202125
v 0.0242895 0.0164676 0.0202108
v -4.4e-06 -0.0583238 0.0243141
v -1.7e-06 0.016466 0.0283681
vn -0.9996 0.0279 0.0001
vn -0.9996 0.0279 0.0
vn 0.9996 0.0278 -0.0
vn -0.9999 0.0164 0.0001
vn 0.9999 0.0163 0.0
vn -1.0 0.0093 0.0001
vn 1.0 0.0092 0.0
vn -0.8169 -0.5768 0.0
vn -0.8169 -0.5768 0.0001
vn 0.8168 -0.5769 -0.0
vn -0.9223 -0.3864 0.0001
vn 0.9223 -0.3864 -0.0
vn -0.8168 -0.5769 0.0
vn -0.9973 -0.0729 0.0001
vn -0.9919 -0.127 0.0001
vn 0.9919 -0.1271 -0.0
vn 0.9973 -0.073 0.0
vn -0.9973 -0.0731 0.0001
vn 0.9973 -0.0732 -0.0
vn -0.9434 -0.0265 0.3306
vn -0.9394 -0.0132 0.3425
vn -0.927 -0.0619 0.37
vn 0.9395 -0.0132 0.3424
vn 0.9434 -0.0265 0.3305
vn 0.927 -0.062 0.3699
vn -0.9478 0.008 0.3187
vn -0.9471 -0.0398 0.3186
vn 0.9479 0.008 0.3186
vn 0.9471 -0.0398 0.3185
vn -0.8286 -0.1222 0.5464
vn -0.7745 -0.1384 0.6172
vn 0.7745 -0.1384 0.6172
vn 0.8286 -0.1222 0.5464
vn -0.7692 -0.074 0.6348
vn -0.7343 -0.098 0.6717
vn 0.7343 -0.0981 0.6717
vn 0.7692 -0.0741 0.6347
vn -0.9507 -0.0475 0.3065
vn 0.9507 -0.0476 0.3065
vn -0.7796 -0.0344 0.6254
vn 0.7796 -0.0344 0.6253
vn -0.9477 -0.0191 0.3185
vn 0.9478 -0.0192 0.3184
vn -0.9413 -0.0032 0.3375
vn 0.9413 -0.0033 0.3375
vn -0.8085 -0.0482 0.5865
vn -0.7982 -0.0363 0.6013
vn 0.7982 -0.0364 0.6012
vn 0.8085 -0.0482 0.5865
vn -0.791 -0.0093 0.6118
vn 0.791 -0.0094 0.6117
vn 0.0 -0.0819 0.9966
vn 0.0 -0.0486 0.9988
vn 0.0001 -0.0486 0.9988
vn 0.0 -0.0152 0.9999
vn 0.0001 -0.0152 0.9999
vn 0.0001 1.0 -0.0002
vn 0.0002 1.0 0.0002
vn -0.0002 1.0 0.0002
vn -0.0001 1.0 -0.0002
vn 0.0 1.0 -0.0007
vn 0.0001 1.0 -0.0007
vn -0.0 0.4082 -0.9129
vn -0.0001 0.3599 -0.933
vn -0.0 0.3599 -0.933
vn -0.0 0.4555 -0.8903
vn -0.0 0.6486 -0.7611
vn 0.0001 1.0 0.0001
vn -0.0 1.0 0.0001
vn -0.0 0.7923 -0.6101
vn -0.0 -0.0017 -1.0
vn -0.0001 -0.7733 -0.634
vn -0.0001 -0.7653 -0.6437
vn -0.0 -0.7653 -0.6437
vn -0.0 -0.7562 -0.6543
vn 0.0229 -0.7515 -0.6593
vn -0.0229 -0.7516 -0.6593
vn -0.0 -0.7594 -0.6506
vn 0.0229 -0.7537 -0.6568
vn -0.0 -0.7594 -0.6507
vn -0.0229 -0.7537 -0.6568
vn -0.0001 -0.7634 -0.6459
vn 0.0344 -0.7527 -0.6574
vn -0.0 -0.7634 -0.6459
vn -0.0343 -0.7528 -0.6574
vn 0.0 -1.0 -0.0
vn 0.0 -0.7218 0.6921
vn 0.0 -0.7217 0.6922
vn 0.0 -0.563 0.8265
vn 0.7034 -0.1022 0.7034
vn -0.7034 -0.1022 0.7034
vn -0.0001 -1.0 0.0
vn 0.0 1.0 -0.0
vn -0.0282 0.0541 -0.9981
vn -0.0 0.0541 -0.9985
vn 0.0281 0.0541 -0.9981
vn 0.8089 0.0363 -0.5868
vn 0.8337 0.0433 -0.5504
vn -0.8338 0.0434 -0.5504
vn -0.8089 0.0363 -0.5868
vn 0.9358 0.0507 -0.349
vn 0.9001 0.0507 -0.4328
vn 0.9242 0.0428 -0.3796
vn -0.9001 0.0508 -0.4327
vn -0.9358 0.0507 -0.3489
vn -0.9242 0.0428 -0.3795
vn 0.8569 0.0503 -0.513
vn 0.8727 0.0461 -0.486
vn -0.8728 0.0461 -0.4859
vn -0.857 0.0504 -0.5129
vn 0.971 0.0452 -0.2349
vn 0.9501 0.0386 -0.3097
vn 0.9626 0.0265 -0.2698
vn -0.9501 0.0387 -0.3096
vn -0.971 0.0453 -0.2349
vn -0.9626 0.0266 -0.2697
vn 0.8245 -0.0078 0.5658
vn -0.8245 -0.0078 0.5658
vn 0.9997 -0.0026 -0.0248
vn 0.9991 0.0416 -0.0
vn -0.9991 0.0416 0.0
vn -0.9997 -0.0025 -0.0248
vn 0.938 0.0932 -0.3339
vn 0.9514 0.0599 -0.3022
vn -0.9514 0.06 -0.3021
vn -0.938 0.0933 -0.3338
vn 0.9981 0.0007 -0.062
vn 0.9978 0.0023 -0.066
vn 0.9952 0.0151 -0.097
vn -0.9978 0.0024 -0.0659
vn -0.9981 0.0008 -0.0619
vn -0.9952 0.0152 -0.0969
vn 0.9997 -0.025 -0.0054
vn -0.9997 -0.025 -0.0054
vn 0.9996 -0.0279 -0.0
vn -0.9996 -0.0278 0.0
vn 0.9996 -0.0279 -0.0001
f 11//1 15//2 13//2
f 16//3 12//3 14//3
f 11//1 17//1 15//2
f 18//3 12//3 16//3
f 9//1 17//1 11//1
f 18//3 10//3 12//3
f 9//1 19//4 17//1
f 20//5 10//3 18//3
f 7//1 19//4 9//1
f 20//5 8//3 10//3
f 7//1 1//6 19//4
f 8//3 20//5 2//7
f 5//1 1//6 7//1
f 6//3 8//3 2//7
f 3//1 1//6 5//1
f 4//3 6//3 2//7
f 31//8 21//8 23//9
f 22//10 32//10 24//10
f 25//11 31//11 23//11
f 32//12 26//12 24//12
f 31//8 29//13 21//8
f 30//10 32//10 22//10
f 33//11 31//11 25//11
f 32//12 34//12 26//12
f 27//14 33//15 25//15
f 34//16 28//17 26//16
f 1//6 27//14 19//4
f 28//17 2//7 20//5
f 35//18 33//15 27//14
f 34//16 36//19 28//17
f 1//6 35//18 27//14
f 36//19 2//7 28//17
f 56//20 25//21 23//22
f 26//23 57//24 24//25
f 27//26 56//20 19//27
f 57//24 28//28 20//29
f 27//26 25//21 56//20
f 26//23 28//28 57//24
f 23//30 48//31 56//31
f 49//32 24//33 57//32
f 46//34 54//35 56//31 48//31
f 57//32 55//36 47//37 49//32
f 17//38 19//27 56//20 54//38
f 57//24 20//29 18//39 55//39
f 46//34 52//40 54//35
f 53//41 47//37 55//36
f 15//42 17//38 54//38 52//42
f 55//39 18//39 16//43 53//43
f 13//44 15//42 52//42 50//44
f 53//43 16//43 14//45 51//45
f 40//46 42//47 46//34
f 43//48 41//49 47//37
f 42//47 52//40 46//34
f 53//41 43//48 47//37
f 42//47 44//50 50//50 52//40
f 51//51 45//51 43//48 53//41
f 37//52 38//53 42//54 40//52
f 43//53 38//53 37//52 41//52
f 38//53 39//55 44//56 42//54
f 45//55 39//55 38//53 43//53
f 13//57 50//58 92//58 70//57
f 93//59 51//59 14//60 71//60
f 11//61 13//57 70//57 68//61
f 71//60 14//60 12//62 69//62
f 9//63 11//64 68//64 66//63
f 69//65 12//65 10//63 67//63
f 7//66 9//63 66//63 64//66
f 67//63 10//63 8//66 65//66
f 5//67 7//67 64//67 62//67
f 65//67 8//67 6//67 63//67
f 44//68 86//68 92//58 50//58
f 93//59 87//69 45//69 51//59
f 3//70 5//70 62//70 60//70
f 63//70 6//70 4//70 61//70
f 1//71 3//71 60//71 58//71
f 61//71 4//71 2//71 59//71
f 1//72 58//72 82//73 35//73
f 83//74 59//72 2//72 36//74
f 33//75 35//73 82//73 80//76
f 83//74 36//74 34//75 81//77
f 31//78 33//75 80//76 78//79
f 81//77 34//75 32//80 79//81
f 29//82 31//78 78//79 76//83
f 79//81 32//80 30//84 77//85
f 21//86 29//86 76//86 72//86
f 77//86 30//86 22//86 73//86
f 21//87 72//87 74//87 23//87
f 75//88 73//88 22//88 24//88
f 23//89 74//89 90//89 48//89
f 91//89 75//89 24//89 49//89
f 46//90 48//90 90//90 88//90
f 91//91 49//91 47//91 89//91
f 40//86 46//86 88//86 84//86
f 89//86 47//86 41//92 85//92
f 39//93 95//93 86//68 44//68
f 87//69 95//93 39//93 45//69
f 37//86 40//86 84//86 94//86
f 85//92 41//92 37//86 94//86
f 84//94 86//94 95//95 94//95
f 95//95 87//96 85//96 94//95
f 84//97 88//97 92//98 86//97
f 93//99 89//100 85//100 87//100
f 88//101 90//102 92//103
f 91//104 89//105 93//106
f 74//107 92//108 90//102
f 93//109 75//110 91//104
f 70//111 92//112 74//113
f 93//114 71//115 75//116
f 70//117 74//117 72//117
f 75//118 71//118 73//118
f 70//119 72//120 76//120
f 73//121 71//122 77//121
f 80//123 70//124 76//123
f 71//125 81//126 77//126
f 82//127 70//128 80//129
f 71//130 83//131 81//132
f 58//133 70//119 82//127
f 71//122 59//134 83//131
f 80//76 76//83 78//79
f 77//85 81//77 79//81
f 64//135 66//135 58//133
f 67//136 65//136 59//134
f 62//137 64//135 58//133
f 65//136 63//136 59//134
f 60//137 62//137 58//133
f 63//136 61//136 59//134
f 58//133 66//135 70//119
f 67//136 59//134 71//122
f 66//135 68//135 70//119
f 69//136 67//136 71//122
