# license: Copyright Cyberbotics Ltd. Licensed for use only with Webots, see https://cyberbotics.com/webots_assets_license
o leg_upper_motor_left
v 0.0148675 -0.0550762 0.0116404
v 0.0148666 -0.105434 0.0116412
v 0.014868 -0.0550767 -0.0137539
v 0.014867 -0.105435 -0.0137531
v 0.0104632 -0.105435 -0.0137532
v 0.0104628 -0.105434 0.0116411
v 0.0104642 -0.0550766 -0.013754
v 0.0104638 -0.0550761 0.0116403
v 0.0104634 -0.0995206 -0.0189472
v 0.0104628 -0.0995199 0.0166704
v 0.0104642 -0.0609908 -0.0189478
v 0.0104636 -0.0609902 0.0166698
v 0.0148672 -0.0995207 -0.0189471
v 0.0148666 -0.0995201 0.0166705
v 0.014868 -0.0609909 -0.0189477
v 0.0148673 -0.0609903 0.0166699
v -0.0103675 -0.0609894 0.016669
v -0.0103668 -0.0609901 -0.0189486
v -0.0103682 -0.0995192 0.0166696
v -0.0103676 -0.0995198 -0.018948
v -0.0147712 -0.0609893 0.0166689
v -0.0147706 -0.0609899 -0.0189487
v -0.014772 -0.0995191 0.0166695
v -0.0147714 -0.0995197 -0.0189481
v -0.014771 -0.0550753 0.0116394
v -0.0147706 -0.0550757 -0.0137548
v -0.014772 -0.105433 0.0116402
v -0.0147716 -0.105434 -0.0137541
v -0.0103678 -0.105434 -0.013754
v -0.0103668 -0.0550758 -0.0137548
v -0.0103682 -0.105433 0.0116403
v -0.0103673 -0.0550754 0.0116395
v 0.0182062 -0.105435 -0.013753
v 0.0182072 -0.0550767 -0.0137538
v 0.0182058 -0.105434 0.0116413
v 0.0182068 -0.0550763 0.0116405
v -0.0177682 -0.105434 -0.0137541
v -0.0177687 -0.105433 0.0116402
v -0.0177672 -0.0550756 -0.0137549
v -0.0177677 -0.0550752 0.0116394
vn 0.0 -0.0 -1.0
vn -0.0 0.0 1.0
vn 0.0 1.0 -0.0
vn -0.0 -1.0 0.0
vn -1.0 0.0 -0.0
vn 1.0 -0.0 0.0
vn 0.0 -0.6599 -0.7514
vn 0.0 0.6599 -0.7514
vn -0.0 0.6478 0.7618
vn -0.0 -0.6478 0.7618
f 33//1 37//1 34//1
f 34//1 37//1 39//1
f 36//2 38//2 35//2
f 36//2 40//2 38//2
f 34//3 39//3 40//3
f 34//3 40//3 36//3
f 33//4 38//4 37//4
f 33//4 35//4 38//4
f 39//5 37//5 38//5
f 39//5 38//5 40//5
f 33//6 36//6 35//6
f 33//6 34//6 36//6
f 21//2 23//2 19//2
f 21//2 19//2 17//2
f 18//1 20//1 24//1
f 18//1 24//1 22//1
f 24//5 28//5 26//5
f 24//5 26//5 22//5
f 20//6 30//6 29//6
f 20//6 18//6 30//6
f 29//7 28//7 24//7
f 29//7 24//7 20//7
f 22//8 26//8 30//8
f 22//8 30//8 18//8
f 32//9 25//9 21//9
f 32//9 21//9 17//9
f 19//6 31//6 32//6
f 19//6 32//6 17//6
f 25//5 27//5 23//5
f 25//5 23//5 21//5
f 23//10 27//10 31//10
f 23//10 31//10 19//10
f 10//10 6//10 2//10
f 10//10 2//10 14//10
f 8//5 6//5 10//5
f 8//5 10//5 12//5
f 1//6 16//6 14//6
f 1//6 14//6 2//6
f 1//9 8//9 12//9
f 1//9 12//9 16//9
f 11//8 7//8 3//8
f 11//8 3//8 15//8
f 4//7 5//7 9//7
f 4//7 9//7 13//7
f 13//6 3//6 4//6
f 13//6 15//6 3//6
f 9//5 5//5 7//5
f 9//5 7//5 11//5
f 15//1 13//1 9//1
f 15//1 9//1 11//1
f 12//2 10//2 14//2
f 12//2 14//2 16//2
