# license: Copyright Cyberbotics Ltd. Licensed for use only with Webots, see https://cyberbotics.com/webots_assets_license
o leg_upper_right
v -0.0268751 -0.104904 -0.0082243
v 0.0268672 -0.104906 -0.0082262
v -0.0268748 -0.107659 -0.0007447
v 0.0268673 -0.107661 -0.0007465
v -0.0268743 -0.105565 0.0070048
v 0.0268675 -0.105567 0.0070029
v -0.0247106 -0.100248 0.0112414
v 0.0247044 -0.10025 0.0112397
v -0.0207297 -0.0798423 0.0190452
v 0.0207254 -0.0798438 0.0190437
v -0.02072 -0.0748139 0.0190452
v 0.0207161 -0.0748153 0.0190437
v -0.0151325 -0.0748141 0.0256025
v 0.0151291 -0.0748151 0.0256014
v -0.0151427 -0.0393888 0.0256025
v 0.0151418 -0.0393899 0.0256014
v -0.0191718 -0.0383058 0.0220801
v 0.0191707 -0.0383071 0.0220788
v -0.0200855 -0.0355728 0.0202953
v 0.0200845 -0.0355742 0.0202939
v -0.0202365 -0.0210316 0.0199859
v 0.0202365 -0.021033 0.0199845
v -0.0247056 0.0037197 0.0112427
v 0.0247067 0.0037179 0.011241
v -0.0268703 0.0088198 0.0070048
v 0.0268714 0.0088179 0.0070029
v -0.0268705 0.0119229 0.0021997
v 0.0268715 0.011921 0.0021978
v -0.0268708 0.0117661 -0.0047306
v 0.0268713 0.0117642 -0.0047325
v -0.0268712 0.0086299 -0.0101241
v 0.0268711 0.008628 -0.010126
v -0.0268716 0.0032585 -0.0132302
v 0.0268709 0.0032566 -0.0132321
v -0.0268735 -0.0529287 -0.0120951
v 0.0268689 -0.0529305 -0.012097
v -0.0268744 -0.0686308 -0.0189057
v 0.0268683 -0.0686326 -0.0189075
v -0.0268751 -0.0998458 -0.0124735
v 0.0268673 -0.0998477 -0.0124753
v -1.7e-06 -0.0748146 0.0256017
v -5e-07 -0.0393893 0.0256017
v -0.0191731 -0.0748139 0.0220801
v 0.0191694 -0.0748153 0.0220788
v -0.0182398 -0.074814 0.021043
v 0.0182361 -0.0748153 0.0210418
v -5e-07 -0.0393893 0.0245647
v -1.8e-06 -0.0748146 0.0245647
v -0.0216722 -0.099846 -0.0125567
v 0.0216643 -0.0998475 -0.0125582
v -0.0216714 -0.068631 -0.0189889
v 0.0216653 -0.0686325 -0.0189904
v -0.0216705 -0.0529288 -0.0121783
v 0.021666 -0.0529304 -0.0121798
v -0.0216686 0.0032583 -0.0133134
v 0.0216679 0.0032568 -0.0133149
v -0.0216682 0.0086297 -0.0102073
v 0.0216681 0.0086282 -0.0102089
v -0.0216679 0.0117659 -0.0048138
v 0.0216683 0.0117644 -0.0048153
v -0.0216675 0.0119227 0.0021164
v 0.0216685 0.0119212 0.0021149
v -0.0182386 -0.0383058 0.021043
v 0.0182373 -0.0383071 0.0210418
v -0.0142095 -0.0393888 0.0245654
v 0.0142084 -0.0393898 0.0245644
v -0.0141993 -0.0748141 0.0245654
v 0.0141958 -0.0748151 0.0245644
v -0.0216718 -0.107659 -0.0008279
v 0.0216642 -0.107661 -0.0008294
v -0.0216721 -0.104904 -0.0083076
v 0.0216642 -0.104906 -0.0083091
v -0.0216713 -0.105565 0.0070045
v 0.0216645 -0.105567 0.007003
v -0.0216673 0.0088196 0.0070045
v 0.0216684 0.0088181 0.007003
v -0.0206426 -0.100248 0.0112412
v 0.0206364 -0.10025 0.0112397
v -0.0187198 -0.074814 0.0190451
v 0.018716 -0.0748153 0.0190438
v -0.0187634 -0.0798424 0.0190451
v 0.0187592 -0.0798437 0.0190438
v -0.0184737 -0.0210316 0.0199858
v 0.0184737 -0.0210329 0.0199845
v -0.0184244 -0.0355729 0.0202952
v 0.0184234 -0.0355742 0.0202939
v -0.0206122 0.0037195 0.0112425
v 0.0206132 0.0037181 0.011241
vn -0.891 0.0004 0.454
vn -0.8926 0.0017 0.4508
vn 0.891 0.0004 0.4539
vn 0.891 0.0003 0.454
vn 0.8926 0.0017 0.4508
vn -0.8906 0.0001 0.4549
vn -0.8903 0.0001 0.4554
vn 0.8906 -0.0 0.4548
vn 0.8903 0.0 0.4554
vn -0.8906 0.0 0.4548
vn 0.8906 -0.0 0.4547
vn -0.6577 -0.0001 0.7533
vn -0.6582 -0.0002 0.7528
vn 0.6583 -0.0002 0.7528
vn 0.6577 -0.0001 0.7533
vn 0.8906 -0.0001 0.4548
vn -0.8902 0.0003 0.4556
vn 0.8902 0.0002 0.4555
vn -0.8899 0.0005 0.4562
vn 0.8899 0.0004 0.4561
vn -1.0 0.0 0.0001
vn 1.0 -0.0 -0.0
vn -1.0 0.0 0.0
vn -1.0 0.0001 0.0
vn -0.6571 0.0 0.7538
vn 0.6572 -0.0 0.7537
vn -0.8909 0.0 0.4541
vn 0.891 -0.0 0.454
vn 0.6582 0.0002 -0.7528
vn 0.6577 0.0001 -0.7533
vn -0.6577 0.0001 -0.7533
vn -0.6583 0.0002 -0.7528
vn 1.0 -0.0 -0.0001
vn 0.6571 -0.0 -0.7538
vn -0.6572 0.0 -0.7537
vn 0.9755 -0.0006 -0.2198
vn 0.9753 -0.0003 -0.2207
vn 0.9738 -0.0016 -0.2275
vn -0.9738 -0.0015 -0.2274
vn -0.9753 -0.0002 -0.2207
vn -0.9756 -0.0006 -0.2198
vn 0.9709 -0.0003 -0.2395
vn -0.9709 -0.0002 -0.2395
vn 0.977 -0.0085 -0.2131
vn 0.9726 -0.0023 -0.2323
vn -0.9726 -0.0022 -0.2323
vn -0.977 -0.0084 -0.2131
vn 0.971 -0.0002 -0.2389
vn -0.9711 -0.0001 -0.2389
vn 0.9718 -0.0 -0.2359
vn -0.9718 0.0 -0.2359
vn 0.0 -0.6232 0.7821
vn 0.0 -0.3572 0.934
vn 0.0001 -0.0 1.0
vn 0.0 -0.0 1.0
vn 0.9723 -0.0 -0.2336
vn 0.9716 0.0002 -0.2368
vn -0.9723 0.0 -0.2335
vn -0.9716 0.0002 -0.2368
vn 0.0001 0.6391 0.7691
vn 0.0 0.6391 0.7691
vn 0.0001 0.3331 0.9429
vn 0.0 0.3331 0.9429
vn 0.0001 0.0213 0.9998
vn 0.0 0.0213 0.9998
vn 0.0001 0.5468 0.8373
vn -0.0 0.5468 0.8372
vn 0.7239 0.2274 0.6514
vn -0.7238 0.2276 0.6515
vn 0.0001 0.8401 0.5425
vn 0.0043 0.8422 0.5392
vn -0.0042 0.8422 0.5392
vn 0.0 0.8401 0.5425
vn 0.0086 0.8442 0.5359
vn -0.0085 0.8442 0.5359
vn -0.0 -0.0 -1.0
vn -0.0123 -0.6432 -0.7656
vn 0.0122 -0.6431 -0.7656
vn 0.0122 -0.6432 -0.7656
vn 0.0122 -0.6431 -0.7657
vn -0.0055 -0.9384 -0.3456
vn 0.0055 -0.9384 -0.3456
vn 0.0988 0.9911 0.0889
vn 0.1475 0.9801 0.1327
vn -0.1474 0.9801 0.1327
vn -0.0987 0.9911 0.0889
vn 0.0494 0.9978 0.0444
vn -0.0493 0.9978 0.0445
vn -0.0003 0.9997 -0.0226
vn 0.0004 0.9997 -0.0226
vn -0.008 0.8644 -0.5027
vn 0.008 0.8645 -0.5027
vn 0.008 0.8644 -0.5027
vn -0.016 -0.0202 -0.9997
vn 0.0159 -0.0202 -0.9997
vn -0.0147 0.3979 -0.9173
vn 0.0146 0.3979 -0.9173
vn -0.0157 -0.2018 -0.9793
vn 0.0156 -0.2018 -0.9793
vn -0.0138 0.5005 -0.8656
vn 0.0138 0.5005 -0.8656
vn 0.0 1.0 0.0
vn -0.0 -1.0 -0.0
vn -0.0001 -1.0 0.0
vn 0.0 -0.9654 0.2609
vn 0.0041 -0.9661 0.2583
f 11//1 7//1 9//2
f 8//3 12//4 10//5
f 25//6 7//1 19//7
f 8//3 26//8 20//9
f 25//6 5//10 7//1
f 6//11 26//8 8//3
f 13//12 15//13 17//12
f 16//14 14//15 18//15
f 19//7 11//1 17//10
f 12//4 20//9 18//16
f 19//7 7//1 11//1
f 8//3 20//9 12//4
f 19//7 23//17 25//6
f 24//18 20//9 26//8
f 19//7 21//19 23//17
f 22//20 20//9 24//18
f 37//21 39//21 35//21
f 40//22 38//22 36//22
f 3//21 5//21 25//21
f 6//22 4//22 26//22
f 33//23 35//21 27//23
f 36//22 34//22 28//22
f 35//21 25//21 27//23
f 26//22 36//22 28//22
f 35//21 39//21 25//21
f 40//22 36//22 26//22
f 31//24 27//23 29//24
f 28//22 32//22 30//22
f 31//24 33//23 27//23
f 34//22 32//22 28//22
f 39//21 3//21 25//21
f 4//22 40//22 26//22
f 3//21 39//21 1//21
f 40//22 4//22 2//22
f 13//12 17//12 43//25
f 18//15 14//15 44//26
f 43//27 17//10 11//1
f 18//16 44//28 12//4
f 65//29 67//30 63//30
f 68//31 66//32 64//31
f 49//33 51//22 53//33
f 52//23 50//23 54//23
f 53//33 55//22 61//33
f 56//23 54//23 62//23
f 61//33 57//33 59//33
f 58//23 62//23 60//23
f 55//22 57//33 61//33
f 58//23 56//23 62//23
f 49//33 69//33 71//22
f 70//23 50//23 72//23
f 63//30 67//30 45//34
f 68//31 64//31 46//35
f 75//33 73//33 69//33
f 70//23 74//23 76//23
f 61//33 75//33 69//33
f 70//23 76//23 62//23
f 53//33 61//33 69//33
f 70//23 62//23 54//23
f 53//33 69//33 49//33
f 50//23 70//23 54//23
f 83//36 85//37 79//38
f 80//39 86//40 84//41
f 87//42 83//36 79//38
f 80//39 84//41 88//43
f 79//38 81//44 77//45
f 78//46 82//47 80//39
f 87//42 79//38 77//45
f 78//46 80//39 88//43
f 75//48 87//42 77//45
f 78//46 88//43 76//49
f 75//48 77//45 73//50
f 74//51 78//46 76//49
f 5//52 73//52 7//52
f 74//52 6//52 8//52
f 7//52 73//52 77//52
f 74//52 8//52 78//52
f 7//53 77//53 9//53
f 78//53 8//53 10//53
f 9//53 77//53 81//53
f 78//53 10//53 82//53
f 9//54 81//54 11//54
f 82//54 10//54 12//54
f 11//54 81//54 79//55
f 82//54 12//54 80//55
f 45//56 79//38 63//57
f 80//39 46//58 64//59
f 63//57 79//38 85//37
f 80//39 64//59 86//40
f 23//60 75//60 25//60
f 76//61 24//61 26//61
f 23//60 87//60 75//60
f 88//61 24//61 76//61
f 21//62 87//62 23//62
f 88//63 22//63 24//63
f 21//62 83//62 87//62
f 84//63 22//63 88//63
f 19//64 83//64 21//64
f 84//65 20//65 22//65
f 19//64 85//64 83//64
f 86//65 20//65 84//65
f 17//66 85//66 19//66
f 86//67 18//67 20//67
f 17//68 63//68 85//68
f 64//69 18//69 86//69
f 25//70 75//71 27//71
f 76//72 26//73 28//72
f 27//71 75//71 61//74
f 76//72 28//72 62//75
f 47//76 67//76 65//76
f 68//76 47//76 66//76
f 47//76 48//76 67//76
f 48//76 47//76 68//76
f 39//77 71//77 1//77
f 72//78 40//78 2//79
f 39//77 49//77 71//77
f 50//80 40//78 72//78
f 1//81 69//81 3//81
f 70//82 2//82 4//82
f 1//81 71//81 69//81
f 72//82 2//82 70//82
f 15//83 63//84 17//84
f 64//85 16//86 18//85
f 15//83 65//87 63//84
f 66//88 16//86 64//85
f 27//89 61//89 29//89
f 62//90 28//90 30//90
f 29//89 61//89 59//89
f 62//90 30//90 60//90
f 29//91 59//91 31//91
f 60//92 30//93 32//92
f 31//91 59//91 57//91
f 60//92 32//92 58//92
f 33//94 53//94 35//94
f 54//95 34//95 36//95
f 33//94 55//94 53//94
f 56//95 34//95 54//95
f 35//96 53//96 37//96
f 54//97 36//97 38//97
f 37//96 53//96 51//96
f 54//97 38//97 52//97
f 37//98 49//98 39//98
f 50//99 38//99 40//99
f 37//98 51//98 49//98
f 52//99 38//99 50//99
f 31//100 57//100 33//100
f 58//101 32//101 34//101
f 33//100 57//100 55//100
f 58//101 34//101 56//101
f 42//102 65//87 15//83
f 66//88 42//102 16//86
f 42//102 47//102 65//87
f 47//102 42//102 66//88
f 13//103 67//103 41//103
f 68//103 14//103 41//103
f 41//103 67//103 48//103
f 68//103 41//103 48//103
f 43//104 45//103 13//103
f 46//103 44//103 14//103
f 13//103 45//103 67//103
f 46//103 14//103 68//103
f 13//54 42//55 15//54
f 42//55 14//55 16//55
f 13//54 41//55 42//55
f 41//55 14//55 42//55
f 4//105 6//105 74//105 70//105
f 3//106 69//106 73//106 5//106
f 12//103 44//103 46//103 80//103
f 11//103 79//103 45//103 43//104
