# license: Copyright Cyberbotics Ltd. Licensed for use only with Webots, see https://cyberbotics.com/webots_assets_license
o neck
v 0.0208742 0.0089758 0.0084754
v 0.0208741 0.0005642 0.0119739
v 0.0208742 -0.0079164 0.0084754
v 0.0208744 -0.0114149 2.93e-05
v 0.0208747 -0.0079164 -0.0084168
v 0.0208748 0.0005642 -0.0119153
v 0.0208747 0.0089758 -0.0084168
v 0.0208744 0.0124743 2.93e-05
v 0.0190454 0.0089758 0.0084754
v 0.0190453 0.0005642 0.0119739
v 0.0190454 -0.0079164 0.0084754
v 0.0190457 -0.0114149 2.93e-05
v 0.019046 -0.0079164 -0.0084169
v 0.0190461 0.0005642 -0.0119153
v 0.019046 0.0089758 -0.0084168
v 0.0190457 0.0124743 2.93e-05
v 0.0221934 -0.0308684 -0.0108051
v 0.0221927 -0.0308684 0.011001
v 0.0208741 -0.0294766 0.011001
v 0.0208748 -0.0294766 -0.0108052
v 0.0208748 0.0005642 -0.0108052
v 0.0208741 0.0005642 0.011001
v 0.0221927 0.0005642 0.011001
v 0.0221934 0.0005642 -0.0108051
v -0.0087984 -0.0327532 2.38e-05
v -0.0062282 -0.0327532 -0.0061801
v -2.38e-05 -0.0327532 -0.0087497
v 0.0061804 -0.0327532 -0.0061797
v 0.0087501 -0.0327532 2.44e-05
v 0.00618 -0.0327532 0.0062283
v -2.44e-05 -0.0327532 0.0087979
v -0.0062287 -0.0327532 0.0062279
v -0.0087984 -0.0308684 2.38e-05
v -0.0062282 -0.0308684 -0.0061801
v -2.38e-05 -0.0308684 -0.0087497
v 0.0061804 -0.0308684 -0.0061797
v 0.0087501 -0.0308684 2.44e-05
v 0.00618 -0.0308684 0.0062283
v -2.44e-05 -0.0308684 0.0087979
v -0.0062287 -0.0308684 0.0062279
v 0.0225672 0.0047428 2.94e-05
v 0.0225673 0.0035099 -0.002947
v 0.0225674 0.0005528 -0.0041799
v 0.0225673 -0.0024429 -0.002947
v 0.0225672 -0.0036757 2.94e-05
v 0.0225671 -0.0024429 0.0030058
v 0.0225671 0.0005528 0.0042386
v 0.0225671 0.0035099 0.0030058
v -0.0225672 0.0035099 0.003005
v -0.0225672 0.0005528 0.0042379
v -0.0225672 -0.0024429 0.003005
v -0.0225672 -0.0036757 2.86e-05
v -0.0225672 -0.0024429 -0.0029478
v -0.0225672 0.0005528 -0.0041806
v -0.0225672 0.0035099 -0.0029478
v -0.0225672 0.0047428 2.86e-05
v -0.0190457 0.0124743 2.86e-05
v -0.0190457 0.0089758 -0.0084175
v -0.0190457 0.0005642 -0.011916
v -0.0190457 -0.0079164 -0.0084175
v -0.0190457 -0.0114149 2.86e-05
v -0.0190457 -0.0079164 0.0084747
v -0.0190457 0.0005642 0.0119732
v -0.0190457 0.0089758 0.0084747
v -0.0208745 0.0124743 2.86e-05
v -0.0208744 0.0089758 -0.0084175
v -0.0208744 0.0005642 -0.011916
v -0.0208744 -0.0079164 -0.0084175
v -0.0208745 -0.0114149 2.86e-05
v -0.0208745 -0.0079164 0.0084747
v -0.0208745 0.0005642 0.0119732
v -0.0208745 0.0089758 0.0084747
v -0.022193 0.0005642 -0.0108059
v -0.022193 0.0005642 0.0110002
v -0.0208745 0.0005642 0.0110002
v -0.0208744 0.0005642 -0.0108059
v -0.0208744 -0.0294766 -0.0108059
v -0.0208745 -0.0294766 0.0110002
v -0.022193 -0.0308684 0.0110002
v -0.022193 -0.0308684 -0.0108059
vn 1.0 -0.0 0.0
vn -1.0 -0.0 -0.0
vn 0.0 -1.0 0.0
vn -0.3827 0.0 0.9239
vn 0.3826 0.0 0.9239
vn 0.9239 0.0 0.3827
vn 0.9239 0.0 -0.3827
vn 0.3827 0.0 -0.9239
vn -0.3826 0.0 -0.9239
vn -0.9239 0.0 -0.3827
vn -0.9239 0.0 0.3827
vn 0.0 1.0 0.0
vn -0.0 -0.0 1.0
vn 0.0001 -0.0 -1.0
vn 0.0 -0.0 -1.0
vn 0.0 0.9239 0.3827
vn 0.0 0.9239 -0.3827
vn 0.0 0.384 -0.9233
vn 0.0 -0.3813 -0.9244
vn 0.0001 -0.3813 -0.9244
vn 0.0 -0.3814 -0.9244
vn 0.0 -0.9239 -0.3827
vn 0.0 -0.9239 0.3827
vn 0.0 -0.3814 0.9244
vn 0.0 0.384 0.9233
vn 0.0 0.3848 -0.923
vn 0.0 -0.3806 -0.9248
vn 0.0 -0.3806 -0.9247
vn -0.0 -0.3806 0.9248
vn -0.0 -0.3806 0.9247
vn -0.0 0.3848 0.923
f 3//1 4//1 5//1
f 2//1 3//1 5//1
f 2//1 5//1 6//1
f 1//1 2//1 6//1
f 1//1 6//1 7//1
f 1//1 7//1 8//1
f 11//2 13//2 12//2
f 11//2 14//2 13//2
f 10//2 14//2 11//2
f 9//2 14//2 10//2
f 9//2 15//2 14//2
f 16//2 15//2 9//2
f 25//3 26//3 32//3
f 32//3 26//3 27//3
f 32//3 27//3 31//3
f 31//3 27//3 30//3
f 30//3 27//3 28//3
f 30//3 28//3 29//3
f 42//1 41//1 48//1
f 42//1 48//1 43//1
f 43//1 48//1 47//1
f 43//1 47//1 46//1
f 43//1 46//1 44//1
f 44//1 46//1 45//1
f 40//4 32//4 31//4
f 40//4 31//4 39//4
f 39//5 31//5 30//5
f 39//5 30//5 38//5
f 38//6 30//6 29//6
f 38//6 29//6 37//6
f 37//7 29//7 28//7
f 37//7 28//7 36//7
f 36//8 28//8 27//8
f 36//8 27//8 35//8
f 35//9 27//9 26//9
f 35//9 26//9 34//9
f 34//10 26//10 25//10
f 34//10 25//10 33//10
f 32//11 40//11 33//11
f 32//11 33//11 25//11
f 20//2 22//2 21//2
f 20//2 19//2 22//2
f 24//12 22//12 23//12
f 24//12 21//12 22//12
f 17//1 23//1 18//1
f 17//1 24//1 23//1
f 18//13 23//13 19//13
f 19//13 23//13 22//13
f 20//14 24//14 17//15
f 20//14 21//14 24//14
f 9//16 1//16 8//16
f 9//16 8//16 16//16
f 7//17 15//17 16//17
f 7//17 16//17 8//17
f 6//18 14//18 15//18
f 6//18 15//18 7//18
f 5//19 13//20 14//19
f 5//19 14//19 6//21
f 4//22 12//22 13//22
f 4//22 13//22 5//22
f 3//23 11//23 12//23
f 3//23 12//23 4//23
f 2//24 10//24 11//24
f 2//24 11//24 3//24
f 1//25 9//25 10//25
f 1//25 10//25 2//25
f 72//25 71//25 63//25
f 72//25 63//25 64//25
f 71//24 70//24 62//24
f 71//24 62//24 63//24
f 70//23 69//23 61//23
f 70//23 61//23 62//23
f 69//22 68//22 60//22
f 69//22 60//22 61//22
f 68//21 67//21 59//21
f 68//21 59//21 60//21
f 67//18 66//18 58//18
f 67//18 58//18 59//18
f 66//17 65//17 57//17
f 66//17 57//17 58//17
f 64//16 57//16 65//16
f 64//16 65//16 72//16
f 53//2 52//2 51//2
f 54//2 53//2 51//2
f 54//2 51//2 50//2
f 54//2 50//2 49//2
f 55//2 54//2 49//2
f 55//2 49//2 56//2
f 57//1 64//1 58//1
f 64//1 59//1 58//1
f 64//1 63//1 59//1
f 63//1 62//1 59//1
f 62//1 60//1 59//1
f 62//1 61//1 60//1
f 72//2 65//2 66//2
f 72//2 66//2 67//2
f 72//2 67//2 71//2
f 71//2 67//2 68//2
f 71//2 68//2 70//2
f 70//2 68//2 69//2
f 77//15 73//15 76//15
f 77//15 80//15 73//15
f 78//13 75//13 74//13
f 79//13 78//13 74//13
f 80//2 74//2 73//2
f 80//2 79//2 74//2
f 73//12 75//12 76//12
f 73//12 74//12 75//12
f 77//1 75//1 78//1
f 77//1 76//1 75//1
f 41//17 42//17 55//17
f 41//17 55//17 56//17
f 42//26 43//26 54//26
f 42//26 54//26 55//26
f 43//27 44//28 53//27
f 43//27 53//27 54//27
f 44//22 45//22 52//22
f 44//22 52//22 53//22
f 45//23 46//23 51//23
f 45//23 51//23 52//23
f 46//29 47//29 50//29
f 46//29 50//29 51//30
f 47//31 48//31 49//31
f 47//31 49//31 50//31
f 41//16 56//16 49//16
f 41//16 49//16 48//16
f 18//13 19//13 78//13
f 18//13 78//13 79//13
f 19//12 20//12 77//12
f 19//12 77//12 78//12
f 17//3 18//3 79//3
f 17//3 79//3 80//3
f 17//15 80//15 77//15
f 17//15 77//15 20//14
