# license: Copyright Cyberbotics Ltd. Licensed for use only with Webots, see https://cyberbotics.com/webots_assets_license
o pelv_left
v 0.0180439 0.0115761 0.0214732
v 0.0180446 0.0115761 -0.0191624
v -0.0175731 0.0115761 -0.0191624
v -0.0175738 0.0115761 0.0214732
v 0.0180445 -0.0390897 -0.0141305
v -0.0175731 -0.0390897 -0.0141305
v -0.0175729 -0.0274952 -0.0268336
v -0.0175723 -0.0274952 -0.0618489
v 0.0180453 -0.0274952 -0.0618482
v 0.0180447 -0.0274952 -0.026833
v -0.0175729 0.0057494 -0.0268336
v -0.0175723 0.0057494 -0.0618489
v 0.0180453 0.0057494 -0.0618482
v 0.0180447 0.0057494 -0.026833
v 0.0180439 -0.012828 0.0214732
v -0.0175738 -0.012828 0.0214732
v -0.0175737 -0.012828 0.0173256
v 0.0180439 -0.012828 0.0173256
v 0.0155869 -0.0390897 -0.0141304
v -0.0151086 -0.0390897 -0.0141307
v -0.0151077 -0.012828 0.0173255
v 0.0155877 -0.012828 0.0173258
v -0.0151076 -0.012828 0.0113907
v 0.0155878 -0.012828 0.0113913
v 0.0155878 -0.0330725 0.0113913
v -0.0151076 -0.0330725 0.0113907
v -0.0151071 -0.0330725 -0.0190517
v 0.0155884 -0.0330725 -0.0190514
v 0.0180446 -0.0330725 -0.0190513
v -0.0175731 -0.0330725 -0.0190518
v 0.0155877 -0.0330725 0.0173258
v 0.0180439 -0.0330725 0.0173256
v -0.0175737 -0.0330725 0.0173256
v -0.0151077 -0.0330725 0.0173255
v 0.018044 -0.0390897 0.0113913
v 0.0155876 -0.0390897 0.0113913
v -0.0151079 -0.0390897 0.0113907
v -0.0175736 -0.0390897 0.0113907
v -0.0175729 -0.0274952 -0.0296594
v -0.0175724 -0.0274952 -0.0590223
v 0.0180453 -0.0274952 -0.0590216
v 0.0180448 -0.0274952 -0.0296588
v -0.0175729 0.0057494 -0.0296594
v -0.0175724 0.0057494 -0.0590223
v 0.0180453 0.0057494 -0.0590216
v 0.0180448 0.0057494 -0.0296588
v -0.0125429 -0.033322 -0.0590222
v -0.0125435 -0.033322 -0.0296593
v 0.0128508 -0.033322 -0.0296589
v 0.0128513 -0.033322 -0.0590217
v -0.0125429 0.0115761 -0.0590222
v -0.0125435 0.0115761 -0.0296593
v 0.0128508 0.0115761 -0.0296589
v 0.0128513 0.0115761 -0.0590217
v 0.0128514 0.0115761 -0.0618483
v 0.0128508 0.0115761 -0.0268331
v 0.0128514 -0.033322 -0.0618483
v 0.0128508 -0.033322 -0.0268331
v -0.0125429 0.0115761 -0.0618488
v -0.0125429 -0.033322 -0.0618488
v -0.0125435 -0.033322 -0.0268335
v -0.0125435 0.0115761 -0.0268335
v -0.0097554 -0.0094035 -0.0157652
v -0.0097552 -0.0094035 -0.0307516
v -0.0097552 -0.0153643 -0.0307516
v -0.0097555 -0.0153643 -0.0157652
v 0.0100624 -0.0094034 -0.0157649
v 0.0100627 -0.0094034 -0.0307513
v 0.0100626 -0.0153642 -0.0307513
v 0.0100624 -0.0153642 -0.0157649
v 0.0100623 -0.0324485 -0.0157649
v 0.0100626 -0.0324485 -0.0307513
v 0.0100626 -0.0264878 -0.0307513
v 0.0100624 -0.0264878 -0.0157649
v -0.0097555 -0.0324486 -0.0157652
v -0.0097552 -0.0324486 -0.0307516
v -0.0097552 -0.0264878 -0.0307516
v -0.0097555 -0.0264878 -0.0157652
vn 1.0 0.0 0.0
vn -1.0 -0.0 -0.0
vn 0.0 -1.0 0.0
vn 1.0 -0.0001 0.0
vn -1.0 0.0002 0.0
vn -1.0 0.0001 -0.0
vn -0.0 -0.6331 -0.7741
vn -0.0001 -0.6331 -0.7741
vn 0.0 -0.0025 -1.0
vn -1.0 0.0003 0.0
vn 0.0 1.0 0.0
vn 0.0 0.0 -1.0
vn -0.757 -0.6534 0.0
vn -0.0 0.0 1.0
vn -0.757 0.6534 0.0
vn 0.7465 -0.6654 0.0
vn 0.7465 0.6654 0.0
vn 0.0 -0.7022 0.712
vn 0.0001 -0.7022 0.712
vn 1.0 -0.0002 0.0
vn 0.0001 0.0 1.0
f 1//1 15//1 2//1
f 16//2 4//2 3//2
f 2//1 15//1 18//1
f 3//2 17//2 16//2
f 17//3 21//3 16//3
f 22//3 18//3 15//3
f 23//1 34//1 26//4
f 28//5 36//6 25//2
f 6//7 27//7 20//8
f 5//7 19//7 28//7
f 5//7 28//7 29//7
f 2//9 29//9 28//9
f 2//1 18//1 29//1
f 6//7 30//7 27//7
f 3//9 27//9 30//9
f 3//2 30//2 17//2
f 34//1 37//1 26//4
f 36//6 31//2 25//2
f 34//1 23//1 21//1
f 36//6 28//5 19//10
f 32//1 29//1 18//1
f 38//2 30//2 6//2
f 76//2 75//2 78//2
f 76//2 78//2 77//2
f 74//1 71//1 72//1
f 74//1 72//1 73//1
f 78//11 74//11 73//11
f 78//11 73//11 77//11
f 76//3 72//3 71//3
f 76//3 71//3 75//3
f 65//3 69//3 70//3
f 65//3 70//3 66//3
f 63//11 67//11 68//11
f 63//11 68//11 64//11
f 67//1 70//1 69//1
f 67//1 69//1 68//1
f 65//2 66//2 63//2
f 65//2 63//2 64//2
f 47//2 48//2 52//2
f 47//2 52//2 51//2
f 57//3 47//3 60//3
f 57//3 50//3 47//3
f 47//3 49//3 48//3
f 47//3 50//3 49//3
f 48//3 49//3 58//3
f 48//3 58//3 61//3
f 56//11 52//11 62//11
f 56//11 53//11 52//11
f 55//11 59//11 51//11
f 55//11 51//11 54//11
f 51//11 53//11 54//11
f 51//11 52//11 53//11
f 39//12 43//12 52//12
f 39//12 52//12 48//12
f 7//13 39//13 48//13
f 7//13 48//13 61//13
f 7//14 61//14 62//14
f 7//14 62//14 11//14
f 11//15 62//15 52//15
f 11//15 52//15 43//15
f 12//15 44//15 51//15
f 12//15 51//15 59//15
f 40//14 47//14 51//14
f 40//14 51//14 44//14
f 8//12 12//12 59//12
f 8//12 59//12 60//12
f 8//13 60//13 47//13
f 8//13 47//13 40//13
f 10//16 58//16 49//16
f 10//16 49//16 42//16
f 10//14 14//14 56//14
f 10//14 56//14 58//14
f 14//17 46//17 53//17
f 14//17 53//17 56//17
f 9//16 41//16 50//16
f 9//16 50//16 57//16
f 13//17 55//17 54//17
f 13//17 54//17 45//17
f 9//12 55//12 13//12
f 9//12 57//12 55//12
f 41//14 45//14 54//14
f 41//14 54//14 50//14
f 56//14 61//14 58//14
f 56//14 62//14 61//14
f 57//12 59//12 55//12
f 57//12 60//12 59//12
f 49//1 54//1 53//1
f 49//1 50//1 54//1
f 41//1 9//1 13//1
f 41//1 13//1 45//1
f 10//1 42//1 46//1
f 10//1 46//1 14//1
f 39//2 7//2 11//2
f 39//2 11//2 43//2
f 8//2 40//2 44//2
f 8//2 44//2 12//2
f 37//18 34//18 33//18
f 37//18 33//18 38//18
f 31//18 36//18 35//18
f 31//18 35//18 32//19
f 30//2 38//2 17//2
f 38//2 33//2 17//2
f 29//1 32//1 35//1
f 29//1 35//1 5//1
f 2//9 28//9 27//9
f 2//9 27//9 3//9
f 27//20 26//4 20//4
f 26//4 37//1 20//4
f 25//3 26//3 27//3
f 25//3 27//3 28//3
f 24//2 25//2 31//2
f 24//2 31//2 22//2
f 24//14 23//14 26//14
f 24//14 26//14 25//14
f 15//3 16//3 21//3
f 15//3 21//3 22//3
f 21//3 23//3 24//3
f 21//3 24//3 22//3
f 37//3 38//3 6//3
f 37//3 6//3 20//3
f 35//3 36//3 19//3
f 35//3 19//3 5//3
f 33//14 34//14 21//14
f 33//14 21//14 17//14
f 31//21 32//21 18//21
f 31//21 18//21 22//21
f 15//14 1//14 4//14
f 15//14 4//14 16//14
f 1//11 2//11 3//11
f 1//11 3//11 4//11
f 42//12 49//12 53//12 46//12
