# license: Copyright Cyberbotics Ltd. Licensed for use only with Webots, see https://cyberbotics.com/webots_assets_license
o pelv_y_right
v -0.008447 -0.0084461 0.0247275
v -0.008447 0.0084461 0.0247275
v -9e-07 0.0119446 0.0247278
v 0.0084452 0.0084461 0.0247281
v 0.0119437 -3.45e-05 0.0247282
v 0.0084452 -0.0084461 0.0247281
v -9e-07 -0.0119446 0.0247278
v -0.0084469 -0.0084461 0.0225637
v -0.0119454 -3.45e-05 0.0225636
v -0.0084469 0.0084461 0.0225637
v -8e-07 0.0119446 0.022564
v 0.0084453 0.0084461 0.0225643
v 0.0119438 -3.45e-05 0.0225644
v 0.0084453 -0.0084461 0.0225643
v -8e-07 -0.0119446 0.022564
v 9e-07 -0.0119446 -0.0258612
v 0.008447 -0.0084461 -0.0258609
v 0.0119455 -3.45e-05 -0.0258608
v 0.008447 0.0084461 -0.0258609
v 9e-07 0.0119446 -0.0258612
v -0.0084452 0.0084461 -0.0258615
v -0.0119437 -3.45e-05 -0.0258616
v -0.0084452 -0.0084461 -0.0258615
v 8e-07 -0.0119446 -0.0238143
v 0.0084469 -0.0084461 -0.0238141
v 0.0119454 -3.45e-05 -0.0238139
v 0.0084469 0.0084461 -0.0238141
v 8e-07 0.0119446 -0.0238143
v -0.0084453 0.0084461 -0.0238146
v -0.0084453 -0.0084461 -0.0238146
v 0.0108336 0.0313981 0.0262884
v 0.0108353 0.0313981 -0.023814
v -0.0109726 0.0313981 0.0262876
v -0.0109708 0.0313981 -0.0238147
v -0.0109709 0.0300063 -0.0222884
v -0.0109725 0.0300063 0.0247274
v 0.0108336 0.0300063 0.0247282
v 0.0108353 0.0300063 -0.0222877
v 0.0108353 -3.45e-05 -0.0222877
v 0.0108336 -3.45e-05 0.0247282
v -0.0109725 -3.45e-05 0.0247274
v -0.0109709 -3.45e-05 -0.0222884
v -0.0109708 -3.45e-05 -0.0238147
v -0.0109726 -3.45e-05 0.0262876
v 0.0108336 -3.45e-05 0.0262884
v 0.0108353 -3.45e-05 -0.023814
v 3e-07 0.0332829 -0.010382
v 0.0073414 0.0332829 -0.0073409
v 0.010382 0.0332829 4e-07
v 0.0073409 0.0332829 0.0073414
v -4e-07 0.0332829 0.010382
v -0.0073414 0.0332829 0.0073409
v -0.010382 0.0332829 -4e-07
v -0.0073409 0.0332829 -0.0073414
v 4e-07 0.0313981 -0.010382
v 0.0073414 0.0313981 -0.0073409
v 0.010382 0.0313981 4e-07
v 0.0073409 0.0313981 0.0073414
v -4e-07 0.0313981 0.010382
v -0.0073414 0.0313981 0.0073409
v -0.010382 0.0313981 -4e-07
v -0.0073409 0.0313981 -0.0073414
v -0.0029755 -0.0029802 -0.0263813
v -0.0042083 -2.31e-05 -0.0263814
v -0.0029755 0.0029726 -0.0263813
v 9e-07 0.0042054 -0.0263812
v 0.0029773 0.0029726 -0.0263811
v 0.0042102 -2.31e-05 -0.0263811
v 0.0029773 -0.0029802 -0.0263811
v 9e-07 -0.0042131 -0.0263812
v -9e-07 -0.0042131 0.0267308
v 0.0029755 -0.0029802 0.0267309
v 0.0042083 -2.31e-05 0.0267309
v 0.0029755 0.0029726 0.0267309
v -9e-07 0.0042054 0.0267308
v -0.0029773 0.0029726 0.0267307
v -0.0042102 -2.31e-05 0.0267306
v -0.0029773 -0.0029802 0.0267307
vn -0.0 -0.0 1.0
vn 0.0 0.0 -1.0
vn 0.0 1.0 -0.0
vn -0.923 -0.3848 -0.0
vn -0.9248 0.3806 -0.0
vn -0.9247 0.3806 -0.0
vn -0.3827 0.9239 -0.0
vn 0.3827 0.9239 0.0
vn 0.9248 0.3806 0.0
vn 0.9247 0.3806 0.0
vn 0.923 -0.3848 0.0
vn 0.3827 -0.9239 0.0
vn -0.3827 -0.9239 -0.0
vn -0.9239 0.0 -0.3827
vn -0.9239 0.0 0.3827
vn -0.3827 0.0 0.9239
vn 0.3827 0.0 0.9239
vn 0.9239 0.0 0.3827
vn 0.9239 0.0 -0.3827
vn 0.3827 0.0 -0.9239
vn -0.3827 -0.0 -0.9239
vn 0.0 -1.0 0.0
vn -1.0 0.0 -0.0001
vn -1.0 0.0 -0.0
vn 1.0 0.0 0.0
vn -0.9233 -0.384 -0.0
vn -0.8717 -0.2617 0.4143
vn -0.8463 0.3491 0.4023
vn -0.9584 0.2854 -0.0
vn 0.9244 0.3814 0.0
vn 0.9233 -0.384 0.0
vn -0.8536 0.3521 0.3838
vn -0.8797 -0.2641 0.3955
f 2//1 4//1 3//1
f 41//1 4//1 2//1
f 41//1 5//1 4//1
f 1//1 5//1 41//1
f 1//1 6//1 5//1
f 1//1 7//1 6//1
f 10//2 11//2 12//2
f 10//2 12//2 13//2
f 9//2 10//2 13//2
f 8//2 9//2 13//2
f 8//2 13//2 14//2
f 15//2 8//2 14//2
f 47//3 54//3 48//3
f 54//3 49//3 48//3
f 54//3 53//3 49//3
f 53//3 52//3 49//3
f 52//3 50//3 49//3
f 52//3 51//3 50//3
f 29//1 27//1 28//1
f 43//1 27//1 29//1
f 43//1 26//1 27//1
f 30//1 26//1 43//1
f 30//1 25//1 26//1
f 30//1 24//1 25//1
f 21//2 20//2 19//2
f 21//2 19//2 18//2
f 22//2 21//2 18//2
f 23//2 22//2 18//2
f 23//2 18//2 17//2
f 16//2 23//2 17//2
f 70//2 63//2 69//2
f 63//2 68//2 69//2
f 63//2 64//2 68//2
f 64//2 65//2 68//2
f 65//2 67//2 68//2
f 65//2 66//2 67//2
f 72//1 78//1 71//1
f 72//1 73//1 78//1
f 73//1 77//1 78//1
f 73//1 76//1 77//1
f 73//1 74//1 76//1
f 74//1 75//1 76//1
f 64//4 63//4 78//4
f 64//4 78//4 77//4
f 65//5 64//5 77//5
f 65//5 77//5 76//6
f 66//7 65//7 76//7
f 66//7 76//7 75//7
f 67//8 66//8 75//8
f 67//8 75//8 74//8
f 68//9 67//10 74//9
f 68//9 74//9 73//9
f 69//11 68//11 73//11
f 69//11 73//11 72//11
f 70//12 69//12 72//12
f 70//12 72//12 71//12
f 63//13 70//13 71//13
f 63//13 71//13 78//13
f 62//14 53//14 54//14
f 62//14 61//14 53//14
f 61//15 52//15 53//15
f 61//15 60//15 52//15
f 60//16 51//16 52//16
f 60//16 59//16 51//16
f 59//17 50//17 51//17
f 59//17 58//17 50//17
f 58//18 49//18 50//18
f 58//18 57//18 49//18
f 57//19 48//19 49//19
f 57//19 56//19 48//19
f 56//20 47//20 48//20
f 56//20 55//20 47//20
f 54//21 55//21 62//21
f 54//21 47//21 55//21
f 39//1 38//1 35//1
f 39//1 35//1 42//1
f 37//2 40//2 41//2
f 37//2 41//2 36//2
f 35//22 38//22 37//22
f 35//22 37//22 36//22
f 43//22 46//22 39//22
f 43//22 39//22 42//22
f 45//22 44//22 41//22
f 45//22 41//22 40//22
f 34//2 32//2 46//2
f 34//2 46//2 43//2
f 31//1 33//1 44//1
f 31//1 44//1 45//1
f 35//23 34//24 43//23
f 35//23 43//23 42//23
f 33//23 36//24 44//23
f 36//24 41//23 44//23
f 37//25 31//25 45//25
f 37//25 45//25 40//25
f 32//25 38//25 46//25
f 38//25 39//25 46//25
f 31//25 37//25 32//25
f 37//25 38//25 32//25
f 34//24 35//23 36//24
f 34//24 36//24 33//23
f 31//3 32//3 34//3
f 31//3 34//3 33//3
f 30//26 22//26 23//26
f 30//27 43//27 22//27
f 43//28 21//28 22//28
f 43//29 29//29 21//29
f 29//7 20//7 21//7
f 29//7 28//7 20//7
f 28//8 19//8 20//8
f 28//8 27//8 19//8
f 27//30 18//30 19//30
f 27//30 26//30 18//30
f 26//31 17//31 18//31
f 26//31 25//31 17//31
f 25//12 16//12 17//12
f 25//12 24//12 16//12
f 24//13 23//13 16//13
f 24//13 30//13 23//13
f 7//13 1//13 8//13
f 8//13 15//13 7//13
f 6//12 15//12 14//12
f 6//12 7//12 15//12
f 5//31 14//31 13//31
f 5//31 6//31 14//31
f 4//30 13//30 12//30
f 4//30 5//30 13//30
f 3//8 12//8 11//8
f 3//8 4//8 12//8
f 2//7 11//7 10//7
f 2//7 3//7 11//7
f 41//32 10//32 9//32
f 41//29 2//29 10//29
f 1//26 9//26 8//26
f 1//33 41//33 9//33
