# license: Copyright Cyberbotics Ltd. Licensed for use only with Webots, see https://cyberbotics.com/webots_assets_license
o pelv_y_left
v 0.0084461 -0.0084461 0.0247278
v 0.0084461 0.0084461 0.0247278
v -0.0 0.0119446 0.0247278
v -0.0084461 0.0084461 0.0247278
v -0.0119446 -3.45e-05 0.0247278
v -0.0084461 -0.0084461 0.0247278
v -0.0 -0.0119446 0.0247278
v 0.0084461 -0.0084461 0.022564
v 0.0119446 -3.45e-05 0.022564
v 0.0084461 0.0084461 0.022564
v -0.0 0.0119446 0.022564
v -0.0084461 0.0084461 0.022564
v -0.0119446 -3.45e-05 0.022564
v -0.0084461 -0.0084461 0.022564
v 0.0 -0.0119446 0.022564
v 0.0 -0.0119446 -0.0258612
v -0.0084461 -0.0084461 -0.0258612
v -0.0119446 -3.45e-05 -0.0258612
v -0.0084461 0.0084461 -0.0258612
v -0.0 0.0119446 -0.0258612
v 0.0084461 0.0084461 -0.0258612
v 0.0119446 -3.45e-05 -0.0258612
v 0.0084461 -0.0084461 -0.0258612
v -0.0 -0.0119446 -0.0238143
v -0.0084461 -0.0084461 -0.0238143
v -0.0119446 -3.45e-05 -0.0238143
v -0.0084461 0.0084461 -0.0238143
v -0.0 0.0119446 -0.0238143
v 0.0084461 0.0084461 -0.0238143
v 0.0084461 -0.0084461 -0.0238143
v -0.0108345 0.0313981 0.026288
v -0.0108345 0.0313981 -0.0238143
v 0.0109716 0.0313981 0.026288
v 0.0109716 0.0313981 -0.0238143
v 0.0109716 0.0300063 -0.022288
v 0.0109716 0.0300063 0.0247278
v -0.0108345 0.0300063 0.0247278
v -0.0108345 0.0300063 -0.022288
v -0.0108345 -3.45e-05 -0.022288
v -0.0108345 -3.45e-05 0.0247278
v 0.0109716 -3.45e-05 0.0247278
v 0.0109716 -3.45e-05 -0.022288
v 0.0109716 -3.45e-05 -0.0238143
v 0.0109716 -3.45e-05 0.026288
v -0.0108345 -3.45e-05 0.026288
v -0.0108345 -3.45e-05 -0.0238143
v 0.0 0.0332829 -0.010382
v -0.0073412 0.0332829 -0.0073412
v -0.010382 0.0332829 -0.0
v -0.0073412 0.0332829 0.0073412
v -0.0 0.0332829 0.010382
v 0.0073412 0.0332829 0.0073412
v 0.010382 0.0332829 -0.0
v 0.0073412 0.0332829 -0.0073412
v -0.0 0.0313981 -0.010382
v -0.0073412 0.0313981 -0.0073412
v -0.010382 0.0313981 -0.0
v -0.0073412 0.0313981 0.0073412
v -0.0 0.0313981 0.010382
v 0.0073412 0.0313981 0.0073412
v 0.010382 0.0313981 -0.0
v 0.0073412 0.0313981 -0.0073412
v 0.0029764 -0.0029802 -0.0263812
v 0.0042093 -2.31e-05 -0.0263812
v 0.0029764 0.0029726 -0.0263812
v 0.0 0.0042054 -0.0263812
v -0.0029764 0.0029726 -0.0263812
v -0.0042093 -2.31e-05 -0.0263812
v -0.0029764 -0.0029802 -0.0263812
v 0.0 -0.0042131 -0.0263812
v 0.0 -0.0042131 0.0267308
v -0.0029764 -0.0029802 0.0267308
v -0.0042093 -2.31e-05 0.0267308
v -0.0029764 0.0029726 0.0267308
v 0.0 0.0042054 0.0267308
v 0.0029764 0.0029726 0.0267308
v 0.0042093 -2.31e-05 0.0267308
v 0.0029764 -0.0029802 0.0267308
vn 0.0 0.0 1.0
vn 0.0 0.0 -1.0
vn 0.0 1.0 -0.0
vn 0.923 -0.3848 0.0
vn 0.9247 0.3806 0.0
vn 0.3827 0.9239 0.0
vn -0.3827 0.9239 0.0
vn -0.9247 0.3806 0.0
vn -0.923 -0.3848 0.0
vn -0.3827 -0.9239 0.0
vn 0.3827 -0.9239 0.0
vn 0.9239 0.0 -0.3827
vn 0.9239 0.0 0.3827
vn 0.3827 0.0 0.9239
vn -0.3827 0.0 0.9239
vn -0.9239 0.0 0.3827
vn -0.9239 0.0 -0.3827
vn -0.3827 0.0 -0.9239
vn 0.3827 0.0 -0.9239
vn 0.0 -1.0 0.0
vn 1.0 0.0 0.0
vn -1.0 0.0 0.0
vn 0.9233 -0.384 0.0
vn 0.8717 -0.2617 0.4144
vn 0.8463 0.3491 0.4023
vn 0.9584 0.2854 0.0
vn -0.9244 0.3814 0.0
vn -0.9233 -0.384 0.0
vn 0.8536 0.3521 0.3838
vn 0.8797 -0.2641 0.3956
f 2//1 3//1 4//1
f 41//1 2//1 4//1
f 41//1 4//1 5//1
f 1//1 41//1 5//1
f 1//1 5//1 6//1
f 1//1 6//1 7//1
f 10//2 12//2 11//2
f 10//2 13//2 12//2
f 9//2 13//2 10//2
f 8//2 13//2 9//2
f 8//2 14//2 13//2
f 15//2 14//2 8//2
f 47//3 48//3 54//3
f 54//3 48//3 49//3
f 54//3 49//3 53//3
f 53//3 49//3 52//3
f 52//3 49//3 50//3
f 52//3 50//3 51//3
f 29//1 28//1 27//1
f 43//1 29//1 27//1
f 43//1 27//1 26//1
f 30//1 43//1 26//1
f 30//1 26//1 25//1
f 30//1 25//1 24//1
f 21//2 19//2 20//2
f 21//2 18//2 19//2
f 22//2 18//2 21//2
f 23//2 18//2 22//2
f 23//2 17//2 18//2
f 16//2 17//2 23//2
f 70//2 69//2 63//2
f 63//2 69//2 68//2
f 63//2 68//2 64//2
f 64//2 68//2 65//2
f 65//2 68//2 67//2
f 65//2 67//2 66//2
f 72//1 71//1 78//1
f 72//1 78//1 73//1
f 73//1 78//1 77//1
f 73//1 77//1 76//1
f 73//1 76//1 74//1
f 74//1 76//1 75//1
f 64//4 78//4 63//4
f 64//4 77//4 78//4
f 65//5 77//5 64//5
f 65//5 76//5 77//5
f 66//6 76//6 65//6
f 66//6 75//6 76//6
f 67//7 75//7 66//7
f 67//7 74//7 75//7
f 68//8 74//8 67//8
f 68//8 73//8 74//8
f 69//9 73//9 68//9
f 69//9 72//9 73//9
f 70//10 72//10 69//10
f 70//10 71//10 72//10
f 63//11 71//11 70//11
f 63//11 78//11 71//11
f 62//12 54//12 53//12
f 62//12 53//12 61//12
f 61//13 53//13 52//13
f 61//13 52//13 60//13
f 60//14 52//14 51//14
f 60//14 51//14 59//14
f 59//15 51//15 50//15
f 59//15 50//15 58//15
f 58//16 50//16 49//16
f 58//16 49//16 57//16
f 57//17 49//17 48//17
f 57//17 48//17 56//17
f 56//18 48//18 47//18
f 56//18 47//18 55//18
f 54//19 62//19 55//19
f 54//19 55//19 47//19
f 39//1 35//1 38//1
f 39//1 42//1 35//1
f 37//2 41//2 40//2
f 37//2 36//2 41//2
f 35//20 37//20 38//20
f 35//20 36//20 37//20
f 43//20 39//20 46//20
f 43//20 42//20 39//20
f 45//20 41//20 44//20
f 45//20 40//20 41//20
f 34//2 46//2 32//2
f 34//2 43//2 46//2
f 31//1 44//1 33//1
f 31//1 45//1 44//1
f 35//21 43//21 34//21
f 35//21 42//21 43//21
f 33//21 44//21 36//21
f 36//21 44//21 41//21
f 37//22 45//22 31//22
f 37//22 40//22 45//22
f 32//22 46//22 38//22
f 38//22 46//22 39//22
f 31//22 32//22 37//22
f 37//22 32//22 38//22
f 34//21 36//21 35//21
f 34//21 33//21 36//21
f 31//3 34//3 32//3
f 31//3 33//3 34//3
f 30//23 23//23 22//23
f 30//24 22//24 43//24
f 43//25 22//25 21//25
f 43//26 21//26 29//26
f 29//6 21//6 20//6
f 29//6 20//6 28//6
f 28//7 20//7 19//7
f 28//7 19//7 27//7
f 27//27 19//27 18//27
f 27//27 18//27 26//27
f 26//28 18//28 17//28
f 26//28 17//28 25//28
f 25//10 17//10 16//10
f 25//10 16//10 24//10
f 24//11 16//11 23//11
f 24//11 23//11 30//11
f 8//11 1//11 7//11
f 8//11 7//11 15//11
f 6//10 14//10 15//10
f 6//10 15//10 7//10
f 5//28 13//28 14//28
f 5//28 14//28 6//28
f 4//27 12//27 13//27
f 4//27 13//27 5//27
f 3//7 11//7 12//7
f 3//7 12//7 4//7
f 2//6 10//6 11//6
f 2//6 11//6 3//6
f 41//29 9//29 10//29
f 41//26 10//26 2//26
f 1//23 8//23 9//23
f 1//30 9//30 41//30
