# license: Copyright Cyberbotics Ltd. Licensed for use only with Webots, see https://cyberbotics.com/webots_assets_license
o pupil
v 0.0174415 0.0294527 0.0329804
v -0.0174415 0.0294527 0.0329804
v 0.0192939 0.0270251 0.032811
v -0.0192939 0.0270251 0.032811
v 0.0217926 0.0254236 0.0320726
v -0.0217926 0.0254236 0.0320726
v 0.0245573 0.0248921 0.0308779
v -0.0245573 0.0248921 0.0308779
v 0.0271671 0.0255116 0.0294086
v -0.0271671 0.0255116 0.0294086
v 0.0292247 0.0271877 0.0278885
v -0.0292247 0.0271877 0.0278885
v 0.0304167 0.0296652 0.026549
v -0.0304167 0.0296652 0.026549
v 0.0305618 0.0325669 0.0255939
v -0.0305618 0.0325669 0.0255939
v 0.0296378 0.0354512 0.0251688
v -0.0296378 0.0354512 0.0251688
v 0.0277855 0.0378789 0.0253383
v -0.0277855 0.0378789 0.0253383
v 0.0252868 0.0394803 0.0260766
v -0.0252868 0.0394803 0.0260766
v 0.022522 0.0400118 0.0272713
v -0.022522 0.0400118 0.0272713
v 0.0199123 0.0393923 0.0287406
v -0.0199123 0.0393923 0.0287406
v 0.0178547 0.0377163 0.0302607
v -0.0178547 0.0377163 0.0302607
v 0.0166627 0.0352387 0.0316003
v -0.0166627 0.0352387 0.0316003
v 0.0165176 0.032337 0.0325553
v -0.0165176 0.032337 0.0325553
v 0.0235397 0.032452 0.0290746
v -0.0235397 0.032452 0.0290746
vn 0.4249 0.2638 0.866
vn -0.4249 0.2638 0.866
vn 0.4249 0.2637 0.866
vn -0.4249 0.2637 0.866
f 3//1 33//1 1//1
f 2//2 34//2 4//2
f 5//3 33//1 3//1
f 4//2 34//2 6//4
f 7//1 33//1 5//3
f 6//4 34//2 8//2
f 9//1 33//1 7//1
f 8//2 34//2 10//2
f 11//1 33//1 9//1
f 10//2 34//2 12//2
f 13//1 33//1 11//1
f 12//2 34//2 14//2
f 15//1 33//1 13//1
f 14//2 34//2 16//2
f 17//1 33//1 15//1
f 16//2 34//2 18//2
f 19//1 33//1 17//1
f 18//2 34//2 20//2
f 21//1 33//1 19//1
f 20//2 34//2 22//2
f 23//1 33//1 21//1
f 22//2 34//2 24//2
f 25//1 33//1 23//1
f 24//2 34//2 26//2
f 27//1 33//1 25//1
f 26//2 34//2 28//2
f 29//1 33//1 27//1
f 28//2 34//2 30//2
f 31//3 33//1 29//1
f 30//2 34//2 32//4
f 1//1 33//1 31//3
f 32//4 34//2 2//2
