/* XPM */
static char * arrow_xpm[] = {
"24 24 3 1",
" 	c None",
".	c #000033",
"+	c #FFFFFF",
"                        ",
"                        ",
"      .                 ",
"      ..                ",
"      .+.               ",
"      .++.              ",
"      .+++.             ",
"      .++++.            ",
"      .+++++.           ",
"      .++++++.          ",
"      .+++++++.         ",
"      .++++++++.        ",
"      .+++++++++.       ",
"      .++++++.....      ",
"      .+++.++.          ",
"      .++..++.          ",
"      .+.  .++.         ",
"      ..   .++.         ",
"      .     .++.        ",
"            .++.        ",
"             .++.       ",
"             .++.       ",
"              ..        ",
"                        "};
