/* XPM */
static char * flag_xpm[] = {
"24 24 126 2",
"  	c None",
". 	c #000000",
"+ 	c #474648",
"@ 	c #48484A",
"# 	c #4F4F51",
"$ 	c #D3D3D4",
"% 	c #B9B8B9",
"& 	c #AFAFB0",
"* 	c #838385",
"= 	c #E9E9EA",
"- 	c #EAEAEA",
"; 	c #CCCCCC",
"> 	c #EFEEEF",
", 	c #F1F1F1",
"' 	c #919192",
") 	c #8E8E8F",
"! 	c #CFCFD0",
"~ 	c #838384",
"{ 	c #5B5A5C",
"] 	c #4B4A4C",
"^ 	c #4C4B4D",
"/ 	c #49484A",
"( 	c #656466",
"_ 	c #BEBEBF",
": 	c #636364",
"< 	c #6A6A6B",
"[ 	c #DDDDDD",
"} 	c #3F3D3E",
"| 	c #929292",
"1 	c #636263",
"2 	c #414042",
"3 	c #959596",
"4 	c #EAEAEB",
"5 	c #D9D9D9",
"6 	c #E8E8E8",
"7 	c #F8F8F8",
"8 	c #2E2C2D",
"9 	c #343233",
"0 	c #E3E3E3",
"a 	c #F4F4F4",
"b 	c #C2C1C2",
"c 	c #9D9C9D",
"d 	c #E8E8E9",
"e 	c #D6D6D7",
"f 	c #515152",
"g 	c #535354",
"h 	c #BBBBBC",
"i 	c #68686A",
"j 	c #414142",
"k 	c #9A9899",
"l 	c #7D7C7C",
"m 	c #FEFEFE",
"n 	c #B6B5B6",
"o 	c #3A3839",
"p 	c #4E4D4E",
"q 	c #8A8A8B",
"r 	c #595859",
"s 	c #424143",
"t 	c #9D9D9E",
"u 	c #D9D9DA",
"v 	c #717173",
"w 	c #C3C3C3",
"x 	c #F5F5F5",
"y 	c #5C595A",
"z 	c #5E5B5C",
"A 	c #B7B5B6",
"B 	c #605E5E",
"C 	c #373435",
"D 	c #5B595A",
"E 	c #EEEEEF",
"F 	c #CACACB",
"G 	c #727172",
"H 	c #DFDFE0",
"I 	c #F3F3F4",
"J 	c #B5B5B5",
"K 	c #CCCBCC",
"L 	c #221F20",
"M 	c #231F20",
"N 	c #4F4C4D",
"O 	c #E5E4E4",
"P 	c #898788",
"Q 	c #BFBEBF",
"R 	c #F4F4F5",
"S 	c #F0F0F1",
"T 	c #979697",
"U 	c #9F9E9F",
"V 	c #9C9B9C",
"W 	c #484748",
"X 	c #7B7A7C",
"Y 	c #100E0F",
"Z 	c #1D191A",
"` 	c #B4B3B3",
" .	c #B9B8B8",
"..	c #504C4D",
"+.	c #999899",
"@.	c #BCBCBC",
"#.	c #413F40",
"$.	c #4B494A",
"%.	c #696768",
"&.	c #797879",
"*.	c #3D3B3D",
"=.	c #3A383A",
"-.	c #BABABA",
";.	c #514D4E",
">.	c #322F30",
",.	c #272425",
"'.	c #A6A5A6",
").	c #504D4E",
"!.	c #4B4849",
"~.	c #B4B3B4",
"{.	c #ABABAC",
"].	c #191617",
"^.	c #817F7F",
"/.	c #FAFAFA",
"(.	c #F2F2F2",
"_.	c #8D8B8C",
":.	c #EBEBEC",
"<.	c #A7A7A8",
"[.	c #DDDCDD",
"}.	c #EFEFEF",
"|.	c #3C3839",
"1.	c #5D5A5B",
"2.	c #C7C7C8",
"3.	c #4A4849",
"4.	c #211D1E",
"5.	c #131111",
"                                                ",
"                                                ",
"                  .                             ",
"                  . +                           ",
"                . @ # $ %                       ",
"                . & * = - ;                     ",
"              . > , ' ) ! ~ { ]                 ",
"              . - = ^ / ( _ : < [               ",
"              . } | 1 2 3 4 5 ~ 6 7             ",
"            . 8 9 0 a b c d e f g h i j         ",
"            . k l m m n o p q r s t u v w       ",
"          . x m y z A B C D E F G H I a & 7     ",
"          . J K L M N O P Q R S T U - V W X     ",
"          .     Y Z ` m  ...+.@.#.$.%.&.*.=.    ",
"        .             -.;.>.,.'.).!.~.= {.      ",
"        .                 ].^./.(._.:.4 <.      ",
"      .                       [.}.|.1.2.        ",
"      .                         3.4.4.          ",
"      .                             5.          ",
"    .                                           ",
"    .                                           ",
"  .                                             ",
"  .                                             ",
"                                                "};
