/* XPM */
static char * new_transition_xpm[] = {
"24 24 53 1",
" 	c None",
".	c #000000",
"+	c #060A06",
"@	c #2F502E",
"#	c #5FA35E",
"$	c #7FD97D",
"%	c #87E685",
"&	c #457644",
"*	c #385F37",
"=	c #040704",
"-	c #447443",
";	c #64AA62",
">	c #0E190E",
",	c #090F08",
"'	c #5B9B59",
")	c #0C150C",
"!	c #79CF77",
"~	c #5D9F5C",
"{	c #7BD279",
"]	c #0D160D",
"^	c #5EA15D",
"/	c #6DB96B",
"(	c #080E08",
"_	c #152415",
":	c #6CB86A",
"<	c #101C10",
"[	c #274226",
"}	c #67AF65",
"|	c #2A4829",
"1	c #3F6C3E",
"2	c #182A18",
"3	c #6AB669",
"4	c #274327",
"5	c #86E584",
"6	c #010201",
"7	c #427041",
"8	c #142213",
"9	c #85E483",
"0	c #121E11",
"a	c #2E4F2D",
"b	c #427141",
"c	c #85E383",
"d	c #5C9D5B",
"e	c #477946",
"f	c #467845",
"g	c #5D9E5B",
"h	c #67B066",
"i	c #132113",
"j	c #77CB75",
"k	c #020402",
"l	c #7AD179",
"m	c #7AD078",
"n	c #020302",
"           .            ",
"           .            ",
"      ............      ",
"    .+@#$%%%%%%$#@+.    ",
"   .@%%%%%%%%%%%%%%@.   ",
"  .&%%%%%%%%%%%%%%%%&.  ",
" .@%%%%%%%%%%%%%%%%%%@. ",
" +%%%%%%%%%%%%%%%%%%%%+ ",
".@%.*=-%%;>,'%)!;.~{]%@.",
".#%.^/(%%_;:<%[}|1234%#.",
".$%.5%.%%66..%7-890ab%$.",
".#%.%%.%%_^c%%d+e%f.g%#.",
".@%.%%.%%hi..%jkl%mnj%@.",
" +%%%%%%%%%%%%%%%%%%%%+ ",
" .@%%%%%%%%%%%%%%%%%%@. ",
"  .&%%%%%%%%%%%%%%%%&.  ",
"   .@%%%%%%%%%%%%%%@.   ",
"    .+@#$%%%%%%$#@+.    ",
"      ............      ",
"           .            ",
"        .. . ..         ",
"         .....          ",
"          ...           ",
"           .            "};
