/* XPM */
static char * new_state_xpm[] = {
"24 24 42 1",
" 	c None",
".	c #000000",
"+	c #8EBFE8",
"@	c #29455C",
"#	c #030506",
"$	c #335370",
"%	c #4A7BA5",
"&	c #0B1218",
"*	c #060B0E",
"=	c #446F96",
"-	c #090F14",
";	c #5E97CB",
">	c #46739A",
",	c #091015",
"'	c #46749C",
")	c #060A0D",
"!	c #101A23",
"~	c #5185B3",
"{	c #0C141B",
"]	c #1D3040",
"^	c #4D7EAA",
"/	c #1F3445",
"(	c #2F4E68",
"_	c #121E29",
":	c #5083B0",
"<	c #1D3041",
"[	c #010102",
"}	c #31516D",
"|	c #0F1821",
"1	c #0D161D",
"2	c #22394C",
"3	c #31526E",
"4	c #457199",
"5	c #04070A",
"6	c #355776",
"7	c #355775",
"8	c #457299",
"9	c #4D7FAB",
"0	c #0E1820",
"a	c #010304",
"b	c #659ED0",
"c	c #010203",
"                        ",
"                        ",
"                        ",
"                        ",
" ...................... ",
" .++++++++++++++++++++. ",
" .++++++++++++++++++++. ",
" .++++++++++++++++++++. ",
" .++++++++++++++++++++. ",
" .+.@#$++%&*=+-;%.>+,+. ",
" .+.'+)++!%~{+]^/(_:<+. ",
" .+.++.++[[..+}$|+123+. ",
" .+.++.++!'+++456+7.8+. ",
" .+.++.++90..++a++bc++. ",
" .++++++++++++++++++++. ",
" .++++++++++++++++++++. ",
" .++++++++++++++++++++. ",
" .++++++++++++++++++++. ",
" ...................... ",
"                        ",
"                        ",
"                        ",
"                        ",
"                        "};
