/* XPM */
static const char *paste_button_xpm[] = {
/* columns rows colors chars-per-pixel */
"24 24 6 1",
"  c Gray0",
". c Green",
"X c #989898",
"o c Gray80",
"O c Gray100",
"+ c None",
/* pixels */
"++++++++++++++++++++++++",
"++++++++++++++++++++++++",
"++++++++++++++++++++++++",
"++++++++++++++++++++++++",
"+++++++++X   +++++++++++",
"+++++++++X   +++++++++++",
"++++++   XXXX   X+++++++",
"+++++ Oo      XX X++++++",
"+++++ OoXoXoXoXX X++++++",
"+++++ OXoX          ++++",
"+++++ OoXo OOOOOOOO X+++",
"+++++ OXoX O      O X+++",
"+++++ OoXo OOOOOOOO X+++",
"+++++ OXoX O      O X+++",
"+++++ OoXo OOOOOOOO X+++",
"+++++ OXoX O      O X+++",
"+++++ OXXX OOOOOOOO X+++",
"++++++     O  OOOOO X+++",
"+++++++XXX OOOOOOOO X+++",
"++++++++++          X+++",
"+++++++++++XXXXXXXXXX+++",
"++++++++++++++++++++++++",
"++++++++++++++++++++++++",
"++++++++++++++++++++++++"
};
