/* XPM */
static const char * upload_button_xpm[] = {
"24 24 3 1",
" 	c None",
".	c #979797",
"+	c #000000",
"                        ",
"                        ",
"                        ",
"                        ",
"           ..           ",
"          .++.          ",
"         .++++.         ",
"        .++++++.        ",
"       .++++++++.       ",
"      .++++++++++.      ",
"     .++++++++++++.     ",
"    .++++++++++++++.    ",
"    .....++++++.....    ",
"        .++++++.        ",
"        .++++++.        ",
"        .++++++.        ",
"        .++++++.        ",
"        .++++++.        ",
"        .++++++.        ",
"         ......         ",
"                        ",
"                        ",
"                        ",
"                        "};
