o base_link_1
v -0.05308 0.085 0.03759
v -0.05308 0.085 0.03809
v -0.05308 0.085 0.04379
v -0.05308 0.085 0.04429
v -0.05308 0.089 0.03759
v -0.05308 0.089 0.03809
v -0.05308 0.089 0.04379
v -0.05308 0.089 0.04429
v -0.05258 0.085 0.03759
v -0.05258 0.085 0.03809
v -0.05258 0.085 0.04379
v -0.05258 0.085 0.04429
v -0.05258 0.089 0.03759
v -0.05258 0.089 0.03809
v -0.05258 0.089 0.04379
v -0.05258 0.089 0.04429
v -0.05054 0.085 0.03759
v -0.05054 0.085 0.03809
v -0.05054 0.085 0.04379
v -0.05054 0.085 0.04429
v -0.05054 0.089 0.03759
v -0.05054 0.089 0.03809
v -0.05054 0.089 0.04379
v -0.05054 0.089 0.04429
v -0.05004 0.085 0.03759
v -0.05004 0.085 0.03809
v -0.05004 0.085 0.04379
v -0.05004 0.085 0.04429
v -0.05004 0.089 0.03759
v -0.05004 0.089 0.03809
v -0.05004 0.089 0.04379
v -0.05004 0.089 0.04429
v -0.048 0.085 0.03759
v -0.048 0.085 0.03809
v -0.048 0.085 0.04379
v -0.048 0.085 0.04429
v -0.048 0.089 0.03759
v -0.048 0.089 0.03809
v -0.048 0.089 0.04379
v -0.048 0.089 0.04429
v -0.0475 0.085 0.03759
v -0.0475 0.085 0.03809
v -0.0475 0.085 0.04379
v -0.0475 0.085 0.04429
v -0.0475 0.089 0.03759
v -0.0475 0.089 0.03809
v -0.0475 0.089 0.04379
v -0.0475 0.089 0.04429
v -0.04546 0.085 0.03759
v -0.04546 0.085 0.03809
v -0.04546 0.085 0.04379
v -0.04546 0.085 0.04429
v -0.04546 0.089 0.03759
v -0.04546 0.089 0.03809
v -0.04546 0.089 0.04379
v -0.04546 0.089 0.04429
v -0.04496 0.085 0.03759
v -0.04496 0.085 0.03809
v -0.04496 0.085 0.04379
v -0.04496 0.085 0.04429
v -0.04496 0.089 0.03759
v -0.04496 0.089 0.03809
v -0.04496 0.089 0.04379
v -0.04496 0.089 0.04429
v -0.04292 0.085 0.03759
v -0.04292 0.085 0.03809
v -0.04292 0.085 0.04379
v -0.04292 0.085 0.04429
v -0.04292 0.089 0.03759
v -0.04292 0.089 0.03809
v -0.04292 0.089 0.04379
v -0.04292 0.089 0.04429
v -0.04242 0.085 0.03759
v -0.04242 0.085 0.03809
v -0.04242 0.085 0.04379
v -0.04242 0.085 0.04429
v -0.04242 0.089 0.03759
v -0.04242 0.089 0.03809
v -0.04242 0.089 0.04379
v -0.04242 0.089 0.04429
v -0.03757 0.085 0.03759
v -0.03757 0.085 0.03809
v -0.03757 0.085 0.04379
v -0.03757 0.085 0.04429
v -0.03757 0.089 0.03759
v -0.03757 0.089 0.03809
v -0.03757 0.089 0.04379
v -0.03757 0.089 0.04429
v -0.03707 0.085 0.03759
v -0.03707 0.085 0.03809
v -0.03707 0.085 0.04379
v -0.03707 0.085 0.04429
v -0.03707 0.089 0.03759
v -0.03707 0.089 0.03809
v -0.03707 0.089 0.04379
v -0.03707 0.089 0.04429
v -0.03503 0.085 0.03759
v -0.03503 0.085 0.03809
v -0.03503 0.085 0.04379
v -0.03503 0.085 0.04429
v -0.03503 0.089 0.03759
v -0.03503 0.089 0.03809
v -0.03503 0.089 0.04379
v -0.03503 0.089 0.04429
v -0.03453 0.085 0.03759
v -0.03453 0.085 0.03809
v -0.03453 0.085 0.04379
v -0.03453 0.085 0.04429
v -0.03453 0.089 0.03759
v -0.03453 0.089 0.03809
v -0.03453 0.089 0.04379
v -0.03453 0.089 0.04429
v -0.02954 0.085 0.03805
v -0.02954 0.085 0.03855
v -0.02954 0.089 0.03805
v -0.02954 0.089 0.03855
v -0.02904 0.085 0.03805
v -0.02904 0.085 0.03855
v -0.02904 0.089 0.03805
v -0.02904 0.089 0.03855
v -0.0288 0.085 0.0448
v -0.0288 0.089 0.0448
v -0.028792 0.085 0.044735
v -0.028792 0.085 0.044865
v -0.028792 0.089 0.044735
v -0.028792 0.089 0.044865
v -0.028766 0.085 0.044675
v -0.028766 0.085 0.044925
v -0.028766 0.089 0.044675
v -0.028766 0.089 0.044925
v -0.028727 0.085 0.044623
v -0.028727 0.085 0.044977
v -0.028727 0.089 0.044623
v -0.028727 0.089 0.044977
v -0.028675 0.085 0.044583
v -0.028675 0.085 0.045017
v -0.028675 0.089 0.044583
v -0.028675 0.089 0.045017
v -0.028615 0.085 0.044558
v -0.028615 0.085 0.045042
v -0.028615 0.089 0.044558
v -0.028615 0.089 0.045042
v -0.02855 0.085 0.04455
v -0.02855 0.085 0.04505
v -0.02855 0.089 0.04455
v -0.02855 0.089 0.0448
v -0.02855 0.089 0.04505
v -0.028485 0.085 0.044558
v -0.028485 0.085 0.045042
v -0.028485 0.089 0.044558
v -0.028485 0.089 0.045042
v -0.028425 0.085 0.044583
v -0.028425 0.085 0.045017
v -0.028425 0.089 0.044583
v -0.028425 0.089 0.045017
v -0.028373 0.085 0.044623
v -0.028373 0.085 0.044977
v -0.028373 0.089 0.044623
v -0.028373 0.089 0.044977
v -0.028334 0.085 0.044675
v -0.028334 0.085 0.044925
v -0.028334 0.089 0.044675
v -0.028334 0.089 0.044925
v -0.028308 0.085 0.044735
v -0.028308 0.085 0.044865
v -0.028308 0.089 0.044735
v -0.028308 0.089 0.044865
v -0.0283 0.085 0.0448
v -0.0283 0.089 0.0448
v -0.027 0.085 0.03805
v -0.027 0.085 0.03855
v -0.027 0.089 0.03805
v -0.027 0.089 0.03855
v -0.0268 0.085 0.0448
v -0.0268 0.089 0.0448
v -0.026791 0.085 0.044735
v -0.026791 0.085 0.044865
v -0.026791 0.089 0.044735
v -0.026791 0.089 0.044865
v -0.026766 0.085 0.044675
v -0.026766 0.085 0.044925
v -0.026766 0.089 0.044675
v -0.026766 0.089 0.044925
v -0.026727 0.085 0.044623
v -0.026727 0.085 0.044977
v -0.026727 0.089 0.044623
v -0.026727 0.089 0.044977
v -0.026675 0.085 0.044583
v -0.026675 0.085 0.045017
v -0.026675 0.089 0.044583
v -0.026675 0.089 0.045017
v -0.026615 0.085 0.044558
v -0.026615 0.085 0.045042
v -0.026615 0.089 0.044558
v -0.026615 0.089 0.045042
v -0.02655 0.085 0.04455
v -0.02655 0.085 0.04505
v -0.02655 0.089 0.04455
v -0.02655 0.089 0.0448
v -0.02655 0.089 0.04505
v -0.0265 0.085 0.03805
v -0.0265 0.085 0.03855
v -0.0265 0.089 0.03805
v -0.0265 0.089 0.03855
v -0.026485 0.085 0.044558
v -0.026485 0.085 0.045042
v -0.026485 0.089 0.044558
v -0.026485 0.089 0.045042
v -0.026425 0.085 0.044583
v -0.026425 0.085 0.045017
v -0.026425 0.089 0.044583
v -0.026425 0.089 0.045017
v -0.026373 0.085 0.044623
v -0.026373 0.085 0.044977
v -0.026373 0.089 0.044623
v -0.026373 0.089 0.044977
v -0.026333 0.085 0.044675
v -0.026333 0.085 0.044925
v -0.026333 0.089 0.044675
v -0.026333 0.089 0.044925
v -0.026308 0.085 0.044735
v -0.026308 0.085 0.044865
v -0.026308 0.089 0.044735
v -0.026308 0.089 0.044865
v -0.0263 0.085 0.0448
v -0.0263 0.089 0.0448
v -0.0248 0.085 0.0448
v -0.0248 0.089 0.0448
v -0.024791 0.085 0.044735
v -0.024791 0.085 0.044865
v -0.024791 0.089 0.044735
v -0.024791 0.089 0.044865
v -0.024766 0.085 0.044675
v -0.024766 0.085 0.044925
v -0.024766 0.089 0.044675
v -0.024766 0.089 0.044925
v -0.024727 0.085 0.044623
v -0.024727 0.085 0.044977
v -0.024727 0.089 0.044623
v -0.024727 0.089 0.044977
v -0.024675 0.085 0.044583
v -0.024675 0.085 0.045017
v -0.024675 0.089 0.044583
v -0.024675 0.089 0.045017
v -0.024615 0.085 0.044558
v -0.024615 0.085 0.045042
v -0.024615 0.089 0.044558
v -0.024615 0.089 0.045042
v -0.02455 0.085 0.04455
v -0.02455 0.085 0.04505
v -0.02455 0.089 0.04455
v -0.02455 0.089 0.0448
v -0.02455 0.089 0.04505
v -0.024485 0.085 0.044558
v -0.024485 0.085 0.045042
v -0.024485 0.089 0.044558
v -0.024485 0.089 0.045042
v -0.02446 0.085 0.03805
v -0.02446 0.085 0.03855
v -0.02446 0.089 0.03805
v -0.02446 0.089 0.03855
v -0.024425 0.085 0.044583
v -0.024425 0.085 0.045017
v -0.024425 0.089 0.044583
v -0.024425 0.089 0.045017
v -0.024373 0.085 0.044623
v -0.024373 0.085 0.044977
v -0.024373 0.089 0.044623
v -0.024373 0.089 0.044977
v -0.024333 0.085 0.044675
v -0.024333 0.085 0.044925
v -0.024333 0.089 0.044675
v -0.024333 0.089 0.044925
v -0.024309 0.085 0.044735
v -0.024309 0.085 0.044865
v -0.024309 0.089 0.044735
v -0.024309 0.089 0.044865
v -0.0243 0.085 0.0448
v -0.0243 0.089 0.0448
v -0.02396 0.085 0.03805
v -0.02396 0.085 0.03855
v -0.02396 0.089 0.03805
v -0.02396 0.089 0.03855
v -0.0195 0.085 0.0373
v -0.0195 0.085 0.0378
v -0.0195 0.085 0.04355
v -0.0195 0.085 0.04405
v -0.0195 0.089 0.0373
v -0.0195 0.089 0.0378
v -0.0195 0.089 0.04355
v -0.0195 0.089 0.04405
v -0.019 0.085 0.0373
v -0.019 0.085 0.0378
v -0.019 0.085 0.04355
v -0.019 0.085 0.04405
v -0.019 0.089 0.0373
v -0.019 0.089 0.0378
v -0.019 0.089 0.04355
v -0.019 0.089 0.04405
v -0.0175 0.085 0.0373
v -0.0175 0.085 0.0378
v -0.0175 0.085 0.04355
v -0.0175 0.085 0.04405
v -0.0175 0.089 0.0373
v -0.0175 0.089 0.0378
v -0.0175 0.089 0.04355
v -0.0175 0.089 0.04405
v -0.017 0.085 0.0373
v -0.017 0.085 0.0378
v -0.017 0.085 0.04355
v -0.017 0.085 0.04405
v -0.017 0.089 0.0373
v -0.017 0.089 0.0378
v -0.017 0.089 0.04355
v -0.017 0.089 0.04405
v -0.0155 0.085 0.0373
v -0.0155 0.085 0.0378
v -0.0155 0.085 0.04355
v -0.0155 0.085 0.04405
v -0.0155 0.089 0.0373
v -0.0155 0.089 0.0378
v -0.0155 0.089 0.04355
v -0.0155 0.089 0.04405
v -0.015 0.085 0.0373
v -0.015 0.085 0.0378
v -0.015 0.085 0.04355
v -0.015 0.085 0.04405
v -0.015 0.089 0.0373
v -0.015 0.089 0.0378
v -0.015 0.089 0.04355
v -0.015 0.089 0.04405
v -0.0135 0.085 0.0373
v -0.0135 0.085 0.0378
v -0.0135 0.085 0.04355
v -0.0135 0.085 0.04405
v -0.0135 0.089 0.0373
v -0.0135 0.089 0.0378
v -0.0135 0.089 0.04355
v -0.0135 0.089 0.04405
v -0.013 0.085 0.0373
v -0.013 0.085 0.0378
v -0.013 0.085 0.04355
v -0.013 0.085 0.04405
v -0.013 0.089 0.0373
v -0.013 0.089 0.0378
v -0.013 0.089 0.04355
v -0.013 0.089 0.04405
v -0.0115 0.085 0.0373
v -0.0115 0.085 0.0378
v -0.0115 0.085 0.04355
v -0.0115 0.085 0.04405
v -0.0115 0.089 0.0373
v -0.0115 0.089 0.0378
v -0.0115 0.089 0.04355
v -0.0115 0.089 0.04405
v -0.011 0.085 0.0373
v -0.011 0.085 0.0378
v -0.011 0.085 0.04355
v -0.011 0.085 0.04405
v -0.011 0.089 0.0373
v -0.011 0.089 0.0378
v -0.011 0.089 0.04355
v -0.011 0.089 0.04405
v -0.0095 0.085 0.0373
v -0.0095 0.085 0.0378
v -0.0095 0.085 0.04355
v -0.0095 0.085 0.04405
v -0.0095 0.089 0.0373
v -0.0095 0.089 0.0378
v -0.0095 0.089 0.04355
v -0.0095 0.089 0.04405
v -0.009 0.085 0.0373
v -0.009 0.085 0.0378
v -0.009 0.085 0.04355
v -0.009 0.085 0.04405
v -0.009 0.089 0.0373
v -0.009 0.089 0.0378
v -0.009 0.089 0.04355
v -0.009 0.089 0.04405
vn -1.0 -0.0 -0.0
vn -0.9992 0.0 -0.041
vn -0.9992 0.0 0.041
vn -0.9989 0.0 -0.0461
vn -0.9989 0.0 0.0461
vn -0.9764 0.0 -0.2159
vn -0.9764 0.0 0.2159
vn -0.9752 0.0 -0.2213
vn -0.9752 0.0 0.2213
vn -0.9526 0.0 -0.3044
vn -0.9526 0.0 0.3044
vn -0.9512 0.0 -0.3086
vn -0.9512 0.0 0.3086
vn -0.8881 0.0 -0.4596
vn -0.8881 0.0 0.4596
vn -0.8838 0.0 -0.4679
vn -0.8838 0.0 0.4679
vn -0.8468 0.0 -0.5319
vn -0.8468 0.0 0.5319
vn -0.8443 0.0 -0.5358
vn -0.8443 0.0 0.5358
vn -0.7426 0.0 -0.6697
vn -0.7426 0.0 0.6697
vn -0.6787 0.0 -0.7344
vn -0.6787 0.0 0.7344
vn -0.5387 0.0 -0.8425
vn -0.5387 0.0 0.8425
vn -0.4631 0.0 -0.8863
vn -0.4631 0.0 0.8863
vn -0.2996 0.0 -0.9541
vn -0.2996 0.0 0.9541
vn -0.2114 0.0 -0.9774
vn -0.2114 0.0 0.9774
vn -0.041 0.0 -0.9992
vn -0.041 0.0 0.9992
vn 0.0 0.0 -1.0
vn 0.0 0.0 1.0
vn 0.0 1.0 0.0
vn 0.041 0.0 -0.9992
vn 0.041 0.0 0.9992
vn 0.2114 0.0 -0.9774
vn 0.2114 0.0 0.9774
vn 0.2996 0.0 -0.9541
vn 0.2996 0.0 0.9541
vn 0.4631 0.0 -0.8863
vn 0.4631 0.0 0.8863
vn 0.5387 0.0 -0.8425
vn 0.5387 0.0 0.8425
vn 0.6757 0.0 -0.7372
vn 0.6757 0.0 0.7372
vn 0.6787 0.0 -0.7344
vn 0.6787 0.0 0.7344
vn 0.7372 0.0 -0.6757
vn 0.7372 0.0 0.6757
vn 0.7426 0.0 -0.6697
vn 0.7426 0.0 0.6697
vn 0.8425 0.0 -0.5387
vn 0.8425 0.0 0.5387
vn 0.8443 0.0 -0.5358
vn 0.8443 0.0 0.5358
vn 0.845 0.0 -0.5348
vn 0.845 0.0 0.5348
vn 0.8838 0.0 -0.4679
vn 0.8838 0.0 0.4679
vn 0.8863 0.0 -0.4631
vn 0.8863 0.0 0.4631
vn 0.8907 0.0 -0.4546
vn 0.8907 0.0 0.4546
vn 0.9512 0.0 -0.3086
vn 0.9512 0.0 0.3086
vn 0.9541 0.0 -0.2996
vn 0.9541 0.0 0.2996
vn 0.9554 0.0 -0.2952
vn 0.9554 0.0 0.2952
vn 0.9762 0.0 -0.2167
vn 0.9762 0.0 0.2167
vn 0.9764 0.0 -0.2159
vn 0.9764 0.0 0.2159
vn 0.9774 0.0 -0.2114
vn 0.9774 0.0 0.2114
vn 0.9989 0.0 -0.0461
vn 0.9989 0.0 0.0461
vn 0.9992 0.0 -0.041
vn 0.9992 0.0 0.041
vn 1.0 0.0 0.0
f 371//1 370//1 367//1
f 370//1 366//1 367//1
f 379//37 371//37 375//37
f 371//37 367//37 375//37
f 378//85 379//85 374//85
f 379//85 375//85 374//85
f 370//36 378//36 366//36
f 378//36 374//36 366//36
f 379//38 378//38 371//38
f 378//38 370//38 371//38
f 355//1 354//1 351//1
f 354//1 350//1 351//1
f 363//37 355//37 359//37
f 355//37 351//37 359//37
f 362//85 363//85 358//85
f 363//85 359//85 358//85
f 354//36 362//36 350//36
f 362//36 358//36 350//36
f 363//38 362//38 355//38
f 362//38 354//38 355//38
f 339//1 338//1 335//1
f 338//1 334//1 335//1
f 347//37 339//37 343//37
f 339//37 335//37 343//37
f 346//85 347//85 342//85
f 347//85 343//85 342//85
f 338//36 346//36 334//36
f 346//36 342//36 334//36
f 347//38 346//38 339//38
f 346//38 338//38 339//38
f 323//1 322//1 319//1
f 322//1 318//1 319//1
f 331//37 323//37 327//37
f 323//37 319//37 327//37
f 330//85 331//85 326//85
f 331//85 327//85 326//85
f 322//36 330//36 318//36
f 330//36 326//36 318//36
f 331//38 330//38 323//38
f 330//38 322//38 323//38
f 307//1 306//1 303//1
f 306//1 302//1 303//1
f 315//37 307//37 311//37
f 307//37 303//37 311//37
f 314//85 315//85 310//85
f 315//85 311//85 310//85
f 306//36 314//36 302//36
f 314//36 310//36 302//36
f 315//38 314//38 307//38
f 314//38 306//38 307//38
f 291//1 290//1 287//1
f 290//1 286//1 287//1
f 299//37 291//37 295//37
f 291//37 287//37 295//37
f 298//85 299//85 294//85
f 299//85 295//85 294//85
f 290//36 298//36 286//36
f 298//36 294//36 286//36
f 299//38 298//38 291//38
f 298//38 290//38 291//38
f 249//39 256//41 254//43
f 256//41 264//45 254//43
f 254//43 264//45 262//47
f 264//45 268//49 262//47
f 262//47 268//49 266//53
f 268//49 272//61 266//53
f 266//53 272//61 270//67
f 272//61 276//73 270//67
f 270//67 276//73 274//75
f 276//73 279//81 274//75
f 274//75 279//81 278//82
f 279//81 277//76 278//82
f 278//82 277//76 275//74
f 277//76 273//68 275//74
f 275//74 273//68 271//62
f 273//68 269//54 271//62
f 271//62 269//54 267//50
f 269//54 265//48 267//50
f 267//50 265//48 263//46
f 265//48 257//44 263//46
f 263//46 257//44 255//42
f 257//44 253//40 255//42
f 255//42 253//40 250//35
f 253//40 248//33 250//35
f 250//35 248//33 246//31
f 248//33 244//29 246//31
f 246//31 244//29 242//27
f 244//29 240//25 242//27
f 242//27 240//25 238//23
f 240//25 236//19 238//23
f 238//23 236//19 234//15
f 236//19 232//11 234//15
f 234//15 232//11 230//9
f 232//11 228//5 230//9
f 230//9 228//5 227//4
f 228//5 231//8 227//4
f 227//4 231//8 229//10
f 231//8 235//14 229//10
f 229//10 235//14 233//18
f 235//14 239//22 233//18
f 233//18 239//22 237//24
f 239//22 243//26 237//24
f 237//24 243//26 241//28
f 243//26 247//30 241//28
f 241//28 247//30 245//32
f 247//30 251//34 245//32
f 245//32 251//34 249//39
f 251//34 256//41 249//39
f 244//38 248//38 252//38
f 248//38 253//38 252//38
f 252//38 253//38 257//38
f 232//38 236//38 252//38
f 236//38 240//38 252//38
f 252//38 240//38 244//38
f 235//38 231//38 252//38
f 231//38 228//38 252//38
f 252//38 228//38 232//38
f 247//38 243//38 252//38
f 243//38 239//38 252//38
f 252//38 239//38 235//38
f 264//38 256//38 252//38
f 256//38 251//38 252//38
f 252//38 251//38 247//38
f 276//38 272//38 252//38
f 272//38 268//38 252//38
f 252//38 268//38 264//38
f 273//38 277//38 252//38
f 277//38 279//38 252//38
f 252//38 279//38 276//38
f 257//38 265//38 252//38
f 265//38 269//38 252//38
f 252//38 269//38 273//38
f 196//39 207//41 205//43
f 207//41 211//45 205//43
f 205//43 211//45 209//47
f 211//45 215//49 209//47
f 209//47 215//49 213//53
f 215//49 219//57 213//53
f 213//53 219//57 217//65
f 219//57 223//71 217//65
f 217//65 223//71 221//79
f 223//71 226//83 221//79
f 221//79 226//83 225//84
f 226//83 224//80 225//84
f 225//84 224//80 222//72
f 224//80 220//66 222//72
f 222//72 220//66 218//58
f 220//66 216//54 218//58
f 218//58 216//54 214//50
f 216//54 212//48 214//50
f 214//50 212//48 210//46
f 212//48 208//44 210//46
f 210//46 208//44 206//42
f 208//44 200//40 206//42
f 206//42 200//40 197//35
f 200//40 195//33 197//35
f 197//35 195//33 193//31
f 195//33 191//29 193//31
f 193//31 191//29 189//27
f 191//29 187//25 189//27
f 189//27 187//25 185//23
f 187//25 183//19 185//23
f 185//23 183//19 181//15
f 183//19 179//11 181//15
f 181//15 179//11 177//9
f 179//11 175//5 177//9
f 177//9 175//5 174//4
f 175//5 178//8 174//4
f 174//4 178//8 176//10
f 178//8 182//14 176//10
f 176//10 182//14 180//18
f 182//14 186//22 180//18
f 180//18 186//22 184//24
f 186//22 190//26 184//24
f 184//24 190//26 188//28
f 190//26 194//30 188//28
f 188//28 194//30 192//32
f 194//30 198//34 192//32
f 192//32 198//34 196//39
f 198//34 207//41 196//39
f 191//38 195//38 199//38
f 195//38 200//38 199//38
f 199//38 200//38 208//38
f 179//38 183//38 199//38
f 183//38 187//38 199//38
f 199//38 187//38 191//38
f 182//38 178//38 199//38
f 178//38 175//38 199//38
f 199//38 175//38 179//38
f 194//38 190//38 199//38
f 190//38 186//38 199//38
f 199//38 186//38 182//38
f 211//38 207//38 199//38
f 207//38 198//38 199//38
f 199//38 198//38 194//38
f 223//38 219//38 199//38
f 219//38 215//38 199//38
f 199//38 215//38 211//38
f 220//38 224//38 199//38
f 224//38 226//38 199//38
f 199//38 226//38 223//38
f 208//38 212//38 199//38
f 212//38 216//38 199//38
f 199//38 216//38 220//38
f 143//39 150//41 148//43
f 150//41 154//45 148//43
f 148//43 154//45 152//47
f 154//45 158//51 152//47
f 152//47 158//51 156//55
f 158//51 162//59 156//55
f 156//55 162//59 160//63
f 162//59 166//69 160//63
f 160//63 166//69 164//77
f 166//69 169//83 164//77
f 164//77 169//83 168//84
f 169//83 167//78 168//84
f 168//84 167//78 165//70
f 167//78 163//64 165//70
f 165//70 163//64 161//60
f 163//64 159//56 161//60
f 161//60 159//56 157//52
f 159//56 155//48 157//52
f 157//52 155//48 153//46
f 155//48 151//44 153//46
f 153//46 151//44 149//42
f 151//44 147//40 149//42
f 149//42 147//40 144//35
f 147//40 142//33 144//35
f 144//35 142//33 140//31
f 142//33 138//29 140//31
f 140//31 138//29 136//27
f 138//29 134//25 136//27
f 136//27 134//25 132//23
f 134//25 130//21 132//23
f 132//23 130//21 128//17
f 130//21 126//13 128//17
f 128//17 126//13 124//7
f 126//13 122//3 124//7
f 124//7 122//3 121//2
f 122//3 125//6 121//2
f 121//2 125//6 123//12
f 125//6 129//16 123//12
f 123//12 129//16 127//20
f 129//16 133//22 127//20
f 127//20 133//22 131//24
f 133//22 137//26 131//24
f 131//24 137//26 135//28
f 137//26 141//30 135//28
f 135//28 141//30 139//32
f 141//30 145//34 139//32
f 139//32 145//34 143//39
f 145//34 150//41 143//39
f 138//38 142//38 146//38
f 142//38 147//38 146//38
f 146//38 147//38 151//38
f 126//38 130//38 146//38
f 130//38 134//38 146//38
f 146//38 134//38 138//38
f 129//38 125//38 146//38
f 125//38 122//38 146//38
f 146//38 122//38 126//38
f 141//38 137//38 146//38
f 137//38 133//38 146//38
f 146//38 133//38 129//38
f 154//38 150//38 146//38
f 150//38 145//38 146//38
f 146//38 145//38 141//38
f 166//38 162//38 146//38
f 162//38 158//38 146//38
f 146//38 158//38 154//38
f 163//38 167//38 146//38
f 167//38 169//38 146//38
f 146//38 169//38 166//38
f 151//38 155//38 146//38
f 155//38 159//38 146//38
f 146//38 159//38 163//38
f 104//1 103//1 100//1
f 103//1 99//1 100//1
f 112//37 104//37 108//37
f 104//37 100//37 108//37
f 111//85 112//85 107//85
f 112//85 108//85 107//85
f 103//36 111//36 99//36
f 111//36 107//36 99//36
f 112//38 111//38 104//38
f 111//38 103//38 104//38
f 88//1 87//1 84//1
f 87//1 83//1 84//1
f 96//37 88//37 92//37
f 88//37 84//37 92//37
f 95//85 96//85 91//85
f 96//85 92//85 91//85
f 87//36 95//36 83//36
f 95//36 91//36 83//36
f 96//38 95//38 88//38
f 95//38 87//38 88//38
f 86//1 85//1 82//1
f 85//1 81//1 82//1
f 94//37 86//37 90//37
f 86//37 82//37 90//37
f 93//85 94//85 89//85
f 94//85 90//85 89//85
f 85//36 93//36 81//36
f 93//36 89//36 81//36
f 94//38 93//38 86//38
f 93//38 85//38 86//38
f 102//1 101//1 98//1
f 101//1 97//1 98//1
f 110//37 102//37 106//37
f 102//37 98//37 106//37
f 109//85 110//85 105//85
f 110//85 106//85 105//85
f 101//36 109//36 97//36
f 109//36 105//36 97//36
f 110//38 109//38 102//38
f 109//38 101//38 102//38
f 72//1 71//1 68//1
f 71//1 67//1 68//1
f 80//37 72//37 76//37
f 72//37 68//37 76//37
f 79//85 80//85 75//85
f 80//85 76//85 75//85
f 71//36 79//36 67//36
f 79//36 75//36 67//36
f 80//38 79//38 72//38
f 79//38 71//38 72//38
f 56//1 55//1 52//1
f 55//1 51//1 52//1
f 64//37 56//37 60//37
f 56//37 52//37 60//37
f 63//85 64//85 59//85
f 64//85 60//85 59//85
f 55//36 63//36 51//36
f 63//36 59//36 51//36
f 64//38 63//38 56//38
f 63//38 55//38 56//38
f 40//1 39//1 36//1
f 39//1 35//1 36//1
f 48//37 40//37 44//37
f 40//37 36//37 44//37
f 47//85 48//85 43//85
f 48//85 44//85 43//85
f 39//36 47//36 35//36
f 47//36 43//36 35//36
f 48//38 47//38 40//38
f 47//38 39//38 40//38
f 24//1 23//1 20//1
f 23//1 19//1 20//1
f 32//37 24//37 28//37
f 24//37 20//37 28//37
f 31//85 32//85 27//85
f 32//85 28//85 27//85
f 23//36 31//36 19//36
f 31//36 27//36 19//36
f 32//38 31//38 24//38
f 31//38 23//38 24//38
f 8//1 7//1 4//1
f 7//1 3//1 4//1
f 16//37 8//37 12//37
f 8//37 4//37 12//37
f 15//85 16//85 11//85
f 16//85 12//85 11//85
f 7//36 15//36 3//36
f 15//36 11//36 3//36
f 16//38 15//38 8//38
f 15//38 7//38 8//38
f 6//1 5//1 2//1
f 5//1 1//1 2//1
f 14//37 6//37 10//37
f 6//37 2//37 10//37
f 13//85 14//85 9//85
f 14//85 10//85 9//85
f 5//36 13//36 1//36
f 13//36 9//36 1//36
f 14//38 13//38 6//38
f 13//38 5//38 6//38
f 22//1 21//1 18//1
f 21//1 17//1 18//1
f 30//37 22//37 26//37
f 22//37 18//37 26//37
f 29//85 30//85 25//85
f 30//85 26//85 25//85
f 21//36 29//36 17//36
f 29//36 25//36 17//36
f 30//38 29//38 22//38
f 29//38 21//38 22//38
f 38//1 37//1 34//1
f 37//1 33//1 34//1
f 46//37 38//37 42//37
f 38//37 34//37 42//37
f 45//85 46//85 41//85
f 46//85 42//85 41//85
f 37//36 45//36 33//36
f 45//36 41//36 33//36
f 46//38 45//38 38//38
f 45//38 37//38 38//38
f 54//1 53//1 50//1
f 53//1 49//1 50//1
f 62//37 54//37 58//37
f 54//37 50//37 58//37
f 61//85 62//85 57//85
f 62//85 58//85 57//85
f 53//36 61//36 49//36
f 61//36 57//36 49//36
f 62//38 61//38 54//38
f 61//38 53//38 54//38
f 70//1 69//1 66//1
f 69//1 65//1 66//1
f 78//37 70//37 74//37
f 70//37 66//37 74//37
f 77//85 78//85 73//85
f 78//85 74//85 73//85
f 69//36 77//36 65//36
f 77//36 73//36 65//36
f 78//38 77//38 70//38
f 77//38 69//38 70//38
f 353//1 352//1 349//1
f 352//1 348//1 349//1
f 361//37 353//37 357//37
f 353//37 349//37 357//37
f 360//85 361//85 356//85
f 361//85 357//85 356//85
f 352//36 360//36 348//36
f 360//36 356//36 348//36
f 361//38 360//38 353//38
f 360//38 352//38 353//38
f 337//1 336//1 333//1
f 336//1 332//1 333//1
f 345//37 337//37 341//37
f 337//37 333//37 341//37
f 344//85 345//85 340//85
f 345//85 341//85 340//85
f 336//36 344//36 332//36
f 344//36 340//36 332//36
f 345//38 344//38 337//38
f 344//38 336//38 337//38
f 369//1 368//1 365//1
f 368//1 364//1 365//1
f 377//37 369//37 373//37
f 369//37 365//37 373//37
f 376//85 377//85 372//85
f 377//85 373//85 372//85
f 368//36 376//36 364//36
f 376//36 372//36 364//36
f 377//38 376//38 369//38
f 376//38 368//38 369//38
f 321//1 320//1 317//1
f 320//1 316//1 317//1
f 329//37 321//37 325//37
f 321//37 317//37 325//37
f 328//85 329//85 324//85
f 329//85 325//85 324//85
f 320//36 328//36 316//36
f 328//36 324//36 316//36
f 329//38 328//38 321//38
f 328//38 320//38 321//38
f 305//1 304//1 301//1
f 304//1 300//1 301//1
f 313//37 305//37 309//37
f 305//37 301//37 309//37
f 312//85 313//85 308//85
f 313//85 309//85 308//85
f 304//36 312//36 300//36
f 312//36 308//36 300//36
f 313//38 312//38 305//38
f 312//38 304//38 305//38
f 289//1 288//1 285//1
f 288//1 284//1 285//1
f 297//37 289//37 293//37
f 289//37 285//37 293//37
f 296//85 297//85 292//85
f 297//85 293//85 292//85
f 288//36 296//36 284//36
f 296//36 292//36 284//36
f 297//38 296//38 289//38
f 296//38 288//38 289//38
f 261//1 260//1 259//1
f 260//1 258//1 259//1
f 283//37 261//37 281//37
f 261//37 259//37 281//37
f 282//85 283//85 280//85
f 283//85 281//85 280//85
f 260//36 282//36 258//36
f 282//36 280//36 258//36
f 283//38 282//38 261//38
f 282//38 260//38 261//38
f 173//1 172//1 171//1
f 172//1 170//1 171//1
f 204//37 173//37 202//37
f 173//37 171//37 202//37
f 203//85 204//85 201//85
f 204//85 202//85 201//85
f 172//36 203//36 170//36
f 203//36 201//36 170//36
f 204//38 203//38 173//38
f 203//38 172//38 173//38
f 116//1 115//1 114//1
f 115//1 113//1 114//1
f 120//37 116//37 118//37
f 116//37 114//37 118//37
f 119//85 120//85 117//85
f 120//85 118//85 117//85
f 115//36 119//36 113//36
f 119//36 117//36 113//36
f 120//38 119//38 116//38
f 119//38 115//38 116//38
