o base_link_0
v -0.033125 0.091 0.01875
v -0.033125 0.091 0.02925
v -0.033125 0.0913 0.01875
v -0.033125 0.0913 0.02925
v -0.031457 0.093236 0.01875
v -0.031457 0.093236 0.02925
v -0.029352 0.094687 0.01875
v -0.029352 0.094687 0.02925
v -0.029244 0.094727 0.01875
v -0.029244 0.094727 0.02925
v -0.029129 0.094742 0.01875
v -0.029129 0.094742 0.02925
v -0.029014 0.09473 0.01875
v -0.029014 0.09473 0.02925
v -0.028904 0.094691 0.01875
v -0.028904 0.094691 0.02925
v -0.023042 0.092454 0.01875
v -0.023042 0.092454 0.02925
v -0.016875 0.091 0.01875
v -0.016875 0.091 0.02925
v -0.016875 0.0913 0.01875
v -0.016875 0.0913 0.02925
vn -0.7576 0.6527 0.0
vn -0.6993 0.7148 0.0
vn -0.6355 0.7721 0.0
vn -0.4975 0.8674 0.0
vn -0.4236 0.9058 0.0
vn -0.2762 0.9611 0.0
vn -0.2031 0.9791 0.0
vn -0.0519 0.9986 0.0
vn 0.0 0.0 -1.0
vn 0.0 0.0 1.0
vn 0.0262 0.9997 0.0
vn 0.1817 0.9834 0.0
vn 0.1839 0.9829 0.0
vn 0.2423 0.9702 0.0
vn 0.259 0.9659 0.0
vn 0.3001 0.9539 0.0
vn 0.3454 0.9385 0.0
f 3//1 4//1 6//2
f 3//1 6//2 5//3
f 6//2 8//4 5//3
f 5//3 8//4 7//5
f 15//17 16//17 17//16
f 16//17 18//14 17//16
f 17//16 18//14 21//13
f 18//14 22//13 21//13
f 21//9 19//9 17//9
f 19//9 1//9 17//9
f 17//9 1//9 15//9
f 3//9 5//9 1//9
f 5//9 7//9 1//9
f 1//9 7//9 9//9
f 9//9 11//9 1//9
f 11//9 13//9 1//9
f 1//9 13//9 15//9
f 20//10 22//10 2//10
f 22//10 18//10 2//10
f 2//10 18//10 16//10
f 16//10 14//10 2//10
f 14//10 12//10 2//10
f 2//10 12//10 10//10
f 10//10 8//10 2//10
f 8//10 6//10 2//10
f 2//10 6//10 4//10
f 16//17 15//17 13//15
f 16//17 13//15 14//12
f 13//15 11//11 14//12
f 14//12 11//11 12//8
f 11//11 9//7 12//8
f 12//8 9//7 10//6
f 9//7 7//5 10//6
f 10//6 7//5 8//4
