o mors_1
v -0.0165 0.0 0.01656
v -0.0165 0.0 0.0502
v -0.0165 0.00036 0.0162
v -0.0165 0.003 0.0262
v -0.0165 0.003 0.046308
v -0.0165 0.003106 0.046756
v -0.0165 0.003134 0.0257
v -0.0165 0.003402 0.04711
v -0.0165 0.0035 0.025334
v -0.0165 0.003825 0.047293
v -0.0165 0.004 0.0252
v -0.0165 0.004285 0.047266
v -0.0165 0.004685 0.047037
v -0.0165 0.004939 0.046652
v -0.0165 0.006833 0.0502
v -0.0165 0.011373 0.0252
v -0.0165 0.011835 0.025313
v -0.0165 0.012193 0.025627
v -0.0165 0.012312 0.026544
v -0.0165 0.012365 0.026071
v -0.0165 0.016 0.0162
v -0.0165 0.016 0.0252
v -0.015 0.0 0.01734
v -0.015 0.0 0.0202
v -0.015 0.00036 0.0177
v -0.015 0.01564 0.0177
v -0.015 0.016 0.01734
v -0.015 0.016 0.0202
v -0.0115 0.0 0.0552
v -0.0115 0.005 0.0552
v -0.0105 0.00036 0.0162
v -0.0105 0.00036 0.0177
v -0.0105 0.01564 0.0177
v -0.0105 0.016 0.0162
v -0.010371 0.000343 0.016217
v -0.010371 0.000343 0.017683
v -0.010371 0.015657 0.017683
v -0.01025 0.000293 0.016267
v -0.01025 0.000293 0.017633
v -0.01025 0.015707 0.017633
v -0.01025 0.016 0.016267
v -0.010067 0.00011 0.01645
v -0.010067 0.00011 0.01745
v -0.010067 0.01589 0.01745
v -0.010067 0.016 0.01645
v -0.01002 0.0 0.01656
v -0.01002 0.0 0.01734
v -0.01002 0.016 0.01734
v -0.01 0.0 0.0167
v -0.01 0.0 0.0172
v -0.01 0.016 0.0167
v -0.01 0.016 0.0172
v -0.0045 0.0 0.0166
v -0.0045 0.0 0.0171
v -0.0045 0.016 0.0166
v -0.0045 0.016 0.0171
v -0.00448 0.0 0.01646
v -0.00448 0.0 0.01724
v -0.00448 0.016 0.01646
v -0.00448 0.016 0.01724
v -0.004433 0.00011 0.01635
v -0.004433 0.00011 0.01735
v -0.004433 0.01589 0.01635
v -0.004433 0.01589 0.01735
v -0.00425 0.000293 0.016167
v -0.00425 0.000293 0.017533
v -0.00425 0.015707 0.016167
v -0.00425 0.015707 0.017533
v -0.004129 0.000343 0.016117
v -0.004129 0.000343 0.017583
v -0.004129 0.015657 0.016117
v -0.004129 0.015657 0.017583
v -0.004 0.00036 0.0161
v -0.004 0.00036 0.0176
v -0.004 0.01564 0.0161
v -0.004 0.01564 0.0176
v 0.0 0.0 0.0552
v 0.0 0.005 0.0552
v 0.0005 0.0 0.01724
v 0.0005 0.0 0.0202
v 0.0005 0.00036 0.0176
v 0.0005 0.01564 0.0176
v 0.0005 0.016 0.01724
v 0.0005 0.016 0.0202
v 0.001 0.0 0.0161
v 0.001 0.0 0.01646
v 0.001 0.00036 0.0161
v 0.001 0.00644 0.013388
v 0.001 0.007689 0.012631
v 0.001 0.008665 0.011546
v 0.001 0.009287 0.010225
v 0.001 0.0095 0.0031
v 0.001 0.0095 0.00878
v 0.001 0.009728 0.001952
v 0.001 0.010379 0.000979
v 0.001 0.01135 0.0032
v 0.001 0.011352 0.000328
v 0.001 0.011538 0.0025
v 0.001 0.011538 0.0039
v 0.001 0.01205 0.001988
v 0.001 0.01205 0.004412
v 0.001 0.0125 0.0001
v 0.001 0.01275 0.0018
v 0.001 0.01275 0.0046
v 0.001 0.013 0.0001
v 0.001 0.01345 0.001988
v 0.001 0.01345 0.004412
v 0.001 0.013962 0.0025
v 0.001 0.013962 0.0039
v 0.001 0.014148 0.000328
v 0.001 0.01415 0.0032
v 0.001 0.015121 0.000979
v 0.001 0.01564 0.0161
v 0.001 0.015772 0.001952
v 0.001 0.016 0.0031
v 0.001 0.016 0.01646
v 0.005 0.0 0.0161
v 0.005 0.0 0.0502
v 0.005 0.003 0.0262
v 0.005 0.003 0.046308
v 0.005 0.003106 0.046756
v 0.005 0.003134 0.0257
v 0.005 0.003402 0.04711
v 0.005 0.0035 0.025334
v 0.005 0.003825 0.047293
v 0.005 0.004 0.0252
v 0.005 0.004285 0.047266
v 0.005 0.004685 0.047037
v 0.005 0.004939 0.046652
v 0.005 0.00644 0.013388
v 0.005 0.006833 0.0502
v 0.005 0.007689 0.012631
v 0.005 0.008665 0.011546
v 0.005 0.009287 0.010225
v 0.005 0.0095 0.0031
v 0.005 0.0095 0.00878
v 0.005 0.009728 0.001952
v 0.005 0.010379 0.000979
v 0.005 0.01135 0.0032
v 0.005 0.011352 0.000328
v 0.005 0.011373 0.0252
v 0.005 0.011538 0.0025
v 0.005 0.011538 0.0039
v 0.005 0.011835 0.025313
v 0.005 0.01205 0.001988
v 0.005 0.01205 0.004412
v 0.005 0.012193 0.025627
v 0.005 0.012312 0.026544
v 0.005 0.012365 0.026071
v 0.005 0.0125 0.0001
v 0.005 0.01275 0.0018
v 0.005 0.01275 0.0046
v 0.005 0.013 0.0001
v 0.005 0.01345 0.001988
v 0.005 0.01345 0.004412
v 0.005 0.013962 0.0025
v 0.005 0.013962 0.0039
v 0.005 0.014148 0.000328
v 0.005 0.01415 0.0032
v 0.005 0.015121 0.000979
v 0.005 0.015772 0.001952
v 0.005 0.016 0.0031
v 0.005 0.016 0.0252
vn -1.0 0.0 0.0
vn -0.9975 0.0 -0.0709
vn -0.9975 0.0 0.0709
vn -0.9739 0.0 -0.227
vn -0.9739 0.0 0.227
vn -0.9503 0.0 -0.3114
vn -0.9503 0.0 0.3114
vn -0.8284 0.0 -0.5602
vn -0.8284 0.0 0.5602
vn -0.7071 0.0 0.7071
vn -0.6091 0.0 0.7931
vn -0.5552 0.0 -0.8317
vn -0.4989 0.0 0.8667
vn -0.3004 -0.0 -0.9538
vn -0.2585 0.0 0.966
vn -0.216 -0.0 -0.9764
vn -0.0873 0.0 -0.9962
vn -0.0655 0.0 -0.9979
vn -0.0655 0.0 0.9979
vn 0.0 -1.0 0.0
vn 0.0 -0.9989 0.0474
vn 0.0 -0.9979 -0.0652
vn 0.0 -0.9973 -0.0731
vn 0.0 -0.9915 -0.1304
vn 0.0 -0.9779 0.209
vn 0.0 -0.9733 -0.2295
vn -0.0 -0.9704 -0.2415
vn 0.0 -0.9658 -0.2594
vn 0.0 -0.9658 0.2594
vn 0.0 -0.9472 -0.3207
vn -0.0 -0.9419 -0.3358
vn 0.0 -0.9069 -0.4213
vn 0.0 -0.9069 0.4213
vn 0.0 -0.8964 -0.4433
vn 0.0 -0.8928 -0.4505
vn 0.0 -0.8635 0.5043
vn -0.0 -0.8591 -0.5118
vn 0.0 -0.818 -0.5752
vn 0.0 -0.818 0.5752
vn -0.0 -0.8049 -0.5935
vn 0.0 -0.7701 0.6379
vn 0.0 -0.7522 -0.6589
vn -0.0 -0.74 -0.6727
vn 0.0 -0.7071 -0.7071
vn 0.0 -0.7071 0.7071
vn -0.0 -0.6749 -0.738
vn 0.0 -0.6589 -0.7522
vn -0.0 -0.6245 -0.781
vn -0.0 -0.5991 -0.8007
vn 0.0 -0.5752 -0.818
vn 0.0 -0.5752 0.818
vn 0.0 -0.5323 0.8465
vn 0.0 -0.4544 -0.8908
vn 0.0 -0.4433 -0.8964
vn 0.0 -0.4213 -0.9069
vn 0.0 -0.4213 0.9069
vn 0.0 -0.3881 -0.9216
vn 0.0 -0.3881 0.9216
vn -0.0 -0.3592 -0.9333
vn 0.0 -0.3207 -0.9472
vn 0.0 -0.2594 -0.9658
vn 0.0 -0.2594 0.9658
vn -0.0 -0.2096 -0.9778
vn 0.0 -0.1304 -0.9915
vn 0.0 -0.1197 0.9928
vn 0.0 -0.0652 -0.9979
vn -0.0 0.0 -1.0
vn 0.0 0.0 1.0
vn 0.0 0.0652 -0.9979
vn 0.0 0.0956 -0.9954
vn 0.0 0.1304 -0.9915
vn 0.0 0.1305 0.9914
vn 0.0 0.2512 -0.9679
vn 0.0 0.2594 -0.9658
vn -0.0 0.2594 0.9658
vn 0.0 0.3207 -0.9472
vn 0.0 0.421 0.9071
vn 0.0 0.4213 -0.9069
vn -0.0 0.4213 0.9069
vn 0.0 0.4433 -0.8964
vn 0.0 0.5332 -0.846
vn 0.0 0.5751 0.8181
vn 0.0 0.5752 -0.818
vn -0.0 0.5752 0.818
vn 0.0 0.6589 -0.7522
vn 0.0 0.6596 -0.7516
vn -0.0 0.7071 -0.7071
vn -0.0 0.7071 0.7071
vn 0.0 0.7522 -0.6589
vn 0.0 0.818 -0.5752
vn -0.0 0.818 0.5752
vn 0.0 0.8181 0.5751
vn 0.0 0.8562 -0.5167
vn 0.0 0.8964 -0.4433
vn 0.0 0.9069 -0.4213
vn -0.0 0.9069 0.4213
vn 0.0 0.9071 0.421
vn 0.0 0.9265 -0.3763
vn 0.0 0.9389 0.3442
vn 0.0 0.9472 -0.3207
vn 0.0 0.9658 -0.2594
vn -0.0 0.9658 0.2594
vn 0.0 0.9902 0.1398
vn 0.0 0.9914 0.1305
vn 0.0 0.9933 -0.1159
vn 0.0 0.9952 -0.0979
vn 0.0 0.9983 0.0579
vn 0.0 1.0 0.0
vn 0.0655 0.0 -0.9979
vn 0.0655 0.0 0.9979
vn 0.098 0.0003 -0.9952
vn 0.216 0.0 0.9764
vn 0.2586 0.0004 -0.966
vn 0.3004 0.0 0.9538
vn 0.4606 0.0004 -0.8876
vn 0.5552 0.0 0.8317
vn 0.6091 0.0 -0.7931
vn 0.7071 0.0 0.7071
vn 0.8284 0.0 -0.5602
vn 0.8284 0.0 0.5602
vn 0.8476 0.0003 -0.5307
vn 0.963 0.0 0.2695
vn 0.964 0.0004 -0.2659
vn 0.991 0.0004 -0.1342
vn 0.9955 0.0 0.0945
vn 0.9989 0.0 -0.0472
vn 0.9989 0.0 0.0472
vn 1.0 0.0 0.0
f 113//67 73//17 75//18
f 81//1 79//1 80//1
f 81//1 80//1 82//1
f 82//1 80//1 84//1
f 82//1 84//1 83//1
f 24//67 28//67 80//67
f 80//67 28//67 84//67
f 24//128 23//128 25//128
f 24//128 25//128 28//128
f 28//128 25//128 26//128
f 28//128 26//128 27//128
f 50//20 47//20 23//20
f 50//20 1//20 49//20
f 49//20 1//20 46//20
f 50//20 23//20 1//20
f 1//20 23//20 24//20
f 1//20 24//20 2//20
f 80//20 79//20 86//20
f 57//20 86//20 53//20
f 53//20 86//20 79//20
f 53//20 79//20 54//20
f 54//20 79//20 58//20
f 29//20 2//20 77//20
f 77//20 2//20 24//20
f 77//20 24//20 118//20
f 118//20 24//20 80//20
f 118//20 80//20 117//20
f 117//20 80//20 86//20
f 117//20 86//20 85//20
f 78//68 30//68 77//68
f 77//68 30//68 29//68
f 163//107 22//103 131//99
f 131//99 22//103 15//99
f 131//99 15//99 78//99
f 78//99 15//99 30//99
f 162//106 115//106 163//107
f 163//107 115//106 116//108
f 56//108 60//108 83//108
f 116//108 59//108 55//108
f 27//108 21//108 28//108
f 28//108 21//108 22//103
f 28//108 22//103 84//108
f 84//108 22//103 163//107
f 84//108 163//107 83//108
f 83//108 163//107 116//108
f 83//108 116//108 56//108
f 56//108 116//108 55//108
f 45//108 41//108 51//108
f 51//108 41//108 34//108
f 51//108 34//108 52//108
f 52//108 34//108 21//108
f 52//108 21//108 48//108
f 48//108 21//108 27//108
f 6//1 2//1 8//1
f 8//1 2//1 10//1
f 6//1 5//1 2//1
f 2//1 5//1 4//1
f 2//1 4//1 1//1
f 10//1 2//1 12//1
f 12//1 2//1 15//1
f 12//1 15//1 13//1
f 21//1 17//1 22//1
f 22//1 17//1 18//1
f 4//1 7//1 1//1
f 1//1 7//1 9//1
f 1//1 9//1 3//1
f 3//1 9//1 11//1
f 3//1 11//1 21//1
f 21//1 11//1 16//1
f 21//1 16//1 17//1
f 18//1 20//1 22//1
f 22//1 20//1 19//1
f 22//1 19//1 15//1
f 15//1 19//1 14//1
f 15//1 14//1 13//1
f 21//67 34//111 3//67
f 3//67 34//111 31//109
f 25//68 32//110 26//68
f 26//68 32//110 33//110
f 51//124 52//127 49//126
f 49//126 52//127 50//125
f 82//68 76//19 81//68
f 81//68 76//19 74//19
f 53//2 54//3 55//2
f 55//2 54//3 56//3
f 85//57 88//53 117//57
f 117//57 88//53 130//53
f 135//24 136//23 92//22
f 92//22 136//23 93//23
f 102//64 105//69 150//66
f 150//66 105//69 153//71
f 91//1 90//1 113//1
f 108//1 111//1 115//1
f 91//1 113//1 93//1
f 115//1 111//1 116//1
f 90//1 89//1 113//1
f 113//1 89//1 88//1
f 113//1 88//1 87//1
f 87//1 88//1 85//1
f 87//1 85//1 86//1
f 93//1 99//1 92//1
f 92//1 99//1 96//1
f 92//1 96//1 94//1
f 94//1 96//1 98//1
f 94//1 98//1 95//1
f 95//1 98//1 100//1
f 106//1 105//1 103//1
f 103//1 105//1 102//1
f 103//1 102//1 100//1
f 100//1 102//1 97//1
f 100//1 97//1 95//1
f 111//1 109//1 116//1
f 116//1 109//1 107//1
f 116//1 107//1 113//1
f 113//1 107//1 104//1
f 113//1 104//1 93//1
f 93//1 104//1 101//1
f 93//1 101//1 99//1
f 115//1 114//1 108//1
f 108//1 114//1 112//1
f 108//1 112//1 106//1
f 106//1 112//1 110//1
f 106//1 110//1 105//1
f 151//128 145//128 140//128
f 140//128 145//128 138//128
f 138//128 145//128 142//128
f 138//128 142//128 137//128
f 154//128 160//128 156//128
f 156//128 160//128 161//128
f 156//128 161//128 159//128
f 159//128 161//128 162//128
f 159//128 162//128 157//128
f 137//128 142//128 135//128
f 135//128 142//128 139//128
f 135//128 139//128 136//128
f 136//128 139//128 143//128
f 136//128 143//128 134//128
f 140//128 150//128 151//128
f 151//128 150//128 153//128
f 151//128 153//128 154//128
f 154//128 153//128 158//128
f 154//128 158//128 160//128
f 126//128 124//128 117//128
f 121//128 123//128 118//128
f 118//128 123//128 125//128
f 118//128 125//128 131//128
f 131//128 125//128 127//128
f 141//128 157//128 144//128
f 144//128 157//128 162//128
f 144//128 162//128 147//128
f 147//128 162//128 163//128
f 147//128 163//128 149//128
f 132//128 133//128 141//128
f 141//128 133//128 134//128
f 124//128 122//128 117//128
f 117//128 122//128 119//128
f 117//128 119//128 118//128
f 118//128 119//128 120//128
f 118//128 120//128 121//128
f 126//128 117//128 141//128
f 141//128 117//128 130//128
f 141//128 130//128 132//128
f 143//128 146//128 134//128
f 134//128 146//128 152//128
f 134//128 152//128 141//128
f 141//128 152//128 155//128
f 141//128 155//128 157//128
f 127//128 128//128 131//128
f 131//128 128//128 129//128
f 131//128 129//128 163//128
f 163//128 129//128 148//128
f 163//128 148//128 149//128
f 115//106 162//106 161//100
f 115//106 161//100 114//94
f 114//94 161//100 160//89
f 114//94 160//89 112//85
f 112//85 160//89 158//80
f 112//85 158//80 110//76
f 110//76 158//80 153//71
f 110//76 153//71 105//69
f 102//64 150//66 140//60
f 102//64 140//60 97//54
f 97//54 140//60 138//47
f 97//54 138//47 95//42
f 95//42 138//47 137//34
f 95//42 137//34 94//30
f 94//30 137//34 135//24
f 94//30 135//24 92//22
f 103//62 151//62 106//56
f 106//56 151//62 154//51
f 106//56 154//51 108//39
f 108//39 154//51 156//33
f 108//39 156//33 111//29
f 111//29 156//33 159//29
f 111//28 159//28 109//32
f 109//32 159//28 157//38
f 109//32 157//38 107//50
f 107//50 157//38 155//55
f 107//50 155//55 104//61
f 104//61 155//55 152//61
f 104//74 152//74 101//78
f 101//78 152//74 146//83
f 101//78 146//83 99//90
f 99//90 146//83 143//95
f 99//90 143//95 96//101
f 96//101 143//95 139//101
f 96//102 139//102 98//96
f 98//96 139//102 142//91
f 98//96 142//91 100//84
f 100//84 142//91 145//79
f 100//84 145//79 103//75
f 103//75 145//79 151//75
f 130//53 88//53 132//49
f 132//49 88//53 89//46
f 132//49 89//46 133//40
f 133//40 89//46 90//37
f 133//40 90//37 134//31
f 134//31 90//37 91//27
f 134//31 91//27 136//23
f 136//23 91//27 93//23
f 14//35 19//26 129//35
f 129//35 19//26 148//26
f 120//105 119//104 5//105
f 5//105 119//104 4//104
f 126//72 141//65 11//72
f 11//72 141//65 16//65
f 148//26 19//26 149//21
f 149//21 19//26 20//25
f 149//21 20//25 147//36
f 147//36 20//25 18//41
f 147//36 18//41 144//52
f 144//52 18//41 17//58
f 144//52 17//58 141//65
f 141//65 17//58 16//65
f 126//72 11//72 124//77
f 124//77 11//72 9//82
f 124//77 9//82 122//92
f 122//92 9//82 7//97
f 122//92 7//97 119//104
f 119//104 7//97 4//104
f 120//105 5//105 121//98
f 121//98 5//105 6//93
f 121//98 6//93 123//86
f 123//86 6//93 8//81
f 123//86 8//81 125//73
f 125//73 8//81 10//70
f 125//73 10//70 127//63
f 127//63 10//70 12//59
f 127//63 12//59 128//48
f 128//48 12//59 13//43
f 128//48 13//43 129//35
f 129//35 13//43 14//35
f 2//10 29//10 15//10
f 15//10 29//10 30//10
f 131//118 78//118 118//118
f 118//118 78//118 77//118
f 33//88 37//88 40//88
f 27//88 26//88 48//88
f 48//88 26//88 33//88
f 48//88 33//88 44//88
f 44//88 33//88 40//88
f 76//88 82//88 83//88
f 68//88 72//88 64//88
f 64//88 72//88 76//88
f 64//88 76//88 60//88
f 60//88 76//88 83//88
f 75//87 71//87 67//87
f 116//87 113//87 59//87
f 59//87 113//87 75//87
f 59//87 75//87 63//87
f 63//87 75//87 67//87
f 32//45 25//45 23//45
f 39//45 36//45 43//45
f 43//45 36//45 32//45
f 43//45 32//45 47//45
f 47//45 32//45 23//45
f 31//44 35//44 38//44
f 1//44 3//44 46//44
f 46//44 3//44 31//44
f 46//44 31//44 42//44
f 42//44 31//44 38//44
f 73//44 87//44 86//44
f 65//44 69//44 61//44
f 61//44 69//44 73//44
f 61//44 73//44 57//44
f 57//44 73//44 86//44
f 74//45 70//45 66//45
f 79//45 81//45 58//45
f 58//45 81//45 74//45
f 58//45 74//45 62//45
f 62//45 74//45 66//45
f 33//110 32//110 37//112
f 37//112 32//110 36//114
f 37//112 36//114 40//116
f 36//114 39//116 40//116
f 40//116 39//116 43//120
f 40//116 43//120 44//120
f 50//125 52//127 48//122
f 44//120 43//120 48//122
f 48//122 43//120 47//122
f 48//122 47//122 50//125
f 31//109 34//111 35//113
f 35//113 34//111 41//115
f 35//113 41//115 38//117
f 38//117 41//115 45//121
f 38//117 45//121 42//119
f 42//119 45//121 46//123
f 46//123 45//121 51//124
f 46//123 51//124 49//126
f 70//15 74//19 76//19
f 64//9 66//11 68//13
f 68//13 66//11 70//15
f 68//13 70//15 72//15
f 72//15 70//15 76//19
f 56//3 54//3 60//5
f 60//5 54//3 58//7
f 60//5 58//7 64//9
f 64//9 58//7 62//9
f 64//9 62//9 66//11
f 75//18 73//17 71//16
f 71//16 73//17 69//14
f 71//16 69//14 67//12
f 67//12 69//14 65//12
f 67//12 65//12 61//8
f 53//2 55//2 57//4
f 57//4 55//2 59//6
f 57//4 59//6 61//8
f 61//8 59//6 63//8
f 61//8 63//8 67//12
