# Created by FreeCAD <http://www.freecadweb.org>
v -0.000000 0.000000 0.002500
v -0.000598 0.000000 0.002427
v -0.000000 -0.004000 0.002500
v -0.000598 -0.004000 0.002427
v -0.001162 0.000000 0.002214
v -0.001162 -0.004000 0.002214
v -0.001658 0.000000 0.001871
v -0.001658 -0.004000 0.001871
v -0.002057 0.000000 0.001420
v -0.002057 -0.004000 0.001420
v -0.002338 0.000000 0.000887
v -0.002338 -0.004000 0.000887
v -0.002482 0.000000 0.000301
v -0.002482 -0.004000 0.000301
v -0.002482 -0.000000 -0.000301
v -0.002482 -0.004000 -0.000301
v -0.002338 -0.000000 -0.000887
v -0.002338 -0.004000 -0.000887
v -0.002057 -0.000000 -0.001420
v -0.002057 -0.004000 -0.001420
v -0.001658 -0.000000 -0.001871
v -0.001658 -0.004000 -0.001871
v -0.001162 -0.000000 -0.002214
v -0.001162 -0.004000 -0.002214
v -0.000598 -0.000000 -0.002427
v -0.000598 -0.004000 -0.002427
v -0.000000 -0.000000 -0.002500
v -0.000000 -0.004000 -0.002500
v 0.040000 -0.000000 -0.002500
v 0.040000 -0.004000 -0.002500
v 0.040598 -0.000000 -0.002427
v 0.040598 -0.004000 -0.002427
v 0.041162 -0.000000 -0.002214
v 0.041162 -0.004000 -0.002214
v 0.041658 -0.000000 -0.001871
v 0.041658 -0.004000 -0.001871
v 0.042057 -0.000000 -0.001420
v 0.042057 -0.004000 -0.001420
v 0.042338 -0.000000 -0.000887
v 0.042338 -0.004000 -0.000887
v 0.042482 -0.000000 -0.000301
v 0.042482 -0.004000 -0.000301
v 0.042482 0.000000 0.000301
v 0.042482 -0.004000 0.000301
v 0.042338 0.000000 0.000887
v 0.042338 -0.004000 0.000887
v 0.042057 0.000000 0.001420
v 0.042057 -0.004000 0.001420
v 0.041658 0.000000 0.001871
v 0.041658 -0.004000 0.001871
v 0.041162 0.000000 0.002214
v 0.041162 -0.004000 0.002214
v 0.040598 0.000000 0.002427
v 0.040598 -0.004000 0.002427
v 0.040000 0.000000 0.002500
v 0.040000 -0.004000 0.002500
v -0.000598 0.000000 0.002427
v -0.002482 -0.000000 -0.000301
v -0.001162 -0.000000 -0.002214
v 0.040598 -0.000000 -0.002427
v 0.041162 -0.000000 -0.002214
v 0.041162 0.000000 0.002214
v -0.001658 -0.004000 -0.001871
v 0.041658 -0.004000 -0.001871
vn -0.120537 0.000000 0.992709
vn -0.120537 0.000000 0.992709
vn -0.354605 0.000000 0.935016
vn -0.354605 0.000000 0.935016
vn -0.568065 0.000000 0.822984
vn -0.568065 0.000000 0.822984
vn -0.748511 0.000000 0.663123
vn -0.748511 0.000000 0.663123
vn -0.885456 0.000000 0.464723
vn -0.885456 0.000000 0.464723
vn -0.970942 0.000000 0.239316
vn -0.970942 0.000000 0.239316
vn -1.000000 0.000000 0.000000
vn -1.000000 -0.000000 0.000000
vn -0.970942 0.000000 -0.239316
vn -0.970942 -0.000000 -0.239316
vn -0.885456 0.000000 -0.464723
vn -0.885456 -0.000000 -0.464723
vn -0.748511 0.000000 -0.663123
vn -0.748511 -0.000000 -0.663123
vn -0.568065 0.000000 -0.822984
vn -0.568065 -0.000000 -0.822984
vn -0.354605 0.000000 -0.935016
vn -0.354605 -0.000000 -0.935016
vn -0.120537 0.000000 -0.992709
vn -0.120537 -0.000000 -0.992709
vn 0.000000 0.000000 -1.000000
vn 0.000000 0.000000 -1.000000
vn 0.120537 0.000000 -0.992709
vn 0.120537 0.000000 -0.992709
vn 0.354603 0.000000 -0.935017
vn 0.354603 0.000000 -0.935017
vn 0.568067 0.000000 -0.822983
vn 0.568067 0.000000 -0.822983
vn 0.748511 0.000000 -0.663123
vn 0.748511 0.000000 -0.663123
vn 0.885455 0.000000 -0.464725
vn 0.885455 0.000000 -0.464725
vn 0.970942 0.000000 -0.239316
vn 0.970942 0.000000 -0.239316
vn 1.000000 0.000000 0.000000
vn 1.000000 0.000000 -0.000000
vn 0.970942 0.000000 0.239316
vn 0.970942 0.000000 0.239316
vn 0.885455 0.000000 0.464725
vn 0.885455 0.000000 0.464725
vn 0.748511 0.000000 0.663123
vn 0.748511 0.000000 0.663123
vn 0.568067 0.000000 0.822983
vn 0.568067 0.000000 0.822983
vn 0.354603 0.000000 0.935017
vn 0.354603 0.000000 0.935017
vn 0.120537 0.000000 0.992709
vn 0.120537 0.000000 0.992709
vn 0.000000 0.000000 1.000000
vn 0.000000 0.000000 1.000000
vn 0.000000 1.000000 -0.000000
vn -0.000000 1.000000 -0.000000
vn -0.000000 1.000000 -0.000000
vn -0.000000 1.000000 -0.000000
vn 0.000000 1.000000 -0.000000
vn 0.000000 1.000000 -0.000000
vn 0.000000 1.000000 -0.000000
vn 0.000000 1.000000 -0.000000
vn 0.000000 1.000000 -0.000000
vn 0.000000 1.000000 -0.000000
vn -0.000000 1.000000 -0.000000
vn -0.000000 1.000000 -0.000000
vn 0.000000 1.000000 -0.000000
vn 0.000000 1.000000 -0.000000
vn 0.000000 1.000000 -0.000000
vn -0.000000 1.000000 -0.000000
vn -0.000000 1.000000 -0.000000
vn 0.000000 1.000000 -0.000000
vn 0.000000 1.000000 -0.000000
vn 0.000000 1.000000 -0.000000
vn -0.000000 1.000000 -0.000000
vn 0.000000 1.000000 -0.000000
vn 0.000000 1.000000 -0.000000
vn 0.000000 1.000000 -0.000000
vn -0.000000 1.000000 -0.000000
vn -0.000000 1.000000 -0.000000
vn 0.000000 -1.000000 0.000000
vn 0.000000 -1.000000 0.000000
vn 0.000000 -1.000000 0.000000
vn 0.000000 -1.000000 0.000000
vn 0.000000 -1.000000 0.000000
vn 0.000000 -1.000000 0.000000
vn 0.000000 -1.000000 0.000000
vn 0.000000 -1.000000 0.000000
vn 0.000000 -1.000000 0.000000
vn 0.000000 -1.000000 0.000000
vn 0.000000 -1.000000 0.000000
vn 0.000000 -1.000000 0.000000
vn 0.000000 -1.000000 0.000000
vn 0.000000 -1.000000 0.000000
vn 0.000000 -1.000000 0.000000
vn 0.000000 -1.000000 0.000000
vn 0.000000 -1.000000 0.000000
vn 0.000000 -1.000000 0.000000
vn 0.000000 -1.000000 0.000000
vn 0.000000 -1.000000 0.000000
vn 0.000000 -1.000000 0.000000
vn 0.000000 -1.000000 0.000000
vn 0.000000 -1.000000 0.000000
vn 0.000000 -1.000000 0.000000
vn 0.000000 -1.000000 0.000000
vn -0.000000 -1.000000 0.000000
f 1//1 2//1 3//1
f 3//2 2//2 4//2
f 4//3 5//3 6//3
f 2//4 5//4 4//4
f 6//5 7//5 8//5
f 5//6 7//6 6//6
f 8//7 9//7 10//7
f 7//8 9//8 8//8
f 10//9 11//9 12//9
f 9//10 11//10 10//10
f 12//11 13//11 14//11
f 11//12 13//12 12//12
f 14//13 15//13 16//13
f 13//14 15//14 14//14
f 16//15 17//15 18//15
f 15//16 17//16 16//16
f 18//17 19//17 20//17
f 17//18 19//18 18//18
f 20//19 21//19 22//19
f 19//20 21//20 20//20
f 22//21 23//21 24//21
f 21//22 23//22 22//22
f 24//23 25//23 26//23
f 23//24 25//24 24//24
f 26//25 27//25 28//25
f 25//26 27//26 26//26
f 27//27 29//27 28//27
f 28//28 29//28 30//28
f 29//29 31//29 30//29
f 30//30 31//30 32//30
f 32//31 33//31 34//31
f 31//32 33//32 32//32
f 34//33 35//33 36//33
f 33//34 35//34 34//34
f 36//35 37//35 38//35
f 35//36 37//36 36//36
f 38//37 39//37 40//37
f 37//38 39//38 38//38
f 40//39 41//39 42//39
f 39//40 41//40 40//40
f 42//41 43//41 44//41
f 41//42 43//42 42//42
f 44//43 45//43 46//43
f 43//44 45//44 44//44
f 46//45 47//45 48//45
f 45//46 47//46 46//46
f 48//47 49//47 50//47
f 47//48 49//48 48//48
f 50//49 51//49 52//49
f 49//50 51//50 50//50
f 52//51 53//51 54//51
f 51//52 53//52 52//52
f 54//53 55//53 56//53
f 53//54 55//54 54//54
f 55//55 1//55 3//55
f 55//56 3//56 56//56
f 1//57 27//57 57//57
f 57//58 27//58 5//58
f 5//59 27//59 7//59
f 7//60 27//60 9//60
f 9//61 27//61 11//61
f 11//62 27//62 13//62
f 13//63 27//63 58//63
f 58//64 27//64 17//64
f 17//65 27//65 19//65
f 19//66 27//66 21//66
f 21//67 27//67 59//67
f 59//68 27//68 25//68
f 55//69 29//69 1//69
f 1//70 29//70 27//70
f 29//71 35//71 60//71
f 60//72 35//72 61//72
f 37//73 35//73 39//73
f 39//74 35//74 41//74
f 41//75 35//75 43//75
f 43//76 35//76 45//76
f 45//77 35//77 47//77
f 47//78 35//78 49//78
f 49//79 35//79 62//79
f 62//80 35//80 53//80
f 53//81 35//81 55//81
f 55//82 35//82 29//82
f 28//83 3//83 4//83
f 28//84 4//84 6//84
f 28//85 6//85 8//85
f 28//86 8//86 10//86
f 28//87 10//87 12//87
f 28//88 12//88 14//88
f 28//89 14//89 16//89
f 28//90 16//90 18//90
f 28//91 18//91 20//91
f 28//92 20//92 63//92
f 28//93 63//93 24//93
f 28//94 24//94 26//94
f 30//95 56//95 3//95
f 30//96 3//96 28//96
f 64//97 30//97 32//97
f 64//98 32//98 34//98
f 64//99 38//99 40//99
f 64//100 40//100 42//100
f 64//101 42//101 44//101
f 64//102 44//102 46//102
f 64//103 46//103 48//103
f 64//104 48//104 50//104
f 64//105 50//105 52//105
f 64//106 52//106 54//106
f 64//107 54//107 56//107
f 64//108 56//108 30//108
