# Created by FreeCAD <http://www.freecadweb.org>
v 0.000964 -0.002500 0.005000
v 0.002500 -0.002500 0.001658
v 0.002500 -0.002500 0.005000
v -0.002500 -0.002500 0.007000
v -0.002500 -0.002500 0.005000
v 0.002774 -0.002500 0.001142
v 0.002943 -0.002500 -0.000582
v 0.002943 -0.002500 0.000582
v 0.003000 -0.002500 -0.000000
v 0.002774 -0.002500 -0.001142
v -0.002500 -0.002500 0.001658
v -0.002817 -0.002500 0.001033
v -0.002979 -0.002500 0.000351
v -0.002500 -0.002500 -0.001658
v 0.002500 -0.002500 -0.001658
v -0.002817 -0.002500 -0.001033
v -0.002979 -0.002500 -0.000351
v 0.002500 -0.002500 -0.013342
v 0.002943 -0.002500 -0.014418
v 0.002774 -0.002500 -0.013858
v 0.002943 -0.002500 -0.015582
v 0.003000 -0.002500 -0.015000
v 0.002774 -0.002500 -0.016142
v 0.002500 -0.002500 -0.016658
v -0.002500 -0.002500 -0.013342
v -0.002817 -0.002500 -0.013967
v -0.002979 -0.002500 -0.014649
v -0.002817 -0.002500 -0.016033
v -0.002500 -0.002500 -0.016658
v -0.002979 -0.002500 -0.015351
v -0.002500 -0.002500 -0.020000
v 0.002500 -0.002500 -0.020000
v 0.000964 -0.007500 0.005000
v 0.002500 -0.007500 0.005000
v -0.002500 -0.007500 0.007000
v 0.002500 0.000000 0.001658
v 0.002500 0.000000 0.005000
v -0.002500 -0.007500 0.005000
v -0.002500 -0.010000 0.010000
v -0.002500 -0.010000 0.001658
v -0.002500 0.000000 0.010000
v -0.002500 -0.007500 0.001658
v -0.002500 0.000000 0.001658
v 0.002500 -0.000000 -0.001658
v 0.002817 -0.000000 -0.001033
v 0.002979 -0.000000 -0.000351
v 0.002979 0.000000 0.000351
v 0.002817 0.000000 0.001033
v -0.002817 0.000000 0.001033
v -0.002979 0.000000 0.000351
v -0.002979 -0.000000 -0.000351
v -0.002817 -0.000000 -0.001033
v -0.002500 -0.000000 -0.001658
v 0.002500 -0.000000 -0.013342
v -0.002500 -0.000000 -0.013342
v 0.002500 -0.000000 -0.016658
v 0.002817 -0.000000 -0.016033
v 0.002979 -0.000000 -0.015351
v 0.002979 -0.000000 -0.014649
v 0.002817 -0.000000 -0.013967
v -0.002817 -0.000000 -0.013967
v -0.002979 -0.000000 -0.014649
v -0.002979 -0.000000 -0.015351
v -0.002817 -0.000000 -0.016033
v -0.002500 -0.000000 -0.016658
v -0.002500 -0.000000 -0.020000
v 0.002500 -0.000000 -0.020000
v 0.002500 -0.007500 -0.016658
v 0.002943 -0.007500 -0.015582
v 0.002774 -0.007500 -0.016142
v 0.002943 -0.007500 -0.014418
v 0.003000 -0.007500 -0.015000
v 0.002500 -0.007500 -0.013342
v 0.002774 -0.007500 -0.013858
v -0.002500 -0.007500 -0.020000
v -0.002500 -0.007500 -0.016658
v 0.002500 -0.007500 -0.020000
v -0.002817 -0.007500 -0.016033
v -0.002979 -0.007500 -0.015351
v -0.002979 -0.007500 -0.014649
v -0.002500 -0.007500 -0.013342
v -0.002817 -0.007500 -0.013967
v 0.002500 -0.007500 -0.001658
v 0.002943 -0.007500 -0.000582
v 0.002774 -0.007500 -0.001142
v 0.002943 -0.007500 0.000582
v 0.003000 -0.007500 0.000000
v 0.002774 -0.007500 0.001142
v 0.002500 -0.007500 0.001658
v -0.002500 -0.007500 -0.001658
v -0.002817 -0.007500 -0.001033
v -0.002979 -0.007500 -0.000351
v -0.002979 -0.007500 0.000351
v -0.002817 -0.007500 0.001033
v 0.003000 -0.007500 0.005000
v 0.003000 -0.002500 0.005000
v -0.002500 0.000000 0.001658
v 0.002500 0.000000 0.001658
v 0.002500 -0.000000 -0.001658
v 0.002979 -0.000000 -0.000351
v 0.002979 0.000000 0.000351
v -0.002979 0.000000 0.000351
v -0.002979 -0.000000 -0.000351
v -0.002817 -0.000000 -0.001033
v -0.002500 -0.000000 -0.001658
v 0.002500 -0.000000 -0.013342
v -0.002500 -0.000000 -0.013342
v -0.002817 -0.000000 -0.013967
v -0.002979 -0.000000 -0.014649
v -0.002979 -0.000000 -0.015351
v 0.002979 -0.000000 -0.015351
v 0.002979 -0.000000 -0.014649
v 0.002817 -0.000000 -0.013967
v 0.037500 0.000000 0.010000
v 0.037500 0.000000 0.005000
v 0.002500 -0.010000 0.005000
v 0.037500 -0.010000 0.005000
v 0.037500 0.000000 0.010000
v -0.002500 0.000000 0.010000
v 0.037500 -0.010000 0.010000
v -0.002817 -0.010000 0.001033
v -0.002979 -0.010000 0.000351
v -0.002979 -0.010000 -0.000351
v -0.002817 -0.010000 -0.001033
v -0.002500 -0.010000 -0.001658
v -0.002500 -0.010000 0.001658
v 0.002500 -0.010000 0.001658
v 0.002500 -0.010000 -0.001658
v 0.002817 -0.010000 -0.001033
v 0.002979 -0.010000 -0.000351
v 0.002979 -0.010000 0.000351
v 0.002817 -0.010000 0.001033
v -0.002817 -0.010000 0.001033
v -0.002979 -0.010000 0.000351
v -0.002979 -0.010000 -0.000351
v -0.002500 -0.010000 -0.001658
v 0.002500 -0.010000 -0.013342
v -0.002500 -0.010000 -0.013342
v 0.002500 -0.010000 -0.016658
v -0.002817 -0.010000 -0.013967
v -0.002979 -0.010000 -0.014649
v -0.002979 -0.010000 -0.015351
v -0.002817 -0.010000 -0.016033
v -0.002500 -0.010000 -0.016658
v 0.002817 -0.010000 -0.016033
v 0.002979 -0.010000 -0.015351
v 0.002979 -0.010000 -0.014649
v 0.002817 -0.010000 -0.013967
v 0.002500 -0.010000 -0.020000
v -0.002500 -0.010000 -0.020000
v 0.002500 -0.010000 -0.001658
v 0.002979 -0.010000 -0.000351
v 0.002979 -0.010000 0.000351
v 0.002817 -0.010000 0.001033
v 0.002500 -0.010000 -0.013342
v 0.002500 -0.010000 -0.016658
v 0.002817 -0.010000 -0.016033
v 0.002979 -0.010000 -0.015351
v 0.002979 -0.010000 -0.014649
v -0.002979 -0.010000 -0.014649
v -0.002979 -0.010000 -0.015351
v 0.037500 0.000000 0.005000
vn 0.000000 -1.000000 0.000000
vn 0.000000 -1.000000 0.000000
vn 0.000000 -1.000000 0.000000
vn 0.000000 -1.000000 -0.000000
vn 0.000000 -1.000000 -0.000000
vn -0.000000 -1.000000 -0.000000
vn 0.000000 -1.000000 -0.000000
vn 0.000000 -1.000000 0.000000
vn 0.000000 -1.000000 -0.000000
vn 0.000000 -1.000000 0.000000
vn 0.000000 -1.000000 0.000000
vn 0.000000 -1.000000 0.000000
vn 0.000000 -1.000000 0.000000
vn 0.000000 -1.000000 0.000000
vn 0.000000 -1.000000 0.000000
vn 0.000000 -1.000000 0.000000
vn 0.000000 -1.000000 -0.000000
vn 0.000000 -1.000000 0.000000
vn 0.000000 -1.000000 0.000000
vn 0.000000 -1.000000 0.000000
vn 0.000000 -1.000000 -0.000000
vn 0.000000 -1.000000 0.000000
vn 0.000000 -1.000000 -0.000000
vn 0.000000 -1.000000 0.000000
vn 0.000000 -1.000000 0.000000
vn 0.000000 -1.000000 0.000000
vn 0.000000 -1.000000 -0.000000
vn 0.000000 -1.000000 0.000000
vn 0.000000 -1.000000 -0.000000
vn 0.000000 -1.000000 0.000000
vn 0.000000 0.000000 -1.000000
vn 0.000000 0.000000 -1.000000
vn -0.500000 0.000000 -0.866025
vn -0.500000 -0.000000 -0.866025
vn 1.000000 0.000000 -0.000000
vn 1.000000 0.000000 0.000000
vn -1.000000 -0.000000 -0.000000
vn -1.000000 -0.000000 0.000000
vn -1.000000 -0.000000 0.000000
vn -1.000000 0.000000 0.000000
vn -1.000000 0.000000 -0.000000
vn -1.000000 0.000000 0.000000
vn -1.000000 0.000000 0.000000
vn -1.000000 0.000000 0.000000
vn 0.883239 0.000000 -0.468923
vn 0.957420 -0.003655 -0.288674
vn 0.892215 0.004566 -0.451587
vn 0.995224 -0.005484 -0.097459
vn 0.972657 0.007308 -0.232131
vn 0.995225 -0.005484 0.097457
vn 0.999966 0.008223 -0.000000
vn 0.957421 -0.003655 0.288673
vn 0.972657 0.007308 0.232131
vn 0.883239 0.000000 0.468923
vn 0.892215 0.004566 0.451587
vn -0.892225 0.000000 0.451592
vn -0.892225 0.000000 0.451592
vn -0.972683 0.000000 0.232137
vn -0.972683 0.000000 0.232137
vn -1.000000 0.000000 0.000000
vn -1.000000 -0.000000 0.000000
vn -0.972683 0.000000 -0.232137
vn -0.972683 -0.000000 -0.232137
vn -0.892225 0.000000 -0.451592
vn -0.892225 -0.000000 -0.451592
vn 1.000000 0.000000 -0.000000
vn 1.000000 0.000000 0.000000
vn -1.000000 -0.000000 0.000000
vn -1.000000 0.000000 0.000000
vn 0.883239 0.000000 -0.468923
vn 0.957420 -0.003655 -0.288674
vn 0.892215 0.004566 -0.451587
vn 0.995224 -0.005484 -0.097459
vn 0.972657 0.007309 -0.232131
vn 0.995225 -0.005484 0.097457
vn 0.999966 0.008223 -0.000000
vn 0.957421 -0.003655 0.288673
vn 0.972657 0.007308 0.232131
vn 0.883239 0.000000 0.468923
vn 0.892215 0.004566 0.451587
vn -0.892225 0.000000 0.451592
vn -0.892225 0.000000 0.451592
vn -0.972683 0.000000 0.232137
vn -0.972683 0.000000 0.232137
vn -1.000000 0.000000 0.000000
vn -1.000000 -0.000000 0.000000
vn -0.972683 0.000000 -0.232137
vn -0.972683 -0.000000 -0.232137
vn -0.892224 0.000000 -0.451592
vn -0.892224 -0.000000 -0.451592
vn -1.000000 -0.000000 0.000000
vn -1.000000 0.000000 0.000000
vn 1.000000 0.000000 -0.000000
vn 1.000000 0.000000 0.000000
vn 0.000000 0.000000 -1.000000
vn 0.000000 0.000000 -1.000000
vn 0.000000 1.000000 0.000000
vn 0.000000 1.000000 -0.000000
vn 0.000000 1.000000 0.000000
vn 0.000000 1.000000 0.000000
vn 0.000000 1.000000 0.000000
vn 0.000000 1.000000 -0.000000
vn 0.000000 1.000000 -0.000000
vn -0.000000 1.000000 -0.000000
vn -0.000000 1.000000 0.000000
vn -0.000000 1.000000 0.000000
vn 0.000000 1.000000 0.000000
vn 0.000000 1.000000 0.000000
vn -0.000000 1.000000 0.000000
vn 0.000000 1.000000 0.000000
vn 0.000000 1.000000 -0.000000
vn 0.000000 1.000000 0.000000
vn 0.000000 1.000000 0.000000
vn 0.000000 1.000000 0.000000
vn 0.000000 1.000000 -0.000000
vn 0.000000 1.000000 0.000000
vn -0.000000 1.000000 -0.000000
vn 0.000000 1.000000 -0.000000
vn -0.000000 1.000000 0.000000
vn -0.000000 1.000000 0.000000
vn 0.000000 1.000000 0.000000
vn 0.000000 1.000000 -0.000000
vn -0.000000 1.000000 0.000000
vn 0.000000 1.000000 0.000000
vn 0.000000 1.000000 0.000000
vn 0.000000 1.000000 0.000000
vn 0.000000 0.000000 -1.000000
vn 0.000000 0.000000 -1.000000
vn 0.000000 1.000000 -0.000000
vn 0.000000 1.000000 -0.000000
vn -0.000000 1.000000 -0.000000
vn 0.000000 1.000000 -0.000000
vn -0.000000 1.000000 -0.000000
vn 0.000000 1.000000 -0.000000
vn -0.000000 1.000000 -0.000000
vn 0.000000 1.000000 -0.000000
vn 0.000000 1.000000 -0.000000
vn 0.000000 1.000000 -0.000000
vn 0.000000 1.000000 -0.000000
vn 0.000000 1.000000 -0.000000
vn 0.000000 1.000000 -0.000000
vn 0.000000 1.000000 -0.000000
vn -0.000000 1.000000 -0.000000
vn 0.000000 1.000000 -0.000000
vn -0.000000 1.000000 -0.000000
vn 0.000000 1.000000 -0.000000
vn 0.000000 1.000000 -0.000000
vn -0.000000 1.000000 -0.000000
vn 0.000000 1.000000 -0.000000
vn -0.000000 1.000000 -0.000000
vn 0.000000 1.000000 -0.000000
vn 0.000000 1.000000 -0.000000
vn 0.000000 1.000000 -0.000000
vn 0.000000 1.000000 -0.000000
vn 0.000000 1.000000 -0.000000
vn 0.000000 1.000000 -0.000000
vn 0.000000 0.000000 -1.000000
vn 0.000000 0.000000 -1.000000
vn 0.000000 0.000000 -1.000000
vn 0.000000 -0.000000 -1.000000
vn 0.000000 0.000000 -1.000000
vn 0.000000 0.000000 -1.000000
vn 0.000000 0.000000 1.000000
vn 0.000000 0.000000 1.000000
vn -0.892225 0.000000 0.451592
vn -0.892225 0.000000 0.451592
vn -0.972683 0.000000 0.232137
vn -0.972683 0.000000 0.232137
vn -1.000000 0.000000 0.000000
vn -1.000000 -0.000000 -0.000000
vn -0.972683 0.000000 -0.232137
vn -0.972683 -0.000000 -0.232137
vn -0.892225 0.000000 -0.451592
vn -0.892225 -0.000000 -0.451592
vn -0.000000 -1.000000 0.000000
vn 0.000000 -1.000000 0.000000
vn 0.000000 -1.000000 0.000000
vn 0.000000 -1.000000 0.000000
vn 0.000000 -1.000000 0.000000
vn 0.000000 -1.000000 0.000000
vn 0.000000 -1.000000 0.000000
vn 0.000000 -1.000000 0.000000
vn 0.000000 -1.000000 0.000000
vn 0.000000 -1.000000 0.000000
vn 0.000000 -1.000000 0.000000
vn 0.000000 -1.000000 0.000000
vn 0.000000 -1.000000 0.000000
vn 0.000000 -1.000000 0.000000
vn 0.000000 -1.000000 0.000000
vn 0.000000 -1.000000 0.000000
vn 0.000000 -1.000000 0.000000
vn 0.000000 -1.000000 0.000000
vn 0.000000 -1.000000 0.000000
vn 0.000000 -1.000000 0.000000
vn 0.000000 -1.000000 0.000000
vn 0.000000 -1.000000 0.000000
vn 0.000000 -1.000000 0.000000
vn 0.000000 -1.000000 0.000000
vn 0.000000 -1.000000 0.000000
vn 0.000000 -1.000000 0.000000
vn -0.000000 -1.000000 0.000000
vn 0.000000 -1.000000 0.000000
vn 1.000000 0.000000 -0.000000
vn 1.000000 0.000000 0.000000
vn 0.883239 0.000000 -0.468923
vn 0.892215 -0.004566 -0.451587
vn 0.972657 -0.007308 -0.232131
vn 0.957421 0.003655 -0.288673
vn 0.999966 -0.008223 0.000000
vn 0.995225 0.005484 -0.097457
vn 0.972657 -0.007308 0.232131
vn 0.995224 0.005484 0.097459
vn 0.892215 -0.004566 0.451587
vn 0.957420 0.003655 0.288674
vn 0.883239 0.000000 0.468923
vn 1.000000 0.000000 -0.000000
vn 1.000000 0.000000 0.000000
vn -1.000000 -0.000000 -0.000000
vn -1.000000 0.000000 0.000000
vn 0.883239 0.000000 -0.468923
vn 0.892215 -0.004566 -0.451587
vn 0.972657 -0.007308 -0.232131
vn 0.957421 0.003655 -0.288673
vn 0.999966 -0.008223 0.000000
vn 0.995225 0.005484 -0.097457
vn 0.972657 -0.007309 0.232131
vn 0.995224 0.005484 0.097459
vn 0.892215 -0.004566 0.451587
vn 0.957420 0.003655 0.288674
vn 0.883239 0.000000 0.468923
vn -0.892225 0.000000 0.451592
vn -0.892225 0.000000 0.451592
vn -0.972683 0.000000 0.232137
vn -0.972683 0.000000 0.232137
vn -1.000000 0.000000 0.000000
vn -1.000000 -0.000000 -0.000000
vn -0.972683 0.000000 -0.232137
vn -0.972683 -0.000000 -0.232137
vn -0.892224 0.000000 -0.451592
vn -0.892224 -0.000000 -0.451592
vn -1.000000 -0.000000 -0.000000
vn -1.000000 0.000000 0.000000
vn 1.000000 0.000000 -0.000000
vn 1.000000 0.000000 0.000000
vn 0.000000 0.000000 -1.000000
vn 0.000000 0.000000 -1.000000
vn 1.000000 0.000000 -0.000000
vn 1.000000 0.000000 0.000000
f 1//1 2//1 3//1
f 4//2 5//2 1//2
f 6//3 7//3 8//3
f 8//4 7//4 9//4
f 6//5 10//5 7//5
f 2//6 11//6 6//6
f 1//7 11//7 2//7
f 5//8 11//8 1//8
f 12//9 13//9 11//9
f 10//10 14//10 15//10
f 16//11 14//11 17//11
f 17//12 14//12 13//12
f 6//13 14//13 10//13
f 11//14 14//14 6//14
f 13//15 14//15 11//15
f 18//16 19//16 20//16
f 19//17 21//17 22//17
f 19//18 23//18 21//18
f 18//19 24//19 19//19
f 19//20 24//20 23//20
f 15//21 25//21 18//21
f 14//22 25//22 15//22
f 26//23 27//23 25//23
f 28//24 29//24 30//24
f 30//25 29//25 27//25
f 25//26 29//26 18//26
f 18//27 29//27 24//27
f 27//28 29//28 25//28
f 24//29 31//29 32//29
f 29//30 31//30 24//30
f 33//31 1//31 34//31
f 34//32 1//32 3//32
f 1//33 35//33 4//33
f 1//34 33//34 35//34
f 36//35 37//35 2//35
f 2//36 37//36 3//36
f 35//37 38//37 39//37
f 38//38 40//38 39//38
f 41//39 4//39 39//39
f 39//40 4//40 35//40
f 38//41 42//41 40//41
f 41//42 5//42 4//42
f 5//43 43//43 11//43
f 41//44 43//44 5//44
f 15//45 44//45 10//45
f 10//46 45//46 7//46
f 44//47 45//47 10//47
f 7//48 46//48 9//48
f 45//49 46//49 7//49
f 9//50 47//50 8//50
f 46//51 47//51 9//51
f 8//52 48//52 6//52
f 47//53 48//53 8//53
f 6//54 36//54 2//54
f 48//55 36//55 6//55
f 43//56 49//56 11//56
f 11//57 49//57 12//57
f 12//58 50//58 13//58
f 49//59 50//59 12//59
f 13//60 51//60 17//60
f 50//61 51//61 13//61
f 17//62 52//62 16//62
f 51//63 52//63 17//63
f 16//64 53//64 14//64
f 52//65 53//65 16//65
f 54//66 44//66 18//66
f 18//67 44//67 15//67
f 53//68 55//68 14//68
f 14//69 55//69 25//69
f 24//70 56//70 23//70
f 23//71 57//71 21//71
f 56//72 57//72 23//72
f 21//73 58//73 22//73
f 57//74 58//74 21//74
f 22//75 59//75 19//75
f 58//76 59//76 22//76
f 19//77 60//77 20//77
f 59//78 60//78 19//78
f 20//79 54//79 18//79
f 60//80 54//80 20//80
f 55//81 61//81 25//81
f 25//82 61//82 26//82
f 26//83 62//83 27//83
f 61//84 62//84 26//84
f 27//85 63//85 30//85
f 62//86 63//86 27//86
f 30//87 64//87 28//87
f 63//88 64//88 30//88
f 28//89 65//89 29//89
f 64//90 65//90 28//90
f 65//91 66//91 29//91
f 29//92 66//92 31//92
f 67//93 56//93 32//93
f 32//94 56//94 24//94
f 66//95 32//95 31//95
f 66//96 67//96 32//96
f 68//97 69//97 70//97
f 69//98 71//98 72//98
f 68//99 71//99 69//99
f 71//100 73//100 74//100
f 75//101 76//101 77//101
f 77//102 76//102 68//102
f 68//103 76//103 71//103
f 78//104 79//104 76//104
f 80//105 81//105 79//105
f 82//106 81//106 80//106
f 71//107 81//107 73//107
f 76//108 81//108 71//108
f 79//109 81//109 76//109
f 83//110 84//110 85//110
f 84//111 86//111 87//111
f 84//112 88//112 86//112
f 83//113 89//113 84//113
f 84//114 89//114 88//114
f 73//115 90//115 83//115
f 81//116 90//116 73//116
f 91//117 92//117 90//117
f 89//118 33//118 34//118
f 93//119 42//119 92//119
f 94//120 42//120 93//120
f 90//121 42//121 83//121
f 83//122 42//122 89//122
f 92//123 42//123 90//123
f 89//124 42//124 33//124
f 42//125 38//125 33//125
f 38//126 35//126 33//126
f 34//127 3//127 95//127
f 3//128 96//128 95//128
f 41//129 37//129 97//129
f 37//130 98//130 97//130
f 45//131 99//131 100//131
f 100//132 99//132 101//132
f 101//133 99//133 48//133
f 48//134 99//134 98//134
f 97//135 99//135 49//135
f 49//136 99//136 102//136
f 102//137 99//137 103//137
f 103//138 99//138 104//138
f 104//139 99//139 105//139
f 98//140 99//140 97//140
f 105//141 106//141 107//141
f 99//142 106//142 105//142
f 107//143 56//143 108//143
f 108//144 56//144 109//144
f 109//145 56//145 110//145
f 110//146 56//146 64//146
f 64//147 56//147 65//147
f 57//148 56//148 111//148
f 111//149 56//149 112//149
f 112//150 56//150 113//150
f 113//151 56//151 106//151
f 106//152 56//152 107//152
f 65//153 67//153 66//153
f 56//154 67//154 65//154
f 41//155 114//155 37//155
f 114//156 115//156 37//156
f 34//157 95//157 116//157
f 3//158 37//158 96//158
f 96//159 117//159 95//159
f 95//160 117//160 116//160
f 37//161 115//161 96//161
f 96//162 115//162 117//162
f 118//163 119//163 120//163
f 120//164 119//164 39//164
f 42//165 94//165 40//165
f 40//166 94//166 121//166
f 121//167 93//167 122//167
f 94//168 93//168 121//168
f 122//169 92//169 123//169
f 93//170 92//170 122//170
f 123//171 91//171 124//171
f 92//172 91//172 123//172
f 124//173 90//173 125//173
f 91//174 90//174 124//174
f 116//175 39//175 126//175
f 127//176 116//176 126//176
f 128//177 129//177 130//177
f 128//178 130//178 131//178
f 128//179 131//179 132//179
f 128//180 132//180 127//180
f 128//181 126//181 133//181
f 128//182 133//182 134//182
f 128//183 134//183 135//183
f 128//184 135//184 124//184
f 128//185 124//185 136//185
f 128//186 127//186 126//186
f 137//187 136//187 138//187
f 137//188 128//188 136//188
f 139//189 138//189 140//189
f 139//190 140//190 141//190
f 139//191 141//191 142//191
f 139//192 142//192 143//192
f 139//193 143//193 144//193
f 139//194 145//194 146//194
f 139//195 146//195 147//195
f 139//196 147//196 148//196
f 139//197 148//197 137//197
f 139//198 137//198 138//198
f 149//199 144//199 150//199
f 149//200 139//200 144//200
f 120//201 39//201 116//201
f 117//202 120//202 116//202
f 89//203 34//203 127//203
f 127//204 34//204 116//204
f 83//205 85//205 151//205
f 151//206 85//206 129//206
f 129//207 84//207 152//207
f 85//208 84//208 129//208
f 152//209 87//209 153//209
f 84//210 87//210 152//210
f 153//211 86//211 154//211
f 87//212 86//212 153//212
f 154//213 88//213 127//213
f 86//214 88//214 154//214
f 88//215 89//215 127//215
f 73//216 83//216 155//216
f 155//217 83//217 151//217
f 90//218 81//218 125//218
f 125//219 81//219 138//219
f 68//220 70//220 156//220
f 156//221 70//221 157//221
f 157//222 69//222 158//222
f 70//223 69//223 157//223
f 158//224 72//224 159//224
f 69//225 72//225 158//225
f 159//226 71//226 148//226
f 72//227 71//227 159//227
f 148//228 74//228 155//228
f 71//229 74//229 148//229
f 74//230 73//230 155//230
f 81//231 82//231 138//231
f 138//232 82//232 140//232
f 140//233 80//233 160//233
f 82//234 80//234 140//234
f 160//235 79//235 161//235
f 80//236 79//236 160//236
f 161//237 78//237 143//237
f 79//238 78//238 161//238
f 143//239 76//239 144//239
f 78//240 76//240 143//240
f 76//241 75//241 144//241
f 144//242 75//242 150//242
f 77//243 68//243 149//243
f 149//244 68//244 156//244
f 75//245 77//245 150//245
f 150//246 77//246 149//246
f 162//247 118//247 117//247
f 117//248 118//248 120//248
