# Created by FreeCAD <http://www.freecadweb.org>
v -0.040000 -0.000000 -0.005000
v -0.035000 -0.000000 -0.010000
v -0.036113 -0.000000 -0.009875
v -0.037169 -0.000000 -0.009505
v -0.038117 -0.000000 -0.008909
v -0.038909 -0.000000 -0.008117
v -0.039505 -0.000000 -0.007169
v -0.039875 -0.000000 -0.006113
v -0.035000 0.000000 0.010000
v -0.040000 0.000000 0.005000
v -0.037169 0.000000 0.009505
v -0.036113 0.000000 0.009875
v -0.038117 0.000000 0.008909
v -0.038909 0.000000 0.008117
v -0.039505 0.000000 0.007169
v -0.039875 0.000000 0.006113
v -0.020000 0.000000 0.010000
v -0.002272 0.000000 0.021708
v -0.010000 0.000000 0.020000
v -0.002994 0.000000 0.022348
v -0.003542 0.000000 0.023141
v -0.001418 0.000000 0.021260
v -0.003884 0.000000 0.024043
v -0.010000 0.000000 0.025000
v -0.000482 0.000000 0.021029
v -0.004000 0.000000 0.025000
v -0.003884 0.000000 0.025957
v -0.009709 0.000000 0.027393
v -0.003542 0.000000 0.026859
v -0.008855 0.000000 0.029647
v -0.002994 0.000000 0.027652
v -0.007485 0.000000 0.031631
v -0.005681 0.000000 0.033230
v -0.002272 0.000000 0.028292
v 0.010000 0.000000 0.020000
v 0.000482 0.000000 0.021029
v 0.001418 0.000000 0.021260
v 0.002272 0.000000 0.021708
v 0.002994 0.000000 0.022348
v 0.003542 0.000000 0.023141
v 0.003884 0.000000 0.024043
v 0.020000 0.000000 0.010000
v 0.035000 -0.000000 -0.010000
v 0.038909 -0.000000 -0.008117
v 0.038117 -0.000000 -0.008909
v 0.037169 -0.000000 -0.009505
v -0.003546 0.000000 0.034350
v -0.001418 0.000000 0.028740
v -0.001205 0.000000 0.034927
v -0.000482 0.000000 0.028971
v 0.010000 0.000000 0.025000
v 0.004000 0.000000 0.025000
v 0.040000 -0.000000 -0.005000
v 0.039875 -0.000000 -0.006113
v 0.039505 -0.000000 -0.007169
v 0.036113 -0.000000 -0.009875
v 0.001205 0.000000 0.034927
v 0.000482 0.000000 0.028971
v 0.009709 0.000000 0.027393
v 0.003884 0.000000 0.025957
v 0.003546 0.000000 0.034350
v 0.001418 0.000000 0.028740
v 0.008855 0.000000 0.029647
v 0.003542 0.000000 0.026859
v 0.005681 0.000000 0.033230
v 0.002272 0.000000 0.028292
v 0.007485 0.000000 0.031631
v 0.002994 0.000000 0.027652
v 0.035000 0.000000 0.010000
v 0.040000 0.000000 0.005000
v 0.038909 0.000000 0.008117
v 0.036113 0.000000 0.009875
v 0.037169 0.000000 0.009505
v 0.038117 0.000000 0.008909
v 0.039505 0.000000 0.007169
v 0.039875 0.000000 0.006113
v 0.020000 -0.002000 0.010000
v 0.035000 -0.002000 0.010000
v 0.036113 -0.002000 0.009875
v 0.037169 -0.002000 0.009505
v 0.038117 -0.002000 0.008909
v 0.038909 -0.002000 0.008117
v 0.039505 -0.002000 0.007169
v 0.039875 -0.002000 0.006113
v 0.040000 -0.002000 0.005000
v 0.010000 -0.002000 0.020000
v 0.040000 -0.002000 -0.005000
v 0.010000 -0.002000 0.025000
v 0.039875 -0.002000 -0.006113
v 0.039505 -0.002000 -0.007169
v 0.038909 -0.002000 -0.008117
v 0.038117 -0.002000 -0.008909
v 0.037169 -0.002000 -0.009505
v 0.036113 -0.002000 -0.009875
v 0.035000 -0.002000 -0.010000
v 0.009709 -0.002000 0.027393
v 0.008855 -0.002000 0.029647
v 0.007485 -0.002000 0.031631
v 0.005681 -0.002000 0.033230
v 0.003546 0.000000 0.034350
v 0.003546 -0.002000 0.034350
v 0.001205 -0.002000 0.034927
v -0.001205 -0.002000 0.034927
v -0.003546 0.000000 0.034350
v -0.003546 -0.002000 0.034350
v -0.005681 -0.002000 0.033230
v -0.007485 -0.002000 0.031631
v -0.008855 -0.002000 0.029647
v -0.009709 -0.002000 0.027393
v -0.010000 -0.002000 0.025000
v -0.035000 -0.002000 -0.010000
v -0.010000 -0.002000 0.020000
v -0.036113 -0.002000 -0.009875
v -0.037169 -0.002000 -0.009505
v -0.038117 -0.002000 -0.008909
v -0.038909 -0.002000 -0.008117
v -0.038909 -0.000000 -0.008117
v -0.039505 -0.002000 -0.007169
v -0.039875 -0.002000 -0.006113
v -0.040000 -0.002000 -0.005000
v -0.020000 -0.002000 0.010000
v -0.040000 -0.002000 0.005000
v -0.035000 -0.002000 0.010000
v -0.036113 -0.002000 0.009875
v -0.037169 -0.002000 0.009505
v -0.038117 -0.002000 0.008909
v -0.038909 -0.002000 0.008117
v -0.039505 -0.002000 0.007169
v -0.039875 -0.002000 0.006113
v 0.004000 -0.002000 0.025000
v 0.003884 -0.002000 0.025957
v 0.003542 -0.002000 0.026859
v 0.002994 -0.002000 0.027652
v 0.002272 -0.002000 0.028292
v 0.001418 -0.002000 0.028740
v 0.000482 -0.002000 0.028971
v -0.000482 -0.002000 0.028971
v -0.001418 -0.002000 0.028740
v -0.002272 -0.002000 0.028292
v -0.002994 -0.002000 0.027652
v -0.003542 -0.002000 0.026859
v -0.003884 -0.002000 0.025957
v -0.004000 -0.002000 0.025000
v -0.003884 -0.002000 0.024043
v -0.003542 -0.002000 0.023141
v -0.002994 -0.002000 0.022348
v -0.002272 -0.002000 0.021708
v -0.001418 -0.002000 0.021260
v -0.000482 -0.002000 0.021029
v 0.000482 -0.002000 0.021029
v 0.001418 -0.002000 0.021260
v 0.002272 -0.002000 0.021708
v 0.002994 -0.002000 0.022348
v 0.003542 -0.002000 0.023141
v 0.003884 -0.002000 0.024043
v -0.039505 -0.002000 -0.007169
v -0.039875 -0.002000 -0.006113
v -0.040000 -0.002000 0.005000
v -0.038117 -0.002000 0.008909
v -0.038909 -0.002000 0.008117
v 0.040000 -0.002000 0.005000
v 0.038909 -0.002000 0.008117
v 0.038117 -0.002000 0.008909
vn -0.000000 1.000000 -0.000000
vn 0.000000 1.000000 -0.000000
vn 0.000000 1.000000 -0.000000
vn 0.000000 1.000000 -0.000000
vn -0.000000 1.000000 -0.000000
vn 0.000000 1.000000 -0.000000
vn -0.000000 1.000000 -0.000000
vn 0.000000 1.000000 -0.000000
vn -0.000000 1.000000 -0.000000
vn -0.000000 1.000000 -0.000000
vn -0.000000 1.000000 -0.000000
vn 0.000000 1.000000 -0.000000
vn -0.000000 1.000000 -0.000000
vn 0.000000 1.000000 -0.000000
vn 0.000000 1.000000 -0.000000
vn 0.000000 1.000000 -0.000000
vn 0.000000 1.000000 -0.000000
vn -0.000000 1.000000 -0.000000
vn -0.000000 1.000000 -0.000000
vn -0.000000 1.000000 -0.000000
vn 0.000000 1.000000 -0.000000
vn 0.000000 1.000000 -0.000000
vn 0.000000 1.000000 -0.000000
vn 0.000000 1.000000 -0.000000
vn 0.000000 1.000000 -0.000000
vn -0.000000 1.000000 -0.000000
vn -0.000000 1.000000 -0.000000
vn 0.000000 1.000000 -0.000000
vn 0.000000 1.000000 -0.000000
vn 0.000000 1.000000 -0.000000
vn -0.000000 1.000000 -0.000000
vn -0.000000 1.000000 -0.000000
vn 0.000000 1.000000 -0.000000
vn 0.000000 1.000000 -0.000000
vn -0.000000 1.000000 -0.000000
vn 0.000000 1.000000 -0.000000
vn 0.000000 1.000000 -0.000000
vn 0.000000 1.000000 -0.000000
vn 0.000000 1.000000 -0.000000
vn 0.000000 1.000000 -0.000000
vn -0.000000 1.000000 -0.000000
vn 0.000000 1.000000 -0.000000
vn 0.000000 1.000000 -0.000000
vn 0.000000 1.000000 -0.000000
vn -0.000000 1.000000 -0.000000
vn 0.000000 1.000000 -0.000000
vn 0.000000 1.000000 -0.000000
vn 0.000000 1.000000 -0.000000
vn -0.000000 1.000000 -0.000000
vn -0.000000 1.000000 -0.000000
vn 0.000000 1.000000 -0.000000
vn -0.000000 1.000000 -0.000000
vn 0.000000 1.000000 -0.000000
vn 0.000000 1.000000 -0.000000
vn 0.000000 1.000000 -0.000000
vn 0.000000 1.000000 -0.000000
vn -0.000000 1.000000 -0.000000
vn 0.000000 1.000000 -0.000000
vn -0.000000 1.000000 -0.000000
vn -0.000000 1.000000 -0.000000
vn 0.000000 1.000000 -0.000000
vn -0.000000 1.000000 -0.000000
vn 0.000000 1.000000 -0.000000
vn 0.000000 1.000000 -0.000000
vn -0.000000 1.000000 -0.000000
vn -0.000000 1.000000 -0.000000
vn 0.000000 1.000000 -0.000000
vn -0.000000 1.000000 -0.000000
vn 0.000000 1.000000 -0.000000
vn 0.000000 1.000000 -0.000000
vn -0.000000 1.000000 -0.000000
vn 0.000000 1.000000 -0.000000
vn 0.000000 1.000000 -0.000000
vn -0.000000 1.000000 -0.000000
vn 0.000000 1.000000 -0.000000
vn 0.000000 1.000000 -0.000000
vn 0.000000 0.000000 1.000000
vn 0.000000 0.000000 1.000000
vn 0.111965 0.000000 0.993712
vn 0.111965 -0.000000 0.993712
vn 0.330279 0.000000 0.943883
vn 0.330279 -0.000000 0.943883
vn 0.532032 0.000000 0.846724
vn 0.532032 -0.000000 0.846724
vn 0.707108 0.000000 0.707106
vn 0.707108 -0.000000 0.707106
vn 0.846724 0.000000 0.532033
vn 0.846724 -0.000000 0.532033
vn 0.943883 0.000000 0.330279
vn 0.943883 -0.000000 0.330279
vn 0.993712 0.000000 0.111964
vn 0.993712 -0.000000 0.111964
vn 0.707107 -0.000000 0.707107
vn 0.707107 0.000000 0.707107
vn 1.000000 0.000000 -0.000000
vn 1.000000 0.000000 0.000000
vn 1.000000 0.000000 -0.000000
vn 1.000000 0.000000 0.000000
vn 0.993712 0.000000 -0.111964
vn 0.993712 0.000000 -0.111964
vn 0.943883 0.000000 -0.330279
vn 0.943883 0.000000 -0.330279
vn 0.846724 0.000000 -0.532033
vn 0.846724 0.000000 -0.532033
vn 0.707108 0.000000 -0.707106
vn 0.707108 0.000000 -0.707106
vn 0.532032 0.000000 -0.846724
vn 0.532032 0.000000 -0.846724
vn 0.330279 0.000000 -0.943883
vn 0.330279 0.000000 -0.943883
vn 0.111965 0.000000 -0.993712
vn 0.111965 0.000000 -0.993712
vn 0.992709 0.000000 0.120537
vn 0.992709 0.000000 0.120537
vn 0.935016 0.000000 0.354605
vn 0.935016 0.000000 0.354605
vn 0.822984 0.000000 0.568065
vn 0.822984 0.000000 0.568065
vn 0.663123 0.000000 0.748511
vn 0.663123 0.000000 0.748511
vn 0.464724 0.000000 0.885456
vn 0.464724 0.000000 0.885456
vn 0.239315 0.000000 0.970942
vn 0.239315 0.000000 0.970942
vn 0.000000 0.000000 1.000000
vn 0.000000 0.000000 1.000000
vn -0.239315 0.000000 0.970942
vn -0.239315 0.000000 0.970942
vn -0.464724 0.000000 0.885456
vn -0.464724 0.000000 0.885456
vn -0.663123 0.000000 0.748511
vn -0.663123 0.000000 0.748511
vn -0.822984 0.000000 0.568065
vn -0.822984 0.000000 0.568065
vn -0.935016 0.000000 0.354605
vn -0.935016 0.000000 0.354605
vn -0.992709 0.000000 0.120537
vn -0.992709 0.000000 0.120537
vn 0.000000 0.000000 -1.000000
vn 0.000000 0.000000 -1.000000
vn -1.000000 0.000000 0.000000
vn -1.000000 -0.000000 0.000000
vn -0.111965 0.000000 -0.993712
vn -0.111965 0.000000 -0.993712
vn -0.330279 0.000000 -0.943883
vn -0.330279 0.000000 -0.943883
vn -0.532032 0.000000 -0.846724
vn -0.532032 0.000000 -0.846724
vn -0.707108 0.000000 -0.707106
vn -0.707108 0.000000 -0.707106
vn -0.846724 0.000000 -0.532033
vn -0.846724 0.000000 -0.532033
vn -0.943883 0.000000 -0.330279
vn -0.943883 0.000000 -0.330279
vn -0.993712 0.000000 -0.111964
vn -0.993712 0.000000 -0.111964
vn -0.707107 0.000000 0.707107
vn -0.707107 0.000000 0.707107
vn -1.000000 0.000000 0.000000
vn -1.000000 -0.000000 0.000000
vn 0.000000 0.000000 1.000000
vn 0.000000 0.000000 1.000000
vn -0.111965 0.000000 0.993712
vn -0.111965 0.000000 0.993712
vn -0.330279 0.000000 0.943883
vn -0.330279 0.000000 0.943883
vn -0.532032 0.000000 0.846724
vn -0.532032 0.000000 0.846724
vn -0.707108 0.000000 0.707106
vn -0.707108 0.000000 0.707106
vn -0.846724 0.000000 0.532033
vn -0.846724 0.000000 0.532033
vn -0.943883 0.000000 0.330279
vn -0.943883 0.000000 0.330279
vn -0.993712 0.000000 0.111964
vn -0.993712 0.000000 0.111964
vn -0.992709 0.000000 -0.120537
vn -0.992709 -0.000000 -0.120537
vn -0.935016 -0.000000 -0.354605
vn -0.935016 0.000000 -0.354605
vn -0.822984 -0.000000 -0.568064
vn -0.822984 0.000000 -0.568064
vn -0.663122 -0.000000 -0.748511
vn -0.663122 0.000000 -0.748511
vn -0.464724 -0.000000 -0.885456
vn -0.464724 0.000000 -0.885456
vn -0.239316 -0.000000 -0.970942
vn -0.239316 0.000000 -0.970942
vn 0.000000 0.000000 -1.000000
vn 0.000000 0.000000 -1.000000
vn 0.239316 0.000000 -0.970942
vn 0.239316 0.000000 -0.970942
vn 0.464724 0.000000 -0.885456
vn 0.464724 0.000000 -0.885456
vn 0.663122 0.000000 -0.748511
vn 0.663122 0.000000 -0.748511
vn 0.822984 0.000000 -0.568064
vn 0.822984 0.000000 -0.568064
vn 0.935016 0.000000 -0.354605
vn 0.935016 0.000000 -0.354605
vn 0.992709 0.000000 -0.120537
vn 0.992709 0.000000 -0.120537
vn 0.992709 0.000000 0.120537
vn 0.992709 0.000000 0.120537
vn 0.935016 0.000000 0.354605
vn 0.935016 0.000000 0.354605
vn 0.822983 0.000000 0.568065
vn 0.822983 0.000000 0.568065
vn 0.663123 0.000000 0.748510
vn 0.663123 0.000000 0.748510
vn 0.464722 0.000000 0.885457
vn 0.464722 0.000000 0.885457
vn 0.239316 0.000000 0.970942
vn 0.239316 0.000000 0.970942
vn 0.000000 0.000000 1.000000
vn 0.000000 0.000000 1.000000
vn -0.239316 0.000000 0.970942
vn -0.239316 0.000000 0.970942
vn -0.464722 0.000000 0.885457
vn -0.464722 0.000000 0.885457
vn -0.663123 0.000000 0.748510
vn -0.663123 0.000000 0.748510
vn -0.822983 0.000000 0.568065
vn -0.822983 0.000000 0.568065
vn -0.935016 0.000000 0.354605
vn -0.935016 0.000000 0.354605
vn -0.992709 0.000000 0.120537
vn -0.992709 0.000000 0.120537
vn 0.000000 -1.000000 0.000000
vn 0.000000 -1.000000 0.000000
vn 0.000000 -1.000000 0.000000
vn 0.000000 -1.000000 0.000000
vn 0.000000 -1.000000 0.000000
vn 0.000000 -1.000000 0.000000
vn 0.000000 -1.000000 0.000000
vn 0.000000 -1.000000 0.000000
vn 0.000000 -1.000000 0.000000
vn 0.000000 -1.000000 0.000000
vn 0.000000 -1.000000 0.000000
vn 0.000000 -1.000000 0.000000
vn 0.000000 -1.000000 0.000000
vn 0.000000 -1.000000 0.000000
vn 0.000000 -1.000000 0.000000
vn 0.000000 -1.000000 0.000000
vn -0.000000 -1.000000 0.000000
vn 0.000000 -1.000000 0.000000
vn -0.000000 -1.000000 0.000000
vn 0.000000 -1.000000 0.000000
vn 0.000000 -1.000000 0.000000
vn 0.000000 -1.000000 0.000000
vn 0.000000 -1.000000 0.000000
vn 0.000000 -1.000000 0.000000
vn 0.000000 -1.000000 0.000000
vn 0.000000 -1.000000 0.000000
vn 0.000000 -1.000000 0.000000
vn 0.000000 -1.000000 0.000000
vn 0.000000 -1.000000 0.000000
vn 0.000000 -1.000000 0.000000
vn -0.000000 -1.000000 0.000000
vn 0.000000 -1.000000 0.000000
vn 0.000000 -1.000000 0.000000
vn 0.000000 -1.000000 0.000000
vn 0.000000 -1.000000 0.000000
vn 0.000000 -1.000000 0.000000
vn 0.000000 -1.000000 0.000000
vn 0.000000 -1.000000 0.000000
vn 0.000000 -1.000000 0.000000
vn 0.000000 -1.000000 0.000000
vn 0.000000 -1.000000 0.000000
vn -0.000000 -1.000000 0.000000
vn -0.000000 -1.000000 0.000000
vn 0.000000 -1.000000 0.000000
vn 0.000000 -1.000000 0.000000
vn -0.000000 -1.000000 0.000000
vn -0.000000 -1.000000 0.000000
vn -0.000000 -1.000000 0.000000
vn -0.000000 -1.000000 0.000000
vn -0.000000 -1.000000 0.000000
vn -0.000000 -1.000000 0.000000
vn 0.000000 -1.000000 0.000000
vn 0.000000 -1.000000 0.000000
vn 0.000000 -1.000000 0.000000
vn 0.000000 -1.000000 0.000000
vn 0.000000 -1.000000 0.000000
vn 0.000000 -1.000000 0.000000
vn 0.000000 -1.000000 0.000000
vn 0.000000 -1.000000 0.000000
vn 0.000000 -1.000000 0.000000
vn -0.000000 -1.000000 0.000000
vn 0.000000 -1.000000 0.000000
vn 0.000000 -1.000000 0.000000
vn -0.000000 -1.000000 0.000000
vn 0.000000 -1.000000 0.000000
vn 0.000000 -1.000000 0.000000
vn 0.000000 -1.000000 0.000000
vn 0.000000 -1.000000 0.000000
vn -0.000000 -1.000000 -0.000000
vn -0.000000 -1.000000 0.000000
vn 0.000000 -1.000000 0.000000
vn 0.000000 -1.000000 0.000000
vn 0.000000 -1.000000 0.000000
vn -0.000000 -1.000000 -0.000000
vn -0.000000 -1.000000 -0.000000
vn 0.000000 -1.000000 0.000000
f 1//1 2//1 3//1
f 1//2 3//2 4//2
f 1//3 4//3 5//3
f 1//4 5//4 6//4
f 1//5 6//5 7//5
f 1//6 7//6 8//6
f 9//7 1//7 10//7
f 9//8 11//8 12//8
f 9//9 13//9 11//9
f 9//10 14//10 13//10
f 9//11 15//11 14//11
f 9//12 16//12 15//12
f 9//13 10//13 16//13
f 9//14 2//14 1//14
f 17//15 2//15 9//15
f 18//16 19//16 20//16
f 21//17 20//17 19//17
f 22//18 19//18 18//18
f 23//19 21//19 19//19
f 23//20 19//20 24//20
f 25//21 19//21 22//21
f 25//22 17//22 19//22
f 26//23 23//23 24//23
f 27//24 26//24 24//24
f 27//25 24//25 28//25
f 29//26 27//26 28//26
f 29//27 28//27 30//27
f 31//28 29//28 30//28
f 31//29 30//29 32//29
f 33//30 31//30 32//30
f 33//31 34//31 31//31
f 35//32 36//32 37//32
f 35//33 37//33 38//33
f 35//34 38//34 39//34
f 35//35 39//35 40//35
f 35//36 40//36 41//36
f 42//37 2//37 17//37
f 42//38 43//38 2//38
f 42//39 17//39 25//39
f 42//40 25//40 36//40
f 42//41 36//41 35//41
f 44//42 45//42 46//42
f 47//43 48//43 34//43
f 47//44 34//44 33//44
f 49//45 48//45 47//45
f 49//46 50//46 48//46
f 51//47 41//47 52//47
f 51//48 35//48 41//48
f 53//49 44//49 46//49
f 53//50 54//50 55//50
f 53//51 55//51 44//51
f 53//52 46//52 56//52
f 53//53 56//53 43//53
f 57//54 58//54 50//54
f 57//55 50//55 49//55
f 59//56 51//56 52//56
f 59//57 52//57 60//57
f 61//58 58//58 57//58
f 61//59 62//59 58//59
f 63//60 59//60 60//60
f 63//61 60//61 64//61
f 65//62 62//62 61//62
f 65//63 66//63 62//63
f 67//64 66//64 65//64
f 67//65 63//65 64//65
f 67//66 64//66 68//66
f 67//67 68//67 66//67
f 69//68 53//68 43//68
f 69//69 70//69 53//69
f 69//70 43//70 42//70
f 71//71 69//71 72//71
f 71//72 72//72 73//72
f 71//73 73//73 74//73
f 71//74 75//74 76//74
f 71//75 76//75 70//75
f 71//76 70//76 69//76
f 69//77 42//77 77//77
f 69//78 77//78 78//78
f 69//79 79//79 72//79
f 78//80 79//80 69//80
f 72//81 80//81 73//81
f 79//82 80//82 72//82
f 73//83 81//83 74//83
f 80//84 81//84 73//84
f 74//85 82//85 71//85
f 81//86 82//86 74//86
f 71//87 83//87 75//87
f 82//88 83//88 71//88
f 75//89 84//89 76//89
f 83//90 84//90 75//90
f 76//91 85//91 70//91
f 84//92 85//92 76//92
f 77//93 42//93 35//93
f 77//94 35//94 86//94
f 53//95 70//95 85//95
f 53//96 85//96 87//96
f 35//97 51//97 88//97
f 35//98 88//98 86//98
f 53//99 89//99 54//99
f 87//100 89//100 53//100
f 54//101 90//101 55//101
f 89//102 90//102 54//102
f 55//103 91//103 44//103
f 90//104 91//104 55//104
f 44//105 92//105 45//105
f 91//106 92//106 44//106
f 45//107 93//107 46//107
f 92//108 93//108 45//108
f 46//109 94//109 56//109
f 93//110 94//110 46//110
f 56//111 95//111 43//111
f 94//112 95//112 56//112
f 51//113 59//113 88//113
f 88//114 59//114 96//114
f 96//115 63//115 97//115
f 59//116 63//116 96//116
f 97//117 67//117 98//117
f 63//118 67//118 97//118
f 98//119 65//119 99//119
f 67//120 65//120 98//120
f 99//121 100//121 101//121
f 65//122 100//122 99//122
f 101//123 57//123 102//123
f 100//124 57//124 101//124
f 102//125 49//125 103//125
f 57//126 49//126 102//126
f 103//127 104//127 105//127
f 49//128 104//128 103//128
f 105//129 33//129 106//129
f 104//130 33//130 105//130
f 106//131 32//131 107//131
f 33//132 32//132 106//132
f 107//133 30//133 108//133
f 32//134 30//134 107//134
f 108//135 28//135 109//135
f 30//136 28//136 108//136
f 109//137 24//137 110//137
f 28//138 24//138 109//138
f 2//139 43//139 95//139
f 2//140 95//140 111//140
f 24//141 19//141 112//141
f 24//142 112//142 110//142
f 2//143 113//143 3//143
f 111//144 113//144 2//144
f 3//145 114//145 4//145
f 113//146 114//146 3//146
f 4//147 115//147 5//147
f 114//148 115//148 4//148
f 5//149 116//149 117//149
f 115//150 116//150 5//150
f 117//151 118//151 7//151
f 116//152 118//152 117//152
f 7//153 119//153 8//153
f 118//154 119//154 7//154
f 8//155 120//155 1//155
f 119//156 120//156 8//156
f 112//157 19//157 17//157
f 112//158 17//158 121//158
f 10//159 1//159 120//159
f 10//160 120//160 122//160
f 17//161 9//161 123//161
f 17//162 123//162 121//162
f 124//163 9//163 12//163
f 124//164 123//164 9//164
f 125//165 12//165 11//165
f 125//166 124//166 12//166
f 126//167 11//167 13//167
f 126//168 125//168 11//168
f 127//169 13//169 14//169
f 127//170 126//170 13//170
f 128//171 14//171 15//171
f 128//172 127//172 14//172
f 129//173 15//173 16//173
f 129//174 128//174 15//174
f 122//175 16//175 10//175
f 122//176 129//176 16//176
f 60//177 52//177 130//177
f 60//178 130//178 131//178
f 64//179 131//179 132//179
f 64//180 60//180 131//180
f 68//181 132//181 133//181
f 68//182 64//182 132//182
f 66//183 133//183 134//183
f 66//184 68//184 133//184
f 62//185 134//185 135//185
f 62//186 66//186 134//186
f 58//187 135//187 136//187
f 58//188 62//188 135//188
f 50//189 136//189 137//189
f 50//190 58//190 136//190
f 48//191 137//191 138//191
f 48//192 50//192 137//192
f 34//193 138//193 139//193
f 34//194 48//194 138//194
f 31//195 139//195 140//195
f 31//196 34//196 139//196
f 29//197 140//197 141//197
f 29//198 31//198 140//198
f 27//199 29//199 141//199
f 27//200 141//200 142//200
f 26//201 27//201 142//201
f 26//202 142//202 143//202
f 23//203 143//203 144//203
f 23//204 26//204 143//204
f 21//205 144//205 145//205
f 21//206 23//206 144//206
f 20//207 145//207 146//207
f 20//208 21//208 145//208
f 18//209 146//209 147//209
f 18//210 20//210 146//210
f 22//211 147//211 148//211
f 22//212 18//212 147//212
f 25//213 148//213 149//213
f 25//214 22//214 148//214
f 36//215 149//215 150//215
f 36//216 25//216 149//216
f 37//217 150//217 151//217
f 37//218 36//218 150//218
f 38//219 151//219 152//219
f 38//220 37//220 151//220
f 39//221 152//221 153//221
f 39//222 38//222 152//222
f 40//223 153//223 154//223
f 40//224 39//224 153//224
f 41//225 154//225 155//225
f 41//226 40//226 154//226
f 52//227 155//227 130//227
f 52//228 41//228 155//228
f 111//229 120//229 113//229
f 113//230 120//230 114//230
f 114//231 120//231 115//231
f 115//232 120//232 116//232
f 116//233 120//233 156//233
f 156//234 120//234 157//234
f 120//235 123//235 158//235
f 125//236 123//236 124//236
f 159//237 123//237 125//237
f 160//238 123//238 159//238
f 128//239 123//239 160//239
f 129//240 123//240 128//240
f 158//241 123//241 129//241
f 111//242 123//242 120//242
f 111//243 121//243 123//243
f 112//244 147//244 146//244
f 146//245 145//245 112//245
f 112//246 148//246 147//246
f 145//247 144//247 112//247
f 112//248 144//248 110//248
f 112//249 149//249 148//249
f 121//250 149//250 112//250
f 144//251 143//251 110//251
f 143//252 142//252 110//252
f 110//253 142//253 109//253
f 142//254 141//254 109//254
f 109//255 141//255 108//255
f 141//256 140//256 108//256
f 108//257 140//257 107//257
f 140//258 106//258 107//258
f 139//259 106//259 140//259
f 150//260 86//260 151//260
f 151//261 86//261 152//261
f 152//262 86//262 153//262
f 153//263 86//263 154//263
f 154//264 86//264 155//264
f 111//265 77//265 121//265
f 150//266 77//266 86//266
f 95//267 77//267 111//267
f 121//268 77//268 149//268
f 149//269 77//269 150//269
f 92//270 91//270 93//270
f 138//271 105//271 139//271
f 139//272 105//272 106//272
f 138//273 103//273 105//273
f 137//274 103//274 138//274
f 89//275 87//275 90//275
f 90//276 87//276 91//276
f 93//277 87//277 94//277
f 94//278 87//278 95//278
f 91//279 87//279 93//279
f 155//280 88//280 130//280
f 86//281 88//281 155//281
f 136//282 102//282 137//282
f 137//283 102//283 103//283
f 130//284 96//284 131//284
f 88//285 96//285 130//285
f 136//286 101//286 102//286
f 135//287 101//287 136//287
f 131//288 97//288 132//288
f 96//289 97//289 131//289
f 135//290 99//290 101//290
f 134//291 99//291 135//291
f 97//292 98//292 132//292
f 134//293 98//293 99//293
f 132//294 98//294 133//294
f 133//295 98//295 134//295
f 95//296 78//296 77//296
f 161//297 78//297 87//297
f 87//298 78//298 95//298
f 78//299 162//299 79//299
f 79//300 162//300 80//300
f 80//301 162//301 163//301
f 83//302 162//302 84//302
f 84//303 162//303 161//303
f 161//304 162//304 78//304
