# Blender v2.76 (sub 0) OBJ File: 'arrow.blend'
# www.blender.org
v -0.000000 1.190000 -0.030000
v -0.000000 1.190000 -0.100000
v 0.019509 1.190000 -0.098079
v 0.005853 1.190000 -0.029424
v -0.005853 1.190000 -0.029424
v -0.019509 1.190000 -0.098079
v -0.000000 1.370000 0.000000
v 0.038268 1.190000 -0.092388
v 0.011480 1.190000 -0.027716
v -0.011480 1.190000 -0.027716
v -0.038268 1.190000 -0.092388
v 0.055557 1.190000 -0.083147
v 0.016667 1.190000 -0.024944
v -0.016667 1.190000 -0.024944
v -0.055557 1.190000 -0.083147
v 0.070711 1.190000 -0.070711
v 0.021213 1.190000 -0.021213
v -0.021213 1.190000 -0.021213
v -0.070711 1.190000 -0.070711
v 0.083147 1.190000 -0.055557
v 0.024944 1.190000 -0.016667
v -0.024944 1.190000 -0.016667
v -0.083147 1.190000 -0.055557
v 0.092388 1.190000 -0.038268
v 0.027716 1.190000 -0.011481
v -0.027716 1.190000 -0.011481
v -0.092388 1.190000 -0.038268
v 0.098079 1.190000 -0.019509
v 0.029424 1.190000 -0.005853
v -0.029424 1.190000 -0.005853
v -0.098079 1.190000 -0.019509
v 0.100000 1.190000 -0.000000
v 0.030000 1.190000 -0.000000
v -0.030000 1.190000 -0.000000
v -0.100000 1.190000 -0.000000
v 0.098079 1.190000 0.019509
v 0.029424 1.190000 0.005853
v -0.029424 1.190000 0.005853
v -0.098079 1.190000 0.019509
v 0.092388 1.190000 0.038268
v 0.027716 1.190000 0.011480
v -0.027716 1.190000 0.011480
v -0.092388 1.190000 0.038268
v 0.083147 1.190000 0.055557
v 0.024944 1.190000 0.016667
v -0.024944 1.190000 0.016667
v -0.083147 1.190000 0.055557
v 0.070711 1.190000 0.070711
v 0.021213 1.190000 0.021213
v -0.021213 1.190000 0.021213
v -0.070711 1.190000 0.070711
v 0.055557 1.190000 0.083147
v 0.016667 1.190000 0.024944
v -0.016667 1.190000 0.024944
v -0.055557 1.190000 0.083147
v 0.038268 1.190000 0.092388
v 0.011480 1.190000 0.027716
v -0.011481 1.190000 0.027716
v -0.038268 1.190000 0.092388
v 0.019509 1.190000 0.098079
v 0.005853 1.190000 0.029424
v -0.005853 1.190000 0.029424
v -0.019509 1.190000 0.098079
v -0.000000 1.190000 0.100000
v -0.000000 1.190000 0.030000
v -0.000000 1.000000 0.000000
v -0.000000 1.000000 -0.030000
v 0.005853 1.000000 -0.029424
v 0.011480 1.000000 -0.027716
v -0.005853 1.000000 -0.029424
v 0.016667 1.000000 -0.024944
v -0.011480 1.000000 -0.027716
v 0.021213 1.000000 -0.021213
v -0.016667 1.000000 -0.024944
v 0.024944 1.000000 -0.016667
v -0.021213 1.000000 -0.021213
v 0.027716 1.000000 -0.011481
v -0.024944 1.000000 -0.016667
v 0.029424 1.000000 -0.005853
v -0.027716 1.000000 -0.011481
v 0.030000 1.000000 -0.000000
v -0.029424 1.000000 -0.005853
v 0.029424 1.000000 0.005853
v -0.030000 1.000000 -0.000000
v 0.027716 1.000000 0.011480
v -0.029424 1.000000 0.005853
v 0.024944 1.000000 0.016667
v -0.027716 1.000000 0.011480
v 0.021213 1.000000 0.021213
v -0.024944 1.000000 0.016667
v 0.016667 1.000000 0.024944
v -0.021213 1.000000 0.021213
v 0.011480 1.000000 0.027716
v -0.016667 1.000000 0.024944
v 0.005853 1.000000 0.029424
v -0.011481 1.000000 0.027716
v -0.000000 1.000000 0.030000
v -0.005853 1.000000 0.029424
vn 0.000000 -0.484900 -0.874500
vn 0.170600 -0.484900 -0.857700
vn 0.133300 -0.729800 -0.670500
vn -0.133300 -0.729800 -0.670500
vn -0.170600 -0.484900 -0.857700
vn 0.000000 1.000000 0.000000
vn 0.334700 -0.484900 -0.807900
vn 0.261600 -0.729800 -0.631600
vn -0.334700 -0.484900 -0.807900
vn 0.485900 -0.484900 -0.727100
vn 0.379800 -0.729800 -0.568400
vn -0.485900 -0.484900 -0.727100
vn -0.261600 -0.729900 -0.631600
vn 0.618400 -0.484900 -0.618400
vn 0.483400 -0.729800 -0.483400
vn -0.618400 -0.484900 -0.618400
vn -0.379800 -0.729900 -0.568400
vn 0.727100 -0.484900 -0.485900
vn 0.568400 -0.729800 -0.379800
vn -0.727100 -0.484900 -0.485900
vn -0.483400 -0.729800 -0.483400
vn 0.807900 -0.484900 -0.334700
vn -0.807900 -0.484900 -0.334700
vn -0.568400 -0.729800 -0.379800
vn 0.857700 -0.484900 -0.170600
vn 0.670500 -0.729800 -0.133300
vn -0.857700 -0.484900 -0.170600
vn -0.631600 -0.729800 -0.261600
vn 0.874500 -0.484900 0.000000
vn 0.683600 -0.729800 0.000000
vn -0.874500 -0.484900 0.000000
vn -0.670500 -0.729800 -0.133300
vn 0.857700 -0.484900 0.170600
vn 0.670500 -0.729800 0.133300
vn -0.857700 -0.484900 0.170600
vn -0.683600 -0.729800 0.000000
vn 0.807900 -0.484900 0.334700
vn -0.807900 -0.484900 0.334700
vn -0.670500 -0.729800 0.133400
vn 0.727100 -0.484900 0.485900
vn 0.568400 -0.729900 0.379800
vn -0.568400 -0.729800 0.379800
vn -0.727100 -0.484900 0.485900
vn 0.618400 -0.484900 0.618400
vn 0.483400 -0.729800 0.483400
vn -0.483400 -0.729900 0.483400
vn -0.618400 -0.484900 0.618400
vn 0.485900 -0.484900 0.727100
vn -0.485900 -0.484900 0.727100
vn 0.334700 -0.484900 0.807900
vn 0.261600 -0.729900 0.631600
vn -0.334700 -0.484900 0.807900
vn -0.379800 -0.729900 0.568400
vn 0.170600 -0.484900 0.857700
vn 0.133300 -0.729800 0.670500
vn -0.170600 -0.484900 0.857700
vn -0.261600 -0.729800 0.631600
vn 0.000000 -0.484900 0.874500
vn 0.000000 -0.729800 0.683600
vn -0.133300 -0.729800 0.670500
vn 0.000000 -1.000000 0.000000
vn 0.000000 -0.685700 -0.727900
vn 0.142000 -0.685700 -0.713900
vn 0.278500 -0.685700 -0.672500
vn -0.142000 -0.685700 -0.713900
vn 0.000000 -0.729800 -0.683600
vn 0.404400 -0.685700 -0.605200
vn -0.278500 -0.685700 -0.672500
vn 0.514700 -0.685700 -0.514700
vn -0.404400 -0.685700 -0.605200
vn 0.605200 -0.685700 -0.404400
vn -0.514700 -0.685700 -0.514700
vn 0.672500 -0.685700 -0.278500
vn -0.605200 -0.685700 -0.404400
vn 0.713900 -0.685700 -0.142000
vn -0.672500 -0.685700 -0.278500
vn 0.727900 -0.685700 0.000000
vn 0.631600 -0.729900 -0.261600
vn -0.713900 -0.685700 -0.142000
vn 0.713900 -0.685700 0.142000
vn -0.727900 -0.685700 0.000000
vn 0.672500 -0.685700 0.278500
vn -0.713900 -0.685700 0.142000
vn 0.605200 -0.685700 0.404400
vn -0.672500 -0.685700 0.278500
vn 0.514700 -0.685700 0.514700
vn 0.631600 -0.729900 0.261600
vn -0.605200 -0.685700 0.404400
vn -0.631600 -0.729800 0.261600
vn 0.404400 -0.685700 0.605200
vn -0.514700 -0.685700 0.514700
vn 0.278500 -0.685700 0.672500
vn -0.404400 -0.685700 0.605200
vn 0.142000 -0.685700 0.713900
vn 0.379800 -0.729800 0.568400
vn -0.278500 -0.685700 0.672500
vn 0.000000 -0.685700 0.727900
vn -0.142000 -0.685700 0.713900
s 1
f 2//1 3//2 4//3
f 5//4 6//5 2//1
f 2//1 7//6 3//2
f 3//2 8//7 9//8
f 11//9 6//5 5//4
f 6//5 7//6 2//1
f 3//2 7//6 8//7
f 8//7 12//10 13//11
f 15//12 11//9 10//13
f 11//9 7//6 6//5
f 8//7 7//6 12//10
f 12//10 16//14 17//15
f 19//16 15//12 14//17
f 15//12 7//6 11//9
f 12//10 7//6 16//14
f 16//14 20//18 21//19
f 23//20 19//16 18//21
f 19//16 7//6 15//12
f 16//14 7//6 20//18
f 21//19 20//18 24//22
f 27//23 23//20 22//24
f 23//20 7//6 19//16
f 20//18 7//6 24//22
f 24//22 28//25 29//26
f 31//27 27//23 26//28
f 27//23 7//6 23//20
f 24//22 7//6 28//25
f 28//25 32//29 33//30
f 35//31 31//27 30//32
f 31//27 7//6 27//23
f 28//25 7//6 32//29
f 32//29 36//33 37//34
f 39//35 35//31 34//36
f 35//31 7//6 31//27
f 32//29 7//6 36//33
f 37//34 36//33 40//37
f 43//38 39//35 38//39
f 39//35 7//6 35//31
f 36//33 7//6 40//37
f 40//37 44//40 45//41
f 46//42 47//43 43//38
f 43//38 7//6 39//35
f 40//37 7//6 44//40
f 44//40 48//44 49//45
f 50//46 51//47 47//43
f 47//43 7//6 43//38
f 44//40 7//6 48//44
f 49//45 48//44 52//48
f 55//49 51//47 50//46
f 51//47 7//6 47//43
f 48//44 7//6 52//48
f 52//48 56//50 57//51
f 59//52 55//49 54//53
f 55//49 7//6 51//47
f 52//48 7//6 56//50
f 56//50 60//54 61//55
f 63//56 59//52 58//57
f 59//52 7//6 55//49
f 56//50 7//6 60//54
f 60//54 64//58 65//59
f 64//58 63//56 62//60
f 63//56 7//6 59//52
f 60//54 7//6 64//58
f 64//58 7//6 63//56
f 66//61 67//62 68//63
f 66//61 68//63 69//64
f 66//61 70//65 67//62
f 68//63 67//62 1//66
f 66//61 69//64 71//67
f 69//64 68//63 4//3
f 66//61 72//68 70//65
f 67//62 70//65 5//4
f 66//61 71//67 73//69
f 71//67 69//64 9//8
f 66//61 74//70 72//68
f 70//65 72//68 10//13
f 66//61 73//69 75//71
f 73//69 71//67 13//11
f 66//61 76//72 74//70
f 72//68 74//70 14//17
f 66//61 75//71 77//73
f 75//71 73//69 17//15
f 66//61 78//74 76//72
f 74//70 76//72 18//21
f 66//61 77//73 79//75
f 77//73 75//71 21//19
f 66//61 80//76 78//74
f 76//72 78//74 22//24
f 66//61 79//75 81//77
f 79//75 77//73 25//78
f 66//61 82//79 80//76
f 78//74 80//76 26//28
f 66//61 81//77 83//80
f 81//77 79//75 29//26
f 66//61 84//81 82//79
f 80//76 82//79 30//32
f 66//61 83//80 85//82
f 83//80 81//77 33//30
f 66//61 86//83 84//81
f 82//79 84//81 34//36
f 66//61 85//82 87//84
f 85//82 83//80 37//34
f 66//61 88//85 86//83
f 84//81 86//83 38//39
f 66//61 87//84 89//86
f 87//84 85//82 41//87
f 66//61 90//88 88//85
f 86//83 88//85 42//89
f 66//61 89//86 91//90
f 89//86 87//84 45//41
f 66//61 92//91 90//88
f 88//85 90//88 46//42
f 66//61 91//90 93//92
f 91//90 89//86 49//45
f 66//61 94//93 92//91
f 90//88 92//91 50//46
f 66//61 93//92 95//94
f 93//92 91//90 53//95
f 66//61 96//96 94//93
f 92//91 94//93 54//53
f 66//61 95//94 97//97
f 95//94 93//92 57//51
f 66//61 98//98 96//96
f 94//93 96//96 58//57
f 66//61 97//97 98//98
f 97//97 95//94 61//55
f 96//96 98//98 62//60
f 98//98 97//97 65//59
f 1//66 2//1 4//3
f 1//66 5//4 2//1
f 4//3 3//2 9//8
f 10//13 11//9 5//4
f 9//8 8//7 13//11
f 14//17 15//12 10//13
f 13//11 12//10 17//15
f 18//21 19//16 14//17
f 17//15 16//14 21//19
f 22//24 23//20 18//21
f 25//78 21//19 24//22
f 26//28 27//23 22//24
f 25//78 24//22 29//26
f 30//32 31//27 26//28
f 29//26 28//25 33//30
f 34//36 35//31 30//32
f 33//30 32//29 37//34
f 38//39 39//35 34//36
f 41//87 37//34 40//37
f 42//89 43//38 38//39
f 41//87 40//37 45//41
f 42//89 46//42 43//38
f 45//41 44//40 49//45
f 46//42 50//46 47//43
f 53//95 49//45 52//48
f 54//53 55//49 50//46
f 53//95 52//48 57//51
f 58//57 59//52 54//53
f 57//51 56//50 61//55
f 62//60 63//56 58//57
f 61//55 60//54 65//59
f 65//59 64//58 62//60
f 4//3 68//63 1//66
f 9//8 69//64 4//3
f 1//66 67//62 5//4
f 13//11 71//67 9//8
f 5//4 70//65 10//13
f 17//15 73//69 13//11
f 10//13 72//68 14//17
f 21//19 75//71 17//15
f 14//17 74//70 18//21
f 25//78 77//73 21//19
f 18//21 76//72 22//24
f 29//26 79//75 25//78
f 22//24 78//74 26//28
f 33//30 81//77 29//26
f 26//28 80//76 30//32
f 37//34 83//80 33//30
f 30//32 82//79 34//36
f 41//87 85//82 37//34
f 34//36 84//81 38//39
f 45//41 87//84 41//87
f 38//39 86//83 42//89
f 49//45 89//86 45//41
f 42//89 88//85 46//42
f 53//95 91//90 49//45
f 46//42 90//88 50//46
f 57//51 93//92 53//95
f 50//46 92//91 54//53
f 61//55 95//94 57//51
f 54//53 94//93 58//57
f 65//59 97//97 61//55
f 58//57 96//96 62//60
f 62//60 98//98 65//59
