o braking_top_light
v -0.205515 2.20772 -1.51877
v -0.205515 2.20772 -1.5157
v -0.205415 2.20777 -1.51901
v -0.205415 2.20777 -1.51539
v -0.205316 2.2069 -1.51913
v -0.205316 2.20691 -1.51605
v -0.205257 2.20906 -1.51824
v -0.205257 2.20906 -1.51516
v -0.205227 2.20698 -1.51936
v -0.205227 2.20699 -1.51574
v -0.205167 2.20909 -1.51849
v -0.205167 2.20909 -1.51485
v -0.205138 2.20793 -1.51912
v -0.205138 2.20793 -1.51516
v -0.204959 2.20722 -1.51942
v -0.204959 2.20722 -1.51548
v -0.204889 2.20917 -1.51863
v -0.204889 2.20917 -1.51465
v -0.204621 2.20809 -1.51918
v -0.204621 2.2081 -1.51502
v -0.204602 2.20654 -1.51935
v -0.204602 2.20654 -1.51626
v -0.204592 2.20753 -1.51939
v -0.204592 2.20753 -1.51529
v -0.204542 2.20662 -1.51957
v -0.204542 2.20662 -1.51593
v -0.204354 2.20929 -1.51452
v -0.204344 2.20688 -1.51961
v -0.204344 2.20689 -1.51566
v -0.204086 2.20739 -1.51952
v -0.204086 2.20739 -1.51536
v -0.203847 2.20817 -1.51926
v -0.20347 2.20944 -1.51878
v -0.196028 2.2332 -1.50899
v -0.196028 2.2332 -1.50591
v -0.195948 2.23321 -1.50924
v -0.195948 2.23321 -1.50561
v -0.19571 2.23324 -1.50942
v -0.19571 2.23324 -1.50543
v -0.195204 2.23473 -1.50843
v -0.195204 2.23473 -1.50535
v -0.195145 2.23471 -1.5087
v -0.195145 2.23471 -1.50507
v -0.194956 2.23464 -1.50889
v -0.194956 2.23464 -1.50493
v -0.194529 2.23466 -1.50901
v -0.194529 2.23466 -1.50485
v -0.194311 2.23582 -1.50807
v -0.194311 2.23582 -1.50498
v -0.194281 2.23576 -1.50833
v -0.194281 2.23576 -1.50472
v -0.194172 2.23559 -1.50856
v -0.194172 2.23559 -1.50462
v -0.193348 2.23576 -1.50866
v -0.193348 2.23576 -1.5045
v -0.193219 2.23627 -1.50838
v -0.193219 2.23627 -1.50442
v -0.193219 2.2365 -1.50814
v -0.193219 2.23651 -1.50451
v -0.193219 2.23658 -1.50785
v -0.193219 2.23659 -1.50477
v -0.190828 2.2362 -1.50864
v -0.190629 2.23676 -1.50833
v -0.190629 2.23676 -1.50434
v -0.19055 2.23704 -1.50807
v -0.19055 2.23704 -1.50443
v -0.19052 2.23714 -1.50778
v -0.19052 2.23714 -1.50469
v -0.184963 2.23719 -1.50439
v -0.184854 2.23749 -1.50448
v -0.184824 2.23759 -1.50783
v -0.184824 2.23759 -1.50474
v -0.175049 2.23705 -1.50463
v -0.174742 2.23793 -1.50828
v -0.138759 2.23819 -1.50941
v -0.095939 2.21129 -1.51966
v -0.095939 2.21129 -1.5153
v -0.070049 2.21076 -1.51999
v -0.070049 2.21077 -1.51576
v 0.060118 2.21103 -1.52004
v 0.085978 2.21169 -1.51974
v 0.086107 2.21077 -1.51576
v 0.10646 2.24018 -1.50959
v 0.111928 2.2113 -1.5153
v 0.15452 2.23819 -1.50941
v 0.190572 2.23763 -1.50854
v 0.200555 2.23759 -1.50783
v 0.200555 2.23759 -1.50475
v 0.200595 2.23749 -1.50812
v 0.200595 2.23749 -1.50448
v 0.206271 2.23714 -1.50778
v 0.206271 2.23714 -1.50469
v 0.206301 2.23704 -1.50807
v 0.206301 2.23704 -1.50443
v 0.20638 2.23676 -1.50833
v 0.20638 2.23676 -1.50434
v 0.206579 2.2362 -1.50443
v 0.20898 2.23627 -1.50838
v 0.20898 2.23627 -1.50442
v 0.20898 2.2365 -1.50814
v 0.20898 2.23651 -1.50451
v 0.20898 2.23658 -1.50785
v 0.20898 2.23659 -1.50477
v 0.209099 2.23576 -1.50867
v 0.209099 2.23576 -1.5045
v 0.209943 2.23559 -1.50856
v 0.209943 2.23559 -1.50462
v 0.210052 2.23576 -1.50834
v 0.210052 2.23576 -1.50472
v 0.210091 2.23582 -1.50807
v 0.210091 2.23582 -1.50498
v 0.2103 2.23466 -1.50901
v 0.2103 2.23466 -1.50485
v 0.210736 2.23464 -1.50889
v 0.210736 2.23464 -1.50493
v 0.210925 2.23471 -1.5087
v 0.210925 2.23471 -1.50507
v 0.210994 2.23473 -1.50843
v 0.210994 2.23473 -1.50535
v 0.211491 2.23324 -1.50942
v 0.211491 2.23324 -1.50543
v 0.211739 2.23321 -1.50924
v 0.211739 2.23321 -1.50561
v 0.211818 2.2332 -1.50899
v 0.211818 2.2332 -1.50591
v 0.219231 2.20945 -1.51445
v 0.219618 2.20817 -1.51926
v 0.219618 2.20818 -1.51498
v 0.219846 2.20739 -1.51952
v 0.219846 2.20739 -1.51536
v 0.220104 2.20688 -1.51961
v 0.220104 2.20689 -1.51566
v 0.220124 2.20929 -1.51452
v 0.220303 2.20663 -1.51957
v 0.220303 2.20663 -1.51593
v 0.220362 2.20753 -1.51939
v 0.220362 2.20753 -1.51529
v 0.220372 2.20654 -1.51935
v 0.220372 2.20654 -1.51626
v 0.220402 2.20809 -1.51918
v 0.220402 2.2081 -1.51502
v 0.22067 2.20917 -1.51863
v 0.22067 2.20917 -1.51465
v 0.220729 2.20722 -1.51942
v 0.220729 2.20722 -1.51548
v 0.220918 2.20793 -1.51912
v 0.220918 2.20793 -1.51516
v 0.220948 2.20909 -1.51849
v 0.220948 2.20909 -1.51485
v 0.220997 2.20698 -1.51936
v 0.220997 2.20699 -1.51574
v 0.221047 2.20906 -1.51824
v 0.221047 2.20906 -1.51516
v 0.221097 2.2069 -1.51913
v 0.221097 2.20691 -1.51605
v 0.221206 2.20777 -1.51901
v 0.221206 2.20777 -1.51539
v 0.221305 2.20772 -1.51877
v 0.221305 2.20772 -1.5157
vn -0.984741 0.030305 -0.171178
vn -0.981597 -0.096469 0.164647
vn -0.966521 0.216407 0.137669
vn -0.939024 0.314676 -0.138462
vn -0.919889 0.373547 0.119236
vn -0.886685 0.446638 -0.119541
vn -0.844447 0.523667 0.112278
vn -0.818842 0.01059 0.57387
vn -0.813929 0.165044 0.556993
vn -0.809168 0.577166 -0.109928
vn -0.802972 -0.551592 -0.225654
vn -0.768517 0.212653 -0.603412
vn -0.768059 -0.24604 0.591174
vn -0.765191 0.32374 0.556413
vn -0.748802 0.40904 -0.52147
vn -0.747734 -0.644795 0.158391
vn -0.725974 0.502487 -0.469466
vn -0.690603 0.713492 0.118076
vn -0.657857 0.744896 -0.110996
vn -0.657399 0.598346 -0.457991
vn -0.648305 -0.235023 -0.724143
vn -0.628651 0.511887 0.585437
vn -0.545854 -0.630512 0.551744
vn -0.542924 0.713675 -0.442518
vn -0.395764 0.906735 0.145573
vn -0.378063 0.917081 -0.126469
vn -0.377697 0.471145 -0.797082
vn -0.375103 -0.163732 0.912381
vn -0.372417 -0.239998 0.896481
vn -0.372204 0.436048 -0.8193
vn -0.368847 0.356334 -0.858455
vn -0.363201 -0.076632 0.928526
vn -0.346599 0.513749 -0.784783
vn -0.344554 0.677084 0.650227
vn -0.332804 -0.354503 0.873806
vn -0.324259 0.574023 -0.751854
vn -0.318217 0.046297 0.946867
vn -0.313486 0.827387 -0.465957
vn -0.299661 0.211188 -0.930357
vn -0.274728 -0.934721 -0.225318
vn -0.236305 -0.565813 -0.789911
vn -0.22602 -0.965545 0.12888
vn -0.200262 0.613269 -0.764031
vn -0.198157 -0.427473 0.882015
vn -0.178014 0.024964 0.983703
vn -0.17246 0.436171 -0.883145
vn -0.168584 0.332316 -0.927946
vn -0.164708 0.387646 -0.906949
vn -0.148869 -0.860073 0.487899
vn -0.136052 0.976165 0.16895
vn -0.132572 0.831843 -0.538896
vn -0.125156 0.977844 0.167669
vn -0.122745 0.447768 -0.885678
vn -0.103214 -0.004486 -0.994629
vn -0.100192 0.683309 0.723197
vn -0.082919 0.777459 -0.623432
vn -0.079287 0.381664 -0.920865
vn -0.069491 0.206915 -0.97586
vn -0.068331 0.3755 -0.924284
vn -0.067843 -0.292337 0.953887
vn -0.063753 -0.376415 0.924223
vn -0.061067 -0.358287 0.931608
vn -0.051057 -0.306864 0.950346
vn -0.050417 0.63155 -0.773675
vn -0.039186 -0.443098 0.895596
vn -0.036347 0.983551 0.176794
vn -0.033479 -0.270882 0.962004
vn -0.032258 -0.052309 0.998108
vn -0.021973 0.900113 0.435041
vn -0.021912 0.663808 0.747551
vn -0.006134 -0.183782 0.98294
vn -0.006012 -0.369671 0.929136
vn -0.002686 0.96411 -0.265419
vn -0.000732 0.20539 -0.978668
vn -0.000732 0.205481 -0.978637
vn -0.000671 0.411817 -0.911252
vn -0.000458 0.899319 -0.437239
vn -0.000366 -0.340709 0.940153
vn -6.1e-05 -0.202521 0.979247
vn 9.2e-05 -0.20249 0.979278
vn 0.000214 -0.103702 0.994598
vn 0.000244 -0.401044 0.916044
vn 0.000885 0.842586 -0.53853
vn 0.003906 0.964171 -0.265145
vn 0.006012 -0.366558 0.930357
vn 0.006073 -0.180486 0.983551
vn 0.022248 0.665304 0.746208
vn 0.032563 -0.044649 0.998444
vn 0.03296 -0.272866 0.961455
vn 0.035859 0.983886 0.175085
vn 0.038484 -0.444624 0.894864
vn 0.041261 0.986389 0.159154
vn 0.044038 0.590197 -0.806024
vn 0.048799 -0.256966 0.965178
vn 0.049196 -0.342906 0.938047
vn 0.050966 -0.357952 0.93234
vn 0.062166 0.373791 -0.925413
vn 0.065615 0.205817 -0.976379
vn 0.066439 -0.277963 0.958281
vn 0.068941 0.974334 -0.214148
vn 0.099918 0.684561 0.722037
vn 0.101199 -0.005615 -0.994842
vn 0.116764 0.689962 -0.714347
vn 0.134251 0.9794 -0.150639
vn 0.135533 0.976562 0.167028
vn 0.138707 0.666555 -0.732414
vn 0.141728 -0.859432 0.491134
vn 0.158696 0.385327 -0.908994
vn 0.163335 0.329905 -0.929746
vn 0.168065 0.43611 -0.88403
vn 0.176946 0.025635 0.983856
vn 0.193609 -0.432508 0.880581
vn 0.221168 0.899564 -0.376568
vn 0.221809 -0.96588 0.133549
vn 0.230811 -0.560839 -0.795068
vn 0.273141 -0.932585 -0.235817
vn 0.294839 0.20838 -0.932524
vn 0.309061 0.827418 -0.468856
vn 0.315226 0.046815 0.947844
vn 0.319926 0.573046 -0.754448
vn 0.323618 -0.350658 0.87878
vn 0.341563 0.67629 0.652608
vn 0.351268 0.514023 -0.782525
vn 0.358074 -0.229377 0.905057
vn 0.360302 -0.077303 0.929594
vn 0.364116 0.354869 -0.86108
vn 0.365917 0.469802 -0.803339
vn 0.367748 0.435926 -0.821375
vn 0.369793 -0.167394 0.913877
vn 0.374004 0.918546 -0.127842
vn 0.392285 0.907804 0.148167
vn 0.52913 -0.639241 0.55797
vn 0.531693 0.714286 -0.455031
vn 0.621509 0.511093 0.593707
vn 0.633442 -0.234809 -0.737266
vn 0.652516 0.748711 -0.116703
vn 0.652852 0.598621 -0.464095
vn 0.68746 0.714743 0.128391
vn 0.714255 0.504715 -0.484817
vn 0.740226 -0.651295 0.166814
vn 0.74044 0.412275 -0.530747
vn 0.757469 0.319803 0.569109
vn 0.760582 -0.251747 0.598407
vn 0.761101 0.210883 -0.61333
vn 0.798547 -0.552782 -0.238166
vn 0.805689 0.580309 -0.118686
vn 0.807703 0.159764 0.567492
vn 0.811975 0.006348 0.583605
vn 0.84344 0.522996 0.122532
vn 0.884487 0.448958 -0.126743
vn 0.919858 0.371075 0.126988
vn 0.93701 0.317362 -0.145817
vn 0.96588 0.214362 0.145238
vn 0.979339 -0.105808 0.172216
vn 0.983306 0.027345 -0.179724
f 55//63 57//45 53//37
f 55//63 53//37 45//32
f 45//32 47//60 55//63
f 25//41 21//40 5//11
f 25//41 5//11 9//21
f 37//9 43//14 41//7
f 37//9 41//7 35//5
f 66//55 70//70 72//66
f 66//55 72//66 68//50
f 134//115 131//102 144//117
f 134//115 144//117 150//135
f 146//126 156//144 150//135
f 146//126 150//135 144//117
f 122//139 124//150 152//152
f 122//139 152//152 148//141
f 152//152 153//153 159//154
f 152//152 159//154 158//155
f 92//105 91//104 87//92
f 92//105 87//92 88//90
f 124//150 118//146 119//149
f 124//150 119//149 125//151
f 116//137 114//123 106//120
f 116//137 106//120 108//133
f 21//40 22//42 6//16
f 21//40 6//16 5//11
f 28//54 25//41 9//21
f 28//54 9//21 15//39
f 157//143 149//148 143//124
f 157//143 143//124 147//121
f 12//8 4//13 14//35
f 12//8 14//35 18//29
f 138//116 134//115 150//135
f 138//116 150//135 154//145
f 148//141 152//152 158//155
f 148//141 158//155 156//144
f 10//23 4//13 2//2
f 10//23 2//2 6//16
f 117//142 109//134 107//119
f 117//142 107//119 115//125
f 13//31 19//48 23//47
f 13//31 23//47 15//39
f 30//58 28//54 15//39
f 30//58 15//39 23//47
f 63//56 62//64 54//53
f 63//56 54//53 56//43
f 72//66 70//70 90//87
f 72//66 90//87 88//90
f 90//87 94//101 92//105
f 90//87 92//105 88//90
f 102//130 103//131 111//138
f 102//130 111//138 110//136
f 85//84 104//106 127//97
f 112//110 104//106 98//113
f 112//110 98//113 106//120
f 106//120 114//123 112//110
f 67//52 68//50 72//66
f 67//52 72//66 71//69
f 109//134 101//122 99//111
f 109//134 99//111 107//119
f 38//27 42//20 44//33
f 38//27 36//17 42//20
f 65//51 74//77 83//77
f 89//93 93//103 95//100
f 89//93 95//100 86//83
f 86//83 63//56 65//51
f 86//83 65//51 83//77
f 83//77 89//93 86//83
f 2//2 1//1 5//11
f 2//2 5//11 6//16
f 40//10 41//7 49//18
f 40//10 49//18 48//19
f 42//20 40//10 48//19
f 42//20 48//19 50//24
f 48//19 49//18 61//25
f 48//19 61//25 60//26
f 91//104 92//105 103//131
f 91//104 103//131 102//130
f 54//53 46//46 44//33
f 54//53 44//33 52//36
f 52//36 56//43 54//53
f 94//101 101//122 103//131
f 94//101 103//131 92//105
f 138//116 154//145 155//140
f 138//116 155//140 139//114
f 158//155 159//154 155//140
f 158//155 155//140 154//145
f 131//102 129//98 136//109
f 131//102 136//109 144//117
f 134//115 25//41 28//54
f 134//115 28//54 131//102
f 24//67 31//86 79//80
f 24//67 79//80 77//85
f 77//85 20//61 24//67
f 43//14 51//22 49//18
f 43//14 49//18 41//7
f 59//34 51//22 53//37
f 59//34 53//37 57//45
f 11//15 36//17 38//27
f 11//15 38//27 17//30
f 26//49 135//107 132//91
f 26//49 132//91 29//65
f 18//29 39//28 37//9
f 18//29 37//9 12//8
f 123//147 149//148 153//153
f 123//147 153//153 125//151
f 123//147 117//142 115//125
f 123//147 115//125 121//129
f 12//8 37//9 35//5
f 12//8 35//5 8//3
f 151//132 157//143 147//121
f 151//132 147//121 145//112
f 122//139 120//127 114//123
f 122//139 114//123 116//137
f 58//38 56//43 52//36
f 58//38 52//36 50//24
f 4//13 10//23 16//44
f 4//13 16//44 14//35
f 84//72 128//72 126//72
f 126//72 133//95 113//99
f 126//72 113//99 73//82
f 126//72 73//82 55//63
f 126//72 55//63 47//60
f 47//60 27//62 20//61
f 47//60 20//61 77//85
f 47//60 77//85 79//80
f 47//60 79//80 82//79
f 47//60 82//79 84//72
f 84//72 126//72 47//60
f 91//104 93//103 89//93
f 91//104 89//93 87//92
f 149//148 157//143 159//154
f 149//148 159//154 153//153
f 101//122 94//101 96//88
f 101//122 96//88 99//111
f 99//111 96//88 69//81
f 69//81 64//68 57//45
f 69//81 57//45 55//63
f 69//81 55//63 73//82
f 69//81 73//82 97//78
f 97//78 105//94 99//111
f 69//81 97//78 99//111
f 51//22 43//14 45//32
f 51//22 45//32 53//37
f 34//6 7//4 8//3
f 34//6 8//3 35//5
f 17//30 38//27 44//33
f 17//30 44//33 46//46
f 17//30 46//46 19//48
f 19//48 13//31 17//30
f 78//74 30//58 32//59
f 32//59 75//73 85//84
f 85//84 127//97 129//98
f 129//98 80//75 81//76
f 76//76 78//74 32//59
f 76//76 32//59 85//84
f 85//84 129//98 81//76
f 85//84 81//76 76//76
f 60//26 61//25 68//50
f 60//26 68//50 67//52
f 29//65 132//91 145//112
f 145//112 137//89 130//71
f 145//112 130//71 82//79
f 145//112 82//79 79//80
f 145//112 79//80 31//86
f 31//86 24//67 16//44
f 31//86 16//44 29//65
f 145//112 31//86 29//65
f 14//35 16//44 24//67
f 14//35 24//67 20//61
f 36//17 34//6 40//10
f 36//17 40//10 42//20
f 67//52 65//51 58//38
f 67//52 58//38 60//26
f 65//51 63//56 56//43
f 65//51 56//43 58//38
f 11//15 17//30 13//31
f 11//15 13//31 3//12
f 109//134 117//142 119//149
f 109//134 119//149 111//138
f 151//132 135//107 139//114
f 151//132 139//114 155//140
f 143//124 121//129 115//125
f 143//124 115//125 113//99
f 143//124 113//99 133//95
f 143//124 133//95 141//96
f 141//96 147//121 143//124
f 51//22 59//34 61//25
f 51//22 61//25 49//18
f 140//108 112//110 114//123
f 140//108 114//123 120//127
f 140//108 120//127 142//128
f 142//128 146//126 140//108
f 60//26 58//38 50//24
f 60//26 50//24 48//19
f 22//42 139//114 135//107
f 22//42 135//107 26//49
f 10//23 26//49 29//65
f 10//23 29//65 16//44
f 127//97 104//106 112//110
f 127//97 112//110 140//108
f 127//97 140//108 136//109
f 127//97 136//109 129//98
f 157//143 151//132 155//140
f 157//143 155//140 159//154
f 156//144 158//155 154//145
f 156//144 154//145 150//135
f 117//142 123//147 125//151
f 117//142 125//151 119//149
f 123//147 121//129 143//124
f 123//147 143//124 149//148
f 73//82 113//99 105//94
f 73//82 105//94 97//78
f 101//122 109//134 111//138
f 101//122 111//138 103//131
f 100//118 102//130 110//136
f 100//118 110//136 108//133
f 135//107 151//132 145//112
f 135//107 145//112 132//91
f 93//103 91//104 102//130
f 93//103 102//130 100//118
f 86//83 95//100 98//113
f 86//83 98//113 104//106
f 86//83 104//106 85//84
f 86//83 85//84 75//73
f 86//83 75//73 62//64
f 86//83 62//64 63//56
f 128//72 84//72 82//79
f 128//72 82//79 130//71
f 128//72 130//71 137//89
f 128//72 137//89 141//96
f 128//72 141//96 133//95
f 133//95 126//72 128//72
f 18//29 14//35 20//61
f 18//29 20//61 27//62
f 140//108 146//126 144//117
f 140//108 144//117 136//109
f 76//76 81//76 80//75
f 76//76 80//75 78//74
f 59//34 66//55 68//50
f 59//34 68//50 61//25
f 122//139 148//141 142//128
f 122//139 142//128 120//127
f 34//6 36//17 11//15
f 34//6 11//15 7//4
f 66//55 59//34 57//45
f 66//55 57//45 64//68
f 142//128 148//141 156//144
f 142//128 156//144 146//126
f 139//114 22//42 21//40
f 139//114 21//40 138//116
f 43//14 37//9 39//28
f 43//14 39//28 45//32
f 115//125 107//119 99//111
f 115//125 99//111 105//94
f 105//94 113//99 115//125
f 134//115 138//116 21//40
f 134//115 21//40 25//41
f 34//6 35//5 41//7
f 34//6 41//7 40//10
f 30//58 78//74 80//75
f 30//58 80//75 129//98
f 30//58 129//98 131//102
f 131//102 28//54 30//58
f 119//149 118//146 110//136
f 119//149 110//136 111//138
f 1//1 2//2 8//3
f 1//1 8//3 7//4
f 26//49 10//23 6//16
f 26//49 6//16 22//42
f 125//151 153//153 152//152
f 125//151 152//152 124//150
f 145//112 147//121 141//96
f 145//112 141//96 137//89
f 54//53 62//64 75//73
f 54//53 75//73 32//59
f 32//59 33//57 54//53
f 95//100 93//103 100//118
f 95//100 100//118 98//113
f 3//12 13//31 15//39
f 3//12 15//39 9//21
f 7//4 11//15 3//12
f 7//4 3//12 1//1
f 89//93 83//77 74//77
f 89//93 74//77 65//51
f 124//150 122//139 116//137
f 124//150 116//137 118//146
f 33//57 32//59 30//58
f 33//57 30//58 23//47
f 33//57 23//47 19//48
f 33//57 19//48 46//46
f 33//57 46//46 54//53
f 71//69 72//66 88//90
f 71//69 88//90 87//92
f 98//113 100//118 108//133
f 98//113 108//133 106//120
f 44//33 42//20 50//24
f 44//33 50//24 52//36
f 39//28 18//29 27//62
f 39//28 27//62 47//60
f 47//60 45//32 39//28
f 4//13 12//8 8//3
f 4//13 8//3 2//2
f 118//146 116//137 108//133
f 118//146 108//133 110//136
f 94//101 90//87 70//70
f 70//70 66//55 64//68
f 70//70 64//68 69//81
f 70//70 69//81 96//88
f 70//70 96//88 94//101
f 1//1 3//12 9//21
f 1//1 9//21 5//11
