o central_mirror
v -0.139454 1.53187 3.90464
v -0.139454 1.53188 3.90613
v -0.139454 1.56093 3.90462
v -0.139454 1.56093 3.90611
v -0.139206 1.53234 3.90449
v -0.139206 1.53234 3.90629
v -0.139206 1.56046 3.90447
v -0.139206 1.56046 3.90627
v -0.137767 1.51977 3.90465
v -0.137767 1.51977 3.90614
v -0.137767 1.57305 3.90461
v -0.137767 1.57305 3.9061
v -0.137568 1.52062 3.9045
v -0.137568 1.52062 3.9063
v -0.137568 1.57218 3.90446
v -0.137568 1.57218 3.90626
v -0.134959 1.5125 3.90465
v -0.134959 1.5125 3.90614
v -0.134959 1.58031 3.90461
v -0.134959 1.58031 3.90609
v -0.134849 1.51357 3.90451
v -0.134849 1.51358 3.9063
v -0.134849 1.57923 3.90446
v -0.134849 1.57923 3.90625
v -0.127377 1.50887 3.90466
v -0.127377 1.50887 3.90615
v -0.127377 1.58394 3.9046
v -0.127377 1.58394 3.90609
v -0.11139 1.50766 3.90466
v -0.11139 1.50766 3.90615
v -0.11139 1.58515 3.9046
v -0.11139 1.58515 3.90609
v 0.135397 1.50766 3.90466
v 0.135397 1.50766 3.90615
v 0.135397 1.58515 3.9046
v 0.135397 1.58515 3.90609
v 0.151384 1.50887 3.90466
v 0.151384 1.50887 3.90615
v 0.151384 1.58394 3.9046
v 0.151384 1.58394 3.90609
v 0.158856 1.51357 3.90451
v 0.158856 1.51358 3.9063
v 0.158856 1.57923 3.90446
v 0.158856 1.57923 3.90625
v 0.158966 1.5125 3.90465
v 0.158966 1.5125 3.90614
v 0.158966 1.58031 3.90461
v 0.158966 1.58031 3.90609
v 0.161575 1.52062 3.9045
v 0.161575 1.52062 3.9063
v 0.161575 1.57218 3.90446
v 0.161575 1.57218 3.90626
v 0.161774 1.51977 3.90465
v 0.161774 1.51977 3.90614
v 0.161774 1.57305 3.90461
v 0.161774 1.57305 3.9061
v 0.163213 1.53234 3.90449
v 0.163213 1.53234 3.90629
v 0.163213 1.56046 3.90447
v 0.163213 1.56046 3.90627
v 0.163461 1.53187 3.90464
v 0.163461 1.53188 3.90613
v 0.163461 1.56093 3.90462
v 0.163461 1.56093 3.90611
vt 0.00590138 0.904683
vt 0.00590209 0.0953172
vt 0.0130461 0.957113
vt 0.0130468 0.042887
vt 0.0344796 0.981977
vt 0.0344803 0.0180225
vt 0.0408048 0.0183806
vt 0.0408048 0.981619
vt 0.0773474 0.991188
vt 0.0773481 0.00881217
vt 0.0823837 0.00946312
vt 0.0823844 0.990537
vt 0.148794 0.99672
vt 0.148795 0.00327965
vt 0.151548 0.00409314
vt 0.151548 0.995907
vt 0.317511 0.995907
vt 0.317512 0.00409324
vt 0.320264 0.99672
vt 0.320265 0.0032796
vt 0.386673 0.990537
vt 0.386674 0.00946321
vt 0.391769 0.00881222
vt 0.391769 0.991188
vt 0.428253 0.981619
vt 0.428254 0.0183806
vt 0.434636 0.0180225
vt 0.434636 0.981978
vt 0.456069 0.957113
vt 0.456071 0.0428871
vt 0.463215 0.0953173
vt 0.463215 0.904683
vt 0.475017 0.0953173
vt 0.475017 0.904683
vt 0.482162 0.042887
vt 0.482162 0.957113
vt 0.503596 0.0180224
vt 0.503596 0.981977
vt 0.50992 0.0183805
vt 0.50992 0.981619
vt 0.546463 0.991188
vt 0.546464 0.00881217
vt 0.551501 0.00946307
vt 0.551501 0.990537
vt 0.61791 0.0032796
vt 0.617912 0.99672
vt 0.620662 0.00409314
vt 0.620662 0.995907
vt 0.786627 0.00409314
vt 0.786628 0.995907
vt 0.789378 0.0032796
vt 0.78938 0.99672
vt 0.855789 0.00946307
vt 0.855789 0.990537
vt 0.860884 0.991188
vt 0.860885 0.00881217
vt 0.897369 0.0183805
vt 0.897369 0.981619
vt 0.90375 0.0180224
vt 0.90375 0.981977
vt 0.925185 0.042887
vt 0.925185 0.957113
vt 0.93233 0.0953173
vt 0.93233 0.904683
vt 0.944133 0.0032796
vt 0.944133 0.0281442
vt 0.944133 0.0805743
vt 0.944133 0.88994
vt 0.944133 0.94237
vt 0.944133 0.967234
vt 0.952915 0.0281442
vt 0.952915 0.0805743
vt 0.952915 0.88994
vt 0.952915 0.94237
vt 0.952918 0.0032796
vt 0.952918 0.967234
vt 0.964721 0.0751355
vt 0.964722 0.0248877
vt 0.964724 0.0032796
vt 0.964724 0.864391
vt 0.964724 0.916399
vt 0.964725 0.943284
vt 0.973503 0.0751355
vt 0.973505 0.0248876
vt 0.973505 0.916399
vt 0.973508 0.864392
vt 0.973509 0.0032796
vt 0.973509 0.943284
vt 0.985312 0.0271023
vt 0.985312 0.256788
vt 0.985312 0.391722
vt 0.985313 0.201838
vt 0.985313 0.296834
vt 0.985313 0.430785
vt 0.985313 0.453662
vt 0.985315 0.0032796
vt 0.985315 0.162131
vt 0.985315 0.22566
vt 0.985315 0.23222
vt 0.985316 0.0668402
vt 0.994096 0.391723
vt 0.994096 0.453662
vt 0.994097 0.0271023
vt 0.994097 0.201837
vt 0.994097 0.225661
vt 0.994097 0.23222
vt 0.994097 0.256788
vt 0.994097 0.296833
vt 0.994097 0.430785
vt 0.994099 0.0032796
vt 0.994099 0.0668394
vt 0.994099 0.162131
vn -0.859859 -0.0699484 0.505661
vn -0.859706 0.0705893 0.505844
vn -0.853389 -0.0698263 -0.516526
vn -0.853236 0.0690024 -0.516892
vn -0.797906 -0.22071 0.5609
vn -0.797357 0.22129 0.561418
vn -0.792962 -0.21955 -0.568316
vn -0.792505 0.218513 -0.569292
vn -0.58507 -0.534959 0.609455
vn -0.584918 0.535844 0.608844
vn -0.584033 -0.535234 -0.610218
vn -0.58388 0.534318 -0.611164
vn -0.28132 -0.00640889 0.959563
vn -0.281228 0.0077517 0.959593
vn -0.267464 -0.00732444 -0.96353
vn -0.267403 0.00592059 -0.963561
vn -0.23011 -0.0386059 0.972381
vn -0.229591 0.0398267 0.972442
vn -0.217597 -0.0377819 -0.97528
vn -0.217261 0.036256 -0.975433
vn -0.162236 -0.732078 -0.661611
vn -0.162236 0.73104 -0.662709
vn -0.162114 -0.73162 0.66213
vn -0.162114 0.732597 0.661031
vn -0.123173 -0.054384 0.990875
vn -0.122318 0.0554827 0.990905
vn -0.115848 -0.0524918 -0.991852
vn -0.115207 0.0507828 -0.992035
vn 0.0 -0.716819 -0.697226
vn 0.0 -0.71633 0.697745
vn 0.0 0.71572 -0.698355
vn 0.0 0.717399 0.696646
vn 0.115177 0.0507828 -0.992035
vn 0.115848 -0.0524918 -0.991852
vn 0.122318 0.0554827 0.990905
vn 0.123173 -0.054384 0.990875
vn 0.162114 -0.73162 0.66213
vn 0.162114 0.732597 0.661031
vn 0.162236 -0.732078 -0.661611
vn 0.162236 0.73104 -0.662709
vn 0.2172 0.036256 -0.975433
vn 0.217658 -0.0377819 -0.97528
vn 0.229621 0.0398267 0.972442
vn 0.230049 -0.0386059 0.972381
vn 0.267403 0.00592059 -0.96353
vn 0.267495 -0.00732444 -0.9635
vn 0.281198 0.0077517 0.959593
vn 0.281289 -0.00640889 0.959593
vn 0.58388 0.534318 -0.611164
vn 0.584033 -0.535234 -0.610218
vn 0.584887 0.535844 0.608844
vn 0.58507 -0.534959 0.609455
vn 0.792505 0.218513 -0.569323
vn 0.792962 -0.21955 -0.568316
vn 0.797357 0.22129 0.561418
vn 0.797906 -0.22071 0.5609
vn 0.853236 0.0690024 -0.516892
vn 0.853389 -0.0698263 -0.516526
vn 0.859706 0.0705893 0.505844
vn 0.859859 -0.0699484 0.505661
f 51/54/41 43/58/33 47/60/49
f 51/54/41 47/60/49 55/55/53
f 59/50/45 51/54/41 55/55/53
f 59/50/45 55/55/53 63/52/57
f 24/25/26 16/21/18 8/17/14
f 24/25/26 8/17/14 6/16/13
f 6/16/13 14/12/17 24/25/26
f 49/44/42 57/48/46 61/46/58
f 49/44/42 61/46/58 53/41/54
f 20/82/10 28/81/24 27/85/22
f 20/82/10 27/85/22 19/88/12
f 38/71/37 34/72/30 30/73/30
f 30/73/30 26/74/23 25/69/21
f 30/73/30 25/69/21 29/68/29
f 30/73/30 29/68/29 33/67/29
f 30/73/30 33/67/29 37/66/39
f 30/73/30 37/66/39 38/71/37
f 45/98/50 53/92/54 54/104/56
f 45/98/50 54/104/56 46/105/52
f 39/84/40 35/83/31 31/86/31
f 31/86/31 27/85/22 28/81/24
f 31/86/31 28/81/24 32/80/32
f 31/86/31 32/80/32 36/77/32
f 31/86/31 36/77/32 40/78/38
f 31/86/31 40/78/38 39/84/40
f 37/66/39 45/65/50 46/75/52
f 37/66/39 46/75/52 38/71/37
f 20/102/10 19/95/12 11/94/8
f 20/102/10 11/94/8 12/109/6
f 17/70/11 25/69/21 26/74/23
f 17/70/11 26/74/23 18/76/9
f 64/111/59 62/112/60 61/97/58
f 64/111/59 61/97/58 63/100/57
f 48/79/51 47/87/49 39/84/40
f 48/79/51 39/84/40 40/78/38
f 54/104/56 53/92/54 61/97/58
f 54/104/56 61/97/58 62/112/60
f 23/57/28 15/53/20 11/56/8
f 23/57/28 11/56/8 19/59/12
f 50/11/44 42/7/36 46/6/52
f 50/11/44 46/6/52 54/10/56
f 24/25/26 44/26/35 48/27/51
f 24/25/26 48/27/51 40/30/38
f 24/25/26 40/30/38 36/31/32
f 24/25/26 36/31/32 32/32/32
f 24/25/26 32/32/32 28/29/24
f 28/29/24 20/28/10 24/25/26
f 14/12/17 6/16/13 2/13/1
f 14/12/17 2/13/1 10/9/5
f 5/47/15 13/43/19 9/42/7
f 5/47/15 9/42/7 1/45/3
f 43/58/33 51/54/41 59/50/45
f 43/58/33 59/50/45 57/48/46
f 57/48/46 49/44/42 43/58/33
f 22/8/25 14/12/17 10/9/5
f 22/8/25 10/9/5 18/5/9
f 63/100/57 55/89/53 56/103/55
f 63/100/57 56/103/55 64/111/59
f 3/91/4 1/93/3 2/108/1
f 3/91/4 2/108/1 4/101/2
f 42/7/36 52/22/43 44/26/35
f 42/7/36 44/26/35 24/25/26
f 42/7/36 24/25/26 14/12/17
f 14/12/17 22/8/25 42/7/36
f 8/17/14 16/21/18 12/24/6
f 8/17/14 12/24/6 4/19/2
f 47/60/49 43/58/33 23/57/28
f 47/60/49 23/57/28 19/59/12
f 47/60/49 19/59/12 27/61/22
f 47/60/49 27/61/22 31/63/31
f 47/60/49 31/63/31 35/64/31
f 35/64/31 39/62/40 47/60/49
f 13/43/19 5/47/15 7/49/16
f 13/43/19 7/49/16 15/53/20
f 15/53/20 21/39/27 13/43/19
f 42/7/36 22/8/25 18/5/9
f 42/7/36 18/5/9 26/3/23
f 42/7/36 26/3/23 30/1/30
f 42/7/36 30/1/30 34/2/30
f 42/7/36 34/2/30 38/4/37
f 38/4/37 46/6/52 42/7/36
f 13/43/19 21/39/27 17/37/11
f 13/43/19 17/37/11 9/42/7
f 10/107/5 2/108/1 1/93/3
f 10/107/5 1/93/3 9/90/7
f 17/37/11 21/39/27 41/40/34
f 17/37/11 41/40/34 45/38/50
f 17/37/11 45/38/50 37/36/39
f 17/37/11 37/36/39 33/34/29
f 17/37/11 33/34/29 29/33/29
f 29/33/29 25/35/21 17/37/11
f 5/47/15 1/45/3 3/51/4
f 5/47/15 3/51/4 7/49/16
f 41/40/34 21/39/27 15/53/20
f 41/40/34 15/53/20 23/57/28
f 41/40/34 23/57/28 43/58/33
f 43/58/33 49/44/42 41/40/34
f 57/48/46 59/50/45 63/52/57
f 57/48/46 63/52/57 61/46/58
f 15/53/20 7/49/16 3/51/4
f 15/53/20 3/51/4 11/56/8
f 58/15/48 62/14/60 64/20/59
f 58/15/48 64/20/59 60/18/47
f 16/21/18 24/25/26 20/28/10
f 16/21/18 20/28/10 12/24/6
f 8/17/14 4/19/2 2/13/1
f 8/17/14 2/13/1 6/16/13
f 41/40/34 49/44/42 53/41/54
f 41/40/34 53/41/54 45/38/50
f 17/99/11 18/106/9 10/107/5
f 17/99/11 10/107/5 9/90/7
f 44/26/35 52/22/43 56/23/55
f 44/26/35 56/23/55 48/27/51
f 58/15/48 50/11/44 54/10/56
f 58/15/48 54/10/56 62/14/60
f 3/91/4 4/101/2 12/109/6
f 3/91/4 12/109/6 11/94/8
f 52/22/43 60/18/47 64/20/59
f 52/22/43 64/20/59 56/23/55
f 47/96/49 48/110/51 56/103/55
f 47/96/49 56/103/55 55/89/53
f 50/11/44 58/15/48 60/18/47
f 50/11/44 60/18/47 52/22/43
f 52/22/43 42/7/36 50/11/44
