o left
v 1.01965 1.13044 3.93645
v 1.01965 1.33168 3.93406
v 1.01992 1.13045 3.93741
v 1.01992 1.33169 3.93501
v 1.01998 1.13046 3.93766
v 1.01998 1.33169 3.93526
v 1.02004 1.13046 3.93787
v 1.02004 1.33169 3.93547
v 1.02088 1.1124 3.93637
v 1.02088 1.34704 3.93355
v 1.02127 1.11242 3.93779
v 1.02127 1.34706 3.93496
v 1.02203 1.34694 3.9331
v 1.0225 1.34696 3.9348
v 1.02456 1.09561 3.93561
v 1.02456 1.35839 3.93242
v 1.0249 1.09563 3.93681
v 1.02495 1.09563 3.93702
v 1.02495 1.3584 3.93383
v 1.02561 1.0961 3.93517
v 1.02561 1.35805 3.932
v 1.02608 1.09612 3.93687
v 1.02608 1.35807 3.9337
v 1.03194 1.082 3.93378
v 1.03194 1.36608 3.93032
v 1.03199 1.082 3.93396
v 1.03199 1.36609 3.93051
v 1.03205 1.08201 3.9342
v 1.03226 1.08202 3.93499
v 1.03232 1.08202 3.93519
v 1.03232 1.3661 3.93174
v 1.03276 1.08292 3.93341
v 1.03277 1.3655 3.92997
v 1.03323 1.08295 3.9351
v 1.03324 1.36553 3.93166
v 1.04422 1.07353 3.93053
v 1.04422 1.37049 3.92692
v 1.04427 1.07353 3.93072
v 1.04427 1.37049 3.9271
v 1.04433 1.3705 3.92733
v 1.04434 1.07354 3.93096
v 1.04448 1.07354 3.9315
v 1.04455 1.07355 3.93175
v 1.04455 1.37051 3.92813
v 1.04461 1.07355 3.93195
v 1.04461 1.37051 3.92833
v 1.04466 1.0747 3.93026
v 1.04466 1.36979 3.92666
v 1.04512 1.07473 3.93196
v 1.04512 1.3698 3.92837
v 1.04658 1.36768 3.92811
v 1.05981 1.37245 3.92253
v 1.05993 1.37245 3.92295
v 1.06013 1.06893 3.92625
v 1.06015 1.37246 3.92373
v 1.06018 1.06894 3.92644
v 1.0602 1.37246 3.92394
v 1.06032 1.06894 3.92695
v 1.06037 1.37169 3.92408
v 1.0604 1.06895 3.92721
v 1.06052 1.06895 3.92767
v 1.07712 1.36962 3.91728
v 1.07712 1.37275 3.91748
v 1.07717 1.37275 3.91767
v 1.07748 1.34585 3.91744
v 1.0775 1.37276 3.91889
v 1.07764 1.36965 3.91921
v 1.07838 1.06697 3.92131
v 1.07843 1.06697 3.92149
v 1.0785 1.06698 3.92173
v 1.07865 1.06698 3.92226
v 1.07871 1.06699 3.92252
v 1.07876 1.06699 3.92272
v 1.09453 1.37146 3.91197
v 1.09453 1.37223 3.9121
v 1.09463 1.36911 3.9119
v 1.09479 1.37224 3.91306
v 1.09486 1.36444 3.9119
v 1.09492 1.37225 3.91352
v 1.095 1.37147 3.91369
v 1.09516 1.36914 3.91383
v 1.09575 1.34536 3.91207
v 1.09768 1.06639 3.91608
v 1.09769 1.06723 3.91591
v 1.09787 1.0664 3.91677
v 1.09801 1.06641 3.91729
v 1.09806 1.06641 3.9175
v 1.09817 1.06727 3.91762
v 1.11045 1.37172 3.90672
v 1.1105 1.37094 3.90659
v 1.1105 1.37172 3.9069
v 1.11057 1.37172 3.90714
v 1.11071 1.37172 3.90768
v 1.11074 1.36859 3.90653
v 1.11078 1.37173 3.90793
v 1.11084 1.37173 3.90813
v 1.11097 1.37095 3.9083
v 1.11123 1.36391 3.90652
v 1.11125 1.36862 3.90845
v 1.11673 1.06595 3.91095
v 1.11675 1.06643 3.91079
v 1.11678 1.06595 3.91114
v 1.11699 1.06596 3.91191
v 1.11712 1.06597 3.91237
v 1.11723 1.06647 3.9125
v 1.11779 1.06976 3.91022
v 1.12468 1.37044 3.90168
v 1.12473 1.37044 3.90187
v 1.1248 1.37045 3.90211
v 1.12501 1.37045 3.90289
v 1.12507 1.37046 3.9031
v 1.12516 1.3697 3.9033
v 1.12533 1.36743 3.90354
v 1.13227 1.30939 3.90203
v 1.13348 1.28511 3.90231
v 1.13426 1.0672 3.90588
v 1.13434 1.06586 3.90609
v 1.13445 1.06569 3.90621
v 1.13466 1.06647 3.90793
v 1.13481 1.06591 3.9078
v 1.13482 1.06572 3.90763
v 1.13676 1.36493 3.89957
v 1.13681 1.36696 3.89734
v 1.13704 1.36764 3.89734
v 1.13714 1.36764 3.89775
v 1.13721 1.36766 3.89802
v 1.13727 1.36698 3.89904
v 1.13735 1.36766 3.89855
v 1.13741 1.36766 3.89875
v 1.14678 1.36204 3.89414
v 1.14692 1.30873 3.89767
v 1.1472 1.06635 3.90247
v 1.14724 1.36206 3.89583
v 1.1473 1.36257 3.89402
v 1.14748 1.36258 3.89471
v 1.1475 1.30875 3.89982
v 1.14768 1.36258 3.89543
v 1.14784 1.06651 3.90447
v 1.14795 1.06594 3.90235
v 1.14851 1.06605 3.90423
v 1.14866 1.28438 3.89793
v 1.14924 1.06574 3.90211
v 1.14924 1.2844 3.9001
v 1.14971 1.06567 3.90213
v 1.14972 1.0658 3.90381
v 1.14976 1.06567 3.90232
v 1.14982 1.06568 3.90256
v 1.14989 1.06569 3.90282
v 1.14997 1.0657 3.90309
v 1.15003 1.06571 3.90334
v 1.15008 1.06572 3.90355
v 1.15168 1.34283 3.89419
v 1.15223 1.35337 3.89308
v 1.15451 1.35418 3.89226
v 1.15489 1.06643 3.90044
v 1.15497 1.35421 3.89396
v 1.15525 1.3279 3.89411
v 1.1553 1.35446 3.89209
v 1.15548 1.35446 3.89277
v 1.15549 1.06662 3.90241
v 1.15556 1.35447 3.89304
v 1.15562 1.35447 3.8933
v 1.15568 1.35447 3.8935
v 1.15813 1.06617 3.89964
v 1.15868 1.06632 3.90151
v 1.16041 1.34285 3.89139
v 1.16056 1.06598 3.89909
v 1.16087 1.34287 3.8931
v 1.16103 1.06609 3.90079
v 1.1614 1.34289 3.8912
v 1.16141 1.06592 3.89901
v 1.16146 1.06594 3.89919
v 1.16152 1.06595 3.89943
v 1.16159 1.06597 3.8997
v 1.16166 1.32762 3.89215
v 1.16167 1.06598 3.89997
v 1.16173 1.066 3.90021
v 1.16173 1.3429 3.8924
v 1.16177 1.3429 3.89261
v 1.16178 1.06601 3.90042
v 1.16434 1.06669 3.89796
v 1.16483 1.30787 3.89236
v 1.1649 1.06691 3.89985
v 1.16533 1.32749 3.89294
v 1.16596 1.32743 3.89102
v 1.16635 1.32744 3.89244
v 1.16739 1.06656 3.89726
v 1.16787 1.06675 3.89895
v 1.16822 1.30771 3.89145
v 1.16843 1.06653 3.89713
v 1.16848 1.06655 3.89731
v 1.16855 1.06658 3.89754
v 1.16862 1.06661 3.89781
v 1.16868 1.30772 3.89315
v 1.1687 1.06664 3.89808
v 1.16876 1.06666 3.89833
v 1.16882 1.06669 3.89854
v 1.16906 1.2568 3.89292
v 1.16937 1.30765 3.89124
v 1.16975 1.30767 3.89265
v 1.17087 1.06857 3.89628
v 1.17135 1.06884 3.89799
v 1.17199 1.28315 3.8915
v 1.17201 1.06856 3.89613
v 1.17216 1.07311 3.89586
v 1.17219 1.06867 3.89682
v 1.17226 1.06872 3.89709
v 1.17233 1.06875 3.89733
v 1.17237 1.28316 3.89291
v 1.17239 1.06879 3.89754
v 1.17264 1.07345 3.89756
v 1.17332 1.07312 3.8957
v 1.17364 1.07336 3.8969
v 1.1737 1.0734 3.89711
v 1.1739 1.25653 3.89179
v 1.17394 1.0816 3.8969
v 1.17423 1.25655 3.893
v 1.17428 1.25655 3.89321
v 1.17433 1.09446 3.89656
v 1.17552 1.19029 3.89461
v 1.17553 1.23044 3.89331
v 1.17637 1.17774 3.89295
v 1.17675 1.17776 3.89437
vn -0.965697 -0.0317392 0.257668
vn -0.965423 -0.0312815 0.258766
vn -0.96527 0.0440992 0.257485
vn -0.964934 0.0440077 0.258675
vn -0.904202 -0.356365 0.235359
vn -0.884457 0.148961 -0.442183
vn -0.88049 0.023133 -0.473434
vn -0.879421 -0.0307321 -0.475021
vn -0.87817 -0.110508 -0.465346
vn -0.853542 -0.281289 -0.438551
vn -0.809046 0.405255 -0.425611
vn -0.717093 -0.537645 -0.443464
vn -0.707144 -0.676504 0.205573
vn -0.703055 -0.679769 0.208716
vn -0.70275 -0.679434 0.210791
vn -0.570452 0.649525 -0.50264
vn -0.5468 0.164434 0.820917
vn -0.531022 -0.26896 0.803491
vn -0.528367 -0.0932646 0.843837
vn -0.524583 0.0383618 0.850459
vn -0.523759 -0.0146489 0.851711
vn -0.518479 0.847377 0.114353
vn -0.49031 0.420484 0.763359
vn -0.475387 -0.696463 -0.537492
vn -0.398114 -0.909055 0.122806
vn -0.397839 -0.909177 0.122837
vn -0.396832 -0.908475 0.131046
vn -0.39552 -0.908811 0.132664
vn -0.390271 -0.527512 0.75457
vn -0.338054 0.756706 -0.559526
vn -0.321421 0.0642109 -0.944731
vn -0.320597 0.0272835 -0.946806
vn -0.31077 0.00543229 -0.950438
vn -0.310129 -0.0567949 -0.948973
vn -0.309793 -0.0357067 -0.950102
vn -0.30958 -0.0251473 -0.95053
vn -0.309091 -0.0551164 -0.9494
vn -0.305948 0.065096 -0.949797
vn -0.305918 -0.0184332 -0.951872
vn -0.304483 -0.746879 -0.591113
vn -0.302133 -0.00219733 -0.953246
vn -0.30134 0.073336 -0.950682
vn -0.297433 -0.0279855 -0.954314
vn -0.287637 -0.0151372 -0.95761
vn -0.287515 0.0834376 -0.954131
vn -0.283578 -0.0520951 -0.957518
vn -0.28074 -0.024659 -0.959441
vn -0.276711 -0.0134892 -0.960845
vn -0.266427 -0.101016 -0.958525
vn -0.263283 -0.0327769 -0.964141
vn -0.261452 -0.0400403 -0.964354
vn -0.258461 -0.17542 -0.949919
vn -0.258248 -0.121342 -0.958403
vn -0.254799 0.677725 0.689749
vn -0.253945 -0.114322 -0.960418
vn -0.249641 -0.141148 -0.957976
vn -0.246712 -0.223579 -0.94293
vn -0.244148 -0.321635 -0.914823
vn -0.239082 -0.435987 -0.86758
vn -0.238838 -0.0375072 -0.970306
vn -0.228034 -0.030549 -0.973144
vn -0.226203 0.769982 -0.596576
vn -0.223304 0.974151 0.033845
vn -0.222999 0.97412 0.0360424
vn -0.220923 -0.74694 -0.627094
vn -0.220527 0.974395 0.0431532
vn -0.197699 -0.0281075 -0.979827
vn -0.183142 -0.685812 -0.704337
vn -0.18189 -0.122044 -0.975707
vn -0.18131 -0.618458 -0.76458
vn -0.177007 0.774438 -0.607349
vn -0.176427 -0.982177 0.0644246
vn -0.176031 -0.982238 0.0645161
vn -0.175817 -0.79104 -0.585925
vn -0.173406 -0.981994 0.0748619
vn -0.173223 0.770837 -0.612995
vn -0.170934 -0.464675 -0.868801
vn -0.166021 0.767846 -0.618702
vn -0.163152 -0.82461 -0.541612
vn -0.13892 -0.690939 0.709403
vn -0.116611 0.734275 -0.668722
vn -0.114566 -0.921415 -0.371258
vn -0.0699484 -0.997497 -0.00964385
vn -0.0674459 0.99765 0.0118412
vn -0.0673849 0.99762 0.0128178
vn -0.0635701 -0.997955 0.00473037
vn -0.051912 -0.997467 0.0480056
vn -0.0517899 -0.997497 0.0479751
vn -0.0510269 -0.972655 -0.226539
vn -0.0428175 -0.997467 -0.0564898
vn -0.0190435 -0.953093 -0.302042
vn -0.0169073 -0.999573 -0.0233772
vn -0.0138249 0.780541 0.624928
vn -0.0111393 -0.999084 -0.0407117
vn -0.00772118 -0.998291 0.0573748
vn 0.00454726 -0.999634 -0.0257881
vn 0.005768 -0.999695 -0.0227973
vn 0.00735496 0.999969 0.0019837
vn 0.0216071 0.999298 -0.0303964
vn 0.0238044 0.716727 -0.696921
vn 0.0439161 -0.72512 0.687185
vn 0.0481277 0.998199 -0.0356456
vn 0.0488907 0.998169 -0.0350352
vn 0.0499893 -0.998718 0.00335704
vn 0.0502945 -0.998718 0.00152593
vn 0.0540788 -0.998505 0.00720237
vn 0.054445 -0.998291 0.0211798
vn 0.0549028 -0.998444 0.00921659
vn 0.0573748 0.998321 -0.00723289
vn 0.0610065 0.998108 0.00344859
vn 0.0619831 -0.978393 0.19715
vn 0.0824305 -0.942839 0.322855
vn 0.0893582 -0.9317 0.352031
vn 0.0950957 -0.908811 0.406201
vn 0.122745 0.774407 0.620624
vn 0.127689 -0.819178 -0.559099
vn 0.130528 -0.727866 0.673147
vn 0.133763 0.989135 -0.0608539
vn 0.135166 0.989105 -0.057741
vn 0.135197 -0.839076 0.526902
vn 0.135777 0.989013 -0.0579241
vn 0.147526 -0.763207 0.629048
vn 0.147923 -0.934324 0.324229
vn 0.193365 0.752983 0.628925
vn 0.195532 0.0603961 0.97882
vn 0.201147 -0.649892 0.732902
vn 0.207221 0.788049 0.579638
vn 0.212165 -0.0350352 0.976592
vn 0.212531 0.107028 0.971252
vn 0.213752 0.0254219 0.976531
vn 0.219703 -0.00408948 0.975524
vn 0.228034 -0.424207 0.87637
vn 0.233436 0.612018 -0.755577
vn 0.234138 -0.574908 0.78399
vn 0.241066 0.792108 0.560717
vn 0.242103 0.135258 0.960753
vn 0.242409 -0.0336009 0.969573
vn 0.246925 -0.211249 0.945708
vn 0.249519 -0.245918 0.936613
vn 0.250832 -0.148106 0.956603
vn 0.259346 -0.0761437 0.962767
vn 0.260079 -0.0677206 0.963195
vn 0.260994 -0.167821 0.950621
vn 0.261757 -0.0540788 0.963591
vn 0.267647 0.0382092 0.962737
vn 0.271157 -0.0903348 0.958281
vn 0.271676 0.123692 0.954375
vn 0.277505 0.047853 0.959502
vn 0.283456 0.0253304 0.958647
vn 0.284402 0.0182196 0.958495
vn 0.294412 -0.399335 0.868221
vn 0.30076 0.0599078 0.951781
vn 0.301309 0.132023 0.944334
vn 0.301706 0.810724 0.501633
vn 0.303537 0.947935 -0.0960417
vn 0.304178 0.947813 -0.0952177
vn 0.30604 0.947935 -0.0876797
vn 0.30607 -0.951628 0.0262459
vn 0.30726 -0.951018 0.0335093
vn 0.309214 -0.950377 0.0333567
vn 0.310617 -0.950072 0.0292062
vn 0.310953 0.00482192 0.950407
vn 0.31254 -0.949767 0.0156865
vn 0.32017 0.0755944 0.944334
vn 0.33137 0.179205 0.926298
vn 0.336558 0.0978118 0.936552
vn 0.341197 -0.0902127 0.935636
vn 0.343638 0.102206 0.9335
vn 0.352977 0.202216 0.91348
vn 0.369732 0.058565 0.927274
vn 0.380627 0.216193 0.899075
vn 0.389386 0.090762 0.916562
vn 0.404553 0.209082 0.890286
vn 0.405499 0.127537 0.905118
vn 0.414258 -0.743675 0.524674
vn 0.418867 0.179937 0.890011
vn 0.422803 0.418531 -0.803735
vn 0.430158 0.778497 0.457015
vn 0.478957 -0.53795 -0.693655
vn 0.509293 0.241218 -0.826075
vn 0.532731 0.128788 -0.836421
vn 0.536912 0.0594501 -0.841517
vn 0.545335 0.0414441 -0.837153
vn 0.551134 0.820215 -0.153172
vn 0.553667 0.023133 -0.832392
vn 0.557451 -0.0166021 -0.830012
vn 0.57796 -0.145604 -0.802942
vn 0.611774 0.686605 0.392712
vn 0.770348 0.597217 -0.223243
vn 0.772027 -0.625141 -0.114505
vn 0.773705 0.596576 -0.213202
vn 0.77398 -0.62273 -0.114566
vn 0.775048 -0.622456 -0.108585
vn 0.775597 0.596393 -0.206702
vn 0.775903 -0.454756 0.437178
vn 0.78103 0.509507 0.361003
vn 0.863186 0.329814 0.382214
vn 0.869961 -0.00970489 0.492996
vn 0.870998 0.0528886 0.488388
vn 0.875973 0.0726035 0.476821
vn 0.877041 -0.00964385 0.4803
vn 0.880886 0.0112308 0.473128
vn 0.892392 -0.103732 0.4391
vn 0.895321 0.201697 0.397076
vn 0.896176 0.374615 -0.237678
vn 0.904416 0.126225 0.407483
vn 0.958037 -0.161534 -0.236702
vn 0.96762 0.0553606 -0.246132
vn 0.968749 0.0412 -0.244484
f 209//200 194//170 220//150
f 220//150 211//162 214//203
f 220//150 214//203 216//198
f 220//150 216//198 219//201
f 220//150 219//201 223//202
f 220//150 223//202 218//199
f 220//150 218//199 209//200
f 4//3 2//7 1//8
f 4//3 1//8 3//1
f 62//48 21//32 33//38
f 62//48 33//38 48//45
f 62//48 48//45 74//42
f 74//42 76//39 62//48
f 211//162 202//167 210//195
f 211//162 210//195 214//203
f 55//84 57//115 66//124
f 55//84 66//124 64//98
f 55//84 64//98 63//71
f 63//71 52//62 53//85
f 63//71 53//85 55//84
f 201//69 187//77 181//56
f 37//30 48//45 33//38
f 37//30 33//38 25//16
f 22//131 18//18 30//29
f 22//131 30//29 34//128
f 139//58 132//53 155//55
f 139//58 155//55 164//57
f 112//169 127//171 129//178
f 112//169 129//178 111//154
f 39//64 25//16 27//22
f 39//64 27//22 40//63
f 118//82 100//79 117//59
f 118//82 117//59 142//68
f 97//165 80//153 81//152
f 97//165 81//152 99//164
f 153//34 175//34 152//34
f 152//34 157//34 98//35
f 152//34 98//35 123//33
f 152//34 123//33 130//44
f 130//44 154//51 166//60
f 130//44 166//60 153//34
f 153//34 152//34 130//44
f 43//25 45//80 30//29
f 43//25 30//29 29//13
f 43//25 29//13 28//15
f 28//15 41//28 42//26
f 28//15 42//26 43//25
f 49//137 88//141 138//144
f 49//137 138//144 183//146
f 49//137 183//146 202//167
f 49//137 202//167 211//162
f 49//137 211//162 220//150
f 220//150 136//149 143//149
f 220//150 143//149 67//148
f 220//150 67//148 51//145
f 220//150 51//145 23//125
f 220//150 23//125 14//130
f 220//150 14//130 22//131
f 220//150 22//131 34//128
f 220//150 34//128 49//137
f 125//156 126//155 128//157
f 125//156 128//157 129//178
f 125//156 129//178 137//188
f 125//156 137//188 135//184
f 125//156 135//184 134//133
f 134//133 124//100 125//156
f 168//174 184//172 186//204
f 168//174 186//204 179//197
f 58//72 60//73 43//25
f 58//72 43//25 42//26
f 102//95 69//87 68//65
f 102//95 68//65 83//74
f 102//95 83//74 100//79
f 102//95 100//79 118//82
f 102//95 118//82 144//89
f 102//95 144//89 146//94
f 102//95 146//94 85//92
f 85//92 147//92 103//114
f 85//92 103//114 71//86
f 85//92 71//86 70//88
f 85//92 70//88 102//95
f 109//121 126//155 125//156
f 109//121 125//156 108//119
f 105//138 119//140 138//144
f 105//138 138//144 88//141
f 3//1 1//8 9//9
f 3//1 9//9 11//19
f 3//1 11//19 7//21
f 7//21 5//2 3//1
f 35//129 50//136 46//93
f 35//129 46//93 31//54
f 166//60 189//61 182//47
f 166//60 182//47 198//47
f 131//47 141//47 114//47
f 114//47 115//47 65//47
f 114//47 65//47 82//47
f 114//47 82//47 62//48
f 62//48 76//39 78//36
f 78//36 94//36 98//35
f 78//36 98//35 157//34
f 157//34 152//34 175//34
f 175//34 153//34 166//60
f 175//34 166//60 198//47
f 175//34 198//47 131//47
f 175//34 131//47 114//47
f 114//47 62//48 78//36
f 114//47 78//36 157//34
f 114//47 157//34 175//34
f 168//174 156//176 133//173
f 168//174 133//173 127//171
f 127//171 113//166 122//168
f 127//171 122//168 168//174
f 89//78 107//81 90//31
f 89//78 90//31 74//42
f 74//42 75//76 89//78
f 169//134 145//126 151//111
f 169//134 151//111 180//123
f 107//81 124//100 123//33
f 107//81 123//33 90//31
f 148//96 173//104 174//105
f 209//200 218//199 221//209
f 209//200 221//209 217//208
f 150//97 176//106 177//108
f 87//122 73//117 72//83
f 87//122 72//83 86//90
f 87//122 86//90 104//120
f 113//166 127//171 112//169
f 113//166 112//169 97//165
f 97//165 99//164 113//166
f 147//92 85//92 146//94
f 147//92 146//94 172//107
f 147//92 172//107 173//104
f 147//92 173//104 148//96
f 148//96 174//105 176//106
f 150//97 177//108 180//123
f 150//97 180//123 151//111
f 150//97 151//111 121//113
f 150//97 121//113 104//120
f 150//97 104//120 86//90
f 150//97 86//90 149//112
f 103//114 147//92 148//96
f 176//106 150//97 149//112
f 149//112 103//114 148//96
f 148//96 176//106 149//112
f 69//87 70//88 71//86
f 69//87 71//86 72//83
f 72//83 73//117 61//101
f 72//83 61//101 60//73
f 72//83 60//73 58//72
f 72//83 58//72 56//75
f 72//83 56//75 68//65
f 72//83 68//65 69//87
f 202//167 188//151 197//175
f 202//167 197//175 210//195
f 43//25 60//73 61//101
f 43//25 61//101 45//80
f 145//126 169//134 165//143
f 145//126 165//143 140//139
f 9//9 15//10 17//5
f 9//9 17//5 11//19
f 109//121 108//119 91//110
f 95//103 93//102 77//99
f 110//118 93//102 95//103
f 109//121 110//118 128//157
f 109//121 128//157 126//155
f 144//89 142//68 167//70
f 144//89 167//70 171//91
f 168//174 122//168 184//172
f 134//133 135//184 159//189
f 134//133 159//189 158//177
f 45//80 61//101 73//117
f 45//80 73//117 88//141
f 88//141 49//137 45//80
f 117//59 101//52 132//53
f 117//59 132//53 139//58
f 178//205 161//191 162//194
f 159//189 161//191 178//205
f 159//189 178//205 170//180
f 159//189 170//180 158//177
f 161//191 159//189 135//184
f 138//144 119//140 140//139
f 138//144 140//139 165//143
f 165//143 160//142 138//144
f 19//23 23//125 35//129
f 19//23 35//129 31//54
f 4//3 6//4 8//20
f 4//3 8//20 12//17
f 4//3 12//17 10//6
f 4//3 10//6 2//7
f 47//46 32//37 20//43
f 47//46 20//43 13//41
f 47//46 13//41 21//32
f 47//46 21//32 62//48
f 62//48 82//47 65//47
f 115//47 114//47 141//47
f 141//47 131//47 198//47
f 198//47 182//47 189//61
f 198//47 189//61 205//67
f 198//47 205//67 201//69
f 198//47 201//69 181//56
f 198//47 181//56 106//50
f 106//50 116//50 84//49
f 106//50 84//49 47//46
f 47//46 62//48 65//47
f 47//46 65//47 115//47
f 47//46 115//47 141//47
f 47//46 141//47 198//47
f 198//47 106//50 47//46
f 156//176 168//174 179//197
f 156//176 179//197 163//196
f 47//46 36//24 24//12
f 47//46 24//12 32//37
f 12//17 19//23 16//11
f 12//17 16//11 10//6
f 53//85 39//64 40//63
f 110//118 109//121 91//110
f 110//118 91//110 92//109
f 92//109 93//102 110//118
f 55//84 53//85 40//63
f 55//84 40//63 44//66
f 92//109 64//98 66//124
f 66//124 95//103 77//99
f 66//124 77//99 93//102
f 66//124 93//102 92//109
f 79//127 95//103 66//124
f 54//40 56//75 41//28
f 54//40 41//28 38//27
f 201//69 204//179 190//116
f 201//69 190//116 187//77
f 17//5 15//10 24//12
f 17//5 24//12 26//14
f 17//5 26//14 28//15
f 28//15 29//13 17//5
f 70//88 69//87 102//95
f 212//187 222//186 223//202
f 212//187 223//202 219//201
f 219//201 213//207 212//187
f 207//192 206//193 204//179
f 207//192 204//179 212//187
f 207//192 212//187 213//207
f 207//192 213//207 214//203
f 207//192 214//203 210//195
f 210//195 208//190 207//192
f 57//115 59//147 80//153
f 57//115 80//153 79//127
f 79//127 66//124 57//115
f 193//158 195//163 196//161
f 193//158 196//161 177//108
f 177//108 176//106 193//158
f 149//112 86//90 103//114
f 193//158 176//106 174//105
f 80//153 59//147 50//136
f 80//153 50//136 51//145
f 80//153 51//145 67//148
f 67//148 81//152 80//153
f 206//193 207//192 195//163
f 191//159 173//104 172//107
f 191//159 192//160 173//104
f 192//160 174//105 173//104
f 192//160 193//158 174//105
f 13//41 10//6 16//11
f 13//41 16//11 21//32
f 74//42 48//45 37//30
f 74//42 37//30 52//62
f 74//42 52//62 63//71
f 63//71 75//76 74//42
f 56//75 54//40 68//65
f 23//125 51//145 50//136
f 23//125 50//136 35//129
f 54//40 38//27 36//24
f 97//165 112//169 111//154
f 97//165 111//154 96//135
f 117//59 139//58 142//68
f 146//94 171//91 172//107
f 146//94 144//89 171//91
f 118//82 142//68 144//89
f 38//27 41//28 28//15
f 38//27 28//15 26//14
f 187//77 171//91 167//70
f 187//77 190//116 171//91
f 223//202 222//186 215//185
f 215//185 217//208 221//209
f 221//209 218//199 223//202
f 215//185 221//209 223//202
f 117//59 100//79 83//74
f 117//59 83//74 101//52
f 190//116 191//159 172//107
f 190//116 172//107 171//91
f 53//85 52//62 37//30
f 53//85 37//30 39//64
f 91//110 89//78 75//76
f 75//76 63//71 64//98
f 75//76 64//98 92//109
f 91//110 75//76 92//109
f 181//56 187//77 167//70
f 181//56 167//70 164//57
f 207//192 208//190 196//161
f 207//192 196//161 195//163
f 56//75 58//72 42//26
f 56//75 42//26 41//28
f 203//183 199//182 200//206
f 203//183 200//206 209//200
f 203//183 209//200 217//208
f 217//208 215//185 203//183
f 188//151 169//134 180//123
f 188//151 180//123 197//175
f 101//52 84//49 116//50
f 116//50 106//50 181//56
f 181//56 164//57 155//55
f 181//56 155//55 132//53
f 181//56 132//53 101//52
f 116//50 181//56 101//52
f 142//68 139//58 164//57
f 142//68 164//57 167//70
f 123//33 134//133 130//44
f 123//33 124//100 134//133
f 169//134 188//151 183//146
f 169//134 183//146 165//143
f 39//64 37//30 25//16
f 205//67 189//61 203//183
f 205//67 203//183 215//185
f 205//67 215//185 222//186
f 222//186 212//187 205//67
f 186//204 184//172 194//170
f 186//204 194//170 209//200
f 209//200 200//206 186//204
f 16//11 27//22 25//16
f 145//126 120//132 104//120
f 145//126 104//120 121//113
f 101//52 83//74 68//65
f 101//52 68//65 84//49
f 94//36 78//36 76//39
f 94//36 76//39 74//42
f 94//36 74//42 90//31
f 94//36 90//31 123//33
f 94//36 123//33 98//35
f 108//119 107//81 89//78
f 108//119 89//78 91//110
f 36//24 38//27 26//14
f 36//24 26//14 24//12
f 44//66 40//63 27//22
f 44//66 27//22 31//54
f 31//54 46//93 44//66
f 46//93 55//84 44//66
f 46//93 57//115 55//84
f 111//154 128//157 110//118
f 111//154 129//178 128//157
f 166//60 154//51 158//177
f 166//60 158//177 170//180
f 166//60 170//180 185//181
f 166//60 185//181 199//182
f 199//182 203//183 189//61
f 166//60 199//182 189//61
f 195//163 193//158 192//160
f 192//160 191//159 190//116
f 192//160 190//116 204//179
f 192//160 204//179 206//193
f 192//160 206//193 195//163
f 79//127 96//135 95//103
f 160//142 165//143 183//146
f 160//142 183//146 138//144
f 96//135 110//118 95//103
f 96//135 111//154 110//118
f 68//65 54//40 36//24
f 68//65 36//24 47//46
f 47//46 84//49 68//65
f 158//177 154//51 130//44
f 158//177 130//44 134//133
f 204//179 201//69 205//67
f 204//179 205//67 212//187
f 22//131 14//130 12//17
f 22//131 12//17 8//20
f 22//131 8//20 7//21
f 22//131 7//21 11//19
f 11//19 18//18 22//131
f 170//180 178//205 179//197
f 170//180 179//197 186//204
f 186//204 185//181 170//180
f 107//81 108//119 125//156
f 107//81 125//156 124//100
f 163//196 178//205 162//194
f 163//196 179//197 178//205
f 99//164 194//170 184//172
f 99//164 184//172 122//168
f 122//168 113//166 99//164
f 80//153 97//165 96//135
f 80//153 96//135 79//127
f 162//194 161//191 135//184
f 162//194 135//184 137//188
f 137//188 163//196 162//194
f 88//141 73//117 87//122
f 88//141 87//122 105//138
f 194//170 99//164 81//152
f 194//170 81//152 67//148
f 67//148 143//149 136//149
f 136//149 220//150 194//170
f 194//170 67//148 136//149
f 133//173 156//176 163//196
f 133//173 163//196 137//188
f 49//137 34//128 30//29
f 49//137 30//29 45//80
f 4//3 3//1 5//2
f 4//3 5//2 6//4
f 12//17 14//130 23//125
f 12//17 23//125 19//23
f 127//171 133//173 137//188
f 127//171 137//188 129//178
f 10//6 13//41 20//43
f 10//6 20//43 15//10
f 10//6 15//10 9//9
f 10//6 9//9 1//8
f 1//8 2//7 10//6
f 197//175 177//108 196//161
f 197//175 180//123 177//108
f 210//195 196//161 208//190
f 210//195 197//175 196//161
f 21//32 16//11 25//16
f 21//32 25//16 33//38
f 216//198 214//203 213//207
f 72//83 71//86 103//114
f 72//83 103//114 86//90
f 16//11 19//23 31//54
f 16//11 31//54 27//22
f 145//126 121//113 151//111
f 120//132 145//126 140//139
f 186//204 200//206 199//182
f 186//204 199//182 185//181
f 20//43 32//37 24//12
f 20//43 24//12 15//10
f 50//136 59//147 57//115
f 50//136 57//115 46//93
f 18//18 29//13 30//29
f 18//18 17//5 29//13
f 11//19 17//5 18//18
f 8//20 6//4 5//2
f 8//20 5//2 7//21
f 188//151 202//167 183//146
f 216//198 213//207 219//201
f 105//138 120//132 140//139
f 105//138 140//139 119//140
f 120//132 105//138 87//122
f 120//132 87//122 104//120
