o camera_lens
v 0.00267497 -0.00775604 1.85482e-05
v 0.00267497 -0.00768969 -0.000993777
v 0.00267497 -0.00768969 0.00103087
v 0.00267497 -0.00749176 -0.00198894
v 0.00267497 -0.00749176 0.00202603
v 0.00267497 -0.00716564 -0.00294952
v 0.00267497 -0.00716564 0.00298686
v 0.00267497 -0.00671693 -0.00385933
v 0.00267497 -0.00671693 0.00389666
v 0.00267497 -0.00615328 -0.00470309
v 0.00267497 -0.00615328 0.00474019
v 0.00267497 -0.00548435 -0.00546579
v 0.00267497 -0.00548435 0.00550289
v 0.00267497 -0.00472158 0.00617189
v 0.00267497 -0.00472157 -0.0061348
v 0.00267497 -0.00387802 -0.00669842
v 0.00267497 -0.00387802 0.00673551
v 0.00267497 -0.00296811 -0.00714712
v 0.00267497 -0.00296811 0.00718422
v 0.00267497 -0.0020074 -0.00747328
v 0.00267497 -0.0020074 0.00751037
v 0.00267497 -0.00101236 -0.00767117
v 0.00267497 -0.00101236 0.00770826
v 0.00267497 2.56114e-08 -0.00773745
v 0.00267497 2.56114e-08 0.00777454
v 0.00267497 0.00101235 -0.00767117
v 0.00267497 0.00101235 0.00770826
v 0.00267497 0.00200739 -0.00747328
v 0.00267497 0.00200739 0.00751037
v 0.00267497 0.0029681 -0.00714712
v 0.00267497 0.0029681 0.00718422
v 0.00267497 0.00387802 -0.00669842
v 0.00267497 0.00387802 0.00673551
v 0.00267497 0.00472155 -0.0061348
v 0.00267497 0.00472155 0.00617189
v 0.00267497 0.00548425 -0.00546579
v 0.00267497 0.00548425 0.00550289
v 0.00267497 0.00615325 -0.00470309
v 0.00267497 0.00615325 0.00474019
v 0.00267497 0.00671699 -0.00385933
v 0.00267497 0.00671699 0.00389666
v 0.00267497 0.00716558 -0.00294952
v 0.00267497 0.00716558 0.00298686
v 0.00267497 0.00749173 -0.00198894
v 0.00267497 0.00749173 0.00202603
v 0.00267497 0.00768974 -0.000993777
v 0.00267497 0.00768974 0.00103087
v 0.00267497 0.00775602 1.85482e-05
vt 0.459925 0.530584
vt 0.459926 0.541219
vt 0.461328 0.52004
vt 0.461329 0.551765
vt 0.464111 0.509766
vt 0.464112 0.562039
vt 0.468225 0.499942
vt 0.468227 0.571863
vt 0.473601 0.490732
vt 0.473603 0.581073
vt 0.480146 0.482292
vt 0.480148 0.58951
vt 0.487748 0.474773
vt 0.487751 0.597031
vt 0.496278 0.468297
vt 0.496281 0.603504
vt 0.505589 0.46298
vt 0.505593 0.608822
vt 0.515522 0.45891
vt 0.515526 0.612892
vt 0.525908 0.456156
vt 0.525911 0.615644
vt 0.536567 0.454768
vt 0.536571 0.617031
vt 0.547319 0.454769
vt 0.547322 0.617031
vt 0.557978 0.456156
vt 0.557982 0.615643
vt 0.568364 0.458908
vt 0.568367 0.61289
vt 0.578297 0.462978
vt 0.578301 0.60882
vt 0.587609 0.468295
vt 0.587611 0.603502
vt 0.596138 0.474769
vt 0.59614 0.597027
vt 0.60374 0.48229
vt 0.603743 0.589507
vt 0.610286 0.490727
vt 0.610289 0.58107
vt 0.615663 0.499939
vt 0.615664 0.571861
vt 0.619777 0.509764
vt 0.619778 0.562034
vt 0.62256 0.520035
vt 0.622562 0.551759
vt 0.623964 0.541215
vt 0.623965 0.530581
vn 1.0 0.0 0.0
f 26/27/1 22/23/1 24/25/1
f 22/23/1 26/27/1 28/29/1
f 22/23/1 28/29/1 20/21/1
f 20/21/1 28/29/1 18/19/1
f 18/19/1 30/31/1 16/17/1
f 16/17/1 30/31/1 32/33/1
f 12/13/1 34/35/1 36/37/1
f 12/13/1 36/37/1 10/11/1
f 10/11/1 36/37/1 38/39/1
f 8/9/1 40/41/1 6/7/1
f 4/5/1 42/43/1 44/45/1
f 4/5/1 44/45/1 2/3/1
f 1/1/1 46/48/1 48/47/1
f 1/1/1 48/47/1 3/2/1
f 3/2/1 48/47/1 47/46/1
f 5/4/1 47/46/1 45/44/1
f 9/8/1 43/42/1 41/40/1
f 11/10/1 41/40/1 39/38/1
f 13/12/1 39/38/1 37/36/1
f 14/14/1 35/34/1 17/16/1
f 17/16/1 35/34/1 33/32/1
f 17/16/1 33/32/1 19/18/1
f 19/18/1 33/32/1 31/30/1
f 19/18/1 31/30/1 21/20/1
f 23/22/1 29/28/1 27/26/1
f 25/24/1 23/22/1 27/26/1
f 23/22/1 21/20/1 29/28/1
f 29/28/1 21/20/1 31/30/1
f 35/34/1 14/14/1 37/36/1
f 14/14/1 13/12/1 37/36/1
f 13/12/1 11/10/1 39/38/1
f 11/10/1 9/8/1 41/40/1
f 9/8/1 7/6/1 43/42/1
f 43/42/1 7/6/1 45/44/1
f 7/6/1 5/4/1 45/44/1
f 5/4/1 3/2/1 47/46/1
f 1/1/1 2/3/1 46/48/1
f 46/48/1 2/3/1 44/45/1
f 4/5/1 6/7/1 42/43/1
f 42/43/1 6/7/1 40/41/1
f 40/41/1 8/9/1 38/39/1
f 8/9/1 10/11/1 38/39/1
f 12/13/1 15/15/1 34/35/1
f 34/35/1 15/15/1 32/33/1
f 15/15/1 16/17/1 32/33/1
f 30/31/1 18/19/1 28/29/1
