<?xml version="1.0" encoding="utf-8"?>
<!-- Generator: Adobe Illustrator 24.0.2, SVG Export Plug-In . SVG Version: 6.00 Build 0)  -->
<svg version="1.1"
	 id="svg2" xmlns:cc="http://creativecommons.org/ns#" xmlns:dc="http://purl.org/dc/elements/1.1/" xmlns:inkscape="http://www.inkscape.org/namespaces/inkscape" xmlns:rdf="http://www.w3.org/1999/02/22-rdf-syntax-ns#" xmlns:sodipodi="http://sodipodi.sourceforge.net/DTD/sodipodi-0.dtd" xmlns:svg="http://www.w3.org/2000/svg"
	 xmlns="http://www.w3.org/2000/svg" xmlns:xlink="http://www.w3.org/1999/xlink" x="0px" y="0px" viewBox="0 0 680.3 114"
	 style="enable-background:new 0 0 680.3 114;" xml:space="preserve">
<style type="text/css">
	.st0{fill-opacity:9.411765e-02;}
	.st1{fill:none;stroke:#000000;stroke-width:6.5;stroke-miterlimit:8.9713;stroke-opacity:9.411765e-02;}
	.st2{fill:none;stroke:#000000;stroke-width:4.5;stroke-miterlimit:8.9713;stroke-opacity:9.411765e-02;}
	.st3{fill:none;stroke:#CC0000;}
	.st4{fill:#F2F2F2;}
	.st5{fill:#F2F2F2;stroke:#F2F2F2;}
	.st6{fill:#E8E8E8;}
	.st7{fill:none;stroke:#E8E8E8;stroke-width:2.5;stroke-miterlimit:8.9713;}
	.st8{fill:none;stroke:#000000;stroke-width:7;stroke-miterlimit:8.9713;stroke-opacity:9.411765e-02;}
	.st9{fill:none;stroke:#000000;stroke-width:5;stroke-miterlimit:8.9713;stroke-opacity:9.411765e-02;}
	.st10{fill:none;stroke:#E8E8E8;stroke-width:3;stroke-miterlimit:8.9713;}
	.st11{fill:none;stroke:#000000;stroke-width:6.5;stroke-miterlimit:8.9713;stroke-opacity:0.1255;}
	.st12{fill:none;stroke:#000000;stroke-width:4.5;stroke-miterlimit:8.9713;stroke-opacity:0.1255;}
	.st13{fill-opacity:0.1255;}
	.st14{fill:#FFFFFF;}
	.st15{fill:none;stroke:#FFFFFF;stroke-width:2.5;stroke-miterlimit:8.9713;}
	.st16{fill:none;stroke:#FFFFFF;stroke-width:3;stroke-miterlimit:8.9713;}
	.st17{fill:#808080;fill-opacity:0.502;}
	.st18{fill:none;stroke:#808080;stroke-width:2.5;stroke-miterlimit:8.9713;stroke-opacity:0.502;}
	.st19{fill:none;stroke:#808080;stroke-width:3;stroke-miterlimit:8.9713;stroke-opacity:0.502;}
	.st20{fill-rule:evenodd;clip-rule:evenodd;fill:#E8E8E8;stroke:#000000;stroke-width:4;stroke-opacity:9.411765e-02;}
	.st21{fill-rule:evenodd;clip-rule:evenodd;fill:#E8E8E8;stroke:#000000;stroke-width:2;stroke-opacity:9.411765e-02;}
	.st22{fill-rule:evenodd;clip-rule:evenodd;fill:#E8E8E8;}
	.st23{fill-rule:evenodd;clip-rule:evenodd;fill:#FFFFFF;}
	.st24{fill:none;stroke:#000000;stroke-width:4;stroke-opacity:9.411765e-02;}
	.st25{fill-rule:evenodd;clip-rule:evenodd;fill-opacity:4.705882e-02;stroke:#000000;stroke-width:2;stroke-opacity:9.411765e-02;}
	.st26{fill-rule:evenodd;clip-rule:evenodd;fill:#808080;fill-opacity:0.502;}
	.st27{fill-rule:evenodd;clip-rule:evenodd;fill-opacity:9.411765e-02;}
	.st28{fill-rule:evenodd;clip-rule:evenodd;fill-opacity:0.1255;}
	.st29{fill:none;stroke:#D7DF6B;stroke-width:10;stroke-miterlimit:10;}
	.st30{opacity:0.75;fill:#1D1D1B;fill-opacity:0.502;}
	.st31{opacity:0.85;fill:#1D1D1B;fill-opacity:0.502;}
</style>
<title  id="title3009">Iconset for a player</title>
<defs>
	
		<inkscape:perspective  id="perspective10" inkscape:persp3d-origin="372.04724 : 350.78739 : 1" inkscape:vp_x="0 : 526.18109 : 1" inkscape:vp_y="0 : 1000 : 0" inkscape:vp_z="744.09448 : 526.18109 : 1" sodipodi:type="inkscape:persp3d">
		</inkscape:perspective>
</defs>
<sodipodi:namedview  bordercolor="#666666" borderopacity="1.0" gridtolerance="13" id="base" inkscape:current-layer="layer1" inkscape:cx="530.71653" inkscape:cy="37.77582" inkscape:document-units="px" inkscape:object-nodes="true" inkscape:object-paths="true" inkscape:pageopacity="0.0" inkscape:pageshadow="2" inkscape:snap-global="true" inkscape:snap-intersection-line-segments="false" inkscape:snap-nodes="true" inkscape:snap-object-midpoints="true" inkscape:snap-smooth-nodes="true" inkscape:window-height="1176" inkscape:window-maximized="1" inkscape:window-width="1855" inkscape:window-x="65" inkscape:window-y="24" inkscape:zoom="5.6568539" objecttolerance="11" pagecolor="#ffffff" showgrid="true">
	
		<inkscape:grid  empspacing="38" enabled="true" id="grid3242" snapvisiblegridlinesonly="true" spacingx="1px" type="xygrid" visible="true">
		</inkscape:grid>
</sodipodi:namedview>
<g id="layer1" transform="translate(0,98)" inkscape:groupmode="layer" inkscape:label="Ebene 1">
	<circle id="path3984" class="st0" cx="322.7" cy="-85.5" r="4.5"/>
	<circle id="path3982" class="st0" cx="322.7" cy="-85.5" r="3.5"/>
	<path id="path3980" inkscape:connector-curvature="0" sodipodi:nodetypes="ccccccccccc" class="st0" d="M316.7-68h12v-6h-2v-9h-10
		v6h2v3h-2V-68z"/>
	<path id="path3978" inkscape:connector-curvature="0" sodipodi:nodetypes="ccccccccccc" class="st0" d="M317.7-69h10v-4h-2v-9h-8v4
		h2v5h-2V-69z"/>
	<path id="path3019-3" inkscape:connector-curvature="0" sodipodi:nodetypes="ccccc" class="st0" d="M528.7-85.3v3.3l-4.6,7.1
		l-13-5.8L528.7-85.3z"/>
	<path id="path3019-5-4" inkscape:connector-curvature="0" sodipodi:nodetypes="ccccc" class="st0" d="M528.7-84.3v0.8l-5,7.2
		l-9.4-4.2L528.7-84.3z"/>
	<circle id="path3818-4-9" class="st1" cx="398.7" cy="-79" r="6"/>
	<circle id="path3818-4" class="st2" cx="398.7" cy="-79" r="6"/>
	<path id="rect4011-6-7-6-4" inkscape:transform-center-y="-9" class="st0" d="M395.7-91h6c0.3,0,0.5,0.2,0.5,0.5v5
		c0,0.3-0.2,0.5-0.5,0.5h-6c-0.3,0-0.5-0.2-0.5-0.5v-5C395.2-90.8,395.4-91,395.7-91z"/>
	<path id="rect4011-6-5-9-6" inkscape:transform-center-y="-8.5" class="st0" d="M396.7-90h4c0.3,0,0.5,0.2,0.5,0.5v4
		c0,0.3-0.2,0.5-0.5,0.5h-4c-0.3,0-0.5-0.2-0.5-0.5v-4C396.2-89.8,396.4-90,396.7-90z"/>
	<rect id="rect4011-6-7" x="57.7" y="-91" class="st0" width="11" height="24"/>
	<rect id="rect4011-6-5" x="58.7" y="-90" class="st0" width="9" height="22"/>
	<rect id="rect4011-6-3" x="44.7" y="-91" class="st0" width="11" height="24"/>
	<rect id="rect4011-6" x="45.7" y="-90" class="st0" width="9" height="22"/>
	<g id="g3275" transform="translate(0.13499,0.0748728)">
	</g>
	<polygon id="path3839" class="st3" points="2.8,12.1 2.8,12.1 2.8,12.1 2.8,12.1 	"/>
	<path id="path3019" inkscape:connector-curvature="0" sodipodi:nodetypes="cccc" class="st0" d="M6.7-92l25,13l-25,13V-92z"/>
	<path id="path3019-1-7-4" inkscape:connector-curvature="0" sodipodi:nodetypes="cccc" class="st4" d="M250.1-86.9l-10.6,4.7
		l10.6,4.7V-86.9z"/>
	<path id="path3963" inkscape:connector-curvature="0" sodipodi:nodetypes="cccsc" class="st5" d="M248.6-81
		c7.8-0.8,7.3,1.7,6.8,3.4c-0.8,2.3-7.6,7.9-3.1,3.9c6.1-5.4,8.4-8.6-3.7-9.4C245.6-83.4,248.6-81,248.6-81"/>
	<path id="path3019-1-7-4-0" inkscape:connector-curvature="0" sodipodi:nodetypes="cccc" class="st4" d="M283.3-71.1l9.1-4.7
		l-9.1-4.7V-71.1z"/>
	<path id="path3963-8" inkscape:connector-curvature="0" sodipodi:nodetypes="cccsc" class="st5" d="M284.8-76.9
		c-7.8,0.8-7.3-1.7-6.8-3.4c0.8-2.3,7.6-7.9,3.1-3.9c-6.1,5.4-8.4,8.6,3.7,9.4C287.9-74.5,284.8-76.9,284.8-76.9"/>
	<rect id="rect4011" x="46.7" y="-89" class="st6" width="7" height="20"/>
	<rect id="rect4011-9" x="59.7" y="-89" class="st6" width="7" height="20"/>
	<path id="path3019-5" inkscape:connector-curvature="0" sodipodi:nodetypes="cccc" class="st0" d="M7.7-90.5l22,11.5l-22,11.5
		V-90.5z"/>
	<path id="path3019-5-2" inkscape:connector-curvature="0" sodipodi:nodetypes="cccc" class="st6" d="M8.7-89l19,10l-19,10V-89z"/>
	<path id="path3019-2-1" inkscape:connector-curvature="0" sodipodi:nodetypes="ccccc" class="st0" d="M85.7-88l12,6v6l-12,6V-88z"
		/>
	<path id="path3019-5-7-4" inkscape:connector-curvature="0" sodipodi:nodetypes="ccccc" class="st0" d="M86.7-86.5l12,5.8v3.3
		l-12,5.8V-86.5z"/>
	<rect id="rect4011-6-7-6" x="97.7" y="-88" class="st0" width="6" height="18"/>
	<rect id="rect4011-6-5-9" x="98.7" y="-87" class="st0" width="4" height="16"/>
	<rect id="rect4011-9-0" x="99.7" y="-86" class="st6" width="2" height="14"/>
	<path id="path3019-5-2-7-5" inkscape:connector-curvature="0" sodipodi:nodetypes="cccc" class="st6" d="M87.7-85l12.5,6l-12.5,6
		V-85z"/>
	<path id="path3019-2-1-2" inkscape:connector-curvature="0" sodipodi:nodetypes="ccccc" class="st0" d="M141.7-88l-12,6v6l12,6V-88
		z"/>
	<path id="path3019-5-7-4-6" inkscape:connector-curvature="0" sodipodi:nodetypes="ccccc" class="st0" d="M140.7-86.5l-12,5.8v3.3
		l12,5.8V-86.5z"/>
	<rect id="rect4011-6-7-6-7" x="123.7" y="-88" class="st0" width="6" height="18"/>
	<rect id="rect4011-6-5-9-9" x="124.7" y="-87" class="st0" width="4" height="16"/>
	<rect id="rect4011-9-0-7" x="125.7" y="-86" class="st6" width="2" height="14"/>
	<path id="path3019-5-2-7-5-3" inkscape:connector-curvature="0" sodipodi:nodetypes="cccc" class="st6" d="M139.7-85l-12.5,6
		l12.5,6V-85z"/>
	<path id="rect4011-9-0-6" inkscape:transform-center-y="-8" class="st6" d="M397.7-89h2c0.3,0,0.5,0.2,0.5,0.5v3
		c0,0.3-0.2,0.5-0.5,0.5h-2c-0.3,0-0.5-0.2-0.5-0.5v-3C397.2-88.8,397.4-89,397.7-89z"/>
	<path id="rect4011-6-7-6-4-8" inkscape:transform-center-x="-10" class="st0" d="M410.7-82v6c0,0.3-0.2,0.5-0.5,0.5h-5
		c-0.3,0-0.5-0.2-0.5-0.5v-6c0-0.3,0.2-0.5,0.5-0.5h5C410.4-82.5,410.7-82.3,410.7-82z"/>
	<path id="rect4011-6-5-9-6-2" inkscape:transform-center-x="-9.5" class="st0" d="M409.7-81v4c0,0.3-0.2,0.5-0.5,0.5h-4
		c-0.3,0-0.5-0.2-0.5-0.5v-4c0-0.3,0.2-0.5,0.5-0.5h4C409.4-81.5,409.7-81.3,409.7-81z"/>
	<path id="rect4011-9-0-6-5" inkscape:transform-center-x="-9" class="st6" d="M408.7-80v2c0,0.3-0.2,0.5-0.5,0.5h-3
		c-0.3,0-0.5-0.2-0.5-0.5v-2c0-0.3,0.2-0.5,0.5-0.5h3C408.4-80.5,408.7-80.3,408.7-80z"/>
	<path id="rect4011-6-7-6-4-84" inkscape:transform-center-y="10" class="st0" d="M401.7-67h-6c-0.3,0-0.5-0.2-0.5-0.5v-5
		c0-0.3,0.2-0.5,0.5-0.5h6c0.3,0,0.5,0.2,0.5,0.5v5C402.2-67.2,401.9-67,401.7-67z"/>
	<path id="rect4011-6-5-9-6-1" inkscape:transform-center-y="9.5" class="st0" d="M400.7-68h-4c-0.3,0-0.5-0.2-0.5-0.5v-4
		c0-0.3,0.2-0.5,0.5-0.5h4c0.3,0,0.5,0.2,0.5,0.5v4C401.2-68.2,400.9-68,400.7-68z"/>
	<path id="rect4011-9-0-6-0" inkscape:transform-center-y="9" class="st6" d="M399.7-69h-2c-0.3,0-0.5-0.2-0.5-0.5v-3
		c0-0.3,0.2-0.5,0.5-0.5h2c0.3,0,0.5,0.2,0.5,0.5v3C400.2-69.2,399.9-69,399.7-69z"/>
	<path id="rect4011-6-7-6-4-9" inkscape:transform-center-x="10" class="st0" d="M386.7-76v-6c0-0.3,0.2-0.5,0.5-0.5h5
		c0.3,0,0.5,0.2,0.5,0.5v6c0,0.3-0.2,0.5-0.5,0.5h-5C386.9-75.5,386.7-75.7,386.7-76z"/>
	<path id="rect4011-6-5-9-6-05" inkscape:transform-center-x="9.5" class="st0" d="M387.7-77v-4c0-0.3,0.2-0.5,0.5-0.5h4
		c0.3,0,0.5,0.2,0.5,0.5v4c0,0.3-0.2,0.5-0.5,0.5h-4C387.9-76.5,387.7-76.7,387.7-77z"/>
	<path id="rect4011-9-0-6-53" inkscape:transform-center-x="9" class="st6" d="M388.7-78v-2c0-0.3,0.2-0.5,0.5-0.5h3
		c0.3,0,0.5,0.2,0.5,0.5v2c0,0.3-0.2,0.5-0.5,0.5h-3C388.9-77.5,388.7-77.7,388.7-78z"/>
	<path id="rect4011-6-7-6-4-7" inkscape:transform-center-x="-6.3639561" inkscape:transform-center-y="-6.3639599" class="st0" d="
		M405-89.6l4.2,4.2c0.2,0.2,0.2,0.5,0,0.7l-3.5,3.5c-0.2,0.2-0.5,0.2-0.7,0l-4.2-4.2c-0.2-0.2-0.2-0.5,0-0.7l3.5-3.5
		C404.5-89.8,404.8-89.8,405-89.6z"/>
	<path id="rect4011-6-5-9-6-4" inkscape:transform-center-x="-6.0104027" inkscape:transform-center-y="-6.0104066" class="st0" d="
		M405-88.2l2.8,2.8c0.2,0.2,0.2,0.5,0,0.7l-2.8,2.8c-0.2,0.2-0.5,0.2-0.7,0l-2.8-2.8c-0.2-0.2-0.2-0.5,0-0.7l2.8-2.8
		C404.5-88.4,404.8-88.4,405-88.2z"/>
	<path id="rect4011-9-0-6-9" inkscape:transform-center-x="-5.6568493" inkscape:transform-center-y="-5.6568532" class="st6" d="
		M405-86.8l1.4,1.4c0.2,0.2,0.2,0.5,0,0.7l-2.1,2.1c-0.2,0.2-0.5,0.2-0.7,0l-1.4-1.4c-0.2-0.2-0.2-0.5,0-0.7l2.1-2.1
		C404.5-87,404.8-87,405-86.8z"/>
	<path id="rect4011-6-7-6-4-83" inkscape:transform-center-x="-6.3639561" inkscape:transform-center-y="6.3639621" class="st0" d="
		M409.3-72.6l-4.2,4.2c-0.2,0.2-0.5,0.2-0.7,0l-3.5-3.5c-0.2-0.2-0.2-0.5,0-0.7l4.2-4.2c0.2-0.2,0.5-0.2,0.7,0l3.5,3.5
		C409.5-73.1,409.5-72.8,409.3-72.6z"/>
	<path id="rect4011-6-5-9-6-3" inkscape:transform-center-x="-6.0104027" inkscape:transform-center-y="6.0104087" class="st0" d="
		M407.8-72.6l-2.8,2.8c-0.2,0.2-0.5,0.2-0.7,0l-2.8-2.8c-0.2-0.2-0.2-0.5,0-0.7l2.8-2.8c0.2-0.2,0.5-0.2,0.7,0l2.8,2.8
		C408-73.1,408-72.8,407.8-72.6z"/>
	<path id="rect4011-9-0-6-1" inkscape:transform-center-x="-5.6568493" inkscape:transform-center-y="5.6568553" class="st6" d="
		M406.4-72.6l-1.4,1.4c-0.2,0.2-0.5,0.2-0.7,0l-2.1-2.1c-0.2-0.2-0.2-0.5,0-0.7l1.4-1.4c0.2-0.2,0.5-0.2,0.7,0l2.1,2.1
		C406.6-73.1,406.6-72.8,406.4-72.6z"/>
	<path id="rect4011-6-7-6-4-5" inkscape:transform-center-x="6.363966" inkscape:transform-center-y="6.3639621" class="st0" d="
		M392.3-68.4l-4.2-4.2c-0.2-0.2-0.2-0.5,0-0.7l3.5-3.5c0.2-0.2,0.5-0.2,0.7,0l4.2,4.2c0.2,0.2,0.2,0.5,0,0.7l-3.5,3.5
		C392.8-68.2,392.5-68.2,392.3-68.4z"/>
	<path id="rect4011-6-5-9-6-31" inkscape:transform-center-x="6.0104126" inkscape:transform-center-y="6.0104087" class="st0" d="
		M392.3-69.8l-2.8-2.8c-0.2-0.2-0.2-0.5,0-0.7l2.8-2.8c0.2-0.2,0.5-0.2,0.7,0l2.8,2.8c0.2,0.2,0.2,0.5,0,0.7l-2.8,2.8
		C392.8-69.6,392.5-69.6,392.3-69.8z"/>
	<path id="rect4011-9-0-6-7" inkscape:transform-center-x="5.6568592" inkscape:transform-center-y="5.6568553" class="st6" d="
		M392.3-71.2l-1.4-1.4c-0.2-0.2-0.2-0.5,0-0.7l2.1-2.1c0.2-0.2,0.5-0.2,0.7,0l1.4,1.4c0.2,0.2,0.2,0.5,0,0.7l-2.1,2.1
		C392.8-71,392.5-71,392.3-71.2z"/>
	<path id="rect4011-6-7-6-4-2" inkscape:transform-center-x="6.363966" inkscape:transform-center-y="-6.3639599" class="st0" d="
		M388.1-85.4l4.2-4.2c0.2-0.2,0.5-0.2,0.7,0l3.5,3.5c0.2,0.2,0.2,0.5,0,0.7l-4.2,4.2c-0.2,0.2-0.5,0.2-0.7,0l-3.5-3.5
		C387.9-84.9,387.9-85.2,388.1-85.4z"/>
	<path id="rect4011-6-5-9-6-6" inkscape:transform-center-x="6.0104126" inkscape:transform-center-y="-6.0104066" class="st0" d="
		M389.5-85.4l2.8-2.8c0.2-0.2,0.5-0.2,0.7,0l2.8,2.8c0.2,0.2,0.2,0.5,0,0.7l-2.8,2.8c-0.2,0.2-0.5,0.2-0.7,0l-2.8-2.8
		C389.3-84.9,389.3-85.2,389.5-85.4z"/>
	<path id="rect4011-9-0-6-6" inkscape:transform-center-x="5.6568592" inkscape:transform-center-y="-5.6568532" class="st6" d="
		M390.9-85.4l1.4-1.4c0.2-0.2,0.5-0.2,0.7,0l2.1,2.1c0.2,0.2,0.2,0.5,0,0.7l-1.4,1.4c-0.2,0.2-0.5,0.2-0.7,0l-2.1-2.1
		C390.7-84.9,390.7-85.2,390.9-85.4z"/>
	<circle id="path3818" class="st7" cx="398.7" cy="-79" r="6"/>
	<path id="path4609" inkscape:connector-curvature="0" sodipodi:nodetypes="ccccccc" class="st0" d="M439.7-84h4v4h7v-11h-11V-84"/>
	<path id="path4609-4" inkscape:connector-curvature="0" sodipodi:nodetypes="ccccccc" class="st0" d="M440.7-85h4v4h5v-9h-9V-85"/>
	<path id="path4609-8" inkscape:connector-curvature="0" class="st6" d="M441.7-86h4v4h3v-7h-7V-86"/>
	<path id="path4609-6" inkscape:connector-curvature="0" sodipodi:nodetypes="ccccccc" class="st0" d="M443.7-78v4h-4v7h11v-11
		H443.7"/>
	<path id="path4609-4-0" inkscape:connector-curvature="0" sodipodi:nodetypes="ccccccc" class="st0" d="M444.7-77v4h-4v5h9v-9
		H444.7"/>
	<path id="path4609-8-9" inkscape:connector-curvature="0" class="st6" d="M445.7-76v4h-4v3h7v-7H445.7"/>
	<path id="path4609-7" inkscape:connector-curvature="0" sodipodi:nodetypes="ccccccc" class="st0" d="M433.7-74h-4v-4h-7v11h11V-74
		"/>
	<path id="path4609-4-4" inkscape:connector-curvature="0" sodipodi:nodetypes="ccccccc" class="st0" d="M432.7-73h-4v-4h-5v9h9V-73
		"/>
	<path id="path4609-8-3" inkscape:connector-curvature="0" class="st6" d="M431.7-72h-4v-4h-3v7h7V-72"/>
	<path id="path4609-2" inkscape:connector-curvature="0" sodipodi:nodetypes="ccccccc" class="st0" d="M429.7-80v-4h4v-7h-11v11
		H429.7"/>
	<path id="path4609-4-05" inkscape:connector-curvature="0" sodipodi:nodetypes="ccccccc" class="st0" d="M428.7-81v-4h4v-5h-9v9
		H428.7"/>
	<path id="path4609-8-6" inkscape:connector-curvature="0" class="st6" d="M427.7-82v-4h4v-3h-7v7H427.7"/>
	<path id="path4609-5" inkscape:connector-curvature="0" sodipodi:nodetypes="ccccccc" class="st0" d="M461.7-71h4v4h7v-11h-11V-71"
		/>
	<path id="path4609-4-3" inkscape:connector-curvature="0" sodipodi:nodetypes="ccccccc" class="st0" d="M462.7-72h4v4h5v-9h-9V-72"
		/>
	<path id="path4609-8-0" inkscape:connector-curvature="0" class="st6" d="M463.7-73h4v4h3v-7h-7V-73"/>
	<path id="path4609-7-6" inkscape:connector-curvature="0" sodipodi:nodetypes="ccccccc" class="st0" d="M487.7-87h-4v-4h-7v11h11
		V-87"/>
	<path id="path4609-4-4-3" inkscape:connector-curvature="0" sodipodi:nodetypes="ccccccc" class="st0" d="M486.7-86h-4v-4h-5v9h9
		V-86"/>
	<path id="path4609-8-3-5" inkscape:connector-curvature="0" class="st6" d="M485.7-85h-4v-4h-3v7h7V-85"/>
	<path id="path4609-2-9" inkscape:connector-curvature="0" sodipodi:nodetypes="ccccccc" class="st0" d="M483.7-67v-4h4v-7h-11v11
		H483.7"/>
	<path id="path4609-4-05-6" inkscape:connector-curvature="0" sodipodi:nodetypes="ccccccc" class="st0" d="M482.7-68v-4h4v-5h-9v9
		H482.7"/>
	<path id="path4609-8-6-1" inkscape:connector-curvature="0" class="st6" d="M481.7-69v-4h4v-3h-7v7H481.7"/>
	<path id="path4609-6-2" inkscape:connector-curvature="0" sodipodi:nodetypes="ccccccc" class="st0" d="M465.7-91v4h-4v7h11v-11
		H465.7"/>
	<path id="path4609-4-0-7" inkscape:connector-curvature="0" sodipodi:nodetypes="ccccccc" class="st0" d="M466.7-90v4h-4v5h9v-9
		H466.7"/>
	<path id="path4609-8-9-0" inkscape:connector-curvature="0" class="st6" d="M467.7-89v4h-4v3h7v-7H467.7"/>
	<path id="path3019-2-1-5" inkscape:connector-curvature="0" sodipodi:nodetypes="ccccc" class="st0" d="M167.7-88l9,6v6l-9,6V-88z"
		/>
	<path id="path3019-5-7-4-4" inkscape:connector-curvature="0" sodipodi:nodetypes="ccccc" class="st0" d="M168.7-86.5l9,5.8v3.3
		l-9,5.8V-86.5z"/>
	<rect id="rect4011-6-7-6-73" x="176.7" y="-88" class="st0" width="6" height="18"/>
	<rect id="rect4011-6-5-9-1" x="177.7" y="-87" class="st0" width="4" height="16"/>
	<rect id="rect4011-9-0-5" x="178.7" y="-86" class="st6" width="2" height="14"/>
	<path id="path3019-5-2-7-5-0" inkscape:connector-curvature="0" sodipodi:nodetypes="cccc" class="st6" d="M169.7-85l9.5,6l-9.5,6
		L169.7-85z"/>
	<path id="path3019-2-1-5-8" inkscape:connector-curvature="0" sodipodi:nodetypes="ccccc" class="st0" d="M158.7-88l9,6v6l-9,6V-88
		z"/>
	<path id="path3019-5-7-4-4-4" inkscape:connector-curvature="0" sodipodi:nodetypes="ccccc" class="st0" d="M159.7-86.5l9,5.8v3.3
		l-9,5.8V-86.5z"/>
	<path id="path3019-5-2-7-5-0-9" inkscape:connector-curvature="0" sodipodi:nodetypes="cccc" class="st6" d="M160.7-85l9.5,6
		l-9.5,6L160.7-85z"/>
	<path id="path3019-2-1-5-5" inkscape:connector-curvature="0" sodipodi:nodetypes="ccccc" class="st0" d="M211.7-88l-9,6v6l9,6V-88
		z"/>
	<path id="path3019-5-7-4-4-6" inkscape:connector-curvature="0" sodipodi:nodetypes="ccccc" class="st0" d="M210.7-86.5l-9,5.8v3.3
		l9,5.8V-86.5z"/>
	<rect id="rect4011-6-7-6-73-1" x="196.7" y="-88" class="st0" width="6" height="18"/>
	<rect id="rect4011-6-5-9-1-5" x="197.7" y="-87" class="st0" width="4" height="16"/>
	<rect id="rect4011-9-0-5-3" x="198.7" y="-86" class="st6" width="2" height="14"/>
	<path id="path3019-5-2-7-5-0-4" inkscape:connector-curvature="0" sodipodi:nodetypes="cccc" class="st6" d="M209.7-85l-9.5,6
		l9.5,6V-85z"/>
	<path id="path3019-2-1-5-8-4" inkscape:connector-curvature="0" sodipodi:nodetypes="ccccc" class="st0" d="M220.7-88l-9,6v6l9,6
		V-88z"/>
	<path id="path3019-5-7-4-4-4-9" inkscape:connector-curvature="0" sodipodi:nodetypes="ccccc" class="st0" d="M219.7-86.5l-9,5.8
		v3.3l9,5.8V-86.5z"/>
	<path id="path3019-5-2-7-5-0-9-2" inkscape:connector-curvature="0" sodipodi:nodetypes="cccc" class="st6" d="M218.7-85l-9.5,6
		l9.5,6V-85z"/>
	<path id="path3019-2-1-2-1" inkscape:connector-curvature="0" sodipodi:nodetypes="ccccc" class="st0" d="M348.7-80l7,7h10l7-7
		H348.7z"/>
	<path id="path3019-5-7-4-6-5" inkscape:connector-curvature="0" sodipodi:nodetypes="ccccc" class="st0" d="M350.7-79l7.2,7h5.6
		l7.2-7H350.7z"/>
	<rect id="rect4011-6-7-6-7-6" x="349.7" y="-73" class="st0" width="22" height="5.5"/>
	<rect id="rect4011-6-5-9-9-1" x="351.2" y="-72" class="st0" width="19" height="3.5"/>
	<rect id="rect4011-9-0-7-7" x="352.7" y="-71" class="st6" width="16" height="1.5"/>
	<path id="path3019-5-2-7-5-3-2" inkscape:connector-curvature="0" sodipodi:nodetypes="cccc" class="st6" d="M352.7-78l8,7.5l8-7.5
		H352.7z"/>
	<rect id="rect4011-6-7-6-6" x="355.7" y="-91" class="st0" width="10" height="11"/>
	<rect id="rect4011-6-5-9-0" x="356.7" y="-90" class="st0" width="8" height="11"/>
	<rect id="rect4011-9-0-4" x="357.7" y="-89" class="st6" width="6" height="11"/>
	
		<path id="path3818-4-9-7" sodipodi:cx="210" sodipodi:cy="10" sodipodi:end="6.0213859" sodipodi:open="true" sodipodi:rx="4.4586492" sodipodi:ry="4.4586492" sodipodi:start="0.52468555" sodipodi:type="arc" class="st8" d="
		M521.3-74c-2.4,4.1-7.4,6-11.9,4.5c-4.5-1.5-7.3-6-6.7-10.8c0.6-4.7,4.5-8.4,9.3-8.7c4.8-0.3,9.1,2.8,10.3,7.4"/>
	
		<path id="path3818-4-4" sodipodi:cx="210" sodipodi:cy="10" sodipodi:end="6.0213859" sodipodi:open="true" sodipodi:rx="4.4586492" sodipodi:ry="4.4586492" sodipodi:start="0.65400499" sodipodi:type="arc" class="st9" d="
		M520.6-72.9c-2.8,3.7-7.8,4.9-12.1,3c-4.2-1.9-6.6-6.5-5.7-11.1c0.9-4.6,4.8-7.9,9.5-8c4.6-0.2,8.8,2.9,10,7.4"/>
	
		<path id="path3818-2" sodipodi:cx="210" sodipodi:cy="10" sodipodi:end="6.0213859" sodipodi:open="true" sodipodi:rx="4.4586492" sodipodi:ry="4.4586492" sodipodi:start="0.78539816" sodipodi:type="arc" class="st10" d="
		M519.7-71.9c-3.2,3.2-8.2,3.9-12.1,1.6c-3.9-2.3-5.8-6.9-4.7-11.2c1.2-4.4,5.1-7.4,9.7-7.4c4.5,0,8.5,3,9.7,7.4"/>
	<path id="path3019-5-2-6" inkscape:connector-curvature="0" sodipodi:nodetypes="cccc" class="st6" d="M527.1-83l-3.8,5.2l-5.9-2.6
		L527.1-83z"/>
	<path id="path3974" inkscape:connector-curvature="0" sodipodi:nodetypes="ccccccccccc" class="st6" d="M318.7-70h8v-2h-2v-9h-6v2
		h2v7h-2V-70z"/>
	<circle id="path3976" class="st6" cx="322.7" cy="-85.5" r="2.5"/>
	<circle id="path3818-4-9-6" class="st11" cx="398.7" cy="-41" r="6"/>
	<circle id="path3818-4-0" class="st12" cx="398.7" cy="-41" r="6"/>
	<path id="rect4011-6-7-6-4-92" inkscape:transform-center-y="-9" class="st13" d="M395.7-53h6c0.3,0,0.5,0.2,0.5,0.5v5
		c0,0.3-0.2,0.5-0.5,0.5h-6c-0.3,0-0.5-0.2-0.5-0.5v-5C395.2-52.8,395.4-53,395.7-53z"/>
	<path id="rect4011-6-5-9-6-39" inkscape:transform-center-y="-8.5" class="st13" d="M396.7-52h4c0.3,0,0.5,0.2,0.5,0.5v4
		c0,0.3-0.2,0.5-0.5,0.5h-4c-0.3,0-0.5-0.2-0.5-0.5v-4C396.2-51.8,396.4-52,396.7-52z"/>
	<rect id="rect4011-6-7-67" x="57.7" y="-53" class="st13" width="11" height="24"/>
	<rect id="rect4011-6-5-8" x="58.7" y="-52" class="st13" width="9" height="22"/>
	<rect id="rect4011-6-3-1" x="44.7" y="-53" class="st13" width="11" height="24"/>
	<rect id="rect4011-6-6" x="45.7" y="-52" class="st13" width="9" height="22"/>
	<path id="path3019-4" inkscape:connector-curvature="0" sodipodi:nodetypes="cccc" class="st13" d="M6.7-54l25,13l-25,13V-54z"/>
	<path id="path3019-1-7-4-2" inkscape:connector-curvature="0" sodipodi:nodetypes="cccc" class="st4" d="M248.1-50.9l-10.6,4.7
		l10.6,4.7V-50.9z"/>
	<path id="path3963-1" inkscape:connector-curvature="0" sodipodi:nodetypes="cccsc" class="st5" d="M246.6-45
		c7.8-0.8,7.3,1.7,6.8,3.4c-0.8,2.3-7.6,7.9-3.1,3.9c6.1-5.4,8.4-8.6-3.7-9.4C243.6-47.4,246.6-45,246.6-45"/>
	<path id="path3019-1-7-4-0-4" inkscape:connector-curvature="0" sodipodi:nodetypes="cccc" class="st4" d="M281.3-35.1l9.1-4.7
		l-9.1-4.7V-35.1z"/>
	<path id="path3963-8-4" inkscape:connector-curvature="0" sodipodi:nodetypes="cccsc" class="st5" d="M282.8-40.9
		c-7.8,0.8-7.3-1.7-6.8-3.4c0.8-2.3,7.6-7.9,3.1-3.9c-6.1,5.4-8.4,8.6,3.7,9.4C285.9-38.5,282.8-40.9,282.8-40.9"/>
	<rect id="rect4011-67" x="46.7" y="-51" class="st14" width="7" height="20"/>
	<rect id="rect4011-9-05" x="59.7" y="-51" class="st14" width="7" height="20"/>
	<path id="path3019-5-9" inkscape:connector-curvature="0" sodipodi:nodetypes="cccc" class="st13" d="M7.7-52.5l22,11.5l-22,11.5
		V-52.5z"/>
	<path id="path3019-5-2-2" inkscape:connector-curvature="0" sodipodi:nodetypes="cccc" class="st14" d="M8.7-51l19,10l-19,10V-51z"
		/>
	<path id="path3019-2-1-20" inkscape:connector-curvature="0" sodipodi:nodetypes="ccccc" class="st13" d="M85.7-50l12,6v6l-12,6
		V-50z"/>
	<path id="path3019-5-7-4-7" inkscape:connector-curvature="0" sodipodi:nodetypes="ccccc" class="st13" d="M86.7-48.5l12,5.8v3.3
		l-12,5.8V-48.5z"/>
	<rect id="rect4011-6-7-6-1" x="97.7" y="-50" class="st13" width="6" height="18"/>
	<rect id="rect4011-6-5-9-5" x="98.7" y="-49" class="st13" width="4" height="16"/>
	<rect id="rect4011-9-0-56" x="99.7" y="-48" class="st14" width="2" height="14"/>
	<path id="path3019-5-2-7-5-05" inkscape:connector-curvature="0" sodipodi:nodetypes="cccc" class="st14" d="M87.7-47l12.5,6
		l-12.5,6V-47z"/>
	<path id="path3019-2-1-2-4" inkscape:connector-curvature="0" sodipodi:nodetypes="ccccc" class="st13" d="M141.7-50l-12,6v6l12,6
		V-50z"/>
	<path id="path3019-5-7-4-6-2" inkscape:connector-curvature="0" sodipodi:nodetypes="ccccc" class="st13" d="M140.7-48.5l-12,5.8
		v3.3l12,5.8V-48.5z"/>
	<rect id="rect4011-6-7-6-7-66" x="123.7" y="-50" class="st13" width="6" height="18"/>
	<rect id="rect4011-6-5-9-9-5" x="124.7" y="-49" class="st13" width="4" height="16"/>
	<rect id="rect4011-9-0-7-6" x="125.7" y="-48" class="st14" width="2" height="14"/>
	<path id="path3019-5-2-7-5-3-4" inkscape:connector-curvature="0" sodipodi:nodetypes="cccc" class="st14" d="M139.7-47l-12.5,6
		l12.5,6V-47z"/>
	<path id="rect4011-9-0-6-54" inkscape:transform-center-y="-8" class="st14" d="M397.7-51h2c0.3,0,0.5,0.2,0.5,0.5v3
		c0,0.3-0.2,0.5-0.5,0.5h-2c-0.3,0-0.5-0.2-0.5-0.5v-3C397.2-50.8,397.4-51,397.7-51z"/>
	<path id="rect4011-6-7-6-4-8-6" inkscape:transform-center-x="-10" class="st13" d="M410.7-44v6c0,0.3-0.2,0.5-0.5,0.5h-5
		c-0.3,0-0.5-0.2-0.5-0.5v-6c0-0.3,0.2-0.5,0.5-0.5h5C410.4-44.5,410.7-44.3,410.7-44z"/>
	<path id="rect4011-6-5-9-6-2-3" inkscape:transform-center-x="-9.5" class="st13" d="M409.7-43v4c0,0.3-0.2,0.5-0.5,0.5h-4
		c-0.3,0-0.5-0.2-0.5-0.5v-4c0-0.3,0.2-0.5,0.5-0.5h4C409.4-43.5,409.7-43.3,409.7-43z"/>
	<path id="rect4011-9-0-6-5-8" inkscape:transform-center-x="-9" class="st14" d="M408.7-42v2c0,0.3-0.2,0.5-0.5,0.5h-3
		c-0.3,0-0.5-0.2-0.5-0.5v-2c0-0.3,0.2-0.5,0.5-0.5h3C408.4-42.5,408.7-42.3,408.7-42z"/>
	<path id="rect4011-6-7-6-4-84-8" inkscape:transform-center-y="10" class="st13" d="M401.7-29h-6c-0.3,0-0.5-0.2-0.5-0.5v-5
		c0-0.3,0.2-0.5,0.5-0.5h6c0.3,0,0.5,0.2,0.5,0.5v5C402.2-29.2,401.9-29,401.7-29z"/>
	<path id="rect4011-6-5-9-6-1-4" inkscape:transform-center-y="9.5" class="st13" d="M400.7-30h-4c-0.3,0-0.5-0.2-0.5-0.5v-4
		c0-0.3,0.2-0.5,0.5-0.5h4c0.3,0,0.5,0.2,0.5,0.5v4C401.2-30.2,400.9-30,400.7-30z"/>
	<path id="rect4011-9-0-6-0-4" inkscape:transform-center-y="9" class="st14" d="M399.7-31h-2c-0.3,0-0.5-0.2-0.5-0.5v-3
		c0-0.3,0.2-0.5,0.5-0.5h2c0.3,0,0.5,0.2,0.5,0.5v3C400.2-31.2,399.9-31,399.7-31z"/>
	<path id="rect4011-6-7-6-4-9-4" inkscape:transform-center-x="10" class="st13" d="M386.7-38v-6c0-0.3,0.2-0.5,0.5-0.5h5
		c0.3,0,0.5,0.2,0.5,0.5v6c0,0.3-0.2,0.5-0.5,0.5h-5C386.9-37.5,386.7-37.7,386.7-38z"/>
	<path id="rect4011-6-5-9-6-05-2" inkscape:transform-center-x="9.5" class="st13" d="M387.7-39v-4c0-0.3,0.2-0.5,0.5-0.5h4
		c0.3,0,0.5,0.2,0.5,0.5v4c0,0.3-0.2,0.5-0.5,0.5h-4C387.9-38.5,387.7-38.7,387.7-39z"/>
	<path id="rect4011-9-0-6-53-2" inkscape:transform-center-x="9" class="st14" d="M388.7-40v-2c0-0.3,0.2-0.5,0.5-0.5h3
		c0.3,0,0.5,0.2,0.5,0.5v2c0,0.3-0.2,0.5-0.5,0.5h-3C388.9-39.5,388.7-39.7,388.7-40z"/>
	
		<path id="rect4011-6-7-6-4-7-4" inkscape:transform-center-x="-6.3639561" inkscape:transform-center-y="-6.3639599" class="st13" d="
		M405-51.6l4.2,4.2c0.2,0.2,0.2,0.5,0,0.7l-3.5,3.5c-0.2,0.2-0.5,0.2-0.7,0l-4.2-4.2c-0.2-0.2-0.2-0.5,0-0.7l3.5-3.5
		C404.5-51.8,404.8-51.8,405-51.6z"/>
	
		<path id="rect4011-6-5-9-6-4-7" inkscape:transform-center-x="-6.0104027" inkscape:transform-center-y="-6.0104066" class="st13" d="
		M405-50.2l2.8,2.8c0.2,0.2,0.2,0.5,0,0.7l-2.8,2.8c-0.2,0.2-0.5,0.2-0.7,0l-2.8-2.8c-0.2-0.2-0.2-0.5,0-0.7l2.8-2.8
		C404.5-50.4,404.8-50.4,405-50.2z"/>
	
		<path id="rect4011-9-0-6-9-3" inkscape:transform-center-x="-5.6568493" inkscape:transform-center-y="-5.6568532" class="st14" d="
		M405-48.8l1.4,1.4c0.2,0.2,0.2,0.5,0,0.7l-2.1,2.1c-0.2,0.2-0.5,0.2-0.7,0l-1.4-1.4c-0.2-0.2-0.2-0.5,0-0.7l2.1-2.1
		C404.5-49,404.8-49,405-48.8z"/>
	
		<path id="rect4011-6-7-6-4-83-7" inkscape:transform-center-x="-6.3639561" inkscape:transform-center-y="6.3639621" class="st13" d="
		M409.3-34.6l-4.2,4.2c-0.2,0.2-0.5,0.2-0.7,0l-3.5-3.5c-0.2-0.2-0.2-0.5,0-0.7l4.2-4.2c0.2-0.2,0.5-0.2,0.7,0l3.5,3.5
		C409.5-35.1,409.5-34.8,409.3-34.6z"/>
	
		<path id="rect4011-6-5-9-6-3-9" inkscape:transform-center-x="-6.0104027" inkscape:transform-center-y="6.0104087" class="st13" d="
		M407.8-34.6l-2.8,2.8c-0.2,0.2-0.5,0.2-0.7,0l-2.8-2.8c-0.2-0.2-0.2-0.5,0-0.7l2.8-2.8c0.2-0.2,0.5-0.2,0.7,0l2.8,2.8
		C408-35.1,408-34.8,407.8-34.6z"/>
	<path id="rect4011-9-0-6-1-3" inkscape:transform-center-x="-5.6568493" inkscape:transform-center-y="5.6568553" class="st14" d="
		M406.4-34.6l-1.4,1.4c-0.2,0.2-0.5,0.2-0.7,0l-2.1-2.1c-0.2-0.2-0.2-0.5,0-0.7l1.4-1.4c0.2-0.2,0.5-0.2,0.7,0l2.1,2.1
		C406.6-35.1,406.6-34.8,406.4-34.6z"/>
	<path id="rect4011-6-7-6-4-5-6" inkscape:transform-center-x="6.363966" inkscape:transform-center-y="6.3639621" class="st13" d="
		M392.3-30.4l-4.2-4.2c-0.2-0.2-0.2-0.5,0-0.7l3.5-3.5c0.2-0.2,0.5-0.2,0.7,0l4.2,4.2c0.2,0.2,0.2,0.5,0,0.7l-3.5,3.5
		C392.8-30.2,392.5-30.2,392.3-30.4z"/>
	
		<path id="rect4011-6-5-9-6-31-2" inkscape:transform-center-x="6.0104126" inkscape:transform-center-y="6.0104087" class="st13" d="
		M392.3-31.8l-2.8-2.8c-0.2-0.2-0.2-0.5,0-0.7l2.8-2.8c0.2-0.2,0.5-0.2,0.7,0l2.8,2.8c0.2,0.2,0.2,0.5,0,0.7l-2.8,2.8
		C392.8-31.6,392.5-31.6,392.3-31.8z"/>
	<path id="rect4011-9-0-6-7-0" inkscape:transform-center-x="5.6568592" inkscape:transform-center-y="5.6568553" class="st14" d="
		M392.3-33.2l-1.4-1.4c-0.2-0.2-0.2-0.5,0-0.7l2.1-2.1c0.2-0.2,0.5-0.2,0.7,0l1.4,1.4c0.2,0.2,0.2,0.5,0,0.7l-2.1,2.1
		C392.8-33,392.5-33,392.3-33.2z"/>
	
		<path id="rect4011-6-7-6-4-2-1" inkscape:transform-center-x="6.363966" inkscape:transform-center-y="-6.3639599" class="st13" d="
		M388.1-47.4l4.2-4.2c0.2-0.2,0.5-0.2,0.7,0l3.5,3.5c0.2,0.2,0.2,0.5,0,0.7l-4.2,4.2c-0.2,0.2-0.5,0.2-0.7,0l-3.5-3.5
		C387.9-46.9,387.9-47.2,388.1-47.4z"/>
	
		<path id="rect4011-6-5-9-6-6-1" inkscape:transform-center-x="6.0104126" inkscape:transform-center-y="-6.0104066" class="st13" d="
		M389.5-47.4l2.8-2.8c0.2-0.2,0.5-0.2,0.7,0l2.8,2.8c0.2,0.2,0.2,0.5,0,0.7l-2.8,2.8c-0.2,0.2-0.5,0.2-0.7,0l-2.8-2.8
		C389.3-46.9,389.3-47.2,389.5-47.4z"/>
	<path id="rect4011-9-0-6-6-2" inkscape:transform-center-x="5.6568592" inkscape:transform-center-y="-5.6568532" class="st14" d="
		M390.9-47.4l1.4-1.4c0.2-0.2,0.5-0.2,0.7,0l2.1,2.1c0.2,0.2,0.2,0.5,0,0.7l-1.4,1.4c-0.2,0.2-0.5,0.2-0.7,0l-2.1-2.1
		C390.7-46.9,390.7-47.2,390.9-47.4z"/>
	<circle id="path3818-8" class="st15" cx="398.7" cy="-41" r="6"/>
	<path id="path4609-54" inkscape:connector-curvature="0" sodipodi:nodetypes="ccccccc" class="st13" d="M439.7-46h4v4h7v-11h-11
		V-46"/>
	<path id="path4609-4-5" inkscape:connector-curvature="0" sodipodi:nodetypes="ccccccc" class="st13" d="M440.7-47h4v4h5v-9h-9V-47
		"/>
	<path id="path4609-8-4" inkscape:connector-curvature="0" class="st14" d="M441.7-48h4v4h3v-7h-7V-48"/>
	<path id="path4609-6-0" inkscape:connector-curvature="0" sodipodi:nodetypes="ccccccc" class="st13" d="M443.7-40v4h-4v7h11v-11
		H443.7"/>
	<path id="path4609-4-0-1" inkscape:connector-curvature="0" sodipodi:nodetypes="ccccccc" class="st13" d="M444.7-39v4h-4v5h9v-9
		H444.7"/>
	<path id="path4609-8-9-8" inkscape:connector-curvature="0" class="st14" d="M445.7-38v4h-4v3h7v-7H445.7"/>
	<path id="path4609-7-7" inkscape:connector-curvature="0" sodipodi:nodetypes="ccccccc" class="st13" d="M433.7-36h-4v-4h-7v11h11
		V-36"/>
	<path id="path4609-4-4-7" inkscape:connector-curvature="0" sodipodi:nodetypes="ccccccc" class="st13" d="M432.7-35h-4v-4h-5v9h9
		V-35"/>
	<path id="path4609-8-3-6" inkscape:connector-curvature="0" class="st14" d="M431.7-34h-4v-4h-3v7h7V-34"/>
	<path id="path4609-2-0" inkscape:connector-curvature="0" sodipodi:nodetypes="ccccccc" class="st13" d="M429.7-42v-4h4v-7h-11v11
		H429.7"/>
	<path id="path4609-4-05-5" inkscape:connector-curvature="0" sodipodi:nodetypes="ccccccc" class="st13" d="M428.7-43v-4h4v-5h-9v9
		H428.7"/>
	<path id="path4609-8-6-6" inkscape:connector-curvature="0" class="st14" d="M427.7-44v-4h4v-3h-7v7H427.7"/>
	<path id="path4609-5-6" inkscape:connector-curvature="0" sodipodi:nodetypes="ccccccc" class="st13" d="M461.7-33h4v4h7v-11h-11
		V-33"/>
	<path id="path4609-4-3-1" inkscape:connector-curvature="0" sodipodi:nodetypes="ccccccc" class="st13" d="M462.7-34h4v4h5v-9h-9
		V-34"/>
	<path id="path4609-8-0-0" inkscape:connector-curvature="0" class="st14" d="M463.7-35h4v4h3v-7h-7V-35"/>
	<path id="path4609-7-6-9" inkscape:connector-curvature="0" sodipodi:nodetypes="ccccccc" class="st13" d="M487.7-49h-4v-4h-7v11
		h11V-49"/>
	<path id="path4609-4-4-3-5" inkscape:connector-curvature="0" sodipodi:nodetypes="ccccccc" class="st13" d="M486.7-48h-4v-4h-5v9
		h9V-48"/>
	<path id="path4609-8-3-5-7" inkscape:connector-curvature="0" class="st14" d="M485.7-47h-4v-4h-3v7h7V-47"/>
	<path id="path4609-2-9-6" inkscape:connector-curvature="0" sodipodi:nodetypes="ccccccc" class="st13" d="M483.7-29v-4h4v-7h-11
		v11H483.7"/>
	<path id="path4609-4-05-6-9" inkscape:connector-curvature="0" sodipodi:nodetypes="ccccccc" class="st13" d="M482.7-30v-4h4v-5h-9
		v9H482.7"/>
	<path id="path4609-8-6-1-6" inkscape:connector-curvature="0" class="st14" d="M481.7-31v-4h4v-3h-7v7H481.7"/>
	<path id="path4609-6-2-8" inkscape:connector-curvature="0" sodipodi:nodetypes="ccccccc" class="st13" d="M465.7-53v4h-4v7h11v-11
		H465.7"/>
	<path id="path4609-4-0-7-2" inkscape:connector-curvature="0" sodipodi:nodetypes="ccccccc" class="st13" d="M466.7-52v4h-4v5h9v-9
		H466.7"/>
	<path id="path4609-8-9-0-2" inkscape:connector-curvature="0" class="st14" d="M467.7-51v4h-4v3h7v-7H467.7"/>
	<path id="path3019-2-1-5-0" inkscape:connector-curvature="0" sodipodi:nodetypes="ccccc" class="st0" d="M167.7-50l9,6v6l-9,6V-50
		z"/>
	<path id="path3019-5-7-4-4-5" inkscape:connector-curvature="0" sodipodi:nodetypes="ccccc" class="st0" d="M168.7-48.5l9,5.8v3.3
		l-9,5.8V-48.5z"/>
	<rect id="rect4011-6-7-6-73-6" x="176.7" y="-50" class="st0" width="6" height="18"/>
	<rect id="rect4011-6-5-9-1-3" x="177.7" y="-49" class="st0" width="4" height="16"/>
	<rect id="rect4011-9-0-5-7" x="178.7" y="-48" class="st14" width="2" height="14"/>
	<path id="path3019-5-2-7-5-0-49" inkscape:connector-curvature="0" sodipodi:nodetypes="cccc" class="st14" d="M169.7-47l9.5,6
		l-9.5,6V-47z"/>
	<path id="path3019-2-1-5-8-49" inkscape:connector-curvature="0" sodipodi:nodetypes="ccccc" class="st0" d="M158.7-50l9,6v6l-9,6
		V-50z"/>
	<path id="path3019-5-7-4-4-4-5" inkscape:connector-curvature="0" sodipodi:nodetypes="ccccc" class="st0" d="M159.7-48.5l9,5.8
		v3.3l-9,5.8V-48.5z"/>
	<path id="path3019-5-2-7-5-0-9-6" inkscape:connector-curvature="0" sodipodi:nodetypes="cccc" class="st14" d="M160.7-47l9.5,6
		l-9.5,6V-47z"/>
	<path id="path3019-2-1-5-5-2" inkscape:connector-curvature="0" sodipodi:nodetypes="ccccc" class="st0" d="M211.7-50l-9,6v6l9,6
		V-50z"/>
	<path id="path3019-5-7-4-4-6-3" inkscape:connector-curvature="0" sodipodi:nodetypes="ccccc" class="st0" d="M210.7-48.5l-9,5.8
		v3.3l9,5.8V-48.5z"/>
	<rect id="rect4011-6-7-6-73-1-3" x="196.7" y="-50" class="st0" width="6" height="18"/>
	<rect id="rect4011-6-5-9-1-5-9" x="197.7" y="-49" class="st0" width="4" height="16"/>
	<rect id="rect4011-9-0-5-3-0" x="198.7" y="-48" class="st14" width="2" height="14"/>
	<path id="path3019-5-2-7-5-0-4-5" inkscape:connector-curvature="0" sodipodi:nodetypes="cccc" class="st14" d="M209.7-47l-9.5,6
		l9.5,6L209.7-47z"/>
	<path id="path3019-2-1-5-8-4-6" inkscape:connector-curvature="0" sodipodi:nodetypes="ccccc" class="st0" d="M220.7-50l-9,6v6l9,6
		V-50z"/>
	<path id="path3019-5-7-4-4-4-9-6" inkscape:connector-curvature="0" sodipodi:nodetypes="ccccc" class="st0" d="M219.7-48.5l-9,5.8
		v3.3l9,5.8V-48.5z"/>
	<path id="path3019-5-2-7-5-0-9-2-1" inkscape:connector-curvature="0" sodipodi:nodetypes="cccc" class="st14" d="M218.7-47l-9.5,6
		l9.5,6L218.7-47z"/>
	<path id="path3019-2-1-2-1-8" inkscape:connector-curvature="0" sodipodi:nodetypes="ccccc" class="st0" d="M348.7-42l7,7h10l7-7
		H348.7z"/>
	<path id="path3019-5-7-4-6-5-9" inkscape:connector-curvature="0" sodipodi:nodetypes="ccccc" class="st0" d="M350.7-41l7.2,7h5.6
		l7.2-7H350.7z"/>
	<rect id="rect4011-6-7-6-7-6-0" x="349.7" y="-35" class="st0" width="22" height="5.5"/>
	<rect id="rect4011-6-5-9-9-1-3" x="351.2" y="-34" class="st0" width="19" height="3.5"/>
	<rect id="rect4011-9-0-7-7-8" x="352.7" y="-33" class="st14" width="16" height="1.5"/>
	<path id="path3019-5-2-7-5-3-2-9" inkscape:connector-curvature="0" sodipodi:nodetypes="cccc" class="st14" d="M352.7-40l8,7.5
		l8-7.5H352.7z"/>
	<rect id="rect4011-6-7-6-6-2" x="355.7" y="-53" class="st0" width="10" height="11"/>
	<rect id="rect4011-6-5-9-0-4" x="356.7" y="-52" class="st0" width="8" height="11"/>
	<rect id="rect4011-9-0-4-9" x="357.7" y="-51" class="st14" width="6" height="11"/>
	<path id="path3019-3-7" inkscape:connector-curvature="0" sodipodi:nodetypes="ccccc" class="st0" d="M528.7-47.3v3.3l-4.6,7.1
		l-13-5.8L528.7-47.3z"/>
	<path id="path3019-5-4-6" inkscape:connector-curvature="0" sodipodi:nodetypes="ccccc" class="st0" d="M528.7-46.3v0.8l-5,7.2
		l-9.4-4.2L528.7-46.3z"/>
	
		<path id="path3818-4-9-7-9" sodipodi:cx="210" sodipodi:cy="10" sodipodi:end="6.0213859" sodipodi:open="true" sodipodi:rx="4.4586492" sodipodi:ry="4.4586492" sodipodi:start="0.52468555" sodipodi:type="arc" class="st8" d="
		M521.3-36c-2.4,4.1-7.4,6-11.9,4.5c-4.5-1.5-7.3-6-6.7-10.8s4.5-8.4,9.3-8.7c4.8-0.3,9.1,2.8,10.3,7.4"/>
	
		<path id="path3818-4-4-4" sodipodi:cx="210" sodipodi:cy="10" sodipodi:end="6.0213859" sodipodi:open="true" sodipodi:rx="4.4586492" sodipodi:ry="4.4586492" sodipodi:start="0.65400499" sodipodi:type="arc" class="st9" d="
		M520.6-34.9c-2.8,3.7-7.8,4.9-12.1,3c-4.2-1.9-6.6-6.5-5.7-11.1c0.9-4.6,4.8-7.9,9.5-8c4.6-0.2,8.8,2.9,10,7.4"/>
	
		<path id="path3818-2-4" sodipodi:cx="210" sodipodi:cy="10" sodipodi:end="6.0213859" sodipodi:open="true" sodipodi:rx="4.4586492" sodipodi:ry="4.4586492" sodipodi:start="0.78539816" sodipodi:type="arc" class="st16" d="
		M519.7-33.9c-3.2,3.2-8.2,3.9-12.1,1.6s-5.8-6.9-4.7-11.2s5.1-7.4,9.7-7.4c4.5,0,8.5,3,9.7,7.4"/>
	<path id="path3019-5-2-6-5" inkscape:connector-curvature="0" sodipodi:nodetypes="cccc" class="st14" d="M527.1-45l-3.8,5.2
		l-5.9-2.6L527.1-45z"/>
	<path id="path3980-1" inkscape:connector-curvature="0" sodipodi:nodetypes="ccccccccccc" class="st0" d="M316.7-30h12v-6h-2v-9
		h-10v6h2v3h-2V-30z"/>
	<path id="path3978-9" inkscape:connector-curvature="0" sodipodi:nodetypes="ccccccccccc" class="st0" d="M317.7-31h10v-4h-2v-9h-8
		v4h2v5h-2V-31z"/>
	<path id="path3974-4" inkscape:connector-curvature="0" sodipodi:nodetypes="ccccccccccc" class="st14" d="M318.7-32h8v-2h-2v-9h-6
		v2h2v7h-2V-32z"/>
	<circle id="path3984-7" class="st0" cx="322.7" cy="-47.5" r="4.5"/>
	<circle id="path3982-0" class="st0" cx="322.7" cy="-47.5" r="3.5"/>
	<circle id="path3976-9" class="st14" cx="322.7" cy="-47.5" r="2.5"/>
	<circle id="path3984-5" class="st0" cx="322.7" cy="-9.5" r="4.5"/>
	<circle id="path3982-9" class="st0" cx="322.7" cy="-9.5" r="3.5"/>
	<path id="path3980-0" inkscape:connector-curvature="0" sodipodi:nodetypes="ccccccccccc" class="st0" d="M316.7,8h12V2h-2v-9h-10
		v6h2v3h-2V8z"/>
	<path id="path3978-1" inkscape:connector-curvature="0" sodipodi:nodetypes="ccccccccccc" class="st0" d="M317.7,7h10V3h-2v-9h-8v4
		h2v5h-2V7z"/>
	<path id="path3019-3-2" inkscape:connector-curvature="0" sodipodi:nodetypes="ccccc" class="st0" d="M528.7-9.3V-6L524,1.1
		l-13-5.8L528.7-9.3z"/>
	<path id="path3019-5-4-2" inkscape:connector-curvature="0" sodipodi:nodetypes="ccccc" class="st0" d="M528.7-8.3v0.8l-5,7.2
		l-9.4-4.2L528.7-8.3z"/>
	<circle id="path3818-4-9-9" class="st1" cx="398.7" cy="-3" r="6"/>
	<circle id="path3818-4-6" class="st2" cx="398.7" cy="-3" r="6"/>
	<path id="rect4011-6-7-6-4-98" inkscape:transform-center-y="-9" class="st0" d="M395.7-15h6c0.3,0,0.5,0.2,0.5,0.5v5
		c0,0.3-0.2,0.5-0.5,0.5h-6c-0.3,0-0.5-0.2-0.5-0.5v-5C395.2-14.8,395.4-15,395.7-15z"/>
	<path id="rect4011-6-5-9-6-9" inkscape:transform-center-y="-8.5" class="st0" d="M396.7-14h4c0.3,0,0.5,0.2,0.5,0.5v4
		c0,0.3-0.2,0.5-0.5,0.5h-4c-0.3,0-0.5-0.2-0.5-0.5v-4C396.2-13.8,396.4-14,396.7-14z"/>
	<rect id="rect4011-6-7-5" x="57.7" y="-15" class="st0" width="11" height="24"/>
	<rect id="rect4011-6-5-99" x="58.7" y="-14" class="st0" width="9" height="22"/>
	<rect id="rect4011-6-3-12" x="44.7" y="-15" class="st0" width="11" height="24"/>
	<rect id="rect4011-6-9" x="45.7" y="-14" class="st0" width="9" height="22"/>
	<path id="path3019-39" inkscape:connector-curvature="0" sodipodi:nodetypes="cccc" class="st0" d="M6.7-16l25,13l-25,13V-16z"/>
	<path id="path3019-1-7-4-8" inkscape:connector-curvature="0" sodipodi:nodetypes="cccc" class="st4" d="M250.1-10.9l-10.6,4.7
		l10.6,4.7V-10.9z"/>
	<path id="path3963-0" inkscape:connector-curvature="0" sodipodi:nodetypes="cccsc" class="st5" d="M248.6-5
		c7.8-0.8,7.3,1.7,6.8,3.4c-0.8,2.3-7.6,7.9-3.1,3.9c6.1-5.4,8.4-8.6-3.7-9.4C245.6-7.4,248.6-5,248.6-5"/>
	<path id="path3019-1-7-4-0-3" inkscape:connector-curvature="0" sodipodi:nodetypes="cccc" class="st4" d="M283.3,4.9l9.1-4.7
		l-9.1-4.7V4.9z"/>
	<path id="path3963-8-6" inkscape:connector-curvature="0" sodipodi:nodetypes="cccsc" class="st5" d="M284.8-0.9
		c-7.8,0.8-7.3-1.7-6.8-3.4c0.8-2.3,7.6-7.9,3.1-3.9c-6.1,5.4-8.4,8.6,3.7,9.4C287.9,1.5,284.8-0.9,284.8-0.9"/>
	<rect id="rect4011-5" x="46.7" y="-13" class="st17" width="7" height="20"/>
	<rect id="rect4011-9-4" x="59.7" y="-13" class="st17" width="7" height="20"/>
	<path id="path3019-5-43" inkscape:connector-curvature="0" sodipodi:nodetypes="cccc" class="st0" d="M7.7-14.5L29.7-3L7.7,8.5
		V-14.5z"/>
	<path id="path3019-5-2-9" inkscape:connector-curvature="0" sodipodi:nodetypes="cccc" class="st17" d="M8.7-13l19,10L8.7,7V-13z"
		/>
	<path id="path3019-2-1-7" inkscape:connector-curvature="0" sodipodi:nodetypes="ccccc" class="st0" d="M85.7-12l12,6v6l-12,6V-12z
		"/>
	<path id="path3019-5-7-4-76" inkscape:connector-curvature="0" sodipodi:nodetypes="ccccc" class="st0" d="M86.7-10.5l12,5.8v3.3
		l-12,5.9V-10.5z"/>
	<rect id="rect4011-6-7-6-2" x="97.7" y="-12" class="st0" width="6" height="18"/>
	<rect id="rect4011-6-5-9-68" x="98.7" y="-11" class="st0" width="4" height="16"/>
	<rect id="rect4011-9-0-60" x="99.7" y="-10" class="st17" width="2" height="14"/>
	<path id="path3019-5-2-7-5-058" inkscape:connector-curvature="0" sodipodi:nodetypes="cccc" class="st17" d="M87.7-9l12.5,6
		L87.7,3V-9z"/>
	<path id="path3019-2-1-2-9" inkscape:connector-curvature="0" sodipodi:nodetypes="ccccc" class="st0" d="M141.7-12l-12,6v6l12,6
		V-12z"/>
	<path id="path3019-5-7-4-6-3" inkscape:connector-curvature="0" sodipodi:nodetypes="ccccc" class="st0" d="M140.7-10.5l-12,5.8
		v3.3l12,5.9V-10.5z"/>
	<rect id="rect4011-6-7-6-7-7" x="123.7" y="-12" class="st0" width="6" height="18"/>
	<rect id="rect4011-6-5-9-9-6" x="124.7" y="-11" class="st0" width="4" height="16"/>
	<rect id="rect4011-9-0-7-3" x="125.7" y="-10" class="st17" width="2" height="14"/>
	<path id="path3019-5-2-7-5-3-7" inkscape:connector-curvature="0" sodipodi:nodetypes="cccc" class="st17" d="M139.7-9l-12.5,6
		l12.5,6V-9z"/>
	<path id="rect4011-9-0-6-07" inkscape:transform-center-y="-8" class="st17" d="M397.7-13h2c0.3,0,0.5,0.2,0.5,0.5v3
		c0,0.3-0.2,0.5-0.5,0.5h-2c-0.3,0-0.5-0.2-0.5-0.5v-3C397.2-12.8,397.4-13,397.7-13z"/>
	<path id="rect4011-6-7-6-4-8-8" inkscape:transform-center-x="-10" class="st0" d="M410.7-6v6c0,0.3-0.2,0.5-0.5,0.5h-5
		c-0.3,0-0.5-0.2-0.5-0.5v-6c0-0.3,0.2-0.5,0.5-0.5h5C410.4-6.5,410.7-6.3,410.7-6z"/>
	<path id="rect4011-6-5-9-6-2-36" inkscape:transform-center-x="-9.5" class="st0" d="M409.7-5v4c0,0.3-0.2,0.5-0.5,0.5h-4
		c-0.3,0-0.5-0.2-0.5-0.5v-4c0-0.3,0.2-0.5,0.5-0.5h4C409.4-5.5,409.7-5.3,409.7-5z"/>
	<path id="rect4011-9-0-6-5-9" inkscape:transform-center-x="-9" class="st17" d="M408.7-4v2c0,0.3-0.2,0.5-0.5,0.5h-3
		c-0.3,0-0.5-0.2-0.5-0.5v-2c0-0.3,0.2-0.5,0.5-0.5h3C408.4-4.5,408.7-4.3,408.7-4z"/>
	<path id="rect4011-6-7-6-4-84-5" inkscape:transform-center-y="10" class="st0" d="M401.7,9h-6c-0.3,0-0.5-0.2-0.5-0.5v-5
		c0-0.3,0.2-0.5,0.5-0.5h6c0.3,0,0.5,0.2,0.5,0.5v5C402.2,8.8,401.9,9,401.7,9z"/>
	<path id="rect4011-6-5-9-6-1-1" inkscape:transform-center-y="9.5" class="st0" d="M400.7,8h-4c-0.3,0-0.5-0.2-0.5-0.5v-4
		c0-0.3,0.2-0.5,0.5-0.5h4c0.3,0,0.5,0.2,0.5,0.5v4C401.2,7.8,400.9,8,400.7,8z"/>
	<path id="rect4011-9-0-6-0-7" inkscape:transform-center-y="9" class="st17" d="M399.7,7h-2c-0.3,0-0.5-0.2-0.5-0.5v-3
		c0-0.3,0.2-0.5,0.5-0.5h2c0.3,0,0.5,0.2,0.5,0.5v3C400.2,6.8,399.9,7,399.7,7z"/>
	<path id="rect4011-6-7-6-4-9-1" inkscape:transform-center-x="10" class="st0" d="M386.7,0v-6c0-0.3,0.2-0.5,0.5-0.5h5
		c0.3,0,0.5,0.2,0.5,0.5v6c0,0.3-0.2,0.5-0.5,0.5h-5C386.9,0.5,386.7,0.3,386.7,0z"/>
	<path id="rect4011-6-5-9-6-05-6" inkscape:transform-center-x="9.5" class="st0" d="M387.7-1v-4c0-0.3,0.2-0.5,0.5-0.5h4
		c0.3,0,0.5,0.2,0.5,0.5v4c0,0.3-0.2,0.5-0.5,0.5h-4C387.9-0.5,387.7-0.7,387.7-1z"/>
	<path id="rect4011-9-0-6-53-24" inkscape:transform-center-x="9" class="st17" d="M388.7-2v-2c0-0.3,0.2-0.5,0.5-0.5h3
		c0.3,0,0.5,0.2,0.5,0.5v2c0,0.3-0.2,0.5-0.5,0.5h-3C388.9-1.5,388.7-1.7,388.7-2z"/>
	
		<path id="rect4011-6-7-6-4-7-7" inkscape:transform-center-x="-6.3639561" inkscape:transform-center-y="-6.3639599" class="st0" d="
		M405-13.6l4.2,4.2c0.2,0.2,0.2,0.5,0,0.7l-3.5,3.5c-0.2,0.2-0.5,0.2-0.7,0l-4.2-4.2c-0.2-0.2-0.2-0.5,0-0.7l3.5-3.5
		C404.5-13.8,404.8-13.8,405-13.6z"/>
	
		<path id="rect4011-6-5-9-6-4-9" inkscape:transform-center-x="-6.0104027" inkscape:transform-center-y="-6.0104066" class="st0" d="
		M405-12.2l2.8,2.8c0.2,0.2,0.2,0.5,0,0.7L405-5.8c-0.2,0.2-0.5,0.2-0.7,0l-2.8-2.8c-0.2-0.2-0.2-0.5,0-0.7l2.8-2.8
		C404.5-12.4,404.8-12.4,405-12.2z"/>
	
		<path id="rect4011-9-0-6-9-1" inkscape:transform-center-x="-5.6568493" inkscape:transform-center-y="-5.6568532" class="st17" d="
		M405-10.8l1.4,1.4c0.2,0.2,0.2,0.5,0,0.7l-2.1,2.1c-0.2,0.2-0.5,0.2-0.7,0l-1.4-1.4c-0.2-0.2-0.2-0.5,0-0.7l2.1-2.1
		C404.5-11,404.8-11,405-10.8z"/>
	
		<path id="rect4011-6-7-6-4-83-3" inkscape:transform-center-x="-6.3639561" inkscape:transform-center-y="6.3639621" class="st0" d="
		M409.3,3.4L405,7.6c-0.2,0.2-0.5,0.2-0.7,0l-3.5-3.5c-0.2-0.2-0.2-0.5,0-0.7l4.2-4.2c0.2-0.2,0.5-0.2,0.7,0l3.5,3.5
		C409.5,2.9,409.5,3.2,409.3,3.4z"/>
	
		<path id="rect4011-6-5-9-6-3-3" inkscape:transform-center-x="-6.0104027" inkscape:transform-center-y="6.0104087" class="st0" d="
		M407.8,3.4L405,6.2c-0.2,0.2-0.5,0.2-0.7,0l-2.8-2.8c-0.2-0.2-0.2-0.5,0-0.7l2.8-2.8c0.2-0.2,0.5-0.2,0.7,0l2.8,2.8
		C408,2.9,408,3.2,407.8,3.4z"/>
	<path id="rect4011-9-0-6-1-9" inkscape:transform-center-x="-5.6568493" inkscape:transform-center-y="5.6568553" class="st17" d="
		M406.4,3.4L405,4.8c-0.2,0.2-0.5,0.2-0.7,0l-2.1-2.1c-0.2-0.2-0.2-0.5,0-0.7l1.4-1.4c0.2-0.2,0.5-0.2,0.7,0l2.1,2.1
		C406.6,2.9,406.6,3.2,406.4,3.4z"/>
	<path id="rect4011-6-7-6-4-5-1" inkscape:transform-center-x="6.363966" inkscape:transform-center-y="6.3639621" class="st0" d="
		M392.3,7.6l-4.2-4.2c-0.2-0.2-0.2-0.5,0-0.7l3.5-3.5c0.2-0.2,0.5-0.2,0.7,0l4.2,4.2c0.2,0.2,0.2,0.5,0,0.7L393,7.6
		C392.8,7.8,392.5,7.8,392.3,7.6z"/>
	
		<path id="rect4011-6-5-9-6-31-9" inkscape:transform-center-x="6.0104126" inkscape:transform-center-y="6.0104087" class="st0" d="
		M392.3,6.2l-2.8-2.8c-0.2-0.2-0.2-0.5,0-0.7l2.8-2.8c0.2-0.2,0.5-0.2,0.7,0l2.8,2.8c0.2,0.2,0.2,0.5,0,0.7L393,6.2
		C392.8,6.4,392.5,6.4,392.3,6.2z"/>
	<path id="rect4011-9-0-6-7-01" inkscape:transform-center-x="5.6568592" inkscape:transform-center-y="5.6568553" class="st17" d="
		M392.3,4.8l-1.4-1.4c-0.2-0.2-0.2-0.5,0-0.7l2.1-2.1c0.2-0.2,0.5-0.2,0.7,0l1.4,1.4c0.2,0.2,0.2,0.5,0,0.7L393,4.8
		C392.8,5,392.5,5,392.3,4.8z"/>
	<path id="rect4011-6-7-6-4-2-6" inkscape:transform-center-x="6.363966" inkscape:transform-center-y="-6.3639599" class="st0" d="
		M388.1-9.4l4.2-4.2c0.2-0.2,0.5-0.2,0.7,0l3.5,3.5c0.2,0.2,0.2,0.5,0,0.7l-4.2,4.2c-0.2,0.2-0.5,0.2-0.7,0l-3.5-3.5
		C387.9-8.9,387.9-9.2,388.1-9.4z"/>
	
		<path id="rect4011-6-5-9-6-6-8" inkscape:transform-center-x="6.0104126" inkscape:transform-center-y="-6.0104066" class="st0" d="
		M389.5-9.4l2.8-2.8c0.2-0.2,0.5-0.2,0.7,0l2.8,2.8c0.2,0.2,0.2,0.5,0,0.7L393-5.8c-0.2,0.2-0.5,0.2-0.7,0l-2.8-2.8
		C389.3-8.9,389.3-9.2,389.5-9.4z"/>
	<path id="rect4011-9-0-6-6-3" inkscape:transform-center-x="5.6568592" inkscape:transform-center-y="-5.6568532" class="st17" d="
		M390.9-9.4l1.4-1.4c0.2-0.2,0.5-0.2,0.7,0l2.1,2.1c0.2,0.2,0.2,0.5,0,0.7l-1.4,1.4c-0.2,0.2-0.5,0.2-0.7,0l-2.1-2.1
		C390.7-8.9,390.7-9.2,390.9-9.4z"/>
	<circle id="path3818-0" class="st18" cx="398.7" cy="-3" r="6"/>
	<path id="path4609-81" inkscape:connector-curvature="0" sodipodi:nodetypes="ccccccc" class="st0" d="M439.7-8h4v4h7v-11h-11V-8"
		/>
	<path id="path4609-4-57" inkscape:connector-curvature="0" sodipodi:nodetypes="ccccccc" class="st0" d="M440.7-9h4v4h5v-9h-9V-9"
		/>
	<path id="path4609-8-1" inkscape:connector-curvature="0" class="st17" d="M441.7-10h4v4h3v-7h-7V-10"/>
	<path id="path4609-6-25" inkscape:connector-curvature="0" sodipodi:nodetypes="ccccccc" class="st0" d="M443.7-2v4h-4v7h11V-2
		L443.7-2"/>
	<path id="path4609-4-0-4" inkscape:connector-curvature="0" sodipodi:nodetypes="ccccccc" class="st0" d="M444.7-1v4h-4v5h9v-9
		L444.7-1"/>
	<path id="path4609-8-9-04" inkscape:connector-curvature="0" class="st17" d="M445.7,0v4h-4v3h7V0L445.7,0"/>
	<path id="path4609-7-2" inkscape:connector-curvature="0" sodipodi:nodetypes="ccccccc" class="st0" d="M433.7,2h-4v-4h-7V9h11V2"
		/>
	<path id="path4609-4-4-1" inkscape:connector-curvature="0" sodipodi:nodetypes="ccccccc" class="st0" d="M432.7,3h-4v-4h-5v9h9V3"
		/>
	<path id="path4609-8-3-2" inkscape:connector-curvature="0" class="st17" d="M431.7,4h-4V0h-3v7h7V4"/>
	<path id="path4609-2-3" inkscape:connector-curvature="0" sodipodi:nodetypes="ccccccc" class="st0" d="M429.7-4v-4h4v-7h-11v11
		H429.7"/>
	<path id="path4609-4-05-9" inkscape:connector-curvature="0" sodipodi:nodetypes="ccccccc" class="st0" d="M428.7-5v-4h4v-5h-9v9
		H428.7"/>
	<path id="path4609-8-6-69" inkscape:connector-curvature="0" class="st17" d="M427.7-6v-4h4v-3h-7v7H427.7"/>
	<path id="path4609-5-7" inkscape:connector-curvature="0" sodipodi:nodetypes="ccccccc" class="st0" d="M461.7,5h4v4h7V-2h-11V5"/>
	<path id="path4609-4-3-7" inkscape:connector-curvature="0" sodipodi:nodetypes="ccccccc" class="st0" d="M462.7,4h4v4h5v-9h-9V4"
		/>
	<path id="path4609-8-0-1" inkscape:connector-curvature="0" class="st17" d="M463.7,3h4v4h3V0h-7V3"/>
	<path id="path4609-7-6-0" inkscape:connector-curvature="0" sodipodi:nodetypes="ccccccc" class="st0" d="M487.7-11h-4v-4h-7v11h11
		V-11"/>
	<path id="path4609-4-4-3-2" inkscape:connector-curvature="0" sodipodi:nodetypes="ccccccc" class="st0" d="M486.7-10h-4v-4h-5v9h9
		V-10"/>
	<path id="path4609-8-3-5-2" inkscape:connector-curvature="0" class="st17" d="M485.7-9h-4v-4h-3v7h7V-9"/>
	<path id="path4609-2-9-2" inkscape:connector-curvature="0" sodipodi:nodetypes="ccccccc" class="st0" d="M483.7,9V5h4v-7h-11V9
		H483.7"/>
	<path id="path4609-4-05-6-2" inkscape:connector-curvature="0" sodipodi:nodetypes="ccccccc" class="st0" d="M482.7,8V4h4v-5h-9v9
		H482.7"/>
	<path id="path4609-8-6-1-4" inkscape:connector-curvature="0" class="st17" d="M481.7,7V3h4V0h-7v7H481.7"/>
	<path id="path4609-6-2-5" inkscape:connector-curvature="0" sodipodi:nodetypes="ccccccc" class="st0" d="M465.7-15v4h-4v7h11v-11
		H465.7"/>
	<path id="path4609-4-0-7-0" inkscape:connector-curvature="0" sodipodi:nodetypes="ccccccc" class="st0" d="M466.7-14v4h-4v5h9v-9
		H466.7"/>
	<path id="path4609-8-9-0-3" inkscape:connector-curvature="0" class="st17" d="M467.7-13v4h-4v3h7v-7H467.7"/>
	<path id="path3019-2-1-5-00" inkscape:connector-curvature="0" sodipodi:nodetypes="ccccc" class="st0" d="M167.7-12l9,6v6l-9,6
		V-12z"/>
	<path id="path3019-5-7-4-4-1" inkscape:connector-curvature="0" sodipodi:nodetypes="ccccc" class="st0" d="M168.7-10.5l9,5.8v3.3
		l-9,5.9V-10.5z"/>
	<rect id="rect4011-6-7-6-73-2" x="176.7" y="-12" class="st0" width="6" height="18"/>
	<rect id="rect4011-6-5-9-1-7" x="177.7" y="-11" class="st0" width="4" height="16"/>
	<rect id="rect4011-9-0-5-0" x="178.7" y="-10" class="st17" width="2" height="14"/>
	<path id="path3019-5-2-7-5-0-5" inkscape:connector-curvature="0" sodipodi:nodetypes="cccc" class="st17" d="M169.7-9l9.5,6
		l-9.5,6L169.7-9z"/>
	<path id="path3019-2-1-5-8-9" inkscape:connector-curvature="0" sodipodi:nodetypes="ccccc" class="st0" d="M158.7-12l9,6v6l-9,6
		V-12z"/>
	<path id="path3019-5-7-4-4-4-52" inkscape:connector-curvature="0" sodipodi:nodetypes="ccccc" class="st0" d="M159.7-10.5l9,5.8
		v3.3l-9,5.9V-10.5z"/>
	<path id="path3019-5-2-7-5-0-9-9" inkscape:connector-curvature="0" sodipodi:nodetypes="cccc" class="st17" d="M160.7-9l9.5,6
		l-9.5,6L160.7-9z"/>
	<path id="path3019-2-1-5-5-24" inkscape:connector-curvature="0" sodipodi:nodetypes="ccccc" class="st0" d="M211.7-12l-9,6v6l9,6
		V-12z"/>
	<path id="path3019-5-7-4-4-6-36" inkscape:connector-curvature="0" sodipodi:nodetypes="ccccc" class="st0" d="M210.7-10.5l-9,5.8
		v3.3l9,5.9V-10.5z"/>
	<rect id="rect4011-6-7-6-73-1-9" x="196.7" y="-12" class="st0" width="6" height="18"/>
	<rect id="rect4011-6-5-9-1-5-2" x="197.7" y="-11" class="st0" width="4" height="16"/>
	<rect id="rect4011-9-0-5-3-4" x="198.7" y="-10" class="st17" width="2" height="14"/>
	<path id="path3019-5-2-7-5-0-4-8" inkscape:connector-curvature="0" sodipodi:nodetypes="cccc" class="st17" d="M209.7-9l-9.5,6
		l9.5,6V-9z"/>
	<path id="path3019-2-1-5-8-4-9" inkscape:connector-curvature="0" sodipodi:nodetypes="ccccc" class="st0" d="M220.7-12l-9,6v6l9,6
		V-12z"/>
	<path id="path3019-5-7-4-4-4-9-1" inkscape:connector-curvature="0" sodipodi:nodetypes="ccccc" class="st0" d="M219.7-10.5l-9,5.8
		v3.3l9,5.9V-10.5z"/>
	<path id="path3019-5-2-7-5-0-9-2-12" inkscape:connector-curvature="0" sodipodi:nodetypes="cccc" class="st17" d="M218.7-9l-9.5,6
		l9.5,6V-9z"/>
	<path id="path3019-2-1-2-1-3" inkscape:connector-curvature="0" sodipodi:nodetypes="ccccc" class="st0" d="M348.7-4l7,7h10l7-7
		H348.7z"/>
	<path id="path3019-5-7-4-6-5-4" inkscape:connector-curvature="0" sodipodi:nodetypes="ccccc" class="st0" d="M350.7-3l7.2,7h5.6
		l7.2-7H350.7z"/>
	<rect id="rect4011-6-7-6-7-6-4" x="349.7" y="3" class="st0" width="22" height="5.5"/>
	<rect id="rect4011-6-5-9-9-1-7" x="351.2" y="4" class="st0" width="19" height="3.5"/>
	<rect id="rect4011-9-0-7-7-81" x="352.7" y="5" class="st17" width="16" height="1.5"/>
	<path id="path3019-5-2-7-5-3-2-8" inkscape:connector-curvature="0" sodipodi:nodetypes="cccc" class="st17" d="M352.7-2l8,7.5
		l8-7.5L352.7-2z"/>
	<rect id="rect4011-6-7-6-6-3" x="355.7" y="-15" class="st0" width="10" height="11"/>
	<rect id="rect4011-6-5-9-0-2" x="356.7" y="-14" class="st0" width="8" height="11"/>
	<rect id="rect4011-9-0-4-0" x="357.7" y="-13" class="st17" width="6" height="11"/>
	
		<path id="path3818-4-9-7-6" sodipodi:cx="210" sodipodi:cy="10" sodipodi:end="6.0213859" sodipodi:open="true" sodipodi:rx="4.4586492" sodipodi:ry="4.4586492" sodipodi:start="0.52468555" sodipodi:type="arc" class="st8" d="
		M521.3,2c-2.4,4.1-7.4,6-11.9,4.5c-4.5-1.5-7.3-6-6.7-10.8c0.6-4.7,4.5-8.4,9.3-8.7c4.8-0.3,9.1,2.8,10.3,7.4"/>
	
		<path id="path3818-4-4-6" sodipodi:cx="210" sodipodi:cy="10" sodipodi:end="6.0213859" sodipodi:open="true" sodipodi:rx="4.4586492" sodipodi:ry="4.4586492" sodipodi:start="0.65400499" sodipodi:type="arc" class="st9" d="
		M520.6,3.1c-2.8,3.7-7.8,4.9-12.1,3c-4.2-1.9-6.6-6.5-5.7-11.1c0.9-4.6,4.8-7.9,9.5-8c4.6-0.2,8.8,2.9,10,7.4"/>
	
		<path id="path3818-2-8" sodipodi:cx="210" sodipodi:cy="10" sodipodi:end="6.0213859" sodipodi:open="true" sodipodi:rx="4.4586492" sodipodi:ry="4.4586492" sodipodi:start="0.78539816" sodipodi:type="arc" class="st19" d="
		M519.7,4.1c-3.2,3.2-8.2,3.9-12.1,1.6c-3.9-2.3-5.8-6.9-4.7-11.2s5.1-7.4,9.7-7.4c4.5,0,8.5,3,9.7,7.4"/>
	<path id="path3019-5-2-6-6" inkscape:connector-curvature="0" sodipodi:nodetypes="cccc" class="st17" d="M527.1-7l-3.8,5.2
		l-5.9-2.6L527.1-7z"/>
	<path id="path3974-3" inkscape:connector-curvature="0" sodipodi:nodetypes="ccccccccccc" class="st17" d="M318.7,6h8V4h-2v-9h-6v2
		h2v7h-2V6z"/>
	<circle id="path3976-94" class="st17" cx="322.7" cy="-9.5" r="2.5"/>
	<circle id="path3984-3" class="st0" cx="550.7" cy="-72" r="4.5"/>
	<circle id="path3982-6" class="st0" cx="550.7" cy="-72" r="3.5"/>
	<circle id="path3976-6" class="st6" cx="550.7" cy="-72" r="2.5"/>
	<path id="path4521-2-9" inkscape:connector-curvature="0" sodipodi:nodetypes="ccsssccsssc" class="st20" d="M548.7-76.5h3.5v-1
		c0-2,2.6-3.1,3.5-5c1.5-3,0-6-5-6c-3,0-5,1-6,1.7v3.4c0,0,3-2.1,6-2.1c2,0,2,2,1,3c-1.4,1.4-3,2-3,5V-76.5z"/>
	<path id="path4521-2" inkscape:connector-curvature="0" sodipodi:nodetypes="ccsssccsssc" class="st21" d="M548.7-76.5h3.5v-1
		c0-2,2.6-3.1,3.5-5c1.5-3,0-6-5-6c-3,0-5,1-6,1.7v3.4c0,0,3-2.1,6-2.1c2,0,2,2,1,3c-1.4,1.4-3,2-3,5V-76.5z"/>
	<path id="path4521" inkscape:connector-curvature="0" sodipodi:nodetypes="ccsssccsssc" class="st22" d="M548.7-76.5h3.4v-1
		c0-2,2.7-3.1,3.6-5c1.4-3,0-6-5-6c-3,0-5,1-6,1.7v3.4c0,0,3-2.1,6-2.1c2,0,2,2.1,1.1,3c-1.4,1.4-3.1,2-3.1,5V-76.5z"/>
	<circle id="path3984-3-3" class="st0" cx="550.7" cy="-34" r="4.5"/>
	<circle id="path3982-6-6" class="st0" cx="550.7" cy="-34" r="3.5"/>
	<circle id="path3976-6-7" class="st14" cx="550.7" cy="-34" r="2.5"/>
	<path id="path4521-2-9-5" inkscape:connector-curvature="0" sodipodi:nodetypes="ccsssccsssc" class="st20" d="M548.7-38.5h3.5v-1
		c0-2,2.6-3.1,3.5-5c1.5-3,0-6-5-6c-3,0-5,1-6,1.7v3.4c0,0,3-2.1,6-2.1c2,0,2,2,1,3c-1.4,1.4-3,2-3,5V-38.5z"/>
	<path id="path4521-2-35" inkscape:connector-curvature="0" sodipodi:nodetypes="ccsssccsssc" class="st21" d="M548.7-38.5h3.5v-1
		c0-2,2.6-3.1,3.5-5c1.5-3,0-6-5-6c-3,0-5,1-6,1.7v3.4c0,0,3-2.1,6-2.1c2,0,2,2,1,3c-1.4,1.4-3,2-3,5V-38.5z"/>
	<path id="path4521-6" inkscape:connector-curvature="0" sodipodi:nodetypes="ccsssccsssc" class="st23" d="M548.7-38.5h3.4v-1
		c0-2,2.7-3.1,3.6-5c1.4-3,0-6-5-6c-3,0-5,1-6,1.7v3.4c0,0,3-2.1,6-2.1c2,0,2,2.1,1.1,3c-1.4,1.4-3.1,2-3.1,5V-38.5z"/>
	<circle id="path3984-3-3-2" class="st0" cx="550.7" cy="4" r="4.5"/>
	<circle id="path3982-6-6-9" class="st0" cx="550.7" cy="4" r="3.5"/>
	<circle id="path3976-6-7-1" class="st17" cx="550.7" cy="4" r="2.5"/>
	<path id="path4521-2-9-5-2" inkscape:connector-curvature="0" sodipodi:nodetypes="ccsssccsssc" class="st24" d="M548.7-0.5h3.5v-1
		c0-2,2.6-3.1,3.5-5c1.5-3,0-6-5-6c-3,0-5,1-6,1.7v3.4c0,0,3-2.1,6-2.1c2,0,2,2,1,3c-1.4,1.4-3,2-3,5V-0.5z"/>
	<path id="path4521-2-35-7" inkscape:connector-curvature="0" sodipodi:nodetypes="ccsssccsssc" class="st25" d="M548.7-0.5h3.5v-1
		c0-2,2.6-3.1,3.5-5c1.5-3,0-6-5-6c-3,0-5,1-6,1.7v3.4c0,0,3-2.1,6-2.1c2,0,2,2,1,3c-1.4,1.4-3,2-3,5V-0.5z"/>
	<path id="path4521-6-0" inkscape:connector-curvature="0" sodipodi:nodetypes="ccsssccsssc" class="st26" d="M548.7-0.5h3.4v-1
		c0-2,2.7-3.1,3.6-5c1.4-3,0-6-5-6c-3,0-5,1-6,1.7v3.4c0,0,3-2.1,6-2.1c2,0,2,2.1,1.1,3c-1.4,1.4-3.1,2-3.1,5V-0.5z"/>
	<path id="rect4554" class="st0" d="M580.2-90.5h17c1.9,0,3.5,1.6,3.5,3.5l0,0c0,1.9-1.6,3.5-3.5,3.5h-17c-1.9,0-3.5-1.6-3.5-3.5
		l0,0C576.7-88.9,578.2-90.5,580.2-90.5z"/>
	<path id="rect4554-5" class="st0" d="M580.1-89.5h17.2c1.4,0,2.5,1.1,2.5,2.5l0,0c0,1.4-1.1,2.5-2.5,2.5h-17.2
		c-1.4,0-2.5-1.1-2.5-2.5l0,0C577.6-88.4,578.7-89.5,580.1-89.5z"/>
	<path id="rect4554-5-3" class="st6" d="M580-88.5h17.3c0.8,0,1.5,0.7,1.5,1.5l0,0c0,0.8-0.7,1.5-1.5,1.5H580
		c-0.8,0-1.5-0.7-1.5-1.5l0,0C578.5-87.8,579.2-88.5,580-88.5z"/>
	<path id="rect4554-56" class="st0" d="M580.2-82.5h17c1.9,0,3.5,1.6,3.5,3.5l0,0c0,1.9-1.6,3.5-3.5,3.5h-17c-1.9,0-3.5-1.6-3.5-3.5
		l0,0C576.7-80.9,578.2-82.5,580.2-82.5z"/>
	<path id="rect4554-5-2" class="st0" d="M580.1-81.5h17.2c1.4,0,2.5,1.1,2.5,2.5l0,0c0,1.4-1.1,2.5-2.5,2.5h-17.2
		c-1.4,0-2.5-1.1-2.5-2.5l0,0C577.6-80.4,578.7-81.5,580.1-81.5z"/>
	<path id="rect4554-5-3-9" class="st6" d="M580-80.5h17.3c0.8,0,1.5,0.7,1.5,1.5l0,0c0,0.8-0.7,1.5-1.5,1.5H580
		c-0.8,0-1.5-0.7-1.5-1.5l0,0C578.5-79.8,579.2-80.5,580-80.5z"/>
	<path id="rect4554-1" class="st0" d="M580.2-74.5h17c1.9,0,3.5,1.6,3.5,3.5l0,0c0,1.9-1.6,3.5-3.5,3.5h-17c-1.9,0-3.5-1.6-3.5-3.5
		l0,0C576.7-72.9,578.2-74.5,580.2-74.5z"/>
	<path id="rect4554-5-27" class="st0" d="M580.1-73.5h17.2c1.4,0,2.5,1.1,2.5,2.5l0,0c0,1.4-1.1,2.5-2.5,2.5h-17.2
		c-1.4,0-2.5-1.1-2.5-2.5l0,0C577.6-72.4,578.7-73.5,580.1-73.5z"/>
	<path id="rect4554-5-3-0" class="st6" d="M580-72.5h17.3c0.8,0,1.5,0.7,1.5,1.5l0,0c0,0.8-0.7,1.5-1.5,1.5H580
		c-0.8,0-1.5-0.7-1.5-1.5l0,0C578.5-71.8,579.2-72.5,580-72.5z"/>
	<path id="rect4554-9" class="st13" d="M580.2-52.5h17c1.9,0,3.5,1.6,3.5,3.5l0,0c0,1.9-1.6,3.5-3.5,3.5h-17c-1.9,0-3.5-1.6-3.5-3.5
		l0,0C576.7-50.9,578.2-52.5,580.2-52.5z"/>
	<path id="rect4554-5-36" class="st13" d="M580.1-51.5h17.2c1.4,0,2.5,1.1,2.5,2.5l0,0c0,1.4-1.1,2.5-2.5,2.5h-17.2
		c-1.4,0-2.5-1.1-2.5-2.5l0,0C577.6-50.4,578.7-51.5,580.1-51.5z"/>
	<path id="rect4554-5-3-06" class="st14" d="M580-50.5h17.3c0.8,0,1.5,0.7,1.5,1.5l0,0c0,0.8-0.7,1.5-1.5,1.5H580
		c-0.8,0-1.5-0.7-1.5-1.5l0,0C578.5-49.8,579.2-50.5,580-50.5z"/>
	<path id="rect4554-56-2" class="st13" d="M580.2-44.5h17c1.9,0,3.5,1.6,3.5,3.5l0,0c0,1.9-1.6,3.5-3.5,3.5h-17
		c-1.9,0-3.5-1.6-3.5-3.5l0,0C576.7-42.9,578.2-44.5,580.2-44.5z"/>
	<path id="rect4554-5-2-6" class="st13" d="M580.1-43.5h17.2c1.4,0,2.5,1.1,2.5,2.5l0,0c0,1.4-1.1,2.5-2.5,2.5h-17.2
		c-1.4,0-2.5-1.1-2.5-2.5l0,0C577.6-42.4,578.7-43.5,580.1-43.5z"/>
	<path id="rect4554-5-3-9-1" class="st14" d="M580-42.5h17.3c0.8,0,1.5,0.7,1.5,1.5l0,0c0,0.8-0.7,1.5-1.5,1.5H580
		c-0.8,0-1.5-0.7-1.5-1.5l0,0C578.5-41.8,579.2-42.5,580-42.5z"/>
	<path id="rect4554-1-8" class="st13" d="M580.2-36.5h17c1.9,0,3.5,1.6,3.5,3.5l0,0c0,1.9-1.6,3.5-3.5,3.5h-17
		c-1.9,0-3.5-1.6-3.5-3.5l0,0C576.7-34.9,578.2-36.5,580.2-36.5z"/>
	<path id="rect4554-5-27-7" class="st13" d="M580.1-35.5h17.2c1.4,0,2.5,1.1,2.5,2.5l0,0c0,1.4-1.1,2.5-2.5,2.5h-17.2
		c-1.4,0-2.5-1.1-2.5-2.5l0,0C577.6-34.4,578.7-35.5,580.1-35.5z"/>
	<path id="rect4554-5-3-0-9" class="st14" d="M580-34.5h17.3c0.8,0,1.5,0.7,1.5,1.5l0,0c0,0.8-0.7,1.5-1.5,1.5H580
		c-0.8,0-1.5-0.7-1.5-1.5l0,0C578.5-33.8,579.2-34.5,580-34.5z"/>
	<path id="rect4554-2" class="st0" d="M580.2-14.5h17c1.9,0,3.5,1.6,3.5,3.5l0,0c0,1.9-1.6,3.5-3.5,3.5h-17c-1.9,0-3.5-1.6-3.5-3.5
		l0,0C576.7-12.9,578.2-14.5,580.2-14.5z"/>
	<path id="rect4554-5-0" class="st0" d="M580.1-13.5h17.2c1.4,0,2.5,1.1,2.5,2.5l0,0c0,1.4-1.1,2.5-2.5,2.5h-17.2
		c-1.4,0-2.5-1.1-2.5-2.5l0,0C577.6-12.4,578.7-13.5,580.1-13.5z"/>
	<path id="rect4554-5-3-2" class="st17" d="M580-12.5h17.3c0.8,0,1.5,0.7,1.5,1.5l0,0c0,0.8-0.7,1.5-1.5,1.5H580
		c-0.8,0-1.5-0.7-1.5-1.5l0,0C578.5-11.8,579.2-12.5,580-12.5z"/>
	<path id="rect4554-56-3" class="st0" d="M580.2-6.5h17c1.9,0,3.5,1.6,3.5,3.5l0,0c0,1.9-1.6,3.5-3.5,3.5h-17
		c-1.9,0-3.5-1.6-3.5-3.5l0,0C576.7-4.9,578.2-6.5,580.2-6.5z"/>
	<path id="rect4554-5-2-7" class="st0" d="M580.1-5.5h17.2c1.4,0,2.5,1.1,2.5,2.5l0,0c0,1.4-1.1,2.5-2.5,2.5h-17.2
		c-1.4,0-2.5-1.1-2.5-2.5l0,0C577.6-4.4,578.7-5.5,580.1-5.5z"/>
	<path id="rect4554-5-3-9-5" class="st17" d="M580-4.5h17.3c0.8,0,1.5,0.7,1.5,1.5l0,0c0,0.8-0.7,1.5-1.5,1.5H580
		c-0.8,0-1.5-0.7-1.5-1.5l0,0C578.5-3.8,579.2-4.5,580-4.5z"/>
	<path id="rect4554-1-9" class="st0" d="M580.2,1.5h17c1.9,0,3.5,1.6,3.5,3.5l0,0c0,1.9-1.6,3.5-3.5,3.5h-17c-1.9,0-3.5-1.6-3.5-3.5
		l0,0C576.7,3.1,578.2,1.5,580.2,1.5z"/>
	<path id="rect4554-5-27-2" class="st0" d="M580.1,2.5h17.2c1.4,0,2.5,1.1,2.5,2.5l0,0c0,1.4-1.1,2.5-2.5,2.5h-17.2
		c-1.4,0-2.5-1.1-2.5-2.5l0,0C577.6,3.6,578.7,2.5,580.1,2.5z"/>
	<path id="rect4554-5-3-0-2" class="st17" d="M580,3.5h17.3c0.8,0,1.5,0.7,1.5,1.5l0,0c0,0.8-0.7,1.5-1.5,1.5H580
		c-0.8,0-1.5-0.7-1.5-1.5l0,0C578.5,4.2,579.2,3.5,580,3.5z"/>
	<path id="rect4554-1-2" class="st0" d="M617.2-74.5h19c1.4,0,2.5,1.1,2.5,2.5v2c0,1.4-1.1,2.5-2.5,2.5h-19c-1.4,0-2.5-1.1-2.5-2.5
		v-2C614.7-73.4,615.8-74.5,617.2-74.5z"/>
	<path id="rect4554-5-27-9" class="st0" d="M617.1-73.5h19.2c0.8,0,1.5,0.7,1.5,1.5v2c0,0.8-0.7,1.5-1.5,1.5h-19.2
		c-0.8,0-1.5-0.7-1.5-1.5v-2C615.6-72.8,616.3-73.5,617.1-73.5z"/>
	<path id="rect4554-5-3-0-1" class="st6" d="M617.5-72.5h18.4c0.5,0,1,0.4,1,1v1.1c0,0.5-0.4,1-1,1h-18.4c-0.5,0-1-0.4-1-1v-1.1
		C616.5-72.1,616.9-72.5,617.5-72.5z"/>
	<path id="path3019-7" inkscape:connector-curvature="0" sodipodi:nodetypes="cccc" class="st0" d="M614.8-90.4l14.3,7.4l-14.3,7.4
		V-90.4z"/>
	<path id="path3019-5-5" inkscape:connector-curvature="0" sodipodi:nodetypes="cccc" class="st0" d="M615.4-89.6l12.6,6.6
		l-12.6,6.6L615.4-89.6z"/>
	<path id="path3019-5-2-92" inkscape:connector-curvature="0" sodipodi:nodetypes="cccc" class="st6" d="M615.9-88.7l10.9,5.7
		l-10.9,5.7L615.9-88.7z"/>
	<path id="path4642-2-8" inkscape:connector-curvature="0" sodipodi:nodetypes="cssccc" class="st27" d="M615.7-90.5l19.9,0
		c2.1,0,3.1,1,3.1,3.5c0,2.5-1,3.5-3.1,3.5h-6.3L615.7-90.5z"/>
	<path id="path4642-2" inkscape:connector-curvature="0" sodipodi:nodetypes="cssccc" class="st27" d="M618.7-89.5l16.9,0
		c1.6,0,2.1,1,2.1,2.5c0,1.5-0.5,2.4-2.1,2.4h-7.4L618.7-89.5z"/>
	<path id="path4642" inkscape:connector-curvature="0" sodipodi:nodetypes="cssccc" class="st22" d="M621.4-88.6h14.1
		c1,0,1.1,0.6,1.1,1.6s-0.1,1.4-1.1,1.4h-8.2L621.4-88.6z"/>
	<path id="path4642-2-8-9" inkscape:connector-curvature="0" sodipodi:nodetypes="cssccc" class="st27" d="M615.7-75.5l19.9,0
		c2.1,0,3.1-1,3.1-3.5c0-2.5-1-3.5-3.1-3.5h-6.3L615.7-75.5z"/>
	<path id="path4642-2-7" inkscape:connector-curvature="0" sodipodi:nodetypes="cssccc" class="st27" d="M618.7-76.5l16.9,0
		c1.6,0,2.1-1,2.1-2.5c0-1.5-0.5-2.4-2.1-2.4h-7.4L618.7-76.5z"/>
	<path id="path4642-3" inkscape:connector-curvature="0" sodipodi:nodetypes="cssccc" class="st22" d="M621.4-77.4h14.1
		c1,0,1.1-0.6,1.1-1.6s-0.1-1.4-1.1-1.4h-8.2L621.4-77.4z"/>
	<path id="rect4554-1-2-6" class="st13" d="M617.2-36.5h19c1.4,0,2.5,1.1,2.5,2.5v2c0,1.4-1.1,2.5-2.5,2.5h-19
		c-1.4,0-2.5-1.1-2.5-2.5v-2C614.7-35.4,615.8-36.5,617.2-36.5z"/>
	<path id="rect4554-5-27-9-1" class="st13" d="M617.1-35.5h19.2c0.8,0,1.5,0.7,1.5,1.5v2c0,0.8-0.7,1.5-1.5,1.5h-19.2
		c-0.8,0-1.5-0.7-1.5-1.5v-2C615.6-34.8,616.3-35.5,617.1-35.5z"/>
	<path id="rect4554-5-3-0-1-2" class="st14" d="M617.5-34.5h18.4c0.5,0,1,0.4,1,1v1.1c0,0.5-0.4,1-1,1h-18.4c-0.5,0-1-0.4-1-1v-1.1
		C616.5-34.1,616.9-34.5,617.5-34.5z"/>
	<path id="path3019-7-9" inkscape:connector-curvature="0" sodipodi:nodetypes="cccc" class="st13" d="M614.8-52.4l14.3,7.4
		l-14.3,7.4V-52.4z"/>
	<path id="path3019-5-5-3" inkscape:connector-curvature="0" sodipodi:nodetypes="cccc" class="st13" d="M615.4-51.6l12.6,6.6
		l-12.6,6.6L615.4-51.6z"/>
	<path id="path3019-5-2-92-1" inkscape:connector-curvature="0" sodipodi:nodetypes="cccc" class="st14" d="M615.9-50.7l10.9,5.7
		l-10.9,5.7L615.9-50.7z"/>
	<path id="path4642-2-8-94" inkscape:connector-curvature="0" sodipodi:nodetypes="cssccc" class="st28" d="M615.7-52.5l19.9,0
		c2.1,0,3.1,1,3.1,3.5c0,2.5-1,3.5-3.1,3.5h-6.3L615.7-52.5z"/>
	<path id="path4642-2-78" inkscape:connector-curvature="0" sodipodi:nodetypes="cssccc" class="st28" d="M618.7-51.5l16.9,0
		c1.6,0,2.1,1,2.1,2.5c0,1.5-0.5,2.4-2.1,2.4h-7.4L618.7-51.5z"/>
	<path id="path4642-4" inkscape:connector-curvature="0" sodipodi:nodetypes="cssccc" class="st23" d="M621.4-50.6h14.1
		c1,0,1.1,0.6,1.1,1.6s-0.1,1.4-1.1,1.4h-8.2L621.4-50.6z"/>
	<path id="path4642-2-8-9-5" inkscape:connector-curvature="0" sodipodi:nodetypes="cssccc" class="st28" d="M615.7-37.5l19.9,0
		c2.1,0,3.1-1,3.1-3.5c0-2.5-1-3.5-3.1-3.5h-6.3L615.7-37.5z"/>
	<path id="path4642-2-7-0" inkscape:connector-curvature="0" sodipodi:nodetypes="cssccc" class="st28" d="M618.7-38.5l16.9,0
		c1.6,0,2.1-1,2.1-2.5c0-1.5-0.5-2.4-2.1-2.4h-7.4L618.7-38.5z"/>
	<path id="path4642-3-3" inkscape:connector-curvature="0" sodipodi:nodetypes="cssccc" class="st23" d="M621.4-39.4h14.1
		c1,0,1.1-0.6,1.1-1.6s-0.1-1.4-1.1-1.4h-8.2L621.4-39.4z"/>
	<path id="rect4554-1-2-61" class="st0" d="M617.2,1.5h19c1.4,0,2.5,1.1,2.5,2.5v2c0,1.4-1.1,2.5-2.5,2.5h-19
		c-1.4,0-2.5-1.1-2.5-2.5V4C614.7,2.6,615.8,1.5,617.2,1.5z"/>
	<path id="rect4554-5-27-9-0" class="st0" d="M617.1,2.5h19.2c0.8,0,1.5,0.7,1.5,1.5v2c0,0.8-0.7,1.5-1.5,1.5h-19.2
		c-0.8,0-1.5-0.7-1.5-1.5V4C615.6,3.2,616.3,2.5,617.1,2.5z"/>
	<path id="rect4554-5-3-0-1-6" class="st17" d="M617.5,3.5h18.4c0.5,0,1,0.4,1,1v1.1c0,0.5-0.4,1-1,1h-18.4c-0.5,0-1-0.4-1-1V4.5
		C616.5,3.9,616.9,3.5,617.5,3.5z"/>
	<path id="path3019-7-3" inkscape:connector-curvature="0" sodipodi:nodetypes="cccc" class="st0" d="M614.8-14.4L629.1-7l-14.3,7.4
		V-14.4z"/>
	<path id="path3019-5-5-2" inkscape:connector-curvature="0" sodipodi:nodetypes="cccc" class="st0" d="M615.4-13.6L627.9-7
		l-12.6,6.6V-13.6z"/>
	<path id="path3019-5-2-92-0" inkscape:connector-curvature="0" sodipodi:nodetypes="cccc" class="st17" d="M615.9-12.7L626.8-7
		l-10.9,5.7V-12.7z"/>
	<path id="path4642-2-8-6" inkscape:connector-curvature="0" sodipodi:nodetypes="cssccc" class="st27" d="M615.7-14.5l19.9,0
		c2.1,0,3.1,1,3.1,3.5c0,2.5-1,3.5-3.1,3.5h-6.3L615.7-14.5z"/>
	<path id="path4642-2-1" inkscape:connector-curvature="0" sodipodi:nodetypes="cssccc" class="st27" d="M618.7-13.5l16.9,0
		c1.6,0,2.1,1,2.1,2.5c0,1.5-0.5,2.4-2.1,2.4h-7.4L618.7-13.5z"/>
	<path id="path4642-5" inkscape:connector-curvature="0" sodipodi:nodetypes="cssccc" class="st26" d="M621.4-12.6h14.1
		c1,0,1.1,0.6,1.1,1.6s-0.1,1.4-1.1,1.4h-8.2L621.4-12.6z"/>
	<path id="path4642-2-8-9-54" inkscape:connector-curvature="0" sodipodi:nodetypes="cssccc" class="st27" d="M615.7,0.5l19.9,0
		c2.1,0,3.1-1,3.1-3.5c0-2.5-1-3.5-3.1-3.5h-6.3L615.7,0.5z"/>
	<path id="path4642-2-7-7" inkscape:connector-curvature="0" sodipodi:nodetypes="cssccc" class="st27" d="M618.7-0.5l16.9,0
		c1.6,0,2.1-1,2.1-2.5c0-1.5-0.5-2.4-2.1-2.4h-7.4L618.7-0.5z"/>
	<path id="path4642-3-6" inkscape:connector-curvature="0" sodipodi:nodetypes="cssccc" class="st26" d="M621.4-1.4h14.1
		c1,0,1.1-0.6,1.1-1.6s-0.1-1.4-1.1-1.4h-8.2L621.4-1.4z"/>
	<path class="st0" d="M653.9-33c-1.6,0-3-1.3-3.1-2.9c0-0.4,0-0.7,0-1c0.1-5.7,5.2-14,14-14c7.7,0,14,6.3,14,14v0c0,0.2,0,0.5,0,0.9
		c-0.1,1.6-1.5,2.9-3.1,2.9l-5.5,0c-1.7,0-3.1-1.4-3.1-3.1c0-0.8,0.3-1.6,0.9-2.2c0.6-0.6,1.4-0.9,2.2-0.9l2,0c-1-3.1-4-5.3-7.3-5.3
		c-2.7,0-4.6,1.5-5.6,2.7c-0.7,0.8-1.2,1.7-1.6,2.6l2.1,0c1.7,0,3.1,1.4,3.1,3.1c0,0.8-0.3,1.6-0.9,2.2c-0.6,0.6-1.4,0.9-2.2,0.9
		L653.9-33L653.9-33z"/>
	<path class="st0" d="M665.1-30.9c-0.7,0-1.5-0.2-2.2-0.5c-1.6-0.7-2.8-2.2-3.1-3.9l-1.2-5.9c-0.2-1.2,0.2-2.4,1.3-3.1
		c0.5-0.3,1-0.5,1.6-0.5c0.6,0,1.2,0.2,1.7,0.5l4.9,3.4c1.4,1,2.3,2.6,2.4,4.4c0,1.7-0.7,3.3-2.1,4.4c-0.1,0.1-0.2,0.1-0.3,0.2
		c-0.1,0.1-0.2,0.1-0.3,0.2C667-31.2,666.1-30.9,665.1-30.9L665.1-30.9z"/>
	<path class="st0" d="M665.1-32c-0.6,0-1.2-0.1-1.7-0.4c-1.3-0.6-2.2-1.7-2.5-3.1l-1.2-5.9c-0.2-0.7,0.2-1.5,0.8-1.9
		c0.3-0.2,0.7-0.3,1-0.3c0.4,0,0.7,0.1,1.1,0.3l4.9,3.4c1.2,0.8,1.9,2.1,1.9,3.5c0,1.4-0.6,2.7-1.7,3.5c-0.1,0-0.1,0.1-0.2,0.1
		c-0.1,0.1-0.1,0.1-0.2,0.1C666.6-32.2,665.9-32,665.1-32L665.1-32z M664.5-36.2c0,0.2,0.2,0.4,0.4,0.5c0.1,0,0.2,0.1,0.2,0.1
		c0.1,0,0.2,0,0.2-0.1c0,0,0,0,0,0c0,0,0,0,0,0c0.2-0.1,0.2-0.3,0.2-0.4c0-0.2-0.1-0.4-0.3-0.5l-1.1-0.8L664.5-36.2z"/>
	<path class="st0" d="M653.9-34.1c-1.1,0-2-0.8-2-1.9c0-0.3,0-0.6,0-0.9c0.1-5.3,4.8-12.9,12.9-12.9c7.1,0,12.9,5.8,12.9,12.9v0
		c0,0.2,0,0.5,0,0.8c-0.1,1.1-1,1.9-2,1.9l-5.5,0c-1.1,0-2.1-0.9-2.1-2c0-0.5,0.2-1.1,0.6-1.5c0.4-0.4,0.9-0.6,1.4-0.6l3.4,0
		c-0.7-4.2-4.4-7.5-8.7-7.5c-3.1,0-5.2,1.7-6.4,3.1c-1.1,1.3-1.9,2.9-2.2,4.4l3.6,0c1.1,0,2.1,0.9,2.1,2c0,0.5-0.2,1.1-0.6,1.5
		c-0.4,0.4-0.9,0.6-1.4,0.6L653.9-34.1L653.9-34.1z"/>
	<path class="st29" d="M678.5-36.2"/>
	<path class="st29" d="M650.5-36.2"/>
	<path class="st14" d="M653.9-35.2c-0.5,0-0.9-0.4-1-0.9c0-0.3,0-0.6,0-0.8c0.1-4.8,4.4-11.8,11.8-11.8c6.5,0,11.8,5.3,11.8,11.8v0
		c0,0.2,0,0.4,0,0.7c0,0.5-0.5,0.9-1,0.9l-5.5,0c0,0,0,0,0,0c-0.5,0-1-0.4-1-1c0-0.5,0.4-1,1-1l4.6,0c-0.1-5.3-4.5-9.6-9.9-9.6
		c-3.6,0-5.9,1.9-7.3,3.5c-1.5,1.8-2.5,4.2-2.7,6.2l4.8,0c0,0,0,0,0,0c0.5,0,1,0.4,1,1c0,0.5-0.4,1-1,1L653.9-35.2
		C653.9-35.2,653.9-35.2,653.9-35.2z"/>
	<path class="st0" d="M665.1-32c-0.6,0-1.2-0.1-1.7-0.4c-1.3-0.6-2.2-1.7-2.5-3.1l-1.2-5.9c-0.2-0.7,0.2-1.5,0.8-1.9
		c0.3-0.2,0.7-0.3,1-0.3c0.4,0,0.7,0.1,1.1,0.3l4.9,3.4c1.2,0.8,1.9,2.1,1.9,3.5c0,1.4-0.6,2.7-1.7,3.5c-0.1,0-0.1,0.1-0.2,0.1
		c-0.1,0.1-0.1,0.1-0.2,0.1C666.6-32.2,665.9-32,665.1-32L665.1-32z M664.5-36.2c0,0.2,0.2,0.4,0.4,0.5c0.1,0,0.2,0.1,0.2,0.1
		c0.1,0,0.2,0,0.2-0.1c0,0,0,0,0,0c0,0,0,0,0,0c0.2-0.1,0.2-0.3,0.2-0.4c0-0.2-0.1-0.4-0.3-0.5l-1.1-0.8L664.5-36.2z"/>
	<path class="st14" d="M665.1-33.1c-0.4,0-0.9-0.1-1.3-0.3c-1-0.4-1.7-1.3-1.9-2.3l-1.2-5.9c-0.1-0.3,0.1-0.6,0.3-0.8
		c0.3-0.2,0.6-0.2,0.9,0l4.9,3.4c0.9,0.6,1.4,1.6,1.4,2.6c0,1-0.4,2-1.2,2.6c-0.1,0-0.1,0.1-0.2,0.1c-0.1,0-0.1,0.1-0.2,0.1
		C666.2-33.2,665.7-33.1,665.1-33.1z M662.6-40l0.8,4c0.1,0.5,0.5,1,1,1.2c0.5,0.2,1,0.2,1.5-0.1c0,0,0.1,0,0.1-0.1
		c0,0,0.1,0,0.1-0.1c0.4-0.3,0.6-0.8,0.6-1.3c0-0.6-0.3-1.1-0.7-1.4l0,0L662.6-40z"/>
	<path d="M677.2-34.6"/>
	<path class="st0" d="M653.9-34.1c-1.1,0-2-0.8-2-1.9c0-0.3,0-0.6,0-0.9c0.1-5.3,4.8-12.9,12.9-12.9c7.1,0,12.9,5.8,12.9,12.9v0
		c0,0.2,0,0.5,0,0.8c-0.1,1.1-1,1.9-2,1.9l-5.5,0c-1.1,0-2.1-0.9-2.1-2c0-0.5,0.2-1.1,0.6-1.5c0.4-0.4,0.9-0.6,1.4-0.6l3.4,0
		c-0.7-4.2-4.4-7.5-8.7-7.5c-3.1,0-5.2,1.7-6.4,3.1c-1.1,1.3-1.9,2.9-2.2,4.4l3.6,0c1.1,0,2.1,0.9,2.1,2c0,0.5-0.2,1.1-0.6,1.5
		c-0.4,0.4-0.9,0.6-1.4,0.6L653.9-34.1L653.9-34.1z"/>
	<path class="st14" d="M653.9-35.2c-0.5,0-0.9-0.4-1-0.9c0-0.3,0-0.6,0-0.8c0.1-4.8,4.4-11.8,11.8-11.8c6.5,0,11.8,5.3,11.8,11.8v0
		c0,0.2,0,0.4,0,0.7c0,0.5-0.5,0.9-1,0.9l-5.5,0c0,0,0,0,0,0c-0.5,0-1-0.4-1-1c0-0.5,0.4-1,1-1l4.6,0c-0.1-5.3-4.5-9.6-9.9-9.6
		c-3.6,0-5.9,1.9-7.3,3.5c-1.5,1.8-2.5,4.2-2.7,6.2l4.8,0c0,0,0,0,0,0c0.5,0,1,0.4,1,1c0,0.5-0.4,1-1,1L653.9-35.2
		C653.9-35.2,653.9-35.2,653.9-35.2z"/>
	<path class="st14" d="M665.1-33.1c-0.4,0-0.9-0.1-1.3-0.3c-1-0.4-1.7-1.3-1.9-2.3l-1.2-5.9c-0.1-0.3,0.1-0.6,0.3-0.8
		c0.3-0.2,0.6-0.2,0.9,0l4.9,3.4c0.9,0.6,1.4,1.6,1.4,2.6c0,1-0.4,2-1.2,2.6c-0.1,0-0.1,0.1-0.2,0.1c-0.1,0-0.1,0.1-0.2,0.1
		C666.2-33.2,665.7-33.1,665.1-33.1z M662.6-40l0.8,4c0.1,0.5,0.5,1,1,1.2c0.5,0.2,1,0.2,1.5-0.1c0,0,0.1,0,0.1-0.1
		c0,0,0.1,0,0.1-0.1c0.4-0.3,0.6-0.8,0.6-1.3c0-0.6-0.3-1.1-0.7-1.4l0,0L662.6-40z"/>
	<path class="st0" d="M654-73c-1.6,0-3-1.3-3.1-2.9c0-0.4,0-0.7,0-1c0.1-5.7,5.2-14,14-14c7.7,0,14,6.3,14,14v0c0,0.2,0,0.5,0,0.9
		c-0.1,1.6-1.5,2.9-3.1,2.9l-5.5,0c-1.7,0-3.1-1.4-3.1-3.1c0-0.8,0.3-1.6,0.9-2.2c0.6-0.6,1.4-0.9,2.2-0.9l2,0c-1-3.1-4-5.3-7.3-5.3
		c-2.7,0-4.6,1.5-5.6,2.7c-0.7,0.8-1.2,1.7-1.6,2.6l2.1,0c1.7,0,3.1,1.4,3.1,3.1c0,0.8-0.3,1.6-0.9,2.2c-0.6,0.6-1.4,0.9-2.2,0.9
		L654-73L654-73z"/>
	<path class="st0" d="M665.2-70.9c-0.7,0-1.5-0.2-2.2-0.5c-1.6-0.7-2.8-2.2-3.1-3.9l-1.2-5.9c-0.2-1.2,0.2-2.4,1.3-3.1
		c0.5-0.3,1-0.5,1.6-0.5c0.6,0,1.2,0.2,1.7,0.5l4.9,3.4c1.4,1,2.3,2.6,2.4,4.4c0,1.7-0.7,3.3-2.1,4.4c-0.1,0.1-0.2,0.1-0.3,0.2
		c-0.1,0.1-0.2,0.1-0.3,0.2C667-71.2,666.1-70.9,665.2-70.9L665.2-70.9z"/>
	<path class="st0" d="M665.2-72c-0.6,0-1.2-0.1-1.7-0.4c-1.3-0.6-2.2-1.7-2.5-3.1l-1.2-5.9c-0.2-0.7,0.2-1.5,0.8-1.9
		c0.3-0.2,0.7-0.3,1-0.3c0.4,0,0.7,0.1,1.1,0.3l4.9,3.4c1.2,0.8,1.9,2.1,1.9,3.5c0,1.4-0.6,2.7-1.7,3.5c-0.1,0-0.1,0.1-0.2,0.1
		c-0.1,0.1-0.1,0.1-0.2,0.1C666.6-72.2,665.9-72,665.2-72L665.2-72z M664.6-76.2c0,0.2,0.2,0.4,0.4,0.5c0.1,0,0.2,0.1,0.2,0.1
		c0.1,0,0.2,0,0.2-0.1c0,0,0,0,0,0c0,0,0,0,0,0c0.2-0.1,0.2-0.3,0.2-0.4c0-0.2-0.1-0.4-0.3-0.5l-1.1-0.8L664.6-76.2z"/>
	<path class="st0" d="M654-74.1c-1.1,0-2-0.8-2-1.9c0-0.3,0-0.6,0-0.9c0.1-5.3,4.8-12.9,12.9-12.9c7.1,0,12.9,5.8,12.9,12.9v0
		c0,0.2,0,0.5,0,0.8c-0.1,1.1-1,1.9-2,1.9l-5.5,0c-1.1,0-2.1-0.9-2.1-2c0-0.5,0.2-1.1,0.6-1.5c0.4-0.4,0.9-0.6,1.4-0.6l3.4,0
		c-0.7-4.2-4.4-7.5-8.7-7.5c-3.1,0-5.2,1.7-6.4,3.1c-1.1,1.3-1.9,2.9-2.2,4.4l3.6,0c1.1,0,2.1,0.9,2.1,2c0,0.5-0.2,1.1-0.6,1.5
		c-0.4,0.4-0.9,0.6-1.4,0.6L654-74.1L654-74.1z"/>
	<path class="st29" d="M678.5-76.2"/>
	<path class="st29" d="M650.5-76.2"/>
	<path class="st14" d="M654-75.2c-0.5,0-0.9-0.4-1-0.9c0-0.3,0-0.6,0-0.8c0.1-4.8,4.4-11.8,11.8-11.8c6.5,0,11.8,5.3,11.8,11.8v0
		c0,0.2,0,0.4,0,0.7c0,0.5-0.5,0.9-1,0.9l-5.5,0c0,0,0,0,0,0c-0.5,0-1-0.4-1-1c0-0.5,0.4-1,1-1l4.6,0c-0.1-5.3-4.5-9.6-9.9-9.6
		c-3.6,0-5.9,1.9-7.3,3.5c-1.5,1.8-2.5,4.2-2.7,6.2l4.8,0c0,0,0,0,0,0c0.5,0,1,0.4,1,1c0,0.5-0.4,1-1,1L654-75.2
		C654-75.2,654-75.2,654-75.2z"/>
	<path class="st0" d="M665.2-72c-0.6,0-1.2-0.1-1.7-0.4c-1.3-0.6-2.2-1.7-2.5-3.1l-1.2-5.9c-0.2-0.7,0.2-1.5,0.8-1.9
		c0.3-0.2,0.7-0.3,1-0.3c0.4,0,0.7,0.1,1.1,0.3l4.9,3.4c1.2,0.8,1.9,2.1,1.9,3.5c0,1.4-0.6,2.7-1.7,3.5c-0.1,0-0.1,0.1-0.2,0.1
		c-0.1,0.1-0.1,0.1-0.2,0.1C666.6-72.2,665.9-72,665.2-72L665.2-72z M664.6-76.2c0,0.2,0.2,0.4,0.4,0.5c0.1,0,0.2,0.1,0.2,0.1
		c0.1,0,0.2,0,0.2-0.1c0,0,0,0,0,0c0,0,0,0,0,0c0.2-0.1,0.2-0.3,0.2-0.4c0-0.2-0.1-0.4-0.3-0.5l-1.1-0.8L664.6-76.2z"/>
	<path class="st14" d="M665.2-73.1c-0.4,0-0.9-0.1-1.3-0.3c-1-0.4-1.7-1.3-1.9-2.3l-1.2-5.9c-0.1-0.3,0.1-0.6,0.3-0.8
		c0.3-0.2,0.6-0.2,0.9,0l4.9,3.4c0.9,0.6,1.4,1.6,1.4,2.6c0,1-0.4,2-1.2,2.6c-0.1,0-0.1,0.1-0.2,0.1c-0.1,0-0.1,0.1-0.2,0.1
		C666.2-73.2,665.7-73.1,665.2-73.1z M662.7-80l0.8,4c0.1,0.5,0.5,1,1,1.2c0.5,0.2,1,0.2,1.5-0.1c0,0,0.1,0,0.1-0.1
		c0,0,0.1,0,0.1-0.1c0.4-0.3,0.6-0.8,0.6-1.3c0-0.6-0.3-1.1-0.7-1.4l0,0L662.7-80z"/>
	<path d="M677.2-74.6"/>
	<path class="st0" d="M654-74.1c-1.1,0-2-0.8-2-1.9c0-0.3,0-0.6,0-0.9c0.1-5.3,4.8-12.9,12.9-12.9c7.1,0,12.9,5.8,12.9,12.9v0
		c0,0.2,0,0.5,0,0.8c-0.1,1.1-1,1.9-2,1.9l-5.5,0c-1.1,0-2.1-0.9-2.1-2c0-0.5,0.2-1.1,0.6-1.5c0.4-0.4,0.9-0.6,1.4-0.6l3.4,0
		c-0.7-4.2-4.4-7.5-8.7-7.5c-3.1,0-5.2,1.7-6.4,3.1c-1.1,1.3-1.9,2.9-2.2,4.4l3.6,0c1.1,0,2.1,0.9,2.1,2c0,0.5-0.2,1.1-0.6,1.5
		c-0.4,0.4-0.9,0.6-1.4,0.6L654-74.1L654-74.1z"/>
	<path class="st6" d="M654-75.2c-0.5,0-0.9-0.4-1-0.9c0-0.3,0-0.6,0-0.8c0.1-4.8,4.4-11.8,11.8-11.8c6.5,0,11.8,5.3,11.8,11.8v0
		c0,0.2,0,0.4,0,0.7c0,0.5-0.5,0.9-1,0.9l-5.5,0c0,0,0,0,0,0c-0.5,0-1-0.4-1-1c0-0.5,0.4-1,1-1l4.6,0c-0.1-5.3-4.5-9.6-9.9-9.6
		c-3.6,0-5.9,1.9-7.3,3.5c-1.5,1.8-2.5,4.2-2.7,6.2l4.8,0c0,0,0,0,0,0c0.5,0,1,0.4,1,1c0,0.5-0.4,1-1,1L654-75.2
		C654-75.2,654-75.2,654-75.2z"/>
	<path class="st6" d="M665.2-73.1c-0.4,0-0.9-0.1-1.3-0.3c-1-0.4-1.7-1.3-1.9-2.3l-1.2-5.9c-0.1-0.3,0.1-0.6,0.3-0.8
		c0.3-0.2,0.6-0.2,0.9,0l4.9,3.4c0.9,0.6,1.4,1.6,1.4,2.6c0,1-0.4,2-1.2,2.6c-0.1,0-0.1,0.1-0.2,0.1c-0.1,0-0.1,0.1-0.2,0.1
		C666.3-73.2,665.7-73.1,665.2-73.1z M662.7-80l0.8,4c0.1,0.5,0.5,1,1,1.2c0.5,0.2,1,0.2,1.5-0.1c0,0,0.1,0,0.1-0.1
		c0,0,0.1,0,0.1-0.1c0.4-0.3,0.6-0.8,0.6-1.3c0-0.6-0.3-1.1-0.7-1.4l0,0L662.7-80z"/>
	<path class="st0" d="M654,6.9c-1.6,0-3-1.3-3.1-2.9c0-0.4,0-0.7,0-1c0.1-5.7,5.2-14,14-14c7.7,0,14,6.3,14,14v0c0,0.2,0,0.5,0,0.9
		c-0.1,1.6-1.5,2.9-3.1,2.9l-5.5,0c-1.7,0-3.1-1.4-3.1-3.1c0-0.8,0.3-1.6,0.9-2.2c0.6-0.6,1.4-0.9,2.2-0.9l2,0c-1-3.1-4-5.3-7.3-5.3
		c-2.7,0-4.6,1.5-5.6,2.7c-0.7,0.8-1.2,1.7-1.6,2.6l2.1,0c1.7,0,3.1,1.4,3.1,3.1c0,0.8-0.3,1.6-0.9,2.2c-0.6,0.6-1.4,0.9-2.2,0.9
		L654,6.9L654,6.9z"/>
	<path class="st0" d="M665.2,9c-0.7,0-1.5-0.2-2.2-0.5c-1.6-0.7-2.8-2.2-3.1-3.9l-1.2-5.9c-0.2-1.2,0.2-2.4,1.3-3.1
		c0.5-0.3,1-0.5,1.6-0.5c0.6,0,1.2,0.2,1.7,0.5l4.9,3.4c1.4,1,2.3,2.6,2.4,4.4c0,1.7-0.7,3.3-2.1,4.4c-0.1,0.1-0.2,0.1-0.3,0.2
		c-0.1,0.1-0.2,0.1-0.3,0.2C667.1,8.7,666.1,9,665.2,9L665.2,9z"/>
	<path class="st0" d="M665.2,7.9c-0.6,0-1.2-0.1-1.7-0.4c-1.3-0.6-2.2-1.7-2.5-3.1l-1.2-5.9c-0.2-0.7,0.2-1.5,0.8-1.9
		c0.3-0.2,0.7-0.3,1-0.3c0.4,0,0.7,0.1,1.1,0.3l4.9,3.4c1.2,0.8,1.9,2.1,1.9,3.5c0,1.4-0.6,2.7-1.7,3.5c-0.1,0-0.1,0.1-0.2,0.1
		c-0.1,0.1-0.1,0.1-0.2,0.1C666.7,7.7,665.9,7.9,665.2,7.9L665.2,7.9z M664.6,3.7c0,0.2,0.2,0.4,0.4,0.5c0.1,0,0.2,0.1,0.2,0.1
		c0.1,0,0.2,0,0.2-0.1c0,0,0,0,0,0c0,0,0,0,0,0c0.2-0.1,0.2-0.3,0.2-0.4c0-0.2-0.1-0.4-0.3-0.5l-1.1-0.8L664.6,3.7z"/>
	<path class="st0" d="M654,5.8c-1.1,0-2-0.8-2-1.9c0-0.3,0-0.6,0-0.9c0.1-5.3,4.8-12.9,12.9-12.9c7.1,0,12.9,5.8,12.9,12.9v0
		c0,0.2,0,0.5,0,0.8c-0.1,1.1-1,1.9-2,1.9l-5.5,0c-1.1,0-2.1-0.9-2.1-2c0-0.5,0.2-1.1,0.6-1.5c0.4-0.4,0.9-0.6,1.4-0.6l3.4,0
		c-0.7-4.2-4.4-7.5-8.7-7.5c-3.1,0-5.2,1.7-6.4,3.1c-1.1,1.3-1.9,2.9-2.2,4.4l3.6,0c1.1,0,2.1,0.9,2.1,2c0,0.5-0.2,1.1-0.6,1.5
		c-0.4,0.4-0.9,0.6-1.4,0.6L654,5.8L654,5.8z"/>
	<path class="st29" d="M678.6,3.7"/>
	<path class="st29" d="M650.5,3.7"/>
	<path class="st14" d="M654,4.7c-0.5,0-0.9-0.4-1-0.9c0-0.3,0-0.6,0-0.8c0.1-4.8,4.4-11.8,11.8-11.8c6.5,0,11.8,5.3,11.8,11.8v0
		c0,0.2,0,0.4,0,0.7c0,0.5-0.5,0.9-1,0.9l-5.5,0c0,0,0,0,0,0c-0.5,0-1-0.4-1-1c0-0.5,0.4-1,1-1l4.6,0c-0.1-5.3-4.5-9.6-9.9-9.6
		c-3.6,0-5.9,1.9-7.3,3.5c-1.5,1.8-2.5,4.2-2.7,6.2l4.8,0c0,0,0,0,0,0c0.5,0,1,0.4,1,1c0,0.5-0.4,1-1,1L654,4.7
		C654,4.7,654,4.7,654,4.7z"/>
	<path class="st0" d="M665.2,7.9c-0.6,0-1.2-0.1-1.7-0.4c-1.3-0.6-2.2-1.7-2.5-3.1l-1.2-5.9c-0.2-0.7,0.2-1.5,0.8-1.9
		c0.3-0.2,0.7-0.3,1-0.3c0.4,0,0.7,0.1,1.1,0.3l4.9,3.4c1.2,0.8,1.9,2.1,1.9,3.5c0,1.4-0.6,2.7-1.7,3.5c-0.1,0-0.1,0.1-0.2,0.1
		c-0.1,0.1-0.1,0.1-0.2,0.1C666.7,7.7,665.9,7.9,665.2,7.9L665.2,7.9z M664.6,3.7c0,0.2,0.2,0.4,0.4,0.5c0.1,0,0.2,0.1,0.2,0.1
		c0.1,0,0.2,0,0.2-0.1c0,0,0,0,0,0c0,0,0,0,0,0c0.2-0.1,0.2-0.3,0.2-0.4c0-0.2-0.1-0.4-0.3-0.5l-1.1-0.8L664.6,3.7z"/>
	<path class="st14" d="M665.2,6.8c-0.4,0-0.9-0.1-1.3-0.3c-1-0.4-1.7-1.3-1.9-2.3l-1.2-5.9c-0.1-0.3,0.1-0.6,0.3-0.8
		c0.3-0.2,0.6-0.2,0.9,0l4.9,3.4c0.9,0.6,1.4,1.6,1.4,2.6c0,1-0.4,2-1.2,2.6c-0.1,0-0.1,0.1-0.2,0.1c-0.1,0-0.1,0.1-0.2,0.1
		C666.3,6.7,665.7,6.8,665.2,6.8z M662.7-0.1l0.8,4c0.1,0.5,0.5,1,1,1.2c0.5,0.2,1,0.2,1.5-0.1c0,0,0.1,0,0.1-0.1c0,0,0.1,0,0.1-0.1
		c0.4-0.3,0.6-0.8,0.6-1.3c0-0.6-0.3-1.1-0.7-1.4l0,0L662.7-0.1z"/>
	<path d="M677.3,5.3"/>
	<path class="st0" d="M654,5.8c-1.1,0-2-0.8-2-1.9c0-0.3,0-0.6,0-0.9c0.1-5.3,4.8-12.9,12.9-12.9c7.1,0,12.9,5.8,12.9,12.9v0
		c0,0.2,0,0.5,0,0.8c-0.1,1.1-1,1.9-2,1.9l-5.5,0c-1.1,0-2.1-0.9-2.1-2c0-0.5,0.2-1.1,0.6-1.5c0.4-0.4,0.9-0.6,1.4-0.6l3.4,0
		c-0.7-4.2-4.4-7.5-8.7-7.5c-3.1,0-5.2,1.7-6.4,3.1c-1.1,1.3-1.9,2.9-2.2,4.4l3.6,0c1.1,0,2.1,0.9,2.1,2c0,0.5-0.2,1.1-0.6,1.5
		c-0.4,0.4-0.9,0.6-1.4,0.6L654,5.8L654,5.8z"/>
	<path class="st30" d="M654,4.7c-0.5,0-0.9-0.4-1-0.9c0-0.3,0-0.6,0-0.8c0.1-4.8,4.4-11.8,11.8-11.8c6.5,0,11.8,5.3,11.8,11.8v0
		c0,0.2,0,0.4,0,0.7c0,0.5-0.5,0.9-1,0.9l-5.5,0c0,0,0,0,0,0c-0.5,0-1-0.4-1-1c0-0.5,0.4-1,1-1l4.6,0c-0.1-5.3-4.5-9.6-9.9-9.6
		c-3.6,0-5.9,1.9-7.3,3.5c-1.5,1.8-2.5,4.2-2.7,6.2l4.8,0c0,0,0,0,0,0c0.5,0,1,0.4,1,1c0,0.5-0.4,1-1,1L654,4.7
		C654,4.7,654,4.7,654,4.7z"/>
	<path class="st31" d="M665.2,6.8c-0.4,0-0.9-0.1-1.3-0.3c-1-0.4-1.7-1.3-1.9-2.3l-1.2-5.9c-0.1-0.3,0.1-0.6,0.3-0.8
		c0.3-0.2,0.6-0.2,0.9,0l4.9,3.4c0.9,0.6,1.4,1.6,1.4,2.6c0,1-0.4,2-1.2,2.6c-0.1,0-0.1,0.1-0.2,0.1c-0.1,0-0.1,0.1-0.2,0.1
		C666.3,6.7,665.7,6.8,665.2,6.8z M662.7-0.1l0.8,4c0.1,0.5,0.5,1,1,1.2c0.5,0.2,1,0.2,1.5-0.1c0,0,0.1,0,0.1-0.1c0,0,0.1,0,0.1-0.1
		c0.4-0.3,0.6-0.8,0.6-1.3c0-0.6-0.3-1.1-0.7-1.4l0,0L662.7-0.1z"/>
</g>
</svg>
