<?xml version="1.0" encoding="UTF-8"?>
<!DOCTYPE svg PUBLIC "-//W3C//DTD SVG 1.1//EN" "http://www.w3.org/Graphics/SVG/1.1/DTD/svg11.dtd">
<svg xmlns="http://www.w3.org/2000/svg" version="1.1" width="512px" height="512px" style="shape-rendering:geometricPrecision; text-rendering:geometricPrecision; image-rendering:optimizeQuality; fill-rule:evenodd; clip-rule:evenodd" xmlns:xlink="http://www.w3.org/1999/xlink">
<g><path style="opacity:1" fill="#fefffe" d="M 245.5,70.5 C 261.557,68.3479 276.223,71.8479 289.5,81C 304.107,93.4045 315.44,108.238 323.5,125.5C 359.495,126.333 395.495,126.833 431.5,127C 445.364,131.225 450.53,140.391 447,154.5C 442.182,164.161 434.349,168.495 423.5,167.5C 416.833,250.504 410,333.504 403,416.5C 402.33,428.82 396.163,436.654 384.5,440C 296.5,440.667 208.5,440.667 120.5,440C 108.198,436.594 102.365,428.427 103,415.5C 96.9154,332.81 90.7487,250.143 84.5,167.5C 66.9234,166.096 59.7567,156.763 63,139.5C 66.0964,132.734 71.2631,128.568 78.5,127C 115.171,126.833 151.838,126.333 188.5,125.5C 196.56,108.238 207.893,93.4045 222.5,81C 229.76,76.3659 237.427,72.8659 245.5,70.5 Z M 252.5,114.5 C 260.686,114.766 267.019,118.432 271.5,125.5C 261.167,126.833 250.833,126.833 240.5,125.5C 243.921,121.074 247.921,117.407 252.5,114.5 Z M 126.5,167.5 C 211.833,167.5 297.167,167.5 382.5,167.5C 375.946,244.813 369.613,322.146 363.5,399.5C 289.833,399.5 216.167,399.5 142.5,399.5C 137.167,322.166 131.833,244.833 126.5,167.5 Z"/></g>
<g><path style="opacity:1" fill="#fefffe" d="M 184.5,178.5 C 196.985,177.827 204.818,183.494 208,195.5C 208.667,251.5 208.667,307.5 208,363.5C 202.431,379.366 191.931,383.866 176.5,377C 171.761,373.687 168.928,369.187 168,363.5C 167.333,307.5 167.333,251.5 168,195.5C 170.349,186.652 175.849,180.986 184.5,178.5 Z"/></g>
<g><path style="opacity:1" fill="#fefffe" d="M 249.5,178.5 C 261.985,177.827 269.818,183.494 273,195.5C 273.667,251.5 273.667,307.5 273,363.5C 267.431,379.366 256.931,383.866 241.5,377C 236.761,373.687 233.928,369.187 233,363.5C 232.333,307.5 232.333,251.5 233,195.5C 235.349,186.652 240.849,180.986 249.5,178.5 Z"/></g>
<g><path style="opacity:1" fill="#fefffe" d="M 314.5,178.5 C 326.985,177.827 334.818,183.494 338,195.5C 338.667,251.5 338.667,307.5 338,363.5C 332.431,379.366 321.931,383.866 306.5,377C 301.761,373.687 298.928,369.187 298,363.5C 297.333,307.5 297.333,251.5 298,195.5C 300.349,186.652 305.849,180.986 314.5,178.5 Z"/></g>
</svg>
