<svg version="1.1" id="settings-svg" xmlns="http://www.w3.org/2000/svg" xmlns:xlink="http://www.w3.org/1999/xlink" x="0px" y="0px"
	 viewBox="0 0 512 512" style="enable-background:new 0 0 512 512;" xml:space="preserve">
<style type="text/css">
	.st0{fill:none;stroke:#FFFFFF;stroke-width:30;stroke-miterlimit:10;}
	.st1{fill:none;stroke:#FFFFFF;stroke-width:30;stroke-linecap:round;stroke-linejoin:round;stroke-miterlimit:10;}
</style>
<circle id="center_1_" class="st0" cx="256" cy="256" r="70.9"/>
<path id="cog_1_" class="st1" d="M385.8,331.3c6.6-11.4,11.8-23.7,15.3-36.8l39.2-3.8c2.1-11.3,3.2-22.8,3.2-34.7
	c0-11.9-1.1-23.5-3.2-34.7l-39.2-3.8l39.2,3.8c2.1,11.3,3.2,22.8,3.2,34.7c0,11.9-1.1,23.5-3.2,34.7l-39.2,3.8
	C397.6,307.6,392.4,319.9,385.8,331.3L385.8,331.3l25.1,30.4c-6.4,9.4-13.9,18.4-22.3,26.8s-17.4,15.8-26.8,22.3l-30.4-25.1
	c-11.6,6.8-24.1,11.8-36.8,15.3l0,0l-3.8,39.2c-11.3,2.1-22.8,3.2-34.7,3.2s-23.5-1.1-34.7-3.2l-3.8-39.2
	c-13.1-3.4-25.4-8.6-36.8-15.3l0,0l-30.4,25.1c-9.4-6.4-18.4-13.9-26.8-22.3s-15.8-17.4-22.3-26.8l25.1-30.4
	c-6.8-11.6-11.8-24.1-15.3-36.8l0,0l-39.3-3.8c-2.1-11.3-3.2-22.8-3.2-34.7c0-11.9,1.1-23.5,3.2-34.7l39.2-3.8
	c3.4-13.1,8.6-25.4,15.3-36.8l0,0l-25.1-30.4c6.4-9.4,13.9-18.4,22.3-26.8s17.4-15.8,26.8-22.3l30.4,25.1
	c11.6-6.8,24.1-11.8,36.8-15.3l0,0l3.8-39.2c11.3-2.1,22.8-3.2,34.7-3.2c11.9,0,23.5,1.1,34.7,3.2l3.8,39.2
	c13.1,3.4,25.4,8.6,36.8,15.3l0,0l30.4-25.1c9.4,6.4,18.4,13.9,26.8,22.3s15.8,17.4,22.3,26.8l-25.1,30.4
	c6.8,11.6,11.8,24.1,15.3,36.8"/>
</svg>
