{
  "accessors": [
    {
      "bufferView": 2,
      "componentType": 5126,
      "count": 2418,
      "max": [
        20.422698974609375,
        82.0997314453125,
        77.19805908203125
      ],
      "min": [
        -20.422698974609375,
        -0.10358428955078125,
        -52.135833740234375
      ],
      "type": "VEC3"
    },
    {
      "bufferView": 2,
      "byteOffset": 29016,
      "componentType": 5126,
      "count": 2418,
      "max": [
        0.9996610879898071,
        0.9999523758888245,
        0.9995365738868713
      ],
      "min": [
        -0.9996612071990967,
        -0.9997023940086365,
        -0.9998447299003601
      ],
      "type": "VEC3"
    },
    {
      "bufferView": 3,
      "componentType": 5126,
      "count": 2418,
      "max": [
        0.9987881779670715,
        0.9998447299003601,
        0.999750554561615,
        1.0
      ],
      "min": [
        -0.9987882375717163,
        -0.9983207583427429,
        -0.9999523758888245,
        -1.0
      ],
      "type": "VEC4"
    },
    {
      "bufferView": 1,
      "componentType": 5126,
      "count": 2418,
      "max": [
        0.9714810848236084,
        0.9866137504577637
      ],
      "min": [
        0.01661831885576248,
        0.00978851318359375
      ],
      "type": "VEC2"
    },
    {
      "bufferView": 1,
      "byteOffset": 19344,
      "componentType": 5126,
      "count": 2418,
      "max": [
        0.9714810848236084,
        0.9866137504577637
      ],
      "min": [
        0.01661831885576248,
        0.00978851318359375
      ],
      "type": "VEC2"
    },
    {
      "bufferView": 0,
      "componentType": 5125,
      "count": 13116,
      "type": "SCALAR"
    }
  ],
  "asset": {
    "extras": {
      "author": "hendrikReyneke (https://sketchfab.com/hendrikReyneke)",
      "license": "CC-BY-4.0 (http://creativecommons.org/licenses/by/4.0/)",
      "source": "https://sketchfab.com/3d-models/sheep-67abff7459f34afca11e3effab62c761",
      "title": "Sheep"
    },
    "generator": "Sketchfab-12.68.0",
    "version": "2.0"
  },
  "bufferViews": [
    {
      "buffer": 0,
      "byteLength": 52464,
      "name": "floatBufferViews",
      "target": 34963
    },
    {
      "buffer": 0,
      "byteLength": 38688,
      "byteOffset": 52464,
      "byteStride": 8,
      "name": "floatBufferViews",
      "target": 34962
    },
    {
      "buffer": 0,
      "byteLength": 58032,
      "byteOffset": 91152,
      "byteStride": 12,
      "name": "floatBufferViews",
      "target": 34962
    },
    {
      "buffer": 0,
      "byteLength": 38688,
      "byteOffset": 149184,
      "byteStride": 16,
      "name": "floatBufferViews",
      "target": 34962
    }
  ],
  "buffers": [
    {
      "byteLength": 187872,
      "uri": "scene.bin"
    }
  ],
  "images": [
    {
      "uri": "textures/M_Sheep_baseColor.jpeg"
    },
    {
      "uri": "textures/M_Sheep_normal.png"
    }
  ],
  "materials": [
    {
      "doubleSided": true,
      "name": "M_Sheep",
      "normalTexture": {
        "index": 1
      },
      "pbrMetallicRoughness": {
        "baseColorTexture": {
          "index": 0
        },
        "metallicFactor": 0.0
      }
    }
  ],
  "meshes": [
    {
      "name": "Object_0",
      "primitives": [
        {
          "attributes": {
            "NORMAL": 1,
            "POSITION": 0,
            "TANGENT": 2,
            "TEXCOORD_0": 3,
            "TEXCOORD_1": 4
          },
          "indices": 5,
          "material": 0,
          "mode": 4
        }
      ]
    }
  ],
  "nodes": [
    {
      "children": [
        1
      ],
      "matrix": [
        1.0,
        0.0,
        0.0,
        0.0,
        0.0,
        2.220446049250313e-16,
        -1.0,
        0.0,
        0.0,
        1.0,
        2.220446049250313e-16,
        0.0,
        0.0,
        0.0,
        0.0,
        1.0
      ],
      "name": "Sketchfab_model"
    },
    {
      "children": [
        2
      ],
      "name": "root"
    },
    {
      "children": [
        3
      ],
      "matrix": [
        1.0,
        0.0,
        0.0,
        0.0,
        0.0,
        2.220446049250313e-16,
        1.0,
        0.0,
        0.0,
        -1.0,
        2.220446049250313e-16,
        0.0,
        0.0,
        0.0,
        0.0,
        1.0
      ],
      "name": "GLTF_SceneRootNode"
    },
    {
      "children": [
        4
      ],
      "matrix": [
        0.001999974250793457,
        0.0,
        0.0,
        0.0,
        0.0,
        0.001999974250793457,
        0.0,
        0.0,
        0.0,
        0.0,
        0.001999974250793457,
        0.0,
        0.0,
        0.0,
        0.0,
        1.0
      ],
      "name": "SK_Sheep_LOD0_0"
    },
    {
      "mesh": 0,
      "name": "Object_4"
    }
  ],
  "samplers": [
    {
      "magFilter": 9729,
      "minFilter": 9987,
      "wrapS": 10497,
      "wrapT": 10497
    }
  ],
  "scene": 0,
  "scenes": [
    {
      "name": "Sketchfab_Scene",
      "nodes": [
        0
      ]
    }
  ],
  "textures": [
    {
      "sampler": 0,
      "source": 0
    },
    {
      "sampler": 0,
      "source": 1
    }
  ]
}
