# Blender v3.0.1 OBJ File: 'base.blend'
# www.blender.org
o base.002
v 0.022536 0.042318 0.445647
v 0.023492 0.040908 0.445647
v 0.024409 0.042295 0.445647
v 0.024958 0.040802 0.445647
v 0.026716 0.041925 0.445647
v 0.026400 0.040516 0.445647
v 0.027602 0.040139 0.445647
v 0.029142 0.041051 0.445647
v 0.028760 0.039641 0.445647
v 0.030041 0.038920 0.445647
v 0.031367 0.039756 0.445647
v 0.031222 0.038044 0.445647
v 0.033142 0.038219 0.445647
v 0.032444 0.036891 0.445647
v 0.034504 0.036615 0.445647
v 0.033605 0.035399 0.445647
v 0.035599 0.034810 0.445647
v 0.034439 0.033941 0.445647
v 0.036416 0.032870 0.445647
v 0.034924 0.032778 0.445647
v 0.035302 0.031576 0.445647
v 0.036917 0.030819 0.445647
v 0.035604 0.029923 0.445647
v 0.037101 0.028954 0.445647
v 0.035677 0.028034 0.445647
v 0.036961 0.026389 0.445647
v 0.035414 0.025951 0.445647
v 0.036302 0.023891 0.445647
v 0.034874 0.024139 0.445647
v 0.035344 0.021760 0.445647
v 0.034360 0.022989 0.445647
v 0.033635 0.021710 0.445647
v 0.034012 0.019826 0.445647
v 0.032471 0.020220 0.445647
v 0.032733 0.018456 0.445647
v 0.031260 0.019056 0.445647
v 0.030715 0.016866 0.445647
v 0.029727 0.017950 0.445647
v 0.028230 0.017187 0.445647
v 0.027976 0.015535 0.445647
v 0.026851 0.016679 0.445647
v 0.025248 0.014858 0.445647
v 0.025212 0.016308 0.445647
v 0.023328 0.016155 0.445647
v 0.022206 0.014756 0.445647
v 0.021652 0.016275 0.445647
v 0.020209 0.016554 0.445647
v 0.019665 0.015223 0.445647
v 0.018811 0.017009 0.445647
v 0.017253 0.016107 0.445647
v 0.017474 0.017620 0.445647
v 0.016223 0.018392 0.445647
v 0.014682 0.017742 0.445647
v 0.015067 0.019300 0.445647
v 0.012832 0.019538 0.445647
v 0.013892 0.020501 0.445647
v 0.013009 0.021676 0.445647
v 0.011461 0.021437 0.445647
v 0.012364 0.022759 0.445647
v 0.010343 0.023755 0.445647
v 0.011674 0.024291 0.445647
v 0.011215 0.025907 0.445647
v 0.009733 0.026023 0.445647
v 0.010985 0.027359 0.445647
v 0.009481 0.028580 0.445647
v 0.010939 0.029039 0.445647
v 0.011061 0.030293 0.445647
v 0.009752 0.031150 0.445647
v 0.011296 0.031531 0.445647
v 0.010231 0.032961 0.445647
v 0.011812 0.033130 0.445647
v 0.011257 0.035316 0.445647
v 0.012540 0.034644 0.445647
v 0.013344 0.035875 0.445647
v 0.012748 0.037428 0.445647
v 0.014281 0.037007 0.445647
v 0.014049 0.038776 0.445647
v 0.015194 0.037876 0.445647
v 0.016182 0.038658 0.445647
v 0.015521 0.039935 0.445647
v 0.017252 0.039324 0.445647
v 0.017548 0.041096 0.445647
v 0.018569 0.039977 0.445647
v 0.020209 0.042001 0.445647
v 0.020571 0.040613 0.445647
v 0.022232 0.040862 0.445647
v 0.023143 0.042351 0.431378
v 0.020807 0.042111 0.431378
v 0.018991 0.041648 0.431378
v 0.017255 0.040943 0.431378
v 0.015243 0.039756 0.431378
v 0.013468 0.038219 0.431378
v 0.012106 0.036615 0.431378
v 0.011010 0.034810 0.431378
v 0.010194 0.032870 0.431378
v 0.009573 0.030133 0.431378
v 0.009550 0.027319 0.431378
v 0.009903 0.025237 0.431378
v 0.010473 0.023452 0.431378
v 0.011390 0.021558 0.431378
v 0.012886 0.019464 0.431378
v 0.014759 0.017691 0.431378
v 0.016516 0.016519 0.431378
v 0.018634 0.015535 0.431378
v 0.021133 0.014900 0.431378
v 0.023012 0.014742 0.431378
v 0.024873 0.014817 0.431378
v 0.027169 0.015280 0.431378
v 0.029143 0.016030 0.431378
v 0.031175 0.017182 0.431378
v 0.033143 0.018847 0.431378
v 0.034501 0.020465 0.431378
v 0.035491 0.022056 0.431378
v 0.036340 0.023981 0.431378
v 0.036829 0.025802 0.431378
v 0.037105 0.027878 0.431378
v 0.036953 0.030684 0.431378
v 0.036379 0.032961 0.431378
v 0.035659 0.034691 0.431378
v 0.034585 0.036500 0.431378
v 0.033234 0.038124 0.431378
v 0.031300 0.039814 0.431378
v 0.028843 0.041186 0.431378
v 0.026175 0.042060 0.431378
vt -1.446712 1.369253
vt -1.299313 1.472066
vt -1.444319 1.565931
vt -1.287093 1.625942
vt -1.402766 1.807370
vt -1.257568 1.777451
vt -1.217740 1.903663
vt -1.312587 2.062226
vt -1.165280 2.025172
vt -1.088482 2.159064
vt -1.175562 2.294627
vt -0.997051 2.283422
vt -1.016418 2.482663
vt -0.874302 2.410052
vt -0.847319 2.624564
vt -0.718277 2.532425
vt -0.658545 2.740665
vt -0.565062 2.619730
vt -0.454576 2.825197
vt -0.443413 2.671842
vt -0.316647 2.709881
vt -0.239616 2.879014
vt -0.143096 2.741158
vt -0.043868 2.898299
vt 0.055131 2.747330
vt 0.224677 2.879109
vt 0.273556 2.719359
vt 0.487729 2.814410
vt 0.463830 2.663436
vt 0.709991 2.711450
vt 0.585181 2.610636
vt 0.717957 2.531962
vt 0.914410 2.573989
vt 0.874698 2.410452
vt 1.058214 2.439787
vt 0.996717 2.283139
vt 1.221264 2.225481
vt 1.111450 2.121404
vt 1.193063 1.965075
vt 1.362375 1.939405
vt 1.245307 1.819832
vt 1.433228 1.653574
vt 1.283921 1.647765
vt 1.298501 1.449981
vt 1.442095 1.335030
vt 1.287527 1.274002
vt 1.257145 1.122661
vt 1.397640 1.067874
vt 1.209863 0.975731
vt 1.300661 0.816646
vt 1.144694 0.835800
vt 1.064138 0.704137
vt 1.131038 0.546552
vt 0.967846 0.583491
vt 0.943891 0.351467
vt 0.841573 0.460394
vt 0.718514 0.367208
vt 0.744675 0.207717
vt 0.604654 0.299742
vt 0.500981 0.091851
vt 0.442944 0.229383
vt 0.273773 0.179666
vt 0.263850 0.025262
vt 0.121152 0.156599
vt -0.004542 0.003337
vt -0.055137 0.152108
vt -0.186969 0.163705
vt -0.274330 0.027242
vt -0.316653 0.190121
vt -0.464492 0.077505
vt -0.484367 0.244615
vt -0.709445 0.189239
vt -0.643156 0.321321
vt -0.772732 0.405210
vt -0.933364 0.341700
vt -0.890881 0.504540
vt -1.074868 0.478324
vt -0.982996 0.599570
vt -1.063782 0.704391
vt -1.196564 0.632852
vt -1.134755 0.816088
vt -1.315962 0.846818
vt -1.200709 0.955628
vt -1.410802 1.125617
vt -1.266987 1.165661
vt -1.294820 1.339805
vt -1.300000 0.116140
vt -2.800000 -0.016984
vt -1.300000 -0.080846
vt -2.800000 -0.263884
vt -1.300000 -0.327697
vt -2.800000 -0.460866
vt -1.300000 -0.623183
vt -2.800000 -0.657854
vt -2.800000 -0.903391
vt -1.300000 -0.868788
vt -1.300000 -1.065775
vt -2.800000 -1.150320
vt -1.300000 -1.262764
vt -2.800000 -1.371495
vt -1.300000 -1.534455
vt -2.800000 -1.593540
vt -2.800000 -1.814719
vt -1.300000 -1.804475
vt -1.300000 -2.001460
vt -2.800000 -2.109849
vt -1.300000 -2.273100
vt -2.800000 -2.405677
vt -1.300000 -2.543174
vt -2.800000 -2.627717
vt -1.300000 -2.790062
vt -2.800000 -2.824706
vt -2.800000 -3.045911
vt -1.300000 -3.060665
vt -2.800000 -3.316513
vt -1.300000 -3.306902
vt -1.300000 -3.578012
vt -2.800000 -3.587620
vt -2.800000 -3.809637
vt -1.300000 -3.898238
vt -2.800000 -4.055213
vt -1.300000 -4.168323
vt -2.800000 -4.326294
vt -1.300000 -4.431020
vt -2.800000 -4.511964
vt -1.300000 4.550962
vt -2.800000 4.559656
vt -2.800000 4.390329
vt -1.300000 4.350724
vt -2.800000 4.144098
vt -1.300000 4.055245
vt -2.800000 3.922079
vt -1.300000 3.734980
vt -2.800000 3.676511
vt -1.300000 3.464912
vt -2.800000 3.405395
vt -1.300000 3.267923
vt -2.800000 3.183380
vt -1.300000 3.020994
vt -2.800000 2.986394
vt -2.800000 2.765188
vt -1.300000 2.775455
vt -1.300000 2.503767
vt -2.800000 2.566986
vt -2.800000 2.346841
vt -1.300000 2.233749
vt -2.800000 2.051370
vt -1.300000 2.036762
vt -1.300000 1.814749
vt -2.800000 1.804476
vt -2.800000 1.607487
vt -1.300000 1.593541
vt -2.800000 1.386284
vt -1.300000 1.371496
vt -2.800000 1.164273
vt -1.300000 1.150324
vt -2.800000 0.894255
vt -1.300000 0.903391
vt -1.300000 0.632827
vt -2.800000 0.598345
vt -1.300000 0.361713
vt -2.800000 0.303239
vn -0.0000 0.0000 1.0000
vn 0.0010 0.0020 1.0000
vn -0.0008 0.0017 1.0000
vn 0.0007 0.0027 1.0000
vn -0.0010 0.0019 1.0000
vn 0.0003 0.0018 1.0000
vn -0.0006 0.0020 1.0000
vn 0.0002 0.0002 1.0000
vn 0.0000 0.0021 1.0000
vn 0.0015 0.0021 1.0000
vn 0.0014 0.0021 1.0000
vn 0.0016 0.0012 1.0000
vn 0.0023 0.0003 1.0000
vn 0.0012 0.0014 1.0000
vn 0.0021 0.0010 1.0000
vn 0.0020 0.0009 1.0000
vn 0.0023 0.0008 1.0000
vn 0.0003 -0.0000 1.0000
vn 0.0023 -0.0003 1.0000
vn 0.0010 -0.0016 1.0000
vn 0.0026 -0.0002 1.0000
vn 0.0023 -0.0009 1.0000
vn 0.0017 -0.0005 1.0000
vn 0.0017 -0.0019 1.0000
vn 0.0022 -0.0001 1.0000
vn 0.0014 -0.0014 1.0000
vn 0.0000 -0.0024 1.0000
vn 0.0019 -0.0014 1.0000
vn 0.0007 -0.0026 1.0000
vn 0.0015 -0.0012 1.0000
vn 0.0006 -0.0016 1.0000
vn -0.0002 -0.0024 1.0000
vn 0.0012 -0.0018 1.0000
vn -0.0007 -0.0019 1.0000
vn -0.0017 -0.0016 1.0000
vn -0.0002 -0.0019 1.0000
vn -0.0014 -0.0017 1.0000
vn -0.0023 -0.0010 1.0000
vn -0.0012 -0.0019 1.0000
vn -0.0012 -0.0015 1.0000
vn -0.0024 -0.0008 1.0000
vn -0.0010 -0.0010 1.0000
vn -0.0026 -0.0004 1.0000
vn -0.0023 0.0000 1.0000
vn -0.0023 0.0011 1.0000
vn -0.0020 -0.0008 1.0000
vn -0.0019 0.0007 1.0000
vn -0.0020 0.0016 1.0000
vn -0.0023 0.0004 1.0000
vn -0.0018 0.0009 1.0000
vn -0.0015 0.0017 1.0000
vn -0.0007 0.0031 1.0000
vn -0.0012 0.0002 1.0000
vn 0.0854 0.9963 0.0026
vn -0.0041 1.0000 -0.0030
vn -0.0618 0.9981 0.0022
vn -0.1748 0.9846 -0.0022
vn -0.2289 0.9734 0.0028
vn -0.3129 0.9498 -0.0020
vn -0.4129 0.9108 0.0013
vn -0.4444 0.8958 -0.0005
vn -0.5827 0.8127 -0.0008
vn -0.5584 0.8296 0.0005
vn -0.6706 0.7418 0.0019
vn -0.7106 0.7036 -0.0025
vn -0.7701 0.6379 0.0028
vn -0.8109 0.5852 -0.0027
vn -0.8720 0.4895 0.0017
vn -0.8915 0.4530 -0.0006
vn -0.9516 0.3074 -0.0006
vn -0.9444 0.3288 0.0004
vn -0.9833 0.1821 0.0026
vn -0.9932 0.1160 -0.0040
vn -1.0000 0.0031 0.0038
vn -0.9967 -0.0808 -0.0036
vn -0.9837 -0.1798 0.0031
vn -0.9717 -0.2364 -0.0021
vn -0.9371 -0.3492 0.0016
vn -0.9283 -0.3719 -0.0006
vn -0.8603 -0.5098 0.0001
vn -0.8589 -0.5121 0.0003
vn -0.7541 -0.6568 -0.0008
vn -0.7568 -0.6537 0.0005
vn -0.6204 -0.7843 0.0019
vn -0.6232 -0.7821 -0.0006
vn -0.4908 -0.8713 -0.0019
vn -0.4432 -0.8964 0.0034
vn -0.3350 -0.9422 -0.0034
vn -0.2632 -0.9647 0.0036
vn -0.1657 -0.9862 -0.0032
vn -0.0732 -0.9973 0.0026
vn -0.0196 -0.9998 -0.0001
vn 0.1176 -0.9931 0.0004
vn 0.1374 -0.9905 0.0026
vn 0.2770 -0.9609 -0.0025
vn 0.3406 -0.9402 0.0038
vn 0.4254 -0.9050 -0.0028
vn 0.5316 -0.8470 0.0032
vn 0.5723 -0.8200 -0.0026
vn 0.6769 -0.7360 0.0022
vn 0.7085 -0.7058 -0.0023
vn 0.7793 -0.6267 0.0023
vn 0.8096 -0.5870 -0.0021
vn 0.8718 -0.4898 0.0012
vn 0.8847 -0.4662 -0.0006
vn 0.9432 -0.3322 0.0013
vn 0.9426 -0.3340 0.0004
vn 0.9876 -0.1567 0.0024
vn 0.9803 -0.1977 -0.0009
vn 0.9992 -0.0390 -0.0033
vn 0.9997 0.0228 0.0026
vn 0.9886 0.1508 -0.0021
vn 0.9857 0.1686 0.0009
vn 0.9496 0.3136 0.0003
vn 0.9489 0.3155 -0.0004
vn 0.8939 0.4483 -0.0003
vn 0.8907 0.4546 0.0006
vn 0.8169 0.5768 -0.0007
vn 0.8112 0.5848 0.0006
vn 0.7156 0.6985 -0.0007
vn 0.7104 0.7038 0.0003
vn 0.5762 0.8173 -0.0012
vn 0.5816 0.8134 0.0006
vn 0.4229 0.9062 0.0013
vn 0.4015 0.9158 -0.0021
vn 0.2502 0.9682 0.0023
vn 0.2052 0.9787 -0.0033
usemtl Material_#28
s 1
f 1/1/1 2/2/2 3/3/1
f 3/3/1 2/2/2 4/4/3
f 3/3/1 4/4/3 5/5/1
f 5/5/1 4/4/3 6/6/4
f 5/5/1 6/6/4 7/7/5
f 5/5/1 7/7/5 8/8/1
f 8/8/1 7/7/5 9/9/6
f 8/8/1 9/9/6 10/10/7
f 8/8/1 10/10/7 11/11/8
f 11/11/8 10/10/7 12/12/9
f 11/11/8 12/12/9 13/13/1
f 13/13/1 12/12/9 14/14/10
f 13/13/1 14/14/10 15/15/1
f 15/15/1 14/14/10 16/16/11
f 15/15/1 16/16/11 17/17/1
f 17/17/1 16/16/11 18/18/12
f 17/17/1 18/18/12 19/19/1
f 19/19/1 18/18/12 20/20/13
f 19/19/1 20/20/13 21/21/14
f 19/19/1 21/21/14 22/22/1
f 22/22/1 21/21/14 23/23/15
f 22/22/1 23/23/15 24/24/1
f 24/24/1 23/23/15 25/25/16
f 24/24/1 25/25/16 26/26/1
f 26/26/1 25/25/16 27/27/17
f 26/26/1 27/27/17 28/28/18
f 28/28/18 27/27/17 29/29/19
f 28/28/18 29/29/19 30/30/1
f 30/30/1 29/29/19 31/31/20
f 30/30/1 31/31/20 32/32/21
f 30/30/1 32/32/21 33/33/1
f 33/33/1 32/32/21 34/34/22
f 33/33/1 34/34/22 35/35/1
f 35/35/1 34/34/22 36/36/23
f 35/35/1 36/36/23 37/37/1
f 37/37/1 36/36/23 38/38/24
f 37/37/1 38/38/24 39/39/25
f 37/37/1 39/39/25 40/40/1
f 40/40/1 39/39/25 41/41/26
f 40/40/1 41/41/26 42/42/1
f 42/42/1 41/41/26 43/43/27
f 42/42/1 43/43/27 44/44/28
f 42/42/1 44/44/28 45/45/1
f 45/45/1 44/44/28 46/46/29
f 45/45/1 46/46/29 47/47/30
f 45/45/1 47/47/30 48/48/1
f 48/48/1 47/47/30 49/49/31
f 48/48/1 49/49/31 50/50/1
f 50/50/1 49/49/31 51/51/32
f 50/50/1 51/51/32 52/52/33
f 50/50/1 52/52/33 53/53/1
f 53/53/1 52/52/33 54/54/34
f 53/53/1 54/54/34 55/55/1
f 55/55/1 54/54/34 56/56/35
f 55/55/1 56/56/35 57/57/36
f 55/55/1 57/57/36 58/58/1
f 58/58/1 57/57/36 59/59/37
f 58/58/1 59/59/37 60/60/1
f 60/60/1 59/59/37 61/61/38
f 60/60/1 61/61/38 62/62/39
f 60/60/1 62/62/39 63/63/1
f 63/63/1 62/62/39 64/64/40
f 63/63/1 64/64/40 65/65/1
f 65/65/1 64/64/40 66/66/41
f 65/65/1 66/66/41 67/67/42
f 65/65/1 67/67/42 68/68/1
f 68/68/1 67/67/42 69/69/43
f 68/68/1 69/69/43 70/70/1
f 70/70/1 69/69/43 71/71/44
f 70/70/1 71/71/44 72/72/1
f 72/72/1 71/71/44 73/73/45
f 72/72/1 73/73/45 74/74/46
f 72/72/1 74/74/46 75/75/1
f 75/75/1 74/74/46 76/76/47
f 75/75/1 76/76/47 77/77/1
f 77/77/1 76/76/47 78/78/48
f 77/77/1 78/78/48 79/79/49
f 77/77/1 79/79/49 80/80/1
f 80/80/1 79/79/49 81/81/50
f 80/80/1 81/81/50 82/82/1
f 82/82/1 81/81/50 83/83/51
f 82/82/1 83/83/51 84/84/1
f 84/84/1 83/83/51 85/85/52
f 84/84/1 85/85/52 86/86/53
f 84/84/1 86/86/53 1/1/1
f 1/1/1 86/86/53 2/2/2
f 3/87/54 87/88/55 1/89/56
f 1/89/56 87/88/55 88/90/57
f 1/89/56 88/90/57 84/91/58
f 84/91/58 88/90/57 89/92/59
f 84/91/58 89/92/59 82/93/60
f 82/93/60 89/92/59 90/94/61
f 82/93/60 90/94/61 91/95/62
f 82/93/60 91/95/62 80/96/63
f 80/96/63 91/95/62 77/97/64
f 77/97/64 91/95/62 92/98/65
f 77/97/64 92/98/65 75/99/66
f 75/99/66 92/98/65 93/100/67
f 75/99/66 93/100/67 72/101/68
f 72/101/68 93/100/67 94/102/69
f 72/101/68 94/102/69 95/103/70
f 72/101/68 95/103/70 70/104/71
f 70/104/71 95/103/70 68/105/72
f 68/105/72 95/103/70 96/106/73
f 68/105/72 96/106/73 65/107/74
f 65/107/74 96/106/73 97/108/75
f 65/107/74 97/108/75 63/109/76
f 63/109/76 97/108/75 98/110/77
f 63/109/76 98/110/77 60/111/78
f 60/111/78 98/110/77 99/112/79
f 60/111/78 99/112/79 100/113/80
f 60/111/78 100/113/80 58/114/81
f 58/114/81 100/113/80 101/115/82
f 58/114/81 101/115/82 55/116/83
f 55/116/83 101/115/82 53/117/84
f 53/117/84 101/115/82 102/118/85
f 53/117/84 102/118/85 103/119/86
f 53/117/84 103/119/86 50/120/87
f 50/120/87 103/119/86 104/121/88
f 50/120/87 104/121/88 48/122/89
f 48/122/89 104/121/88 105/123/90
f 48/122/89 105/123/90 45/124/91
f 45/124/91 105/123/90 106/125/92
f 45/126/91 106/127/92 107/128/93
f 45/126/91 107/128/93 42/129/94
f 42/129/94 107/128/93 108/130/95
f 42/129/94 108/130/95 40/131/96
f 40/131/96 108/130/95 109/132/97
f 40/131/96 109/132/97 37/133/98
f 37/133/98 109/132/97 110/134/99
f 37/133/98 110/134/99 35/135/100
f 35/135/100 110/134/99 111/136/101
f 35/135/100 111/136/101 33/137/102
f 33/137/102 111/136/101 112/138/103
f 33/137/102 112/138/103 30/139/104
f 30/139/104 112/138/103 113/140/105
f 30/139/104 113/140/105 114/141/106
f 30/139/104 114/141/106 28/142/107
f 28/142/107 114/141/106 26/143/108
f 26/143/108 114/141/106 115/144/109
f 26/143/108 115/144/109 116/145/110
f 26/143/108 116/145/110 24/146/111
f 24/146/111 116/145/110 117/147/112
f 24/146/111 117/147/112 22/148/113
f 22/148/113 117/147/112 19/149/114
f 19/149/114 117/147/112 118/150/115
f 19/149/114 118/150/115 119/151/116
f 19/149/114 119/151/116 17/152/117
f 17/152/117 119/151/116 120/153/118
f 17/152/117 120/153/118 15/154/119
f 15/154/119 120/153/118 121/155/120
f 15/154/119 121/155/120 13/156/121
f 13/156/121 121/155/120 122/157/122
f 13/156/121 122/157/122 11/158/123
f 11/158/123 122/157/122 8/159/124
f 8/159/124 122/157/122 123/160/125
f 8/159/124 123/160/125 5/161/126
f 5/161/126 123/160/125 124/162/127
f 5/161/126 124/162/127 3/87/54
f 3/87/54 124/162/127 87/88/55
f 16/16/11 14/14/10 12/12/9 10/10/7 9/9/6 7/7/5 6/6/4 4/4/3 2/2/2 86/86/53 85/85/52 83/83/51 81/81/50 79/79/49 78/78/48 76/76/47 74/74/46 73/73/45 71/71/44 69/69/43 67/67/42 66/66/41 64/64/40 62/62/39 61/61/38 59/59/37 57/57/36 56/56/35 54/54/34 52/52/33 51/51/32 49/49/31 47/47/30 46/46/29 44/44/28 43/43/27 41/41/26 39/39/25 38/38/24 36/36/23 34/34/22 32/32/21 31/31/20 29/29/19 27/27/17 25/25/16 23/23/15 21/21/14 20/20/13 18/18/12
