# Blender v3.0.1 OBJ File: 'arm.blend'
# www.blender.org
o base_arm.004
v 0.069843 0.009338 0.184442
v 0.071363 0.008707 0.184442
v 0.072696 0.007584 0.184442
v 0.073507 0.006379 0.184442
v 0.073887 0.005383 0.184442
v 0.074093 0.004241 0.184442
v 0.074025 0.002724 0.184442
v 0.073409 0.001028 0.184442
v 0.072489 -0.000179 0.184442
v 0.071444 -0.001043 0.184442
v 0.069937 -0.001705 0.184442
v 0.068274 -0.001919 0.184442
v 0.066777 -0.001666 0.184442
v 0.065499 -0.001130 0.184442
v 0.064315 -0.000179 0.184442
v 0.063639 0.000644 0.184442
v 0.062980 0.001977 0.184442
v 0.062688 0.003562 0.184442
v 0.062785 0.004817 0.184442
v 0.063094 0.005938 0.184442
v 0.063822 0.007228 0.184442
v 0.064668 0.008121 0.184442
v 0.065530 0.008748 0.184442
v 0.066867 0.009315 0.184442
v 0.068402 0.009525 0.184442
v 0.065366 0.009769 0.184442
v 0.062818 0.007608 0.184442
v 0.061711 0.004074 0.184442
v 0.062151 0.001239 0.184442
v 0.064911 -0.002020 0.184442
v 0.069404 -0.002889 0.184442
v 0.072745 -0.001309 0.184442
v 0.074609 0.001255 0.184442
v 0.075069 0.005025 0.184442
v 0.073098 0.008619 0.184442
v 0.069311 0.010576 0.184442
v 0.064920 -0.002055 0.179305
v 0.062380 0.000877 0.179305
v 0.061668 0.004089 0.179305
v 0.063645 0.008710 0.179305
v 0.067868 0.010515 0.179305
v 0.071532 0.009744 0.179305
v 0.074359 0.007075 0.179305
v 0.075020 0.002055 0.179305
v 0.072718 -0.001309 0.179305
v 0.069707 -0.002831 0.179305
vt 0.290318 -0.076486
vt 0.263997 0.042567
vt 0.112999 -0.012137
vt -0.009999 -1.129008
vt -0.550000 -1.127779
vt -0.550000 -1.517781
vt -0.009999 -1.661155
vt -0.550000 1.657935
vt -0.009999 1.450561
vt -0.009999 1.859682
vt -0.550000 -1.869634
vt -0.009999 -0.834435
vt -0.550000 1.226213
vt -0.009999 0.917625
vt 0.529989 -0.150047
vt -0.045806 -0.001751
vt -0.123569 0.076635
vt -0.496591 -0.115380
vt -0.677568 -0.509831
vt -0.621023 -0.915969
vt -0.387382 -1.169284
vt -0.028044 -1.295319
vt 0.262433 -1.240113
vt 0.588835 -0.952871
vt 0.680547 -0.498756
vt 0.418826 -0.170367
vt 0.507057 -0.281826
vt 0.577239 -0.439183
vt 0.598475 -0.613389
vt 0.575171 -0.770816
vt 0.515947 -0.903564
vt 0.418826 -1.029633
vt 0.331323 -1.099291
vt 0.191215 -1.167266
vt 0.025430 -1.198682
vt -0.106418 -1.190487
vt -0.223201 -1.155448
vt -0.358766 -1.079961
vt -0.453753 -0.992566
vt -0.518090 -0.901080
vt -0.576655 -0.760656
vt -0.598616 -0.600001
vt -0.579887 -0.449011
vt -0.510907 -0.291375
vt -0.395489 -0.150634
vt -0.269774 -0.064941
vt -0.165926 -0.023399
vt -0.009999 0.136158
vt -0.009999 0.490607
vt -0.550000 0.492732
vt -0.550000 0.103434
vt -0.550000 0.826636
vt -0.550000 -0.827152
vt -0.009999 -0.782697
vt -0.550000 2.079293
vt -0.550000 -2.129058
vt -0.009999 -0.374896
vt -0.550000 -0.377872
vn -0.0001 -0.0000 1.0000
vn -0.0000 -0.0000 1.0000
vn -0.9961 0.0837 -0.0265
vn -0.9972 0.0745 0.0085
vn -0.8434 0.5371 0.0100
vn -0.7046 0.7086 -0.0391
vn 0.6944 0.7186 0.0378
vn 0.8851 0.4641 -0.0354
vn 0.4679 0.8832 -0.0317
vn -0.4323 0.9014 0.0234
vn -0.1032 0.9939 -0.0399
vn 0.9827 0.1840 0.0227
vn 0.9671 -0.2534 -0.0225
vn 0.0000 -0.0004 1.0000
vn 0.1507 -0.9886 0.0002
vn 0.6485 -0.7612 -0.0039
vn 0.6495 -0.7604 -0.0039
vn 0.1272 -0.9919 -0.0008
vn 0.9233 -0.3836 0.0197
vn -0.9095 -0.4156 0.0005
vn -0.8888 -0.4581 -0.0097
vn 0.1357 0.9905 0.0239
vn -0.4952 -0.8688 0.0004
vn -0.4970 -0.8678 -0.0000
usemtl Material_#25
s 1
f 8/1/1 33/2/1 7/3/2
f 39/4/3 28/5/4 27/6/5
f 27/6/5 40/7/6 39/4/3
f 35/8/7 43/9/8 42/10/9
f 26/11/10 40/7/6 27/6/5
f 40/7/6 26/11/10 41/12/11
f 43/9/8 35/8/7 34/13/12
f 43/9/8 34/13/12 44/14/13
f 32/15/2 33/2/1 8/1/1
f 6/16/2 7/3/2 33/2/1 34/17/2 35/18/2 36/19/2 26/20/2 27/21/2 28/22/2 29/23/2 30/24/2 31/25/2 32/15/2 8/1/1 9/26/2 10/27/2 11/28/2 12/29/2 13/30/2 14/31/2 15/32/2 16/33/2 17/34/2 18/35/2 19/36/2 20/37/2 21/38/2 22/39/2 23/40/2 24/41/2 25/42/2 1/43/2 2/44/14 3/45/14 4/46/2 5/47/2
f 46/48/15 45/49/16 32/50/17 31/51/18
f 44/14/13 34/13/12 33/52/19
f 29/53/20 39/4/3 38/54/21
f 44/14/13 33/52/19 32/50/17 45/49/16
f 29/53/20 28/5/4 39/4/3
f 36/55/22 42/10/9 41/12/11
f 26/11/10 36/56/22 41/12/11
f 37/57/23 30/58/24 29/53/20 38/54/21
f 37/57/23 46/48/15 31/51/18 30/58/24
f 36/55/22 35/8/7 42/10/9
