o base_link_1
v 0.07 -0.09 -0.0005
v 0.07 -0.09 0.0045
v 0.070035 -0.091185 -0.0005
v 0.070035 -0.091185 0.0045
v 0.070035 -0.088815 -0.0005
v 0.070035 -0.088815 0.0045
v 0.070315 -0.093538 -0.0005
v 0.070315 -0.093538 0.0045
v 0.070315 -0.086462 -0.0005
v 0.070315 -0.086462 0.0045
v 0.070872 -0.095841 -0.0005
v 0.070872 -0.095841 0.0045
v 0.070872 -0.084159 -0.0005
v 0.070872 -0.084159 0.0045
v 0.071697 -0.098063 -0.0005
v 0.071697 -0.098063 0.0045
v 0.071697 -0.081937 -0.0005
v 0.071697 -0.081937 0.0045
v 0.072779 -0.100171 -0.0005
v 0.072779 -0.100171 0.0045
v 0.072779 -0.079829 -0.0005
v 0.072779 -0.079829 0.0045
v 0.074103 -0.102136 -0.0005
v 0.074103 -0.102136 0.0045
v 0.074103 -0.077864 -0.0005
v 0.074103 -0.077864 0.0045
v 0.07565 -0.103931 -0.0005
v 0.07565 -0.103931 0.0045
v 0.07565 -0.076069 -0.0005
v 0.07565 -0.076069 0.0045
v 0.077398 -0.10553 -0.0005
v 0.077398 -0.10553 0.0045
v 0.077398 -0.074469 -0.0005
v 0.077398 -0.074469 0.0045
v 0.079324 -0.106912 -0.0005
v 0.079324 -0.106912 0.0045
v 0.079324 -0.073088 -0.0005
v 0.079324 -0.073088 0.0045
v 0.081399 -0.108056 -0.0005
v 0.081399 -0.108056 0.0045
v 0.081399 -0.071944 -0.0005
v 0.081399 -0.071944 0.0045
v 0.083595 -0.108947 -0.0005
v 0.083595 -0.108947 0.0045
v 0.083595 -0.071053 -0.0005
v 0.083595 -0.071053 0.0045
v 0.08588 -0.109571 -0.0005
v 0.08588 -0.109571 0.0045
v 0.08588 -0.070429 -0.0005
v 0.08588 -0.070429 0.0045
v 0.088224 -0.109921 -0.0005
v 0.088224 -0.109921 0.0045
v 0.088224 -0.070079 -0.0005
v 0.088224 -0.070079 0.0045
v 0.09 -0.09 -0.0005
v 0.090593 -0.109991 -0.0005
v 0.090593 -0.109991 0.0045
v 0.090593 -0.070009 -0.0005
v 0.090593 -0.070009 0.0045
v 0.092953 -0.109781 -0.0005
v 0.092953 -0.109781 0.0045
v 0.092953 -0.070219 -0.0005
v 0.092953 -0.070219 0.0045
v 0.095272 -0.109293 -0.0005
v 0.095272 -0.109293 0.0045
v 0.095272 -0.070707 -0.0005
v 0.095272 -0.070707 0.0045
v 0.097517 -0.108534 -0.0005
v 0.097517 -0.108534 0.0045
v 0.097517 -0.071466 -0.0005
v 0.097517 -0.071466 0.0045
v 0.099656 -0.107515 -0.0005
v 0.099656 -0.107515 0.0045
v 0.099656 -0.072485 -0.0005
v 0.099656 -0.072485 0.0045
v 0.10166 -0.10625 -0.0005
v 0.10166 -0.10625 0.0045
v 0.10166 -0.07375 -0.0005
v 0.10166 -0.07375 0.0045
v 0.1035 -0.104757 -0.0005
v 0.1035 -0.104757 0.0045
v 0.1035 -0.075243 -0.0005
v 0.1035 -0.075243 0.0045
v 0.10515 -0.103056 -0.0005
v 0.10515 -0.103056 0.0045
v 0.10515 -0.076944 -0.0005
v 0.10515 -0.076944 0.0045
v 0.106588 -0.101173 -0.0005
v 0.106588 -0.101173 0.0045
v 0.106588 -0.078827 -0.0005
v 0.106588 -0.078827 0.0045
v 0.107793 -0.099133 -0.0005
v 0.107793 -0.099133 0.0045
v 0.107793 -0.080867 -0.0005
v 0.107793 -0.080867 0.0045
v 0.108748 -0.096964 -0.0005
v 0.108748 -0.096964 0.0045
v 0.108748 -0.083036 -0.0005
v 0.108748 -0.083036 0.0045
v 0.10944 -0.094698 -0.0005
v 0.10944 -0.094698 0.0045
v 0.10944 -0.085302 -0.0005
v 0.10944 -0.085302 0.0045
v 0.10986 -0.092366 -0.0005
v 0.10986 -0.092366 0.0045
v 0.10986 -0.087634 -0.0005
v 0.10986 -0.087634 0.0045
v 0.11 -0.09 -0.0005
v 0.11 -0.09 0.0045
vn -1.0 -0.0098 0.0
vn -1.0 0.0098 0.0
vn -0.9973 -0.0739 0.0
vn -0.9973 0.0739 0.0
vn -0.9875 -0.1574 0.0
vn -0.9875 0.1574 0.0
vn -0.9805 -0.1964 0.0
vn -0.9805 0.1964 0.0
vn -0.962 -0.2732 0.0
vn -0.962 0.2732 0.0
vn -0.9504 -0.3109 0.0
vn -0.9504 0.3109 0.0
vn -0.923 -0.3849 0.0
vn -0.923 0.3849 0.0
vn -0.907 -0.4211 0.0
vn -0.907 0.4211 0.0
vn -0.8709 -0.4915 0.0
vn -0.8709 0.4915 0.0
vn -0.8508 -0.5256 0.0
vn -0.8508 0.5256 0.0
vn -0.8066 -0.5911 0.0
vn -0.8066 0.5911 0.0
vn -0.7827 -0.6225 0.0
vn -0.7827 0.6225 0.0
vn -0.7312 0.6822 0.0
vn -0.7311 -0.6822 0.0
vn -0.7037 0.7105 0.0
vn -0.7036 -0.7106 0.0
vn -0.6454 0.7639 0.0
vn -0.6453 -0.7639 0.0
vn -0.6146 -0.7888 0.0
vn -0.6145 0.7889 0.0
vn -0.5505 -0.8349 0.0
vn -0.5503 0.835 0.0
vn -0.517 -0.856 0.0
vn -0.5169 0.856 0.0
vn -0.4479 -0.8941 0.0
vn -0.4479 0.8941 0.0
vn -0.4122 -0.9111 0.0
vn -0.4122 0.9111 0.0
vn -0.339 -0.9408 0.0
vn -0.339 0.9408 0.0
vn -0.3014 -0.9535 0.0
vn -0.3014 0.9535 0.0
vn -0.2252 -0.9743 0.0
vn -0.2252 0.9743 0.0
vn -0.1866 -0.9824 0.0
vn -0.1866 0.9824 0.0
vn -0.1085 -0.9941 0.0
vn -0.1085 0.9941 0.0
vn -0.069 -0.9976 0.0
vn -0.069 0.9976 0.0
vn 0.0 0.0 -1.0
vn 0.0099 -1.0 0.0
vn 0.0099 1.0 0.0
vn 0.0493 -0.9988 0.0
vn 0.0493 0.9988 0.0
vn 0.1279 -0.9918 0.0
vn 0.1279 0.9918 0.0
vn 0.1671 -0.9859 0.0
vn 0.1671 0.9859 0.0
vn 0.2444 -0.9697 0.0
vn 0.2444 0.9697 0.0
vn 0.2826 -0.9592 0.0
vn 0.2826 0.9592 0.0
vn 0.3574 -0.9339 0.0
vn 0.3574 0.9339 0.0
vn 0.3941 -0.9191 0.0
vn 0.3941 0.9191 0.0
vn 0.4654 -0.8851 0.0
vn 0.4654 0.8851 0.0
vn 0.5 -0.866 0.0
vn 0.5 0.866 0.0
vn 0.5668 -0.8239 0.0
vn 0.5668 0.8239 0.0
vn 0.5989 -0.8008 0.0
vn 0.5989 0.8008 0.0
vn 0.6604 -0.751 0.0
vn 0.6604 0.751 0.0
vn 0.6896 -0.7242 0.0
vn 0.6896 0.7242 0.0
vn 0.7446 -0.6675 0.0
vn 0.7446 0.6675 0.0
vn 0.7703 -0.6377 0.0
vn 0.7703 0.6377 0.0
vn 0.8181 -0.5751 0.0
vn 0.8181 0.5751 0.0
vn 0.8402 -0.5422 0.0
vn 0.8402 0.5422 0.0
vn 0.8805 -0.4741 0.0
vn 0.8805 0.4741 0.0
vn 0.8986 -0.4389 0.0
vn 0.8986 0.4389 0.0
vn 0.9304 -0.3666 0.0
vn 0.9304 0.3666 0.0
vn 0.9441 -0.3295 0.0
vn 0.9441 0.3295 0.0
vn 0.9672 -0.2542 0.0
vn 0.9672 0.2542 0.0
vn 0.9764 -0.2159 0.0
vn 0.9764 0.2159 0.0
vn 0.9904 -0.1381 0.0
vn 0.9904 0.1381 0.0
vn 0.9951 -0.0986 0.0
vn 0.9951 0.0986 0.0
vn 0.9998 -0.0197 0.0
vn 0.9998 0.0197 0.0
f 5//4 1//1 2//2
f 2//2 1//1 4//3
f 1//1 3//3 4//3
f 3//3 7//5 4//3
f 4//3 7//5 8//7
f 7//5 11//9 8//7
f 8//7 11//9 12//11
f 11//9 15//13 12//11
f 12//11 15//13 16//15
f 15//13 19//17 16//15
f 16//15 19//17 20//19
f 19//17 23//21 20//19
f 20//19 23//21 24//23
f 23//21 27//26 24//23
f 24//23 27//26 28//28
f 27//26 31//30 28//28
f 28//28 31//30 32//31
f 31//30 35//33 32//31
f 32//31 35//33 36//35
f 35//33 39//37 36//35
f 36//35 39//37 40//39
f 39//37 43//41 40//39
f 40//39 43//41 44//43
f 43//41 47//45 44//43
f 44//43 47//45 48//47
f 47//45 51//49 48//47
f 48//47 51//49 52//51
f 51//49 56//54 52//51
f 52//51 56//54 57//56
f 56//54 60//58 57//56
f 57//56 60//58 61//60
f 60//58 64//62 61//60
f 61//60 64//62 65//64
f 64//62 68//66 65//64
f 65//64 68//66 69//68
f 68//66 72//70 69//68
f 69//68 72//70 73//72
f 72//70 76//74 73//72
f 73//72 76//74 77//76
f 76//74 80//78 77//76
f 77//76 80//78 81//80
f 80//78 84//82 81//80
f 81//80 84//82 85//84
f 84//82 88//86 85//84
f 85//84 88//86 89//88
f 88//86 92//90 89//88
f 89//88 92//90 93//92
f 92//90 96//94 93//92
f 93//92 96//94 97//96
f 96//94 100//98 97//96
f 97//96 100//98 101//100
f 100//98 104//102 101//100
f 101//100 104//102 105//104
f 104//102 108//106 105//104
f 105//104 108//106 109//107
f 108//106 106//105 109//107
f 109//107 106//105 107//103
f 106//105 102//101 107//103
f 107//103 102//101 103//99
f 102//101 98//97 103//99
f 103//99 98//97 99//95
f 98//97 94//93 99//95
f 99//95 94//93 95//91
f 94//93 90//89 95//91
f 95//91 90//89 91//87
f 90//89 86//85 91//87
f 91//87 86//85 87//83
f 86//85 82//81 87//83
f 87//83 82//81 83//79
f 82//81 78//77 83//79
f 83//79 78//77 79//75
f 78//77 74//73 79//75
f 79//75 74//73 75//71
f 74//73 70//69 75//71
f 75//71 70//69 71//67
f 70//69 66//65 71//67
f 71//67 66//65 67//63
f 66//65 62//61 67//63
f 67//63 62//61 63//59
f 62//61 58//57 63//59
f 63//59 58//57 59//55
f 58//57 53//52 59//55
f 59//55 53//52 54//50
f 53//52 49//48 54//50
f 54//50 49//48 50//46
f 49//48 45//44 50//46
f 50//46 45//44 46//42
f 45//44 41//40 46//42
f 46//42 41//40 42//38
f 41//40 37//36 42//38
f 42//38 37//36 38//34
f 37//36 33//32 38//34
f 38//34 33//32 34//29
f 33//32 29//27 34//29
f 34//29 29//27 30//25
f 29//27 25//24 30//25
f 30//25 25//24 26//22
f 25//24 21//20 26//22
f 26//22 21//20 22//18
f 21//20 17//16 22//18
f 22//18 17//16 18//14
f 17//16 13//12 18//14
f 18//14 13//12 14//10
f 13//12 9//8 14//10
f 14//10 9//8 10//6
f 9//8 5//4 10//6
f 10//6 5//4 6//4
f 5//4 2//2 6//4
f 7//53 3//53 55//53
f 3//53 1//53 55//53
f 55//53 1//53 5//53
f 19//53 15//53 55//53
f 15//53 11//53 55//53
f 55//53 11//53 7//53
f 31//53 27//53 55//53
f 27//53 23//53 55//53
f 55//53 23//53 19//53
f 43//53 39//53 55//53
f 39//53 35//53 55//53
f 55//53 35//53 31//53
f 56//53 51//53 55//53
f 51//53 47//53 55//53
f 55//53 47//53 43//53
f 68//53 64//53 55//53
f 64//53 60//53 55//53
f 55//53 60//53 56//53
f 80//53 76//53 55//53
f 76//53 72//53 55//53
f 55//53 72//53 68//53
f 92//53 88//53 55//53
f 88//53 84//53 55//53
f 55//53 84//53 80//53
f 104//53 100//53 55//53
f 100//53 96//53 55//53
f 55//53 96//53 92//53
f 102//53 106//53 55//53
f 106//53 108//53 55//53
f 55//53 108//53 104//53
f 90//53 94//53 55//53
f 94//53 98//53 55//53
f 55//53 98//53 102//53
f 78//53 82//53 55//53
f 82//53 86//53 55//53
f 55//53 86//53 90//53
f 66//53 70//53 55//53
f 70//53 74//53 55//53
f 55//53 74//53 78//53
f 53//53 58//53 55//53
f 58//53 62//53 55//53
f 55//53 62//53 66//53
f 41//53 45//53 55//53
f 45//53 49//53 55//53
f 55//53 49//53 53//53
f 29//53 33//53 55//53
f 33//53 37//53 55//53
f 55//53 37//53 41//53
f 17//53 21//53 55//53
f 21//53 25//53 55//53
f 55//53 25//53 29//53
f 5//53 9//53 55//53
f 9//53 13//53 55//53
f 55//53 13//53 17//53
