o base_link_0
v 0.07 -0.09 0.0045
v 0.070035 -0.091185 0.0045
v 0.070035 -0.088815 0.0045
v 0.070315 -0.093538 0.0045
v 0.070315 -0.086462 0.0045
v 0.070872 -0.095841 0.0045
v 0.070872 -0.084159 0.0045
v 0.071697 -0.098063 0.0045
v 0.071697 -0.081937 0.0045
v 0.072779 -0.100171 0.0045
v 0.072779 -0.079829 0.0045
v 0.074103 -0.102136 0.0045
v 0.074103 -0.077864 0.0045
v 0.07565 -0.103931 0.0045
v 0.07565 -0.076069 0.0045
v 0.077398 -0.10553 0.0045
v 0.077398 -0.074469 0.0045
v 0.079324 -0.106912 0.0045
v 0.079324 -0.073088 0.0045
v 0.081399 -0.108056 0.0045
v 0.081399 -0.071944 0.0045
v 0.083595 -0.108947 0.0045
v 0.083595 -0.071053 0.0045
v 0.08588 -0.109571 0.0045
v 0.08588 -0.070429 0.0045
v 0.088224 -0.109921 0.0045
v 0.088224 -0.070079 0.0045
v 0.09 -0.09 0.0045
v 0.090593 -0.109991 0.0045
v 0.090593 -0.070009 0.0045
v 0.092953 -0.109781 0.0045
v 0.092953 -0.070219 0.0045
v 0.095272 -0.109293 0.0045
v 0.095272 -0.070707 0.0045
v 0.097517 -0.108534 0.0045
v 0.097517 -0.071466 0.0045
v 0.099656 -0.107515 0.0045
v 0.099656 -0.072485 0.0045
v 0.10166 -0.10625 0.0045
v 0.10166 -0.07375 0.0045
v 0.1035 -0.104757 0.0045
v 0.1035 -0.075243 0.0045
v 0.10515 -0.103056 0.0045
v 0.10515 -0.076944 0.0045
v 0.106588 -0.101173 0.0045
v 0.106588 -0.078827 0.0045
v 0.107793 -0.099133 0.0045
v 0.107793 -0.080867 0.0045
v 0.108748 -0.096964 0.0045
v 0.108748 -0.083036 0.0045
v 0.10944 -0.094698 0.0045
v 0.10944 -0.085302 0.0045
v 0.10986 -0.092366 0.0045
v 0.10986 -0.087634 0.0045
v 0.11 -0.09 0.0045
vn 0.0 0.0 1.0
f 5//1 3//1 28//1
f 3//1 1//1 28//1
f 28//1 1//1 2//1
f 11//1 9//1 28//1
f 9//1 7//1 28//1
f 28//1 7//1 5//1
f 17//1 15//1 28//1
f 15//1 13//1 28//1
f 28//1 13//1 11//1
f 23//1 21//1 28//1
f 21//1 19//1 28//1
f 28//1 19//1 17//1
f 30//1 27//1 28//1
f 27//1 25//1 28//1
f 28//1 25//1 23//1
f 36//1 34//1 28//1
f 34//1 32//1 28//1
f 28//1 32//1 30//1
f 42//1 40//1 28//1
f 40//1 38//1 28//1
f 28//1 38//1 36//1
f 48//1 46//1 28//1
f 46//1 44//1 28//1
f 28//1 44//1 42//1
f 54//1 52//1 28//1
f 52//1 50//1 28//1
f 28//1 50//1 48//1
f 51//1 53//1 28//1
f 53//1 55//1 28//1
f 28//1 55//1 54//1
f 45//1 47//1 28//1
f 47//1 49//1 28//1
f 28//1 49//1 51//1
f 39//1 41//1 28//1
f 41//1 43//1 28//1
f 28//1 43//1 45//1
f 33//1 35//1 28//1
f 35//1 37//1 28//1
f 28//1 37//1 39//1
f 26//1 29//1 28//1
f 29//1 31//1 28//1
f 28//1 31//1 33//1
f 20//1 22//1 28//1
f 22//1 24//1 28//1
f 28//1 24//1 26//1
f 14//1 16//1 28//1
f 16//1 18//1 28//1
f 28//1 18//1 20//1
f 8//1 10//1 28//1
f 10//1 12//1 28//1
f 28//1 12//1 14//1
f 2//1 4//1 28//1
f 4//1 6//1 28//1
f 28//1 6//1 8//1
