o elbow_link_0
v -0.065 0.007 0.0
v -0.065 0.007387 -0.004428
v -0.065 0.007387 0.004428
v -0.065 0.008538 -0.008722
v -0.065 0.008538 0.008722
v -0.065 0.010416 -0.01275
v -0.065 0.010416 0.01275
v -0.065 0.012966 -0.016391
v -0.065 0.012966 0.016391
v -0.065 0.016109 -0.019534
v -0.065 0.016109 0.019534
v -0.065 0.01975 -0.022084
v -0.065 0.01975 0.022084
v -0.065 0.023779 -0.023962
v -0.065 0.023779 0.023962
v -0.065 0.028072 -0.025113
v -0.065 0.028072 0.025113
v -0.065 0.0325 -0.0255
v -0.065 0.0325 0.0
v -0.065 0.0325 0.0255
v -0.065 0.036928 -0.025113
v -0.065 0.036928 0.025113
v -0.065 0.041221 -0.023962
v -0.065 0.041221 0.023962
v -0.065 0.04525 -0.022084
v -0.065 0.04525 0.022084
v -0.065 0.048891 -0.019534
v -0.065 0.048891 0.019534
v -0.065 0.052034 -0.016391
v -0.065 0.052034 0.016391
v -0.065 0.054584 -0.01275
v -0.065 0.054584 0.01275
v -0.065 0.056462 -0.008722
v -0.065 0.056462 0.008722
v -0.065 0.057613 -0.004428
v -0.065 0.057613 0.004428
v -0.065 0.058 0.0
v -0.06 0.007 0.0
v -0.06 0.007387 -0.004428
v -0.06 0.007387 0.004428
v -0.06 0.008538 -0.008722
v -0.06 0.008538 0.008722
v -0.06 0.010416 -0.01275
v -0.06 0.010416 0.01275
v -0.06 0.0125 0.0
v -0.06 0.012884 -0.003902
v -0.06 0.012884 0.003902
v -0.06 0.012966 -0.016391
v -0.06 0.012966 0.016391
v -0.06 0.014022 -0.007654
v -0.06 0.014022 0.007654
v -0.06 0.015871 -0.011111
v -0.06 0.015871 0.011111
v -0.06 0.016109 -0.019534
v -0.06 0.016109 0.019534
v -0.06 0.018358 -0.014142
v -0.06 0.018358 0.014142
v -0.06 0.01975 -0.022084
v -0.06 0.01975 0.022084
v -0.06 0.021389 -0.016629
v -0.06 0.021389 0.016629
v -0.06 0.023779 -0.023962
v -0.06 0.023779 0.023962
v -0.06 0.024846 -0.018478
v -0.06 0.024846 0.018478
v -0.06 0.028072 -0.025113
v -0.06 0.028072 0.025113
v -0.06 0.028598 -0.019616
v -0.06 0.028598 0.019616
v -0.06 0.0325 -0.0255
v -0.06 0.0325 -0.02
v -0.06 0.0325 0.02
v -0.06 0.0325 0.0255
v -0.06 0.036402 -0.019616
v -0.06 0.036402 0.019616
v -0.06 0.036928 -0.025113
v -0.06 0.036928 0.025113
v -0.06 0.040154 -0.018478
v -0.06 0.040154 0.018478
v -0.06 0.041221 -0.023962
v -0.06 0.041221 0.023962
v -0.06 0.043611 -0.016629
v -0.06 0.043611 0.016629
v -0.06 0.04525 -0.022084
v -0.06 0.04525 0.022084
v -0.06 0.046642 -0.014142
v -0.06 0.046642 0.014142
v -0.06 0.048891 -0.019534
v -0.06 0.048891 0.019534
v -0.06 0.049129 -0.011111
v -0.06 0.049129 0.011111
v -0.06 0.050978 -0.007654
v -0.06 0.050978 0.007654
v -0.06 0.052034 -0.016391
v -0.06 0.052034 0.016391
v -0.06 0.052116 -0.003902
v -0.06 0.052116 0.003902
v -0.06 0.0525 0.0
v -0.06 0.054584 -0.01275
v -0.06 0.054584 0.01275
v -0.06 0.056462 -0.008722
v -0.06 0.056462 0.008722
v -0.06 0.057613 -0.004428
v -0.06 0.057613 0.004428
v -0.06 0.058 0.0
v -0.046 0.0125 0.0
v -0.046 0.012884 -0.003902
v -0.046 0.012884 0.003902
v -0.046 0.014022 -0.007654
v -0.046 0.014022 0.007654
v -0.046 0.015871 -0.011111
v -0.046 0.015871 0.011111
v -0.046 0.018358 -0.014142
v -0.046 0.018358 0.014142
v -0.046 0.021389 -0.016629
v -0.046 0.021389 0.016629
v -0.046 0.024846 -0.018478
v -0.046 0.024846 0.018478
v -0.046 0.028598 -0.019616
v -0.046 0.028598 0.019616
v -0.046 0.0325 -0.02
v -0.046 0.0325 0.02
v -0.046 0.036402 -0.019616
v -0.046 0.036402 0.019616
v -0.046 0.040154 -0.018478
v -0.046 0.040154 0.018478
v -0.046 0.043611 -0.016629
v -0.046 0.043611 0.016629
v -0.046 0.046642 -0.014142
v -0.046 0.046642 0.014142
v -0.046 0.049129 -0.011111
v -0.046 0.049129 0.011111
v -0.046 0.050978 -0.007654
v -0.046 0.050978 0.007654
v -0.046 0.052116 -0.003902
v -0.046 0.052116 0.003902
v -0.046 0.0525 0.0
vn -1.0 0.0 0.0
vn 0.0 -0.9996 -0.0291
vn 0.0 -0.9996 0.0291
vn 0.0 -0.9995 -0.0328
vn 0.0 -0.9995 0.0328
vn 0.0 -0.9895 -0.1448
vn 0.0 -0.9895 0.1448
vn 0.0 -0.9867 -0.1627
vn 0.0 -0.9867 0.1627
vn 0.0 -0.9793 -0.2023
vn 0.0 -0.9793 0.2023
vn 0.0 -0.9739 -0.2271
vn 0.0 -0.9739 0.2271
vn 0.0 -0.9493 -0.3145
vn 0.0 -0.9493 0.3145
vn 0.0 -0.9359 -0.3522
vn 0.0 -0.9359 0.3522
vn 0.0 -0.9293 -0.3693
vn 0.0 -0.9293 0.3693
vn 0.0 -0.9108 -0.4129
vn 0.0 -0.9108 0.4129
vn 0.0 -0.8802 -0.4745
vn 0.0 -0.8802 0.4745
vn 0.0 -0.8511 -0.5251
vn 0.0 -0.8511 0.5251
vn 0.0 -0.8492 -0.5281
vn 0.0 -0.8492 0.5281
vn 0.0 -0.8128 -0.5826
vn 0.0 -0.8128 0.5826
vn 0.0 -0.7844 -0.6202
vn 0.0 -0.7844 0.6202
vn 0.0 -0.747 -0.6649
vn 0.0 -0.747 0.6649
vn 0.0 -0.7299 -0.6835
vn 0.0 -0.7299 0.6835
vn 0.0 -0.6835 -0.7299
vn 0.0 -0.6835 0.7299
vn 0.0 -0.6649 -0.747
vn 0.0 -0.6649 0.747
vn 0.0 -0.6202 -0.7844
vn 0.0 -0.6202 0.7844
vn 0.0 -0.5826 -0.8128
vn 0.0 -0.5826 0.8128
vn 0.0 -0.5281 -0.8492
vn 0.0 -0.5281 0.8492
vn 0.0 -0.525 -0.8511
vn 0.0 -0.525 0.8511
vn 0.0 -0.4745 -0.8803
vn 0.0 -0.4745 0.8803
vn 0.0 -0.4129 -0.9108
vn 0.0 -0.4129 0.9108
vn 0.0 -0.3692 -0.9293
vn 0.0 -0.3692 0.9293
vn 0.0 -0.3522 -0.9359
vn 0.0 -0.3522 0.9359
vn 0.0 -0.3145 -0.9492
vn 0.0 -0.3145 0.9492
vn 0.0 -0.2271 -0.9739
vn 0.0 -0.2271 0.9739
vn 0.0 -0.2024 -0.9793
vn 0.0 -0.2024 0.9793
vn 0.0 -0.1627 -0.9867
vn 0.0 -0.1627 0.9867
vn 0.0 -0.1449 -0.9895
vn 0.0 -0.1449 0.9895
vn 0.0 -0.0328 -0.9995
vn 0.0 -0.0328 0.9995
vn 0.0 -0.0291 -0.9996
vn 0.0 -0.0291 0.9996
vn 0.0 0.0291 -0.9996
vn 0.0 0.0291 0.9996
vn 0.0 0.0328 -0.9995
vn 0.0 0.0328 0.9995
vn 0.0 0.1449 -0.9895
vn 0.0 0.1449 0.9895
vn 0.0 0.1627 -0.9867
vn 0.0 0.1627 0.9867
vn 0.0 0.2024 -0.9793
vn 0.0 0.2024 0.9793
vn 0.0 0.2271 -0.9739
vn 0.0 0.2271 0.9739
vn 0.0 0.3145 -0.9492
vn 0.0 0.3145 0.9492
vn 0.0 0.3522 -0.9359
vn 0.0 0.3522 0.9359
vn 0.0 0.3692 -0.9293
vn 0.0 0.3692 0.9293
vn 0.0 0.4129 -0.9108
vn 0.0 0.4129 0.9108
vn 0.0 0.4745 -0.8803
vn 0.0 0.4745 0.8803
vn 0.0 0.525 -0.8511
vn 0.0 0.525 0.8511
vn 0.0 0.5281 -0.8492
vn 0.0 0.5281 0.8492
vn 0.0 0.5826 -0.8128
vn 0.0 0.5826 0.8128
vn 0.0 0.6202 -0.7844
vn 0.0 0.6202 0.7844
vn 0.0 0.6649 -0.747
vn 0.0 0.6649 0.747
vn 0.0 0.6835 -0.7299
vn 0.0 0.6835 0.7299
vn 0.0 0.7299 -0.6835
vn 0.0 0.7299 0.6835
vn 0.0 0.747 -0.6649
vn 0.0 0.747 0.6649
vn 0.0 0.7844 -0.6202
vn 0.0 0.7844 0.6202
vn 0.0 0.8128 -0.5826
vn 0.0 0.8128 0.5826
vn 0.0 0.8492 -0.5281
vn 0.0 0.8492 0.5281
vn 0.0 0.8511 -0.5251
vn 0.0 0.8511 0.5251
vn 0.0 0.8802 -0.4745
vn 0.0 0.8802 0.4745
vn 0.0 0.9108 -0.4129
vn 0.0 0.9108 0.4129
vn 0.0 0.9293 -0.3693
vn 0.0 0.9293 0.3693
vn 0.0 0.9359 -0.3522
vn 0.0 0.9359 0.3522
vn 0.0 0.9493 -0.3145
vn 0.0 0.9493 0.3145
vn 0.0 0.9739 -0.2271
vn 0.0 0.9739 0.2271
vn 0.0 0.9793 -0.2023
vn 0.0 0.9793 0.2023
vn 0.0 0.9867 -0.1627
vn 0.0 0.9867 0.1627
vn 0.0 0.9895 -0.1448
vn 0.0 0.9895 0.1448
vn 0.0 0.9995 -0.0328
vn 0.0 0.9995 0.0328
vn 0.0 0.9996 -0.0291
vn 0.0 0.9996 0.0291
vn 1.0 0.0 0.0
f 121//72 74//76 123//80
f 74//76 78//84 123//80
f 123//80 78//84 125//88
f 78//84 82//94 125//88
f 125//88 82//94 127//96
f 82//94 86//102 127//96
f 127//96 86//102 129//104
f 86//102 90//110 129//104
f 129//104 90//110 131//112
f 90//110 92//118 131//112
f 131//112 92//118 133//122
f 92//118 96//126 133//122
f 133//122 96//126 135//130
f 96//126 98//134 135//130
f 135//130 98//134 137//135
f 98//134 97//131 137//135
f 137//135 97//131 136//127
f 97//131 93//123 136//127
f 136//127 93//123 134//119
f 93//123 91//113 134//119
f 134//119 91//113 132//111
f 91//113 87//105 132//111
f 132//111 87//105 130//103
f 87//105 83//97 130//103
f 130//103 83//97 128//95
f 83//97 79//89 128//95
f 128//95 79//89 126//85
f 79//89 75//81 126//85
f 126//85 75//81 124//77
f 75//81 72//73 124//77
f 124//77 72//73 122//67
f 72//73 69//63 122//67
f 122//67 69//63 120//59
f 69//63 65//55 120//59
f 120//59 65//55 118//51
f 65//55 61//45 118//51
f 118//51 61//45 116//43
f 61//45 57//37 116//43
f 116//43 57//37 114//35
f 57//37 53//29 114//35
f 114//35 53//29 112//27
f 53//29 51//21 112//27
f 112//27 51//21 110//17
f 51//21 47//13 110//17
f 110//17 47//13 108//9
f 47//13 45//5 108//9
f 108//9 45//5 106//4
f 45//5 46//8 106//4
f 106//4 46//8 107//12
f 46//8 50//16 107//12
f 107//12 50//16 109//20
f 50//16 52//26 109//20
f 109//20 52//26 111//28
f 52//26 56//34 111//28
f 111//28 56//34 113//36
f 56//34 60//42 113//36
f 113//36 60//42 115//44
f 60//42 64//50 115//44
f 115//44 64//50 117//54
f 64//50 68//58 117//54
f 117//54 68//58 119//62
f 68//58 71//66 119//62
f 119//62 71//66 121//72
f 71//66 74//76 121//72
f 70//70 21//74 76//78
f 21//74 23//82 76//78
f 76//78 23//82 80//86
f 23//82 25//90 80//86
f 80//86 25//90 84//92
f 25//90 27//98 84//92
f 84//92 27//98 88//100
f 27//98 29//106 88//100
f 88//100 29//106 94//108
f 29//106 31//114 94//108
f 94//108 31//114 99//116
f 31//114 33//120 99//116
f 99//116 33//120 101//124
f 33//120 35//128 101//124
f 101//124 35//128 103//132
f 35//128 37//136 103//132
f 103//132 37//136 105//137
f 37//136 36//133 105//137
f 105//137 36//133 104//129
f 36//133 34//125 104//129
f 104//129 34//125 102//121
f 34//125 32//117 102//121
f 102//121 32//117 100//115
f 32//117 30//109 100//115
f 100//115 30//109 95//107
f 30//109 28//101 95//107
f 95//107 28//101 89//99
f 28//101 26//93 89//99
f 89//99 26//93 85//91
f 26//93 24//87 85//91
f 85//91 24//87 81//83
f 24//87 22//79 81//83
f 81//83 22//79 77//75
f 22//79 20//71 77//75
f 77//75 20//71 73//69
f 20//71 17//65 73//69
f 73//69 17//65 67//61
f 17//65 15//57 67//61
f 67//61 15//57 63//53
f 15//57 13//49 63//53
f 63//53 13//49 59//47
f 13//49 11//41 59//47
f 59//47 11//41 55//39
f 11//41 9//33 55//39
f 55//39 9//33 49//31
f 9//33 7//25 49//31
f 49//31 7//25 44//23
f 7//25 5//19 44//23
f 44//23 5//19 42//15
f 5//19 3//11 42//15
f 42//15 3//11 40//7
f 3//11 1//3 40//7
f 40//7 1//3 38//2
f 1//3 2//6 38//2
f 38//2 2//6 39//10
f 2//6 4//14 39//10
f 39//10 4//14 41//18
f 4//14 6//22 41//18
f 41//18 6//22 43//24
f 6//22 8//30 43//24
f 43//24 8//30 48//32
f 8//30 10//38 48//32
f 48//32 10//38 54//40
f 10//38 12//46 54//40
f 54//40 12//46 58//48
f 12//46 14//52 58//48
f 58//48 14//52 62//56
f 14//52 16//60 62//56
f 62//56 16//60 66//64
f 16//60 18//68 66//64
f 66//64 18//68 70//70
f 18//68 21//74 70//70
f 15//1 17//1 19//1
f 17//1 20//1 19//1
f 19//1 20//1 22//1
f 9//1 11//1 19//1
f 11//1 13//1 19//1
f 19//1 13//1 15//1
f 3//1 5//1 19//1
f 5//1 7//1 19//1
f 19//1 7//1 9//1
f 4//1 2//1 19//1
f 2//1 1//1 19//1
f 19//1 1//1 3//1
f 10//1 8//1 19//1
f 8//1 6//1 19//1
f 19//1 6//1 4//1
f 16//1 14//1 19//1
f 14//1 12//1 19//1
f 19//1 12//1 10//1
f 23//1 21//1 19//1
f 21//1 18//1 19//1
f 19//1 18//1 16//1
f 29//1 27//1 19//1
f 27//1 25//1 19//1
f 19//1 25//1 23//1
f 35//1 33//1 19//1
f 33//1 31//1 19//1
f 19//1 31//1 29//1
f 34//1 36//1 19//1
f 36//1 37//1 19//1
f 19//1 37//1 35//1
f 28//1 30//1 19//1
f 30//1 32//1 19//1
f 19//1 32//1 34//1
f 22//1 24//1 19//1
f 24//1 26//1 19//1
f 19//1 26//1 28//1
f 82//138 88//138 86//138
f 88//138 94//138 86//138
f 86//138 94//138 90//138
f 94//138 99//138 90//138
f 90//138 99//138 92//138
f 99//138 101//138 92//138
f 92//138 101//138 96//138
f 101//138 103//138 96//138
f 96//138 103//138 98//138
f 103//138 105//138 98//138
f 98//138 105//138 97//138
f 105//138 104//138 97//138
f 97//138 104//138 93//138
f 104//138 102//138 93//138
f 93//138 102//138 91//138
f 52//138 48//138 56//138
f 48//138 54//138 56//138
f 56//138 54//138 60//138
f 54//138 58//138 60//138
f 60//138 58//138 64//138
f 58//138 62//138 64//138
f 64//138 62//138 68//138
f 62//138 66//138 68//138
f 68//138 66//138 71//138
f 66//138 70//138 71//138
f 71//138 70//138 74//138
f 70//138 76//138 74//138
f 74//138 76//138 78//138
f 76//138 80//138 78//138
f 78//138 80//138 82//138
f 80//138 84//138 82//138
f 82//138 84//138 88//138
f 61//138 55//138 57//138
f 55//138 49//138 57//138
f 57//138 49//138 53//138
f 49//138 44//138 53//138
f 53//138 44//138 51//138
f 44//138 42//138 51//138
f 51//138 42//138 47//138
f 42//138 40//138 47//138
f 47//138 40//138 45//138
f 40//138 38//138 45//138
f 45//138 38//138 46//138
f 38//138 39//138 46//138
f 46//138 39//138 50//138
f 39//138 41//138 50//138
f 50//138 41//138 52//138
f 41//138 43//138 52//138
f 52//138 43//138 48//138
f 102//138 100//138 91//138
f 100//138 95//138 91//138
f 91//138 95//138 87//138
f 95//138 89//138 87//138
f 87//138 89//138 83//138
f 89//138 85//138 83//138
f 83//138 85//138 79//138
f 85//138 81//138 79//138
f 79//138 81//138 75//138
f 81//138 77//138 75//138
f 75//138 77//138 72//138
f 77//138 73//138 72//138
f 72//138 73//138 69//138
f 73//138 67//138 69//138
f 69//138 67//138 65//138
f 67//138 63//138 65//138
f 65//138 63//138 61//138
f 63//138 59//138 61//138
f 61//138 59//138 55//138
