o wrist_link_0
v -0.049 -0.0175 -0.0105
v -0.049 -0.0175 0.0105
v -0.049 0.014 -0.0105
v -0.049 0.014 0.0105
v -0.049 0.018 -0.008191
v -0.049 0.018 0.008191
v -0.046 -0.017 -0.0105
v -0.046 -0.017 0.0105
v -0.046 -0.012 -0.012
v -0.046 -0.012 0.012
v -0.046 -0.0055 -0.012
v -0.046 -0.0055 -0.0105
v -0.046 -0.0055 0.0105
v -0.046 -0.0055 0.012
v -0.046 0.0065 -0.012
v -0.046 0.0065 -0.0105
v -0.046 0.0065 0.0105
v -0.046 0.0065 0.012
v -0.046 0.013 -0.012
v -0.046 0.013 -0.0105
v -0.046 0.013 0.0105
v -0.046 0.013 0.012
v -0.045711 -0.0175 -0.0105
v -0.045711 -0.0175 0.0105
v -0.0395 -0.012 -0.012
v -0.0395 -0.012 -0.0105
v -0.0395 -0.012 0.0105
v -0.0395 -0.012 0.012
v -0.0395 -0.0055 -0.012
v -0.0395 -0.0055 -0.0105
v -0.0395 -0.0055 0.0105
v -0.0395 -0.0055 0.012
v -0.0395 0.0065 -0.012
v -0.0395 0.0065 -0.0105
v -0.0395 0.0065 0.0105
v -0.0395 0.0065 0.012
v -0.0395 0.013 -0.012
v -0.0395 0.013 -0.0105
v -0.0395 0.013 0.0105
v -0.0395 0.013 0.012
v -0.0345 -0.012 -0.012
v -0.0345 -0.012 -0.0105
v -0.0345 -0.012 0.0105
v -0.0345 -0.012 0.012
v -0.0345 -0.0055 -0.012
v -0.0345 -0.0055 -0.0105
v -0.0345 -0.0055 0.0105
v -0.0345 -0.0055 0.012
v -0.0345 0.0065 -0.012
v -0.0345 0.0065 -0.0105
v -0.0345 0.0065 0.0105
v -0.0345 0.0065 0.012
v -0.0345 0.013 -0.012
v -0.0345 0.013 -0.0105
v -0.0345 0.013 0.0105
v -0.0345 0.013 0.012
v -0.028 -0.012 -0.012
v -0.028 -0.012 -0.0105
v -0.028 -0.012 0.0105
v -0.028 -0.012 0.012
v -0.028 -0.0055 -0.012
v -0.028 -0.0055 -0.0105
v -0.028 -0.0055 0.0105
v -0.028 -0.0055 0.012
v -0.028 0.0065 -0.012
v -0.028 0.0065 -0.0105
v -0.028 0.0065 0.0105
v -0.028 0.0065 0.012
v -0.028 0.013 -0.012
v -0.028 0.013 -0.0105
v -0.028 0.013 0.0105
v -0.028 0.013 0.012
v -0.025 -0.012 -0.0105
v -0.025 -0.012 0.0105
v -0.025 0.000559 -0.001016
v -0.025 0.000559 0.001016
v -0.025 0.001028 -0.002993
v -0.025 0.001028 0.002993
v -0.025 0.001939 -0.004808
v -0.025 0.001939 0.004808
v -0.025 0.003245 -0.006365
v -0.025 0.003245 0.006365
v -0.025 0.004875 -0.007578
v -0.025 0.004875 0.007578
v -0.025 0.00674 -0.008382
v -0.025 0.00674 0.008382
v -0.025 0.008741 -0.008735
v -0.025 0.008741 0.008735
v -0.025 0.010769 -0.008617
v -0.025 0.010769 0.008617
v -0.025 0.012716 -0.008034
v -0.025 0.012716 0.008034
v -0.025 0.014 -0.0105
v -0.025 0.014 0.0105
v -0.025 0.014475 -0.007019
v -0.025 0.014475 0.007019
v -0.025 0.015953 -0.005624
v -0.025 0.015953 0.005624
v -0.025 0.017069 -0.003927
v -0.025 0.017069 0.003927
v -0.025 0.017764 -0.002018
v -0.025 0.017764 0.002018
v -0.025 0.018 -0.008191
v -0.025 0.018 0.0
v -0.025 0.018 0.008191
vn -1.0 0.0 0.0
vn 0.0 -1.0 0.0
vn 0.0 0.0 -1.0
vn 0.0 0.0 1.0
vn 0.0 0.0726 -0.9974
vn 0.0 0.0726 0.9974
vn 0.0 0.1718 -0.9851
vn 0.0 0.1718 0.9851
vn 0.0 0.4999 -0.8661
vn 0.0 0.4999 0.8661
vn 0.0 1.0 0.0
vn 1.0 0.0 0.0
f 104//12 101//12 103//12
f 101//12 99//12 103//12
f 91//12 93//12 95//12
f 93//12 103//12 95//12
f 95//12 103//12 97//12
f 103//12 99//12 97//12
f 85//12 73//12 87//12
f 73//12 93//12 87//12
f 87//12 93//12 89//12
f 93//12 91//12 89//12
f 85//12 83//12 73//12
f 83//12 81//12 73//12
f 73//12 81//12 79//12
f 78//12 80//12 74//12
f 80//12 82//12 74//12
f 74//12 82//12 84//12
f 94//12 92//12 105//12
f 92//12 96//12 105//12
f 105//12 96//12 98//12
f 79//12 77//12 73//12
f 77//12 75//12 73//12
f 73//12 75//12 74//12
f 75//12 76//12 74//12
f 74//12 76//12 78//12
f 84//12 86//12 74//12
f 86//12 88//12 74//12
f 74//12 88//12 94//12
f 88//12 90//12 94//12
f 94//12 90//12 92//12
f 98//12 100//12 105//12
f 100//12 102//12 105//12
f 105//12 102//12 104//12
f 7//3 23//3 1//3
f 46//3 16//3 62//3
f 16//3 34//3 62//3
f 7//3 1//3 12//3
f 3//5 20//3 16//3
f 42//3 26//3 46//3
f 26//3 30//3 46//3
f 46//3 30//3 16//3
f 30//3 12//3 16//3
f 16//3 12//3 3//5
f 12//3 1//3 3//5
f 73//3 58//3 62//3
f 38//3 54//3 34//3
f 54//3 50//3 34//3
f 34//3 50//3 62//3
f 50//3 66//3 62//3
f 62//3 66//3 73//3
f 66//3 93//7 73//3
f 66//3 70//3 93//7
f 70//3 54//3 93//7
f 93//7 54//3 3//5
f 54//3 38//3 3//5
f 3//5 38//3 20//3
f 24//2 2//2 23//2
f 2//2 1//2 23//2
f 63//4 59//4 74//4
f 51//4 13//4 67//4
f 13//4 31//4 67//4
f 17//4 21//4 4//8
f 21//4 39//4 4//8
f 4//8 39//4 94//6
f 74//4 94//6 63//4
f 94//6 67//4 63//4
f 63//4 67//4 47//4
f 67//4 31//4 47//4
f 47//4 31//4 43//4
f 31//4 27//4 43//4
f 24//4 8//4 2//4
f 8//4 13//4 2//4
f 4//8 2//4 17//4
f 2//4 13//4 17//4
f 17//4 13//4 35//4
f 13//4 51//4 35//4
f 35//4 51//4 39//4
f 51//4 55//4 39//4
f 39//4 55//4 94//6
f 55//4 71//4 94//6
f 94//6 71//4 67//4
f 103//11 5//11 104//11
f 5//11 6//11 104//11
f 104//11 6//11 105//11
f 1//1 2//1 3//1
f 2//1 4//1 3//1
f 3//1 4//1 5//1
f 4//1 6//1 5//1
f 103//9 93//7 5//9
f 93//7 3//5 5//9
f 94//6 105//10 4//8
f 105//10 6//10 4//8
f 36//4 40//4 18//4
f 40//4 22//4 18//4
f 36//2 18//2 35//2
f 18//2 17//2 35//2
f 40//12 36//12 39//12
f 36//12 35//12 39//12
f 22//11 40//11 21//11
f 40//11 39//11 21//11
f 18//1 22//1 17//1
f 22//1 21//1 17//1
f 19//1 15//1 20//1
f 15//1 16//1 20//1
f 37//11 19//11 38//11
f 19//11 20//11 38//11
f 33//12 37//12 34//12
f 37//12 38//12 34//12
f 37//3 33//3 19//3
f 33//3 15//3 19//3
f 32//12 28//12 31//12
f 28//12 27//12 31//12
f 14//11 32//11 13//11
f 32//11 31//11 13//11
f 28//4 32//4 10//4
f 32//4 14//4 10//4
f 29//11 11//11 30//11
f 11//11 12//11 30//11
f 25//12 29//12 26//12
f 29//12 30//12 26//12
f 29//3 25//3 11//3
f 25//3 9//3 11//3
f 64//12 60//12 63//12
f 60//12 59//12 63//12
f 48//11 64//11 47//11
f 64//11 63//11 47//11
f 44//1 48//1 43//1
f 48//1 47//1 43//1
f 60//4 64//4 44//4
f 64//4 48//4 44//4
f 45//1 41//1 46//1
f 41//1 42//1 46//1
f 61//11 45//11 62//11
f 45//11 46//11 62//11
f 57//12 61//12 58//12
f 61//12 62//12 58//12
f 61//3 57//3 45//3
f 57//3 41//3 45//3
f 68//4 72//4 52//4
f 72//4 56//4 52//4
f 68//2 52//2 67//2
f 52//2 51//2 67//2
f 72//12 68//12 71//12
f 68//12 67//12 71//12
f 56//11 72//11 55//11
f 72//11 71//11 55//11
f 52//1 56//1 51//1
f 56//1 55//1 51//1
f 53//1 49//1 54//1
f 49//1 50//1 54//1
f 69//11 53//11 70//11
f 53//11 54//11 70//11
f 65//12 69//12 66//12
f 69//12 70//12 66//12
f 69//3 65//3 53//3
f 65//3 49//3 53//3
