o Metal_plate_0
v -1.49503 -0.0405676 0.0543954
v -1.49503 -0.0243666 0.0543954
v -1.49503 -0.00806636 0.0543954
v -1.49503 0.00813448 0.0543954
v -1.49503 0.0243316 0.0543954
v -1.49503 0.0405325 0.0543954
v -1.42353 -0.0405676 -0.460207
v -1.42353 -0.0243666 -0.460207
v -1.42353 -0.00806636 -0.460207
v -1.42353 0.00813448 -0.460207
v -1.42353 0.0243316 -0.460207
v -1.42353 0.0405325 -0.460207
v -1.38633 -0.0405676 0.562495
v -1.38633 -0.0243666 0.562495
v -1.38633 -0.00806636 0.562495
v -1.38633 0.00813448 0.562495
v -1.38633 0.0243316 0.562495
v -1.38633 0.0405325 0.562495
v -1.18023 -0.0405676 -0.919305
v -1.18023 -0.0243666 -0.919305
v -1.18023 -0.00806636 -0.919305
v -1.18023 0.00813448 -0.919305
v -1.18023 0.0243316 -0.919305
v -1.18023 0.0405325 -0.919305
v -1.11033 -0.0405676 1.0027
v -1.11033 -0.0243666 1.0027
v -1.11033 -0.00806636 1.0027
v -1.11033 0.00813448 1.0027
v -1.11033 0.0243316 1.0027
v -1.11033 0.0405325 1.0027
v -0.794628 -0.0405676 -1.26751
v -0.794628 -0.0243666 -1.26751
v -0.794628 -0.00806636 -1.26751
v -0.794628 0.00813448 -1.26751
v -0.794628 0.0243316 -1.26751
v -0.794628 0.0405325 -1.26751
v -0.700428 -0.0405676 1.32199
v -0.700428 -0.0243666 1.32199
v -0.700428 -0.00806636 1.32199
v -0.700428 0.00813448 1.32199
v -0.700428 0.0243316 1.32199
v -0.700428 0.0405325 1.32199
v -0.313228 -0.0405676 -1.46291
v -0.313228 -0.0243666 -1.46291
v -0.313228 -0.00806636 -1.46291
v -0.313228 0.00813448 -1.46291
v -0.313228 0.0243316 -1.46291
v -0.313228 0.0405325 -1.46291
v -0.206027 -0.0405676 1.4818
v -0.206027 -0.0243666 1.4818
v -0.206027 -0.00806636 1.4818
v -0.206027 0.00813448 1.4818
v -0.206027 0.0243316 1.4818
v -0.206027 0.0405325 1.4818
v -2.62707e-05 -0.0405676 -5.48363e-06
v -2.62707e-05 0.0405325 -5.48363e-06
v 0.205975 -0.0405676 -1.48181
v 0.205975 -0.0243666 -1.48181
v 0.205975 -0.00806636 -1.48181
v 0.205975 0.00813448 -1.48181
v 0.205975 0.0243316 -1.48181
v 0.205975 0.0405325 -1.48181
v 0.313275 -0.0405676 1.46289
v 0.313275 -0.0243666 1.46289
v 0.313275 -0.00806636 1.46289
v 0.313275 0.00813448 1.46289
v 0.313275 0.0243316 1.46289
v 0.313275 0.0405325 1.46289
v 0.700375 -0.0405676 -1.32201
v 0.700375 -0.0243666 -1.32201
v 0.700375 -0.00806636 -1.32201
v 0.700375 0.00813448 -1.32201
v 0.700375 0.0243316 -1.32201
v 0.700375 0.0405325 -1.32201
v 0.794674 -0.0405676 1.2676
v 0.794674 -0.0243666 1.2676
v 0.794674 -0.00806636 1.2676
v 0.794674 0.00813448 1.2676
v 0.794674 0.0243316 1.2676
v 0.794674 0.0405325 1.2676
v 1.11027 -0.0405676 -1.00271
v 1.11027 -0.0243666 -1.00271
v 1.11027 -0.00806636 -1.00271
v 1.11027 0.00813448 -1.00271
v 1.11027 0.0243316 -1.00271
v 1.11027 0.0405325 -1.00271
v 1.18027 -0.0405676 0.919295
v 1.18027 -0.0243666 0.919295
v 1.18027 -0.00806636 0.919295
v 1.18027 0.00813448 0.919295
v 1.18027 0.0243316 0.919295
v 1.18027 0.0405325 0.919295
v 1.38627 -0.0405676 -0.562505
v 1.38627 -0.0243666 -0.562505
v 1.38627 -0.00806636 -0.562505
v 1.38627 0.00813448 -0.562505
v 1.38627 0.0243316 -0.562505
v 1.38627 0.0405325 -0.562505
v 1.42357 -0.0405676 0.460196
v 1.42357 -0.0243666 0.460196
v 1.42357 -0.00806636 0.460196
v 1.42357 0.00813448 0.460196
v 1.42357 0.0243316 0.460196
v 1.42357 0.0405325 0.460196
v 1.49507 -0.0405676 -0.0544064
v 1.49507 -0.0243666 -0.0544064
v 1.49507 -0.00806636 -0.0544064
v 1.49507 0.00813448 -0.0544064
v 1.49507 0.0243316 -0.0544064
v 1.49507 0.0405325 -0.0544064
vt -0.0278 0.0
vt -0.0278 0.2
vt -0.0278 0.4
vt -0.0278 0.6
vt -0.0278 0.8
vt -0.0278 1.0
vt -0.0197 1.0
vt 0.0278 0.0
vt 0.0278 0.2
vt 0.0278 0.4
vt 0.0278 0.6
vt 0.0278 0.8
vt 0.0278 1.0
vt 0.0833 0.0
vt 0.0833 0.2
vt 0.0833 0.4
vt 0.0833 0.6
vt 0.0833 0.8
vt 0.0833 1.0
vt 0.1389 0.0
vt 0.1389 0.2
vt 0.1389 0.4
vt 0.1389 0.6
vt 0.1389 0.8
vt 0.1389 1.0
vt 0.1944 0.0
vt 0.1944 0.2
vt 0.1944 0.4
vt 0.1944 0.6
vt 0.1944 0.8
vt 0.1944 1.0
vt 0.25 0.0
vt 0.25 0.2
vt 0.25 0.4
vt 0.25 0.6
vt 0.25 0.8
vt 0.25 1.0
vt 0.3056 0.0
vt 0.3056 0.2
vt 0.3056 0.4
vt 0.3056 0.6
vt 0.3056 0.8
vt 0.3056 1.0
vt 0.3611 0.0
vt 0.3611 0.2
vt 0.3611 0.4
vt 0.3611 0.6
vt 0.3611 0.8
vt 0.3611 1.0
vt 0.4167 0.0
vt 0.4167 0.2
vt 0.4167 0.4
vt 0.4167 0.6
vt 0.4167 0.8
vt 0.4167 1.0
vt 0.4722 0.0
vt 0.4722 0.2
vt 0.4722 0.4
vt 0.4722 0.6
vt 0.4722 0.8
vt 0.4722 1.0
vt 0.5 0.0
vt 0.5 1.0
vt 0.5278 0.0
vt 0.5278 0.2
vt 0.5278 0.4
vt 0.5278 0.6
vt 0.5278 0.8
vt 0.5278 1.0
vt 0.5833 0.0
vt 0.5833 0.2
vt 0.5833 0.4
vt 0.5833 0.6
vt 0.5833 0.8
vt 0.5833 1.0
vt 0.6389 0.0
vt 0.6389 0.2
vt 0.6389 0.4
vt 0.6389 0.6
vt 0.6389 0.8
vt 0.6389 1.0
vt 0.6944 0.0
vt 0.6944 0.2
vt 0.6944 0.4
vt 0.6944 0.6
vt 0.6944 0.8
vt 0.6944 1.0
vt 0.75 0.0
vt 0.75 0.2
vt 0.75 0.4
vt 0.75 0.6
vt 0.75 0.8
vt 0.75 1.0
vt 0.8056 0.0
vt 0.8056 0.2
vt 0.8056 0.4
vt 0.8056 0.6
vt 0.8056 0.8
vt 0.8056 1.0
vt 0.8611 0.0
vt 0.8611 0.2
vt 0.8611 0.4
vt 0.8611 0.6
vt 0.8611 0.8
vt 0.8611 1.0
vt 0.9167 0.0
vt 0.9167 0.2
vt 0.9167 0.4
vt 0.9167 0.6
vt 0.9167 0.8
vt 0.9167 1.0
vt 0.9722 0.0
vt 0.9722 0.2
vt 0.9722 0.4
vt 0.9722 0.6
vt 0.9722 0.8
vt 0.9722 1.0
vn -0.99934 0.0 0.0363174
vn -0.951516 0.0 -0.307599
vn -0.926658 0.0 0.375906
vn -0.788875 0.0 -0.614553
vn -0.742158 0.0 0.670225
vn -0.741829 -0.670048 0.0269484
vn -0.741829 0.670048 0.0269484
vn -0.70636 -0.670012 -0.228342
vn -0.70636 0.670012 -0.228342
vn -0.687898 -0.670014 0.279066
vn -0.687898 0.670014 0.279066
vn -0.585598 -0.670044 -0.456198
vn -0.585598 0.670044 -0.456198
vn -0.550927 -0.670042 0.497518
vn -0.550927 0.670042 0.497518
vn -0.531214 0.0 -0.847238
vn -0.46816 0.0 0.883644
vn -0.394314 -0.670059 -0.628918
vn -0.394314 0.670059 -0.628918
vn -0.347521 -0.670017 0.655978
vn -0.347521 0.670017 0.655978
vn -0.209421 0.0 -0.977826
vn -0.155463 -0.670011 -0.725891
vn -0.155463 0.670011 -0.725891
vn -0.137673 0.0 0.990478
vn -0.102177 -0.67004 0.735259
vn -0.102177 0.67004 0.735259
vn 0.0 -1.0 0.0
vn 0.0 1.0 0.0
vn 0.102177 -0.67004 -0.735259
vn 0.102177 0.67004 -0.735259
vn 0.137673 0.0 -0.990478
vn 0.155374 -0.670052 0.725872
vn 0.155374 0.670052 0.725872
vn 0.209327 0.0 0.977846
vn 0.347521 -0.670017 -0.655978
vn 0.347521 0.670017 -0.655978
vn 0.39434 -0.670021 0.628942
vn 0.39434 0.670021 0.628942
vn 0.46816 0.0 -0.883644
vn 0.531192 0.0 0.847252
vn 0.550905 -0.670053 -0.497527
vn 0.550905 0.670053 -0.497527
vn 0.585634 -0.670051 0.456141
vn 0.585634 0.670051 0.456141
vn 0.68787 -0.670017 -0.279128
vn 0.68787 0.670017 -0.279128
vn 0.70636 -0.670012 0.228342
vn 0.70636 0.670012 0.228342
vn 0.741827 -0.670046 -0.0270399
vn 0.741827 0.670046 -0.0270399
vn 0.742158 0.0 -0.670225
vn 0.788917 0.0 0.6145
vn 0.926621 0.0 -0.375996
vn 0.951516 0.0 0.307599
vn 0.999337 0.0 -0.0364088
f 104/76/49 98/88/47 56/62/29
f 80/64/39 104/76/49 56/62/29
f 54/50/27 80/64/39 56/62/29
f 30/38/15 54/50/27 56/62/29
f 6/26/7 30/38/15 56/62/29
f 24/14/13 6/26/7 56/62/29
f 48/1/24 24/14/13 56/62/29
f 74/100/37 48/112/24 56/62/29
f 98/88/47 74/100/37 56/62/29
f 110/82/51 97/89/54 98/88/47
f 104/76/49 109/83/56 110/82/51
f 92/70/45 103/77/55 104/76/49
f 80/64/39 91/71/53 92/70/45
f 68/56/34 79/65/41 80/64/39
f 54/50/27 67/57/35 68/56/34
f 42/44/21 53/51/25 54/50/27
f 30/38/15 41/45/17 42/44/21
f 18/32/11 29/39/5 30/38/15
f 6/26/7 17/33/3 18/32/11
f 12/20/9 5/27/1 6/26/7
f 24/14/13 11/21/2 12/20/9
f 36/8/19 23/15/4 24/14/13
f 48/1/24 35/9/16 36/8/19
f 62/106/31 47/113/22 48/112/24
f 74/100/37 61/107/32 62/106/31
f 86/94/43 73/101/40 74/100/37
f 98/88/47 85/95/52 86/94/43
f 109/83/56 96/90/54 97/89/54
f 103/77/55 108/84/56 109/83/56
f 91/71/53 102/78/55 103/77/55
f 79/65/41 90/72/53 91/71/53
f 67/57/35 78/66/41 79/65/41
f 53/51/25 66/58/35 67/57/35
f 41/45/17 52/52/25 53/51/25
f 29/39/5 40/46/17 41/45/17
f 17/33/3 28/40/5 29/39/5
f 5/27/1 16/34/3 17/33/3
f 11/21/2 4/28/1 5/27/1
f 23/15/4 10/22/2 11/21/2
f 35/9/16 22/16/4 23/15/4
f 47/2/22 34/10/16 35/9/16
f 61/107/32 46/114/22 47/113/22
f 73/101/40 60/108/32 61/107/32
f 85/95/52 72/102/40 73/101/40
f 97/89/54 84/96/52 85/95/52
f 108/84/56 95/91/54 96/90/54
f 102/78/55 107/85/56 108/84/56
f 90/72/53 101/79/55 102/78/55
f 78/66/41 89/73/53 90/72/53
f 66/58/35 77/67/41 78/66/41
f 52/52/25 65/59/35 66/58/35
f 40/46/17 51/53/25 52/52/25
f 28/40/5 39/47/17 40/46/17
f 16/34/3 27/41/5 28/40/5
f 4/28/1 15/35/3 16/34/3
f 10/22/2 3/29/1 4/28/1
f 22/16/4 9/23/2 10/22/2
f 34/10/16 21/17/4 22/16/4
f 46/3/22 33/11/16 34/10/16
f 60/108/32 45/115/22 46/114/22
f 72/102/40 59/109/32 60/108/32
f 84/96/52 71/103/40 72/102/40
f 96/90/54 83/97/52 84/96/52
f 107/85/56 94/92/54 95/91/54
f 101/79/55 106/86/56 107/85/56
f 89/73/53 100/80/55 101/79/55
f 77/67/41 88/74/53 89/73/53
f 65/59/35 76/68/41 77/67/41
f 51/53/25 64/60/35 65/59/35
f 39/47/17 50/54/25 51/53/25
f 27/41/5 38/48/17 39/47/17
f 15/35/3 26/42/5 27/41/5
f 3/29/1 14/36/3 15/35/3
f 9/23/2 2/30/1 3/29/1
f 21/17/4 8/24/2 9/23/2
f 33/11/16 20/18/4 21/17/4
f 45/4/22 32/12/16 33/11/16
f 59/109/32 44/116/22 45/115/22
f 71/103/40 58/110/32 59/109/32
f 83/97/52 70/104/40 71/103/40
f 95/91/54 82/98/52 83/97/52
f 106/86/56 93/93/46 94/92/54
f 100/80/55 105/87/50 106/86/56
f 88/74/53 99/81/48 100/80/55
f 76/68/41 87/75/44 88/74/53
f 64/60/35 75/69/38 76/68/41
f 50/54/25 63/61/33 64/60/35
f 38/48/17 49/55/26 50/54/25
f 26/42/5 37/49/20 38/48/17
f 14/36/3 25/43/14 26/42/5
f 2/30/1 13/37/10 14/36/3
f 8/24/2 1/31/6 2/30/1
f 20/18/4 7/25/8 8/24/2
f 32/12/16 19/19/12 20/18/4
f 44/5/22 31/13/18 32/12/16
f 58/110/32 43/117/23 44/116/22
f 70/104/40 57/111/30 58/110/32
f 82/98/52 69/105/36 70/104/40
f 94/92/54 81/99/42 82/98/52
f 81/99/42 105/87/50 55/63/28
f 105/87/50 87/75/44 55/63/28
f 87/75/44 63/61/33 55/63/28
f 63/61/33 37/49/20 55/63/28
f 37/49/20 13/37/10 55/63/28
f 13/37/10 7/25/8 55/63/28
f 7/25/8 31/13/18 55/63/28
f 31/13/18 57/7/30 55/63/28
f 57/111/30 81/99/42 55/63/28
f 104/76/49 110/82/51 98/88/47
f 80/64/39 92/70/45 104/76/49
f 54/50/27 68/56/34 80/64/39
f 30/38/15 42/44/21 54/50/27
f 6/26/7 18/32/11 30/38/15
f 24/14/13 12/20/9 6/26/7
f 48/1/24 36/8/19 24/14/13
f 74/100/37 62/106/31 48/112/24
f 98/88/47 86/94/43 74/100/37
f 110/82/51 109/83/56 97/89/54
f 104/76/49 103/77/55 109/83/56
f 92/70/45 91/71/53 103/77/55
f 80/64/39 79/65/41 91/71/53
f 68/56/34 67/57/35 79/65/41
f 54/50/27 53/51/25 67/57/35
f 42/44/21 41/45/17 53/51/25
f 30/38/15 29/39/5 41/45/17
f 18/32/11 17/33/3 29/39/5
f 6/26/7 5/27/1 17/33/3
f 12/20/9 11/21/2 5/27/1
f 24/14/13 23/15/4 11/21/2
f 36/8/19 35/9/16 23/15/4
f 48/1/24 47/2/22 35/9/16
f 62/106/31 61/107/32 47/113/22
f 74/100/37 73/101/40 61/107/32
f 86/94/43 85/95/52 73/101/40
f 98/88/47 97/89/54 85/95/52
f 109/83/56 108/84/56 96/90/54
f 103/77/55 102/78/55 108/84/56
f 91/71/53 90/72/53 102/78/55
f 79/65/41 78/66/41 90/72/53
f 67/57/35 66/58/35 78/66/41
f 53/51/25 52/52/25 66/58/35
f 41/45/17 40/46/17 52/52/25
f 29/39/5 28/40/5 40/46/17
f 17/33/3 16/34/3 28/40/5
f 5/27/1 4/28/1 16/34/3
f 11/21/2 10/22/2 4/28/1
f 23/15/4 22/16/4 10/22/2
f 35/9/16 34/10/16 22/16/4
f 47/2/22 46/3/22 34/10/16
f 61/107/32 60/108/32 46/114/22
f 73/101/40 72/102/40 60/108/32
f 85/95/52 84/96/52 72/102/40
f 97/89/54 96/90/54 84/96/52
f 108/84/56 107/85/56 95/91/54
f 102/78/55 101/79/55 107/85/56
f 90/72/53 89/73/53 101/79/55
f 78/66/41 77/67/41 89/73/53
f 66/58/35 65/59/35 77/67/41
f 52/52/25 51/53/25 65/59/35
f 40/46/17 39/47/17 51/53/25
f 28/40/5 27/41/5 39/47/17
f 16/34/3 15/35/3 27/41/5
f 4/28/1 3/29/1 15/35/3
f 10/22/2 9/23/2 3/29/1
f 22/16/4 21/17/4 9/23/2
f 34/10/16 33/11/16 21/17/4
f 46/3/22 45/4/22 33/11/16
f 60/108/32 59/109/32 45/115/22
f 72/102/40 71/103/40 59/109/32
f 84/96/52 83/97/52 71/103/40
f 96/90/54 95/91/54 83/97/52
f 107/85/56 106/86/56 94/92/54
f 101/79/55 100/80/55 106/86/56
f 89/73/53 88/74/53 100/80/55
f 77/67/41 76/68/41 88/74/53
f 65/59/35 64/60/35 76/68/41
f 51/53/25 50/54/25 64/60/35
f 39/47/17 38/48/17 50/54/25
f 27/41/5 26/42/5 38/48/17
f 15/35/3 14/36/3 26/42/5
f 3/29/1 2/30/1 14/36/3
f 9/23/2 8/24/2 2/30/1
f 21/17/4 20/18/4 8/24/2
f 33/11/16 32/12/16 20/18/4
f 45/4/22 44/5/22 32/12/16
f 59/109/32 58/110/32 44/116/22
f 71/103/40 70/104/40 58/110/32
f 83/97/52 82/98/52 70/104/40
f 95/91/54 94/92/54 82/98/52
f 106/86/56 105/87/50 93/93/46
f 100/80/55 99/81/48 105/87/50
f 88/74/53 87/75/44 99/81/48
f 76/68/41 75/69/38 87/75/44
f 64/60/35 63/61/33 75/69/38
f 50/54/25 49/55/26 63/61/33
f 38/48/17 37/49/20 49/55/26
f 26/42/5 25/43/14 37/49/20
f 14/36/3 13/37/10 25/43/14
f 2/30/1 1/31/6 13/37/10
f 8/24/2 7/25/8 1/31/6
f 20/18/4 19/19/12 7/25/8
f 32/12/16 31/13/18 19/19/12
f 44/5/22 43/6/23 31/13/18
f 58/110/32 57/111/30 43/117/23
f 70/104/40 69/105/36 57/111/30
f 82/98/52 81/99/42 69/105/36
f 94/92/54 93/93/46 81/99/42
f 81/99/42 93/93/46 105/87/50
f 105/87/50 99/81/48 87/75/44
f 87/75/44 75/69/38 63/61/33
f 63/61/33 49/55/26 37/49/20
f 37/49/20 25/43/14 13/37/10
f 13/37/10 1/31/6 7/25/8
f 7/25/8 19/19/12 31/13/18
f 31/13/18 43/6/23 57/7/30
f 57/111/30 69/105/36 81/99/42
