o cm_card
v 0.020500 -0.035500 0.058200
v 0.020500 -0.035500 0.056500
v 0.020500 0.035500 0.056500
v 0.019914 -0.036914 0.056500
v 0.020500 0.035500 0.058200
v 0.019914 0.036914 0.056500
v 0.019914 -0.036914 0.058200
v 0.019914 0.036914 0.058200
v 0.018500 0.037500 0.058200
v -0.082500 0.037500 0.056500
v -0.082500 0.037500 0.058200
v -0.083914 0.036914 0.056500
v 0.015988 0.036000 0.058200
v 0.013000 0.033000 0.058200
v -0.080012 0.036000 0.058200
v -0.083000 0.033000 0.058200
v -0.083914 0.036914 0.058200
v 0.018500 0.037500 0.056500
v -0.080012 0.036000 0.056490
v -0.083000 0.033000 0.056500
v 0.015988 0.036000 0.056490
v 0.019000 0.033000 0.056500
v -0.077000 0.033000 0.056500
v 0.019000 0.033000 0.058200
v -0.084500 0.035500 0.058200
v -0.084500 -0.035500 0.056500
v -0.084500 -0.035500 0.058200
v -0.083914 -0.036914 0.056500
v -0.083914 -0.036914 0.058200
v -0.084500 0.035500 0.056500
v -0.082500 -0.037500 0.058200
v 0.018500 -0.037500 0.056500
v 0.018500 -0.037500 0.058200
v -0.079988 -0.036000 0.058200
v 0.019000 -0.033000 0.058200
v 0.016012 -0.036000 0.058200
v -0.077000 -0.033000 0.058200
v -0.082500 -0.037500 0.056500
v 0.016012 -0.036000 0.056490
v 0.019000 -0.033000 0.056500
v 0.013000 -0.033000 0.056500
v -0.079988 -0.036000 0.056490
v -0.083000 -0.033000 0.056500
v -0.083000 -0.033000 0.058200
v 0.015988 -0.030000 0.058200
v 0.016012 0.030000 0.058200
v 0.014000 0.033000 0.058210
v 0.013000 -0.033000 0.058200
v 0.018000 0.033000 0.058210
v 0.016008 0.031000 0.058210
v 0.015992 0.035000 0.058210
v -0.077000 0.033000 0.058200
v 0.014000 -0.033000 0.058210
v 0.018000 -0.033000 0.058210
v 0.016008 -0.035000 0.058210
v 0.015992 -0.031000 0.058210
v -0.080012 -0.030000 0.058200
v -0.079988 0.030000 0.058200
v -0.082000 0.033000 0.058210
v -0.078000 0.033000 0.058210
v -0.079992 0.031000 0.058210
v -0.080008 0.035000 0.058210
v -0.082000 -0.033000 0.058210
v -0.078000 -0.033000 0.058210
v -0.079992 -0.035000 0.058210
v -0.080008 -0.031000 0.058210
v 0.015988 -0.030000 0.056490
v 0.016012 0.030000 0.056490
v 0.018000 0.033000 0.056490
v 0.016008 0.035000 0.056490
v 0.013000 0.033000 0.056500
v 0.015992 0.031000 0.056490
v -0.077000 -0.033000 0.056500
v 0.014000 0.033000 0.056490
v 0.018000 -0.033000 0.056490
v 0.016008 -0.031000 0.056490
v 0.015992 -0.035000 0.056490
v 0.014000 -0.033000 0.056490
v -0.080012 -0.030000 0.056490
v -0.079988 0.030000 0.056490
v -0.078000 0.033000 0.056490
v -0.079992 0.035000 0.056490
v -0.080008 0.031000 0.056490
v -0.082000 0.033000 0.056490
v -0.078000 -0.033000 0.056490
v -0.079992 -0.031000 0.056490
v -0.080008 -0.035000 0.056490
v -0.082000 -0.033000 0.056490
vt 0.989039 0.485119
vt 1.000000 0.485119
vt 1.000000 0.942888
vt 0.479781 0.003778
vt 0.012895 0.000000
vt 0.470664 0.000000
vt 0.989039 0.942888
vt 1.000000 0.952005
vt 0.003778 0.003778
vt 0.989039 0.476003
vt 1.000000 0.476003
vt 0.487337 0.673204
vt 0.954223 0.676983
vt 0.496454 0.676983
vt 0.963340 0.673204
vt 0.989039 0.952005
vt 0.967118 0.009117
vt 0.978079 0.660309
vt 0.967118 0.660309
vt 0.978079 0.669426
vt 0.493230 0.647892
vt 0.483559 0.664088
vt 0.483559 0.012895
vt 0.512573 0.628627
vt 0.493230 0.028936
vt 0.512573 0.009671
vt 0.487337 0.003778
vt 0.967118 0.669426
vt 0.978079 0.009117
vt 0.009671 0.648046
vt 0.000000 0.664088
vt 0.000000 0.012895
vt 0.029014 0.667311
vt 0.003778 0.673204
vt 0.967118 0.000000
vt 0.978079 0.000000
vt 0.009671 0.029091
vt 0.029014 0.009671
vt 0.029014 0.628627
vt 0.512573 0.667311
vt 0.989039 0.009117
vt 1.000000 0.466886
vt 0.989039 0.466886
vt 1.000000 0.476003
vt 0.963340 0.003778
vt 0.496454 0.000000
vt 0.954223 0.000000
vt 0.989039 0.476003
vt 1.000000 0.009117
vt 0.470664 0.676983
vt 0.012895 0.676983
vt 0.479781 0.673204
vt 0.989039 0.000000
vt 1.000000 0.000000
vt 0.978079 0.009117
vt 0.989039 0.660309
vt 0.978079 0.660309
vt 0.989039 0.669426
vt 0.957447 0.029091
vt 0.967118 0.012895
vt 0.967118 0.664088
vt 0.938104 0.667311
vt 0.957447 0.648046
vt 0.938104 0.048356
vt 0.978079 0.669426
vt 0.989039 0.009117
vt 0.473888 0.028936
vt 0.483559 0.012895
vt 0.483559 0.664088
vt 0.454545 0.009671
vt 0.978079 0.000000
vt 0.989039 0.000000
vt 0.454545 0.048356
vt 0.473888 0.647892
vt 0.454545 0.667311
vt 0.938104 0.009671
vt 0.918762 0.647892
vt 0.531915 0.648046
vt 0.512573 0.635074
vt 0.938104 0.628627
vt 0.512573 0.660864
vt 0.525467 0.648021
vt 0.499678 0.647917
vt 0.512573 0.048356
vt 0.938104 0.635074
vt 0.938104 0.660864
vt 0.950999 0.648021
vt 0.925210 0.647917
vt 0.918762 0.028936
vt 0.531915 0.029091
vt 0.512573 0.016119
vt 0.512573 0.041908
vt 0.525467 0.029065
vt 0.499678 0.028962
vt 0.938104 0.016119
vt 0.938104 0.041908
vt 0.950999 0.029065
vt 0.925210 0.028962
vt 0.435203 0.029091
vt 0.048356 0.028936
vt 0.029014 0.016119
vt 0.016119 0.028962
vt 0.029014 0.048356
vt 0.041908 0.029065
vt 0.454545 0.628627
vt 0.029014 0.041908
vt 0.454545 0.016119
vt 0.441651 0.028962
vt 0.467440 0.029065
vt 0.454545 0.041908
vt 0.435203 0.648046
vt 0.048356 0.647892
vt 0.029014 0.635074
vt 0.016119 0.647917
vt 0.041908 0.648021
vt 0.029014 0.660864
vt 0.454545 0.635074
vt 0.441651 0.647917
vt 0.467440 0.648021
vt 0.454545 0.660864
vt 0.030601 0.694029
vt 0.022179 0.686815
vt 0.030601 0.676983
vt 0.314323 0.689878
vt 0.303234 0.689878
vt 0.303234 0.676983
vt 0.011090 0.676983
vt 0.022179 0.689929
vt 0.011090 0.689929
vt 0.236696 0.693990
vt 0.228288 0.686759
vt 0.236696 0.676983
vt 0.292144 0.689878
vt 0.292144 0.676983
vt 0.303234 0.689878
vt 0.161010 0.694029
vt 0.152587 0.686815
vt 0.161010 0.676983
vt 0.097139 0.676983
vt 0.108229 0.689929
vt 0.097139 0.689929
vt 0.203064 0.676983
vt 0.203064 0.693990
vt 0.194656 0.686759
vt 0.011090 0.689929
vt 0.000000 0.689929
vt 0.000000 0.676983
vt 0.228288 0.693990
vt 0.219880 0.686759
vt 0.228288 0.676983
vt 0.169432 0.676983
vt 0.169432 0.694029
vt 0.161010 0.686815
vt 0.281054 0.689878
vt 0.269965 0.689878
vt 0.269965 0.676983
vt 0.186248 0.686759
vt 0.194656 0.676983
vt 0.194656 0.693990
vt 0.141498 0.689929
vt 0.130408 0.689929
vt 0.130408 0.676983
vt 0.119318 0.676983
vt 0.119318 0.689929
vt 0.247785 0.676983
vt 0.258875 0.689878
vt 0.247785 0.689878
vt 0.086050 0.689929
vt 0.074960 0.689929
vt 0.074960 0.676983
vt 0.247785 0.689878
vt 0.236696 0.689878
vt 0.236696 0.676983
vt 0.063870 0.676983
vt 0.063870 0.689929
vt 0.219880 0.693990
vt 0.211472 0.686759
vt 0.219880 0.676983
vt 0.281054 0.689878
vt 0.281054 0.676983
vt 0.292144 0.689878
vt 0.097139 0.689929
vt 0.086050 0.689929
vt 0.086050 0.676983
vt 0.041691 0.676983
vt 0.052781 0.689929
vt 0.041691 0.689929
vt 0.186248 0.676983
vt 0.186248 0.693990
vt 0.177840 0.686759
vt 0.041691 0.689929
vt 0.030601 0.689929
vt 0.030601 0.676983
vt 0.211472 0.693990
vt 0.203064 0.686759
vt 0.211472 0.676983
vt 0.141498 0.676983
vt 0.152587 0.689929
vt 0.141498 0.689929
vt 0.269965 0.689878
vt 0.258875 0.689878
vt 0.258875 0.676983
vt 0.169432 0.686759
vt 0.177840 0.676983
vt 0.177840 0.693990
vt 0.063870 0.689929
vt 0.052781 0.689929
vt 0.052781 0.676983
vt 0.108229 0.676983
vt 0.119318 0.689929
vt 0.108229 0.689929
vt 0.314323 0.676983
vt 0.325413 0.689878
vt 0.314323 0.689878
vn 1.0000 0.0000 0.0000
vn 0.0000 0.0000 -1.0000
vn 0.9238 0.3829 0.0000
vn 0.9238 -0.3829 -0.0000
vn 0.0000 -0.0000 1.0000
vn 0.0000 1.0000 0.0000
vn -0.3829 0.9238 0.0000
vn 0.0000 0.0067 -1.0000
vn -0.0038 0.0004 -1.0000
vn 0.3829 0.9238 0.0000
vn 0.0037 0.0004 -1.0000
vn -0.0003 0.0072 -1.0000
vn 0.0001 -0.0032 -1.0000
vn -1.0000 0.0000 0.0000
vn -0.9238 -0.3829 -0.0000
vn -0.9238 -0.3828 -0.0000
vn -0.9238 0.3829 0.0000
vn -0.9238 0.3828 0.0000
vn 0.0000 -1.0000 -0.0000
vn 0.3829 -0.9238 0.0000
vn 0.0000 -0.0067 -1.0000
vn 0.0038 -0.0004 -1.0000
vn -0.3829 -0.9238 -0.0000
vn -0.0002 0.0032 -1.0000
vn 0.0003 -0.0072 -1.0000
vn -0.0037 -0.0004 -1.0000
vn -0.0100 -0.0100 0.9999
vn -0.0100 0.0100 0.9999
vn 0.0100 -0.0100 0.9999
vn 0.0100 0.0100 0.9999
vn 0.0033 -0.0000 -1.0000
vn 0.0100 -0.0066 -0.9999
vn 0.0034 0.0001 -1.0000
vn 0.0100 0.0100 -0.9999
vn -0.0033 0.0000 -1.0000
vn -0.0034 -0.0001 -1.0000
vn 0.0091 -0.0124 -0.9999
vn -0.0100 0.0066 -0.9999
vn 0.0001 0.0000 -1.0000
vn -0.0091 0.0124 -0.9999
vn -0.0100 -0.0100 -0.9999
vn -0.0001 0.0000 -1.0000
vn 0.7057 -0.7085 0.0000
vn 0.7085 0.7057 -0.0066
vn 0.7057 0.7085 0.0000
vn -0.7085 -0.7057 -0.0066
vn 0.7085 -0.7057 0.0066
vn -0.7057 0.7085 0.0000
vn -0.7057 -0.7085 0.0000
vn -0.7085 0.7057 0.0066
usemtl Default_OBJ.004
s off
f 1/1/1 2/2/1 3/3/1
f 4/4/2 3/5/2 2/6/2
f 5/7/1 1/1/1 3/3/1
f 6/8/3 5/7/3 3/3/3
f 6/9/2 3/5/2 4/4/2
f 7/10/4 2/2/4 1/1/4
f 4/11/4 2/2/4 7/10/4
f 8/12/5 1/13/5 5/14/5
f 8/12/5 7/15/5 1/13/5
f 6/8/3 8/16/3 5/7/3
f 9/17/6 10/18/6 11/19/6
f 12/20/7 11/19/7 10/18/7
f 13/21/5 9/22/5 11/23/5
f 13/21/5 11/23/5 14/24/5
f 15/25/5 14/24/5 11/23/5
f 15/25/5 11/23/5 16/26/5
f 17/27/5 16/26/5 11/23/5
f 12/20/7 17/28/7 11/19/7
f 9/17/6 18/29/6 10/18/6
f 19/30/8 10/31/8 18/32/8
f 19/30/9 20/33/9 10/31/9
f 12/34/2 10/31/2 20/33/2
f 8/35/10 18/29/10 9/17/10
f 6/36/10 18/29/10 8/35/10
f 21/37/11 18/32/11 22/38/11
f 6/9/2 22/38/2 18/32/2
f 23/39/12 18/32/12 21/37/12
f 19/30/13 18/32/13 23/39/13
f 13/21/5 24/40/5 9/22/5
f 8/12/5 9/22/5 24/40/5
f 25/41/14 26/42/14 27/43/14
f 28/44/15 27/43/15 26/42/15
f 29/45/5 25/46/5 27/47/5
f 28/44/16 29/48/16 27/43/16
f 25/41/14 30/49/14 26/42/14
f 12/34/2 26/50/2 30/51/2
f 28/52/2 26/50/2 12/34/2
f 17/53/17 30/49/17 25/41/17
f 12/54/18 30/49/18 17/53/18
f 17/27/5 25/46/5 29/45/5
f 31/55/19 32/56/19 33/57/19
f 4/58/20 33/57/20 32/56/20
f 34/59/5 31/60/5 33/61/5
f 35/62/5 36/63/5 33/61/5
f 37/64/5 33/61/5 36/63/5
f 7/15/5 35/62/5 33/61/5
f 37/64/5 34/59/5 33/61/5
f 4/58/20 7/65/20 33/57/20
f 31/55/19 38/66/19 32/56/19
f 39/67/21 32/68/21 38/69/21
f 39/67/22 40/70/22 32/68/22
f 4/4/2 32/68/2 40/70/2
f 29/71/23 38/66/23 31/55/23
f 28/72/23 38/66/23 29/71/23
f 41/73/24 39/67/24 38/69/24
f 42/74/25 41/73/25 38/69/25
f 43/75/26 42/74/26 38/69/26
f 28/52/2 43/75/2 38/69/2
f 34/59/5 44/76/5 31/60/5
f 29/45/5 31/60/5 44/76/5
f 45/77/5 46/78/5 14/24/5
f 47/79/27 14/24/27 46/78/27
f 47/79/28 13/21/28 14/24/28
f 45/77/5 14/24/5 48/80/5
f 15/25/5 48/80/5 14/24/5
f 35/62/5 24/40/5 46/78/5
f 49/81/29 46/78/29 24/40/29
f 45/77/5 35/62/5 46/78/5
f 50/82/27 47/79/27 46/78/27
f 49/81/29 50/82/29 46/78/29
f 49/81/30 24/40/30 13/21/30
f 7/15/5 24/40/5 35/62/5
f 8/12/5 24/40/5 7/15/5
f 51/83/28 13/21/28 47/79/28
f 51/83/30 49/81/30 13/21/30
f 52/84/5 36/63/5 48/80/5
f 53/85/27 48/80/27 36/63/27
f 53/85/28 45/77/28 48/80/28
f 15/25/5 52/84/5 48/80/5
f 54/86/29 36/63/29 35/62/29
f 37/64/5 36/63/5 52/84/5
f 55/87/27 53/85/27 36/63/27
f 54/86/29 55/87/29 36/63/29
f 54/86/30 35/62/30 45/77/30
f 56/88/28 45/77/28 53/85/28
f 56/88/30 54/86/30 45/77/30
f 57/89/5 58/90/5 16/26/5
f 59/91/27 16/26/27 58/90/27
f 59/91/28 15/25/28 16/26/28
f 57/89/5 16/26/5 44/76/5
f 17/27/5 44/76/5 16/26/5
f 37/64/5 52/84/5 58/90/5
f 60/92/29 58/90/29 52/84/29
f 57/89/5 37/64/5 58/90/5
f 61/93/27 59/91/27 58/90/27
f 60/92/29 61/93/29 58/90/29
f 60/92/30 52/84/30 15/25/30
f 62/94/28 15/25/28 59/91/28
f 62/94/30 60/92/30 15/25/30
f 63/95/27 44/76/27 34/59/27
f 63/95/28 57/89/28 44/76/28
f 17/27/5 29/45/5 44/76/5
f 64/96/29 34/59/29 37/64/29
f 65/97/27 63/95/27 34/59/27
f 64/96/29 65/97/29 34/59/29
f 64/96/30 37/64/30 57/89/30
f 66/98/28 57/89/28 63/95/28
f 66/98/30 64/96/30 57/89/30
f 67/99/31 68/100/31 22/38/31
f 69/101/32 22/38/32 68/100/32
f 70/102/33 21/37/33 22/38/33
f 67/99/31 22/38/31 40/70/31
f 6/9/2 40/70/2 22/38/2
f 69/101/34 70/102/34 22/38/34
f 41/73/35 71/103/35 68/100/35
f 72/104/36 68/100/36 71/103/36
f 67/99/35 41/73/35 68/100/35
f 72/104/2 69/101/2 68/100/2
f 73/105/37 21/37/37 71/103/37
f 74/106/38 71/103/38 21/37/38
f 42/74/39 71/103/39 41/73/39
f 42/74/40 73/105/40 71/103/40
f 72/104/41 71/103/41 74/106/41
f 73/105/42 23/39/42 21/37/42
f 70/102/2 74/106/2 21/37/2
f 75/107/32 40/70/32 39/67/32
f 76/108/33 67/99/33 40/70/33
f 6/9/2 4/4/2 40/70/2
f 75/107/34 76/108/34 40/70/34
f 77/109/36 39/67/36 41/73/36
f 77/109/2 75/107/2 39/67/2
f 78/110/38 41/73/38 67/99/38
f 77/109/41 41/73/41 78/110/41
f 76/108/2 78/110/2 67/99/2
f 79/111/31 80/112/31 23/39/31
f 81/113/32 23/39/32 80/112/32
f 82/114/33 19/30/33 23/39/33
f 79/111/31 23/39/31 73/105/31
f 81/113/34 82/114/34 23/39/34
f 43/75/35 20/33/35 80/112/35
f 83/115/36 80/112/36 20/33/36
f 79/111/35 43/75/35 80/112/35
f 83/115/2 81/113/2 80/112/2
f 84/116/38 20/33/38 19/30/38
f 28/52/2 20/33/2 43/75/2
f 28/52/2 12/34/2 20/33/2
f 83/115/41 20/33/41 84/116/41
f 82/114/2 84/116/2 19/30/2
f 85/117/32 73/105/32 42/74/32
f 86/118/33 79/111/33 73/105/33
f 85/117/34 86/118/34 73/105/34
f 87/119/36 42/74/36 43/75/36
f 87/119/2 85/117/2 42/74/2
f 88/120/38 43/75/38 79/111/38
f 87/119/41 43/75/41 88/120/41
f 86/118/2 88/120/2 79/111/2
f 63/121/43 88/122/43 86/123/43
f 65/124/44 87/125/44 88/126/44
f 65/127/45 88/128/45 63/129/45
f 66/130/46 86/131/46 85/132/46
f 66/133/47 63/134/47 86/135/47
f 64/136/48 85/137/48 87/138/48
f 66/139/49 85/140/49 64/141/49
f 64/142/50 87/143/50 65/144/50
f 59/145/43 84/146/43 82/147/43
f 61/148/44 83/149/44 84/150/44
f 61/151/45 84/152/45 59/153/45
f 62/154/46 82/155/46 81/156/46
f 62/157/47 59/158/47 82/159/47
f 60/160/48 81/161/48 83/162/48
f 62/163/49 81/161/49 60/164/49
f 60/165/50 83/166/50 61/167/50
f 53/168/43 78/169/43 76/170/43
f 55/171/44 77/172/44 78/173/44
f 55/174/45 78/169/45 53/175/45
f 56/176/46 76/177/46 75/178/46
f 56/179/47 53/180/47 76/181/47
f 54/182/48 75/183/48 77/184/48
f 56/185/49 75/186/49 54/187/49
f 54/188/50 77/189/50 55/190/50
f 47/191/43 74/192/43 70/193/43
f 50/194/44 72/195/44 74/196/44
f 50/197/45 74/198/45 47/199/45
f 51/200/46 70/201/46 69/202/46
f 51/203/47 47/204/47 70/205/47
f 49/206/48 69/207/48 72/208/48
f 51/209/49 69/210/49 49/211/49
f 49/212/50 72/213/50 50/214/50
