o Mesh0
v -0.021712 0.0 -0.009048
v -0.021712 0.0 0.00925
v -0.021294 -0.004236 -0.009048
v -0.021294 -0.004236 0.00925
v -0.021294 0.004236 -0.009048
v -0.021294 0.004236 0.00925
v -0.020059 -0.008309 -0.009048
v -0.020059 -0.008309 0.00925
v -0.020059 0.008309 -0.009048
v -0.020059 0.008309 0.00925
v -0.018053 -0.012062 -0.009048
v -0.018053 -0.012062 0.00925
v -0.018053 0.012062 -0.009048
v -0.018053 0.012062 0.00925
v -0.015352 -0.015352 -0.009048
v -0.015352 -0.015352 0.00925
v -0.015352 0.015352 -0.009048
v -0.015352 0.015352 0.00925
v -0.012062 -0.018053 -0.009048
v -0.012062 -0.018053 0.00925
v -0.012062 0.018053 -0.009048
v -0.012062 0.018053 0.00925
v -0.008309 -0.020059 -0.009048
v -0.008309 -0.020059 0.00925
v -0.008309 0.020059 -0.009048
v -0.008309 0.020059 0.00925
v -0.004236 -0.021294 -0.009048
v -0.004236 -0.021294 0.00925
v -0.004236 0.021294 -0.009048
v -0.004236 0.021294 0.00925
v 0.0 -0.021712 -0.009048
v 0.0 -0.021712 0.00925
v 0.0 0.021712 -0.009048
v 0.0 0.021712 0.00925
v 0.004236 -0.021294 -0.009048
v 0.004236 -0.021294 0.00925
v 0.004236 0.021294 -0.009048
v 0.004236 0.021294 0.00925
v 0.008309 -0.020059 -0.009048
v 0.008309 -0.020059 0.00925
v 0.008309 0.020059 -0.009048
v 0.008309 0.020059 0.00925
v 0.012062 -0.018053 -0.009048
v 0.012062 -0.018053 0.00925
v 0.012062 0.018053 -0.009048
v 0.012062 0.018053 0.00925
v 0.015352 -0.015352 -0.009048
v 0.015352 -0.015352 0.00925
v 0.015352 0.015352 -0.009048
v 0.015352 0.015352 0.00925
v 0.018053 -0.012062 -0.009048
v 0.018053 -0.012062 0.00925
v 0.018053 0.012062 -0.009048
v 0.018053 0.012062 0.00925
v 0.020059 -0.008309 -0.009048
v 0.020059 -0.008309 0.00925
v 0.020059 0.008309 -0.009048
v 0.020059 0.008309 0.00925
v 0.021294 -0.004236 -0.009048
v 0.021294 -0.004236 0.00925
v 0.021294 0.004236 -0.009048
v 0.021294 0.004236 0.00925
v 0.021712 0.0 -0.009048
v 0.021712 0.0 0.00925
vn -0.9995 -0.0329 0.0
vn -0.9995 0.0329 0.0
vn -0.9866 -0.1629 -0.0
vn -0.9866 0.1629 0.0
vn -0.9739 -0.2271 -0.0
vn -0.9739 0.2271 0.0
vn -0.936 -0.3521 -0.0
vn -0.936 0.3521 0.0
vn -0.9108 -0.4128 -0.0
vn -0.9108 0.4128 0.0
vn -0.8492 -0.528 -0.0
vn -0.8492 0.528 0.0
vn -0.8127 -0.5826 -0.0
vn -0.8127 0.5826 0.0
vn -0.7299 -0.6836 -0.0
vn -0.7299 0.6836 0.0
vn -0.6836 -0.7299 -0.0
vn -0.6836 0.7299 0.0
vn -0.5826 -0.8127 -0.0
vn -0.5556 0.8314 0.0
vn -0.528 -0.8492 -0.0
vn -0.4128 -0.9108 -0.0
vn -0.3826 0.9239 0.0
vn -0.3521 -0.936 -0.0
vn -0.2271 -0.9739 -0.0
vn -0.2271 0.9739 0.0
vn -0.1629 -0.9866 -0.0
vn -0.1629 0.9866 0.0
vn -0.0329 -0.9995 0.0
vn -0.0329 0.9995 0.0
vn 0.0329 -0.9995 0.0
vn 0.0329 0.9995 0.0
vn 0.1629 -0.9866 0.0
vn 0.1629 0.9866 0.0
vn 0.2271 -0.9739 0.0
vn 0.2271 0.9739 0.0
vn 0.3521 -0.936 0.0
vn 0.3521 0.936 0.0
vn 0.4128 -0.9108 0.0
vn 0.4128 0.9108 0.0
vn 0.528 -0.8492 0.0
vn 0.528 0.8492 0.0
vn 0.5826 -0.8127 0.0
vn 0.5826 0.8127 0.0
vn 0.6836 -0.7299 0.0
vn 0.6836 0.7299 0.0
vn 0.7299 -0.6836 0.0
vn 0.7299 0.6836 0.0
vn 0.8127 -0.5826 0.0
vn 0.8127 0.5826 0.0
vn 0.8492 -0.528 0.0
vn 0.8492 0.528 0.0
vn 0.9108 -0.4128 0.0
vn 0.9108 0.4128 0.0
vn 0.936 -0.3521 0.0
vn 0.936 0.3521 0.0
vn 0.9739 -0.2271 0.0
vn 0.9739 0.2271 0.0
vn 0.9866 -0.1629 0.0
vn 0.9866 0.1629 0.0
vn 0.9995 -0.0329 0.0
vn 0.9995 0.0329 0.0
f 32//31 31//29 35//33
f 28//27 27//25 31//29
f 24//24 23//22 27//25
f 20//21 19//19 23//22
f 16//17 15//15 19//19
f 12//13 11//11 15//15
f 8//9 7//7 11//11
f 4//5 3//3 7//7
f 2//1 1//2 3//3
f 6//4 5//6 1//2
f 10//8 9//10 5//6
f 14//12 13//14 9//10
f 38//34 37//36 33//32
f 18//16 17//18 13//14
f 42//38 41//40 37//36
f 22//20 21//20 17//18
f 46//42 45//44 41//40
f 22//20 26//23 25//23
f 50//46 49//48 45//44
f 30//26 29//28 25//23
f 54//50 53//52 49//48
f 34//30 33//32 29//28
f 58//54 57//56 53//52
f 62//58 61//60 57//56
f 64//62 63//61 61//60
f 60//59 59//57 63//61
f 56//55 55//53 59//57
f 52//51 51//49 55//53
f 48//47 47//45 51//49
f 44//43 43//41 47//45
f 40//39 39//37 43//41
f 36//35 35//33 39//37
f 36//35 32//31 35//33
f 32//31 28//27 31//29
f 28//27 24//24 27//25
f 24//24 20//21 23//22
f 20//21 16//17 19//19
f 16//17 12//13 15//15
f 12//13 8//9 11//11
f 8//9 4//5 7//7
f 4//5 2//1 3//3
f 2//1 6//4 1//2
f 6//4 10//8 5//6
f 10//8 14//12 9//10
f 34//30 38//34 33//32
f 14//12 18//16 13//14
f 38//34 42//38 37//36
f 18//16 22//20 17//18
f 42//38 46//42 41//40
f 21//20 22//20 25//23
f 46//42 50//46 45//44
f 26//23 30//26 25//23
f 50//46 54//50 49//48
f 30//26 34//30 29//28
f 54//50 58//54 53//52
f 58//54 62//58 57//56
f 62//58 64//62 61//60
f 64//62 60//59 63//61
f 60//59 56//55 59//57
f 56//55 52//51 55//53
f 52//51 48//47 51//49
f 48//47 44//43 47//45
f 44//43 40//39 43//41
f 40//39 36//35 39//37
