o base_metal_inner_separator
v -0.202593 -0.041975 -0.01473
v -0.202439 -0.041881 0.022
v -0.202405 -0.041862 0.128314
v -0.201969 -0.04161 0.020376
v -0.201919 -0.041581 0.0419
v -0.201919 -0.041581 0.0431
v -0.195029 -0.037603 0.019822
v -0.192375 -0.036071 0.01736
v -0.192046 -0.035881 -0.015
v -0.187972 -0.033532 0.135433
v -0.169336 -0.022768 0.141345
v -0.153023 -0.013351 0.145158
v -0.145281 -0.008881 -0.015
v -0.145281 -0.008881 0.083
v -0.142863 -0.007533 0.083
v -0.142741 -0.007552 0.146869
v -0.135769 -0.154434 -0.014805
v -0.135682 -0.154376 0.0419
v -0.135682 -0.154376 0.0431
v -0.13544 -0.154236 0.020447
v -0.135309 -0.154162 0.129458
v -0.13279 -0.013247 -0.015
v -0.13279 -0.013247 0.083
v -0.127774 -0.149811 0.132766
v -0.127301 -0.149537 0.019518
v -0.125388 -0.148432 0.016202
v -0.12529 -0.148376 -0.015
v -0.120163 -0.020542 0.148981
v -0.11864 -0.144537 0.136297
v -0.111148 -0.025681 -0.015
v -0.110979 -0.025465 0.149311
v -0.102578 -0.135264 0.141348
v -0.098858 -0.018656 0.1493
v -0.097316 -0.017766 0.156418
v -0.086266 -0.125845 0.14516
v -0.084914 -0.010606 0.156443
v -0.083417 -0.009741 0.155203
v -0.083269 -0.009656 0.143
v -0.078524 -0.121376 -0.015
v -0.078524 -0.121376 0.083
v -0.076155 -0.119965 0.083
v -0.076098 -0.119815 0.146868
v -0.07606 -0.108376 -0.015
v -0.07606 -0.108376 0.083
v -0.076047 -0.084533 -0.015
v -0.076036 -0.084365 0.149455
v -0.075013 -0.082792 0.1493
v -0.074951 -0.082748 -0.015
v -0.067219 -0.00017 0.156203
v -0.067021 -0.000223 0.143
v -0.066987 -0.000234 -0.015
v -0.064956 0.196361 -0.014805
v -0.064951 0.195827 0.129458
v -0.06495 0.158032 0.141348
v -0.06495 0.176579 0.136297
v -0.06495 0.187126 0.132766
v -0.064949 0.130257 -0.015
v -0.064949 0.130257 0.083
v -0.064949 0.139196 0.14516
v -0.064949 0.184257 -0.015
v -0.064949 0.18437 0.016202
v -0.064949 0.186579 0.019518
v -0.064949 0.195977 0.020447
v -0.064949 0.196257 0.0419
v -0.064949 0.196257 0.0431
v -0.064912 0.1275 0.083
v -0.064811 0.127375 0.146868
v -0.063778 -0.076285 0.1493
v -0.06372 -0.076252 0.154711
v -0.062648 -0.075633 0.156292
v -0.054923 0.121623 -0.015
v -0.054923 0.121623 0.083
v -0.049814 -0.068223 0.156462
v -0.048354 -0.06738 0.15518
v -0.048189 -0.067285 0.143
v -0.034281 0.10969 -0.015
v -0.034141 0.109597 0.149455
v -0.033537 0.058287 0.156325
v -0.033373 0.058028 0.143
v -0.03329 0.107924 0.1493
v -0.033283 0.058127 -0.015
v -0.033283 0.107848 -0.015
v -0.033273 0.076941 0.143
v -0.033273 0.077131 0.15518
v -0.033273 0.078817 0.156462
v -0.033273 0.093636 0.156292
v -0.033273 0.094874 0.154711
v -0.033273 0.094941 0.1493
v -0.031903 -0.058187 0.156325
v -0.031891 -0.057887 -0.015
v -0.03176 -0.057915 0.143
v 0.034175 0.078506 0.143
v 0.034175 0.080405 0.156443
v 0.034175 0.094726 0.156418
v 0.034175 0.096506 0.1493
v 0.034176 0.078676 0.155203
v 0.034194 0.059694 -0.015
v 0.03422 0.059718 0.143
v 0.034237 0.110662 -0.015
v 0.034339 0.110408 0.149311
v 0.034366 0.059863 0.156203
v 0.035503 -0.057895 -0.015
v 0.035511 -0.05793 0.143
v 0.035564 -0.058129 0.156203
v 0.043195 0.1159 0.148981
v 0.051804 -0.067285 0.143
v 0.051951 -0.06737 0.155203
v 0.053449 -0.068234 0.156443
v 0.055826 0.123188 -0.015
v 0.055826 0.123188 0.083
v 0.065733 0.128958 0.146869
v 0.065811 0.129054 0.083
v 0.065848 0.198003 -0.01473
v 0.065849 0.181119 0.135433
v 0.065851 -0.075395 0.156418
v 0.065852 0.131822 -0.015
v 0.065852 0.131822 0.083
v 0.065852 0.140762 0.145158
v 0.065852 0.185822 -0.015
v 0.065852 0.186202 0.01736
v 0.065852 0.189266 0.019822
v 0.065852 0.197222 0.0419
v 0.065852 0.197222 0.0431
v 0.065852 0.19728 0.020376
v 0.065852 0.197783 0.128314
v 0.065853 0.159598 0.141345
v 0.065853 0.197822 0.022
v 0.067393 -0.076285 0.1493
v 0.067843 0.001452 0.143
v 0.067884 0.001325 -0.015
v 0.06815 0.001465 0.156325
v 0.07935 -0.083378 0.149311
v 0.079621 -0.083416 -0.015
v 0.079674 -0.108376 -0.015
v 0.079674 -0.108376 0.083
v 0.079678 -0.093793 0.148981
v 0.079718 -0.119841 0.146869
v 0.079762 -0.119956 0.083
v 0.082139 -0.121376 -0.015
v 0.082139 -0.121376 0.083
v 0.084172 -0.008091 0.143
v 0.084337 -0.008186 0.15518
v 0.085797 -0.009029 0.156462
v 0.089881 -0.125846 0.145158
v 0.098631 -0.016438 0.156292
v 0.099703 -0.017057 0.154711
v 0.099761 -0.017091 0.1493
v 0.106193 -0.135265 0.141345
v 0.110944 -0.023535 -0.015
v 0.111013 -0.023567 0.1493
v 0.112887 -0.023667 0.149455
v 0.113038 -0.023592 -0.015
v 0.124833 -0.146022 0.135433
v 0.128904 -0.148376 -0.015
v 0.129233 -0.148566 0.01736
v 0.131887 -0.150098 0.019822
v 0.133693 -0.011682 -0.015
v 0.133693 -0.011682 0.083
v 0.138777 -0.154076 0.0419
v 0.138777 -0.154076 0.0431
v 0.138827 -0.154105 0.020376
v 0.139263 -0.154356 0.128314
v 0.139296 -0.154376 0.022
v 0.139455 -0.154463 -0.01473
v 0.143618 -0.005995 0.146868
v 0.143777 -0.00597 0.083
v 0.146183 -0.007316 -0.015
v 0.146183 -0.007316 0.083
v 0.153925 -0.011786 0.14516
v 0.170238 -0.021203 0.141348
v 0.1863 -0.030477 0.136297
v 0.192949 -0.034316 -0.015
v 0.193047 -0.034373 0.016202
v 0.19496 -0.035477 0.019518
v 0.195434 -0.03575 0.132766
v 0.20297 -0.0401 0.129458
v 0.203099 -0.040176 0.020447
v 0.203341 -0.040316 0.0419
v 0.203341 -0.040316 0.0431
v 0.203435 -0.040362 -0.014805
vn -1.0 -0.0099 0.0009
vn -1.0 -0.0083 0.0012
vn -1.0 -0.0054 -0.0008
vn -1.0 -0.0046 -0.0001
vn -1.0 -0.0045 0.0
vn -1.0 -0.0027 0.0002
vn -1.0 -0.0009 0.0018
vn -1.0 -0.0006 0.0002
vn -1.0 -0.0003 0.0
vn -1.0 -0.0003 0.0009
vn -1.0 -0.0002 0.0001
vn -1.0 -0.0001 0.0
vn -1.0 0.0 0.0
vn -1.0 0.0012 0.0004
vn -1.0 0.0026 -0.0003
vn -1.0 0.0026 -0.0
vn -1.0 0.0032 -0.0031
vn -1.0 0.0078 -0.0044
vn -0.9999 -0.0166 0.0037
vn -0.9999 -0.0128 0.0012
vn -0.9999 -0.0114 0.0016
vn -0.9998 -0.0201 0.0027
vn -0.9998 0.0129 -0.0126
vn -0.9978 -0.0656 -0.0071
vn -0.9977 -0.0674 -0.0073
vn -0.9823 -0.1863 -0.0211
vn -0.8913 -0.4534 0.0005
vn -0.8853 -0.4649 0.0003
vn -0.8792 -0.4764 0.0002
vn -0.8663 0.4992 -0.0204
vn -0.866 0.4997 -0.0177
vn -0.866 0.4999 -0.0089
vn -0.866 0.5001 -0.0002
vn -0.8659 0.5001 -0.0002
vn -0.8659 0.5002 -0.0076
vn -0.6524 -0.7576 -0.0211
vn -0.5575 -0.8301 -0.0073
vn -0.5554 -0.8315 -0.007
vn -0.5114 -0.8593 0.0011
vn -0.5086 -0.861 0.0012
vn -0.5081 0.8612 -0.0111
vn -0.5072 -0.8619 0.0011
vn -0.5072 -0.8617 0.0166
vn -0.5043 -0.8635 -0.0003
vn -0.5043 -0.8635 -0.0
vn -0.5041 0.8636 -0.0038
vn -0.5034 -0.8641 -0.0001
vn -0.5034 -0.864 0.0113
vn -0.5032 -0.8642 0.0003
vn -0.5025 -0.8646 -0.0002
vn -0.5021 0.8648 -0.0028
vn -0.5015 -0.8651 0.0048
vn -0.5012 0.8653 -0.0001
vn -0.5011 -0.8654 0.0001
vn -0.5007 0.8656 0.0
vn -0.5006 -0.8657 -0.0
vn -0.5003 0.8659 -0.0001
vn -0.5001 0.866 -0.0001
vn -0.5001 0.866 -0.0
vn -0.5 -0.8661 -0.0
vn -0.5 -0.866 0.0
vn -0.5 -0.866 0.0001
vn -0.5 0.866 -0.0001
vn -0.5 0.866 0.0
vn -0.5 0.866 0.0001
vn -0.5 0.8661 0.0
vn -0.4999 -0.8661 -0.0001
vn -0.4999 -0.8661 -0.0
vn -0.4997 -0.8662 -0.0001
vn -0.4994 0.8664 -0.0
vn -0.4993 -0.8664 0.0
vn -0.4989 0.8667 0.0001
vn -0.4988 -0.8667 -0.0
vn -0.4984 0.8669 0.0047
vn -0.4979 -0.8673 -0.0028
vn -0.4975 0.8675 -0.0002
vn -0.4967 0.8679 0.0003
vn -0.4966 0.868 -0.0001
vn -0.4965 0.8679 0.0112
vn -0.4959 -0.8684 -0.0038
vn -0.4957 0.8685 -0.0003
vn -0.4957 0.8685 0.0
vn -0.4928 0.8702 0.0011
vn -0.4926 0.8701 0.0165
vn -0.4918 -0.8707 -0.0111
vn -0.4914 0.8709 0.0012
vn -0.4884 0.8726 0.0011
vn -0.4424 0.8968 -0.007
vn -0.4401 0.8979 -0.0073
vn -0.3299 0.9438 -0.0211
vn -0.0002 -1.0 -0.0076
vn -0.0002 -1.0 -0.0002
vn -0.0001 -1.0 -0.0002
vn 0.0001 -1.0 -0.009
vn 0.0003 -0.9998 -0.0177
vn 0.0008 -0.9998 -0.0204
vn 0.0272 0.9996 0.0002
vn 0.0402 0.9992 0.0003
vn 0.0532 0.9986 0.0005
vn 0.3299 0.9438 -0.0211
vn 0.4405 0.8977 -0.0073
vn 0.4421 0.8969 -0.0071
vn 0.4824 0.8759 0.0027
vn 0.4855 0.8742 0.0037
vn 0.4887 -0.8724 -0.0126
vn 0.4888 0.8724 0.0012
vn 0.49 0.8717 0.0016
vn 0.4914 0.8709 0.0009
vn 0.4927 0.8702 0.0012
vn 0.4932 -0.8699 -0.0044
vn 0.4954 0.8687 -0.0008
vn 0.496 0.8683 -0.0001
vn 0.4961 0.8683 0.0
vn 0.4972 -0.8676 -0.0031
vn 0.4976 0.8674 0.0002
vn 0.4977 -0.8673 -0.0003
vn 0.4977 -0.8673 -0.0
vn 0.4989 -0.8666 0.0005
vn 0.4992 0.8665 0.0019
vn 0.4995 0.8663 0.0002
vn 0.4997 0.8662 0.0
vn 0.4997 0.8662 0.0009
vn 0.4998 0.8661 0.0001
vn 0.4999 0.8661 0.0
vn 0.5 -0.866 -0.0001
vn 0.5 -0.866 0.0
vn 0.5 0.866 -0.0001
vn 0.5 0.866 -0.0
vn 0.5 0.8661 -0.0001
vn 0.5 0.8661 0.0
vn 0.5001 -0.866 -0.0001
vn 0.5001 -0.866 0.0
vn 0.5001 -0.8659 -0.0001
vn 0.5002 -0.8659 0.0
vn 0.5002 -0.8659 0.0001
vn 0.5003 -0.8658 0.001
vn 0.5005 -0.8657 0.0002
vn 0.5008 -0.8655 0.002
vn 0.5011 0.8654 0.0005
vn 0.5023 0.8647 -0.0002
vn 0.5023 0.8647 -0.0001
vn 0.5024 -0.8647 0.0002
vn 0.5028 0.8644 -0.0032
vn 0.5039 -0.8638 0.0
vn 0.5039 -0.8637 -0.0001
vn 0.5046 -0.8633 -0.0008
vn 0.5068 0.8621 -0.0044
vn 0.5072 -0.8618 0.0012
vn 0.5085 -0.8611 0.0009
vn 0.5099 -0.8602 0.0016
vn 0.5111 -0.8595 0.0012
vn 0.5111 0.8594 -0.0126
vn 0.5143 -0.8576 0.0037
vn 0.5174 -0.8558 0.0027
vn 0.5557 -0.8314 -0.0071
vn 0.5572 -0.8304 -0.0073
vn 0.6524 -0.7576 -0.0211
vn 0.8383 -0.5452 0.0005
vn 0.8453 -0.5342 0.0003
vn 0.8522 -0.5232 0.0002
vn 0.8654 0.5006 -0.0204
vn 0.8657 0.5002 -0.0177
vn 0.866 0.5 -0.009
vn 0.8661 0.4998 -0.0076
vn 0.8661 0.4999 -0.0002
vn 0.9823 -0.1862 -0.0211
vn 0.9977 -0.0678 -0.0073
vn 0.9978 -0.0652 -0.007
vn 0.9998 -0.0084 0.0166
vn 0.9999 -0.0132 0.0011
vn 0.9999 -0.0039 0.0113
vn 0.9999 0.0094 -0.0112
vn 1.0 -0.0099 0.0012
vn 1.0 -0.0083 0.0011
vn 1.0 -0.005 -0.0003
vn 1.0 -0.0049 0.0
vn 1.0 -0.0039 -0.0001
vn 1.0 -0.0037 0.0003
vn 1.0 -0.0029 -0.0002
vn 1.0 -0.0017 0.0047
vn 1.0 -0.0013 0.0001
vn 1.0 -0.0007 -0.0
vn 1.0 -0.0001 0.0001
vn 1.0 0.0 -0.0002
vn 1.0 -0.0 -0.0001
vn 1.0 0.0 0.0
vn 1.0 0.0001 -0.0002
vn 1.0 0.0001 -0.0
vn 1.0 0.0003 -0.0001
vn 1.0 0.0008 0.0
vn 1.0 0.0015 -0.0001
vn 1.0 0.0025 -0.0028
vn 1.0 0.0047 -0.0038
f 40//142 29//126 24//126
f 19//126 18//126 25//125
f 18//126 20//132 25//125
f 24//126 21//126 40//142
f 32//126 29//126 40//142
f 42//150 35//148 41//151
f 45//182 46//181 44//177
f 44//177 43//168 45//182
f 40//142 41//151 35//148
f 27//135 39//144 26//126
f 19//126 25//125 40//142
f 26//126 39//144 40//142
f 44//177 46//181 42//175
f 25//125 26//126 40//142
f 41//167 44//177 42//175
f 35//148 32//126 40//142
f 21//126 19//126 40//142
f 140//49 155//61 160//61
f 91//94 102//92 103//91
f 108//75 107//73 106//52
f 47//159 45//159 48//160
f 73//114 70//131 68//136
f 144//42 138//39 140//49
f 136//19 132//22 135//1
f 133//3 134//24 135//1
f 132//22 133//3 135//1
f 148//60 144//42 140//49
f 160//61 162//62 140//49
f 161//61 163//67 156//61
f 159//61 160//61 155//61
f 153//61 148//60 140//49
f 136//19 135//1 137//4
f 140//49 139//45 155//61
f 135//1 138//25 137//4
f 162//62 153//61 140//49
f 156//61 163//67 159//61
f 139//45 154//68 155//61
f 155//61 156//61 159//61
f 137//40 138//39 144//42
f 91//94 90//93 102//92
f 103//80 102//71 106//52
f 133//50 132//43 106//52
f 115//61 108//75 128//48
f 106//52 102//71 133//50
f 108//75 106//52 128//48
f 132//43 128//48 106//52
f 47//159 46//158 45//159
f 68//136 47//138 75//118
f 48//134 90//116 75//118
f 75//118 74//117 73//114
f 90//116 91//110 75//118
f 70//131 69//133 68//136
f 47//138 48//134 75//118
f 75//118 73//114 68//136
f 139//26 138//25 134//24
f 135//1 134//24 138//25
f 139//45 140//49 138//39
f 41//151 40//142 39//144
f 39//166 43//168 41//167
f 44//177 41//167 43//168
f 104//95 91//94 103//91
f 104//95 89//96 91//94
f 89//105 73//114 91//110
f 75//118 91//110 74//117
f 103//80 106//52 107//73
f 104//85 103//80 108//75
f 26//126 20//132 27//135
f 26//126 25//125 20//132
f 20//132 17//137 27//135
f 164//69 163//67 154//68
f 161//61 155//61 154//68
f 161//61 156//61 155//61
f 58//6 55//13 56//13
f 65//13 64//13 62//13
f 64//13 63//12 62//13
f 56//13 53//13 58//6
f 54//13 55//13 58//6
f 67//21 59//2 66//20
f 76//56 77//54 72//47
f 72//47 71//38 76//56
f 58//6 66//20 59//2
f 60//11 57//5 61//13
f 65//13 62//13 58//6
f 61//13 57//5 58//6
f 72//47 77//54 67//44
f 62//13 61//13 58//6
f 66//37 72//47 67//44
f 59//2 54//13 58//6
f 53//13 65//13 58//6
f 14//77 8//64 6//64
f 79//32 51//34 50//35
f 36//51 37//53 38//74
f 80//28 76//28 82//29
f 85//17 86//13 88//10
f 12//83 15//87 14//77
f 28//104 31//103 23//108
f 30//111 22//102 23//108
f 31//103 30//111 23//108
f 11//64 12//83 14//77
f 6//64 3//65 14//77
f 4//63 2//58 7//63
f 5//66 6//64 8//64
f 10//64 11//64 14//77
f 28//104 23//108 16//112
f 14//77 13//82 8//64
f 23//108 15//101 16//112
f 3//65 10//64 14//77
f 7//63 2//58 5//66
f 13//82 9//59 8//64
f 8//64 7//63 5//66
f 16//86 15//87 12//83
f 79//32 81//33 51//34
f 50//46 51//55 38//74
f 30//76 31//84 38//74
f 34//64 36//51 33//79
f 38//74 51//55 30//76
f 36//51 38//74 33//79
f 31//84 33//79 38//74
f 80//28 77//27 76//28
f 88//10 80//7 83//14
f 82//9 81//15 83//14
f 83//14 84//16 85//17
f 81//15 79//18 83//14
f 86//13 87//13 88//10
f 80//7 82//9 83//14
f 83//14 85//17 88//10
f 13//100 15//101 22//102
f 23//108 22//102 15//101
f 13//82 14//77 15//87
f 66//20 58//6 57//5
f 57//36 71//38 66//37
f 72//47 66//37 71//38
f 49//31 79//32 50//35
f 49//31 78//30 79//32
f 78//23 85//17 79//18
f 83//14 79//18 84//16
f 50//46 38//74 37//53
f 49//41 50//46 36//51
f 61//13 63//12 60//11
f 61//13 62//13 63//12
f 63//12 52//8 60//11
f 1//57 2//58 9//59
f 4//63 8//64 9//59
f 4//63 7//63 8//64
f 168//115 171//128 175//130
f 179//128 178//128 174//128
f 178//128 177//124 174//128
f 175//130 176//128 168//115
f 170//128 171//128 168//115
f 165//107 169//109 166//106
f 152//70 151//72 158//78
f 158//78 157//88 152//70
f 168//115 166//106 169//109
f 172//123 167//113 173//128
f 179//128 174//128 168//115
f 173//128 167//113 168//115
f 158//78 151//72 165//81
f 174//128 173//128 168//115
f 166//89 158//78 165//81
f 169//109 170//128 168//115
f 176//128 179//128 168//115
f 117//178 120//186 123//186
f 129//163 97//165 98//164
f 93//192 96//191 92//180
f 150//98 152//98 149//97
f 143//143 145//127 147//122
f 118//174 112//170 117//178
f 105//153 100//154 110//149
f 99//146 109//155 110//149
f 100//154 99//146 110//149
f 126//188 118//174 117//178
f 123//186 125//183 117//178
f 124//184 127//187 121//185
f 122//186 123//186 120//186
f 114//186 126//188 117//178
f 105//153 110//149 111//145
f 117//178 116//176 120//186
f 110//149 112//156 111//145
f 125//183 114//186 117//178
f 121//185 127//187 122//186
f 116//176 119//188 120//186
f 120//186 121//185 122//186
f 111//173 112//170 118//174
f 129//163 130//165 97//165
f 98//193 97//190 92//180
f 99//179 100//169 92//180
f 94//186 93//192 95//171
f 92//180 97//190 99//179
f 93//192 92//180 95//171
f 100//169 95//171 92//180
f 150//98 151//99 152//98
f 147//122 150//119 141//139
f 149//121 130//140 141//139
f 141//139 142//141 143//143
f 130//140 129//147 141//139
f 145//127 146//129 147//122
f 150//119 149//121 141//139
f 141//139 143//143 147//122
f 116//157 112//156 109//155
f 110//149 109//155 112//156
f 116//176 117//178 112//170
f 166//106 168//115 167//113
f 167//90 157//88 166//89
f 158//78 166//89 157//88
f 101//162 129//163 98//164
f 101//162 131//161 129//163
f 131//152 143//143 129//147
f 141//139 129//147 142//141
f 98//193 92//180 96//191
f 101//172 98//193 93//192
f 173//128 177//124 172//123
f 173//128 174//128 177//124
f 177//124 180//120 172//123
f 113//189 127//187 119//188
f 124//184 120//186 119//188
f 124//184 121//185 120//186
