o cap_2
v -0.188337 0.017518 0.217974
v -0.187785 0.017445 0.219205
v -0.186661 0.01724 0.212683
v -0.1859 0.017208 0.218174
v -0.185893 0.017218 0.214371
v -0.185563 0.01716 0.213593
v -0.185563 0.01716 0.217393
v -0.185128 0.017091 0.218503
v -0.185126 0.017077 0.21471
v -0.184814 0.01702 0.215818
v -0.184799 0.017032 0.213931
v -0.184795 0.017018 0.217727
v -0.184257 0.016954 0.216662
v -0.183807 0.016878 0.215634
v -0.183678 0.016852 0.21415
v -0.183674 0.016858 0.21795
v -0.182853 0.016674 0.21739
v -0.182853 0.01668 0.213593
v -0.182666 0.016677 0.214607
v -0.182664 0.016671 0.218409
v -0.182416 0.016647 0.215628
v -0.182066 0.016578 0.216649
v -0.181512 0.01647 0.21415
v -0.18145 0.016444 0.218176
v -0.181446 0.016426 0.215818
v -0.181141 0.016378 0.217393
v -0.180694 0.01629 0.213588
v -0.180694 0.01629 0.218512
v -0.180472 0.016286 0.214594
v -0.180452 0.016272 0.21605
v -0.180363 0.016237 0.217727
v -0.179597 0.016102 0.215497
v -0.179401 0.016104 0.21648
v -0.179283 0.01606 0.218186
v -0.179165 0.016063 0.21372
v -0.178974 0.015996 0.217393
v -0.178772 0.015979 0.214774
v -0.178521 0.015913 0.218504
v -0.178212 0.015862 0.215819
v -0.178198 0.01586 0.213919
v -0.178196 0.015855 0.217727
v -0.17766 0.015786 0.216665
v -0.177207 0.015709 0.215632
v -0.177194 0.015708 0.21415
v -0.176985 0.015675 0.218407
v -0.176808 0.015614 0.217393
v -0.176355 0.015531 0.213596
v -0.176125 0.015524 0.214566
v -0.175967 0.015478 0.21795
v -0.175945 0.015486 0.215632
v -0.175492 0.015409 0.216662
v -0.174953 0.015304 0.215822
v -0.17477 0.015139 0.212846
v -0.174406 0.015063 0.219434
v -0.173368 0.014898 0.218568
vn -0.2347 -0.9719 -0.0171
vn -0.232 -0.9726 0.0128
vn -0.2043 -0.9741 0.097
vn -0.1961 -0.98 -0.0349
vn -0.1951 -0.9807 -0.0126
vn -0.1938 -0.9809 0.0148
vn -0.1937 -0.9807 -0.0254
vn -0.186 -0.9824 -0.0159
vn -0.184 -0.9767 -0.1105
vn -0.1823 -0.9832 -0.0063
vn -0.1821 -0.9833 -0.003
vn -0.1801 -0.9836 0.0122
vn -0.1796 -0.9837 -0.0008
vn -0.1786 -0.9838 -0.0177
vn -0.1781 -0.984 -0.0063
vn -0.1775 -0.984 -0.0133
vn -0.1765 -0.9843 0.0093
vn -0.1759 -0.9844 -0.0062
vn -0.1756 -0.9844 -0.0089
vn -0.1753 -0.9845 -0.0066
vn -0.1747 -0.9846 -0.0029
vn -0.1733 -0.9789 -0.1085
vn -0.1731 -0.9841 0.0397
vn -0.173 -0.9786 0.1117
vn -0.1729 -0.9839 -0.0459
vn -0.1727 -0.9825 0.0698
vn -0.1699 -0.9855 -0.0055
vn -0.1691 -0.9856 -0.0035
vn -0.1684 -0.9845 0.0483
vn -0.1682 -0.9857 0.0136
vn -0.1679 -0.9795 0.111
vn -0.1672 -0.9859 -0.0079
vn -0.1667 -0.9858 0.0222
vn -0.1666 -0.986 -0.0087
vn -0.1663 -0.986 -0.0103
vn -0.1653 -0.9862 0.0025
vn -0.1651 -0.9863 -0.0043
vn -0.165 -0.9845 -0.0587
vn -0.1641 -0.9825 -0.0876
vn -0.1635 -0.9865 -0.002
vn -0.1616 -0.9868 -0.0135
vn -0.1614 -0.9869 0.0014
vn -0.1612 -0.9829 -0.0886
vn -0.1611 -0.9867 0.0215
vn -0.1604 -0.987 -0.0052
vn -0.1584 -0.9873 0.0092
vn -0.1557 -0.9878 0.0045
vn -0.1523 -0.9883 -0.0026
vn -0.151 -0.9885 -0.0005
vn -0.1491 -0.9871 0.0589
vn -0.1471 -0.987 -0.0641
vn -0.1417 -0.986 0.0882
vn -0.1293 -0.9916 -0.0085
vn -0.1236 -0.9922 0.0134
vn -0.114 -0.9935 0.0064
f 22//20 17//45 13//34
f 13//34 14//42 22//20
f 22//20 14//42 21//13
f 21//13 14//42 19//30
f 19//30 14//42 15//46
f 14//42 10//47 15//46
f 9//28 15//46 10//47
f 11//33 15//46 9//28
f 15//46 11//33 18//26
f 11//33 6//50 18//26
f 23//12 19//30 18//26
f 21//13 19//30 23//12
f 21//13 23//12 25//10
f 23//12 29//27 25//10
f 29//27 30//37 25//10
f 32//15 30//37 29//27
f 29//27 35//23 32//15
f 29//27 27//31 35//23
f 27//31 23//12 18//26
f 37//16 32//15 35//23
f 37//16 39//17 32//15
f 32//15 39//17 33//18
f 39//17 42//19 33//18
f 37//16 40//29 39//17
f 39//17 40//29 43//40
f 44//44 43//40 40//29
f 44//44 48//6 43//40
f 50//21 43//40 48//6
f 43//40 50//21 42//19
f 50//21 51//8 42//19
f 51//8 46//32 42//19
f 46//32 51//8 49//4
f 41//35 42//19 46//32
f 46//32 45//25 41//35
f 41//35 45//25 38//39
f 36//7 33//18 41//35
f 33//18 42//19 41//35
f 31//41 33//18 34//14
f 34//14 33//18 36//7
f 31//41 34//14 28//22
f 34//14 38//39 28//22
f 26//11 33//18 31//41
f 33//18 26//11 30//37
f 30//37 26//11 25//10
f 25//10 26//11 22//20
f 26//11 24//5 22//20
f 22//20 24//5 20//38
f 20//38 17//45 22//20
f 17//45 16//36 13//34
f 12//48 13//34 16//36
f 12//48 16//36 8//43
f 16//36 20//38 8//43
f 7//49 13//34 12//48
f 13//34 7//49 10//47
f 9//28 7//49 5//54
f 9//28 10//47 7//49
f 5//54 1//55 3//52
f 5//54 3//52 6//50
f 5//54 7//49 1//55
f 1//55 7//49 2//51
f 7//49 4//53 2//51
f 4//53 8//43 2//51
f 8//43 28//22 2//51
f 8//43 20//38 28//22
f 28//22 20//38 24//5
f 45//25 54//9 38//39
f 38//39 54//9 28//22
f 54//9 2//51 28//22
f 45//25 49//4 54//9
f 54//9 49//4 55//1
f 49//4 51//8 55//1
f 52//2 55//1 51//8
f 55//1 52//2 53//3
f 48//6 53//3 52//2
f 50//21 48//6 52//2
f 47//24 53//3 48//6
f 27//31 3//52 53//3
f 27//31 53//3 35//23
f 40//29 35//23 53//3
f 44//44 40//29 47//24
f 53//3 47//24 40//29
f 18//26 6//50 3//52
f 18//26 3//52 27//31
