# Blender v2.93.1 OBJ File: 'base_link_6.blend'
# www.blender.org
o head_extension_plate
v -0.036749 -0.006217 0.245000
v -0.035883 -0.006717 0.156500
v -0.036749 -0.006217 0.156500
v -0.045526 -0.021791 0.156500
v 0.044659 -0.022202 0.156500
v 0.035883 -0.006717 0.156500
v 0.036749 -0.006217 0.156500
v 0.045598 -0.021814 0.156500
v 0.036749 -0.006217 0.245000
v 0.044527 -0.021861 0.245000
v 0.035883 -0.006717 0.245000
v -0.045598 -0.021814 0.245000
v -0.035883 -0.006717 0.245000
v 0.045526 -0.021791 0.245000
v -0.044620 -0.022227 0.245000
v -0.044591 -0.021948 0.156500
v 0.043824 -0.025315 0.156500
v -0.044963 -0.025432 0.245000
v -0.044821 -0.025695 0.156500
v -0.043932 -0.025101 0.156500
v 0.045209 -0.024781 0.156500
v 0.043975 -0.025130 0.245000
v 0.044821 -0.025695 0.245000
v -0.043975 -0.025130 0.245000
v 0.041733 -0.027776 0.156500
v 0.041862 -0.027779 0.245000
v 0.044125 -0.026403 0.156500
v 0.041582 -0.026765 0.245000
v -0.041558 -0.026819 0.156500
v -0.041785 -0.026731 0.245000
v 0.041558 -0.026819 0.156500
v -0.042084 -0.027697 0.245000
v -0.041801 -0.027807 0.156500
v 0.002281 -0.027868 0.234666
v 0.000546 -0.026868 0.235746
v 0.002298 -0.026868 0.234535
v 0.002791 -0.026868 0.232565
v -0.000383 -0.027868 0.235762
v -0.001666 -0.026868 0.235281
v 0.001052 -0.027868 0.235541
v -0.002281 -0.027868 0.234666
v -0.002711 -0.026868 0.233539
v -0.019800 -0.027868 0.242000
v -0.019800 -0.026868 0.240000
v -0.019800 -0.027868 0.240000
v 0.030200 -0.026868 0.242000
v 0.019800 -0.027868 0.242000
v 0.019800 -0.026868 0.242000
v -0.030200 -0.026868 0.240000
v 0.030200 -0.027868 0.240000
v 0.030200 -0.027868 0.242000
v 0.019800 -0.027868 0.240000
v 0.030200 -0.026868 0.240000
v 0.019800 -0.026868 0.240000
v -0.000551 -0.026868 0.230232
v -0.002328 -0.026868 0.231445
v -0.001666 -0.027868 0.230719
v -0.019800 -0.026868 0.242000
v -0.002750 -0.027868 0.184500
v -0.002037 -0.026868 0.186537
v -0.002298 -0.027868 0.186035
v -0.002746 -0.026868 0.183954
v -0.000551 -0.027868 0.187268
v 0.000546 -0.026868 0.187246
v 0.001052 -0.027868 0.187041
v 0.002328 -0.026868 0.186055
v 0.002298 -0.027868 0.186035
v 0.002750 -0.027868 0.184500
v 0.002661 -0.026868 0.183398
v 0.002224 -0.027868 0.182818
v -0.030200 -0.027868 0.242000
v -0.030200 -0.026868 0.242000
v 0.000000 -0.026868 0.181619
v 0.000383 -0.027868 0.181738
v -0.002037 -0.027868 0.182463
v -0.001945 -0.026868 0.182556
v -0.002711 -0.027868 0.232461
v 0.002750 -0.027868 0.233000
v -0.030200 -0.027868 0.240000
v 0.000546 -0.027868 0.230254
v 0.002281 -0.027868 0.231334
v 0.001666 -0.026868 0.230719
vt 0.107479 0.978877
vt 0.116854 0.020729
vt 0.107479 0.020729
vt 0.012454 0.650668
vt 0.107479 0.819281
vt 0.116854 0.813867
vt 0.988845 0.646219
vt 0.893831 0.813867
vt 0.903207 0.819281
vt 0.999011 0.650419
vt 0.718333 0.978877
vt 0.549472 0.020729
vt 0.718333 0.020729
vt 0.718333 0.978877
vt 0.718333 0.020729
vt 0.549721 0.020729
vt 0.903207 0.978877
vt 0.903207 0.020729
vt 0.893831 0.020729
vt 0.987416 0.649910
vt 0.903207 0.819281
vt 0.893831 0.813867
vt 0.011675 0.650419
vt 0.116854 0.813867
vt 0.107479 0.819281
vt 0.998231 0.650668
vt 0.893831 0.978877
vt 0.116854 0.978877
vt 0.548963 0.978877
vt 0.712920 0.020729
vt 0.545271 0.020729
vt 0.712920 0.978877
vt 0.022263 0.645948
vt 0.548021 0.020729
vt 0.712920 0.020729
vt 0.712920 0.978877
vt 0.545001 0.978877
vt 0.022577 0.648968
vt 0.549721 0.978877
vt 0.549472 0.978877
vt 0.979805 0.612516
vt 0.510302 0.978877
vt 0.507454 0.020729
vt 0.029712 0.614832
vt 0.020087 0.608401
vt 0.517350 0.020729
vt 0.994799 0.618297
vt 0.981439 0.614518
vt 0.990599 0.608401
vt 0.513571 0.978877
vt 0.507454 0.978877
vt 0.513885 0.020729
vt 0.018549 0.611249
vt 0.029246 0.614518
vt 0.511568 0.020729
vt 0.513571 0.978877
vt 0.957166 0.585871
vt 0.958563 0.585839
vt 0.983063 0.600736
vt 0.499789 0.020729
vt 0.955532 0.596817
vt 0.055414 0.596232
vt 0.052956 0.597185
vt 0.052956 0.978877
vt 0.029712 0.020729
vt 0.029246 0.978877
vt 0.055414 0.020729
vt 0.979805 0.020729
vt 0.955532 0.978877
vt 0.981439 0.978877
vt 0.955272 0.596232
vt 0.955272 0.020729
vt 0.049719 0.586727
vt 0.052783 0.585536
vt 0.049719 0.978877
vt 0.020087 0.020729
vt 0.052783 0.020729
vt 0.018549 0.978877
vt 0.983063 0.020729
vt 0.990599 0.978877
vt 0.958563 0.978877
vt 0.530038 0.584875
vt 0.511254 0.595702
vt 0.530222 0.595702
vt 0.494755 0.844249
vt 0.483928 0.866995
vt 0.494755 0.865577
vt 0.501196 0.584875
vt 0.487306 0.595702
vt 0.516732 0.584875
vt 0.494755 0.873654
vt 0.483928 0.866995
vt 0.494755 0.854794
vt 0.480647 0.584875
vt 0.483928 0.946397
vt 0.494755 0.924744
vt 0.483928 0.924744
vt 0.832304 0.595702
vt 0.719708 0.584875
vt 0.719708 0.595702
vt 0.178381 0.595702
vt 0.290977 0.584875
vt 0.290977 0.595702
vt 0.483928 0.924744
vt 0.483928 0.946397
vt 0.494755 0.946397
vt 0.719708 0.584875
vt 0.832304 0.595702
vt 0.719708 0.595702
vt 0.499377 0.595702
vt 0.480139 0.595702
vt 0.487306 0.584875
vt 0.494755 0.946397
vt 0.483928 0.924744
vt 0.494755 0.924744
vt 0.494755 0.946397
vt 0.483928 0.323872
vt 0.494755 0.345925
vt 0.483928 0.340490
vt 0.494755 0.317960
vt 0.499377 0.584875
vt 0.480463 0.584875
vt 0.483289 0.595702
vt 0.832304 0.584875
vt 0.511254 0.595702
vt 0.516732 0.584875
vt 0.530547 0.595702
vt 0.530222 0.584875
vt 0.483928 0.323872
vt 0.483928 0.340490
vt 0.494755 0.340707
vt 0.494755 0.311941
vt 0.483928 0.305661
vt 0.290977 0.584875
vt 0.178381 0.584875
vt 0.178381 0.595702
vt 0.290977 0.595702
vt 0.529421 0.584875
vt 0.505343 0.595702
vt 0.509489 0.584875
vt 0.534152 0.595702
vt 0.494755 0.924744
vt 0.494755 0.946397
vt 0.483928 0.946397
vt 0.483928 0.946397
vt 0.494755 0.924744
vt 0.483928 0.301818
vt 0.494755 0.302825
vt 0.483289 0.584875
vt 0.484285 0.595702
vt 0.957166 0.020729
vt 0.483928 0.843123
vt 0.832304 0.584875
vt 0.483928 0.848958
vt 0.178381 0.584875
vt 0.483928 0.924744
vt 0.511254 0.584875
vt 0.483928 0.830921
vt 0.494755 0.824263
vt 0.530038 0.584875
vt 0.523380 0.595702
vt 0.483928 0.824263
vt 0.494755 0.832123
vt 0.475613 0.317960
vt 0.484285 0.302825
vt 0.505343 0.292681
vt 0.534152 0.311941
vt 0.832304 0.924744
vt 0.832304 0.946397
vt 0.511254 0.353601
vt 0.523380 0.824263
vt 0.530547 0.340707
vt 0.535560 0.844249
vt 0.719708 0.924744
vt 0.530222 0.865577
vt 0.719708 0.946397
vt 0.511254 0.878688
vt 0.290977 0.946397
vt 0.487306 0.873654
vt 0.475992 0.854794
vt 0.290977 0.924744
vt 0.480139 0.832123
vt 0.499377 0.818991
vt 0.483289 0.345925
vt 0.178381 0.924744
vt 0.178381 0.946397
vt 0.509489 0.293969
vt 0.529421 0.305661
vt 0.535116 0.323872
vt 0.530222 0.340490
vt 0.530038 0.830921
vt 0.511254 0.819229
vt 0.516732 0.351382
vt 0.499377 0.353840
vt 0.487306 0.824263
vt 0.480463 0.340490
vt 0.483289 0.301818
vt 0.475570 0.323872
vt 0.475992 0.843123
vt 0.290977 0.924744
vt 0.178381 0.924744
vt 0.178381 0.946397
vt 0.719708 0.924744
vt 0.832304 0.924744
vt 0.832304 0.946397
vt 0.535116 0.848958
vt 0.530038 0.866995
vt 0.516732 0.876469
vt 0.719708 0.946397
vt 0.480647 0.866995
vt 0.501196 0.878861
vt 0.290977 0.946397
vn 0.5000 0.8660 0.0000
vn 0.0000 0.0000 -1.0000
vn 0.8705 0.4922 0.0003
vn 0.9544 0.2984 0.0005
vn 0.8698 0.4935 0.0000
vn -0.8705 0.4922 -0.0003
vn -0.8712 0.4910 0.0000
vn -0.9857 0.1683 -0.0007
vn -0.5000 0.8660 0.0000
vn 0.0000 0.0000 1.0000
vn -0.9574 -0.2889 0.0001
vn -0.8693 -0.4943 0.0003
vn -0.9849 -0.1733 -0.0008
vn -0.8685 -0.4957 -0.0000
vn 0.8697 -0.4936 -0.0006
vn 0.8681 -0.4963 -0.0000
vn 0.8713 -0.4908 -0.0013
vn 0.9979 0.0642 0.0017
vn -0.9854 0.1702 -0.0008
vn -0.9845 -0.1754 -0.0009
vn -0.9841 -0.1777 -0.0011
vn 0.9558 -0.2940 0.0004
vn -0.9997 -0.0239 -0.0001
vn -0.9770 0.2130 -0.0005
vn -0.9573 -0.2889 -0.0005
vn 0.9272 -0.3745 0.0002
vn 0.9775 0.2107 0.0008
vn 0.9788 0.2046 0.0010
vn -0.9771 0.2130 -0.0005
vn -0.9659 0.2591 0.0011
vn 0.9762 0.2169 0.0005
vn 0.8390 -0.5441 0.0008
vn 0.6478 -0.7618 -0.0003
vn 0.2090 0.9778 -0.0153
vn 0.5882 0.8087 0.0006
vn 0.5902 0.8073 0.0006
vn 0.0682 0.9977 0.0007
vn -0.5586 0.8294 -0.0006
vn -0.1680 0.9856 -0.0167
vn -0.5641 0.8257 -0.0008
vn -0.0720 0.9974 0.0004
vn -0.2563 -0.9665 0.0115
vn -0.5959 -0.8030 0.0003
vn -0.0603 -0.9982 -0.0011
vn -0.6183 -0.7859 0.0013
vn 0.7157 -0.6984 -0.0000
vn 0.1402 -0.9900 0.0185
vn -0.7382 -0.1029 -0.6667
vn -0.4438 -0.0338 -0.8955
vn -0.5659 -0.0976 -0.8187
vn -0.9962 0.0214 -0.0848
vn -0.9654 -0.0468 -0.2566
vn -0.9700 -0.0153 -0.2427
vn 0.1896 0.0499 -0.9806
vn 0.3571 0.0088 -0.9340
vn 0.0260 -0.0401 -0.9989
vn -0.3762 -0.0004 -0.9265
vn -0.2916 -0.0805 -0.9532
vn 0.7014 0.0069 -0.7127
vn 0.8278 0.0778 -0.5556
vn 0.9336 -0.0023 -0.3582
vn 0.5511 -0.0683 -0.8317
vn -1.0000 0.0000 0.0000
vn 0.3927 0.0100 0.9196
vn 0.7279 -0.0158 0.6855
vn 0.5740 0.0757 0.8154
vn 1.0000 0.0000 0.0000
vn 0.9967 -0.0284 -0.0763
vn 0.9540 -0.1274 -0.2714
vn 0.9537 -0.1079 -0.2808
vn 0.9993 0.0144 0.0337
vn 0.4280 -0.0244 -0.9035
vn 0.5581 0.2513 -0.7908
vn 0.4280 -0.0244 -0.9034
vn 0.2419 0.0305 -0.9698
vn 0.0594 -0.0871 -0.9944
vn -0.1579 -0.0996 -0.9824
vn -0.4544 0.0190 -0.8906
vn -0.7499 -0.0145 -0.6614
vn -0.8311 0.0328 -0.5552
vn -0.3571 0.0108 -0.9340
vn -0.5922 -0.0380 -0.8049
vn -0.9990 0.0181 -0.0398
vn -0.8310 0.0360 -0.5551
vn -0.9064 -0.0536 -0.4191
vn -0.9744 -0.0938 -0.2041
vn -0.9960 0.0090 0.0886
vn -0.9272 0.2370 0.2900
vn -0.5238 -0.1622 0.8363
vn -0.5039 -0.0908 0.8590
vn -0.5405 -0.2327 0.8085
vn 0.9092 0.0248 0.4157
vn 0.9794 -0.0350 0.1987
vn 0.6756 -0.1297 0.7258
vn 0.7916 -0.0264 0.6104
vn 0.2801 0.2185 0.9348
vn 0.3618 0.0487 0.9310
vn 0.6756 -0.1297 0.7257
vn 0.5605 -0.0105 0.8281
vn 0.0579 -0.9983 -0.0008
vn 0.9808 -0.0691 -0.1823
vn 1.0000 0.0061 -0.0056
vn -0.9992 0.0404 -0.0013
vn -0.8175 -0.0843 -0.5697
vn 0.1948 -0.0686 0.9784
vn -0.0053 0.0162 0.9999
vn -0.9968 -0.0373 0.0710
vn -0.9167 -0.0233 0.3988
vn -0.7103 -0.0040 0.7039
vn -0.8187 0.0525 0.5718
vn -0.9168 -0.0233 0.3988
vn -0.5612 -0.0777 0.8240
vn -0.3772 -0.0082 0.9261
vn -0.1889 0.0801 0.9787
vn 0.8431 -0.0789 0.5319
vn 0.9357 0.0001 0.3528
vn 0.9819 0.0718 0.1752
vn 0.0010 1.0000 0.0001
vn 0.0007 1.0000 0.0008
vn -0.0000 1.0000 0.0015
vn -0.0010 1.0000 0.0003
vn -0.0060 1.0000 0.0000
vn -0.0045 0.9998 -0.0172
vn 0.0000 1.0000 0.0000
vn -0.0003 1.0000 0.0002
vn -0.0010 1.0000 -0.0000
vn -0.0001 1.0000 -0.0000
vn -0.0000 0.9999 -0.0137
vn 0.0001 0.9998 -0.0175
vn 0.0001 1.0000 0.0003
vn 0.0003 1.0000 0.0002
vn 0.0009 1.0000 -0.0001
vn 0.0074 1.0000 -0.0002
vn 0.0059 0.9997 -0.0228
vn 0.0003 -1.0000 -0.0021
vn 0.0015 -1.0000 -0.0013
vn 0.0026 -1.0000 0.0004
vn 0.0013 -1.0000 0.0002
vn 0.0005 -1.0000 -0.0004
vn 0.0000 -1.0000 -0.0000
vn -0.0006 -1.0000 -0.0002
vn -0.0012 -1.0000 0.0001
vn -0.0008 -1.0000 -0.0011
vn -0.0017 -1.0000 0.0002
vn -0.0003 -1.0000 -0.0004
vn -0.0001 -1.0000 -0.0004
vn -0.0090 -1.0000 0.0002
vn -0.0051 -0.9996 0.0276
vn 0.0001 -1.0000 -0.0006
vn 0.0049 -1.0000 -0.0004
vn 0.0038 -0.9999 0.0148
vn 0.0000 -0.9999 0.0119
vn 0.0000 -0.9999 0.0148
usemtl Default_OBJ.019
s 1
f 1/1/1 2/2/1 3/3/1
f 4/4/2 3/5/2 2/6/2
f 5/7/2 6/8/2 7/9/2
f 8/10/2 5/7/2 7/9/2
f 9/11/3 8/12/4 7/13/5
f 1/14/6 3/15/7 4/16/8
f 9/17/9 7/18/9 6/19/9
f 10/20/10 9/21/10 11/22/10
f 12/23/10 13/24/10 1/25/10
f 14/26/10 9/21/10 10/20/10
f 9/17/9 6/19/9 11/27/9
f 1/1/1 13/28/1 2/2/1
f 10/29/11 6/30/12 5/31/13
f 10/29/11 11/32/14 6/30/12
f 15/33/10 13/24/10 12/23/10
f 16/34/15 2/35/16 13/36/15
f 16/34/15 13/36/15 15/37/17
f 16/38/2 4/4/2 2/6/2
f 9/11/3 14/39/18 8/12/4
f 1/14/6 4/16/8 12/40/19
f 17/41/2 5/7/2 8/10/2
f 18/42/20 4/16/8 19/43/21
f 20/44/2 19/45/2 16/38/2
f 21/46/22 8/12/4 14/39/18
f 21/47/2 17/41/2 8/10/2
f 22/48/10 14/26/10 10/20/10
f 23/49/10 14/26/10 22/48/10
f 5/31/23 22/50/24 10/29/25
f 18/42/20 12/40/19 4/16/8
f 21/46/22 14/39/18 23/51/26
f 19/45/2 4/4/2 16/38/2
f 15/37/27 20/52/27 16/34/28
f 18/53/10 15/33/10 12/23/10
f 24/54/10 15/33/10 18/53/10
f 5/31/29 17/55/30 22/50/29
f 15/37/27 24/56/31 20/52/27
f 21/47/2 25/57/2 17/41/2
f 23/49/10 22/48/10 26/58/10
f 27/59/2 25/57/2 21/47/2
f 21/46/22 23/51/32 27/60/33
f 22/48/10 28/61/10 26/58/10
f 29/62/2 19/45/2 20/44/2
f 30/63/10 24/54/10 18/53/10
f 30/64/34 20/65/35 24/66/36
f 30/64/34 29/67/37 20/65/35
f 17/68/38 28/69/39 22/70/40
f 17/41/2 25/57/2 31/71/2
f 17/68/38 31/72/41 28/69/39
f 32/73/10 30/63/10 18/53/10
f 33/74/2 19/45/2 29/62/2
f 32/75/42 19/76/43 33/77/44
f 32/75/42 18/78/45 19/76/43
f 27/79/33 23/80/46 26/81/47
f 34/82/48 35/83/49 36/84/50
f 37/85/51 34/86/52 36/87/53
f 38/88/54 39/89/55 35/83/56
f 34/82/48 40/90/57 35/83/49
f 38/88/54 35/83/58 40/90/57
f 39/91/59 41/92/60 42/93/61
f 41/94/59 39/89/62 38/88/54
f 43/95/63 44/96/63 45/97/63
f 46/98/2 47/99/2 48/100/2
f 49/101/10 45/102/10 44/103/10
f 50/104/63 51/105/63 46/106/63
f 52/107/10 53/108/10 54/109/10
f 55/110/64 56/111/65 57/112/66
f 43/95/63 58/113/63 44/96/63
f 52/114/67 54/115/67 48/116/67
f 59/117/68 60/118/69 61/119/70
f 59/117/68 62/120/71 60/118/69
f 63/121/72 61/122/73 60/123/74
f 52/107/10 50/124/10 53/108/10
f 63/121/75 60/123/74 64/125/76
f 26/58/10 28/61/10 32/73/10
f 28/61/10 30/63/10 32/73/10
f 63/121/76 64/125/77 65/126/78
f 65/126/78 66/127/79 67/128/80
f 65/126/78 64/125/81 66/127/82
f 68/129/83 67/130/84 66/131/85
f 68/129/83 66/131/86 69/132/87
f 68/129/83 69/132/87 70/133/88
f 43/134/2 71/135/2 72/136/2
f 43/134/2 72/136/2 58/137/2
f 70/138/89 73/139/89 74/140/90
f 70/138/89 69/141/91 73/139/89
f 49/142/67 72/143/67 71/144/67
f 52/114/67 48/116/67 47/145/67
f 50/104/63 46/106/63 53/146/63
f 25/57/2 33/74/2 31/71/2
f 31/71/2 33/74/2 29/62/2
f 59/117/68 75/147/92 62/120/93
f 76/148/94 62/120/92 75/147/95
f 74/140/96 73/139/97 75/149/97
f 76/150/98 75/149/99 73/139/97
f 27/79/33 26/81/47 25/151/100
f 42/93/101 41/92/61 77/152/102
f 46/98/2 51/153/2 47/99/2
f 37/85/51 78/154/103 34/86/104
f 49/101/10 79/155/10 45/102/10
f 49/142/67 71/144/67 79/156/67
f 55/110/105 57/112/64 80/157/106
f 78/154/103 37/85/107 81/158/108
f 82/159/109 81/158/110 37/85/111
f 81/160/109 82/161/112 80/157/113
f 55/110/106 80/157/114 82/161/113
f 57/162/65 56/163/115 77/152/116
f 77/152/117 56/163/116 42/93/102
f 29/67/37 62/164/118 76/165/119
f 76/165/119 73/166/120 29/67/37
f 29/67/37 73/166/120 31/72/41
f 73/166/120 69/167/121 31/72/41
f 31/72/41 53/168/122 28/69/39
f 53/168/122 46/169/123 28/69/39
f 64/170/124 82/171/125 66/172/126
f 82/171/125 37/173/124 54/174/127
f 37/173/124 36/175/124 54/174/127
f 54/174/127 36/175/124 48/176/128
f 36/175/124 35/177/124 48/176/128
f 58/178/129 48/176/128 35/177/124
f 39/179/124 58/178/129 35/177/124
f 42/180/124 58/178/129 39/179/124
f 58/178/129 42/180/124 44/181/130
f 42/180/124 56/182/131 44/181/130
f 82/171/125 64/170/124 55/183/124
f 64/170/124 60/184/132 55/183/124
f 55/183/124 60/184/132 56/182/131
f 29/67/37 56/182/131 60/184/132
f 62/164/118 29/67/37 60/184/132
f 56/182/131 29/67/37 44/181/130
f 49/185/133 44/181/130 29/67/37
f 29/67/37 30/64/34 49/185/133
f 49/185/133 30/64/34 72/186/134
f 69/167/121 66/172/126 31/72/41
f 82/171/125 31/72/41 66/172/126
f 82/171/125 54/174/127 31/72/41
f 54/174/127 53/168/122 31/72/41
f 72/186/134 30/64/34 58/178/129
f 48/176/128 28/69/39 46/169/123
f 48/176/128 58/178/129 28/69/39
f 28/69/39 58/178/129 30/64/34
f 74/187/135 33/77/44 25/151/100
f 74/187/135 25/151/100 70/188/136
f 70/188/136 25/151/100 68/189/137
f 68/189/137 25/151/100 67/190/138
f 25/151/100 81/191/139 67/190/138
f 81/191/139 80/192/140 67/190/138
f 67/190/138 80/192/140 65/193/140
f 65/193/140 80/192/140 63/194/140
f 80/192/140 57/195/141 63/194/140
f 63/194/140 57/195/141 61/196/142
f 75/197/143 33/77/44 74/187/135
f 75/197/143 59/198/144 33/77/44
f 61/196/142 33/77/44 59/198/144
f 57/195/141 33/77/44 61/196/142
f 77/199/145 33/77/44 57/195/141
f 77/199/145 45/200/146 33/77/44
f 45/200/146 79/201/147 33/77/44
f 33/77/44 79/201/147 32/75/42
f 79/201/147 71/202/148 32/75/42
f 25/151/100 52/203/149 81/191/139
f 52/203/149 25/151/100 50/204/150
f 25/151/100 26/81/47 50/204/150
f 50/204/150 26/81/47 51/205/151
f 78/206/140 81/191/139 52/203/149
f 78/206/140 52/203/149 34/207/140
f 40/208/140 34/207/140 52/203/149
f 52/203/149 47/209/152 40/208/140
f 77/199/145 41/210/140 45/200/146
f 41/210/140 38/211/140 45/200/146
f 43/212/153 45/200/146 38/211/140
f 47/209/152 43/212/153 38/211/140
f 47/209/152 26/81/47 43/212/153
f 71/202/148 43/212/153 26/81/47
f 26/81/47 32/75/42 71/202/148
f 47/209/152 51/205/151 26/81/47
f 40/208/140 47/209/152 38/211/140
