# Blender v2.93.1 OBJ File: 'base_link_6.blend'
# www.blender.org
o head_right_metal_cover
v -0.164123 0.018747 0.201700
v -0.143169 0.015565 0.237437
v -0.141608 0.015284 0.220177
v -0.202652 0.026036 0.223632
v -0.179880 0.021525 0.201700
v -0.207734 0.026944 0.198908
v -0.185800 0.023077 0.198800
v -0.204610 0.026393 0.167100
v -0.209795 0.026518 0.158171
v -0.193122 0.024165 0.156800
v -0.201648 0.025173 0.157571
v -0.060853 0.001045 0.186468
v -0.046403 -0.002279 0.205445
v -0.045767 -0.001965 0.198004
v -0.185887 0.022584 0.167100
v -0.204697 0.025901 0.198800
v -0.179793 0.022017 0.167500
v -0.164036 0.019239 0.167500
v -0.141594 0.015282 0.186538
v -0.133594 0.013364 0.157250
v -0.048093 -0.001602 0.224565
v -0.045030 -0.002349 0.205265
v -0.123745 0.011627 0.157250
v -0.064165 0.001121 0.157000
v -0.052752 -0.000383 0.162500
v -0.056294 -0.000313 0.157250
v -0.203837 0.025250 0.222324
v -0.051768 -0.000557 0.162500
v -0.046056 -0.001564 0.162500
v -0.051938 -0.000527 0.162485
v -0.060758 0.001028 0.220179
v -0.052752 -0.000383 0.158000
v -0.046052 -0.003258 0.199619
v -0.045259 -0.002696 0.218574
v -0.045345 -0.001871 0.240500
v -0.052371 -0.000450 0.240437
v -0.046066 -0.003536 0.225890
v -0.045116 -0.002511 0.225688
v -0.060834 0.000026 0.186619
v -0.046229 -0.002549 0.162500
v -0.051941 -0.001542 0.162500
v -0.159642 0.017463 0.235256
v -0.060998 0.000055 0.220353
v -0.052163 -0.001273 0.241627
v -0.052926 -0.001368 0.162500
v -0.052926 -0.001368 0.161500
v -0.045314 -0.003615 0.241222
v -0.141966 0.014332 0.220205
v -0.141866 0.014315 0.186639
v -0.204784 0.025409 0.167100
v -0.185974 0.022092 0.198800
v -0.179966 0.021033 0.167500
v -0.164209 0.018254 0.167500
v -0.052926 -0.001368 0.158000
v -0.052806 -0.001389 0.162007
v -0.052434 -0.001455 0.162366
v -0.052112 -0.001512 0.162485
v -0.052260 -0.000470 0.162366
v -0.052693 -0.000394 0.161842
v -0.052753 -0.000383 0.161500
v -0.052522 -0.000424 0.162143
vt 0.282507 0.533381
vt 0.407054 0.745794
vt 0.416332 0.643204
vt 0.053499 0.663740
vt 0.188851 0.533381
vt 0.023293 0.516786
vt 0.153664 0.516144
vt 0.041861 0.327726
vt 0.011042 0.274653
vt 0.110143 0.266505
vt 0.059467 0.271087
vt 0.896323 0.442845
vt 0.982211 0.555641
vt 0.985991 0.511413
vt 0.153147 0.327726
vt 0.041344 0.516144
vt 0.189368 0.330103
vt 0.283024 0.330103
vt 0.416415 0.443261
vt 0.463965 0.269179
vt 0.972166 0.669286
vt 0.990372 0.554571
vt 0.522506 0.269179
vt 0.876637 0.267693
vt 0.944474 0.300384
vt 0.923421 0.269179
vt 0.046455 0.655966
vt 0.950323 0.300384
vt 0.984273 0.300384
vt 0.949312 0.300295
vt 0.896888 0.643216
vt 0.944474 0.273637
vt 0.984297 0.521012
vt 0.989011 0.633677
vt 0.988500 0.764000
vt 0.946738 0.763626
vt 0.550930 0.677161
vt 0.555923 0.633677
vt 0.557023 0.675961
vt 0.560268 0.511413
vt 0.558402 0.555641
vt 0.552583 0.521012
vt 0.989861 0.675961
vt 0.896436 0.443743
vt 0.983245 0.300384
vt 0.949294 0.300384
vt 0.309142 0.732831
vt 0.895461 0.644251
vt 0.947975 0.770699
vt 0.943440 0.300384
vt 0.943440 0.294440
vt 0.984214 0.677161
vt 0.988684 0.768292
vt 0.414204 0.643371
vt 0.414798 0.443861
vt 0.040827 0.327726
vt 0.152630 0.516144
vt 0.188340 0.330103
vt 0.023293 0.566989
vt 0.153664 0.544004
vt 0.041344 0.560789
vt 0.281996 0.330103
vt 0.943440 0.273637
vt 0.944153 0.297454
vt 0.946364 0.299588
vt 0.948278 0.300295
vt 0.983245 0.391688
vt 0.949294 0.397674
vt 0.943440 0.398708
vt 0.947398 0.299588
vt 0.944825 0.296473
vt 0.944468 0.294440
vt 0.945841 0.298262
vt 0.709113 0.516144
vt 0.706182 0.327726
vt 0.703258 0.516144
vt 0.152630 0.538149
vt 0.683376 0.533381
vt 0.686300 0.330103
vt 0.680446 0.330103
vt 0.281996 0.515337
vt 0.283024 0.521192
vt 0.188340 0.531855
vt 0.189368 0.537704
vt 0.702812 0.330103
vt 0.699888 0.533381
vt 0.696964 0.330103
vt 0.725898 0.516144
vt 0.722974 0.327726
vt 0.728822 0.327726
vt 0.040827 0.557865
vt 0.153147 0.541074
vt 0.041861 0.563714
vt 0.662793 0.643204
vt 0.657134 0.643371
vt 0.662781 0.443261
vt 0.657033 0.443861
vt 0.416415 0.497672
vt 0.414798 0.491924
vt 0.896323 0.413050
vt 0.896436 0.406993
vt 0.578159 0.442845
vt 0.572102 0.443743
vt 0.578058 0.643216
vt 0.572275 0.644251
vt 0.896888 0.412949
vt 0.895461 0.407166
vt 0.416332 0.497684
vt 0.414204 0.492025
vt 0.923421 0.404979
vt 0.944474 0.404562
vt 0.943440 0.398708
vt 0.563817 0.273637
vt 0.569671 0.273637
vt 0.563692 0.297454
vt 0.569671 0.294440
vt 0.569606 0.296473
vt 0.944153 0.398583
vt 0.944825 0.404497
vt 0.946364 0.398191
vt 0.569427 0.298262
vt 0.563299 0.299588
vt 0.947398 0.404045
vt 0.945841 0.404319
vt 0.949312 0.403707
vt 0.984273 0.397543
vt 0.556797 0.300384
vt 0.562652 0.300384
vt 0.560827 0.764000
vt 0.550461 0.768292
vt 0.988500 0.395718
vt 0.946738 0.404164
vt 0.988684 0.385352
vt 0.309142 0.510635
vt 0.053499 0.561592
vt 0.046455 0.556920
vn 0.1637 0.9865 -0.0052
vn 0.1693 0.9855 -0.0046
vn 0.1599 0.9871 -0.0009
vn 0.1896 0.9819 0.0012
vn 0.2182 0.9758 0.0117
vn 0.1829 0.9831 0.0011
vn 0.1874 0.9822 0.0106
vn 0.1682 0.9852 -0.0316
vn 0.1017 0.9938 -0.0451
vn 0.1497 0.9887 -0.0085
vn 0.1328 0.9875 -0.0852
vn 0.1750 0.9846 0.0022
vn 0.1335 0.9905 -0.0315
vn 0.1718 0.9846 0.0322
vn 0.1267 0.9915 0.0288
vn 0.3253 0.9455 0.0156
vn 0.1506 0.9884 0.0180
vn 0.1747 0.9845 -0.0127
vn 0.1692 0.9856 -0.0067
vn 0.1791 0.9836 -0.0213
vn 0.2422 0.9701 -0.0167
vn 0.1673 0.9843 -0.0559
vn 0.1736 0.9847 -0.0171
vn 0.1641 0.9853 -0.0465
vn 0.1547 0.9879 -0.0142
vn 0.1011 0.9934 -0.0550
vn -0.0908 -0.9957 -0.0158
vn -0.1025 -0.9947 -0.0124
vn -0.0866 -0.9962 -0.0060
vn 0.1739 0.9848 -0.0006
vn 0.1788 0.9839 0.0037
vn 0.1740 0.9847 -0.0007
vn 0.1978 0.9802 -0.0063
vn 0.0198 0.9998 0.0000
vn 0.0379 0.9945 -0.0978
vn 0.0288 0.9860 -0.1640
vn 0.3601 0.9329 -0.0000
vn 0.2358 0.9718 -0.0002
vn 0.2518 0.9674 -0.0271
vn 0.1935 0.9810 -0.0109
vn 0.7354 -0.6773 0.0217
vn 0.7337 -0.6795 0.0029
vn 0.9842 -0.1737 0.0346
vn 0.9897 -0.1188 0.0796
vn 0.9846 -0.1735 0.0204
vn 0.3035 0.9522 -0.0337
vn -0.2019 -0.9792 -0.0177
vn -0.1700 -0.9853 -0.0143
vn -0.1807 -0.9835 0.0025
vn -0.1737 -0.9848 -0.0000
vn -0.1746 -0.9846 -0.0068
vn -0.1604 -0.9869 0.0147
vn -0.2084 -0.9778 -0.0201
vn -0.1945 -0.9809 -0.0085
vn -0.2586 -0.9656 -0.0281
vn -0.2989 -0.9543 -0.0000
vn -0.6669 -0.7424 -0.0634
vn -0.7004 -0.7131 0.0307
vn -0.1847 -0.9828 -0.0040
vn -0.1850 -0.9827 -0.0032
vn -0.1781 -0.9840 -0.0066
vn -0.1854 -0.9826 -0.0128
vn -0.1844 -0.9828 0.0093
vn -0.2215 -0.9741 0.0446
vn -0.3261 -0.9434 -0.0596
vn -0.3182 -0.9475 -0.0317
vn -0.1668 -0.9860 0.0064
vn -0.1976 -0.9796 0.0353
vn -0.1391 -0.9903 0.0072
vn 0.0269 0.1803 -0.9833
vn 0.0135 0.0905 -0.9958
vn -0.2205 -0.9754 -0.0023
vn -0.1732 -0.9847 -0.0179
vn -0.1672 -0.9849 0.0438
vn -0.2047 -0.9788 0.0113
vn -0.1419 -0.9896 -0.0220
vn -0.1690 -0.9853 -0.0240
vn -0.0936 -0.9944 -0.0500
vn -0.1868 -0.9817 -0.0379
vn -0.1737 -0.9847 -0.0170
vn -0.3197 0.7664 0.5572
vn -0.2362 -0.9717 -0.0000
vn -0.1729 -0.9849 -0.0001
vn -0.1740 -0.9847 -0.0008
vn -0.1738 -0.9847 0.0091
vn 0.0290 0.0355 -0.9989
vn 0.0146 -0.0000 -0.9999
vn 0.1734 0.9848 -0.0096
vn 0.1724 0.9850 0.0000
vn 0.1741 0.9847 -0.0001
vn 0.1778 0.9841 -0.0005
vn 0.1813 0.9834 -0.0002
vn 0.1741 0.9847 -0.0009
vn -0.9848 0.1739 -0.0000
vn 0.0000 0.0000 -1.0000
vn -0.9849 0.1730 -0.0000
vn 0.0000 0.0000 1.0000
vn 0.9849 -0.1732 0.0000
vn 0.9847 -0.1741 -0.0000
vn 0.9360 -0.3520 0.0004
vn 0.9502 -0.3115 0.0017
vn 0.9627 -0.2705 0.0030
vn 0.0183 0.0988 0.9949
vn 0.0222 0.1229 0.9922
vn 0.0262 0.1470 0.9888
vn -0.9998 -0.0182 0.0028
vn -0.9938 0.1111 -0.0011
vn -0.9711 0.2386 -0.0049
vn -0.0297 -0.1688 -0.9852
vn -0.0165 -0.0988 -0.9950
vn -0.0031 -0.0282 -0.9996
vn 0.2063 -0.0364 -0.9778
vn 0.9843 -0.1739 -0.0304
vn 0.9934 -0.1134 -0.0151
vn 0.9901 -0.1226 -0.0688
vn 0.9914 -0.0966 -0.0880
vn 0.9359 -0.0879 -0.3412
vn 0.6629 -0.1952 -0.7228
vn 0.7769 -0.1160 -0.6188
vn 0.7318 -0.1151 -0.6717
vn 0.8667 -0.1274 -0.4824
vn 0.7630 -0.0738 -0.6421
vn 0.4922 -0.0869 -0.8661
vn 0.6462 -0.1033 -0.7561
vn 0.1282 0.0156 -0.9916
vn 0.3502 -0.0226 -0.9364
vn 0.4921 -0.0870 -0.8662
vn 0.1913 0.0236 -0.9812
vn 0.0142 0.0352 -0.9993
vn 0.0025 -0.0004 -1.0000
vn 0.9849 -0.1730 -0.0080
vn 0.9797 -0.2004 -0.0093
vn 0.9988 -0.0025 -0.0490
vn -0.5628 -0.8242 -0.0632
vn -0.6262 -0.7637 -0.1568
vn 0.7368 -0.6749 0.0406
vn 0.0691 0.3826 0.9213
vn 0.3059 0.8072 0.5048
vn 0.2176 0.8201 0.5292
vn 0.0786 0.8409 0.5355
vn -0.1703 -0.7664 0.6194
vn -0.2442 -0.7161 0.6539
vn 0.0294 0.8533 0.5206
vn -0.3158 -0.6593 0.6823
vn -0.6641 0.7296 0.1633
vn -0.5811 -0.8129 0.0379
vn -0.4193 -0.9074 0.0273
usemtl Default_OBJ.022
s 1
f 1/1/1 2/2/2 3/3/3
f 4/4/4 2/2/2 1/1/1
f 5/5/5 4/4/4 1/1/1
f 6/6/6 4/4/4 7/7/7
f 6/6/6 8/8/8 9/9/9
f 8/8/8 10/10/10 11/11/11
f 12/12/12 13/13/13 14/14/14
f 8/8/8 15/15/15 10/10/10
f 6/6/6 16/16/16 8/8/8
f 7/7/7 17/17/17 15/15/15
f 17/17/17 18/18/18 10/10/10
f 19/19/19 20/20/20 18/18/18
f 13/13/13 21/21/21 22/22/22
f 7/7/7 5/5/5 17/17/17
f 10/10/10 18/18/18 20/20/20
f 12/12/12 23/23/23 19/19/19
f 17/17/17 10/10/10 15/15/15
f 24/24/24 25/25/25 26/26/26
f 9/9/27 16/16/28 27/27/29
f 24/24/24 23/23/23 12/12/12
f 28/28/30 29/29/31 30/30/32
f 25/25/25 24/24/24 12/12/12
f 28/28/30 25/25/25 12/12/12
f 20/20/20 19/19/19 23/23/23
f 29/29/31 28/28/30 12/12/12
f 1/1/1 3/3/3 19/19/19
f 31/31/33 13/13/13 12/12/12
f 26/26/26 25/25/25 32/32/34
f 13/13/13 22/22/35 33/33/36
f 19/19/19 18/18/18 1/1/1
f 31/31/33 21/21/21 13/13/13
f 21/21/21 34/34/37 22/22/38
f 35/35/39 21/21/21 36/36/40
f 9/9/9 8/8/8 11/11/11
f 37/37/41 34/38/42 38/39/41
f 14/40/43 13/41/44 33/42/45
f 36/36/40 31/31/33 2/2/2
f 3/3/3 2/2/2 31/31/33
f 29/29/31 12/12/12 14/14/14
f 31/31/33 36/36/40 21/21/21
f 38/43/46 21/21/21 35/35/39
f 33/33/47 39/44/48 40/45/49
f 39/44/48 41/46/50 40/45/49
f 42/47/51 43/48/52 44/49/53
f 45/50/54 26/26/55 46/51/56
f 21/21/57 37/52/57 47/53/58
f 48/54/59 43/48/52 42/47/51
f 39/44/48 45/50/54 41/46/50
f 48/54/59 1/1/60 49/55/61
f 50/56/62 11/11/63 15/15/64
f 47/53/65 44/49/53 21/21/66
f 48/54/59 42/47/51 1/1/60
f 51/57/67 52/58/68 5/5/69
f 15/15/64 52/58/68 51/57/67
f 6/59/70 7/60/71 16/61/71
f 50/56/62 16/16/28 9/9/72
f 53/62/73 49/55/61 1/1/60
f 34/34/74 21/21/75 43/48/52
f 39/44/48 13/13/76 43/48/52
f 20/20/77 53/62/73 11/11/63
f 43/48/52 13/13/76 34/34/74
f 39/44/48 14/14/78 13/13/76
f 53/62/73 20/20/77 49/55/61
f 24/24/79 39/44/48 23/23/80
f 9/9/27 11/11/63 50/56/62
f 5/5/69 27/27/29 51/57/67
f 14/14/81 39/44/81 33/33/81
f 42/47/51 27/27/29 5/5/69
f 52/58/68 15/15/64 11/11/63
f 23/23/80 39/44/48 49/55/61
f 53/62/73 52/58/68 11/11/63
f 23/23/80 49/55/61 20/20/77
f 5/5/69 1/1/60 42/47/51
f 21/21/75 44/49/53 43/48/52
f 45/50/54 39/44/48 24/24/79
f 24/24/79 26/26/55 45/50/54
f 54/63/82 55/64/83 45/50/54
f 55/64/83 56/65/84 45/50/54
f 56/65/84 57/66/85 45/50/54
f 57/66/85 40/45/49 45/50/54
f 40/67/86 41/68/87 45/69/87
f 56/65/84 40/45/49 57/66/85
f 40/45/88 57/66/88 41/46/88
f 46/51/89 55/64/89 54/63/89
f 26/26/55 54/63/82 46/51/56
f 27/27/29 16/16/28 51/57/67
f 25/25/25 30/30/32 58/70/90
f 7/7/7 4/4/4 5/5/5
f 25/25/25 59/71/91 60/72/92
f 25/25/25 61/73/93 59/71/91
f 25/25/25 58/70/90 61/73/93
f 30/30/32 25/25/25 28/28/30
f 7/74/94 15/75/94 51/76/94
f 51/77/95 16/61/71 7/60/71
f 1/78/96 18/79/96 53/80/96
f 53/81/97 18/82/97 52/83/97
f 18/82/97 17/84/97 52/83/97
f 17/85/98 5/86/98 52/87/98
f 16/88/99 50/89/99 8/90/99
f 50/91/97 15/92/97 8/93/97
f 3/94/100 48/95/101 19/96/101
f 48/95/101 49/97/102 19/96/101
f 19/98/103 49/99/104 12/100/104
f 49/99/104 39/101/105 12/100/104
f 12/102/106 39/103/107 31/104/107
f 39/103/107 43/105/108 31/104/107
f 31/106/109 43/107/110 3/108/110
f 43/107/110 48/109/111 3/108/110
f 26/110/112 32/111/112 54/112/112
f 54/113/113 32/114/114 55/115/115
f 60/116/116 55/115/115 32/114/114
f 60/116/116 59/117/117 55/115/115
f 55/118/118 59/119/119 56/120/120
f 59/117/121 61/121/122 56/122/120
f 58/123/123 56/120/124 61/124/122
f 30/125/125 56/120/126 58/123/127
f 56/120/128 30/125/125 40/67/129
f 30/125/125 29/126/130 40/67/129
f 40/127/131 29/128/132 33/42/45
f 14/40/43 33/42/45 29/128/132
f 34/34/37 21/21/21 38/43/46
f 35/129/133 47/130/133 37/37/133
f 37/52/57 21/21/134 34/34/135
f 37/37/41 38/39/41 35/129/136
f 35/131/137 36/132/137 47/133/137
f 47/53/138 36/36/139 44/49/139
f 36/36/139 2/2/140 44/49/139
f 44/49/141 2/2/141 42/47/142
f 2/2/140 4/4/143 42/47/143
f 42/134/142 4/135/144 27/136/144
f 4/4/145 6/6/145 27/27/145
f 27/27/146 6/6/146 9/9/147
