o eye
v 0.0 0.00085 -0.006
v 0.0 -0.00085 -0.006
v -0.000975 0.00085 -0.005885
v -0.000975 -0.00085 -0.005885
v -0.001913 0.00085 -0.005543
v -0.001913 -0.00085 -0.005543
v -0.002778 0.00085 -0.004989
v -0.002778 -0.00085 -0.004989
v -0.003536 0.00085 -0.004243
v -0.003536 -0.00085 -0.004243
v -0.004157 0.00085 -0.003333
v -0.004157 -0.00085 -0.003333
v -0.004619 0.00085 -0.002296
v -0.004619 -0.00085 -0.002296
v -0.004904 0.00085 -0.001171
v -0.004904 -0.00085 -0.001171
v -0.005 0.00085 0.0
v -0.005 -0.00085 0.0
v -0.004904 0.00085 0.001171
v -0.004904 -0.00085 0.001171
v -0.004619 0.00085 0.002296
v -0.004619 -0.00085 0.002296
v -0.004157 0.00085 0.003333
v -0.004157 -0.00085 0.003333
v -0.003536 0.00085 0.004243
v -0.003536 -0.00085 0.004243
v -0.002778 0.00085 0.004989
v -0.002778 -0.00085 0.004989
v -0.001913 0.00085 0.005543
v -0.001913 -0.00085 0.005543
v -0.000975 0.00085 0.005885
v -0.000975 -0.00085 0.005885
v 0.0 0.00085 0.006
v 0.0 -0.00085 0.006
v 0.000975 0.00085 0.005885
v 0.000975 -0.00085 0.005885
v 0.001913 0.00085 0.005543
v 0.001913 -0.00085 0.005543
v 0.002778 0.00085 0.004989
v 0.002778 -0.00085 0.004989
v 0.003536 0.00085 0.004243
v 0.003536 -0.00085 0.004243
v 0.004157 0.00085 0.003333
v 0.004157 -0.00085 0.003333
v 0.004619 0.00085 0.002296
v 0.004619 -0.00085 0.002296
v 0.004904 0.00085 0.001171
v 0.004904 -0.00085 0.001171
v 0.005 0.00085 0.0
v 0.005 -0.00085 0.0
v 0.004904 0.00085 -0.001171
v 0.004904 -0.00085 -0.001171
v 0.004619 0.00085 -0.002296
v 0.004619 -0.00085 -0.002296
v 0.004157 0.00085 -0.003333
v 0.004157 -0.00085 -0.003333
v 0.003536 0.00085 -0.004243
v 0.003536 -0.00085 -0.004243
v 0.002778 0.00085 -0.004989
v 0.002778 -0.00085 -0.004989
v 0.001913 0.00085 -0.005543
v 0.001913 -0.00085 -0.005543
v 0.000975 0.00085 -0.005885
v 0.000975 -0.00085 -0.005885
vt 0.0814 0.1418
vt 0.0814 0.0965
vt 0.0564 0.1418
vt 0.0564 0.0965
vt 0.0333 0.1418
vt 0.0333 0.0965
vt 0.0847 0.2081
vt 0.1301 0.2081
vt 0.0847 0.1804
vt 0.1301 0.1804
vt 0.0847 0.1504
vt 0.1301 0.1504
vt 0.0847 0.1191
vt 0.1301 0.1191
vt 0.0847 0.0879
vt 0.1301 0.0879
vt 0.0847 0.0579
vt 0.1301 0.0579
vt 0.0847 0.0302
vt 0.1301 0.0302
vt 0.0131 0.1418
vt 0.0131 0.0965
vt 0.0333 0.0965
vt 0.0333 0.1418
vt 0.0333 0.1418
vt 0.0333 0.0965
vt 0.0564 0.0965
vt 0.0564 0.1418
vt 0.0564 0.1418
vt 0.0564 0.0965
vt 0.0814 0.0965
vt 0.0814 0.1418
vt 0.0814 0.1418
vt 0.0814 0.0965
vt 0.1074 0.0965
vt 0.1074 0.1418
vt 0.1074 0.1418
vt 0.1074 0.0965
vt 0.1334 0.1418
vt 0.1334 0.0965
vt 0.1585 0.1418
vt 0.1585 0.0965
vt 0.1815 0.1418
vt 0.1815 0.0965
vt 0.0847 0.0059
vt 0.1301 0.0059
vt 0.1301 0.0302
vt 0.0847 0.0302
vt 0.0847 0.0302
vt 0.1301 0.0302
vt 0.1301 0.0579
vt 0.0847 0.0579
vt 0.0847 0.0579
vt 0.1301 0.0579
vt 0.1301 0.0879
vt 0.0847 0.0879
vt 0.0847 0.0879
vt 0.1301 0.0879
vt 0.1301 0.1191
vt 0.0847 0.1191
vt 0.0847 0.1191
vt 0.1301 0.1191
vt 0.1301 0.1504
vt 0.0847 0.1504
vt 0.0847 0.1504
vt 0.1301 0.1504
vt 0.1301 0.1804
vt 0.0847 0.1804
vt 0.0847 0.1804
vt 0.1301 0.1804
vt 0.1301 0.2081
vt 0.0847 0.2081
vt 0.0847 0.2081
vt 0.1301 0.2081
vt 0.1301 0.2323
vt 0.0847 0.2323
vt 0.2018 0.1418
vt 0.2018 0.0965
vt 0.1815 0.0965
vt 0.1815 0.1418
vt 0.1815 0.1418
vt 0.1815 0.0965
vt 0.1585 0.0965
vt 0.1585 0.1418
vt 0.1107 0.7921
vt 0.0957 0.7903
vt 0.0807 0.7921
vt 0.0662 0.7973
vt 0.0529 0.8059
vt 0.0412 0.8174
vt 0.0316 0.8314
vt 0.0245 0.8474
vt 0.0201 0.8648
vt 0.0186 0.8828
vt 0.0201 0.9009
vt 0.0245 0.9182
vt 0.0316 0.9342
vt 0.0412 0.9482
vt 0.0529 0.9598
vt 0.0662 0.9683
vt 0.0807 0.9736
vt 0.0957 0.9753
vt 0.1107 0.9736
vt 0.1252 0.9683
vt 0.1385 0.9598
vt 0.1502 0.9482
vt 0.1598 0.9342
vt 0.1669 0.9182
vt 0.1713 0.9009
vt 0.1728 0.8828
vt 0.1713 0.8648
vt 0.1669 0.8474
vt 0.1598 0.8314
vt 0.1502 0.8174
vt 0.1385 0.8059
vt 0.1252 0.7973
vt 0.1252 0.7973
vt 0.0957 0.7903
vt 0.0662 0.7973
vt 0.0662 0.7973
vt 0.0412 0.8174
vt 0.0245 0.8474
vt 0.0245 0.8474
vt 0.0186 0.8828
vt 0.0245 0.9182
vt 0.0245 0.9182
vt 0.0412 0.9482
vt 0.0662 0.9683
vt 0.0662 0.9683
vt 0.0957 0.9753
vt 0.1252 0.9683
vt 0.1252 0.9683
vt 0.1502 0.9482
vt 0.1669 0.9182
vt 0.1669 0.9182
vt 0.1728 0.8828
vt 0.1669 0.8474
vt 0.1669 0.8474
vt 0.1502 0.8174
vt 0.1252 0.7973
vt 0.1252 0.7973
vt 0.0662 0.7973
vt 0.0245 0.8474
vt 0.0245 0.8474
vt 0.0245 0.9182
vt 0.0662 0.9683
vt 0.0662 0.9683
vt 0.1252 0.9683
vt 0.1669 0.9182
vt 0.1669 0.9182
vt 0.1669 0.8474
vt 0.1252 0.7973
vt 0.1252 0.7973
vt 0.0245 0.8474
vt 0.0662 0.9683
vt 0.0662 0.9683
vt 0.1669 0.9182
vt 0.1252 0.7973
vt 0.1585 0.1418
vt 0.1585 0.0965
vt 0.1334 0.0965
vt 0.1334 0.1418
vt 0.1074 0.0965
vt 0.1074 0.1418
vt 0.1334 0.1418
vt 0.1334 0.0965
vt 0.5 0.9981
vt 0.4029 0.9885
vt 0.3095 0.9602
vt 0.2235 0.9142
vt 0.1481 0.8522
vt 0.0862 0.7767
vt 0.0402 0.6906
vt 0.0119 0.5972
vt 0.0023 0.5
vt 0.0119 0.4028
vt 0.0402 0.3094
vt 0.0862 0.2233
vt 0.1481 0.1478
vt 0.2235 0.0858
vt 0.3095 0.0398
vt 0.4029 0.0115
vt 0.5 0.0019
vt 0.5971 0.0115
vt 0.6905 0.0398
vt 0.7765 0.0858
vt 0.8519 0.1478
vt 0.9138 0.2233
vt 0.9598 0.3094
vt 0.9881 0.4028
vt 0.9977 0.5
vt 0.9881 0.5972
vt 0.9598 0.6906
vt 0.9138 0.7767
vt 0.8519 0.8522
vt 0.7765 0.9142
vt 0.6905 0.9602
vt 0.5971 0.9885
vt 0.5971 0.9885
vt 0.4029 0.9885
vt 0.2235 0.9142
vt 0.2235 0.9142
vt 0.0862 0.7767
vt 0.0119 0.5972
vt 0.0119 0.5972
vt 0.0119 0.4028
vt 0.0862 0.2233
vt 0.0862 0.2233
vt 0.2235 0.0858
vt 0.4029 0.0115
vt 0.4029 0.0115
vt 0.5971 0.0115
vt 0.7765 0.0858
vt 0.7765 0.0858
vt 0.9138 0.2233
vt 0.9881 0.4028
vt 0.9881 0.4028
vt 0.9881 0.5972
vt 0.9138 0.7767
vt 0.9138 0.7767
vt 0.7765 0.9142
vt 0.5971 0.9885
vt 0.5971 0.9885
vt 0.2235 0.9142
vt 0.0119 0.5972
vt 0.0119 0.5972
vt 0.0862 0.2233
vt 0.4029 0.0115
vt 0.4029 0.0115
vt 0.7765 0.0858
vt 0.9881 0.4028
vt 0.9881 0.4028
vt 0.9138 0.7767
vt 0.5971 0.9885
vt 0.5971 0.9885
vt 0.0119 0.5972
vt 0.4029 0.0115
vt 0.4029 0.0115
vt 0.9881 0.4028
vt 0.5971 0.9885
vn 0.0 0.0 -1.0
vn -0.2314 -0.0 -0.9729
vn -0.4436 -0.0 -0.8962
vn -0.6237 -0.0 -0.7816
vn -0.7673 -0.0 -0.6412
vn -0.8732 -0.0 -0.4873
vn -0.9449 -0.0 -0.3275
vn -0.9864 -0.0 -0.1642
vn -1.0 0.0 0.0
vn -0.9864 0.0 0.1642
vn -0.9449 0.0 0.3275
vn -0.8732 0.0 0.4873
vn -0.7673 0.0 0.6412
vn -0.6237 0.0 0.7816
vn -0.4436 0.0 0.8962
vn -0.2314 0.0 0.9729
vn 0.0 0.0 1.0
vn 0.2314 0.0 0.9729
vn 0.4436 0.0 0.8962
vn 0.6237 0.0 0.7816
vn 0.7673 0.0 0.6412
vn 0.8732 0.0 0.4873
vn 0.9449 0.0 0.3275
vn 0.9864 0.0 0.1642
vn 1.0 0.0 0.0
vn 0.9864 0.0 -0.1642
vn 0.9449 0.0 -0.3275
vn 0.8732 0.0 -0.4873
vn 0.7673 0.0 -0.6412
vn 0.6237 0.0 -0.7816
vn 0.4436 0.0 -0.8962
vn 0.0 -1.0 0.0
vn 0.2314 0.0 -0.9729
vn 0.0 1.0 0.0
f 1/36/1 2/35/1 4/2/2 3/1/2
f 3/1/2 4/2/2 6/4/3 5/3/3
f 5/3/3 6/4/3 8/6/4 7/5/4
f 7/5/4 8/6/4 10/22/5 9/21/5
f 9/76/5 10/75/5 12/8/6 11/7/6
f 11/7/6 12/8/6 14/10/7 13/9/7
f 13/9/7 14/10/7 16/12/8 15/11/8
f 15/11/8 16/12/8 18/14/9 17/13/9
f 17/13/9 18/14/9 20/16/10 19/15/10
f 19/15/10 20/16/10 22/18/11 21/17/11
f 21/17/11 22/18/11 24/20/12 23/19/12
f 23/19/12 24/20/12 26/46/13 25/45/13
f 25/21/13 26/22/13 28/23/14 27/24/14
f 27/25/14 28/26/14 30/27/15 29/28/15
f 29/29/15 30/30/15 32/31/16 31/32/16
f 31/33/16 32/34/16 34/35/17 33/36/17
f 33/37/17 34/38/17 36/40/18 35/39/18
f 35/39/18 36/40/18 38/42/19 37/41/19
f 37/41/19 38/42/19 40/44/20 39/43/20
f 39/43/20 40/44/20 42/78/21 41/77/21
f 41/45/21 42/46/21 44/47/22 43/48/22
f 43/49/22 44/50/22 46/51/23 45/52/23
f 45/53/23 46/54/23 48/55/24 47/56/24
f 47/57/24 48/58/24 50/59/25 49/60/25
f 49/61/25 50/62/25 52/63/26 51/64/26
f 51/65/26 52/66/26 54/67/27 53/68/27
f 53/69/27 54/70/27 56/71/28 55/72/28
f 55/73/28 56/74/28 58/75/29 57/76/29
f 57/77/29 58/78/29 60/79/30 59/80/30
f 59/81/30 60/82/30 62/83/31 61/84/31
f 6/116/32 4/85/32 2/86/32
f 2/86/32 64/87/32 62/88/32
f 62/88/32 60/89/32 58/90/32
f 58/90/32 56/91/32 54/92/32
f 54/92/32 52/93/32 50/94/32
f 50/94/32 48/95/32 46/96/32
f 46/96/32 44/97/32 42/98/32
f 42/98/32 40/99/32 38/100/32
f 38/100/32 36/101/32 34/102/32
f 34/102/32 32/103/32 30/104/32
f 30/104/32 28/105/32 26/106/32
f 26/106/32 24/107/32 22/108/32
f 22/108/32 20/109/32 18/110/32
f 18/110/32 16/111/32 14/112/32
f 14/112/32 12/113/32 10/114/32
f 10/114/32 8/115/32 6/116/32
f 6/117/32 2/118/32 62/119/32
f 62/120/32 58/121/32 54/122/32
f 54/123/32 50/124/32 46/125/32
f 46/126/32 42/127/32 38/128/32
f 38/129/32 34/130/32 30/131/32
f 30/132/32 26/133/32 22/134/32
f 22/135/32 18/136/32 14/137/32
f 14/138/32 10/139/32 6/140/32
f 6/141/32 62/142/32 54/143/32
f 54/144/32 46/145/32 38/146/32
f 38/147/32 30/148/32 22/149/32
f 22/150/32 14/151/32 6/152/32
f 6/153/32 54/154/32 38/155/32
f 38/156/32 22/157/32 6/158/32
f 61/159/31 62/160/31 64/161/33 63/162/33
f 2/163/1 1/164/1 63/165/33 64/166/33
f 63/198/34 1/167/34 3/168/34
f 3/168/34 5/169/34 7/170/34
f 7/170/34 9/171/34 11/172/34
f 11/172/34 13/173/34 15/174/34
f 15/174/34 17/175/34 19/176/34
f 19/176/34 21/177/34 23/178/34
f 23/178/34 25/179/34 27/180/34
f 27/180/34 29/181/34 31/182/34
f 31/182/34 33/183/34 35/184/34
f 35/184/34 37/185/34 39/186/34
f 39/186/34 41/187/34 43/188/34
f 43/188/34 45/189/34 47/190/34
f 47/190/34 49/191/34 51/192/34
f 51/192/34 53/193/34 55/194/34
f 55/194/34 57/195/34 59/196/34
f 59/196/34 61/197/34 63/198/34
f 63/199/34 3/200/34 7/201/34
f 7/202/34 11/203/34 15/204/34
f 15/205/34 19/206/34 23/207/34
f 23/208/34 27/209/34 31/210/34
f 31/211/34 35/212/34 39/213/34
f 39/214/34 43/215/34 47/216/34
f 47/217/34 51/218/34 55/219/34
f 55/220/34 59/221/34 63/222/34
f 63/223/34 7/224/34 15/225/34
f 15/226/34 23/227/34 31/228/34
f 31/229/34 39/230/34 47/231/34
f 47/232/34 55/233/34 63/234/34
f 63/235/34 15/236/34 31/237/34
f 31/238/34 47/239/34 63/240/34
