o small_wheel_shape
v -0.024968 -0.002002 -0.002933
v -0.024873 0.002907 0.0
v -0.024504 3.3e-05 0.007703
v -0.024285 -0.005967 0.002722
v -0.024264 -0.002522 -0.008004
v -0.024143 0.003169 -0.007995
v -0.023905 0.007406 -0.002785
v -0.023793 0.005848 0.00773
v -0.023723 -0.005473 0.008009
v -0.023528 0.000502 -0.009095
v -0.023518 0.000139 0.009298
v -0.023125 -0.008136 -0.007719
v -0.02302 0.00741 -0.008648
v -0.022536 0.010923 0.001668
v -0.022365 -0.011283 0.00223
v -0.022349 -0.006648 -0.009355
v -0.022072 0.009885 0.008668
v -0.021921 -0.008114 0.009239
v -0.021781 -0.01088 0.007998
v -0.021652 0.006057 -0.009426
v -0.02141 0.011652 -0.008001
v -0.020635 0.014139 -0.001594
v -0.020372 -0.01367 -0.007676
v -0.020346 0.009774 0.009419
v -0.020071 0.014084 0.007674
v -0.019413 -0.012907 -0.009368
v -0.019233 -0.016034 0.002721
v -0.019224 -0.013089 0.009345
v -0.018585 -0.015743 0.008258
v -0.018425 0.014325 -0.009331
v -0.01832 0.01602 -0.008114
v -0.017472 0.015501 0.009263
v -0.017419 -0.018015 -0.001796
v -0.017326 0.018125 -0.001644
v -0.016756 0.017931 0.007297
v -0.016223 -0.018114 -0.008634
v -0.014812 -0.020221 -0.002133
v -0.014566 -0.019783 0.007086
v -0.013938 0.020099 -0.008046
v -0.013742 0.020861 0.002242
v -0.013542 0.019004 -0.009334
v -0.012783 0.020549 0.008609
v -0.012618 -0.019721 0.009319
v -0.011361 -0.021631 -0.007693
v -0.010037 -0.022985 0.001889
v -0.01001 -0.000876 -0.0105
v -0.009902 -0.001973 0.010502
v -0.009732 0.022872 0.004174
v -0.009669 0.023072 -0.002566
v -0.009651 0.002747 -0.010499
v -0.009561 0.003244 0.0105
v -0.009467 -0.02243 0.008013
v -0.009189 0.022512 -0.008225
v -0.009083 -0.004236 -0.010499
v -0.009018 0.021432 0.00934
v -0.008129 -0.005882 0.010499
v -0.008128 0.005884 -0.010499
v -0.007204 -0.006984 -0.0105
v -0.007202 0.006987 0.010499
v -0.007176 0.023305 0.008012
v -0.007118 -0.022255 -0.00936
v -0.007059 -0.023961 -0.002946
v -0.005627 0.008307 -0.010502
v -0.005324 0.022542 -0.009386
v -0.005148 -0.02396 -0.007847
v -0.004855 -0.008852 0.0105
v -0.004813 -0.022832 0.009344
v -0.004379 -0.009028 -0.010501
v -0.004379 0.009028 0.010502
v -0.004154 0.024847 0.000219
v -0.003886 -0.024067 0.008263
v -0.003844 0.024006 -0.008553
v -0.003249 -0.024904 0.001715
v -0.002446 0.009731 -0.010501
v -0.00103 0.009981 0.010499
v -0.001028 -0.009981 -0.0105
v -0.000905 0.023421 0.009341
v -0.000719 -0.010009 0.010502
v -0.000502 0.02432 0.008259
v 0.000881 0.024201 -0.008683
v 0.00143 -0.024462 -0.007694
v 0.001473 0.025154 -4.9e-05
v 0.001605 -0.024358 0.008146
v 0.00186 -0.023358 -0.009313
v 0.001971 0.009902 -0.0105
v 0.002447 -0.009731 -0.0105
v 0.003244 0.009561 0.010501
v 0.003661 -0.009409 0.0105
v 0.004349 -0.024662 0.0
v 0.005628 -0.008307 -0.0105
v 0.005882 0.008129 -0.010498
v 0.006238 0.023686 -0.007988
v 0.006549 -0.022298 0.009359
v 0.00698 0.02335 0.008314
v 0.006985 0.007204 0.0105
v 0.007201 -0.023402 -0.007773
v 0.007204 -0.006985 0.0105
v 0.007254 0.023975 0.0019
v 0.00728 -0.023355 0.00779
v 0.008128 -0.005883 -0.010501
v 0.008307 0.005628 -0.0105
v 0.008824 0.021382 -0.009371
v 0.008844 -0.021539 -0.009342
v 0.009409 0.003662 0.010499
v 0.009561 -0.003243 0.0105
v 0.009731 0.002448 -0.010501
v 0.009902 -0.001971 -0.010499
v 0.009919 -0.022994 0.0
v 0.01 0.0 0.0105
v 0.011085 0.021637 -0.008274
v 0.011263 0.019813 0.009388
v 0.011825 0.022163 0.000288
v 0.012345 -0.021024 0.008519
v 0.012406 -0.021091 -0.007825
v 0.014181 0.019741 0.008632
v 0.014456 0.018342 -0.00927
v 0.015112 0.01936 -0.007642
v 0.015227 -0.019034 0.008007
v 0.01621 -0.019251 -6.1e-05
v 0.016742 -0.016366 -0.009354
v 0.01676 -0.016252 0.009268
v 0.016853 0.018499 0.002591
v 0.017949 -0.016703 -0.007805
v 0.018766 0.012836 0.009401
v 0.018983 -0.015252 0.008002
v 0.019389 0.014578 0.008588
v 0.019592 0.015735 -0.00076
v 0.019679 0.014222 -0.008591
v 0.01971 0.010866 -0.009402
v 0.020241 -0.011401 0.009368
v 0.021048 -0.013615 0.001885
v 0.022056 -0.010596 -0.008313
v 0.022371 0.011555 0.000322
v 0.022399 0.002136 0.009425
v 0.0224 0.009299 -0.008556
v 0.022635 -0.00901 0.008268
v 0.022746 0.008619 0.008496
v 0.022917 -0.004443 -0.00928
v 0.023104 -0.004372 0.009112
v 0.023326 0.002274 -0.009333
v 0.023565 -0.008536 0.002096
v 0.023935 0.007304 -0.00199
v 0.023954 -0.005374 -0.007184
v 0.024061 0.002646 0.008582
v 0.024229 0.005621 0.003942
v 0.024256 -0.002049 0.008051
v 0.024372 0.001722 -0.008064
v 0.024797 -0.001693 0.00509
v 0.024865 -0.002878 -0.002105
v 0.024894 0.002829 -0.002041
vt 0.001 0.181
vt 0.0057 0.2498
vt 0.0109 0.1424
vt 0.0164 0.3139
vt 0.0173 0.1895
vt 0.0421 0.3408
vt 0.0458 0.0982
vt 0.0478 0.3648
vt 0.0748 0.0531
vt 0.0954 0.4095
vt 0.0983 0.5807
vt 0.0991 0.3976
vt 0.1022 0.0417
vt 0.1022 0.4662
vt 0.1024 0.6423
vt 0.1025 0.5029
vt 0.1037 0.9809
vt 0.1096 0.7034
vt 0.1099 0.5971
vt 0.1108 0.7501
vt 0.1126 0.544
vt 0.1137 0.7823
vt 0.1213 0.0216
vt 0.1214 0.6478
vt 0.1329 0.9807
vt 0.1395 0.2379
vt 0.1427 0.1967
vt 0.1509 0.2687
vt 0.1525 0.7821
vt 0.1547 0.0177
vt 0.1627 0.4407
vt 0.1666 0.9806
vt 0.169 0.1553
vt 0.1727 0.294
vt 0.1751 0.0009
vt 0.1767 0.7708
vt 0.1863 0.6957
vt 0.1886 0.5018
vt 0.1892 0.457
vt 0.1953 0.5987
vt 0.1959 0.7821
vt 0.199 0.7371
vt 0.2046 0.1337
vt 0.208 0.9807
vt 0.2099 0.552
vt 0.2102 0.3124
vt 0.2178 0.4329
vt 0.2199 0.6561
vt 0.2256 0.7822
vt 0.2358 0.7801
vt 0.239 0.7824
vt 0.239 0.981
vt 0.2414 0.4513
vt 0.2463 0.0018
vt 0.2477 0.1294
vt 0.2535 0.3155
vt 0.2672 0.4539
vt 0.2706 0.4868
vt 0.273 0.5518
vt 0.279 0.6268
vt 0.2804 0.6947
vt 0.2807 0.7511
vt 0.2817 0.5026
vt 0.2837 0.6087
vt 0.2837 0.8001
vt 0.2862 0.554
vt 0.2862 0.6838
vt 0.288 0.1415
vt 0.2911 0.9988
vt 0.2919 0.7479
vt 0.2922 0.7846
vt 0.2925 0.3002
vt 0.2944 0.4923
vt 0.2948 0.6421
vt 0.2968 0.5741
vt 0.2968 0.7083
vt 0.2969 0.5267
vt 0.2999 0.4593
vt 0.3078 0.8004
vt 0.3133 0.4409
vt 0.3168 0.4207
vt 0.3191 0.2764
vt 0.3192 0.1702
vt 0.3214 0.999
vt 0.3262 0.0225
vt 0.332 0.2484
vt 0.3352 0.2073
vt 0.3373 0.7135
vt 0.3383 0.774
vt 0.3425 0.0155
vt 0.3508 0.8005
vt 0.3556 0.6498
vt 0.3558 0.999
vt 0.3576 0.5962
vt 0.3738 0.4116
vt 0.377 0.4715
vt 0.3771 0.5291
vt 0.3888 0.9989
vt 0.389 0.044
vt 0.3915 0.8003
vt 0.3975 0.7526
vt 0.3975 0.7872
vt 0.3977 0.7034
vt 0.4073 0.3591
vt 0.4116 0.8
vt 0.4116 0.9986
vt 0.4176 0.0851
vt 0.4193 0.3734
vt 0.4295 0.0827
vt 0.4476 0.3382
vt 0.4482 0.6783
vt 0.4512 0.3136
vt 0.4518 0.119
vt 0.453 0.5576
vt 0.4543 0.4999
vt 0.4544 0.4588
vt 0.457 0.7399
vt 0.4586 0.6284
vt 0.4632 0.7981
vt 0.4671 0.2433
vt 0.4674 0.6809
vt 0.4689 0.1855
vt 0.4696 0.5561
vt 0.4702 0.1577
vt 0.4702 0.2865
vt 0.4702 0.4796
vt 0.4702 0.7425
vt 0.4723 0.5972
vt 0.4728 0.5164
vt 0.4732 0.2682
vt 0.4733 0.7574
vt 0.4768 0.1831
vt 0.4802 0.6907
vt 0.4808 0.3195
vt 0.4867 0.5732
vt 0.4886 0.6351
vt 0.4887 0.4709
vt 0.489 0.5138
vt 0.4899 0.7474
vt 0.49 0.791
vt 0.4989 0.3319
vt 0.5068 0.0938
vt 0.51 0.3663
vt 0.5357 0.5887
vt 0.5424 0.6648
vt 0.5486 0.0485
vt 0.5489 0.704
vt 0.5548 0.827
vt 0.5574 0.0607
vt 0.5602 0.3992
vt 0.5654 0.4896
vt 0.5659 0.4499
vt 0.5838 0.6169
vt 0.5844 0.5504
vt 0.5884 0.772
vt 0.5928 0.7252
vt 0.5941 0.8111
vt 0.5968 0.0192
vt 0.6029 0.227
vt 0.6086 0.1947
vt 0.6091 0.2592
vt 0.6119 0.0233
vt 0.6252 0.4443
vt 0.6256 0.1662
vt 0.6266 0.2874
vt 0.6358 0.6696
vt 0.6431 0.4703
vt 0.6449 0.6152
vt 0.646 0.7687
vt 0.6463 0.5136
vt 0.6468 0.8084
vt 0.6474 0.5612
vt 0.648 0.7208
vt 0.6505 0.1458
vt 0.6508 0.0009
vt 0.6531 0.3082
vt 0.6574 0.7839
vt 0.6582 0.5896
vt 0.6582 0.6534
vt 0.659 0.481
vt 0.659 0.7381
vt 0.661 0.5952
vt 0.662 0.7454
vt 0.6644 0.5294
vt 0.6668 0.6622
vt 0.6683 0.479
vt 0.6751 0.7911
vt 0.6758 0.6213
vt 0.6771 0.7014
vt 0.678 0.75
vt 0.6785 0.5708
vt 0.6814 0.0046
vt 0.6822 0.4484
vt 0.6825 0.1339
vt 0.6936 0.3196
vt 0.7076 0.4943
vt 0.7185 0.1333
vt 0.7278 0.7969
vt 0.7279 0.5309
vt 0.7364 0.6552
vt 0.7367 0.3145
vt 0.738 0.0183
vt 0.7457 0.4512
vt 0.7503 0.0022
vt 0.7507 0.4436
vt 0.751 0.1443
vt 0.7543 0.7301
vt 0.7664 0.2979
vt 0.7676 0.5706
vt 0.7682 0.6194
vt 0.7747 0.4911
vt 0.7775 0.1651
vt 0.7813 0.7661
vt 0.7823 0.6881
vt 0.7883 0.2727
vt 0.7942 0.013
vt 0.7949 0.1933
vt 0.8001 0.2342
vt 0.8189 0.4272
vt 0.8237 0.0381
vt 0.8299 0.538
vt 0.8309 0.4919
vt 0.8314 0.4002
vt 0.8315 0.8053
vt 0.8323 0.6417
vt 0.8324 0.5911
vt 0.8329 0.4518
vt 0.8336 0.7227
vt 0.8343 0.7678
vt 0.8395 0.6834
vt 0.8432 0.5422
vt 0.8447 0.6047
vt 0.8447 0.7401
vt 0.8467 0.8496
vt 0.8543 0.4501
vt 0.8545 0.6511
vt 0.8646 0.3964
vt 0.8656 0.6488
vt 0.8661 0.8498
vt 0.8753 0.0791
vt 0.8832 0.0735
vt 0.8845 0.6513
vt 0.8927 0.4504
vt 0.8982 0.8499
vt 0.9004 0.3445
vt 0.9053 0.6491
vt 0.915 0.1165
vt 0.9155 0.1534
vt 0.9234 0.2869
vt 0.9278 0.6514
vt 0.9286 0.3079
vt 0.9326 0.8499
vt 0.9347 0.4505
vt 0.9356 0.1651
vt 0.9427 0.2093
vt 0.9427 0.2543
vt 0.9486 0.649
vt 0.9666 0.8498
vt 0.9673 0.4503
vt 0.9753 0.6511
vt 0.9851 0.6487
vt 0.9875 0.8496
vt 0.9942 0.45
vn -0.9998 -0.0214 -0.0019
vn -0.9973 -0.0428 -0.0592
vn -0.9931 0.1168 0.0063
vn -0.985 0.1726 0.0036
vn -0.9788 -0.2048 0.0041
vn -0.9722 -0.0164 0.2337
vn -0.9667 -0.2496 0.0563
vn -0.956 0.2856 -0.0672
vn -0.9443 0.1003 -0.3134
vn -0.9395 0.222 0.261
vn -0.9307 0.3658 -0.0024
vn -0.9234 -0.3838 -0.002
vn -0.9032 0.4257 0.0546
vn -0.8996 -0.0924 -0.4268
vn -0.8981 -0.3165 -0.3055
vn -0.8851 -0.4638 0.0378
vn -0.8827 -0.2044 0.4232
vn -0.8362 -0.3924 0.3832
vn -0.8333 0.5512 -0.0422
vn -0.8329 0.3739 0.4079
vn -0.8276 0.5614 0.0027
vn -0.827 -0.5622 0.0024
vn -0.8214 0.4591 -0.3384
vn -0.8035 -0.5403 -0.25
vn -0.797 0.2456 -0.5518
vn -0.7787 0.5769 0.2467
vn -0.7688 0.3548 0.532
vn -0.7683 -0.6385 0.0446
vn -0.7384 0.235 -0.6321
vn -0.7197 0.3206 0.6159
vn -0.7123 0.7019 -0.004
vn -0.7057 -0.5854 0.3992
vn -0.7021 0.7119 -0.017
vn -0.7019 -0.7123 -0.004
vn -0.701 -0.7124 -0.0317
vn -0.6889 0.6085 -0.3939
vn -0.6559 0.7064 0.2659
vn -0.6484 0.2984 0.7004
vn -0.6201 -0.7086 -0.3367
vn -0.61 0.0256 -0.792
vn -0.5857 -0.7866 0.1955
vn -0.5783 -0.667 -0.4697
vn -0.5736 -0.8182 -0.04
vn -0.5621 0.827 0.0024
vn -0.5614 -0.8276 0.0027
vn -0.554 0.1753 -0.8138
vn -0.5463 0.8368 0.0367
vn -0.5457 0.2398 0.8029
vn -0.5424 0.7877 -0.2921
vn -0.5106 0.0188 0.8596
vn -0.4991 -0.1758 0.8486
vn -0.4881 0.8086 0.3284
vn -0.4684 0.7632 0.4451
vn -0.4566 0.7296 0.509
vn -0.4372 -0.6465 0.6252
vn -0.424 -0.8644 -0.2703
vn -0.418 -0.4887 -0.7658
vn -0.4085 -0.1023 -0.907
vn -0.3951 0.9147 0.0848
vn -0.3902 -0.9198 0.0405
vn -0.3837 0.9216 -0.0589
vn -0.3765 0.9264 -0.0025
vn -0.3637 -0.8303 0.4222
vn -0.3612 0.2519 -0.8978
vn -0.3598 0.3286 0.8733
vn -0.3546 -0.935 -0.0031
vn -0.3431 -0.2249 -0.912
vn -0.3314 0.7871 -0.5202
vn -0.3291 -0.4873 0.8089
vn -0.3124 -0.2099 0.9264
vn -0.3056 0.433 -0.848
vn -0.3019 -0.9513 -0.0618
vn -0.2872 -0.4124 0.8645
vn -0.2541 0.8767 0.4084
vn -0.2077 0.9782 0.0016
vn -0.2027 0.0925 0.9749
vn -0.1902 0.0487 -0.9805
vn -0.1847 0.8914 -0.414
vn -0.1839 -0.9137 0.3624
vn -0.1812 -0.9159 -0.3582
vn -0.1686 0.406 0.8982
vn -0.1682 0.9857 0.0034
vn -0.1604 -0.9871 0.0032
vn -0.1591 -0.4152 -0.8957
vn -0.1098 -0.9938 0.0165
vn -0.0873 -0.0209 0.996
vn -0.0869 -0.0048 -0.9962
vn -0.0844 -0.4335 0.8972
vn -0.083 0.0229 0.9963
vn -0.0826 0.0235 -0.9963
vn -0.0769 -0.0351 -0.9964
vn -0.0729 0.0476 -0.9962
vn -0.0723 0.3073 -0.9489
vn -0.0701 -0.0516 0.9962
vn -0.0658 0.0613 0.996
vn -0.0625 -0.0616 -0.9961
vn -0.0496 0.0709 -0.9962
vn -0.0453 -0.074 0.9962
vn -0.0447 -0.0772 -0.996
vn -0.04 0.0798 0.996
vn -0.0266 0.9412 0.3369
vn -0.019 0.0824 -0.9964
vn -0.0144 0.3978 0.9173
vn -0.0078 0.0859 0.9963
vn -0.0074 -0.086 -0.9963
vn -0.0028 -0.0863 0.9963
vn 0.0136 0.0852 -0.9963
vn 0.02 -0.0844 -0.9962
vn 0.021 0.9998 -0.0026
vn 0.0256 0.0828 0.9962
vn 0.0265 0.9063 -0.4217
vn 0.0278 0.839 -0.5433
vn 0.034 -0.524 -0.851
vn 0.0397 -0.0797 0.996
vn 0.0468 -0.9609 -0.2729
vn 0.0473 -0.0717 -0.9963
vn 0.0475 0.4971 -0.8664
vn 0.0526 0.0712 -0.9961
vn 0.0589 0.0624 0.9963
vn 0.0628 -0.063 0.996
vn 0.0637 -0.8945 0.4425
vn 0.0705 0.0549 -0.996
vn 0.0724 -0.9974 -0.0027
vn 0.0768 -0.0459 -0.996
vn 0.0801 0.031 0.9963
vn 0.0837 -0.0252 0.9962
vn 0.0837 0.0223 -0.9962
vn 0.0857 0.9963 0.0079
vn 0.0862 0.0009 0.9963
vn 0.0874 -0.0163 -0.996
vn 0.111 -0.4047 0.9077
vn 0.1234 0.2456 0.9615
vn 0.1276 0.3637 -0.9227
vn 0.1592 0.9872 -0.0007
vn 0.1677 -0.9858 0.0039
vn 0.1807 -0.4171 -0.8907
vn 0.2182 0.027 0.9755
vn 0.221 0.7836 0.5807
vn 0.2221 0.1225 -0.9673
vn 0.2272 0.1568 0.9611
vn 0.2433 -0.9699 0.0032
vn 0.247 0.8589 0.4486
vn 0.259 0.9007 0.3487
vn 0.261 0.9135 -0.3121
vn 0.2642 0.3693 0.891
vn 0.2668 -0.8995 -0.346
vn 0.2714 -0.9122 0.3068
vn 0.2768 0.341 -0.8984
vn 0.2844 0.9584 0.0239
vn 0.3156 -0.3286 0.8902
vn 0.3271 -0.3219 -0.8884
vn 0.334 -0.569 0.7514
vn 0.3416 -0.1875 0.921
vn 0.3923 0.0512 -0.9184
vn 0.4034 -0.915 0.0018
vn 0.4046 0.1547 0.9013
vn 0.4054 0.4922 0.7703
vn 0.4062 0.781 -0.4744
vn 0.4271 -0.9042 -0.0023
vn 0.4308 0.3578 -0.8284
vn 0.4365 0.8997 0.0024
vn 0.4509 -0.7747 0.4433
vn 0.4601 0.8879 -0.0019
vn 0.4661 0.8847 0.0052
vn 0.4722 0.6673 0.5759
vn 0.4753 -0.8209 0.3166
vn 0.4837 -0.7958 -0.3644
vn 0.4899 -0.1012 -0.8659
vn 0.5011 0.7265 0.4702
vn 0.5188 0.7914 0.3234
vn 0.5368 0.4594 0.7077
vn 0.5422 0.185 -0.8196
vn 0.5692 -0.8222 0.0024
vn 0.575 -0.0948 0.8126
vn 0.5933 0.185 0.7834
vn 0.6101 0.7488 -0.2591
vn 0.6192 -0.6942 0.367
vn 0.6402 -0.768 0.0172
vn 0.6496 -0.3032 -0.6972
vn 0.6646 0.7455 0.0507
vn 0.6907 0.5099 -0.5128
vn 0.7017 0.7124 0.0013
vn 0.702 -0.6503 -0.2904
vn 0.7181 -0.6959 -0.0031
vn 0.7251 -0.5769 0.3759
vn 0.7262 0.5468 0.4168
vn 0.7396 0.5447 -0.3954
vn 0.757 0.2866 0.5872
vn 0.7723 0.566 0.2885
vn 0.7723 0.635 -0.0172
vn 0.7797 0.0658 0.6227
vn 0.8032 0.306 -0.5111
vn 0.814 0.5808 -0.0039
vn 0.8181 0.3122 0.4829
vn 0.8225 -0.5687 0.0014
vn 0.8239 -0.4005 -0.4009
vn 0.8359 -0.5483 0.0267
vn 0.8382 0.0722 0.5406
vn 0.8472 -0.3494 0.4002
vn 0.8574 0.3251 -0.3989
vn 0.8658 -0.4195 -0.2727
vn 0.8738 0.3485 0.3391
vn 0.893 0.4501 0.0055
vn 0.9083 0.4183 0.0022
vn 0.9286 -0.1379 0.3446
vn 0.9428 0.056 -0.3287
vn 0.9463 -0.1986 -0.2552
vn 0.9513 -0.3061 0.0368
vn 0.9527 0.0726 0.2951
vn 0.957 -0.2902 -0.0034
vn 0.9591 0.2758 -0.0632
vn 0.9623 -0.2719 0.0023
vn 0.9739 0.2128 0.0792
vn 0.9779 0.209 -0.0029
vn 0.9932 -0.108 -0.0445
vn 0.9947 0.1002 -0.0237
vn 0.995 -0.0399 0.0917
vn 0.9994 0.0345 -0.0005
f 47/260/214 46/258/218 51/250/210
f 51/250/210 46/258/218 50/252/212
f 51/250/210 50/252/212 57/244/195
f 51/250/210 57/244/195 59/242/184
f 59/242/184 57/244/195 63/239/173
f 59/242/184 63/239/173 69/236/159
f 69/236/159 63/239/173 74/234/141
f 69/236/159 74/235/141 75/238/123
f 75/238/123 74/235/141 85/243/83
f 75/238/123 85/243/83 87/246/66
f 87/246/66 85/243/83 91/253/45
f 87/246/66 91/253/45 95/257/34
f 95/257/34 91/253/45 101/259/22
f 95/257/34 101/259/22 104/261/12
f 104/261/12 101/259/22 106/263/5
f 104/51/12 106/52/5 109/49/1
f 109/49/1 106/52/5 107/44/4
f 109/49/1 107/44/4 105/41/11
f 105/41/11 107/44/4 100/32/21
f 105/41/11 100/32/21 97/29/31
f 97/29/31 100/32/21 90/25/44
f 97/29/31 90/25/44 88/22/62
f 88/22/62 90/25/44 86/17/75
f 88/105/62 86/106/75 78/100/109
f 78/100/109 86/106/75 76/98/134
f 78/100/109 76/98/134 66/91/163
f 66/91/163 76/98/134 68/93/161
f 66/91/163 68/93/161 58/84/182
f 66/91/163 58/84/182 56/79/193
f 56/79/193 58/84/182 54/69/204
f 56/79/193 54/69/204 47/65/214
f 47/260/214 54/262/204 46/258/218
f 47/33/86 11/7/50 18/13/51
f 18/13/51 28/30/70 47/33/86
f 47/33/86 28/30/70 56/43/94
f 56/43/94 28/30/70 66/55/98
f 43/54/73 66/55/98 28/30/70
f 66/55/98 43/54/73 67/85/88
f 66/55/98 67/85/88 78/68/106
f 78/68/106 67/85/88 93/107/131
f 78/68/106 93/107/131 88/83/114
f 93/107/131 121/122/150 88/83/114
f 88/83/114 121/122/150 97/87/120
f 130/120/153 105/86/126 97/87/120
f 130/120/153 97/87/120 121/122/150
f 105/86/126 130/120/153 134/104/137
f 105/86/126 134/104/137 109/82/129
f 109/82/129 134/104/137 104/72/125
f 124/81/140 104/72/125 134/104/137
f 104/72/125 124/81/140 95/56/119
f 124/81/140 111/47/132 95/56/119
f 95/56/119 111/47/132 87/46/110
f 77/12/103 75/34/104 87/46/110
f 77/12/103 87/46/110 111/47/132
f 77/12/103 69/28/100 75/34/104
f 55/6/81 69/28/100 77/12/103
f 55/6/81 32/2/65 69/28/100
f 69/28/100 32/2/65 59/26/95
f 59/26/95 32/2/65 24/5/76
f 59/26/95 24/5/76 51/27/89
f 24/5/76 11/7/50 51/27/89
f 51/27/89 11/7/50 47/33/86
f 138/193/168 107/195/130 140/205/154
f 107/195/130 138/193/168 100/176/124
f 120/150/151 90/165/116 100/176/124
f 100/176/124 138/193/168 120/150/151
f 90/165/116 120/150/151 103/141/136
f 90/165/116 103/141/136 86/161/108
f 103/141/136 84/130/113 86/161/108
f 86/161/108 84/130/113 76/159/105
f 76/159/105 84/130/113 61/132/84
f 76/159/105 61/132/84 68/160/99
f 68/160/99 61/132/84 26/149/67
f 68/160/99 26/149/67 58/164/96
f 58/164/96 26/149/67 54/174/91
f 54/174/91 26/149/67 16/162/58
f 54/174/91 16/162/58 46/194/87
f 16/162/58 20/202/77 46/194/87
f 46/194/87 20/202/77 50/197/90
f 20/202/77 57/206/92 50/197/90
f 20/202/77 30/220/64 57/206/92
f 57/206/92 30/220/64 63/212/97
f 63/212/97 30/220/64 41/240/71
f 41/240/71 64/248/93 63/212/97
f 63/212/97 64/248/93 74/217/102
f 74/217/102 64/248/93 85/218/107
f 85/218/107 64/248/93 102/249/133
f 85/218/107 102/249/133 91/215/118
f 102/249/133 116/245/148 91/215/118
f 91/215/118 116/245/148 101/208/122
f 129/223/139 101/208/122 116/245/148
f 101/208/122 129/223/139 106/201/127
f 106/201/127 129/223/139 140/205/154
f 106/201/127 140/205/154 107/195/130
f 111/47/132 124/81/140 115/53/145
f 121/122/150 93/107/131 113/113/152
f 139/112/174 134/104/137 130/120/153
f 42/4/54 32/2/65 55/6/81
f 124/81/140 134/104/137 137/95/156
f 146/110/205 144/108/198 139/112/174
f 139/112/174 144/108/191 134/104/137
f 139/67/174 136/74/199 146/76/205
f 139/112/174 130/120/153 136/125/199
f 130/64/153 125/75/185 136/74/199
f 130/64/153 121/66/150 125/75/185
f 121/66/150 118/77/177 125/75/185
f 121/122/150 113/113/162 118/124/177
f 113/113/162 93/107/131 99/109/147
f 93/180/131 83/170/121 99/167/147
f 93/107/131 67/85/88 83/99/121
f 67/85/88 71/90/79 83/99/121
f 67/178/88 52/168/63 71/172/79
f 67/178/88 43/179/69 52/168/63
f 43/179/55 38/166/41 52/168/63
f 29/173/32 38/166/41 43/179/69
f 19/169/18 29/173/32 28/181/70
f 28/30/70 29/35/32 43/54/69
f 9/171/17 19/169/18 18/177/51
f 18/13/51 19/23/18 28/30/70
f 3/190/6 9/187/17 11/183/50
f 11/7/50 9/9/17 18/13/51
f 11/183/50 8/189/10 3/190/6
f 24/5/76 17/1/48 11/7/50
f 11/7/50 17/1/30 8/3/10
f 24/5/76 32/2/65 17/1/38
f 17/185/30 32/182/65 25/188/26
f 32/182/65 35/191/37 25/188/26
f 32/182/65 42/184/53 35/191/37
f 42/4/53 55/6/81 60/8/74
f 55/6/81 77/12/103 60/8/74
f 77/12/103 79/10/101 60/8/74
f 79/58/101 77/63/103 94/59/142
f 111/47/132 94/31/138 77/12/103
f 111/47/132 115/53/165 94/31/142
f 124/81/140 126/80/171 115/53/157
f 126/80/186 124/81/140 137/95/188
f 134/104/137 144/108/191 137/95/175
f 20/202/77 16/162/58 10/192/40
f 114/115/167 96/116/146 103/126/136
f 84/130/113 103/141/136 96/134/146
f 64/248/93 41/240/71 53/247/68
f 103/141/136 120/150/151 114/143/167
f 81/138/115 65/135/80 84/129/113
f 65/135/80 61/128/84 84/129/113
f 65/135/80 44/136/56 61/128/84
f 44/136/56 36/133/42 61/128/84
f 61/132/84 36/142/57 26/149/67
f 23/146/24 26/149/67 36/142/42
f 23/139/24 12/140/15 26/131/67
f 12/158/15 16/162/58 26/149/67
f 12/158/15 5/175/14 16/162/58
f 5/175/14 10/192/40 16/162/58
f 5/229/14 6/228/9 10/233/40
f 6/228/9 13/230/29 10/233/40
f 10/192/40 13/204/29 20/202/77
f 21/216/23 30/220/64 13/204/29
f 13/204/46 30/220/64 20/202/77
f 21/225/23 31/226/36 30/232/64
f 31/226/36 39/221/49 41/231/71
f 31/226/36 41/231/71 30/232/64
f 39/241/49 53/247/68 41/240/71
f 72/254/78 64/248/93 53/247/68
f 72/254/78 80/255/112 64/248/93
f 80/255/117 102/249/133 64/248/93
f 80/255/112 92/256/144 102/249/133
f 92/21/144 110/19/158 102/11/133
f 102/249/133 110/251/158 116/245/148
f 110/19/158 117/24/176 116/15/148
f 128/237/160 129/223/139 116/245/148
f 117/24/176 128/18/181 116/15/148
f 128/237/181 135/219/192 129/223/139
f 135/219/172 140/205/154 129/223/139
f 135/119/192 147/117/206 140/127/154
f 147/117/206 143/111/207 138/121/168
f 147/117/206 138/121/168 140/127/154
f 143/111/207 132/118/196 138/121/168
f 132/118/196 123/114/183 120/123/151
f 132/163/179 120/150/151 138/193/168
f 123/114/183 114/115/167 120/123/151
f 96/137/146 81/138/115 84/129/113
f 71/172/79 73/154/85 83/170/121
f 52/168/63 45/153/60 71/172/79
f 29/173/32 27/156/28 38/166/41
f 19/169/18 15/155/16 29/173/32
f 9/171/17 4/157/7 19/169/18
f 8/189/10 17/185/20 14/200/13
f 40/199/47 35/191/37 42/184/53
f 42/184/53 60/186/74 48/196/59
f 60/57/74 79/58/101 70/39/82
f 82/38/128 79/58/101 94/59/142
f 112/40/164 94/59/142 115/60/170
f 122/48/180 115/60/169 126/61/186
f 133/42/203 126/61/189 137/62/202
f 137/71/194 144/70/198 145/89/213
f 144/70/198 146/76/205 148/88/217
f 136/74/199 141/92/208 146/76/205
f 125/75/185 131/94/197 136/74/199
f 118/77/177 119/97/178 125/75/185
f 73/154/85 65/135/80 81/138/115
f 73/154/85 62/144/72 65/135/80
f 71/172/79 45/153/60 73/154/85
f 73/154/85 45/153/60 62/144/72
f 45/153/60 44/136/56 62/144/72
f 62/144/72 44/136/56 65/135/80
f 52/168/63 38/166/41 45/153/60
f 45/153/60 38/166/41 37/145/43
f 45/153/60 37/145/43 44/136/56
f 44/136/56 37/145/43 36/133/39
f 38/166/41 33/147/35 37/145/43
f 38/166/41 27/156/28 33/147/35
f 37/145/43 33/147/35 36/133/39
f 33/147/35 27/156/28 23/139/24
f 33/147/35 23/139/24 36/133/39
f 29/173/32 15/155/16 27/156/28
f 27/156/28 15/155/16 23/139/24
f 15/155/16 12/140/15 23/139/24
f 19/169/18 4/157/7 15/155/16
f 15/155/16 4/157/7 12/140/15
f 4/157/7 1/148/2 12/140/15
f 12/224/15 1/213/2 5/229/14
f 9/187/17 3/190/6 4/198/7
f 4/198/7 3/190/6 1/213/2
f 3/190/6 2/207/3 1/213/2
f 1/213/2 6/228/9 5/229/14
f 3/190/6 8/189/10 2/207/3
f 2/207/3 7/214/8 1/213/2
f 1/213/2 7/214/8 6/228/9
f 8/189/10 7/214/8 2/207/3
f 7/214/8 13/230/25 6/228/9
f 8/189/10 14/200/13 7/214/8
f 7/214/8 21/225/23 13/230/25
f 17/185/27 25/188/26 14/200/13
f 14/200/13 22/210/19 7/214/8
f 7/214/8 22/210/19 21/225/23
f 25/188/26 22/210/19 14/200/13
f 22/210/19 31/226/36 21/225/23
f 25/188/26 35/191/37 34/209/33
f 25/188/26 34/209/33 22/210/19
f 22/210/19 34/209/33 31/226/36
f 34/209/33 39/221/49 31/226/36
f 35/191/37 40/199/47 34/209/33
f 34/209/33 40/199/47 39/221/49
f 42/184/52 48/196/59 40/199/47
f 40/199/47 48/196/59 49/211/61
f 40/199/47 49/211/61 39/221/49
f 39/221/49 49/211/61 53/222/68
f 60/186/74 70/203/82 48/196/59
f 48/196/59 70/203/82 49/211/61
f 49/211/61 70/203/82 72/227/78
f 49/211/61 72/227/78 53/222/68
f 79/58/101 82/38/128 70/39/82
f 70/39/82 82/38/128 80/16/111
f 70/39/82 80/16/111 72/14/78
f 94/59/143 98/45/149 82/38/128
f 82/38/128 98/45/149 92/21/144
f 82/38/128 92/21/144 80/16/111
f 94/59/143 112/40/164 98/45/149
f 98/45/149 112/40/164 92/21/144
f 92/21/144 112/40/164 110/19/158
f 115/60/170 122/48/180 112/40/164
f 112/40/164 117/24/176 110/19/158
f 112/40/164 122/48/180 117/24/176
f 127/37/190 128/18/187 117/24/176
f 122/48/180 127/37/190 117/24/176
f 126/61/189 127/37/190 122/48/180
f 133/42/203 135/20/200 128/18/187
f 126/61/189 133/42/203 127/37/190
f 127/37/190 133/42/203 128/18/187
f 137/62/202 145/50/213 133/42/203
f 133/42/203 145/50/213 142/36/211
f 133/42/203 142/36/211 135/20/200
f 145/89/213 150/101/216 142/102/211
f 142/102/211 150/101/216 147/117/206
f 142/102/211 147/117/206 135/119/200
f 144/70/209 148/88/217 145/89/213
f 145/89/213 148/88/217 150/101/216
f 148/88/217 149/103/215 150/101/216
f 150/101/216 149/103/215 147/117/206
f 149/103/215 143/111/207 147/117/206
f 146/76/205 141/92/208 148/88/217
f 148/88/217 141/92/208 149/103/215
f 149/103/215 141/92/208 143/111/207
f 141/92/208 132/118/201 143/111/207
f 136/74/199 131/94/197 141/92/208
f 141/92/208 131/94/197 132/118/201
f 131/94/197 123/114/183 132/118/201
f 125/75/185 119/97/178 131/94/197
f 131/94/197 119/97/178 123/114/183
f 118/77/177 113/73/166 119/97/178
f 119/97/178 114/115/167 123/114/183
f 113/73/166 108/96/155 119/97/178
f 119/97/178 108/96/155 114/115/167
f 113/73/166 99/78/147 108/96/155
f 108/96/155 96/116/146 114/115/167
f 99/167/147 89/151/135 108/152/155
f 108/152/155 89/151/135 96/137/146
f 99/167/147 83/170/121 89/151/135
f 89/151/135 81/138/115 96/137/146
f 83/170/121 73/154/85 89/151/135
f 89/151/135 73/154/85 81/138/115
