o arm_7_sh1
v -0.0225 -0.00785 0.0
v -0.0225 0.00785 0.0
v -0.020787 -0.00785 -0.00861
v -0.020787 -0.00785 0.00861
v -0.020787 0.00785 -0.00861
v -0.020787 0.00785 0.00861
v -0.01591 -0.00785 -0.01591
v -0.01591 -0.00785 0.01591
v -0.01591 0.00785 -0.01591
v -0.01591 0.00785 0.01591
v -0.00861 -0.00785 -0.020787
v -0.00861 -0.00785 0.020787
v -0.00861 0.00785 -0.020787
v -0.00861 0.00785 0.020787
v 0.0 -0.00785 -0.0225
v 0.0 -0.00785 0.0225
v 0.0 0.00785 -0.0225
v 0.0 0.00785 0.0225
v 0.00861 -0.00785 -0.020787
v 0.00861 -0.00785 0.020787
v 0.00861 0.00785 -0.020787
v 0.00861 0.00785 0.020787
v 0.01591 -0.00785 -0.01591
v 0.01591 -0.00785 0.01591
v 0.01591 0.00785 -0.01591
v 0.01591 0.00785 0.01591
v 0.020787 -0.00785 -0.00861
v 0.020787 -0.00785 0.00861
v 0.020787 0.00785 -0.00861
v 0.020787 0.00785 0.00861
v 0.0225 -0.00785 0.0
v 0.0225 0.00785 0.0
vt 0.0 0.2003
vt 0.0 0.2997
vt 0.0 0.7003
vt 0.0 0.7997
vt 0.0381 0.1084
vt 0.0381 0.3916
vt 0.0381 0.6084
vt 0.0381 0.8916
vt 0.1084 0.0381
vt 0.1084 0.4619
vt 0.1084 0.5381
vt 0.1084 0.9619
vt 0.2003 0.0
vt 0.2003 0.5
vt 0.2003 1.0
vt 0.2997 0.0
vt 0.2997 0.5
vt 0.2997 1.0
vt 0.3916 0.0381
vt 0.3916 0.4619
vt 0.3916 0.5381
vt 0.3916 0.9619
vt 0.4619 0.1084
vt 0.4619 0.3916
vt 0.4619 0.6084
vt 0.4619 0.8916
vt 0.5 0.0
vt 0.5 0.1779
vt 0.5 0.2003
vt 0.5 0.2482
vt 0.5 0.2997
vt 0.5 0.3401
vt 0.5 0.4396
vt 0.5 0.5314
vt 0.5 0.5315
vt 0.5 0.6018
vt 0.5 0.6937
vt 0.5 0.7003
vt 0.5 0.7931
vt 0.5 0.7997
vt 0.5 0.885
vt 0.5703 0.0
vt 0.5703 0.1779
vt 0.6622 0.0
vt 0.6622 0.1779
vt 0.6779 0.1779
vt 0.6779 0.2482
vt 0.6779 0.2698
vt 0.6779 0.3401
vt 0.6779 0.3692
vt 0.6779 0.4396
vt 0.6779 0.4611
vt 0.6779 0.5314
vt 0.6779 0.5315
vt 0.6779 0.6018
vt 0.6779 0.6937
vt 0.6779 0.7931
vt 0.6779 0.885
vt 0.7617 0.0
vt 0.7617 0.1779
vt 0.8536 0.0
vt 0.8536 0.1779
vt 0.8558 0.1779
vt 0.8558 0.2698
vt 0.8558 0.3692
vt 0.8558 0.4611
vt 0.8558 0.5314
vn -0.9978 0.0 -0.0662
vn -0.9978 0.0 0.0662
vn -0.9472 0.0 -0.3207
vn -0.9472 0.0 0.3207
vn -0.8966 0.0 -0.4429
vn -0.8966 0.0 0.4429
vn -0.7524 0.0 -0.6588
vn -0.7524 0.0 0.6588
vn -0.6588 0.0 -0.7524
vn -0.6588 0.0 0.7524
vn -0.4429 0.0 -0.8966
vn -0.4429 0.0 0.8966
vn -0.3207 0.0 -0.9472
vn -0.3207 0.0 0.9472
vn -0.0662 0.0 -0.9978
vn -0.0662 0.0 0.9978
vn 0.0 -1.0 0.0
vn 0.0 1.0 0.0
vn 0.0662 0.0 -0.9978
vn 0.0662 0.0 0.9978
vn 0.3207 0.0 -0.9472
vn 0.3207 0.0 0.9472
vn 0.4429 0.0 -0.8966
vn 0.4429 0.0 0.8966
vn 0.6588 0.0 -0.7524
vn 0.6588 0.0 0.7524
vn 0.7524 0.0 -0.6588
vn 0.7524 0.0 0.6588
vn 0.8966 0.0 -0.4429
vn 0.8966 0.0 0.4429
vn 0.9472 0.0 -0.3207
vn 0.9472 0.0 0.3207
vn 0.9978 0.0 -0.0662
vn 0.9978 0.0 0.0662
f 13/42/13 15/45/15 11/43/11
f 9/27/9 11/43/11 7/28/7
f 5/57/5 7/41/7 3/39/3
f 2/56/1 3/39/3 1/37/2
f 6/55/4 1/37/2 4/36/6
f 10/54/8 4/36/6 8/35/10
f 14/51/12 8/34/10 12/33/14
f 18/49/16 12/33/14 16/32/20
f 22/47/22 16/32/20 20/30/24
f 26/46/26 20/30/24 24/28/28
f 30/48/30 24/63/28 28/64/32
f 32/50/34 28/64/32 31/65/33
f 29/52/31 31/65/33 27/66/29
f 25/53/27 27/66/29 23/67/25
f 21/59/23 23/62/25 19/60/21
f 17/44/19 19/60/21 15/45/15
f 14/14/18 30/38/18 21/18/18
f 7/20/17 15/14/17 16/16/17
f 13/42/13 17/44/19 15/45/15
f 9/27/9 13/42/13 11/43/11
f 5/57/5 9/58/9 7/41/7
f 2/56/1 5/57/5 3/39/3
f 6/55/4 2/56/1 1/37/2
f 10/54/8 6/55/4 4/36/6
f 14/51/12 10/53/8 8/34/10
f 18/49/16 14/51/12 12/33/14
f 22/47/22 18/49/16 16/32/20
f 26/46/26 22/47/22 20/30/24
f 30/48/30 26/46/26 24/63/28
f 32/50/34 30/48/30 28/64/32
f 29/52/31 32/50/34 31/65/33
f 25/53/27 29/52/31 27/66/29
f 21/59/23 25/61/27 23/62/25
f 17/44/19 21/59/23 19/60/21
f 21/18/18 17/15/18 13/12/18
f 13/12/18 9/8/18 5/4/18
f 5/4/18 2/3/18 6/7/18
f 6/7/18 10/11/18 14/14/18
f 14/14/18 18/17/18 22/21/18
f 22/21/18 26/25/18 30/38/18
f 30/38/18 32/40/18 29/26/18
f 29/26/18 25/22/18 21/18/18
f 21/18/18 13/12/18 5/4/18
f 5/4/18 6/7/18 14/14/18
f 14/14/18 22/21/18 30/38/18
f 30/38/18 29/26/18 21/18/18
f 21/18/18 5/4/18 14/14/18
f 15/14/17 19/10/17 23/6/17
f 23/6/17 27/2/17 31/1/17
f 31/1/17 28/5/17 24/9/17
f 24/9/17 20/13/17 31/1/17
f 20/13/17 16/16/17 31/1/17
f 16/16/17 12/19/17 8/23/17
f 8/23/17 4/29/17 16/16/17
f 4/29/17 1/31/17 16/16/17
f 1/31/17 3/24/17 7/20/17
f 7/20/17 11/17/17 15/14/17
f 15/14/17 23/6/17 16/16/17
f 23/6/17 31/1/17 16/16/17
f 1/31/17 7/20/17 16/16/17
