o arm_1_sh1
v 0.078552 0.075684 -0.031143
v 0.078552 0.075684 0.01796
v 0.079634 0.075846 -0.041086
v 0.083287 0.076389 -0.051518
v 0.08433 0.076548 0.005555
v 0.085343 0.07678 -0.055522
v 0.08609 0.07696 0.002219
v 0.086214 0.076998 -0.056975
v 0.087951 0.077463 -0.059381
v 0.089276 0.077499 0.005288
v 0.089839 0.077969 -0.061669
v 0.092321 0.077735 0.01001
v 0.093163 0.078606 -0.065203
v 0.094283 0.078064 0.008979
v 0.094302 0.078302 0.006908
v 0.095125 0.078231 0.008604
v 0.096637 0.078843 -0.068249
v 0.096865 0.078557 0.008179
v 0.097519 0.078672 0.008124
v 0.09932 0.078951 0.008248
v 0.099979 0.079039 0.008398
v 0.100551 0.079122 -0.070742
v 0.101641 0.079233 0.009057
v 0.102506 0.079328 -0.071797
v 0.104846 0.079618 -0.072913
v 0.105579 0.081745 -0.061283
v 0.105579 0.081745 -0.001004
v 0.105959 0.079771 0.011102
v 0.106594 0.080771 -0.067078
v 0.107001 0.080829 0.004803
v 0.10724 0.079957 -0.073896
v 0.107242 0.079957 0.01161
v 0.108063 0.080079 0.011939
v 0.108126 0.080089 -0.074249
v 0.109419 0.080285 0.012438
v 0.109591 0.080315 -0.07478
v 0.113088 0.080799 -0.076003
v 0.114409 0.084554 -0.050668
v 0.114435 0.084569 -0.011987
v 0.114465 0.080965 0.014134
v 0.117951 0.081315 -0.077274
v 0.118029 0.081564 -0.07505
v 0.119159 0.085327 -0.006637
v 0.119363 0.081411 0.015248
v 0.119432 0.085405 -0.05548
v 0.119943 0.085848 -0.049969
v 0.119977 0.085855 -0.012321
v 0.122479 0.082224 0.012081
v 0.122999 0.081671 -0.078015
v 0.124073 0.081711 -0.078097
v 0.124333 0.085334 -0.002291
v 0.124435 0.081726 0.015833
v 0.124801 0.086303 -0.007006
v 0.125013 0.086695 -0.012497
v 0.125077 0.085433 -0.060039
v 0.125156 0.086714 -0.049797
v 0.126638 0.08285 -0.073565
v 0.127294 0.086623 -0.055449
v 0.128973 0.082653 -0.076215
v 0.129141 0.081839 -0.078156
v 0.129146 0.081839 0.015869
v 0.129603 0.083304 0.010528
v 0.13016 0.087233 -0.050221
v 0.130361 0.084245 -0.067334
v 0.130499 0.087257 -0.012018
v 0.130522 0.084267 0.00506
v 0.130837 0.086938 -0.006368
v 0.132241 0.083145 0.012732
v 0.13265 0.086973 -0.056741
v 0.134211 0.081786 -0.077656
v 0.134212 0.081786 0.01537
v 0.134563 0.083949 -0.071879
v 0.135502 0.087453 -0.051253
v 0.136127 0.084785 0.006231
v 0.136316 0.087459 -0.010791
v 0.136327 0.083917 0.010325
v 0.136541 0.084805 -0.068668
v 0.138548 0.084706 0.007832
v 0.138846 0.084783 -0.070004
v 0.139051 0.084137 -0.072059
v 0.139157 0.084158 0.009729
v 0.13988 0.083131 -0.07412
v 0.139988 0.083151 0.011768
v 0.14043 0.085585 0.005627
v 0.141592 0.081781 -0.075567
v 0.141594 0.081791 0.013289
v 0.142513 0.08487 -0.069253
v 0.142532 0.085164 0.007095
v 0.142608 0.083364 -0.072745
v 0.142737 0.083365 0.010403
v 0.142917 0.086614 -0.064688
v 0.143172 0.086745 0.001827
v 0.145 0.086118 -0.066487
v 0.145023 0.086125 0.004175
v 0.145689 0.087245 -0.000801
v 0.145701 0.084718 -0.069162
v 0.14578 0.087258 -0.061386
v 0.146182 0.084575 0.006862
v 0.147766 0.086728 0.001304
v 0.147856 0.086741 -0.0635
v 0.148539 0.081786 -0.072326
v 0.148539 0.081786 0.010039
v 0.148686 0.087459 -0.058297
v 0.149551 0.087471 -0.00465
v 0.149719 0.085401 0.003153
v 0.150758 0.086973 -0.060679
v 0.150758 0.086973 -0.001608
v 0.151591 0.085489 -0.063905
v 0.152639 0.08556 0.000553
v 0.154861 0.08177 0.005709
v 0.154868 0.081779 -0.067998
v 0.155204 0.087459 -0.051024
v 0.155408 0.086973 -0.055876
v 0.155408 0.086973 -0.00641
v 0.157554 0.085575 -0.057725
v 0.157559 0.085578 -0.004574
v 0.157689 0.087459 -0.015676
v 0.15897 0.087459 -0.043211
v 0.159174 0.086973 -0.050353
v 0.159174 0.086973 -0.011934
v 0.160419 0.081771 0.000417
v 0.16042 0.081772 -0.062702
v 0.160529 0.087459 -0.02502
v 0.16108 0.087459 -0.033681
v 0.161622 0.085596 -0.051696
v 0.16167 0.08556 -0.010528
v 0.161944 0.086973 -0.04427
v 0.161944 0.086973 -0.018017
v 0.16364 0.086973 -0.037804
v 0.16364 0.086973 -0.024483
v 0.164211 0.086973 -0.031143
v 0.164644 0.08556 -0.04523
v 0.164644 0.08556 -0.017056
v 0.165052 0.081786 -0.056597
v 0.165052 0.081786 -0.005689
v 0.166289 0.08563 -0.023851
v 0.166299 0.085619 -0.038472
v 0.167076 0.08556 -0.031143
v 0.168614 0.081761 -0.012473
v 0.168624 0.081773 -0.049814
v 0.171072 0.081782 -0.042544
v 0.171072 0.081782 -0.019743
v 0.17231 0.081786 -0.034978
v 0.17231 0.081786 -0.027309
vt 0.0011 0.4494
vt 0.0011 0.529
vt 0.0141 0.3708
vt 0.0141 0.6076
vt 0.04 0.2953
vt 0.04 0.6831
vt 0.0525 0.4891
vt 0.0595 0.5652
vt 0.0596 0.4128
vt 0.0778 0.2249
vt 0.0778 0.7535
vt 0.0782 0.3429
vt 0.0782 0.6354
vt 0.0813 0.4891
vt 0.0874 0.42
vt 0.0874 0.5583
vt 0.1053 0.3528
vt 0.1053 0.6254
vt 0.1095 0.2754
vt 0.1097 0.7032
vt 0.1165 0.463
vt 0.1198 0.5527
vt 0.1267 0.1615
vt 0.1267 0.8169
vt 0.1346 0.2897
vt 0.1346 0.6885
vt 0.1363 0.3638
vt 0.1521 0.6486
vt 0.1529 0.7652
vt 0.153 0.2129
vt 0.1744 0.2323
vt 0.1744 0.7459
vt 0.1782 0.2841
vt 0.1855 0.1065
vt 0.1855 0.8719
vt 0.2052 0.8182
vt 0.217 0.1497
vt 0.2236 0.1824
vt 0.2236 0.7957
vt 0.2362 0.8452
vt 0.2371 0.763
vt 0.245 0.2072
vt 0.2525 0.0616
vt 0.2525 0.9167
vt 0.2545 0.1531
vt 0.2555 0.826
vt 0.2758 0.8826
vt 0.276 0.1751
vt 0.2769 0.8041
vt 0.278 0.0934
vt 0.2851 0.8558
vt 0.2854 0.1221
vt 0.3026 0.8326
vt 0.3069 0.1408
vt 0.3125 0.8861
vt 0.3127 0.9201
vt 0.313 0.0934
vt 0.3136 0.0572
vt 0.3259 0.0279
vt 0.3259 0.9504
vt 0.3343 0.8708
vt 0.3421 0.0437
vt 0.3421 0.9346
vt 0.3504 0.9135
vt 0.3506 0.066
vt 0.3528 0.0867
vt 0.3548 0.8938
vt 0.3758 0.7004
vt 0.3765 0.099
vt 0.3778 0.9171
vt 0.3806 0.8772
vt 0.3845 0.28
vt 0.3974 0.0644
vt 0.404 0.0062
vt 0.404 0.9721
vt 0.4152 0.2231
vt 0.4274 0.943
vt 0.4354 0.7499
vt 0.4376 0.6876
vt 0.4404 0.8648
vt 0.4412 0.291
vt 0.4422 0.1131
vt 0.4508 0.9232
vt 0.4575 0.001
vt 0.4575 0.9772
vt 0.4585 0.0212
vt 0.4722 0.2356
vt 0.483 0.0487
vt 0.4946 0.2953
vt 0.4962 0.6827
vt 0.4973 0.1766
vt 0.4988 0.7396
vt 0.5055 0.8013
vt 0.5074 0.9769
vt 0.5113 0.0016
vt 0.5227 0.0025
vt 0.5276 0.938
vt 0.5503 0.6845
vt 0.5507 0.2936
vt 0.5558 0.2335
vt 0.5591 0.7452
vt 0.5614 0.9708
vt 0.5753 0.0333
vt 0.5764 0.0102
vt 0.6078 0.6937
vt 0.6097 0.2845
vt 0.6137 0.9592
vt 0.6284 0.0234
vt 0.6659 0.0361
vt 0.6677 0.9416
vt 0.6816 0.0416
vt 0.6823 0.9364
vt 0.6911 0.0453
vt 0.6911 0.933
vt 0.6927 0.8626
vt 0.6969 0.1151
vt 0.7049 0.9277
vt 0.7068 0.1762
vt 0.7068 0.802
vt 0.7168 0.0555
vt 0.7418 0.0671
vt 0.7511 0.9065
vt 0.7627 0.078
vt 0.7689 0.8997
vt 0.7759 0.8981
vt 0.7952 0.8968
vt 0.8023 0.8974
vt 0.8044 0.1039
vt 0.821 0.9018
vt 0.8298 0.8727
vt 0.8301 0.9057
vt 0.8414 0.1355
vt 0.8512 0.9164
vt 0.8772 0.1722
vt 0.8827 0.8649
vt 0.8977 0.196
vt 0.9155 0.8353
vt 0.9165 0.221
vt 0.926 0.236
vt 0.9291 0.8643
vt 0.9481 0.2776
vt 0.9873 0.3859
vt 0.9989 0.4892
vt 0.9989 0.999
vn -0.2588 0.9659 0.0
vn -0.2506 0.9681 0.0001
vn -0.2485 0.9683 -0.0245
vn -0.2395 0.9704 -0.0307
vn -0.2377 0.9713 0.0126
vn -0.2315 0.9721 0.0365
vn -0.2198 0.9714 -0.0903
vn -0.2188 0.9758 0.0002
vn -0.2011 0.9692 -0.1423
vn -0.201 0.977 0.0715
vn -0.2001 0.9795 -0.0245
vn -0.1985 0.9712 0.1315
vn -0.1927 0.9703 -0.1463
vn -0.1893 0.9725 -0.1355
vn -0.1887 0.9731 0.1322
vn -0.1865 0.974 0.1286
vn -0.1843 0.9824 0.0317
vn -0.1826 0.9733 -0.1395
vn -0.1808 0.9776 -0.1079
vn -0.1784 0.9739 0.1406
vn -0.1775 0.97 -0.1664
vn -0.1746 0.9731 -0.15
vn -0.1721 0.985 0.0117
vn -0.1718 0.98 -0.1001
vn -0.1694 0.9735 0.1539
vn -0.1676 0.971 0.1707
vn -0.1664 0.9861 0.0003
vn -0.1662 0.9723 -0.1643
vn -0.1648 0.9752 0.1476
vn -0.161 0.986 -0.0428
vn -0.1608 0.9787 0.1276
vn -0.1595 0.9789 0.1277
vn -0.1589 0.9828 0.0944
vn -0.1583 0.9797 0.1226
vn -0.1543 0.9861 0.0623
vn -0.1503 0.982 0.114
vn -0.1479 0.989 0.0
vn -0.1476 0.989 -0.0
vn -0.1475 0.9891 0.0002
vn -0.1471 0.9891 -0.0041
vn -0.1465 0.9891 0.0143
vn -0.1438 0.983 0.1143
vn -0.1423 0.9893 -0.0324
vn -0.1412 0.9649 0.2212
vn -0.1403 0.9656 -0.2191
vn -0.1399 0.9878 -0.0679
vn -0.1353 0.9875 0.081
vn -0.1331 0.9874 0.0859
vn -0.1321 0.9712 -0.1984
vn -0.1282 0.9755 0.1785
vn -0.1276 0.9667 -0.2218
vn -0.1272 0.9852 -0.1148
vn -0.1262 0.9885 -0.0827
vn -0.1259 0.9857 0.1121
vn -0.1251 0.9916 0.0322
vn -0.1201 0.9661 0.2283
vn -0.1095 0.9882 -0.107
vn -0.109 0.9883 -0.1068
vn -0.1055 0.9797 0.1703
vn -0.1014 0.9821 0.1585
vn -0.0944 0.9879 0.1232
vn -0.0937 0.9772 -0.1904
vn -0.0897 0.9746 -0.2052
vn -0.0872 0.9609 0.2628
vn -0.0833 0.9883 -0.1274
vn -0.0824 0.9962 -0.0283
vn -0.0665 0.9975 0.0244
vn -0.0559 0.9537 0.2956
vn -0.0437 0.9343 -0.3538
vn -0.0435 0.9614 0.2718
vn -0.0401 0.9683 -0.2466
vn -0.038 0.9542 -0.2967
vn -0.0357 0.9821 0.1852
vn -0.0348 0.9989 -0.0299
vn -0.0267 0.9531 0.3016
vn -0.023 0.9525 0.3036
vn -0.0224 0.9564 -0.2913
vn -0.0204 0.9995 0.0252
vn -0.0037 0.9926 -0.1213
vn 0.0098 0.9224 -0.386
vn 0.0132 0.9184 0.3954
vn 0.0147 0.9913 0.1309
vn 0.0283 0.92 -0.3908
vn 0.043 0.9384 -0.3429
vn 0.0533 0.9125 0.4056
vn 0.0563 0.9957 0.0729
vn 0.058 0.9942 -0.0903
vn 0.0595 0.9299 -0.3629
vn 0.0666 0.9359 0.3459
vn 0.0676 0.893 0.445
vn 0.0732 0.9963 -0.045
vn 0.0737 0.8909 -0.4481
vn 0.085 0.996 -0.0272
vn 0.0857 0.9953 0.0448
vn 0.0875 0.996 0.018
vn 0.1002 0.995 -0.0038
vn 0.1021 0.9327 0.3459
vn 0.1279 0.9527 0.2757
vn 0.1329 0.8663 -0.4814
vn 0.1341 0.8668 0.4802
vn 0.1381 0.9516 -0.2747
vn 0.1571 0.8833 -0.4417
vn 0.1572 0.8823 0.4437
vn 0.2037 0.8122 -0.5467
vn 0.2087 0.9633 0.1686
vn 0.209 0.9452 0.2509
vn 0.2141 0.8663 -0.4512
vn 0.2186 0.9434 -0.2493
vn 0.2211 0.8115 0.5408
vn 0.2369 0.9535 -0.1861
vn 0.2505 0.8408 0.4799
vn 0.2626 0.9534 -0.1484
vn 0.2763 0.8127 -0.513
vn 0.2792 0.8676 0.4116
vn 0.2817 0.9536 0.1061
vn 0.2846 0.9437 0.1688
vn 0.2879 0.8154 0.5022
vn 0.2945 0.9541 0.0547
vn 0.298 0.9534 -0.0462
vn 0.3009 0.9473 -0.1095
vn 0.3283 0.8567 -0.3978
vn 0.3312 0.9435 0.0076
vn 0.3489 0.818 -0.4573
vn 0.3514 0.8524 0.3873
vn 0.3532 0.8147 0.4599
vn 0.3881 0.8668 0.3132
vn 0.3914 0.8603 -0.3267
vn 0.4221 0.818 -0.3907
vn 0.4251 0.8165 0.3907
vn 0.4353 0.867 -0.2424
vn 0.4474 0.8612 0.2411
vn 0.4812 0.8613 0.1631
vn 0.4822 0.8179 -0.3139
vn 0.4832 0.8171 0.3144
vn 0.4909 0.8539 -0.1727
vn 0.4982 0.8621 -0.0924
vn 0.5002 0.8622 0.0798
vn 0.507 0.8619 -0.0065
vn 0.5287 0.8167 -0.2314
vn 0.5307 0.8153 0.2318
vn 0.5582 0.8176 -0.141
vn 0.5583 0.8174 0.1417
vn 0.5728 0.8182 -0.049
vn 0.5728 0.8182 0.0489
f 22/123/22 17/128/21 29/116/28
f 22/123/22 29/116/28 24/121/18
f 24/121/18 29/116/28 25/120/14
f 25/120/14 29/116/28 31/113/24
f 64/82/49 57/88/52 29/116/28
f 29/116/28 57/88/52 31/113/24
f 57/88/52 64/82/49 72/73/63
f 72/73/63 64/82/49 77/69/51
f 72/73/63 77/69/51 79/66/77
f 72/73/63 79/66/77 80/65/84
f 76/70/76 81/64/89 78/67/75
f 76/70/76 78/67/75 74/71/56
f 76/70/76 74/71/56 68/77/70
f 68/77/70 74/71/56 66/80/50
f 68/77/70 66/80/50 62/83/60
f 62/83/60 66/80/50 48/97/47
f 30/115/26 32/114/33 66/80/50
f 66/80/50 32/114/33 48/97/47
f 12/133/35 14/131/54 15/130/32
f 15/130/32 14/131/54 16/129/36
f 15/130/32 16/129/36 18/127/34
f 15/130/32 18/127/34 19/126/31
f 15/130/32 19/126/31 20/125/29
f 15/130/32 20/125/29 30/115/26
f 30/115/26 20/125/29 21/124/25
f 30/115/26 21/124/25 23/122/20
f 23/122/20 28/117/15 30/115/26
f 30/115/26 28/117/15 32/114/33
f 12/133/35 15/130/32 10/135/10
f 12/133/35 10/135/10 5/140/23
f 5/140/23 10/135/10 7/137/5
f 4/141/27 5/140/23 6/139/8
f 6/139/8 5/140/23 7/137/5
f 6/139/8 7/137/5 8/138/2
f 88/55/85 84/61/64 78/67/75
f 90/56/103 81/64/89 83/63/100
f 98/47/111 88/55/85 90/56/103
f 90/56/103 88/55/85 78/67/75
f 90/56/103 78/67/75 81/64/89
f 92/53/73 84/61/64 94/51/97
f 94/51/97 84/61/64 88/55/85
f 109/36/124 107/39/106 105/40/114
f 105/40/114 107/39/106 99/46/98
f 105/40/114 99/46/98 94/51/97
f 105/40/114 94/51/97 98/47/111
f 98/47/111 94/51/97 88/55/85
f 92/53/73 94/51/97 99/46/98
f 92/53/73 99/46/98 95/49/82
f 95/49/82 99/46/98 107/39/106
f 95/49/82 107/39/106 104/41/86
f 83/63/100 81/64/89 71/75/90
f 71/75/90 81/64/89 76/70/76
f 71/75/90 76/70/76 68/77/70
f 44/102/59 52/94/68 68/77/70
f 68/77/70 52/94/68 61/85/81
f 68/77/70 61/85/81 71/75/90
f 48/97/47 35/110/41 40/107/48
f 68/77/70 62/83/60 44/102/59
f 44/102/59 62/83/60 48/97/47
f 44/102/59 48/97/47 40/107/48
f 118/27/93 127/17/120 112/33/91
f 112/33/91 127/17/120 119/25/112
f 112/33/91 119/25/112 113/31/110
f 112/33/91 113/31/110 103/42/87
f 104/41/86 107/39/106 114/32/105
f 104/41/86 114/32/105 117/28/94
f 117/28/94 114/32/105 120/26/116
f 117/28/94 120/26/116 128/18/115
f 117/28/94 128/18/115 123/22/95
f 123/22/95 128/18/115 130/16/118
f 123/22/95 130/16/118 124/21/96
f 124/21/96 130/16/118 131/14/122
f 124/21/96 131/14/122 129/15/119
f 124/21/96 129/15/119 118/27/93
f 103/42/87 113/31/110 106/38/108
f 106/38/108 113/31/110 115/30/127
f 106/38/108 115/30/127 108/37/121
f 115/30/127 113/31/110 125/19/130
f 125/19/130 113/31/110 119/25/112
f 125/19/130 119/25/112 127/17/120
f 125/19/130 127/17/120 132/12/135
f 118/27/93 129/15/119 127/17/120
f 127/17/120 129/15/119 137/9/136
f 127/17/120 137/9/136 132/12/135
f 130/16/118 136/8/137 131/14/122
f 131/14/122 136/8/137 138/7/138
f 131/14/122 138/7/138 129/15/119
f 129/15/119 138/7/138 137/9/136
f 136/8/137 130/16/118 133/13/132
f 133/13/132 130/16/118 128/18/115
f 133/13/132 128/18/115 126/20/131
f 126/20/131 128/18/115 120/26/116
f 126/20/131 120/26/116 116/29/126
f 116/29/126 120/26/116 114/32/105
f 116/29/126 114/32/105 107/39/106
f 116/29/126 107/39/106 109/36/124
f 106/38/108 108/37/121 100/45/101
f 106/38/108 100/45/101 103/42/87
f 100/45/101 91/54/71 97/48/79
f 100/45/101 97/48/79 103/42/87
f 87/57/83 93/52/88 96/50/107
f 108/37/121 96/50/107 100/45/101
f 100/45/101 96/50/107 93/52/88
f 100/45/101 93/52/88 91/54/71
f 91/54/71 93/52/88 87/57/83
f 91/54/71 87/57/83 79/66/77
f 89/58/102 82/62/99 80/65/84
f 87/57/83 96/50/107 89/58/102
f 89/58/102 80/65/84 79/66/77
f 89/58/102 79/66/77 87/57/83
f 80/65/84 82/62/99 70/74/92
f 57/88/52 72/73/63 59/86/72
f 59/86/72 72/73/63 80/65/84
f 49/96/62 41/104/58 42/103/53
f 42/103/53 41/104/58 37/108/46
f 42/103/53 37/108/46 36/109/30
f 60/84/80 50/95/69 59/86/72
f 80/65/84 70/74/92 59/86/72
f 59/86/72 70/74/92 60/84/80
f 42/103/53 57/88/52 49/96/62
f 49/96/62 57/88/52 59/86/72
f 49/96/62 59/86/72 50/95/69
f 26/118/13 29/116/28 17/128/21
f 11/134/3 38/106/4 13/132/7
f 13/132/7 38/106/4 26/118/13
f 13/132/7 26/118/13 17/128/21
f 38/106/4 45/100/19 26/118/13
f 26/118/13 45/100/19 55/91/45
f 26/118/13 55/91/45 29/116/28
f 73/72/74 69/76/65 58/87/57
f 73/72/74 58/87/57 63/81/66
f 69/76/65 55/91/45 58/87/57
f 58/87/57 55/91/45 45/100/19
f 63/81/66 58/87/57 56/89/43
f 56/89/43 58/87/57 45/100/19
f 56/89/43 45/100/19 46/99/11
f 46/99/11 45/100/19 38/106/4
f 79/66/77 55/91/45 91/54/71
f 91/54/71 55/91/45 69/76/65
f 91/54/71 69/76/65 97/48/79
f 97/48/79 69/76/65 73/72/74
f 97/48/79 73/72/74 103/42/87
f 15/130/32 30/115/26 27/119/12
f 39/105/6 7/137/5 10/135/10
f 39/105/6 10/135/10 27/119/12
f 27/119/12 10/135/10 15/130/32
f 39/105/6 27/119/12 43/101/16
f 43/101/16 27/119/12 30/115/26
f 43/101/16 30/115/26 51/93/44
f 39/105/6 43/101/16 47/98/17
f 47/98/17 43/101/16 53/92/42
f 47/98/17 53/92/42 54/90/55
f 43/101/16 51/93/44 53/92/42
f 53/92/42 51/93/44 67/78/61
f 54/90/55 53/92/42 67/78/61
f 54/90/55 67/78/61 65/79/67
f 65/79/67 67/78/61 75/68/78
f 67/78/61 51/93/44 84/61/64
f 84/61/64 92/53/73 67/78/61
f 67/78/61 92/53/73 75/68/78
f 75/68/78 92/53/73 95/49/82
f 75/68/78 95/49/82 104/41/86
f 109/36/124 105/40/114 110/35/125
f 86/60/109 90/56/103 83/63/100
f 86/60/109 83/63/100 71/75/90
f 110/35/125 105/40/114 98/47/111
f 110/35/125 98/47/111 102/44/117
f 102/44/117 98/47/111 86/60/109
f 86/60/109 98/47/111 90/56/103
f 111/34/123 101/43/113 96/50/107
f 85/59/104 70/74/92 82/62/99
f 82/62/99 89/58/102 85/59/104
f 85/59/104 89/58/102 101/43/113
f 101/43/113 89/58/102 96/50/107
f 133/13/132 126/20/131 139/6/140
f 139/6/140 126/20/131 135/11/134
f 135/11/134 126/20/131 116/29/126
f 135/11/134 116/29/126 121/24/129
f 121/24/129 116/29/126 109/36/124
f 121/24/129 109/36/124 110/35/125
f 133/13/132 139/6/140 142/4/142
f 133/13/132 142/4/142 136/8/137
f 136/8/137 142/4/142 144/2/144
f 136/8/137 144/2/144 138/7/138
f 96/50/107 108/37/121 111/34/123
f 111/34/123 108/37/121 122/23/128
f 122/23/128 108/37/121 115/30/127
f 122/23/128 115/30/127 134/10/133
f 134/10/133 115/30/127 125/19/130
f 134/10/133 125/19/130 140/5/139
f 140/5/139 125/19/130 132/12/135
f 140/5/139 132/12/135 141/3/141
f 141/3/141 132/12/135 137/9/136
f 141/3/141 137/9/136 143/1/143
f 143/1/143 137/9/136 138/7/138
f 143/1/143 138/7/138 144/2/144
f 79/66/77 77/69/51 55/91/45
f 77/69/51 64/82/49 55/91/45
f 64/82/49 29/116/28 55/91/45
f 66/80/50 74/71/56 51/93/44
f 51/93/44 74/71/56 84/61/64
f 74/71/56 78/67/75 84/61/64
f 51/93/44 30/115/26 66/80/50
f 46/99/11 38/106/4 39/105/6
f 65/79/67 75/68/78 73/72/74
f 65/79/67 73/72/74 63/81/66
f 65/79/67 63/81/66 54/90/55
f 54/90/55 63/81/66 56/89/43
f 54/90/55 56/89/43 47/98/17
f 47/98/17 56/89/43 46/99/11
f 47/98/17 46/99/11 39/105/6
f 38/106/4 11/134/3 9/136/1
f 39/105/6 38/106/4 7/137/5
f 7/137/5 38/106/4 9/136/1
f 7/137/5 9/136/1 8/138/2
f 34/111/9 31/113/24 36/109/30
f 36/109/30 31/113/24 57/88/52
f 36/109/30 57/88/52 42/103/53
f 103/42/87 73/72/74 112/33/91
f 112/33/91 73/72/74 75/68/78
f 112/33/91 75/68/78 118/27/93
f 104/41/86 117/28/94 75/68/78
f 75/68/78 117/28/94 123/22/95
f 123/22/95 124/21/96 75/68/78
f 75/68/78 124/21/96 118/27/93
f 32/114/33 33/112/40 48/97/47
f 48/97/47 33/112/40 35/110/41
f 4/141/27 3/142/38 5/140/23
f 5/140/23 3/142/38 1/143/37
f 5/140/23 1/143/37 2/144/39
f 2/144/39 12/133/35 5/140/23
