o forearm_link_3
v 0.001195 0.047521 0.076491
v 0.008322 0.046795 0.076493
v 0.014753 0.045197 0.076492
v 0.021038 0.042658 0.076492
v 0.025416 0.040194 0.076492
v 0.031719 0.035542 0.076491
v 0.036711 0.030404 0.076493
v 0.040611 0.025046 0.076492
v 0.043794 0.019061 0.076492
v 0.045564 0.01436 0.076492
v 0.047401 0.006744 0.076491
v 0.047923 -0.0004 0.076493
v 0.047466 -0.007011 0.076492
v 0.046058 -0.013642 0.076492
v 0.044391 -0.018381 0.076492
v 0.040903 -0.025396 0.076491
v 0.036711 -0.031204 0.076493
v 0.032112 -0.035975 0.076492
v 0.026771 -0.040149 0.076492
v 0.022448 -0.042708 0.076492
v 0.015267 -0.04584 0.076491
v 0.008322 -0.047595 0.076493
v 0.001169 -0.048326 0.076492
v -0.005394 -0.048011 0.076492
v -0.009999 -0.047239 0.076492
v -0.017513 -0.045023 0.076491
v -0.023961 -0.041902 0.076493
v -0.029458 -0.038202 0.076492
v -0.034497 -0.033666 0.076492
v -0.037768 -0.029854 0.076492
v -0.042099 -0.023326 0.076491
v -0.045033 -0.016791 0.076493
v -0.046865 -0.010422 0.076492
v -0.047809 -0.003709 0.076492
v -0.047864 0.001314 0.076492
v -0.046986 0.009098 0.076491
v -0.045033 0.01599 0.076493
v -0.042343 0.022047 0.076492
v -0.038751 0.027796 0.076492
v -0.035564 0.031679 0.076492
v -0.029888 0.037078 0.076491
v -0.023961 0.041102 0.076493
v -0.018008 0.044012 0.076492
v -0.011561 0.046108 0.076492
v -0.006624 0.047034 0.076492
v -0.047738 -0.000427 0.079432
v -0.045811 0.013112 0.079456
v -0.04364 0.018983 0.079407
v -0.040647 0.024655 0.079475
v -0.026321 0.039453 0.079459
v -0.021072 0.04245 0.079407
v -0.015053 0.044914 0.079471
v 0.00544 0.047055 0.079434
v 0.011489 0.045948 0.079406
v 0.01768 0.043958 0.079459
v 0.034653 0.032468 0.079457
v 0.038632 0.027705 0.079374
v 0.042048 0.022179 0.079504
v 0.047637 -0.003478 0.079475
v 0.046758 -0.01009 0.079463
v 0.038405 -0.028795 0.079455
v 0.03448 -0.033436 0.079406
v 0.02968 -0.037803 0.079473
v 0.00526 -0.047845 0.079481
v -0.001401 -0.04813 0.079466
v -0.026348 -0.0402 0.079502
v -0.031665 -0.036138 0.079473
v -0.045803 -0.01384 0.079487
v -0.047244 -0.007332 0.079469
v -0.040693 -0.025372 0.079484
v -0.043744 -0.01963 0.079355
v -0.036446 -0.031223 0.079461
v -0.015034 -0.045715 0.079488
v -0.021093 -0.043277 0.079355
v -0.008284 -0.047414 0.079432
v 0.017592 -0.044789 0.079468
v 0.011322 -0.046823 0.079355
v 0.023998 -0.04166 0.079462
v 0.042008 -0.023089 0.079488
v 0.044855 -0.01674 0.079431
v 0.046773 0.009195 0.079471
v 0.047685 0.002668 0.079355
v 0.044813 0.016034 0.079463
v 0.029656 0.037016 0.079487
v 0.023896 0.040928 0.07943
v -0.001304 0.047328 0.079475
v -0.008365 0.046592 0.079464
v -0.031679 0.035319 0.079486
v -0.036541 0.030321 0.079428
v -0.047238 0.006526 0.079488
v 0.016567 -0.036582 0.087876
v 0.007704 -0.038409 0.088951
v -0.002263 -0.040082 0.087926
v -0.009869 -0.037848 0.089075
v -0.018753 -0.035561 0.087803
v -0.028437 -0.028241 0.087875
v 0.026781 -0.029904 0.087809
v 0.031862 -0.02241 0.089074
v 0.035758 -0.01574 0.088886
v 0.039571 -0.003928 0.087978
v 0.038695 0.009029 0.087833
v 0.001371 0.039354 0.08775
v 0.010583 0.037858 0.088064
v 0.018226 0.033834 0.088948
v 0.026986 0.028892 0.087816
v 0.033438 0.019492 0.088897
v -0.032366 0.022467 0.088153
v -0.026128 0.028257 0.08896
v -0.018481 0.034893 0.087801
v -0.007427 0.038765 0.087748
v -0.033129 -0.020555 0.08896
v -0.038155 -0.011835 0.08781
v -0.038918 0.000324 0.088854
v -0.038203 0.011191 0.087707
v 0.036074 -0.006761 0.339088
v 0.036631 -0.0004 0.339088
v 0.034421 -0.012928 0.339088
v 0.031723 -0.018715 0.339088
v 0.028061 -0.023946 0.339088
v 0.018315 -0.032123 0.339088
v 0.023546 -0.028461 0.339088
v 0.012528 -0.034822 0.339088
v 0.006361 -0.036474 0.339088
v 0.0 -0.037031 0.339088
v -0.006361 -0.036474 0.339088
v -0.012528 -0.034822 0.339088
v -0.018315 -0.032123 0.339088
v -0.023546 -0.028461 0.339088
v -0.031723 -0.018715 0.339088
v -0.028061 -0.023946 0.339088
v -0.034421 -0.012928 0.339088
v -0.036074 -0.006761 0.339088
v -0.036631 -0.0004 0.339088
v -0.036074 0.005961 0.339088
v -0.034422 0.012128 0.339088
v -0.031723 0.017915 0.339088
v -0.028061 0.023146 0.339088
v -0.018315 0.031323 0.339088
v -0.023546 0.027661 0.339088
v -0.012528 0.034021 0.339088
v -0.006361 0.035674 0.339088
v 0.0 0.036231 0.339088
v 0.006361 0.035674 0.339088
v 0.01268 0.033984 0.339088
v 0.018315 0.031323 0.339088
v 0.023546 0.027661 0.339088
v 0.031723 0.017915 0.339088
v 0.028061 0.023146 0.339088
v 0.034421 0.012128 0.339088
v 0.036074 0.005961 0.339088
v 0.032336 0.018963 0.092916
v -0.004078 0.037064 0.09159
v -0.036705 0.008271 0.091503
v -0.037777 -0.000798 0.091667
v -0.02068 -0.031904 0.091591
v -0.015527 -0.034771 0.091504
v 0.027205 -0.026471 0.091593
v 0.022812 -0.030434 0.091503
v 0.037728 0.002616 0.091454
v 0.037209 -0.006268 0.091626
v 0.035917 -0.011786 0.0916
v 0.032201 -0.019891 0.09312
v 0.017828 -0.033599 0.091593
v 0.010339 -0.036797 0.091533
v 0.001217 -0.038066 0.091587
v -0.007101 -0.037469 0.091787
v -0.025224 -0.028397 0.091592
v -0.030763 -0.02243 0.091533
v -0.034957 -0.014458 0.0916
v -0.036767 -0.00881 0.091503
v -0.032246 0.019141 0.091541
v -0.027263 0.025712 0.091781
v -0.020474 0.03123 0.091599
v -0.01543 0.033975 0.091597
v 0.007491 0.036553 0.091541
v 0.01535 0.034091 0.091773
v 0.022852 0.029558 0.091599
v 0.027291 0.025633 0.091503
v -0.034873 0.013881 0.091592
v -0.009875 0.036 0.091504
v 0.001659 0.037247 0.091592
v 0.035975 0.010924 0.091503
v 0.030806 -0.022 0.339088
v 0.036256 -0.010506 0.339088
v 0.0375 -0.0004 0.339088
v 0.036208 0.009797 0.339088
v 0.030806 0.0212 0.339088
v 0.021866 0.030234 0.339088
v 0.00439 0.037062 0.339088
v -0.009807 0.035923 0.339088
v -0.021339 0.030603 0.339088
v -0.030703 0.021409 0.339088
v -0.036427 0.008999 0.339088
v -0.037491 -0.003561 0.339088
v -0.034301 -0.015896 0.339088
v -0.028726 -0.024504 0.339088
v -0.021254 -0.03144 0.339088
v -0.009807 -0.036723 0.339088
v 0.002908 -0.037911 0.339088
v 0.012826 -0.035638 0.339088
v 0.021933 -0.030962 0.339088
vn -0.0337 -0.9401 0.3393
vn -0.1057 -0.9929 0.0539
vn 0.0652 -0.9963 0.0552
vn -0.1609 -0.9255 0.343
vn -0.2306 -0.972 0.0448
vn -0.2643 -0.8534 0.4492
vn -0.3651 -0.9302 0.0376
vn -0.4435 -0.8515 0.2797
vn -0.4962 -0.8643 0.082
vn -0.586 -0.8082 0.0575
vn -0.5106 -0.7674 0.3877
vn -0.599 -0.6874 0.4107
vn -0.7149 -0.6972 0.0532
vn -0.7174 -0.6072 0.3415
vn -0.8006 -0.5974 0.0468
vn -0.7678 -0.498 0.4031
vn -0.8779 -0.4774 0.0379
vn -0.8657 -0.3597 0.3482
vn -0.9358 -0.3431 0.0811
vn -0.9687 -0.2416 0.0572
vn -0.8868 -0.2581 0.3834
vn -0.9036 -0.13 0.4083
vn -0.9959 -0.0737 0.0526
vn -0.9416 -0.0025 0.3367
vn -0.9974 0.0574 0.0446
vn -0.9062 0.1276 0.4031
vn -0.9791 0.1992 0.0416
vn -0.9144 0.2913 0.2811
vn -0.9373 0.3386 0.0828
vn -0.8975 0.4377 0.0537
vn -0.8112 0.365 0.4569
vn -0.7995 0.4972 0.337
vn -0.8101 0.5839 0.053
vn -0.7221 0.6034 0.3383
vn -0.7267 0.6855 0.0444
vn -0.6244 0.6697 0.402
vn -0.6214 0.7824 0.0421
vn -0.5044 0.7903 0.348
vn -0.5004 0.862 0.0811
vn -0.4066 0.9121 0.052
vn -0.4062 0.8313 0.3795
vn -0.2871 0.8663 0.4087
vn -0.2456 0.9679 0.0534
vn -0.1659 0.9256 0.3402
vn -0.1168 0.9921 0.0459
vn -0.0382 0.9137 0.4046
vn 0.0268 0.9988 0.0409
vn 0.1252 0.9291 0.3481
vn 0.1707 0.982 0.0805
vn 0.2757 0.9598 0.0529
vn 0.2247 0.8984 0.3773
vn 0.3416 0.8493 0.4024
vn 0.4345 0.8992 0.052
vn 0.4689 0.8162 0.3376
vn 0.5487 0.8348 0.0442
vn 0.5574 0.7259 0.4029
vn 0.6624 0.748 0.0419
vn 0.7096 0.6464 0.2804
vn 0.762 0.6424 0.0817
vn 0.8284 0.5577 0.0519
vn 0.7162 0.5311 0.4528
vn 0.8299 0.4437 0.3383
vn 0.9101 0.4105 0.056
vn 0.8557 0.3175 0.4086
vn 0.9567 0.2876 0.0459
vn 0.9214 0.1988 0.334
vn 0.9882 0.1483 0.0377
vn 0.9353 0.0433 0.3513
vn 0.9968 0.0024 0.0803
vn 0.9929 -0.1046 0.0566
vn 0.9221 -0.0617 0.3819
vn 0.8928 -0.1919 0.4075
vn 0.961 -0.2717 0.0523
vn 0.8853 -0.3202 0.3373
vn 0.9175 -0.3953 0.0443
vn 0.8338 -0.4389 0.3348
vn 0.8517 -0.5223 0.0415
vn 0.7312 -0.5546 0.3972
vn 0.765 -0.6388 0.082
vn 0.6943 -0.7178 0.0523
vn 0.666 -0.6415 0.3807
vn 0.5827 -0.7382 0.3398
vn 0.5622 -0.8253 0.0533
vn 0.4648 -0.7845 0.4105
vn 0.4495 -0.8921 0.0457
vn 0.3561 -0.8726 0.3343
vn 0.3178 -0.9474 0.0374
vn 0.212 -0.9141 0.3456
vn 0.1736 -0.9813 0.0827
vn 0.0901 -0.8874 0.4521
vn 0.3212 -0.7396 0.5915
vn 0.1491 -0.8226 0.5488
vn -0.0555 -0.7981 0.5999
vn -0.2388 -0.8206 0.5192
vn -0.4019 -0.6956 0.5955
vn -0.5905 -0.5494 0.5912
vn 0.5249 -0.6084 0.5952
vn 0.7101 -0.5135 0.4817
vn 0.7588 -0.318 0.5685
vn 0.8189 -0.083 0.568
vn 0.7824 0.1775 0.5969
vn -0.1366 0.7964 0.5891
vn 0.0431 0.8067 0.5894
vn 0.217 0.7771 0.5908
vn 0.406 0.7141 0.5704
vn 0.5532 0.5795 0.5984
vn 0.7287 0.4238 0.5379
vn -0.7717 0.2562 0.5821
vn -0.6499 0.4626 0.603
vn -0.5413 0.6383 0.5474
vn -0.3617 0.7289 0.5813
vn -0.7267 -0.4128 0.549
vn -0.7923 -0.215 0.571
vn -0.8157 0.0212 0.5781
vn 0.9149 0.3125 0.2555
vn 0.9658 0.082 0.2461
vn 0.9706 -0.1356 0.1989
vn 0.7161 -0.6632 0.2178
vn 0.5858 -0.7733 0.2425
vn 0.4654 -0.8528 0.2369
vn 0.2482 -0.9431 0.2215
vn -0.3772 -0.8958 0.235
vn -0.5332 -0.8111 0.2406
vn -0.6452 -0.7267 0.236
vn -0.803 -0.5535 0.2209
vn -0.9043 0.3806 0.1934
vn -0.8263 0.4886 0.2801
vn -0.6961 0.6839 0.2185
vn 0.0221 0.9583 0.285
vn 0.1851 0.9364 0.2982
vn 0.3927 0.9 0.1891
vn 0.925 -0.2934 0.2415
vn 0.8564 -0.4892 0.1651
vn 0.053 -0.9594 0.277
vn -0.1762 -0.9593 0.2209
vn -0.8806 -0.3847 0.2765
vn -0.9558 -0.2182 0.197
vn -0.9789 -0.0032 0.2045
vn -0.941 0.1868 0.2822
vn -0.5465 0.7917 0.2731
vn -0.4029 0.8935 0.1985
vn -0.2645 0.9205 0.2877
vn -0.0998 0.9757 0.1949
vn 0.5606 0.7815 0.2739
vn 0.7208 0.6607 0.2096
vn 0.8631 0.4912 0.1172
vn 0.0 0.0 1.0
vn 0.4836 -0.3484 0.803
vn 0.6707 -0.2122 0.7107
vn 0.7045 -0.0129 0.7096
vn 0.6718 0.2081 0.7109
vn 0.4838 0.3479 0.803
vn 0.4569 0.6514 0.6057
vn 0.2561 0.6574 0.7087
vn 0.1029 0.7686 0.6314
vn -0.1814 0.6794 0.711
vn -0.3955 0.5815 0.711
vn -0.5861 0.3878 0.7115
vn -0.6833 0.1653 0.7112
vn -0.593 -0.0584 0.8031
vn -0.6466 -0.2776 0.7105
vn -0.532 -0.4621 0.7096
vn -0.3895 -0.5864 0.7102
vn -0.1639 -0.5728 0.8031
vn 0.0349 -0.7025 0.7108
vn 0.2534 -0.6575 0.7096
vn 0.421 -0.564 0.7104
f 65//1 24//2 23//3
f 24//2 65//1 75//4
f 24//2 75//4 25//5
f 25//5 75//4 73//6
f 25//5 73//6 26//7
f 26//7 73//6 74//8
f 26//7 74//8 27//9
f 27//9 74//8 28//10
f 28//10 74//8 66//11
f 66//11 67//12 28//10
f 28//10 67//12 29//13
f 29//13 67//12 72//14
f 29//13 72//14 30//15
f 30//15 72//14 70//16
f 30//15 70//16 31//17
f 31//17 70//16 71//18
f 31//17 71//18 32//19
f 32//19 71//18 33//20
f 33//20 71//18 68//21
f 68//21 69//22 33//20
f 33//20 69//22 34//23
f 34//23 69//22 46//24
f 34//23 46//24 35//25
f 35//25 46//24 90//26
f 35//25 90//26 36//27
f 36//27 90//26 47//28
f 36//27 47//28 37//29
f 37//29 47//28 38//30
f 38//30 47//28 48//31
f 48//31 49//32 38//30
f 38//30 49//32 39//33
f 39//33 49//32 89//34
f 39//33 89//34 40//35
f 40//35 89//34 88//36
f 40//35 88//36 41//37
f 41//37 88//36 50//38
f 41//37 50//38 42//39
f 42//39 50//38 43//40
f 43//40 50//38 51//41
f 51//41 52//42 43//40
f 43//40 52//42 44//43
f 44//43 52//42 87//44
f 44//43 87//44 45//45
f 45//45 87//44 86//46
f 45//45 86//46 1//47
f 1//47 86//46 53//48
f 1//47 53//48 2//49
f 2//49 53//48 3//50
f 3//50 53//48 54//51
f 54//51 55//52 3//50
f 3//50 55//52 4//53
f 4//53 55//52 85//54
f 4//53 85//54 5//55
f 5//55 85//54 84//56
f 5//55 84//56 6//57
f 6//57 84//56 56//58
f 6//57 56//58 7//59
f 7//59 56//58 8//60
f 8//60 56//58 57//61
f 8//60 57//61 58//62
f 8//60 58//62 9//63
f 9//63 58//62 83//64
f 9//63 83//64 10//65
f 10//65 83//64 81//66
f 10//65 81//66 11//67
f 11//67 81//66 82//68
f 11//67 82//68 12//69
f 12//69 82//68 13//70
f 13//70 82//68 59//71
f 59//71 60//72 13//70
f 13//70 60//72 14//73
f 14//73 60//72 80//74
f 14//73 80//74 15//75
f 15//75 80//74 79//76
f 15//75 79//76 16//77
f 16//77 79//76 61//78
f 16//77 61//78 17//79
f 17//79 61//78 18//80
f 18//80 61//78 62//81
f 62//81 63//82 18//80
f 18//80 63//82 19//83
f 19//83 63//82 78//84
f 19//83 78//84 20//85
f 20//85 78//84 76//86
f 20//85 76//86 21//87
f 21//87 76//86 77//88
f 21//87 77//88 22//89
f 22//89 77//88 23//3
f 23//3 77//88 64//90
f 23//3 64//90 65//1
f 78//84 91//91 76//86
f 76//86 91//91 77//88
f 77//88 91//91 92//92
f 77//88 92//92 64//90
f 64//90 92//92 93//93
f 64//90 93//93 65//1
f 65//1 93//93 75//4
f 75//4 93//93 73//6
f 73//6 93//93 94//94
f 73//6 94//94 95//95
f 73//6 95//95 74//8
f 74//8 95//95 66//11
f 66//11 95//95 67//12
f 67//12 95//95 96//96
f 67//12 96//96 72//14
f 91//91 78//84 97//97
f 97//97 78//84 63//82
f 97//97 63//82 62//81
f 97//97 62//81 61//78
f 97//97 61//78 98//98
f 98//98 61//78 99//99
f 99//99 61//78 79//76
f 99//99 79//76 80//74
f 99//99 80//74 60//72
f 99//99 60//72 100//100
f 100//100 60//72 59//71
f 83//64 101//101 81//66
f 81//66 101//101 82//68
f 82//68 101//101 100//100
f 82//68 100//100 59//71
f 87//44 110//102 86//46
f 86//46 110//102 102//103
f 86//46 102//103 53//48
f 53//48 102//103 103//104
f 53//48 103//104 54//51
f 54//51 103//104 55//52
f 55//52 103//104 104//105
f 55//52 104//105 85//54
f 85//54 104//105 84//56
f 84//56 104//105 105//106
f 84//56 105//106 56//58
f 56//58 105//106 57//61
f 57//61 105//106 106//107
f 57//61 106//107 58//62
f 58//62 106//107 83//64
f 83//64 106//107 101//101
f 47//28 114//108 48//31
f 48//31 114//108 107//109
f 48//31 107//109 49//32
f 49//32 107//109 89//34
f 89//34 107//109 88//36
f 88//36 107//109 108//110
f 88//36 108//110 50//38
f 50//38 108//110 109//111
f 50//38 109//111 51//41
f 51//41 109//111 52//42
f 52//42 109//111 110//102
f 52//42 110//102 87//44
f 72//14 96//96 70//16
f 70//16 96//96 111//112
f 70//16 111//112 71//18
f 71//18 111//112 112//113
f 71//18 112//113 68//21
f 68//21 112//113 69//22
f 69//22 112//113 113//114
f 69//22 113//114 46//24
f 46//24 113//114 90//26
f 90//26 113//114 114//108
f 90//26 114//108 47//28
f 101//101 106//107 182//115
f 101//101 182//115 159//116
f 100//100 101//101 159//116
f 100//100 159//116 160//117
f 97//97 98//98 157//118
f 97//97 157//118 158//119
f 97//97 158//119 163//120
f 91//91 164//121 92//92
f 95//95 94//94 156//122
f 95//95 156//122 155//123
f 95//95 155//123 167//124
f 96//96 168//125 111//112
f 114//108 179//126 171//127
f 107//109 172//128 108//110
f 102//103 110//102 181//129
f 102//103 181//129 175//130
f 103//104 176//131 104//105
f 100//100 160//117 161//132
f 99//99 161//132 162//133
f 99//99 100//100 161//132
f 98//98 99//99 162//133
f 98//98 162//133 157//118
f 164//121 165//134 92//92
f 163//120 164//121 91//91
f 163//120 91//91 97//97
f 93//93 92//92 165//134
f 93//93 165//134 166//135
f 94//94 166//135 156//122
f 93//93 166//135 94//94
f 168//125 169//136 111//112
f 167//124 168//125 96//96
f 167//124 96//96 95//95
f 112//113 111//112 169//136
f 112//113 169//136 170//137
f 112//113 170//137 154//138
f 113//114 154//138 153//139
f 154//138 113//114 112//113
f 153//139 179//126 114//108
f 153//139 114//108 113//114
f 172//128 173//140 108//110
f 171//127 172//128 107//109
f 171//127 107//109 114//108
f 109//111 108//110 173//140
f 109//111 173//140 174//141
f 174//141 180//142 109//111
f 110//102 109//111 180//142
f 110//102 180//142 152//143
f 152//143 181//129 110//102
f 176//131 177//144 104//105
f 175//130 176//131 103//104
f 175//130 103//104 102//103
f 105//106 104//105 177//144
f 105//106 177//144 178//145
f 106//107 178//145 151//146
f 151//146 182//115 106//107
f 178//145 106//107 105//106
f 118//147 183//148 117//147
f 117//147 183//148 184//149
f 117//147 184//149 115//147
f 115//147 184//149 116//147
f 116//147 184//149 185//150
f 116//147 185//150 150//147
f 150//147 185//150 186//151
f 150//147 186//151 149//147
f 149//147 186//151 147//147
f 147//147 186//151 187//152
f 147//147 187//152 148//147
f 148//147 187//152 146//147
f 146//147 187//152 188//153
f 146//147 188//153 145//147
f 145//147 188//153 144//154
f 143//147 144//154 189//155
f 143//147 189//155 142//147
f 142//147 189//155 141//147
f 141//147 189//155 190//156
f 141//147 190//156 140//147
f 140//147 190//156 138//147
f 138//147 190//156 191//157
f 138//147 191//157 139//147
f 139//147 191//157 137//147
f 137//147 191//157 192//158
f 137//147 192//158 136//147
f 136//147 192//158 135//147
f 135//147 192//158 193//159
f 135//147 193//159 134//147
f 134//147 193//159 133//147
f 133//147 193//159 194//160
f 133//147 194//160 132//147
f 132//147 194//160 131//147
f 131//147 194//160 195//161
f 131//147 195//161 129//147
f 129//147 195//161 130//147
f 130//147 195//161 196//162
f 130//147 196//162 128//147
f 128//147 196//162 197//163
f 128//147 197//163 127//147
f 127//147 197//163 126//147
f 126//147 197//163 198//164
f 126//147 198//164 125//147
f 125//147 198//164 124//147
f 124//147 198//164 199//165
f 124//147 199//165 123//147
f 123//147 199//165 122//147
f 122//147 199//165 200//166
f 122//147 200//166 120//147
f 120//147 200//166 201//167
f 120//147 201//167 121//147
f 121//147 201//167 119//147
f 119//147 201//167 183//148
f 119//147 183//148 118//147
f 199//165 198//164 166//135
f 197//163 156//122 198//164
f 198//164 156//122 166//135
f 197//163 155//123 156//122
f 196//162 168//125 167//124
f 196//162 167//124 197//163
f 197//163 167//124 155//123
f 195//161 169//136 168//125
f 195//161 168//125 196//162
f 194//160 170//137 195//161
f 195//161 170//137 169//136
f 194//160 154//138 170//137
f 193//159 154//138 194//160
f 193//159 153//139 154//138
f 192//158 179//126 193//159
f 193//159 179//126 153//139
f 172//128 171//127 192//158
f 192//158 171//127 179//126
f 191//157 173//140 172//128
f 191//157 172//128 192//158
f 190//156 174//141 191//157
f 191//157 174//141 173//140
f 190//156 180//142 174//141
f 189//155 152//143 190//156
f 190//156 152//143 180//142
f 189//155 181//129 152//143
f 176//131 175//130 189//155
f 189//155 175//130 181//129
f 176//131 189//155 144//154
f 176//131 144//154 188//153
f 176//131 188//153 177//144
f 177//144 188//153 178//145
f 178//145 188//153 187//152
f 178//145 187//152 151//146
f 151//146 187//152 186//151
f 151//146 186//151 182//115
f 182//115 186//151 159//116
f 159//116 186//151 185//150
f 184//149 161//132 160//117
f 184//149 160//117 185//150
f 185//150 160//117 159//116
f 183//148 162//133 184//149
f 184//149 162//133 161//132
f 201//167 157//118 183//148
f 183//148 157//118 162//133
f 201//167 158//119 157//118
f 200//166 164//121 163//120
f 200//166 163//120 201//167
f 201//167 163//120 158//119
f 166//135 165//134 199//165
f 199//165 165//134 164//121
f 199//165 164//121 200//166
